<svg width="936" height="285" viewBox="0 0 936 285" fill="none" xmlns="http://www.w3.org/2000/svg">
<path d="M88.5703 284.5V211.453L87.0078 208.719V71.8047H88.375L152.242 183.914H68.2578L63.1797 182.547H5.17188V224.734H201.852V185.086L83.1016 0.125H39.5469V284.5H88.5703Z" fill="white"/>
<path d="M488.635 1.08891L485.085 0.5V47.318L487.599 47.7597C532.715 56.8878 565.553 96.7862 565.553 142.574C565.553 188.361 532.715 228.259 487.599 237.388L485.085 237.829V284.5L488.635 284.058C559.045 274.047 612 213.242 612 142.574C612 71.9049 559.045 11.1003 488.635 1.08891Z" fill="white"/>
<path d="M324 142.574C324 213.242 377.103 274.047 447.365 284.058L450.915 284.5V237.829L448.401 237.388C403.285 228.259 370.447 188.361 370.447 142.574C370.447 96.7862 403.285 56.8878 448.401 47.7597L450.915 47.318V0.5L447.365 1.08891C376.955 11.1003 324 72.0521 324 142.574Z" fill="white"/>
<path d="M468.07 79.4105C433.013 79.4105 404.612 107.678 404.612 142.423C404.612 177.169 433.161 205.436 468.07 205.436C502.979 205.436 531.528 177.169 531.528 142.423C531.528 107.678 502.979 79.4105 468.07 79.4105Z" fill="white"/>
<path d="M847.43 284.5V211.453L848.992 208.719V71.8047H847.625L783.758 183.914H867.742L872.82 182.547H930.828V224.734H734.148V185.086L852.898 0.125H896.453V284.5H847.43Z" fill="white"/>
</svg>
