<svg width="335" height="365" viewBox="0 0 335 365" fill="none" xmlns="http://www.w3.org/2000/svg">
<ellipse cx="220.826" cy="249.661" rx="114.174" ry="114.681" transform="rotate(180 220.826 249.661)" fill="url(#paint0_linear_2543_20560)"/>
<path d="M107.159 249.661C107.159 186.602 158.052 135.487 220.826 135.487C283.6 135.487 334.493 186.602 334.493 249.661C334.493 312.72 283.6 363.835 220.826 363.835C158.052 363.835 107.159 312.72 107.159 249.661Z" stroke="#008ECF" stroke-opacity="0.2" stroke-width="1.01488"/>
<ellipse cx="162.629" cy="156.218" rx="114.174" ry="114.681" transform="rotate(120 162.629 156.218)" fill="url(#paint1_linear_2543_20560)"/>
<path d="M105.796 254.656C51.1855 223.127 32.3646 153.495 63.7516 99.1313C95.1387 44.7673 164.852 26.2508 219.462 57.7802C274.073 89.3095 292.894 158.941 261.507 213.305C230.12 267.669 160.406 286.186 105.796 254.656Z" stroke="#008ECF" stroke-opacity="0.2" stroke-width="1.01488"/>
<path d="M127.028 87.8748L121.427 74.5759L132.168 70.0519L137.769 83.3508L135.769 84.1933L130.841 72.4928L124.1 75.3319L129.028 87.0324L127.028 87.8748Z" fill="#008ECF"/>
<path d="M141.167 86.6774L137.612 72.743L139.494 72.2628L139.895 73.5517L139.933 73.5419C140.102 73.0555 140.44 72.5907 140.948 72.1476C141.462 71.7028 142.103 71.3824 142.871 71.1864C144.241 70.8368 145.454 71.0216 146.511 71.7409C147.573 72.4585 148.293 73.5567 148.671 75.0356L148.747 75.3333C149.124 76.8122 149.022 78.1236 148.441 79.2674C147.86 80.4112 146.888 81.1571 145.524 81.505C144.756 81.701 144.061 81.742 143.438 81.6281C142.816 81.5141 142.296 81.2922 141.877 80.9625L143.203 86.1579L141.167 86.6774ZM141.39 79.0515C141.706 79.4346 142.148 79.7377 142.716 79.9609C143.289 80.1761 143.919 80.1963 144.604 80.0215C145.615 79.7634 146.275 79.261 146.582 78.5144C146.896 77.7661 146.926 76.8958 146.673 75.9034L146.577 75.5289C146.324 74.5366 145.881 73.7903 145.249 73.2902C144.623 72.7884 143.804 72.6666 142.793 72.9247C142.108 73.0995 141.569 73.4178 141.175 73.8796C140.78 74.335 140.532 74.8074 140.432 75.2966L141.39 79.0515Z" fill="#008ECF"/>
<path d="M149.964 75.1762L149.929 74.871C149.752 73.3219 150.093 72.0091 150.954 70.9326C151.815 69.8562 153.049 69.2257 154.657 69.0411C156.259 68.8572 157.601 69.192 158.683 70.0454C159.765 70.8989 160.395 72.1002 160.573 73.6493L160.608 73.9545C160.788 75.5168 160.447 76.8362 159.586 77.9126C158.725 78.9825 157.493 79.6094 155.891 79.7932C154.283 79.9778 152.938 79.6467 151.857 78.7998C150.774 77.9464 150.144 76.7385 149.964 75.1762ZM152.063 74.5962L152.107 74.9802C152.226 76.0174 152.592 76.8333 153.206 77.4279C153.819 78.0225 154.648 78.26 155.692 78.1402C156.742 78.0196 157.499 77.6002 157.961 76.882C158.424 76.1638 158.596 75.2829 158.476 74.2392L158.433 73.865C158.313 72.8213 157.944 72.0058 157.324 71.4185C156.711 70.8238 155.882 70.5864 154.838 70.7062C153.801 70.8253 153.048 71.2443 152.578 71.9632C152.115 72.6748 151.943 73.5525 152.063 74.5962Z" fill="#008ECF"/>
<path d="M161.697 73.9666L161.703 73.6595C161.733 72.107 162.229 70.8544 163.193 69.9015C164.163 68.9421 165.421 68.4773 166.967 68.5071C168.506 68.5368 169.686 69.0155 170.508 69.9433C171.336 70.8713 171.734 72.1181 171.704 73.6837L171.689 74.4863L162.989 74.3187L163.018 72.8125L169.617 72.9397L169.62 72.8009C169.634 72.0545 169.428 71.4326 169.002 70.9353C168.575 70.4315 167.893 70.1705 166.955 70.1524C165.931 70.1327 165.155 70.4515 164.627 71.1087C164.099 71.7594 163.825 72.6066 163.804 73.6504L163.797 74.0468C163.777 75.0971 164.031 75.9611 164.56 76.6388C165.089 77.3098 165.915 77.6562 167.038 77.6778C167.758 77.6917 168.372 77.5648 168.879 77.297C169.393 77.0227 169.806 76.6936 170.117 76.3097L171.514 77.3676C171.161 77.8895 170.597 78.3544 169.822 78.7624C169.054 79.164 168.122 79.3542 167.026 79.333C165.295 79.2997 163.966 78.7883 163.041 77.799C162.115 76.8097 161.667 75.5323 161.697 73.9666Z" fill="#008ECF"/>
<path d="M180.772 80.4645L177.107 75.1906L178.692 74.1034L183.4 80.8549L180.772 80.4645ZM175.572 73.5897L177.513 73.8781L181.924 70.2853L184.356 70.6466L178.127 75.6126L175.333 75.1974L175.572 73.5897ZM177.229 69.5875L175.724 79.7143L173.645 79.4055L175.15 69.2787L177.229 69.5875Z" fill="#008ECF"/>
<path d="M184.621 72.4224L185.042 70.8628L194.007 73.2857L193.586 74.8452L190.113 73.9066L187.863 82.2305L185.835 81.6823L188.084 73.3584L184.621 72.4224Z" fill="#008ECF"/>
<path d="M197.693 74.5728L196.347 77.7054L198.915 78.8086C200.105 79.3197 200.9 79.9885 201.3 80.8148C201.7 81.6411 201.689 82.5459 201.267 83.5294C200.852 84.4946 200.205 85.1226 199.325 85.4134C198.445 85.7041 197.41 85.5939 196.22 85.0827L191.722 83.1502L195.763 73.7435L197.693 74.5728ZM198.161 80.1887L195.729 79.1441L194.27 82.5407L196.701 83.5853C197.394 83.8826 197.949 83.9377 198.367 83.7507C198.788 83.5576 199.109 83.203 199.331 82.687C199.55 82.1771 199.582 81.709 199.427 81.2829C199.275 80.8507 198.853 80.486 198.161 80.1887ZM201.183 87.2148L205.224 77.8081L207.164 78.6414L203.122 88.0481L201.183 87.2148Z" fill="#008ECF"/>
<ellipse cx="114.862" cy="249.514" rx="114.174" ry="114.681" transform="rotate(180 114.862 249.514)" fill="url(#paint2_linear_2543_20560)"/>
<path d="M1.19562 249.514C1.19562 186.455 52.088 135.34 114.862 135.34C177.636 135.34 228.529 186.455 228.529 249.514C228.529 312.573 177.636 363.688 114.862 363.688C52.088 363.688 1.19563 312.573 1.19562 249.514Z" stroke="#008ECF" stroke-opacity="0.2" stroke-width="1.01488"/>
<path d="M34.2331 266.251L34.9618 266.061C37.2117 265.471 39.0754 265.612 40.5531 266.481C42.0389 267.356 43.0194 268.701 43.4948 270.516C43.9534 272.267 43.8827 273.758 43.2826 274.987C42.6825 276.217 41.6782 277.05 40.2696 277.487L40.1162 277.527L39.5638 275.418L39.7364 275.373C40.6515 275.086 41.2979 274.568 41.6758 273.82C42.0554 273.079 42.0929 272.126 41.7882 270.963C41.4685 269.742 40.7904 268.861 39.7539 268.32C38.7238 267.777 37.3458 267.731 35.6201 268.183L34.6996 268.424C33.025 268.863 31.8558 269.575 31.1921 270.562C30.5348 271.547 30.3669 272.653 30.6883 273.88C30.9962 275.056 31.5068 275.858 32.2199 276.286C32.933 276.714 33.7415 276.854 34.6453 276.706L34.8083 276.664L35.3607 278.773L35.1881 278.818C33.7902 279.061 32.5214 278.82 31.3819 278.094C30.2504 277.372 29.4495 276.114 28.9791 274.317C28.5004 272.489 28.6887 270.835 29.544 269.354C30.4074 267.878 31.9704 266.844 34.2331 266.251Z" fill="#008ECF"/>
<path d="M36.2346 280.226L36.5178 280.107C37.949 279.505 39.2955 279.451 40.5571 279.945C41.8274 280.443 42.7623 281.404 43.3618 282.83C43.9587 284.249 43.9996 285.522 43.4845 286.649C42.9719 287.782 41.9939 288.652 40.5505 289.259L39.8105 289.57L36.4365 281.549L37.8251 280.965L40.3845 287.05L40.5124 286.996C41.2006 286.706 41.6855 286.266 41.9671 285.674C42.2548 285.08 42.2167 284.351 41.853 283.486C41.4559 282.542 40.8498 281.962 40.0349 281.745C39.226 281.526 38.3404 281.619 37.3781 282.024L37.0127 282.178C36.0444 282.585 35.3576 283.168 34.9526 283.926C34.5536 284.682 34.5719 285.577 35.0074 286.613C35.2867 287.276 35.6515 287.786 36.102 288.141C36.5612 288.5 37.0294 288.744 37.5065 288.873L37.106 290.579C36.4855 290.467 35.8318 290.14 35.1448 289.598C34.4665 289.059 33.9147 288.284 33.4895 287.273C32.8182 285.677 32.7471 284.255 33.276 283.008C33.805 281.76 34.7912 280.833 36.2346 280.226Z" fill="#008ECF"/>
<path d="M33.7576 296.916L46.1459 289.613L47.1324 291.287L46.0065 292.031L46.0267 292.065C46.5409 292.092 47.0816 292.287 47.6488 292.65C48.2193 293.02 48.7059 293.546 49.1086 294.229C49.8266 295.447 49.9878 296.663 49.5919 297.879C49.1995 299.099 48.3458 300.097 47.031 300.872L46.7663 301.028C45.4515 301.804 44.1638 302.072 42.9033 301.833C41.6428 301.594 40.6552 300.869 39.9405 299.657C39.5379 298.974 39.3044 298.317 39.2402 297.688C39.1759 297.058 39.2437 296.497 39.4436 296.003L34.8246 298.726L33.7576 296.916ZM41.1426 295.002C40.8629 295.412 40.6952 295.921 40.6395 296.529C40.5929 297.14 40.7491 297.749 41.1081 298.358C41.6383 299.258 42.3047 299.751 43.1075 299.837C43.9136 299.93 44.7577 299.716 45.64 299.196L45.973 299C46.8552 298.479 47.4482 297.846 47.752 297.099C48.0592 296.358 47.9477 295.538 47.4175 294.639C47.0585 294.03 46.6023 293.601 46.049 293.352C45.5014 293.099 44.9786 292.993 44.4809 293.034L41.1426 295.002Z" fill="#008ECF"/>
<path d="M44.2024 305.896L52.24 299.554L55.4875 303.67C56.2241 304.604 56.6105 305.456 56.6466 306.227C56.6878 306.994 56.3583 307.654 55.658 308.207C55.1912 308.575 54.703 308.746 54.1934 308.718C53.6838 308.691 53.1939 308.497 52.7238 308.136L52.7004 308.154C53.0338 308.758 53.1671 309.343 53.1003 309.909C53.0376 310.48 52.7495 310.968 52.236 311.374C51.515 311.942 50.7496 312.13 49.9398 311.935C49.1352 311.737 48.3687 311.176 47.6402 310.253L44.2024 305.896ZM50.174 303.848L52.028 306.198C52.4004 306.67 52.767 306.932 53.1278 306.984C53.4979 307.037 53.8593 306.924 54.2121 306.646C54.5492 306.38 54.7247 306.069 54.7384 305.713C54.7563 305.362 54.579 304.951 54.2066 304.479L52.3526 302.129L50.174 303.848ZM46.6882 306.598L48.7202 309.174C49.1008 309.656 49.4849 309.929 49.8724 309.994C50.2652 310.054 50.6405 309.943 50.9984 309.661C51.3512 309.383 51.5412 309.048 51.5686 308.656C51.6002 308.269 51.4236 307.832 51.0389 307.344L49.0069 304.769L46.6882 306.598Z" fill="#008ECF"/>
<path d="M52.7769 316.231L59.9005 308.878L61.4024 310.333L57.0787 314.796C56.9361 314.943 56.7798 315.1 56.6095 315.266C56.4393 315.432 56.2781 315.584 56.1261 315.722L56.1831 315.777C56.383 315.713 56.583 315.654 56.783 315.6C56.9877 315.54 57.2181 315.483 57.4742 315.427L65.0542 313.87L66.5775 315.346L59.454 322.699L57.952 321.244L62.2827 316.774C62.4252 316.627 62.5816 316.47 62.7518 316.304C62.9314 316.137 63.0972 315.985 63.2492 315.847L63.1709 315.772C62.9851 315.84 62.7852 315.904 62.5712 315.963C62.3665 316.023 62.1385 316.082 61.8872 316.142L54.3003 317.707L52.7769 316.231Z" fill="#008ECF"/>
<path d="M64.0801 320.118L64.263 319.872C65.1995 318.608 66.3318 317.868 67.66 317.652C68.9935 317.44 70.3105 317.816 71.6109 318.78C72.8318 319.685 73.5396 320.666 73.7345 321.723C73.9347 322.785 73.7509 323.709 73.1832 324.498L73.1321 324.583L71.4601 323.344L71.5132 323.272C71.8502 322.806 71.9656 322.296 71.8594 321.74C71.7586 321.188 71.3472 320.645 70.6253 320.109C69.7813 319.484 68.9583 319.285 68.1561 319.513C67.3539 319.741 66.64 320.276 66.0144 321.12L65.7783 321.439C65.1566 322.278 64.8488 323.114 64.8548 323.95C64.87 324.783 65.3023 325.515 66.1516 326.145C66.8841 326.688 67.529 326.927 68.0863 326.863C68.6475 326.794 69.0993 326.528 69.4416 326.067L69.4888 326.003L71.1608 327.242L71.1077 327.314C70.524 328.09 69.6907 328.538 68.6077 328.656C67.534 328.773 66.3867 328.379 65.1659 327.474C63.8655 326.51 63.123 325.359 62.9384 324.022C62.7591 322.688 63.1397 321.387 64.0801 320.118Z" fill="#008ECF"/>
<path d="M78.1963 323.695L76.5836 326.699L79.0461 328.021C80.1871 328.633 80.9211 329.368 81.2479 330.226C81.5748 331.084 81.4851 331.985 80.9788 332.928C80.4819 333.853 79.7825 334.423 78.8806 334.636C77.9787 334.849 76.9572 334.65 75.8162 334.037L71.5025 331.721L76.345 322.701L78.1963 323.695ZM78.1745 329.33L75.843 328.078L74.0944 331.335L76.4259 332.587C77.0896 332.943 77.6379 333.046 78.0709 332.896C78.507 332.741 78.8579 332.415 79.1235 331.92C79.386 331.431 79.4586 330.968 79.3413 330.53C79.227 330.086 78.8381 329.686 78.1745 329.33ZM80.5753 336.592L85.4178 327.572L87.2777 328.57L82.4352 337.59L80.5753 336.592Z" fill="#008ECF"/>
<path fill-rule="evenodd" clip-rule="evenodd" d="M168.071 147.266C204.285 166.494 228.963 204.712 228.963 248.72C228.963 250.698 228.913 252.665 228.815 254.619C194.103 276.156 148.85 278.326 110.872 256.399C109.666 255.703 108.479 254.989 107.309 254.257C107.222 252.422 107.178 250.576 107.178 248.72C107.178 204.712 131.856 166.494 168.071 147.266Z" fill="#008ECF"/>
<path d="M128.689 203.749V189.319H140.344V203.749H138.174V191.053H130.859V203.749H128.689ZM142.56 198.774V198.466C142.56 196.907 143.048 195.642 144.026 194.671C145.004 193.699 146.303 193.214 147.921 193.214C149.534 193.214 150.829 193.699 151.806 194.671C152.784 195.642 153.273 196.907 153.273 198.466V198.774C153.273 200.346 152.784 201.618 151.806 202.589C150.829 203.554 149.534 204.036 147.921 204.036C146.303 204.036 145.004 203.554 144.026 202.589C143.048 201.618 142.56 200.346 142.56 198.774ZM144.71 198.437V198.823C144.71 199.867 144.981 200.72 145.523 201.38C146.065 202.041 146.861 202.371 147.911 202.371C148.969 202.371 149.768 202.041 150.31 201.38C150.852 200.72 151.123 199.864 151.123 198.813V198.437C151.123 197.386 150.848 196.534 150.3 195.88C149.758 195.219 148.962 194.889 147.911 194.889C146.867 194.889 146.071 195.219 145.523 195.88C144.981 196.534 144.71 197.386 144.71 198.437ZM158.135 195.127L157.956 199.091C157.877 200.835 157.639 202.084 157.243 202.837C156.853 203.59 156.143 203.967 155.112 203.967C154.887 203.967 154.676 203.951 154.478 203.918C154.286 203.891 154.127 203.848 154.002 203.789V202.064C154.114 202.11 154.227 202.143 154.339 202.163C154.458 202.176 154.587 202.183 154.725 202.183C155.221 202.183 155.551 201.942 155.717 201.46C155.888 200.977 156.001 200.102 156.053 198.833L156.291 193.511H164.18V203.749H162.079V195.127H158.135ZM166.802 193.511H168.903V197.713H173.809V193.511H175.92V203.749H173.809V199.329H168.903V203.749H166.802V193.511ZM180.633 193.511V196.92H183.428C184.723 196.92 185.717 197.221 186.411 197.822C187.105 198.424 187.452 199.259 187.452 200.33C187.452 201.38 187.105 202.213 186.411 202.827C185.717 203.442 184.723 203.749 183.428 203.749H178.532V193.511H180.633ZM183.279 198.486H180.633V202.183H183.279C184.032 202.183 184.564 202.015 184.875 201.678C185.185 201.334 185.341 200.881 185.341 200.32C185.341 199.765 185.185 199.322 184.875 198.992C184.564 198.655 184.032 198.486 183.279 198.486ZM188.829 203.749V193.511H190.94V203.749H188.829ZM193.552 203.749V193.511H195.643V199.725C195.643 199.93 195.64 200.151 195.633 200.389C195.627 200.627 195.617 200.848 195.604 201.053H195.683C195.782 200.868 195.884 200.687 195.99 200.508C196.096 200.323 196.221 200.122 196.367 199.904L200.728 193.511H202.849V203.749H200.757V197.525C200.757 197.32 200.761 197.099 200.767 196.861C200.78 196.616 200.794 196.392 200.807 196.187H200.698C200.612 196.365 200.513 196.55 200.401 196.742C200.295 196.927 200.173 197.129 200.034 197.347L195.673 203.749H193.552ZM198.19 190.439C198.66 190.439 199.049 190.303 199.36 190.032C199.67 189.761 199.925 189.325 200.123 188.724L201.62 189.547C201.302 190.373 200.843 190.974 200.242 191.35C199.647 191.727 198.963 191.915 198.19 191.915C197.417 191.915 196.733 191.73 196.139 191.36C195.551 190.984 195.092 190.379 194.761 189.547L196.288 188.704C196.492 189.332 196.743 189.778 197.041 190.042C197.345 190.306 197.728 190.439 198.19 190.439ZM133.03 222.774V222.466C133.03 220.894 133.499 219.625 134.437 218.661C135.382 217.696 136.664 217.214 138.283 217.214C139.802 217.214 140.955 217.58 141.742 218.314C142.535 219.047 142.938 219.9 142.951 220.871L142.961 220.97H140.879V220.881C140.873 220.306 140.661 219.827 140.245 219.444C139.835 219.06 139.181 218.869 138.283 218.869C137.232 218.869 136.453 219.199 135.944 219.86C135.435 220.521 135.181 221.376 135.181 222.427V222.823C135.181 223.867 135.432 224.723 135.934 225.39C136.443 226.051 137.226 226.381 138.283 226.381C139.195 226.381 139.855 226.19 140.265 225.806C140.675 225.417 140.879 224.934 140.879 224.359V224.28H142.961V224.369C142.954 225.341 142.551 226.196 141.752 226.936C140.959 227.67 139.802 228.036 138.283 228.036C136.664 228.036 135.382 227.554 134.437 226.589C133.499 225.625 133.03 224.353 133.03 222.774ZM144.671 217.511H153.709V227.749H151.608V219.127H146.772V227.749H144.671V217.511ZM155.697 222.774V222.466C155.697 220.914 156.169 219.652 157.114 218.681C158.065 217.703 159.314 217.214 160.86 217.214C162.4 217.214 163.589 217.67 164.428 218.581C165.274 219.493 165.697 220.732 165.697 222.298V223.101H156.995V221.594H163.596V221.456C163.596 220.709 163.378 220.091 162.942 219.602C162.505 219.107 161.818 218.859 160.88 218.859C159.856 218.859 159.086 219.193 158.571 219.86C158.055 220.521 157.798 221.373 157.798 222.417V222.813C157.798 223.864 158.069 224.723 158.61 225.39C159.152 226.051 159.985 226.381 161.108 226.381C161.828 226.381 162.439 226.243 162.942 225.965C163.45 225.681 163.857 225.344 164.161 224.954L165.578 225.985C165.234 226.513 164.679 226.989 163.913 227.412C163.153 227.828 162.225 228.036 161.128 228.036C159.397 228.036 158.059 227.551 157.114 226.58C156.169 225.608 155.697 224.34 155.697 222.774ZM174.741 227.749L170.34 223.071L171.748 221.763L177.397 227.749H174.741ZM168.586 221.713H170.548L174.384 217.511H176.842L171.411 223.339H168.586V221.713ZM169.637 217.511V227.749H167.535V217.511H169.637ZM177.323 219.127V217.511H186.609V219.127H183.012V227.749H180.91V219.127H177.323ZM188.121 231.892V217.511H190.063L190.133 218.859H190.172C190.457 218.429 190.899 218.063 191.501 217.759C192.108 217.455 192.809 217.303 193.602 217.303C195.016 217.303 196.145 217.782 196.991 218.74C197.844 219.698 198.27 220.94 198.27 222.466V222.774C198.27 224.3 197.847 225.545 197.001 226.51C196.155 227.475 195.029 227.957 193.621 227.957C192.829 227.957 192.145 227.825 191.57 227.561C190.995 227.296 190.546 226.953 190.222 226.53V231.892H188.121ZM190.222 224.558C190.433 225.007 190.787 225.41 191.282 225.767C191.785 226.117 192.389 226.292 193.096 226.292C194.14 226.292 194.903 225.968 195.386 225.321C195.875 224.673 196.119 223.838 196.119 222.813V222.427C196.119 221.403 195.875 220.57 195.386 219.929C194.903 219.288 194.14 218.968 193.096 218.968C192.389 218.968 191.788 219.143 191.292 219.493C190.797 219.837 190.44 220.233 190.222 220.683V224.558ZM142.778 255.862L142.787 254.187C142.979 254.24 143.187 254.283 143.412 254.316C143.643 254.349 143.861 254.366 144.066 254.366C144.588 254.366 145.031 254.204 145.394 253.88C145.764 253.556 146.151 252.829 146.554 251.699L146.504 251.69L142.292 241.511H144.403L147.019 248.151C147.125 248.409 147.214 248.65 147.287 248.875C147.36 249.1 147.423 249.321 147.475 249.539H147.535C147.594 249.321 147.66 249.1 147.733 248.875C147.806 248.65 147.892 248.409 147.991 248.151L150.518 241.511H152.51L147.902 253.057C147.505 254.035 147.006 254.782 146.405 255.297C145.81 255.813 145.08 256.07 144.215 256.07C143.917 256.07 143.653 256.05 143.422 256.011C143.197 255.978 142.982 255.928 142.778 255.862ZM153.05 246.774V246.466C153.05 244.894 153.52 243.625 154.458 242.661C155.403 241.696 156.684 241.214 158.303 241.214C159.823 241.214 160.976 241.58 161.762 242.314C162.555 243.047 162.958 243.9 162.971 244.871L162.981 244.97H160.9V244.881C160.893 244.306 160.682 243.827 160.266 243.444C159.856 243.06 159.202 242.869 158.303 242.869C157.253 242.869 156.473 243.199 155.964 243.86C155.456 244.521 155.201 245.376 155.201 246.427V246.823C155.201 247.867 155.452 248.723 155.954 249.39C156.463 250.051 157.246 250.381 158.303 250.381C159.215 250.381 159.876 250.19 160.285 249.806C160.695 249.417 160.9 248.934 160.9 248.359V248.28H162.981V248.369C162.975 249.341 162.572 250.196 161.772 250.936C160.979 251.67 159.823 252.036 158.303 252.036C156.684 252.036 155.403 251.554 154.458 250.589C153.52 249.625 153.05 248.353 153.05 246.774ZM167.555 243.127L167.377 247.091C167.298 248.835 167.06 250.084 166.663 250.837C166.273 251.59 165.563 251.967 164.532 251.967C164.308 251.967 164.096 251.951 163.898 251.918C163.707 251.891 163.548 251.848 163.422 251.789V250.064C163.535 250.11 163.647 250.143 163.759 250.163C163.878 250.176 164.007 250.183 164.146 250.183C164.641 250.183 164.972 249.942 165.137 249.46C165.309 248.977 165.421 248.102 165.474 246.833L165.712 241.511H173.601V251.749H171.5V243.127H167.555ZM175.35 255.862L175.36 254.187C175.552 254.24 175.76 254.283 175.985 254.316C176.216 254.349 176.434 254.366 176.639 254.366C177.161 254.366 177.604 254.204 177.967 253.88C178.337 253.556 178.723 252.829 179.127 251.699L179.077 251.69L174.865 241.511H176.976L179.592 248.151C179.698 248.409 179.787 248.65 179.86 248.875C179.933 249.1 179.995 249.321 180.048 249.539H180.108C180.167 249.321 180.233 249.1 180.306 248.875C180.379 248.65 180.464 248.409 180.564 248.151L183.091 241.511H185.083L180.474 253.057C180.078 254.035 179.579 254.782 178.978 255.297C178.383 255.813 177.653 256.07 176.788 256.07C176.49 256.07 176.226 256.05 175.995 256.011C175.77 255.978 175.555 255.928 175.35 255.862ZM186.248 241.511H193.582V243.127H188.349V251.749H186.248V241.511Z" fill="white"/>
<defs>
<linearGradient id="paint0_linear_2543_20560" x1="106.652" y1="193.725" x2="307.773" y2="317.315" gradientUnits="userSpaceOnUse">
<stop stop-color="#008ECF" stop-opacity="0.2"/>
<stop offset="1" stop-color="#008ECF" stop-opacity="0"/>
</linearGradient>
<linearGradient id="paint1_linear_2543_20560" x1="48.4552" y1="100.282" x2="249.576" y2="223.872" gradientUnits="userSpaceOnUse">
<stop stop-color="#008ECF" stop-opacity="0.2"/>
<stop offset="1" stop-color="#008ECF" stop-opacity="0"/>
</linearGradient>
<linearGradient id="paint2_linear_2543_20560" x1="0.688178" y1="193.578" x2="201.809" y2="317.168" gradientUnits="userSpaceOnUse">
<stop stop-color="#008ECF" stop-opacity="0.2"/>
<stop offset="1" stop-color="#008ECF" stop-opacity="0"/>
</linearGradient>
</defs>
</svg>
