<svg width="48" height="49" viewBox="0 0 48 49" fill="none" xmlns="http://www.w3.org/2000/svg">
<path d="M28.8403 24.032C28.8369 26.8205 26.5937 29.0768 23.8308 29.0751C21.0663 29.0734 18.8265 26.8104 18.8281 24.0235C18.8315 21.235 21.0764 18.9788 23.8392 18.9805C26.6021 18.9839 28.842 21.2452 28.8403 24.032Z" fill="white"/>
<path d="M23.8836 0C20.2715 0 16.8461 0.8086 13.7773 2.2529C17.8601 1.8291 22.1011 3.6005 25.2322 6.7874H25.2355C26.8011 8.3452 28.1733 10.3675 29.3403 12.8001C35.9825 13.9985 40.4925 10.6727 42.27 8.7046C37.8911 3.3886 31.2808 0.0017004 23.8836 0.0017004" fill="white"/>
<path d="M9.50334 4.84628C6.23094 7.33478 3.61444 10.6539 1.96484 14.49C3.94904 14.9816 9.88844 16.9276 12.6125 24.3303C13.4315 24.0608 15.1988 23.025 16.4247 19.0245C17.928 14.1238 20.6673 9.39438 24.2188 7.30088C20.3041 3.47488 14.3597 1.80348 9.50334 4.84628Z" fill="white"/>
<path d="M44.553 36.0407C46.359 32.8928 47.3764 29.5026 47.6673 26.1055C45.9908 29.8755 42.3451 32.686 38.0386 33.8218V33.8252C35.9147 34.41 33.4899 34.5965 30.8128 34.3964C26.4609 39.5853 27.0663 45.1793 27.8717 47.7135V47.7152C34.6351 46.5574 40.8552 42.4891 44.553 36.0424" fill="white"/>
<path d="M47.5735 21.0906C47.0673 16.9934 45.5203 13.0556 43.0433 9.69922C41.6274 11.1825 36.9846 15.3864 29.251 14.0591C29.0728 14.9084 29.0812 16.9663 31.9096 20.0345C35.3753 23.7961 38.0759 28.5476 38.1012 32.6905C43.3511 31.1903 47.7618 26.8473 47.5718 21.0923" fill="white"/>
<path d="M3.2045 36.0364C5.0105 39.1842 7.4185 41.766 10.1965 43.7188C7.7901 40.3725 7.1948 35.7906 8.3703 31.4696C8.3703 31.4696 8.3686 31.4696 8.3669 31.4679C8.9252 29.3236 9.9779 27.1182 11.4879 24.8857C9.1976 18.4984 4.0806 16.2286 1.4993 15.6641H1.4976C-0.888523 22.1378 -0.496713 29.5931 3.2028 36.0397" fill="white"/>
<path d="M14.5601 46.1465C18.3386 47.7552 22.5022 48.3757 26.6288 47.8959C26.0604 45.9211 24.7639 39.7728 29.7734 33.6957C29.1327 33.1159 27.3569 32.0938 23.3027 33.0261C18.3336 34.1652 12.8937 34.1432 9.31689 32.0938C7.98349 37.4181 9.51539 43.436 14.5618 46.1465" fill="white"/>
</svg>
