<svg width="106" height="31" viewBox="0 0 106 31" fill="none" xmlns="http://www.w3.org/2000/svg">
<path d="M47.8693 20.4801H48.5404C48.8884 20.4801 49.1526 20.4096 49.3324 20.269C49.5127 20.128 49.6033 19.913 49.6033 19.6225C49.6033 19.3244 49.5127 19.1093 49.3324 18.9764C49.1526 18.8443 48.8884 18.7778 48.5404 18.7778H47.8693V20.4801ZM47.8693 22.605H47.3102V18.2557H48.5904C48.8385 18.2557 49.0611 18.2816 49.2584 18.3338C49.4547 18.3851 49.6238 18.4668 49.7644 18.5788C49.9054 18.6908 50.0134 18.8318 50.0874 19.0013C50.1624 19.1713 50.1994 19.3744 50.1994 19.6104C50.1994 20.062 50.0535 20.4065 49.7612 20.6448C49.4694 20.883 49.0625 21.0022 48.5404 21.0022H47.8693V22.605Z" fill="#2A5AA7"/>
<path d="M53.4056 22.1453C53.8157 22.1453 54.1374 22.0012 54.3721 21.7134C54.6055 21.4256 54.7228 20.9981 54.7228 20.4305C54.7228 20.132 54.6907 19.8754 54.6269 19.6599C54.5622 19.4448 54.4703 19.2664 54.3502 19.1254C54.2298 18.9848 54.0838 18.8813 53.912 18.8152C53.7398 18.7487 53.5462 18.7153 53.3311 18.7153C53.1405 18.7153 52.9621 18.751 52.797 18.8215C52.631 18.892 52.4882 18.9973 52.3681 19.1378C52.2477 19.2789 52.1522 19.4569 52.0821 19.6724C52.0116 19.8879 51.9768 20.1405 51.9768 20.4305C51.9768 20.7166 52.0107 20.9669 52.079 21.1824C52.1473 21.3979 52.2441 21.5769 52.3681 21.7197C52.4922 21.8624 52.6421 21.9691 52.8188 22.0396C52.9942 22.1101 53.1905 22.1453 53.4056 22.1453ZM53.3498 22.6674C53.0473 22.6674 52.7751 22.6152 52.5328 22.5117C52.2905 22.4086 52.083 22.26 51.9112 22.0677C51.7394 21.8749 51.6073 21.6402 51.5168 21.3622C51.4257 21.0847 51.3802 20.7746 51.3802 20.4305C51.3802 20.0825 51.428 19.7706 51.523 19.4953C51.6181 19.22 51.7519 18.9861 51.9237 18.7934C52.0955 18.6006 52.3017 18.4525 52.5422 18.3489C52.7822 18.2454 53.0455 18.1932 53.3311 18.1932C53.6541 18.1932 53.9388 18.2485 54.1856 18.3579C54.4319 18.4681 54.6389 18.6216 54.8067 18.8179C54.9745 19.0151 55.1017 19.2512 55.1887 19.5265C55.2761 19.8023 55.3194 20.1035 55.3194 20.4305C55.3194 20.7991 55.2699 21.1231 55.1704 21.4028C55.0709 21.6826 54.9343 21.9155 54.7599 22.1016C54.5863 22.2881 54.3788 22.4291 54.1387 22.5246C53.8982 22.6197 53.6354 22.6674 53.3498 22.6674Z" fill="#2A5AA7"/>
<path d="M59.7434 22.487C59.6229 22.545 59.4819 22.5897 59.3208 22.6204C59.1588 22.6517 58.983 22.6673 58.7925 22.6673C58.4529 22.6673 58.1499 22.6164 57.8822 22.5151C57.6154 22.4134 57.3887 22.2675 57.2022 22.077C57.0157 21.8864 56.8724 21.6575 56.7734 21.3902C56.6739 21.1229 56.6243 20.8217 56.6243 20.4862C56.6243 20.1176 56.6739 19.7905 56.7734 19.5045C56.8724 19.2189 57.0157 18.9789 57.2022 18.7839C57.3887 18.5889 57.6131 18.4421 57.8764 18.3426C58.1392 18.2431 58.4324 18.1935 58.7555 18.1935C59.004 18.1935 59.2057 18.2114 59.361 18.2466C59.5167 18.2814 59.6461 18.3198 59.7496 18.3613L59.6439 18.8521C59.5073 18.8022 59.3686 18.7674 59.2276 18.7464C59.0865 18.7259 58.9478 18.7152 58.8112 18.7152C58.2936 18.7152 57.8987 18.8602 57.6274 19.1507C57.3561 19.4403 57.2209 19.8673 57.2209 20.4304C57.2209 20.6995 57.2593 20.9409 57.3356 21.1546C57.4123 21.3675 57.5208 21.5482 57.6618 21.695C57.8023 21.8418 57.9746 21.9538 58.1776 22.0305C58.3806 22.1068 58.6104 22.1452 58.867 22.1452C59.004 22.1452 59.1419 22.1332 59.2807 22.1082C59.4194 22.0832 59.5426 22.0435 59.6501 21.9899L59.7434 22.487Z" fill="#2A5AA7"/>
<path d="M61.9737 20.9335H63.4712L62.7438 18.8894H62.7193L61.9737 20.9335ZM63.651 21.4431H61.7934L61.3713 22.605H60.8055L62.4645 18.2553H63.0241L64.6518 22.605H64.0678L63.651 21.4431Z" fill="#2A5AA7"/>
<path d="M66.9321 22.6052H66.3729V18.7775H65.0865V18.2559H68.218V18.7775H66.9321V22.6052Z" fill="#2A5AA7"/>
<path d="M71.1758 22.1453C71.5859 22.1453 71.9076 22.0012 72.1423 21.7134C72.3761 21.4256 72.4931 20.9981 72.4931 20.4305C72.4931 20.132 72.4609 19.8754 72.3971 19.6599C72.3329 19.4448 72.2405 19.2664 72.1205 19.1254C72 18.9848 71.8541 18.8813 71.6823 18.8152C71.51 18.7487 71.3168 18.7153 71.1013 18.7153C70.9108 18.7153 70.7327 18.751 70.5672 18.8215C70.4012 18.892 70.2584 18.9973 70.1384 19.1378C70.0183 19.2789 69.9224 19.4569 69.8523 19.6724C69.7818 19.8879 69.747 20.1405 69.747 20.4305C69.747 20.7166 69.7814 20.9669 69.8492 21.1824C69.9179 21.3979 70.0143 21.5769 70.1384 21.7197C70.2624 21.8624 70.4128 21.9691 70.5891 22.0396C70.7644 22.1101 70.9608 22.1453 71.1758 22.1453ZM71.12 22.6674C70.818 22.6674 70.5453 22.6152 70.303 22.5117C70.0607 22.4086 69.8532 22.26 69.6814 22.0677C69.5097 21.8749 69.378 21.6402 69.287 21.3622C69.196 21.0847 69.1505 20.7746 69.1505 20.4305C69.1505 20.0825 69.1982 19.7706 69.2932 19.4953C69.3883 19.22 69.5226 18.9861 69.6939 18.7934C69.8662 18.6006 70.0719 18.4525 70.3124 18.3489C70.5525 18.2454 70.8157 18.1932 71.1013 18.1932C71.4248 18.1932 71.7091 18.2485 71.9558 18.3579C72.2021 18.4681 72.4096 18.6216 72.5769 18.8179C72.7447 19.0151 72.8723 19.2512 72.9594 19.5265C73.0464 19.8023 73.0896 20.1035 73.0896 20.4305C73.0896 20.7991 73.0401 21.1231 72.9406 21.4028C72.8411 21.6826 72.7046 21.9155 72.5305 22.1016C72.3565 22.2881 72.1495 22.4291 71.9094 22.5246C71.6689 22.6197 71.4056 22.6674 71.12 22.6674Z" fill="#2A5AA7"/>
<path d="M78.8308 22.6052H78.2721L78.0044 19.2063L76.9045 22.6052H76.3208L75.2272 19.2188L74.9536 22.6052H74.3945L74.7676 18.2559H75.4507L76.6252 21.9965L77.7746 18.2559H78.4578L78.8308 22.6052Z" fill="#2A5AA7"/>
<path d="M40.9765 30.204H41.3482V0.20404H40.9765V30.204Z" fill="#303132"/>
<path d="M8.3304 15.5713C8.3304 20.4926 12.0072 24.5464 16.7621 25.1595V21.0196C14.2972 20.4542 12.457 18.253 12.457 15.6181C12.457 12.9832 14.2972 10.782 16.7621 10.2167V5.98385C12.0072 6.59606 8.3304 10.6499 8.3304 15.5713Z" fill="url(#paint0_linear_3304_893)"/>
<path d="M19.2157 5.9776V10.2073C21.6988 10.7593 23.5569 12.9703 23.5569 15.6181C23.5569 18.266 21.6988 20.477 19.2157 21.0285V25.1653C23.9893 24.5696 27.6857 20.506 27.6857 15.5713C27.6857 10.6365 23.9893 6.57286 19.2157 5.9776Z" fill="#656263"/>
<path d="M0.22934 15.5713C0.22934 20.4926 3.90571 24.5464 8.66059 25.1595V21.0196C6.1957 20.4542 4.3555 18.253 4.3555 15.6181C4.3555 12.9832 6.1957 10.782 8.66059 10.2167V5.98385C3.90571 6.59606 0.22934 10.6499 0.22934 15.5713Z" fill="url(#paint1_linear_3304_893)"/>
<path d="M27.3174 5.9776V10.2073C29.8006 10.7593 31.6587 12.9703 31.6587 15.6181C31.6587 18.266 29.8006 20.477 27.3174 21.0285V25.1653C32.091 24.5696 35.7875 20.506 35.7875 15.5713C35.7875 10.6365 32.091 6.57286 27.3174 5.9776Z" fill="#656263"/>
<path d="M21.0095 15.64C21.0095 17.2959 19.6673 18.6381 18.0114 18.6381C16.356 18.6381 15.0137 17.2959 15.0137 15.64C15.0137 13.9841 16.356 12.6419 18.0114 12.6419C19.6673 12.6419 21.0095 13.9841 21.0095 15.64Z" fill="#2C63AE"/>
<path d="M51.7702 13.7892H51.0875V12.6058H47.3781V7.2954H48.0608V11.9686H50.4806V7.2954H51.1633V11.9686H51.7702V13.7892Z" fill="#303132"/>
<path d="M55.0016 12.0444C55.5022 12.0444 55.8953 11.8686 56.1814 11.517C56.4669 11.1654 56.6097 10.6433 56.6097 9.9508C56.6097 9.58669 56.5705 9.273 56.4919 9.01017C56.4138 8.74691 56.3014 8.5296 56.1546 8.35781C56.0078 8.18601 55.8293 8.05929 55.6196 7.97852C55.4099 7.89776 55.1734 7.85715 54.9105 7.85715C54.6776 7.85715 54.4603 7.89999 54.2582 7.98611C54.0556 8.07223 53.8816 8.20118 53.7348 8.37253C53.588 8.54477 53.4719 8.76252 53.3858 9.0249C53.2997 9.28817 53.2569 9.59695 53.2569 9.9508C53.2569 10.2997 53.2988 10.6054 53.3823 10.8687C53.4657 11.1315 53.583 11.3501 53.7348 11.5246C53.8865 11.6995 54.0699 11.8298 54.2849 11.9155C54.4996 12.0012 54.7387 12.0444 55.0016 12.0444ZM54.9333 12.6816C54.5643 12.6816 54.2314 12.6183 53.9356 12.492C53.6397 12.3657 53.3872 12.1846 53.1774 11.9494C52.9673 11.7147 52.8066 11.4273 52.6955 11.0882C52.5844 10.75 52.5286 10.3707 52.5286 9.9508C52.5286 9.52555 52.5866 9.14538 52.7031 8.80893C52.8191 8.47293 52.9824 8.18691 53.1922 7.95175C53.4023 7.71704 53.6536 7.53588 53.9472 7.4096C54.2403 7.28332 54.5616 7.21951 54.9105 7.21951C55.305 7.21951 55.6526 7.28689 55.9533 7.4212C56.2545 7.55462 56.5076 7.74203 56.7119 7.98209C56.9167 8.2226 57.0725 8.51086 57.1787 8.84686C57.2849 9.18331 57.338 9.55143 57.338 9.9508C57.338 10.4006 57.2773 10.7964 57.1559 11.1382C57.0345 11.4791 56.8676 11.7638 56.6552 11.9913C56.4428 12.2189 56.1898 12.3907 55.8967 12.5072C55.6035 12.6236 55.2822 12.6816 54.9333 12.6816Z" fill="#303132"/>
<path d="M61.5024 11.9686V7.93304H59.7957C59.7957 7.94777 59.7943 7.97454 59.7921 8.01247C59.7894 8.0504 59.7881 8.09011 59.7881 8.12983C59.7881 8.17043 59.7867 8.20836 59.7841 8.24361C59.7818 8.27931 59.7805 8.30474 59.7805 8.31947C59.7653 8.64877 59.7439 8.97987 59.7162 9.31364C59.6881 9.64741 59.648 9.97225 59.5949 10.2882C59.5413 10.6041 59.4744 10.9053 59.3936 11.1909C59.3129 11.4764 59.2116 11.7361 59.0902 11.9686H61.5024ZM62.792 13.7892H62.1093V12.6058H58.5516V13.7892H57.8689V11.9686H58.3923C58.5489 11.6955 58.6743 11.401 58.768 11.0851C58.8613 10.7692 58.9349 10.4327 58.988 10.0758C59.0407 9.71925 59.0786 9.34889 59.1018 8.9647C59.1241 8.58006 59.1406 8.18337 59.1509 7.77374L59.1661 7.2954H62.1852V11.9686H62.792V13.7892Z" fill="#303132"/>
<path d="M72.6528 12.6057H71.9701L71.6439 8.45629L70.3012 12.6057H69.5882L68.2531 8.47146L67.9193 12.6057H67.2366L67.6918 7.29568H68.5262L69.9599 11.8623L71.3632 7.29568H72.1977L72.6528 12.6057Z" fill="#303132"/>
<path d="M76.1121 12.0444C76.6127 12.0444 77.0059 11.8686 77.2919 11.517C77.5775 11.1654 77.7203 10.6433 77.7203 9.9508C77.7203 9.58669 77.681 9.273 77.6025 9.01017C77.5244 8.74691 77.4119 8.5296 77.2651 8.35781C77.1183 8.18601 76.9398 8.05929 76.7301 7.97852C76.5204 7.89776 76.2839 7.85715 76.0211 7.85715C75.7881 7.85715 75.5708 7.89999 75.3687 7.98611C75.1661 8.07223 74.9921 8.20118 74.8453 8.37253C74.6985 8.54477 74.5825 8.76252 74.4963 9.0249C74.4102 9.28817 74.3674 9.59695 74.3674 9.9508C74.3674 10.2997 74.4093 10.6054 74.4928 10.8687C74.5762 11.1315 74.6936 11.3501 74.8453 11.5246C74.997 11.6995 75.1804 11.8298 75.3955 11.9155C75.6101 12.0012 75.8493 12.0444 76.1121 12.0444ZM76.0438 12.6816C75.6748 12.6816 75.3419 12.6183 75.0461 12.492C74.7502 12.3657 74.4977 12.1846 74.288 11.9494C74.0778 11.7147 73.9172 11.4273 73.806 11.0882C73.6949 10.75 73.6392 10.3707 73.6392 9.9508C73.6392 9.52555 73.6972 9.14538 73.8136 8.80893C73.9296 8.47293 74.093 8.18691 74.3027 7.95175C74.5129 7.71704 74.7641 7.53588 75.0577 7.4096C75.3508 7.28332 75.6721 7.21951 76.0211 7.21951C76.4155 7.21951 76.7631 7.28689 77.0639 7.4212C77.3651 7.55462 77.6181 7.74203 77.8224 7.98209C78.0272 8.2226 78.183 8.51086 78.2892 8.84686C78.3954 9.18331 78.4485 9.55143 78.4485 9.9508C78.4485 10.4006 78.3878 10.7964 78.2664 11.1382C78.1451 11.4791 77.9782 11.7638 77.7658 11.9913C77.5534 12.2189 77.3004 12.3907 77.0072 12.5072C76.714 12.6236 76.3928 12.6816 76.0438 12.6816Z" fill="#303132"/>
<path d="M83.2424 12.4615C83.0956 12.5324 82.9238 12.5864 82.7266 12.6248C82.5294 12.6627 82.3143 12.6815 82.0818 12.6815C81.6673 12.6815 81.2969 12.6194 80.9707 12.4958C80.6445 12.3718 80.3674 12.1933 80.1399 11.9608C79.9123 11.7283 79.7378 11.4486 79.6169 11.1228C79.4951 10.7966 79.4344 10.4285 79.4344 10.0189C79.4344 9.5691 79.4951 9.16929 79.6169 8.82035C79.7378 8.47185 79.9123 8.17824 80.1399 7.94041C80.3674 7.70302 80.6419 7.52364 80.9631 7.40183C81.284 7.2809 81.6418 7.21977 82.0363 7.21977C82.3397 7.21977 82.5865 7.24164 82.7761 7.28403C82.9658 7.32731 83.1237 7.37416 83.25 7.42458L83.121 8.0243C82.9542 7.96317 82.7846 7.92033 82.6128 7.89534C82.441 7.86991 82.2714 7.85741 82.1046 7.85741C81.4723 7.85741 80.9908 8.03412 80.6597 8.38797C80.3282 8.74226 80.1626 9.263 80.1626 9.95061C80.1626 10.2795 80.2095 10.5744 80.3032 10.8346C80.3969 11.0947 80.5294 11.3151 80.7012 11.4945C80.873 11.6739 81.0832 11.8104 81.3308 11.9041C81.5785 11.9979 81.8591 12.0443 82.1728 12.0443C82.3397 12.0443 82.5079 12.0291 82.6775 11.9987C82.8466 11.9689 82.997 11.9207 83.1286 11.8551L83.2424 12.4615Z" fill="#303132"/>
<path d="M86.9784 11.7259C86.824 11.4778 86.6937 11.2645 86.5879 11.0847C86.4813 10.9053 86.3929 10.7585 86.322 10.6447C86.2515 10.5309 86.1845 10.4426 86.1212 10.3792C86.0578 10.3163 85.9895 10.2717 85.9164 10.2467C85.8432 10.2213 85.7531 10.2088 85.6473 10.2088H85.1466V12.6058H84.4635V7.29542H85.1466V9.70811H85.5938L87.4674 7.29542H88.3398L86.2997 9.73845C86.446 9.76388 86.575 9.83573 86.6861 9.95442C86.7976 10.0736 86.9239 10.2476 87.0654 10.4778C87.2073 10.7081 87.3826 10.9986 87.5928 11.3502C87.8025 11.7018 88.0796 12.1204 88.4232 12.6058H87.5584C87.326 12.2672 87.1328 11.9735 86.9784 11.7259Z" fill="#303132"/>
<path d="M89.9707 11.9686H90.9038C91.6472 11.9686 92.0189 11.6803 92.0189 11.1038C92.0189 10.7696 91.9136 10.5295 91.7038 10.3827C91.4941 10.2364 91.1769 10.1632 90.7521 10.1632H89.9707V11.9686ZM89.9707 9.58668H90.699C90.9265 9.58668 91.1184 9.56347 91.2755 9.5184C91.4321 9.47244 91.5588 9.40997 91.6548 9.32876C91.7507 9.24755 91.8203 9.15072 91.8631 9.03694C91.906 8.92271 91.9278 8.8 91.9278 8.66836C91.9278 8.43098 91.8444 8.24892 91.6775 8.12264C91.5106 7.99636 91.2224 7.933 90.8127 7.933H89.9707V9.58668ZM89.288 12.6058V7.29536H90.9038C91.2121 7.29536 91.4754 7.32748 91.6927 7.3904C91.91 7.45376 92.0871 7.54479 92.2237 7.66393C92.3602 7.78262 92.4588 7.92452 92.5195 8.08873C92.5802 8.25294 92.6106 8.43365 92.6106 8.63088C92.6106 8.94457 92.5244 9.20605 92.3526 9.41577C92.1808 9.62594 91.9278 9.76605 91.5941 9.837V9.85217C91.9734 9.90795 92.2603 10.0481 92.4548 10.273C92.6494 10.4983 92.7471 10.7723 92.7471 11.0962C92.7471 11.293 92.7118 11.4831 92.6409 11.6647C92.5699 11.8472 92.4588 12.0078 92.3071 12.1466C92.1554 12.2858 91.9604 12.3969 91.723 12.4804C91.4852 12.5638 91.1969 12.6058 90.8583 12.6058H89.288Z" fill="#303132"/>
<path d="M94.7494 10.565H96.5776L95.6901 8.0693H95.6597L94.7494 10.565ZM96.7976 11.1875H94.5295L94.0136 12.6055H93.3233L95.3487 7.29556H96.0314L98.0189 12.6055H97.3058L96.7976 11.1875Z" fill="#303132"/>
<path d="M101.205 10.7473H98.8534V10.148H101.205V10.7473Z" fill="#303132"/>
<path d="M105.787 12.6057H102.434V11.9457L103.427 11.0506C103.675 10.8284 103.895 10.6222 104.087 10.4326C104.28 10.2425 104.443 10.0609 104.577 9.88596C104.711 9.71194 104.812 9.54238 104.88 9.37817C104.949 9.21352 104.982 9.04306 104.982 8.86591C104.982 8.52233 104.88 8.27289 104.675 8.1185C104.471 7.96456 104.209 7.88736 103.89 7.88736C103.622 7.88736 103.387 7.9244 103.185 7.99758C102.983 8.07076 102.8 8.15777 102.638 8.25906V7.53084C102.901 7.40946 103.148 7.32736 103.378 7.28408C103.608 7.24169 103.812 7.21982 103.989 7.21982C104.221 7.21982 104.441 7.25017 104.649 7.31085C104.856 7.37154 105.038 7.46256 105.195 7.58394C105.351 7.70531 105.477 7.8597 105.571 8.04666C105.664 8.23363 105.711 8.45629 105.711 8.7142C105.711 8.99755 105.655 9.26706 105.544 9.5223C105.433 9.77753 105.278 10.0279 105.081 10.2728C104.884 10.5183 104.65 10.7623 104.38 11.0051C104.109 11.2478 103.814 11.5004 103.496 11.7636L103.253 11.9609V11.9685H105.787V12.6057Z" fill="#303132"/>
<path d="M15.7719 13.5968C14.6591 14.8315 14.7541 16.7395 15.9857 17.8577C17.2168 18.975 19.1172 18.8813 20.2328 17.6466C21.3461 16.4124 21.2515 14.5053 20.0204 13.3866C19.4443 12.8641 18.7219 12.6057 18.0008 12.6057C17.1815 12.6057 16.3658 12.9395 15.7719 13.5968Z" fill="url(#paint2_radial_3304_893)"/>
<defs>
<linearGradient id="paint0_linear_3304_893" x1="2.67692" y1="-2.207" x2="20.4831" y2="23.9088" gradientUnits="userSpaceOnUse">
<stop stop-color="#6EAAE0"/>
<stop offset="1" stop-color="#243D72"/>
</linearGradient>
<linearGradient id="paint1_linear_3304_893" x1="-2.85358" y1="1.56379" x2="14.9526" y2="27.6796" gradientUnits="userSpaceOnUse">
<stop stop-color="#6EAAE0"/>
<stop offset="1" stop-color="#243D72"/>
</linearGradient>
<radialGradient id="paint2_radial_3304_893" cx="0" cy="0" r="1" gradientUnits="userSpaceOnUse" gradientTransform="translate(17.0409 13.9413) rotate(0.055092) scale(4.23214 4.24434)">
<stop stop-color="#6EA9E0"/>
<stop offset="1" stop-color="#233C70"/>
</radialGradient>
</defs>
</svg>
