<svg width="32" height="32" viewBox="0 0 32 32" fill="none" xmlns="http://www.w3.org/2000/svg">
<path d="M18.2929 0.0663556L17.8984 0V5.27527L18.1778 5.32504C23.1907 6.35355 26.8394 10.8491 26.8394 16.0083C26.8394 21.1674 23.1907 25.663 18.1778 26.6915L17.8984 26.7413V32L18.2929 31.9502C26.1162 30.8222 32.0001 23.971 32.0001 16.0083C32.0001 8.04562 26.1162 1.1944 18.2929 0.0663556Z" fill="#FFFFFF"/>
<path d="M0 16.0083C0 23.971 5.90036 30.8222 13.7072 31.9502L14.1017 32V26.7413L13.8223 26.6915C8.80945 25.663 5.16076 21.1674 5.16076 16.0083C5.16076 10.8491 8.80945 6.35355 13.8223 5.32504L14.1017 5.27527V0L13.7072 0.0663556C5.88392 1.1944 0 8.06221 0 16.0083Z" fill="#FFFFFF"/>
<path d="M16.0059 8.8916C12.1107 8.8916 8.95508 12.0767 8.95508 15.9917C8.95508 19.9066 12.1271 23.0917 16.0059 23.0917C19.8847 23.0917 23.0568 19.9066 23.0568 15.9917C23.0568 12.0767 19.8847 8.8916 16.0059 8.8916Z" fill="#FFFFFF"/>
</svg>
