<svg width="504" height="74" viewBox="0 0 504 74" fill="none" xmlns="http://www.w3.org/2000/svg">
<path d="M295.676 31.5822H293.004V19.0127H300.609V21.4554H295.676V31.5822Z" fill="white"/>
<path d="M306.559 31.5822H303.887V19.0127H308.18C311.315 19.0127 313.292 20.323 313.292 23.215C313.292 26.1069 311.261 27.6495 307.931 27.6495H306.559V31.5822ZM306.505 25.2797H307.966C309.569 25.2797 310.531 24.6508 310.531 23.3218C310.531 21.9216 309.623 21.3825 307.983 21.3825H306.505V25.2797Z" fill="white"/>
<path d="M318.939 29.8769C319.579 29.4819 320.114 29.0158 320.417 28.4581L320.471 28.3326L315.84 19.0127H318.939L321.878 25.6916L324.264 19.0127H327.025L323.089 28.7988C322.5 30.2532 321.486 31.3839 320.435 31.9585L318.939 29.8752V29.8769Z" fill="white"/>
<path d="M340.17 31.5822H337.5V21.4368H332.726V31.5822H330.054V19.0127H340.17V31.5822Z" fill="white"/>
<path d="M354.492 31.5822H351.82V21.4368H347.046V31.5822H344.374V19.0127H354.492V31.5822Z" fill="white"/>
<path d="M365.929 28.8174H361.138L360.247 31.5822H357.61L361.868 19.0127H365.342L369.546 31.5822H366.82L365.929 28.8174ZM361.868 26.4646H365.199L363.542 21.1859L361.868 26.4646Z" fill="white"/>
<path d="M381.246 24.2747H381.887L385.716 19.0129H388.815L384.416 24.5069C385.859 24.9561 386.483 27.2174 389.012 31.5808H385.948C383.4 27.1462 383.738 26.3919 382.208 26.3919H381.246V31.5808H378.574V19.0112H381.246V24.273V24.2747Z" fill="white"/>
<path d="M390.634 25.2968C390.634 21.0776 393.182 18.7959 396.619 18.7959C400.467 18.7959 402.693 21.2556 402.693 25.2968C402.693 29.7686 400.11 31.7977 396.69 31.7977C393.074 31.7977 390.633 29.5177 390.633 25.2968M399.86 25.2968C399.86 22.4422 398.56 21.1674 396.618 21.1674C394.854 21.1674 393.465 22.4964 393.465 25.2968C393.465 28.0972 394.907 29.4262 396.777 29.4262C398.647 29.4262 399.86 28.1158 399.86 25.2968Z" fill="white"/>
<path d="M420.436 31.5822H417.745L417.069 23.2319L414.503 31.5822H411.957L409.426 23.2692L408.75 31.5822H406.06L407.308 19.0127H410.496L413.311 28.4937L416.089 19.0127H419.171L420.436 31.5822Z" fill="white"/>
<path d="M434.347 31.5822H431.675V21.4368H426.901V31.5822H424.229V19.0127H434.347V31.5822Z" fill="white"/>
<path d="M445.782 28.8174H440.991L440.1 31.5822H437.463L441.721 19.0127H445.195L449.399 31.5822H446.673L445.782 28.8174ZM441.721 26.4646H445.052L443.396 21.1859L441.721 26.4646Z" fill="white"/>
<path d="M463.008 31.5822H460.336V26.3391H455.17V31.5822H452.498V19.0127H455.17V23.932H460.336V19.0127H463.008V31.5822Z" fill="white"/>
<path d="M477.774 31.5822H475.102V22.82L470.079 31.5822H467.212V19.0127H469.884V27.758L474.924 19.0127H477.774V31.5822Z" fill="white"/>
<path d="M492.54 31.5822H489.868V22.82L484.845 31.5822H481.978V19.0127H484.65V27.758L489.691 19.0127H492.542V31.5822H492.54ZM490.865 15.3495C490.776 17.2701 489.209 18.0617 487.285 18.0617C485.361 18.0617 483.794 17.2718 483.686 15.3495L485.77 15.1528C485.948 16.014 486.483 16.3021 487.283 16.3021C488.084 16.3021 488.602 16.014 488.762 15.1528L490.864 15.3495H490.865Z" fill="white"/>
<path d="M301.322 50.7242H296.532L295.64 53.489H293.004L297.261 40.9194H300.734L304.938 53.489H302.212L301.321 50.7242H301.322ZM297.261 48.3713H300.593L298.936 43.0926L297.261 48.3713Z" fill="white"/>
<path d="M312.081 53.489H309.409V43.3977H305.864V40.9194H315.607V43.3977H312.081V53.489Z" fill="white"/>
<path d="M317.923 47.205C317.923 42.9858 320.471 40.7041 323.908 40.7041C327.755 40.7041 329.982 43.1638 329.982 47.205C329.982 51.6768 327.399 53.7059 323.978 53.7059C320.363 53.7059 317.921 51.4259 317.921 47.205M327.148 47.205C327.148 44.3504 325.848 43.0756 323.906 43.0756C322.142 43.0756 320.753 44.4046 320.753 47.205C320.753 50.0054 322.196 51.3344 324.066 51.3344C325.936 51.3344 327.148 50.024 327.148 47.205Z" fill="white"/>
<path d="M347.724 53.489H345.035L344.357 45.1404L341.793 53.489H339.245L336.716 45.176L336.039 53.489H333.35L334.596 40.9194H337.784L340.599 50.4004L343.377 40.9194H346.459L347.724 53.489Z" fill="white"/>
<path d="M363.238 56.2908H360.709V53.4887H353.157V56.2908H350.628V51.0647H351.804C353.014 49.0186 353.246 46.1453 353.354 42.2668L353.389 40.9209H361.743V51.0664H363.24V56.2925L363.238 56.2908ZM359.07 51.0647V43.3433H355.863C355.844 43.4687 355.828 43.9349 355.828 44.0434C355.703 46.7539 355.365 49.2153 354.528 51.0647H359.07Z" fill="white"/>
<path d="M374.586 50.7242H369.795L368.904 53.489H366.267L370.525 40.9194H373.999L378.203 53.489H375.477L374.586 50.7242ZM370.525 48.3713H373.856L372.199 43.0926L370.525 48.3713Z" fill="white"/>
<path d="M385.344 53.489H382.672V43.3977H379.127V40.9194H388.872V43.3977H385.344V53.489Z" fill="white"/>
<path d="M398.134 50.7242H393.344L392.452 53.489H389.816L394.073 40.9194H397.548L401.752 53.489H399.026L398.134 50.7242ZM394.073 48.3713H397.405L395.748 43.0926L394.073 48.3713Z" fill="white"/>
<path d="M270.95 18.9214H269.408V53.4889H270.95V18.9214Z" fill="white"/>
<path d="M72.6359 48.8816H67.2515V23.5493H75.9032C77.4839 23.5493 78.9065 23.7188 80.1761 24.0562C81.444 24.3935 82.5269 24.9071 83.4249 25.5937C84.3229 26.2802 85.0106 27.1617 85.4882 28.2347C85.9675 29.3077 86.2062 30.5689 86.2062 32.0166C86.2062 33.4642 85.9607 34.7068 85.4697 35.8171C84.9787 36.9274 84.2674 37.8615 83.3341 38.6209C82.4008 39.3803 81.2641 39.96 79.9239 40.3584C78.5836 40.7568 77.0753 40.9551 75.4004 40.9551H72.6359V48.8799V48.8816ZM72.5283 36.1799H75.4727C77.0988 36.1799 78.3684 35.8612 79.2781 35.2204C80.1879 34.5813 80.6419 33.5863 80.6419 32.2353C80.6419 30.8113 80.1996 29.8044 79.3134 29.2145C78.4289 28.6229 77.1593 28.3279 75.508 28.3279H72.5283V36.1799Z" fill="white"/>
<path d="M102.502 49.3152C100.683 49.3152 99.0267 49.0304 97.5301 48.4642C96.0335 47.898 94.7487 47.0589 93.6708 45.9486C92.5946 44.84 91.7622 43.4703 91.1754 41.8413C90.5885 40.2122 90.2959 38.3374 90.2959 36.2151C90.2959 34.0928 90.6003 32.2162 91.2107 30.5872C91.8211 28.9582 92.6653 27.5902 93.7415 26.4798C94.8194 25.3695 96.0923 24.5321 97.5654 23.9642C99.0368 23.3981 100.634 23.1133 102.358 23.1133C104.297 23.1133 106.025 23.415 107.546 24.0185C109.064 24.622 110.345 25.4831 111.386 26.6053C112.427 27.7275 113.223 29.1022 113.774 30.7313C114.324 32.3603 114.6 34.1877 114.6 36.2134C114.6 38.4561 114.295 40.4055 113.685 42.0583C113.075 43.711 112.225 45.0739 111.137 46.147C110.048 47.22 108.768 48.0167 107.297 48.5354C105.825 49.0541 104.228 49.3135 102.504 49.3135M102.684 44.5366C103.594 44.5366 104.431 44.3687 105.196 44.0297C105.962 43.6924 106.621 43.1787 107.171 42.4922C107.72 41.804 108.146 40.9429 108.445 39.9054C108.745 38.868 108.894 37.6373 108.894 36.2134C108.894 33.3418 108.296 31.2381 107.1 29.899C105.903 28.5598 104.324 27.8902 102.361 27.8902C101.475 27.8902 100.643 28.0597 99.8658 28.3971C99.0872 28.7344 98.4129 29.248 97.8378 29.9363C97.2627 30.6228 96.8137 31.4924 96.4908 32.5417C96.168 33.591 96.0066 34.8166 96.0066 36.2151C96.0066 37.6136 96.1798 38.8697 96.5262 39.9071C96.8726 40.9445 97.3451 41.8074 97.9437 42.4939C98.5424 43.1821 99.2486 43.6941 100.063 44.0314C100.876 44.3687 101.751 44.5383 102.684 44.5383" fill="white"/>
<path d="M138.724 47.878C138.387 48.0458 138.024 48.2136 137.629 48.3814C137.234 48.5492 136.768 48.7052 136.228 48.8493C135.69 48.9934 135.068 49.1069 134.362 49.19C133.655 49.2731 132.848 49.3154 131.939 49.3154C130.023 49.3154 128.283 49.0374 126.716 48.4831C125.148 47.9288 123.808 47.1151 122.695 46.0404C121.582 44.9674 120.721 43.6333 120.11 42.0416C119.5 40.4498 119.194 38.6157 119.194 36.5408C119.194 34.4659 119.5 32.4453 120.11 30.7688C120.721 29.0923 121.6 27.687 122.749 26.553C123.897 25.4189 125.291 24.5629 126.931 23.9831C128.57 23.4034 130.418 23.1152 132.478 23.1152C133.842 23.1152 135.068 23.2356 136.158 23.4763C137.247 23.717 138.125 23.995 138.796 24.3086L137.611 28.8686C136.844 28.6024 136.067 28.4109 135.276 28.2888C134.486 28.1685 133.805 28.1074 133.23 28.1074C131.986 28.1074 130.856 28.2651 129.838 28.5787C128.821 28.8923 127.946 29.3822 127.217 30.0484C126.485 30.7129 125.918 31.5605 125.512 32.5877C125.105 33.6167 124.903 34.8304 124.903 36.2323C124.903 38.9157 125.649 40.9346 127.146 42.2891C128.641 43.6435 130.657 44.3198 133.195 44.3198C133.77 44.3198 134.463 44.2419 135.276 44.0842C136.09 43.9283 136.881 43.6808 137.646 43.3417L138.722 47.8746L138.724 47.878Z" fill="white"/>
<path d="M159.185 43.3453H149.528L147.733 48.8816H142.421L151.001 23.5493H158.001L166.473 48.8816H160.981L159.187 43.3453H159.185ZM151.001 38.5683H157.714L154.376 27.9296L151.001 38.5683Z" fill="white"/>
<path d="M178.715 48.8816H173.331V28.5432H166.186V23.5493H185.823V28.5432H178.715V48.8816Z" fill="white"/>
<path d="M200.54 49.3152C198.723 49.3152 197.065 49.0304 195.568 48.4642C194.071 47.898 192.787 47.0589 191.709 45.9486C190.631 44.84 189.8 43.4703 189.213 41.8413C188.626 40.2122 188.334 38.3374 188.334 36.2151C188.334 34.0928 188.638 32.2162 189.25 30.5872C189.861 28.9582 190.705 27.5902 191.781 26.4798C192.857 25.3695 194.132 24.5321 195.603 23.9642C197.076 23.3981 198.674 23.1133 200.396 23.1133C202.335 23.1133 204.063 23.415 205.583 24.0185C207.102 24.622 208.383 25.4831 209.424 26.6053C210.465 27.7275 211.26 29.1022 211.812 30.7313C212.362 32.3603 212.638 34.1877 212.638 36.2134C212.638 38.4561 212.332 40.4055 211.723 42.0583C211.112 43.711 210.263 45.0739 209.174 46.147C208.084 47.22 206.804 48.0167 205.333 48.5354C203.86 49.0541 202.264 49.3135 200.54 49.3135M200.72 44.5366C201.628 44.5366 202.466 44.3687 203.233 44.0297C203.999 43.6924 204.655 43.1787 205.207 42.4922C205.757 41.804 206.182 40.9429 206.481 39.9054C206.781 38.868 206.93 37.6373 206.93 36.2134C206.93 33.3418 206.332 31.2381 205.136 29.899C203.939 28.5598 202.36 27.8902 200.397 27.8902C199.511 27.8902 198.681 28.0597 197.902 28.3971C197.125 28.7344 196.447 29.248 195.874 29.9363C195.299 30.6228 194.85 31.4924 194.527 32.5417C194.204 33.591 194.043 34.8166 194.043 36.2151C194.043 37.6136 194.216 38.8697 194.562 39.9071C194.909 40.9445 195.383 41.8074 195.982 42.4939C196.579 43.1821 197.285 43.6941 198.099 44.0314C198.911 44.3687 199.785 44.5383 200.72 44.5383" fill="white"/>
<path d="M246.241 48.8816H240.821L239.455 32.0539L234.286 48.8816H229.152L224.055 32.1268L222.692 48.8816H217.27L219.783 23.5493H226.21L231.882 42.657L237.481 23.5493H243.691L246.241 48.8816Z" fill="white"/>
<path d="M38.4106 36.2205C38.4072 39.009 36.164 41.2652 33.4011 41.2636C30.6366 41.2619 28.3968 38.9988 28.3984 36.212C28.4018 33.4235 30.6467 31.1673 33.4095 31.1689C36.1724 31.1723 38.4122 33.4337 38.4106 36.2205Z" fill="white"/>
<path d="M33.4518 12.1899C29.8397 12.1899 26.4143 12.9985 23.3455 14.4428C27.4283 14.019 31.6693 15.7904 34.8004 18.9773C34.8004 18.9773 34.8021 18.9773 34.8038 18.9773C36.3693 20.5352 37.7415 22.5575 38.9085 24.99C45.5507 26.1885 50.0607 22.8626 51.8382 20.8945C47.4593 15.5785 40.849 12.1916 33.4518 12.1916" fill="white"/>
<path d="M19.0742 17.0347C15.8018 19.5232 13.1853 22.8423 11.5356 26.6784C13.5199 27.17 19.4593 29.1161 22.1834 36.5188C23.0023 36.2492 24.7697 35.2135 25.9956 31.213C27.4989 26.3123 30.2382 21.5828 33.7897 19.4893C29.875 15.6634 23.9306 13.992 19.0742 17.0347Z" fill="white"/>
<path d="M54.1233 48.2307C55.9293 45.0828 56.9467 41.6925 57.2376 38.2954C55.5611 42.0654 51.9154 44.876 47.6089 46.0117C47.6089 46.0117 47.6089 46.0134 47.6089 46.0151C45.485 46.5999 43.0602 46.7864 40.3831 46.5864C36.0312 51.7752 36.6366 57.3692 37.442 59.9035C37.442 59.9035 37.442 59.9035 37.442 59.9052C44.2054 58.7474 50.4255 54.679 54.1233 48.2324" fill="white"/>
<path d="M57.1436 33.2791C56.6374 29.1819 55.0903 25.2441 52.6134 21.8877C51.1975 23.3709 46.5546 27.5749 38.8211 26.2476C38.6428 27.0969 38.6512 29.1548 41.4796 32.223C44.9454 35.9845 47.646 40.736 47.6712 44.879C52.9211 43.3788 57.3319 39.0358 57.1419 33.2808" fill="white"/>
<path d="M12.7733 48.2273C14.5793 51.3752 16.9873 53.9569 19.7653 55.9097C17.359 52.5635 16.7637 47.9815 17.9391 43.6605C17.9391 43.6605 17.9374 43.6605 17.9357 43.6588C18.494 41.5145 19.5467 39.3091 21.0568 37.0766C18.7664 30.6893 13.6494 28.4195 11.0682 27.855C11.0682 27.855 11.0682 27.855 11.0665 27.855C8.68032 34.3288 9.07213 41.784 12.7716 48.2307" fill="white"/>
<path d="M24.129 58.3355C27.9075 59.9442 32.0711 60.5646 36.1977 60.0849C35.6293 58.11 34.3328 51.9617 39.3422 45.8846C38.7015 45.3049 36.9258 44.2827 32.8715 45.215C27.9024 46.3542 22.4625 46.3321 18.8858 44.2827C17.5523 49.6072 19.0842 55.625 24.1306 58.3355" fill="white"/>
</svg>
