<svg width="108" height="40" viewBox="0 0 108 40" fill="none" xmlns="http://www.w3.org/2000/svg">
<path d="M56.212 12.3165H53.521L52.909 13.9995H52.09L54.493 7.69951H55.303L57.661 13.9995H56.815L56.212 12.3165ZM53.782 11.5785H55.951L54.898 8.61751H54.862L53.782 11.5785ZM59.9728 13.9995H59.1628V8.45551H57.2998V7.69951H61.8358V8.45551H59.9728V13.9995ZM65.1335 13.3335C65.7275 13.3335 66.1925 13.1265 66.5285 12.7125C66.8705 12.2925 67.0415 11.6715 67.0415 10.8495C67.0415 10.4175 66.9935 10.0455 66.8975 9.73351C66.8075 9.42151 66.6755 9.16351 66.5015 8.95951C66.3275 8.75551 66.1145 8.60551 65.8625 8.50951C65.6165 8.41351 65.3375 8.36551 65.0255 8.36551C64.7495 8.36551 64.4915 8.41651 64.2515 8.51851C64.0115 8.62051 63.8045 8.77351 63.6305 8.97751C63.4565 9.18151 63.3185 9.43951 63.2165 9.75151C63.1145 10.0635 63.0635 10.4295 63.0635 10.8495C63.0635 11.2635 63.1115 11.6265 63.2075 11.9385C63.3095 12.2505 63.4505 12.5115 63.6305 12.7215C63.8105 12.9255 64.0265 13.0785 64.2785 13.1805C64.5365 13.2825 64.8215 13.3335 65.1335 13.3335ZM65.0525 14.0895C64.6145 14.0895 64.2185 14.0145 63.8645 13.8645C63.5165 13.7145 63.2165 13.5015 62.9645 13.2255C62.7185 12.9435 62.5295 12.6015 62.3975 12.1995C62.2655 11.7975 62.1995 11.3475 62.1995 10.8495C62.1995 10.3455 62.2685 9.89551 62.4065 9.49951C62.5445 9.09751 62.7365 8.75851 62.9825 8.48251C63.2345 8.20051 63.5345 7.98451 63.8825 7.83451C64.2305 7.68451 64.6115 7.60951 65.0255 7.60951C65.4935 7.60951 65.9045 7.69051 66.2585 7.85251C66.6185 8.00851 66.9185 8.23051 67.1585 8.51851C67.4045 8.80051 67.5905 9.14251 67.7165 9.54451C67.8425 9.94051 67.9055 10.3755 67.9055 10.8495C67.9055 11.3835 67.8335 11.8545 67.6895 12.2625C67.5455 12.6645 67.3475 13.0005 67.0955 13.2705C66.8435 13.5405 66.5435 13.7445 66.1955 13.8825C65.8475 14.0205 65.4665 14.0895 65.0525 14.0895ZM75.2307 13.9995H74.4207L74.0337 9.07651L72.4407 13.9995H71.5947L70.0107 9.09451L69.6147 13.9995H68.8047L69.3447 7.69951H70.3347L72.0357 13.1175L73.7007 7.69951H74.6907L75.2307 13.9995ZM81.6115 15.4035H80.8015V13.9995H76.5805V15.4035H75.7705V13.2435H76.3915C76.5775 12.9195 76.7245 12.5715 76.8325 12.1995C76.9465 11.8215 77.0335 11.4225 77.0935 11.0025C77.1595 10.5765 77.2045 10.1355 77.2285 9.67951C77.2585 9.22351 77.2795 8.75251 77.2915 8.26651L77.3095 7.69951H80.8915V13.2435H81.6115V15.4035ZM80.0815 13.2435V8.45551H78.0565C78.0565 8.47351 78.0535 8.50651 78.0475 8.55451C78.0475 8.59651 78.0475 8.64151 78.0475 8.68951C78.0475 8.73751 78.0445 8.78251 78.0385 8.82451C78.0385 8.86651 78.0385 8.89651 78.0385 8.91451C78.0205 9.30451 77.9935 9.69751 77.9575 10.0935C77.9275 10.4895 77.8795 10.8765 77.8135 11.2545C77.7535 11.6265 77.6755 11.9835 77.5795 12.3255C77.4835 12.6615 77.3635 12.9675 77.2195 13.2435H80.0815ZM86.2759 12.3165H83.5849L82.9729 13.9995H82.1539L84.5569 7.69951H85.3669L87.7249 13.9995H86.8789L86.2759 12.3165ZM83.8459 11.5785H86.0149L84.9619 8.61751H84.9259L83.8459 11.5785ZM90.0367 13.9995H89.2267V8.45551H87.3637V7.69951H91.8997V8.45551H90.0367V13.9995ZM95.6629 12.3165H92.9719L92.3599 13.9995H91.5409L93.9439 7.69951H94.7539L97.1119 13.9995H96.2659L95.6629 12.3165ZM93.2329 11.5785H95.4019L94.3489 8.61751H94.3129L93.2329 11.5785ZM56.976 22.9995H56.256V18.4875L53.536 22.9995H52.72V17.3995H53.44V21.9115L56.16 17.3995H56.976V22.9995ZM63.2473 22.9995H62.5273V20.4235H59.6953V22.9995H58.9753V17.3995H59.6953V19.7675H62.5273V17.3995H63.2473V22.9995ZM69.5182 22.9995H68.7983V20.4235H65.9662V22.9995H65.2462V17.3995H65.9662V19.7675H68.7983V17.3995H69.5182V22.9995ZM73.8852 22.4075C74.4132 22.4075 74.8265 22.2235 75.1252 21.8555C75.4292 21.4822 75.5812 20.9302 75.5812 20.1995C75.5812 19.8155 75.5385 19.4848 75.4532 19.2075C75.3732 18.9302 75.2559 18.7008 75.1012 18.5195C74.9465 18.3382 74.7572 18.2048 74.5332 18.1195C74.3145 18.0342 74.0665 17.9915 73.7892 17.9915C73.5439 17.9915 73.3145 18.0368 73.1012 18.1275C72.8879 18.2182 72.7039 18.3542 72.5492 18.5355C72.3945 18.7168 72.2719 18.9462 72.1812 19.2235C72.0905 19.5008 72.0452 19.8262 72.0452 20.1995C72.0452 20.5675 72.0879 20.8902 72.1732 21.1675C72.2639 21.4448 72.3892 21.6768 72.5492 21.8635C72.7092 22.0448 72.9012 22.1808 73.1252 22.2715C73.3545 22.3622 73.6079 22.4075 73.8852 22.4075ZM73.8132 23.0795C73.4239 23.0795 73.0719 23.0128 72.7572 22.8795C72.4479 22.7462 72.1812 22.5568 71.9572 22.3115C71.7385 22.0608 71.5705 21.7568 71.4532 21.3995C71.3359 21.0422 71.2772 20.6422 71.2772 20.1995C71.2772 19.7515 71.3385 19.3515 71.4612 18.9995C71.5839 18.6422 71.7545 18.3408 71.9732 18.0955C72.1972 17.8448 72.4639 17.6528 72.7732 17.5195C73.0825 17.3862 73.4212 17.3195 73.7892 17.3195C74.2052 17.3195 74.5705 17.3915 74.8852 17.5355C75.2052 17.6742 75.4719 17.8715 75.6852 18.1275C75.9039 18.3782 76.0692 18.6822 76.1812 19.0395C76.2932 19.3915 76.3492 19.7782 76.3492 20.1995C76.3492 20.6742 76.2852 21.0928 76.1572 21.4555C76.0292 21.8128 75.8532 22.1115 75.6292 22.3515C75.4052 22.5915 75.1385 22.7728 74.8292 22.8955C74.5199 23.0182 74.1812 23.0795 73.8132 23.0795ZM82.1964 22.9995H81.4764V18.0715H78.8284V22.9995H78.1084V17.3995H82.1964V22.9995ZM86.5677 22.4075C87.0957 22.4075 87.509 22.2235 87.8077 21.8555C88.1117 21.4822 88.2637 20.9302 88.2637 20.1995C88.2637 19.8155 88.221 19.4848 88.1357 19.2075C88.0557 18.9302 87.9384 18.7008 87.7837 18.5195C87.629 18.3382 87.4397 18.2048 87.2157 18.1195C86.997 18.0342 86.749 17.9915 86.4717 17.9915C86.2264 17.9915 85.997 18.0368 85.7837 18.1275C85.5704 18.2182 85.3864 18.3542 85.2317 18.5355C85.077 18.7168 84.9544 18.9462 84.8637 19.2235C84.773 19.5008 84.7277 19.8262 84.7277 20.1995C84.7277 20.5675 84.7704 20.8902 84.8557 21.1675C84.9464 21.4448 85.0717 21.6768 85.2317 21.8635C85.3917 22.0448 85.5837 22.1808 85.8077 22.2715C86.037 22.3622 86.2904 22.4075 86.5677 22.4075ZM86.4957 23.0795C86.1064 23.0795 85.7544 23.0128 85.4397 22.8795C85.1304 22.7462 84.8637 22.5568 84.6397 22.3115C84.421 22.0608 84.253 21.7568 84.1357 21.3995C84.0184 21.0422 83.9597 20.6422 83.9597 20.1995C83.9597 19.7515 84.021 19.3515 84.1437 18.9995C84.2664 18.6422 84.437 18.3408 84.6557 18.0955C84.8797 17.8448 85.1464 17.6528 85.4557 17.5195C85.765 17.3862 86.1037 17.3195 86.4717 17.3195C86.8877 17.3195 87.253 17.3915 87.5677 17.5355C87.8877 17.6742 88.1544 17.8715 88.3677 18.1275C88.5864 18.3782 88.7517 18.6822 88.8637 19.0395C88.9757 19.3915 89.0317 19.7782 89.0317 20.1995C89.0317 20.6742 88.9677 21.0928 88.8397 21.4555C88.7117 21.8128 88.5357 22.1115 88.3117 22.3515C88.0877 22.5915 87.821 22.7728 87.5117 22.8955C87.2024 23.0182 86.8637 23.0795 86.4957 23.0795ZM94.8088 22.9995H94.0888V18.0715H92.1688C92.1635 18.8715 92.1448 19.5835 92.1128 20.2075C92.0808 20.8262 92.0115 21.3488 91.9048 21.7755C91.8035 22.1968 91.6515 22.5168 91.4488 22.7355C91.2461 22.9542 90.9741 23.0635 90.6328 23.0635C90.5581 23.0635 90.4995 23.0582 90.4568 23.0475C90.4141 23.0422 90.3661 23.0315 90.3128 23.0155V22.3195C90.3555 22.3302 90.3928 22.3382 90.4248 22.3435C90.4621 22.3435 90.5021 22.3435 90.5448 22.3435C90.6888 22.3435 90.8141 22.2875 90.9208 22.1755C91.0328 22.0582 91.1235 21.8422 91.1928 21.5275C91.2675 21.2128 91.3235 20.7782 91.3608 20.2235C91.4035 19.6635 91.4301 18.9382 91.4408 18.0475L91.4488 17.3995H94.8088V22.9995ZM101.068 22.9995H100.348V18.4875L97.6279 22.9995H96.8119V17.3995H97.5319V21.9115L100.252 17.3995H101.068V22.9995ZM106.843 22.8475C106.689 22.9222 106.507 22.9782 106.299 23.0155C106.091 23.0582 105.865 23.0795 105.619 23.0795C105.182 23.0795 104.79 23.0155 104.443 22.8875C104.102 22.7542 103.811 22.5648 103.571 22.3195C103.331 22.0742 103.147 21.7808 103.019 21.4395C102.891 21.0928 102.827 20.7035 102.827 20.2715C102.827 19.7968 102.891 19.3755 103.019 19.0075C103.147 18.6395 103.331 18.3302 103.571 18.0795C103.811 17.8288 104.099 17.6395 104.435 17.5115C104.777 17.3835 105.155 17.3195 105.571 17.3195C105.891 17.3195 106.15 17.3435 106.347 17.3915C106.55 17.4342 106.718 17.4822 106.851 17.5355L106.715 18.1675C106.539 18.1035 106.361 18.0582 106.179 18.0315C105.998 18.0048 105.819 17.9915 105.643 17.9915C104.977 17.9915 104.467 18.1782 104.115 18.5515C103.769 18.9248 103.595 19.4742 103.595 20.1995C103.595 20.5462 103.643 20.8582 103.739 21.1355C103.841 21.4075 103.982 21.6395 104.163 21.8315C104.345 22.0182 104.566 22.1622 104.827 22.2635C105.089 22.3595 105.385 22.4075 105.715 22.4075C105.891 22.4075 106.067 22.3915 106.243 22.3595C106.425 22.3275 106.585 22.2768 106.723 22.2075L106.843 22.8475Z" fill="#414042"/>
<path d="M53.26 29.6055H54.016C54.408 29.6055 54.7043 29.5262 54.905 29.3675C55.1103 29.2088 55.213 28.9662 55.213 28.6395C55.213 28.3035 55.1103 28.0608 54.905 27.9115C54.7043 27.7622 54.408 27.6875 54.016 27.6875H53.26V29.6055ZM53.26 31.9995H52.63V27.0995H54.072C54.352 27.0995 54.6017 27.1298 54.821 27.1905C55.045 27.2465 55.2363 27.3375 55.395 27.4635C55.5537 27.5895 55.675 27.7482 55.759 27.9395C55.843 28.1308 55.885 28.3595 55.885 28.6255C55.885 29.1342 55.7193 29.5238 55.388 29.7945C55.0613 30.0605 54.604 30.1935 54.016 30.1935H53.26V31.9995ZM59.2151 31.4815C59.6771 31.4815 60.0388 31.3205 60.3001 30.9985C60.5661 30.6718 60.6991 30.1888 60.6991 29.5495C60.6991 29.2135 60.6618 28.9242 60.5871 28.6815C60.5171 28.4388 60.4144 28.2382 60.2791 28.0795C60.1438 27.9208 59.9781 27.8042 59.7821 27.7295C59.5908 27.6548 59.3738 27.6175 59.1311 27.6175C58.9164 27.6175 58.7158 27.6572 58.5291 27.7365C58.3424 27.8158 58.1814 27.9348 58.0461 28.0935C57.9108 28.2522 57.8034 28.4528 57.7241 28.6955C57.6448 28.9382 57.6051 29.2228 57.6051 29.5495C57.6051 29.8715 57.6424 30.1538 57.7171 30.3965C57.7964 30.6392 57.9061 30.8422 58.0461 31.0055C58.1861 31.1642 58.3541 31.2832 58.5501 31.3625C58.7508 31.4418 58.9724 31.4815 59.2151 31.4815ZM59.1521 32.0695C58.8114 32.0695 58.5034 32.0112 58.2281 31.8945C57.9574 31.7778 57.7241 31.6122 57.5281 31.3975C57.3368 31.1782 57.1898 30.9122 57.0871 30.5995C56.9844 30.2868 56.9331 29.9368 56.9331 29.5495C56.9331 29.1575 56.9868 28.8075 57.0941 28.4995C57.2014 28.1868 57.3508 27.9232 57.5421 27.7085C57.7381 27.4892 57.9714 27.3212 58.2421 27.2045C58.5128 27.0878 58.8091 27.0295 59.1311 27.0295C59.4951 27.0295 59.8148 27.0925 60.0901 27.2185C60.3701 27.3398 60.6034 27.5125 60.7901 27.7365C60.9814 27.9558 61.1261 28.2218 61.2241 28.5345C61.3221 28.8425 61.3711 29.1808 61.3711 29.5495C61.3711 29.9648 61.3151 30.3312 61.2031 30.6485C61.0911 30.9612 60.9371 31.2225 60.7411 31.4325C60.5451 31.6425 60.3118 31.8012 60.0411 31.9085C59.7704 32.0158 59.4741 32.0695 59.1521 32.0695ZM66.0744 31.8665C65.9391 31.9318 65.7804 31.9808 65.5984 32.0135C65.4164 32.0508 65.2181 32.0695 65.0034 32.0695C64.6208 32.0695 64.2778 32.0135 63.9744 31.9015C63.6758 31.7848 63.4214 31.6192 63.2114 31.4045C63.0014 31.1898 62.8404 30.9332 62.7284 30.6345C62.6164 30.3312 62.5604 29.9905 62.5604 29.6125C62.5604 29.1972 62.6164 28.8285 62.7284 28.5065C62.8404 28.1845 63.0014 27.9138 63.2114 27.6945C63.4214 27.4752 63.6734 27.3095 63.9674 27.1975C64.2661 27.0855 64.5974 27.0295 64.9614 27.0295C65.2414 27.0295 65.4678 27.0505 65.6404 27.0925C65.8178 27.1298 65.9648 27.1718 66.0814 27.2185L65.9624 27.7715C65.8084 27.7155 65.6521 27.6758 65.4934 27.6525C65.3348 27.6292 65.1784 27.6175 65.0244 27.6175C64.4411 27.6175 63.9954 27.7808 63.6874 28.1075C63.3841 28.4342 63.2324 28.9148 63.2324 29.5495C63.2324 29.8528 63.2744 30.1258 63.3584 30.3685C63.4471 30.6065 63.5708 30.8095 63.7294 30.9775C63.8881 31.1408 64.0818 31.2668 64.3104 31.3555C64.5391 31.4395 64.7981 31.4815 65.0874 31.4815C65.2414 31.4815 65.3954 31.4675 65.5494 31.4395C65.7081 31.4115 65.8481 31.3672 65.9694 31.3065L66.0744 31.8665ZM70.1961 30.6905H68.1031L67.6271 31.9995H66.9901L68.8591 27.0995H69.4891L71.3231 31.9995H70.6651L70.1961 30.6905ZM68.3061 30.1165H69.9931L69.1741 27.8135H69.1461L68.3061 30.1165ZM73.6112 31.9995H72.9812V27.6875H71.5322V27.0995H75.0602V27.6875H73.6112V31.9995ZM78.1151 31.4815C78.5771 31.4815 78.9388 31.3205 79.2001 30.9985C79.4661 30.6718 79.5991 30.1888 79.5991 29.5495C79.5991 29.2135 79.5618 28.9242 79.4871 28.6815C79.4171 28.4388 79.3144 28.2382 79.1791 28.0795C79.0438 27.9208 78.8781 27.8042 78.6821 27.7295C78.4908 27.6548 78.2738 27.6175 78.0311 27.6175C77.8164 27.6175 77.6158 27.6572 77.4291 27.7365C77.2424 27.8158 77.0814 27.9348 76.9461 28.0935C76.8108 28.2522 76.7034 28.4528 76.6241 28.6955C76.5448 28.9382 76.5051 29.2228 76.5051 29.5495C76.5051 29.8715 76.5424 30.1538 76.6171 30.3965C76.6964 30.6392 76.8061 30.8422 76.9461 31.0055C77.0861 31.1642 77.2541 31.2832 77.4501 31.3625C77.6508 31.4418 77.8724 31.4815 78.1151 31.4815ZM78.0521 32.0695C77.7114 32.0695 77.4034 32.0112 77.1281 31.8945C76.8574 31.7778 76.6241 31.6122 76.4281 31.3975C76.2368 31.1782 76.0898 30.9122 75.9871 30.5995C75.8844 30.2868 75.8331 29.9368 75.8331 29.5495C75.8331 29.1575 75.8868 28.8075 75.9941 28.4995C76.1014 28.1868 76.2508 27.9232 76.4421 27.7085C76.6381 27.4892 76.8714 27.3212 77.1421 27.2045C77.4128 27.0878 77.7091 27.0295 78.0311 27.0295C78.3951 27.0295 78.7148 27.0925 78.9901 27.2185C79.2701 27.3398 79.5034 27.5125 79.6901 27.7365C79.8814 27.9558 80.0261 28.2218 80.1241 28.5345C80.2221 28.8425 80.2711 29.1808 80.2711 29.5495C80.2711 29.9648 80.2151 30.3312 80.1031 30.6485C79.9911 30.9612 79.8371 31.2225 79.6411 31.4325C79.4451 31.6425 79.2118 31.8012 78.9411 31.9085C78.6704 32.0158 78.3741 32.0695 78.0521 32.0695ZM86.4584 31.9995H85.8284L85.5274 28.1705L84.2884 31.9995H83.6304L82.3984 28.1845L82.0904 31.9995H81.4604L81.8804 27.0995H82.6504L83.9734 31.3135L85.2684 27.0995H86.0384L86.4584 31.9995Z" fill="#025EA1"/>
<path d="M23.254 22.8519C22.6953 23.4538 21.9713 23.8775 21.1726 24.0701C20.3739 24.2626 19.5362 24.2154 18.7643 23.9343C17.9923 23.6532 17.3206 23.1508 16.8331 22.4899C16.3457 21.829 16.0643 21.039 16.024 20.219C15.9838 19.399 16.1867 18.5854 16.6071 17.88C17.0276 17.1747 17.6469 16.609 18.3877 16.2538C19.1284 15.8986 19.9575 15.7698 20.7712 15.8834C21.5848 15.997 22.3469 16.348 22.9618 16.8924C23.3782 17.261 23.7166 17.7091 23.9572 18.2102C24.1978 18.7114 24.3358 19.2555 24.363 19.8107C24.3903 20.3659 24.3062 20.9209 24.1157 21.4431C23.9253 21.9654 23.6323 22.4443 23.254 22.8519Z" fill="url(#paint0_radial_2860_23965)"/>
<path d="M21.2622 5.67091C21.6051 6.00266 21.9296 6.35279 22.2343 6.71976C23.247 7.93147 24.0805 9.28213 24.7092 10.7304C25.7032 10.9197 26.7162 10.9897 27.7268 10.939H27.9057H28.0667C30.8184 10.6863 33.3867 9.45062 35.3005 7.45873L35.5509 7.19056C35.1752 6.73764 34.7817 6.29069 34.3582 5.86161C30.9453 2.45845 26.4209 0.396106 21.6119 0.0514358C16.8029 -0.293234 12.0303 1.10279 8.16626 3.98439C14.3386 0.998727 18.6085 3.06068 21.2622 5.67091Z" fill="url(#paint1_linear_2860_23965)"/>
<path d="M7.05703 26.0344C7.17631 25.5576 7.3254 25.1047 7.48045 24.6696C8.01998 23.1795 8.77112 21.7746 9.71082 20.4981C9.37647 19.5429 8.93007 18.6307 8.38095 17.7806L8.28553 17.6316C8.25714 17.5855 8.22524 17.5417 8.19011 17.5005C6.60193 15.2556 4.25875 13.6565 1.58845 12.9952L1.23063 12.9058C1.02787 13.4659 0.837036 14.0261 0.67602 14.6102C-0.563848 19.2643 -0.0876657 24.2088 2.01766 28.5413C4.12298 32.8737 7.71707 36.3052 12.144 38.2094C6.47261 34.3656 6.12076 29.6398 7.05703 26.0344Z" fill="url(#paint2_linear_2860_23965)"/>
<path d="M31.8595 28.1678C31.4006 28.2988 30.9347 28.4042 30.4641 28.4836C28.9098 28.7507 27.3251 28.7929 25.7588 28.6088C25.0964 29.3748 24.5278 30.217 24.0652 31.1177L23.9876 31.2726L23.9161 31.4216C22.766 33.926 22.5543 36.76 23.3197 39.4072C23.3197 39.5205 23.3853 39.6396 23.4211 39.7588C24.0175 39.6575 24.6138 39.5383 25.1744 39.3834C29.8198 38.1261 33.8585 35.2428 36.5545 31.2589C39.2506 27.275 40.4247 22.4557 39.8626 17.6792C39.3557 24.5087 35.4436 27.1785 31.8595 28.1678Z" fill="url(#paint3_linear_2860_23965)"/>
<path d="M8.16629 3.98432C5.22831 6.03627 2.93132 8.8771 1.54077 12.1785C3.61088 12.6202 5.52739 13.6008 7.09619 15.021C8.66499 16.4411 9.83033 18.2504 10.4742 20.2654C11.0228 19.9138 12.7225 18.573 13.8675 14.902C15.245 10.4324 17.863 7.15473 21.2623 5.70659C21.2623 5.67083 16.9626 -0.461402 8.16629 3.98432Z" fill="url(#paint4_linear_2860_23965)"/>
<path d="M21.9659 36.1473C21.9627 33.1534 23.0843 30.2674 25.1087 28.0604V28.0187C24.6973 27.5777 23.26 26.499 19.5626 27.3393C15.0005 28.3822 9.96724 28.257 7.03913 26.0342C7.03913 26.0342 3.87844 32.822 12.1261 38.2093C15.3704 39.7266 18.9779 40.2967 22.5325 39.8541C22.1409 38.658 21.9495 37.4056 21.9659 36.1473Z" fill="url(#paint5_linear_2860_23965)"/>
<path d="M36.0815 7.84619C34.9709 9.10683 33.6049 10.1173 32.0741 10.8108C30.5433 11.5043 28.8825 11.8649 27.2018 11.8688C26.3159 11.8646 25.4328 11.7708 24.5659 11.5887H24.5182C24.3512 12.1846 24.2081 13.9725 26.7247 16.678C29.9033 20.1047 32.3125 24.5206 31.8593 28.1738C31.8593 28.1738 39.3197 27.5182 39.8624 17.6852C39.5565 14.1147 38.2457 10.7036 36.0815 7.84619Z" fill="url(#paint6_linear_2860_23965)"/>
<rect x="46" y="3" width="1" height="34" fill="#555555"/>
<defs>
<radialGradient id="paint0_radial_2860_23965" cx="0" cy="0" r="1" gradientUnits="userSpaceOnUse" gradientTransform="translate(21.9128 15.4797) scale(5.86266 5.85858)">
<stop stop-color="#4495D1"/>
<stop offset="1" stop-color="#15256D"/>
</radialGradient>
<linearGradient id="paint1_linear_2860_23965" x1="14.4221" y1="1.35174" x2="32.0579" y2="8.45231" gradientUnits="userSpaceOnUse">
<stop stop-color="#4495D1"/>
<stop offset="1" stop-color="#15256D"/>
</linearGradient>
<linearGradient id="paint2_linear_2860_23965" x1="6.75714" y1="34.1157" x2="4.09312" y2="15.3053" gradientUnits="userSpaceOnUse">
<stop stop-color="#4495D1"/>
<stop offset="1" stop-color="#15256D"/>
</linearGradient>
<linearGradient id="paint3_linear_2860_23965" x1="39.0247" y1="24.3992" x2="24.0653" y2="36.1229" gradientUnits="userSpaceOnUse">
<stop stop-color="#4495D1"/>
<stop offset="1" stop-color="#15256D"/>
</linearGradient>
<linearGradient id="paint4_linear_2860_23965" x1="7.36121" y1="14.8364" x2="15.285" y2="2.68012" gradientUnits="userSpaceOnUse">
<stop stop-color="#4495D1"/>
<stop offset="1" stop-color="#15256D"/>
</linearGradient>
<linearGradient id="paint5_linear_2860_23965" x1="22.3595" y1="32.1783" x2="8.1426" y2="33.6285" gradientUnits="userSpaceOnUse">
<stop stop-color="#4495D1"/>
<stop offset="1" stop-color="#15256D"/>
</linearGradient>
<linearGradient id="paint6_linear_2860_23965" x1="31.5194" y1="11.6185" x2="34.4138" y2="26.2437" gradientUnits="userSpaceOnUse">
<stop stop-color="#4495D1"/>
<stop offset="1" stop-color="#15256D"/>
</linearGradient>
</defs>
</svg>
