<svg width="48" height="49" viewBox="0 0 48 49" fill="none" xmlns="http://www.w3.org/2000/svg">
<path d="M28.8403 24.0282C28.8369 26.8167 26.5937 29.0729 23.8308 29.0713C21.0663 29.0696 18.8265 26.8065 18.8281 24.0197C18.8315 21.2312 21.0764 18.975 23.8392 18.9766C26.6021 18.98 28.8419 21.2414 28.8403 24.0282Z" fill="#035FA2"/>
<path d="M23.8836 0C20.2715 0 16.8461 0.808599 13.7773 2.2529C17.8601 1.8291 22.1011 3.6005 25.2322 6.7874H25.2355C26.8011 8.3453 28.1733 10.3676 29.3403 12.8001C35.9825 13.9986 40.4925 10.6727 42.27 8.7046C37.8911 3.3886 31.2808 0.00169945 23.8836 0.00169945" fill="#035FA2"/>
<path d="M9.50334 4.8423C6.23094 7.3308 3.61444 10.6499 1.96484 14.486C3.94904 14.9776 9.88844 16.9237 12.6125 24.3264C13.4315 24.0568 15.1988 23.0211 16.4247 19.0206C17.928 14.1199 20.6673 9.3904 24.2188 7.2969C20.3041 3.471 14.3597 1.7996 9.50334 4.8423Z" fill="#035FA2"/>
<path d="M44.553 36.0408C46.359 32.8929 47.3764 29.5026 47.6673 26.1055C45.9908 29.8755 42.3451 32.6861 38.0386 33.8218V33.8252C35.9147 34.41 33.4899 34.5965 30.8128 34.3965C26.4609 39.5853 27.0663 45.1793 27.8717 47.7136V47.7153C34.6351 46.5575 40.8552 42.4891 44.553 36.0425" fill="#035FA2"/>
<path d="M47.5735 21.0867C47.0673 16.9895 45.5203 13.0517 43.0433 9.69531C41.6274 11.1785 36.9846 15.3825 29.251 14.0552C29.0728 14.9045 29.0812 16.9624 31.9096 20.0306C35.3753 23.7921 38.0759 28.5436 38.1012 32.6866C43.3511 31.1864 47.7618 26.8434 47.5718 21.0884" fill="#035FA2"/>
<path d="M3.2045 36.0364C5.0105 39.1843 7.4185 41.766 10.1965 43.7188C7.7901 40.3726 7.1948 35.7906 8.3703 31.4696C8.3703 31.4696 8.3686 31.4696 8.3669 31.4679C8.9252 29.3236 9.9779 27.1182 11.4879 24.8857C9.1976 18.4984 4.0806 16.2286 1.4993 15.6641H1.4976C-0.888523 22.1379 -0.496713 29.5931 3.2028 36.0398" fill="#035FA2"/>
<path d="M14.5601 46.1426C18.3386 47.7513 22.5022 48.3717 26.6288 47.892C26.0604 45.9171 24.7639 39.7688 29.7734 33.6917C29.1327 33.112 27.3569 32.0898 23.3027 33.0221C18.3336 34.1613 12.8937 34.1392 9.31689 32.0898C7.98349 37.4143 9.51539 43.4321 14.5618 46.1426" fill="#035FA2"/>
</svg>
