<svg width="378" height="378" viewBox="0 0 378 378" fill="none" xmlns="http://www.w3.org/2000/svg">
<circle cx="189" cy="189" r="55" fill="url(#paint0_linear_3056_3)"/>
<path d="M197.53 196.985C195.98 198.671 193.97 199.857 191.754 200.396C189.538 200.936 187.213 200.803 185.071 200.016C182.929 199.229 181.065 197.822 179.712 195.972C178.36 194.121 177.579 191.909 177.467 189.613C177.355 187.317 177.918 185.039 179.085 183.064C180.252 181.089 181.971 179.505 184.026 178.511C186.081 177.516 188.382 177.156 190.64 177.474C192.898 177.792 195.013 178.775 196.719 180.299C197.875 181.331 198.814 182.586 199.481 183.989C200.149 185.392 200.532 186.916 200.608 188.47C200.683 190.025 200.45 191.579 199.921 193.041C199.393 194.503 198.58 195.844 197.53 196.985Z" fill="url(#paint1_radial_3056_3)"/>
<path d="M192.002 148.879C192.954 149.807 193.854 150.788 194.7 151.815C197.51 155.208 199.823 158.99 201.568 163.045C204.326 163.575 207.137 163.771 209.941 163.629H210.438H210.885C218.521 162.922 225.648 159.462 230.958 153.884L231.654 153.134C230.611 151.865 229.519 150.614 228.344 149.413C218.873 139.884 206.318 134.109 192.973 133.144C179.628 132.179 166.384 136.088 155.661 144.156C172.789 135.796 184.638 141.57 192.002 148.879Z" fill="url(#paint2_linear_3056_3)"/>
<path d="M152.583 205.895C152.914 204.56 153.328 203.292 153.758 202.074C155.255 197.901 157.34 193.967 159.947 190.393C159.02 187.719 157.781 185.165 156.257 182.784L155.992 182.367C155.914 182.238 155.825 182.115 155.728 182C151.32 175.714 144.818 171.237 137.408 169.385L136.415 169.135C135.852 170.703 135.323 172.272 134.876 173.907C131.435 186.939 132.757 200.783 138.599 212.914C144.441 225.045 154.415 234.653 166.699 239.985C150.961 229.222 149.985 215.99 152.583 205.895Z" fill="url(#paint3_linear_3056_3)"/>
<path d="M221.41 211.87C220.137 212.237 218.844 212.532 217.538 212.754C213.225 213.502 208.827 213.62 204.481 213.105C202.643 215.25 201.065 217.608 199.781 220.13L199.566 220.564L199.367 220.981C196.176 227.993 195.588 235.928 197.712 243.34C197.712 243.657 197.894 243.991 197.994 244.325C199.649 244.041 201.304 243.708 202.859 243.274C215.75 239.753 226.957 231.68 234.439 220.525C241.921 209.37 245.179 195.876 243.619 182.502C242.212 201.625 231.356 209.1 221.41 211.87Z" fill="url(#paint4_linear_3056_3)"/>
<path d="M155.661 144.156C147.508 149.902 141.134 157.856 137.275 167.1C143.02 168.337 148.338 171.082 152.692 175.059C157.045 179.035 160.279 184.101 162.066 189.743C163.588 188.759 168.305 185.004 171.482 174.726C175.305 162.211 182.57 153.033 192.003 148.978C192.003 148.878 180.071 131.708 155.661 144.156Z" fill="url(#paint5_linear_3056_3)"/>
<path d="M193.956 234.213C193.947 225.83 197.059 217.749 202.677 211.57V211.453C201.535 210.218 197.547 207.198 187.287 209.551C174.627 212.471 160.66 212.12 152.534 205.896C152.534 205.896 143.763 224.902 166.65 239.987C175.653 244.235 185.664 245.832 195.528 244.592C194.441 241.243 193.91 237.737 193.956 234.213Z" fill="url(#paint6_linear_3056_3)"/>
<path d="M233.127 154.969C230.045 158.499 226.254 161.328 222.006 163.27C217.758 165.211 213.15 166.221 208.485 166.232C206.027 166.22 203.577 165.958 201.171 165.448H201.038C200.575 167.116 200.178 172.122 207.162 179.698C215.982 189.293 222.668 201.657 221.41 211.886C221.41 211.886 242.113 210.05 243.619 182.518C242.77 172.521 239.132 162.969 233.127 154.969Z" fill="url(#paint7_linear_3056_3)"/>
<defs>
<linearGradient id="paint0_linear_3056_3" x1="134" y1="162.174" x2="230.648" y2="221.829" gradientUnits="userSpaceOnUse">
<stop stop-color="white"/>
<stop offset="1" stop-color="white" stop-opacity="0.8"/>
</linearGradient>
<radialGradient id="paint1_radial_3056_3" cx="0" cy="0" r="1" gradientUnits="userSpaceOnUse" gradientTransform="translate(193.808 176.343) scale(16.2689 16.404)">
<stop stop-color="#4495D1"/>
<stop offset="1" stop-color="#15256D"/>
</radialGradient>
<linearGradient id="paint2_linear_3056_3" x1="173.021" y1="136.785" x2="222.082" y2="156.362" gradientUnits="userSpaceOnUse">
<stop stop-color="#4495D1"/>
<stop offset="1" stop-color="#15256D"/>
</linearGradient>
<linearGradient id="paint3_linear_3056_3" x1="151.751" y1="228.523" x2="144.227" y2="175.872" gradientUnits="userSpaceOnUse">
<stop stop-color="#4495D1"/>
<stop offset="1" stop-color="#15256D"/>
</linearGradient>
<linearGradient id="paint4_linear_3056_3" x1="241.294" y1="201.318" x2="199.499" y2="233.78" gradientUnits="userSpaceOnUse">
<stop stop-color="#4495D1"/>
<stop offset="1" stop-color="#15256D"/>
</linearGradient>
<linearGradient id="paint5_linear_3056_3" x1="153.427" y1="174.542" x2="175.693" y2="140.687" gradientUnits="userSpaceOnUse">
<stop stop-color="#4495D1"/>
<stop offset="1" stop-color="#15256D"/>
</linearGradient>
<linearGradient id="paint6_linear_3056_3" x1="195.048" y1="223.1" x2="155.589" y2="227.089" gradientUnits="userSpaceOnUse">
<stop stop-color="#4495D1"/>
<stop offset="1" stop-color="#15256D"/>
</linearGradient>
<linearGradient id="paint7_linear_3056_3" x1="220.467" y1="165.531" x2="228.639" y2="206.454" gradientUnits="userSpaceOnUse">
<stop stop-color="#4495D1"/>
<stop offset="1" stop-color="#15256D"/>
</linearGradient>
</defs>
</svg>
