<svg width="415" height="415" viewBox="0 0 415 415" fill="none" xmlns="http://www.w3.org/2000/svg">
<g filter="url(#filter0_f_3215_22)">
<ellipse cx="207.365" cy="207.086" rx="63.1076" ry="63.3869" fill="white"/>
</g>
<path d="M217.671 216.443C215.894 218.359 213.591 219.708 211.05 220.321C208.51 220.934 205.845 220.784 203.389 219.889C200.933 218.994 198.797 217.395 197.246 215.291C195.695 213.187 194.8 210.673 194.672 208.062C194.544 205.452 195.189 202.862 196.527 200.616C197.864 198.371 199.835 196.57 202.191 195.44C204.547 194.309 207.185 193.899 209.773 194.261C212.362 194.622 214.786 195.74 216.742 197.473C218.066 198.646 219.143 200.072 219.908 201.668C220.674 203.263 221.113 204.995 221.199 206.762C221.286 208.53 221.018 210.296 220.413 211.959C219.807 213.621 218.875 215.146 217.671 216.443Z" fill="url(#paint0_radial_3215_22)"/>
<path d="M211.335 161.751C212.426 162.808 213.458 163.922 214.428 165.09C217.649 168.948 220.3 173.247 222.3 177.858C225.462 178.46 228.685 178.683 231.899 178.521H232.469H232.981C241.734 177.717 249.904 173.783 255.992 167.443L256.789 166.589C255.594 165.147 254.342 163.724 252.995 162.359C242.138 151.525 227.746 144.96 212.448 143.863C197.15 142.766 181.968 147.21 169.676 156.383C189.31 146.878 202.893 153.442 211.335 161.751Z" fill="url(#paint1_linear_3215_22)"/>
<path d="M166.148 226.574C166.528 225.056 167.002 223.614 167.495 222.229C169.211 217.486 171.601 213.013 174.59 208.95C173.527 205.909 172.107 203.006 170.36 200.299L170.056 199.825C169.966 199.678 169.864 199.539 169.753 199.408C164.701 192.262 157.247 187.171 148.752 185.066L147.614 184.781C146.969 186.564 146.362 188.348 145.85 190.207C141.906 205.022 143.42 220.762 150.118 234.554C156.815 248.345 168.248 259.269 182.33 265.331C164.289 253.095 163.17 238.051 166.148 226.574Z" fill="url(#paint2_linear_3215_22)"/>
<path d="M245.045 233.365C243.585 233.782 242.103 234.118 240.606 234.37C235.662 235.221 230.621 235.355 225.638 234.769C223.531 237.207 221.722 239.888 220.251 242.755L220.004 243.249L219.776 243.723C216.118 251.695 215.445 260.716 217.879 269.144C217.879 269.504 218.088 269.883 218.202 270.263C220.099 269.94 221.996 269.561 223.779 269.068C238.557 265.065 251.404 255.887 259.981 243.205C268.557 230.523 272.292 215.182 270.504 199.977C268.891 221.717 256.447 230.216 245.045 233.365Z" fill="url(#paint3_linear_3215_22)"/>
<path d="M169.678 156.383C160.332 162.915 153.025 171.958 148.602 182.468C155.187 183.874 161.283 186.995 166.274 191.516C171.264 196.037 174.971 201.796 177.02 208.211C178.765 207.092 184.172 202.823 187.814 191.137C192.196 176.909 200.524 166.475 211.337 161.866C211.337 161.752 197.66 142.231 169.678 156.383Z" fill="url(#paint4_linear_3215_22)"/>
<path d="M213.576 258.767C213.565 249.237 217.133 240.05 223.573 233.024V232.891C222.264 231.488 217.692 228.054 205.93 230.729C191.418 234.049 175.407 233.65 166.092 226.574C166.092 226.574 156.038 248.182 182.274 265.331C192.595 270.161 204.07 271.976 215.378 270.567C214.132 266.76 213.523 262.773 213.576 258.767Z" fill="url(#paint5_linear_3215_22)"/>
<path d="M258.479 168.676C254.946 172.689 250.601 175.906 245.731 178.113C240.861 180.321 235.578 181.469 230.232 181.481C227.414 181.468 224.604 181.169 221.847 180.589H221.695C221.164 182.486 220.708 188.178 228.714 196.79C238.825 207.698 246.49 221.756 245.048 233.385C245.048 233.385 268.78 231.298 270.506 199.996C269.533 188.63 265.363 177.772 258.479 168.676Z" fill="url(#paint6_linear_3215_22)"/>
<defs>
<filter id="filter0_f_3215_22" x="94.2578" y="93.6992" width="226.215" height="226.773" filterUnits="userSpaceOnUse" color-interpolation-filters="sRGB">
<feFlood flood-opacity="0" result="BackgroundImageFix"/>
<feBlend mode="normal" in="SourceGraphic" in2="BackgroundImageFix" result="shape"/>
<feGaussianBlur stdDeviation="25" result="effect1_foregroundBlur_3215_22"/>
</filter>
<radialGradient id="paint0_radial_3215_22" cx="0" cy="0" r="1" gradientUnits="userSpaceOnUse" gradientTransform="translate(213.405 192.975) scale(18.6497)">
<stop stop-color="#4495D1"/>
<stop offset="1" stop-color="#15256D"/>
</radialGradient>
<linearGradient id="paint1_linear_3215_22" x1="189.576" y1="148.002" x2="245.688" y2="170.578" gradientUnits="userSpaceOnUse">
<stop stop-color="#4495D1"/>
<stop offset="1" stop-color="#15256D"/>
</linearGradient>
<linearGradient id="paint2_linear_3215_22" x1="165.194" y1="252.299" x2="156.708" y2="192.421" gradientUnits="userSpaceOnUse">
<stop stop-color="#4495D1"/>
<stop offset="1" stop-color="#15256D"/>
</linearGradient>
<linearGradient id="paint3_linear_3215_22" x1="267.838" y1="221.368" x2="220.226" y2="258.656" gradientUnits="userSpaceOnUse">
<stop stop-color="#4495D1"/>
<stop offset="1" stop-color="#15256D"/>
</linearGradient>
<linearGradient id="paint4_linear_3215_22" x1="167.117" y1="190.929" x2="192.348" y2="152.247" gradientUnits="userSpaceOnUse">
<stop stop-color="#4495D1"/>
<stop offset="1" stop-color="#15256D"/>
</linearGradient>
<linearGradient id="paint5_linear_3215_22" x1="214.828" y1="246.133" x2="169.602" y2="250.743" gradientUnits="userSpaceOnUse">
<stop stop-color="#4495D1"/>
<stop offset="1" stop-color="#15256D"/>
</linearGradient>
<linearGradient id="paint6_linear_3215_22" x1="243.966" y1="180.684" x2="253.186" y2="227.238" gradientUnits="userSpaceOnUse">
<stop stop-color="#4495D1"/>
<stop offset="1" stop-color="#15256D"/>
</linearGradient>
</defs>
</svg>
