<svg width="231" height="251" viewBox="0 0 231 251" fill="none" xmlns="http://www.w3.org/2000/svg">
<ellipse cx="152.344" cy="171.994" rx="78.656" ry="79.0056" transform="rotate(180 152.344 171.994)" fill="url(#paint0_linear_3092_19)"/>
<path d="M74.0376 171.994C74.0376 128.552 109.098 93.3385 152.344 93.3385C195.59 93.3385 230.65 128.552 230.65 171.994C230.65 215.436 195.59 250.65 152.344 250.65C109.098 250.65 74.0376 215.436 74.0376 171.994Z" stroke="#008ECF" stroke-opacity="0.2" stroke-width="0.699164"/>
<ellipse cx="112.251" cy="107.621" rx="78.656" ry="79.0056" transform="rotate(120 112.251 107.621)" fill="url(#paint1_linear_3092_19)"/>
<path d="M73.098 175.437C35.4762 153.716 22.5101 105.745 44.1331 68.2932C65.7561 30.8411 113.783 18.0849 151.404 39.8058C189.026 61.5268 201.992 109.497 180.369 146.949C158.746 184.401 110.72 197.157 73.098 175.437Z" stroke="#008ECF" stroke-opacity="0.2" stroke-width="0.699164"/>
<path d="M87.9591 60.342L84.1004 51.1802L91.5695 48.0344L95.4282 57.1962L93.9998 57.7978L90.6181 49.7686L86.0058 51.7112L89.3875 59.7404L87.9591 60.342Z" fill="#008ECF"/>
<path d="M97.4085 59.6221L94.9288 49.9035L96.2652 49.5625L96.5511 50.462L96.5776 50.4552C96.6973 50.1146 96.932 49.7916 97.2816 49.4864C97.6356 49.1799 98.0751 48.9598 98.5999 48.8259C99.5526 48.5828 100.399 48.7167 101.141 49.2276C101.885 49.7329 102.388 50.4994 102.65 51.5271L102.704 51.7388C102.967 52.7664 102.895 53.682 102.489 54.4855C102.083 55.2889 101.409 55.8111 100.465 56.0519C99.9355 56.1869 99.4571 56.2174 99.0294 56.1433C98.6007 56.0648 98.239 55.9081 97.9442 55.6733L98.8574 59.2524L97.4085 59.6221ZM97.5981 54.317C97.8169 54.5853 98.1221 54.7964 98.5136 54.9502C98.9085 55.0984 99.3397 55.1129 99.8072 54.9936C100.5 54.8169 100.954 54.4708 101.17 53.9553C101.386 53.4398 101.406 52.838 101.231 52.15L101.162 51.8787C100.986 51.1907 100.68 50.6722 100.243 50.3232C99.811 49.9731 99.2465 49.887 98.5496 50.0648C98.0777 50.1852 97.7061 50.4045 97.435 50.7226C97.1683 51.0397 97.0009 51.3689 96.933 51.7104L97.5981 54.317Z" fill="#008ECF"/>
<path d="M103.483 51.6437L103.458 51.4267C103.333 50.3368 103.568 49.4163 104.165 48.6652C104.765 47.909 105.626 47.4666 106.748 47.3378C107.869 47.2091 108.808 47.445 109.564 48.0455C110.32 48.6414 110.76 49.4843 110.885 50.5741L110.91 50.7912C111.035 51.881 110.798 52.804 110.197 53.5602C109.597 54.3164 108.736 54.7589 107.614 54.8876C106.493 55.0163 105.554 54.7804 104.798 54.18C104.046 53.579 103.608 52.7336 103.483 51.6437ZM104.974 51.2251L105.006 51.5033C105.089 52.2268 105.342 52.7957 105.765 53.2098C106.189 53.624 106.76 53.7898 107.479 53.7073C108.198 53.6248 108.716 53.3339 109.035 52.8346C109.358 52.3347 109.478 51.7231 109.395 50.9995L109.363 50.7214C109.28 49.9979 109.024 49.4293 108.596 49.0156C108.173 48.6014 107.602 48.4356 106.883 48.5181C106.169 48.6001 105.65 48.8911 105.327 49.3909C105.009 49.8902 104.891 50.5016 104.974 51.2251Z" fill="#008ECF"/>
<path d="M111.437 50.8033L111.441 50.5849C111.462 49.4972 111.809 48.6184 112.482 47.9485C113.155 47.274 114.029 46.9471 115.103 46.9678C116.177 46.9885 117.001 47.3253 117.576 47.9783C118.151 48.6268 118.428 49.5017 118.406 50.603L118.395 51.1765L112.368 51.0603L112.388 49.9817L116.921 50.0691L116.923 49.9667C116.933 49.4433 116.789 49.0103 116.491 48.6676C116.197 48.3251 115.734 48.1477 115.101 48.1355C114.396 48.1219 113.861 48.3461 113.497 48.808C113.133 49.2653 112.944 49.8581 112.93 50.5863L112.924 50.8662C112.911 51.5898 113.086 52.1895 113.45 52.6655C113.819 53.137 114.394 53.3803 115.177 53.3953C115.66 53.4046 116.076 53.3148 116.425 53.1258C116.779 52.9323 117.068 52.7011 117.292 52.4322L118.274 53.2024C118.026 53.5618 117.633 53.8843 117.095 54.1698C116.557 54.4508 115.912 54.5841 115.161 54.5696C113.951 54.5463 113.022 54.187 112.375 53.4916C111.729 52.7917 111.416 51.8956 111.437 50.8033Z" fill="#008ECF"/>
<path d="M124.651 55.3282L122.086 51.6406L123.204 50.8541L126.515 55.6052L124.651 55.3282ZM121.027 50.4962L122.358 50.6939L125.471 48.1815L127.194 48.4374L122.797 51.9188L120.859 51.6308L121.027 50.4962ZM122.196 47.6948L121.139 54.8064L119.66 54.5866L120.717 47.475L122.196 47.6948Z" fill="#008ECF"/>
<path d="M127.464 49.7112L127.763 48.6039L134.025 50.2961L133.726 51.4035L131.313 50.7515L129.737 56.5848L128.293 56.1947L129.87 50.3614L127.464 49.7112Z" fill="#008ECF"/>
<path d="M136.46 51.1525L135.517 53.3482L137.273 54.1028C138.118 54.4658 138.681 54.9378 138.961 55.519C139.247 56.0978 139.241 56.7344 138.943 57.4286C138.652 58.1061 138.195 58.5465 137.573 58.7498C136.955 58.9549 136.223 58.8759 135.379 58.513L132.248 57.1681L135.086 50.5623L136.46 51.1525ZM136.746 55.0876L135.077 54.3708L134.061 56.7358L135.73 57.4527C136.215 57.6611 136.605 57.6997 136.899 57.5685C137.193 57.4372 137.418 57.1918 137.572 56.8321C137.725 56.4766 137.747 56.1491 137.637 55.8496C137.528 55.55 137.231 55.2961 136.746 55.0876ZM138.867 60.0114L141.704 53.4056L143.078 53.9958L140.24 60.6017L138.867 60.0114Z" fill="#008ECF"/>
<ellipse cx="79.344" cy="171.893" rx="78.656" ry="79.0056" transform="rotate(180 79.344 171.893)" fill="url(#paint2_linear_3092_19)"/>
<path d="M1.03762 171.893C1.03762 128.451 36.098 93.2369 79.344 93.2369C122.59 93.2369 157.65 128.451 157.65 171.893C157.65 215.335 122.59 250.549 79.344 250.549C36.0981 250.549 1.03763 215.335 1.03762 171.893Z" stroke="#008ECF" stroke-opacity="0.2" stroke-width="0.699164"/>
<path d="M23.8322 183.256L24.3606 183.117C25.893 182.716 27.1725 182.814 28.1993 183.411C29.2261 184.008 29.9027 184.929 30.2291 186.175C30.5427 187.373 30.489 188.399 30.0679 189.252C29.6524 190.109 28.9627 190.683 27.9988 190.973L27.9063 190.997L27.5137 189.498L27.611 189.465C28.235 189.278 28.6733 188.931 28.9259 188.422C29.183 187.913 29.2089 187.266 29.0037 186.482C28.7915 185.672 28.3333 185.081 27.6292 184.711C26.9263 184.344 25.9892 184.314 24.8179 184.621L24.1706 184.79C23.0345 185.088 22.2411 185.571 21.7904 186.24C21.3397 186.908 21.2215 187.652 21.436 188.471C21.6447 189.268 21.9936 189.809 22.4826 190.095C22.9771 190.385 23.5197 190.48 24.1104 190.382L24.2112 190.363L24.6038 191.862L24.503 191.881C23.5487 192.047 22.6747 191.88 21.8808 191.382C21.0914 190.883 20.5364 190.022 20.2158 188.798C19.8895 187.551 20.0231 186.418 20.6168 185.396C21.2148 184.374 22.2866 183.66 23.8322 183.256Z" fill="#008ECF"/>
<path d="M25.2492 192.83L25.4506 192.746C26.4534 192.324 27.3974 192.285 28.2827 192.628C29.1722 192.97 29.8252 193.636 30.2417 194.626C30.6582 195.617 30.6845 196.507 30.3206 197.297C29.9609 198.085 29.2733 198.693 28.258 199.12L27.7293 199.342L25.3916 193.785L26.386 193.367L28.1439 197.546L28.2383 197.506C28.7208 197.303 29.0582 196.996 29.2504 196.584C29.4444 196.177 29.4188 195.681 29.1734 195.098C28.8999 194.448 28.4782 194.05 27.9084 193.904C27.3427 193.757 26.7243 193.825 26.0529 194.107L25.7949 194.215C25.1278 194.496 24.6505 194.899 24.363 195.425C24.0816 195.953 24.0926 196.578 24.3962 197.3C24.5833 197.745 24.8341 198.089 25.1486 198.332C25.4691 198.577 25.7976 198.748 26.1341 198.843L25.8283 200.053C25.3991 199.972 24.9449 199.743 24.4657 199.367C23.9907 198.989 23.6075 198.454 23.3163 197.762C22.8469 196.646 22.7988 195.651 23.1723 194.778C23.5499 193.903 24.2422 193.254 25.2492 192.83Z" fill="#008ECF"/>
<path d="M23.5417 204.469L32.182 199.375L32.8825 200.563L32.0985 201.089L32.1124 201.112C32.4729 201.132 32.8485 201.267 33.2392 201.518C33.6323 201.772 33.9663 202.133 34.2414 202.599C34.7407 203.446 34.8485 204.297 34.5648 205.151C34.2872 206.007 33.6917 206.704 32.778 207.243L32.5898 207.354C31.6762 207.892 30.777 208.079 29.8922 207.914C29.0074 207.748 28.3177 207.246 27.823 206.407C27.5456 205.936 27.3828 205.485 27.3347 205.054C27.2904 204.621 27.3399 204.229 27.4831 203.881L24.301 205.757L23.5417 204.469ZM28.6889 203.17C28.4923 203.455 28.3748 203.807 28.3364 204.226C28.3043 204.646 28.4107 205.064 28.6557 205.48C29.0187 206.096 29.4778 206.435 30.0331 206.499C30.5885 206.563 31.172 206.414 31.7837 206.053L32.0249 205.911C32.6366 205.551 33.049 205.112 33.2622 204.595C33.4778 204.083 33.4029 203.516 33.0377 202.897C32.7903 202.477 32.4761 202.182 32.0949 202.01C31.716 201.842 31.3531 201.774 31.0063 201.804L28.6889 203.17Z" fill="#008ECF"/>
<path d="M30.9263 210.92L36.5707 206.467L38.8248 209.324C39.3493 209.988 39.6245 210.595 39.6507 211.142C39.6804 211.687 39.4469 212.155 38.9502 212.547C38.6286 212.801 38.2891 212.918 37.9316 212.899C37.577 212.883 37.2349 212.747 36.9054 212.491L36.8893 212.503C37.1182 212.926 37.2092 213.335 37.1625 213.732C37.1221 214.129 36.9251 214.467 36.5713 214.746C36.0603 215.149 35.518 215.281 34.9446 215.142C34.3747 215 33.8331 214.604 33.32 213.954L30.9263 210.92ZM35.1395 209.492L36.4167 211.111C36.6761 211.439 36.9315 211.624 37.1829 211.663C37.4378 211.7 37.6868 211.622 37.9298 211.43C38.1621 211.247 38.283 211.033 38.2924 210.788C38.3019 210.542 38.177 210.255 37.9176 209.927L36.6404 208.308L35.1395 209.492ZM32.7006 211.416L34.1046 213.196C34.3697 213.532 34.6375 213.72 34.908 213.762C35.1822 213.801 35.4407 213.724 35.6837 213.533C35.9232 213.344 36.0523 213.114 36.0712 212.844C36.0965 212.575 35.9752 212.271 35.7074 211.931L34.3033 210.152L32.7006 211.416Z" fill="#008ECF"/>
<path d="M36.6112 217.769L41.6137 212.605L42.6828 213.64L39.6851 216.735C39.5901 216.833 39.4775 216.942 39.3475 217.064C39.2207 217.188 39.1097 217.296 39.0146 217.388L39.0588 217.43C39.1869 217.39 39.3247 217.349 39.4721 217.308C39.6227 217.264 39.783 217.222 39.953 217.184L45.2133 216.092L46.2921 217.137L41.2896 222.301L40.2206 221.265L43.223 218.166C43.318 218.068 43.4289 217.956 43.5557 217.832C43.6889 217.708 43.8063 217.6 43.9079 217.508L43.8539 217.456C43.7291 217.499 43.5898 217.545 43.436 217.593C43.2823 217.64 43.122 217.681 42.9551 217.716L37.6852 218.809L36.6112 217.769Z" fill="#008ECF"/>
<path d="M44.3157 220.311L44.4458 220.136C45.0991 219.254 45.8909 218.737 46.8214 218.582C47.7546 218.424 48.6764 218.682 49.5869 219.357C50.4353 219.986 50.9244 220.672 51.0542 221.414C51.1876 222.159 51.0633 222.8 50.6812 223.339L50.6487 223.382L49.4584 222.5L49.4869 222.462C49.7173 222.151 49.7996 221.807 49.7337 221.429C49.6706 221.048 49.3886 220.672 48.8876 220.301C48.2989 219.864 47.7259 219.731 47.1688 219.902C46.6144 220.069 46.1217 220.443 45.6907 221.025L45.524 221.249C45.093 221.831 44.8769 222.413 44.8756 222.996C44.877 223.575 45.1721 224.082 45.7608 224.519C46.2691 224.896 46.7129 225.057 47.0923 225.004C47.4716 224.951 47.7765 224.769 48.0069 224.458L48.0313 224.425L49.2215 225.308L49.1931 225.346C48.8027 225.873 48.2287 226.181 47.4708 226.271C46.7166 226.363 45.9135 226.094 45.0615 225.462C44.1546 224.79 43.6394 223.983 43.5158 223.041C43.3958 222.103 43.6624 221.193 44.3157 220.311Z" fill="#008ECF"/>
<path d="M54.1572 222.779L53.0269 224.885L54.7113 225.789C55.5214 226.224 56.0409 226.743 56.2698 227.346C56.5049 227.948 56.4437 228.581 56.0863 229.247C55.7375 229.897 55.2443 230.296 54.6067 230.444C53.973 230.595 53.2511 230.453 52.441 230.018L49.4391 228.406L52.8398 222.072L54.1572 222.779ZM54.1007 226.724L52.5005 225.865L51.283 228.133L52.8832 228.992C53.3484 229.242 53.7332 229.314 54.0377 229.209C54.3422 229.104 54.587 228.879 54.7721 228.534C54.9551 228.193 55.0053 227.868 54.9226 227.561C54.8399 227.253 54.5659 226.974 54.1007 226.724ZM55.7857 231.813L59.1864 225.479L60.5038 226.186L57.1032 232.521L55.7857 231.813Z" fill="#008ECF"/>
<path fill-rule="evenodd" clip-rule="evenodd" d="M115.999 101.453C140.948 114.7 157.949 141.029 157.949 171.346C157.949 172.709 157.915 174.064 157.847 175.41C133.933 190.247 102.758 191.743 76.5938 176.637C75.7637 176.158 74.9456 175.666 74.1396 175.161C74.0797 173.897 74.0495 172.625 74.0495 171.346C74.0495 141.029 91.0507 114.7 115.999 101.453Z" fill="#008ECF"/>
<path d="M88.4942 140.275V130.334H96.5987V140.275H95.0488V131.563H90.0441V140.275H88.4942ZM98.159 136.786V136.568C98.159 135.471 98.4981 134.583 99.1763 133.905C99.8591 133.222 100.765 132.881 101.894 132.881C103.023 132.881 103.928 133.222 104.611 133.905C105.294 134.583 105.635 135.471 105.635 136.568V136.786C105.635 137.883 105.294 138.773 104.611 139.456C103.928 140.139 103.023 140.48 101.894 140.48C100.765 140.48 99.8591 140.139 99.1763 139.456C98.4981 138.773 98.159 137.883 98.159 136.786ZM99.6884 136.541V136.821C99.6884 137.549 99.8751 138.143 100.248 138.603C100.622 139.062 101.17 139.292 101.894 139.292C102.618 139.292 103.166 139.062 103.539 138.603C103.917 138.143 104.106 137.549 104.106 136.821V136.541C104.106 135.812 103.917 135.218 103.539 134.759C103.166 134.299 102.618 134.069 101.894 134.069C101.175 134.069 100.626 134.299 100.248 134.759C99.8751 135.218 99.6884 135.812 99.6884 136.541ZM109.067 134.233L108.95 136.943C108.896 138.191 108.73 139.083 108.452 139.62C108.179 140.157 107.674 140.426 106.936 140.426C106.777 140.426 106.629 140.414 106.492 140.391C106.356 140.373 106.242 140.344 106.151 140.303V139.081C106.228 139.112 106.308 139.135 106.39 139.149C106.472 139.162 106.563 139.169 106.663 139.169C107.014 139.169 107.246 138.996 107.36 138.65C107.478 138.304 107.558 137.672 107.599 136.752L107.756 133.086H113.286V140.275H111.791V134.233H109.067ZM115.119 133.086H116.615V136.029H119.995V133.086H121.497V140.275H119.995V137.176H116.615V140.275H115.119V133.086ZM124.805 133.086V135.475H126.717C127.636 135.475 128.339 135.687 128.826 136.11C129.318 136.529 129.564 137.116 129.564 137.872C129.564 138.609 129.318 139.194 128.826 139.627C128.339 140.059 127.636 140.275 126.717 140.275H123.31V133.086H124.805ZM126.621 136.588H124.805V139.162H126.621C127.149 139.162 127.522 139.044 127.741 138.807C127.959 138.571 128.068 138.257 128.068 137.865C128.068 137.478 127.959 137.169 127.741 136.937C127.522 136.704 127.149 136.588 126.621 136.588ZM130.513 140.275V133.086H132.008V140.275H130.513ZM133.821 140.275V133.086H135.309V137.394C135.309 137.531 135.305 137.688 135.296 137.865C135.291 138.043 135.287 138.197 135.282 138.329H135.344C135.407 138.211 135.478 138.086 135.555 137.954C135.633 137.817 135.719 137.676 135.815 137.531L138.833 133.086H140.335V140.275H138.846V135.96C138.846 135.824 138.849 135.667 138.853 135.489C138.862 135.307 138.871 135.148 138.88 135.011H138.805C138.746 135.13 138.678 135.259 138.6 135.4C138.523 135.541 138.437 135.683 138.341 135.824L135.316 140.275H133.821ZM137.078 130.901C137.406 130.901 137.674 130.81 137.884 130.628C138.093 130.441 138.264 130.138 138.396 129.72L139.454 130.314C139.235 130.892 138.915 131.311 138.491 131.57C138.072 131.825 137.601 131.952 137.078 131.952C136.545 131.952 136.072 131.827 135.658 131.577C135.243 131.322 134.923 130.901 134.695 130.314L135.774 129.706C135.91 130.143 136.081 130.452 136.286 130.635C136.491 130.812 136.755 130.901 137.078 130.901ZM91.5325 152.786V152.568C91.5325 151.471 91.8602 150.583 92.5157 149.905C93.1712 149.222 94.0656 148.881 95.199 148.881C96.2551 148.881 97.0562 149.14 97.6024 149.659C98.1532 150.178 98.4354 150.768 98.449 151.428V151.482H96.9674V151.434C96.9674 151.048 96.8286 150.722 96.5509 150.458C96.2733 150.19 95.8226 150.055 95.199 150.055C94.4662 150.055 93.9268 150.29 93.5808 150.759C93.2349 151.223 93.0619 151.817 93.0619 152.541V152.821C93.0619 153.544 93.2349 154.141 93.5808 154.609C93.9268 155.074 94.4662 155.306 95.199 155.306C95.8317 155.306 96.2846 155.172 96.5578 154.903C96.8309 154.634 96.9674 154.307 96.9674 153.92V153.879H98.449V153.927C98.449 154.582 98.1714 155.172 97.6161 155.695C97.0653 156.218 96.2596 156.48 95.199 156.48C94.0702 156.48 93.1757 156.139 92.5157 155.456C91.8602 154.773 91.5325 153.883 91.5325 152.786ZM99.6475 149.086H105.984V156.275H104.482V150.233H101.143V156.275H99.6475V149.086ZM107.38 152.786V152.568C107.38 151.48 107.71 150.595 108.37 149.912C109.03 149.225 109.897 148.881 110.971 148.881C112.046 148.881 112.876 149.202 113.464 149.844C114.051 150.481 114.344 151.35 114.344 152.452V153.025H108.315V151.947H112.849V151.844C112.849 151.321 112.697 150.891 112.392 150.554C112.091 150.217 111.625 150.048 110.992 150.048C110.286 150.048 109.756 150.283 109.401 150.752C109.046 151.216 108.869 151.812 108.869 152.541V152.821C108.869 153.544 109.055 154.141 109.428 154.609C109.806 155.074 110.387 155.306 111.169 155.306C111.652 155.306 112.066 155.208 112.412 155.012C112.763 154.812 113.047 154.575 113.266 154.302L114.262 155.053C114.021 155.417 113.634 155.747 113.102 156.043C112.569 156.335 111.927 156.48 111.176 156.48C109.966 156.48 109.03 156.139 108.37 155.456C107.71 154.769 107.38 153.879 107.38 152.786ZM120.691 156.275L117.612 153.005L118.602 152.063L122.575 156.275H120.691ZM116.396 152.029H117.741L120.452 149.086H122.193L118.356 153.176H116.396V152.029ZM117.14 149.086V156.275H115.645V149.086H117.14ZM122.518 150.233V149.086H129.004V150.233H126.505V156.275H125.01V150.233H122.518ZM130.045 159.116V149.086H131.424L131.479 150.028H131.506C131.707 149.728 132.014 149.473 132.428 149.263C132.847 149.054 133.327 148.949 133.869 148.949C134.852 148.949 135.639 149.288 136.231 149.967C136.828 150.64 137.126 151.507 137.126 152.568V152.786C137.126 153.847 136.83 154.716 136.238 155.395C135.646 156.073 134.863 156.412 133.889 156.412C133.343 156.412 132.872 156.323 132.476 156.146C132.08 155.964 131.768 155.722 131.541 155.422V159.116H130.045ZM131.541 154.022C131.686 154.336 131.93 154.616 132.271 154.862C132.617 155.103 133.031 155.224 133.514 155.224C134.228 155.224 134.754 155.001 135.091 154.555C135.428 154.109 135.596 153.531 135.596 152.821V152.541C135.596 151.831 135.428 151.252 135.091 150.806C134.759 150.36 134.233 150.137 133.514 150.137C133.027 150.137 132.613 150.258 132.271 150.499C131.934 150.74 131.691 151.018 131.541 151.332V154.022ZM98.4116 175.116L98.4185 173.914C98.5459 173.95 98.687 173.98 98.8418 174.003C99.0011 174.026 99.1513 174.037 99.2924 174.037C99.6475 174.037 99.9479 173.932 100.194 173.723C100.439 173.518 100.701 173.022 100.979 172.234L100.938 172.228L98.0293 165.086H99.5314L101.307 169.688C101.379 169.865 101.441 170.038 101.491 170.207C101.546 170.37 101.591 170.532 101.628 170.691H101.668C101.714 170.532 101.762 170.37 101.812 170.207C101.866 170.043 101.926 169.87 101.989 169.688L103.69 165.086H105.11L101.935 173.204C101.68 173.855 101.343 174.358 100.924 174.713C100.505 175.073 99.9934 175.252 99.388 175.252C99.1877 175.252 99.0079 175.241 98.8486 175.218C98.6938 175.195 98.5482 175.161 98.4116 175.116ZM105.502 168.786V168.568C105.502 167.471 105.83 166.583 106.486 165.905C107.141 165.222 108.036 164.881 109.169 164.881C110.225 164.881 111.026 165.14 111.572 165.659C112.123 166.178 112.405 166.768 112.419 167.428V167.482H110.937V167.434C110.937 167.048 110.798 166.722 110.521 166.458C110.243 166.19 109.793 166.055 109.169 166.055C108.436 166.055 107.897 166.29 107.551 166.759C107.205 167.223 107.032 167.817 107.032 168.541V168.821C107.032 169.544 107.205 170.141 107.551 170.609C107.897 171.074 108.436 171.306 109.169 171.306C109.802 171.306 110.255 171.172 110.528 170.903C110.801 170.634 110.937 170.307 110.937 169.92V169.879H112.419V169.927C112.419 170.582 112.141 171.172 111.586 171.695C111.035 172.218 110.23 172.48 109.169 172.48C108.04 172.48 107.146 172.139 106.486 171.456C105.83 170.773 105.502 169.883 105.502 168.786ZM115.645 166.233L115.529 168.943C115.475 170.191 115.308 171.083 115.031 171.62C114.758 172.157 114.252 172.426 113.515 172.426C113.356 172.426 113.208 172.414 113.071 172.391C112.935 172.373 112.821 172.344 112.73 172.303V171.081C112.807 171.112 112.887 171.135 112.969 171.149C113.051 171.162 113.142 171.169 113.242 171.169C113.592 171.169 113.824 170.996 113.938 170.65C114.057 170.304 114.136 169.672 114.177 168.752L114.334 165.086H119.865V172.275H118.369V166.233H115.645ZM121.152 175.116L121.159 173.914C121.286 173.95 121.427 173.98 121.582 174.003C121.741 174.026 121.892 174.037 122.033 174.037C122.388 174.037 122.688 173.932 122.934 173.723C123.18 173.518 123.442 173.022 123.719 172.234L123.678 172.228L120.77 165.086H122.272L124.047 169.688C124.12 169.865 124.181 170.038 124.231 170.207C124.286 170.37 124.331 170.532 124.368 170.691H124.409C124.454 170.532 124.502 170.37 124.552 170.207C124.607 170.043 124.666 169.87 124.73 169.688L126.43 165.086H127.85L124.675 173.204C124.42 173.855 124.083 174.358 123.665 174.713C123.246 175.073 122.734 175.252 122.128 175.252C121.928 175.252 121.748 175.241 121.589 175.218C121.434 175.195 121.289 175.161 121.152 175.116ZM128.659 165.086H133.807V166.233H130.155V172.275H128.659V165.086Z" fill="white"/>
<path d="M176.823 235.368L175.357 235.827L173.27 229.154C173.228 229.019 173.18 228.867 173.127 228.698C173.078 228.527 173.037 228.373 173.004 228.235L172.952 228.252C172.925 228.394 172.895 228.541 172.861 228.695C172.827 228.844 172.787 229.004 172.74 229.176L170.469 237.355L168.886 237.85L165.918 228.362L167.391 227.902L169.478 234.575C169.52 234.709 169.566 234.862 169.614 235.033C169.663 235.204 169.706 235.357 169.744 235.493L169.803 235.475C169.821 235.35 169.848 235.208 169.884 235.049C169.919 234.885 169.958 234.72 170.001 234.554L172.272 226.375L173.855 225.88L176.823 235.368Z" fill="#008ECF"/>
<path d="M176.31 227.754L177.653 227.097L178.945 229.741L181.982 228.257L180.69 225.613L182.039 224.953L185.196 231.413L183.847 232.072L182.485 229.287L179.449 230.772L180.81 233.557L179.467 234.213L176.31 227.754Z" fill="#008ECF"/>
<path d="M186.315 226.738C186.737 227.337 187.236 227.707 187.812 227.847C188.387 227.983 189.072 227.799 189.869 227.294L186.866 223.021C186.121 223.6 185.717 224.184 185.653 224.775C185.587 225.361 185.766 225.956 186.19 226.559L186.315 226.738ZM191.653 222.719C191.229 222.116 190.73 221.746 190.156 221.61C189.583 221.468 188.896 221.65 188.095 222.157L191.098 226.431C191.847 225.849 192.252 225.266 192.315 224.683C192.379 224.093 192.2 223.498 191.778 222.898L191.653 222.719ZM190.552 228.266C189.418 229.003 188.378 229.305 187.434 229.173C186.49 229.041 185.7 228.522 185.064 227.617L184.938 227.438C184.302 226.533 184.082 225.614 184.278 224.681C184.47 223.745 185.105 222.867 186.183 222.049L184.408 219.524L185.637 218.66L187.412 221.185C188.554 220.444 189.597 220.142 190.54 220.28C191.48 220.415 192.268 220.935 192.904 221.84L193.03 222.019C193.666 222.924 193.888 223.841 193.696 224.772C193.504 225.702 192.866 226.579 191.781 227.403L193.297 229.559L192.068 230.423L190.552 228.266Z" fill="#008ECF"/>
<path d="M199.288 224.849L192.281 217.672L193.268 216.709L193.965 217.345L193.984 217.326C193.918 216.971 193.96 216.574 194.11 216.134C194.263 215.692 194.533 215.282 194.921 214.903C195.624 214.216 196.425 213.909 197.322 213.981C198.219 214.046 199.038 214.458 199.779 215.217L199.932 215.374C200.673 216.132 201.069 216.961 201.119 217.86C201.17 218.758 200.846 219.548 200.149 220.229C199.758 220.61 199.359 220.876 198.952 221.025C198.541 221.172 198.15 221.217 197.777 221.161L200.358 223.804L199.288 224.849ZM196.799 220.16C197.123 220.283 197.493 220.313 197.909 220.25C198.325 220.181 198.705 219.978 199.051 219.641C199.562 219.142 199.782 218.615 199.712 218.06C199.641 217.506 199.358 216.974 198.862 216.466L198.666 216.266C198.17 215.758 197.646 215.462 197.093 215.378C196.544 215.291 196.012 215.499 195.497 216.001C195.148 216.342 194.936 216.717 194.861 217.128C194.788 217.536 194.808 217.905 194.92 218.235L196.799 220.16Z" fill="#008ECF"/>
<path d="M201.899 215.149C201.306 214.688 201.04 214.093 201.099 213.366C201.157 212.632 201.499 211.863 202.126 211.059L203.217 209.658L202.845 209.369C202.504 209.103 202.166 208.996 201.832 209.047C201.494 209.095 201.151 209.344 200.801 209.793C200.457 210.234 200.281 210.62 200.273 210.948C200.268 211.273 200.384 211.528 200.621 211.713L200.664 211.746L199.753 212.915L199.716 212.886C199.213 212.494 198.976 211.954 199.004 211.266C199.031 210.572 199.345 209.839 199.947 209.067C200.54 208.306 201.164 207.846 201.819 207.686C202.473 207.521 203.121 207.688 203.764 208.189L206.36 210.212C206.593 210.394 206.83 210.546 207.069 210.669C207.304 210.789 207.526 210.875 207.733 210.927L207.819 210.994L206.926 212.141C206.8 212.124 206.651 212.083 206.477 212.017C206.3 211.948 206.137 211.864 205.989 211.766C206.112 212.082 206.13 212.477 206.043 212.951C205.956 213.426 205.712 213.922 205.309 214.439C204.825 215.06 204.281 215.447 203.677 215.6C203.07 215.75 202.477 215.6 201.899 215.149ZM202.742 213.911C203.055 214.154 203.372 214.243 203.695 214.177C204.014 214.108 204.34 213.86 204.673 213.433C205.009 213.002 205.178 212.522 205.18 211.993C205.182 211.458 205.032 211.072 204.73 210.837L203.992 210.263L203.015 211.518C202.603 212.045 202.378 212.516 202.338 212.93C202.295 213.34 202.43 213.667 202.742 213.911Z" fill="#008ECF"/>
<path d="M205.418 208.381L205.23 208.27C204.286 207.711 203.689 206.977 203.439 206.068C203.185 205.156 203.347 204.212 203.924 203.237C204.461 202.328 205.093 201.77 205.817 201.564C206.544 201.355 207.195 201.412 207.77 201.736L207.818 201.764L207.063 203.039L207.022 203.015C206.689 202.818 206.338 202.772 205.97 202.876C205.597 202.978 205.252 203.298 204.935 203.835C204.561 204.465 204.489 205.049 204.716 205.585C204.939 206.12 205.363 206.571 205.986 206.939L206.227 207.082C206.849 207.45 207.451 207.605 208.03 207.546C208.606 207.485 209.081 207.139 209.454 206.508C209.776 205.963 209.891 205.505 209.799 205.133C209.707 204.762 209.494 204.477 209.161 204.28L209.126 204.259L209.88 202.984L209.921 203.008C210.485 203.342 210.851 203.881 211.019 204.626C211.189 205.366 211.004 206.193 210.464 207.106C209.89 208.077 209.14 208.673 208.217 208.894C207.295 209.11 206.363 208.939 205.418 208.381Z" fill="#008ECF"/>
<path d="M207.22 200.246L206.17 199.783L208.787 193.848L209.837 194.311L208.828 196.597L214.357 199.035L213.754 200.403L208.225 197.966L207.22 200.246Z" fill="#008ECF"/>
<path d="M218.797 195.61L209.187 192.739L209.582 191.417L210.5 191.635L210.508 191.608C210.277 191.33 210.121 190.963 210.039 190.506C209.958 190.045 209.996 189.555 210.151 189.036C210.432 188.094 210.983 187.437 211.802 187.064C212.618 186.685 213.534 186.648 214.55 186.952L214.76 187.014C215.776 187.318 216.524 187.85 217.005 188.611C217.485 189.373 217.586 190.22 217.307 191.153C217.15 191.676 216.93 192.102 216.647 192.431C216.359 192.758 216.039 192.988 215.686 193.12L219.225 194.178L218.797 195.61ZM214.345 192.719C214.687 192.67 215.025 192.516 215.358 192.26C215.689 191.997 215.923 191.635 216.061 191.173C216.266 190.488 216.202 189.92 215.871 189.47C215.541 189.019 215.035 188.693 214.354 188.489L214.086 188.409C213.406 188.206 212.804 188.202 212.28 188.397C211.757 188.587 211.393 189.027 211.187 189.716C211.048 190.183 211.045 190.614 211.178 191.011C211.313 191.402 211.509 191.715 211.767 191.949L214.345 192.719Z" fill="#008ECF"/>
<path d="M221.235 186.652L220.05 186.45C220.107 186.33 220.159 186.195 220.207 186.046C220.255 185.893 220.291 185.747 220.314 185.607C220.372 185.257 220.318 184.944 220.151 184.667C219.989 184.391 219.542 184.052 218.81 183.65L218.797 183.689L211.277 185.395L211.521 183.913L216.351 182.912C216.538 182.869 216.719 182.836 216.893 182.814C217.064 182.787 217.23 182.768 217.394 182.758L217.4 182.718C217.25 182.647 217.099 182.574 216.945 182.498C216.793 182.417 216.632 182.33 216.462 182.238L212.199 179.811L212.43 178.41L219.923 182.865C220.523 183.222 220.965 183.636 221.247 184.107C221.533 184.579 221.627 185.114 221.529 185.711C221.496 185.909 221.456 186.084 221.407 186.238C221.36 186.387 221.302 186.525 221.235 186.652Z" fill="#008ECF"/>
<path d="M219.791 173.446L216.383 176.372L215.487 175.339L219.878 171.563L219.791 173.446ZM215.352 177.541L215.413 176.197L212.598 173.354L212.678 171.615L216.587 175.636L216.497 177.594L215.352 177.541ZM212.446 176.662L219.628 176.992L219.56 178.486L212.377 178.156L212.446 176.662Z" fill="#008ECF"/>
<path d="M213.789 171.486L212.645 171.567L212.186 165.097L213.331 165.016L213.507 167.509L219.535 167.082L219.64 168.573L213.613 169L213.789 171.486Z" fill="#008ECF"/>
<path d="M221.916 162.511L220.733 162.719C220.746 162.587 220.749 162.443 220.744 162.287C220.738 162.126 220.722 161.976 220.697 161.838C220.634 161.488 220.477 161.211 220.227 161.007C219.982 160.802 219.447 160.633 218.622 160.501L218.623 160.542L212.116 164.681L211.848 163.203L216.058 160.633C216.22 160.53 216.379 160.439 216.535 160.359C216.687 160.276 216.838 160.203 216.988 160.138L216.981 160.098C216.816 160.082 216.648 160.064 216.478 160.044C216.307 160.019 216.126 159.992 215.936 159.962L211.104 159.112L210.85 157.714L219.405 159.387C220.091 159.521 220.646 159.763 221.07 160.111C221.499 160.459 221.768 160.931 221.876 161.526C221.912 161.723 221.933 161.902 221.939 162.063C221.944 162.219 221.936 162.369 221.916 162.511Z" fill="#008ECF"/>
<path d="M220.259 154.361L210.688 157.36L210.275 156.044L211.158 155.71L211.15 155.684C210.803 155.583 210.468 155.366 210.145 155.033C209.82 154.696 209.576 154.269 209.414 153.752C209.12 152.814 209.209 151.961 209.679 151.194C210.143 150.423 210.882 149.879 211.894 149.562L212.102 149.497C213.114 149.18 214.033 149.202 214.857 149.564C215.681 149.926 216.238 150.572 216.53 151.501C216.693 152.023 216.749 152.499 216.698 152.93C216.643 153.362 216.506 153.732 216.287 154.039L219.812 152.934L220.259 154.361ZM214.951 154.457C215.208 154.224 215.402 153.908 215.534 153.509C215.661 153.107 215.652 152.675 215.508 152.215C215.295 151.533 214.925 151.098 214.398 150.91C213.872 150.722 213.27 150.734 212.592 150.946L212.325 151.03C211.647 151.242 211.146 151.576 210.821 152.031C210.495 152.481 210.439 153.049 210.654 153.736C210.8 154.2 211.039 154.56 211.371 154.813C211.702 155.063 212.04 155.212 212.384 155.261L214.951 154.457Z" fill="#008ECF"/>
<path d="M212.814 147.726C212.133 148.043 211.482 148.01 210.862 147.626C210.235 147.24 209.706 146.585 209.276 145.661L208.527 144.052L208.099 144.25C207.707 144.433 207.458 144.685 207.351 145.006C207.241 145.328 207.305 145.748 207.546 146.263C207.782 146.771 208.045 147.103 208.333 147.26C208.62 147.412 208.9 147.425 209.172 147.298L209.222 147.275L209.847 148.618L209.804 148.639C209.226 148.908 208.638 148.873 208.038 148.534C207.433 148.194 206.923 147.58 206.51 146.693C206.103 145.818 205.978 145.053 206.134 144.397C206.285 143.74 206.73 143.239 207.468 142.895L210.451 141.506C210.72 141.381 210.963 141.24 211.181 141.083C211.395 140.928 211.573 140.77 211.714 140.609L211.813 140.563L212.427 141.881C212.354 141.985 212.249 142.099 212.112 142.224C211.97 142.35 211.821 142.457 211.666 142.544C212.003 142.578 212.363 142.742 212.746 143.036C213.129 143.329 213.458 143.773 213.735 144.367C214.068 145.081 214.164 145.742 214.025 146.349C213.882 146.958 213.478 147.417 212.814 147.726ZM212.096 146.411C212.455 146.244 212.679 146.002 212.767 145.685C212.851 145.369 212.779 144.966 212.55 144.475C212.319 143.98 211.969 143.611 211.499 143.367C211.024 143.122 210.612 143.08 210.266 143.242L209.418 143.636L210.089 145.079C210.372 145.685 210.688 146.1 211.038 146.324C211.384 146.549 211.737 146.578 212.096 146.411Z" fill="#008ECF"/>
<defs>
<linearGradient id="paint0_linear_3092_19" x1="73.688" y1="133.459" x2="212.243" y2="218.602" gradientUnits="userSpaceOnUse">
<stop stop-color="#008ECF" stop-opacity="0.2"/>
<stop offset="1" stop-color="#008ECF" stop-opacity="0"/>
</linearGradient>
<linearGradient id="paint1_linear_3092_19" x1="33.5952" y1="69.0862" x2="172.15" y2="154.229" gradientUnits="userSpaceOnUse">
<stop stop-color="#008ECF" stop-opacity="0.2"/>
<stop offset="1" stop-color="#008ECF" stop-opacity="0"/>
</linearGradient>
<linearGradient id="paint2_linear_3092_19" x1="0.688041" y1="133.358" x2="139.243" y2="218.501" gradientUnits="userSpaceOnUse">
<stop stop-color="#008ECF" stop-opacity="0.2"/>
<stop offset="1" stop-color="#008ECF" stop-opacity="0"/>
</linearGradient>
</defs>
</svg>
