<svg width="115" height="31" viewBox="0 0 115 31" fill="none" xmlns="http://www.w3.org/2000/svg">
<path d="M51.6765 14.4426H50.9983V13.266H47.3099V7.98633H47.989V12.6323H50.3941V7.98633H51.0732V12.6323H51.6765V14.4426Z" fill="#303132"/>
<path d="M54.8141 12.708C57.0193 12.7968 56.9881 8.38147 54.7235 8.54433C52.4621 8.51399 52.5134 12.845 54.8141 12.708ZM54.7458 13.3412C51.5567 13.4822 51.5612 7.81299 54.7235 7.91071C57.9407 7.75185 57.947 13.4897 54.7458 13.3412Z" fill="#303132"/>
<path d="M61.2024 12.6324V8.61998H59.5055C59.4412 9.95819 59.3971 11.4187 58.8045 12.6324H61.2024ZM62.4849 14.4427H61.8066V13.266H58.2686V14.4427H57.5894V12.6324H58.1102C58.8763 11.2357 58.8107 9.55436 58.8794 7.98636H61.8811V12.6324H62.4849V14.4427Z" fill="#303132"/>
<path d="M71.0504 13.2616H70.3628V8.9516L67.7644 13.2616H66.9849V7.91281H67.673V12.2224L70.2708 7.91281H71.0504V13.2616Z" fill="#303132"/>
<path d="M76.5444 13.2616H75.8568V10.8007H73.1518V13.2616H72.4638V7.91281H73.1518V10.1747H75.8568V7.91281H76.5444V13.2616Z" fill="#303132"/>
<path d="M82.0387 13.2616H81.3511V10.8007H78.6461V13.2616H77.958V7.91281H78.6461V10.1747H81.3511V7.91281H82.0387V13.2616Z" fill="#303132"/>
<path d="M85.714 12.6959C87.9482 12.7865 87.9165 8.31274 85.6225 8.47784C83.3317 8.44616 83.3834 12.836 85.714 12.6959ZM85.6453 13.338C82.4138 13.4804 82.4183 7.73668 85.6225 7.83619C88.8826 7.6751 88.8875 13.488 85.6453 13.338Z" fill="#303132"/>
<path d="M93.1567 13.2616H92.4691V8.55446H89.9395V13.2616H89.2519V7.91281H93.1567V13.2616Z" fill="#303132"/>
<path d="M96.8323 12.6959C99.0665 12.7865 99.0348 8.31273 96.7404 8.47783C94.4499 8.4466 94.5017 12.836 96.8323 12.6959ZM96.7636 13.338C93.5321 13.4804 93.5365 7.73667 96.7404 7.83617C100 7.67509 100.006 13.4875 96.7636 13.338Z" fill="#303132"/>
<path d="M104.206 13.2616H103.518V8.55448H101.684C101.498 10.1515 102.174 13.4722 99.9118 13.2772V12.6124C101.385 12.7806 100.827 9.10511 100.997 7.91283H104.206V13.2616Z" fill="#303132"/>
<path d="M109.685 13.2616H108.997V8.9516L106.399 13.2616H105.62V7.91281H106.308V12.2224L108.905 7.91281H109.685V13.2616Z" fill="#303132"/>
<path d="M114.705 13.1162C109.625 14.951 109.648 6.23198 114.713 8.04227L114.583 8.646C110.565 7.15787 110.687 14.006 114.591 12.5053L114.705 13.1162Z" fill="#303132"/>
<path d="M47.8693 21.0823H48.5404C48.8884 21.0823 49.1526 21.0118 49.3324 20.8712C49.5127 20.7302 49.6033 20.5152 49.6033 20.2247C49.6033 19.9266 49.5127 19.7115 49.3324 19.5786C49.1526 19.4465 48.8884 19.38 48.5404 19.38H47.8693V21.0823ZM47.8693 23.2072H47.3102V18.8579H48.5904C48.8385 18.8579 49.0611 18.8838 49.2583 18.936C49.4547 18.9873 49.6238 19.069 49.7644 19.181C49.9054 19.293 50.0133 19.434 50.0874 19.6035C50.1624 19.7736 50.1994 19.9766 50.1994 20.2126C50.1994 20.6642 50.0535 21.0087 49.7612 21.247C49.4694 21.4852 49.0625 21.6044 48.5404 21.6044H47.8693V23.2072Z" fill="#2A5AA7"/>
<path d="M53.4056 22.7476C53.8156 22.7476 54.1374 22.6035 54.3721 22.3157C54.6054 22.0279 54.7228 21.6004 54.7228 21.0328C54.7228 20.7343 54.6907 20.4777 54.6269 20.2622C54.5622 20.0471 54.4702 19.8686 54.3502 19.7276C54.2297 19.5871 54.0838 19.4835 53.912 19.4175C53.7398 19.351 53.5461 19.3175 53.331 19.3175C53.1405 19.3175 52.962 19.3532 52.7969 19.4237C52.6309 19.4943 52.4881 19.5996 52.3681 19.7401C52.2476 19.8811 52.1521 20.0592 52.0821 20.2747C52.0116 20.4902 51.9768 20.7428 51.9768 21.0328C51.9768 21.3188 52.0107 21.5692 52.079 21.7847C52.1472 22.0002 52.2441 22.1791 52.3681 22.3219C52.4922 22.4647 52.6421 22.5714 52.8188 22.6419C52.9942 22.7124 53.1905 22.7476 53.4056 22.7476ZM53.3498 23.2697C53.0473 23.2697 52.7751 23.2175 52.5328 23.114C52.2905 23.0109 52.083 22.8623 51.9112 22.67C51.7394 22.4772 51.6073 22.2425 51.5167 21.9645C51.4257 21.687 51.3802 21.3768 51.3802 21.0328C51.3802 20.6848 51.4279 20.3728 51.523 20.0975C51.618 19.8222 51.7519 19.5884 51.9237 19.3956C52.0955 19.2029 52.3016 19.0547 52.5421 18.9512C52.7822 18.8477 53.0455 18.7955 53.331 18.7955C53.6541 18.7955 53.9388 18.8508 54.1855 18.9601C54.4319 19.0703 54.6389 19.2238 54.8067 19.4202C54.9745 19.6174 55.1016 19.8535 55.1886 20.1288C55.2761 20.4045 55.3194 20.7057 55.3194 21.0328C55.3194 21.4014 55.2699 21.7253 55.1703 22.0051C55.0708 22.2849 54.9343 22.5178 54.7598 22.7039C54.5863 22.8904 54.3788 23.0314 54.1387 23.1269C53.8982 23.2219 53.6354 23.2697 53.3498 23.2697Z" fill="#2A5AA7"/>
<path d="M59.7433 23.0893C59.6229 23.1473 59.4819 23.192 59.3208 23.2227C59.1588 23.254 58.983 23.2696 58.7925 23.2696C58.4529 23.2696 58.1499 23.2187 57.8822 23.1174C57.6153 23.0157 57.3887 22.8698 57.2021 22.6792C57.0156 22.4887 56.8724 22.2598 56.7733 21.9925C56.6738 21.7252 56.6243 21.424 56.6243 21.0885C56.6243 20.7199 56.6738 20.3928 56.7733 20.1068C56.8724 19.8212 57.0156 19.5812 57.2021 19.3862C57.3887 19.1912 57.6131 19.0444 57.8764 18.9449C58.1392 18.8454 58.4324 18.7958 58.7554 18.7958C59.004 18.7958 59.2057 18.8137 59.3609 18.8489C59.5167 18.8837 59.6461 18.9221 59.7496 18.9636L59.6438 19.4544C59.5073 19.4045 59.3685 19.3697 59.2275 19.3487C59.0865 19.3282 58.9477 19.3175 58.8112 19.3175C58.2936 19.3175 57.8987 19.4625 57.6274 19.753C57.3561 20.0426 57.2209 20.4696 57.2209 21.0327C57.2209 21.3018 57.2593 21.5432 57.3356 21.7569C57.4123 21.9698 57.5207 22.1505 57.6618 22.2973C57.8023 22.4441 57.9745 22.5561 58.1776 22.6328C58.3806 22.7091 58.6104 22.7475 58.867 22.7475C59.004 22.7475 59.1418 22.7355 59.2806 22.7105C59.4194 22.6855 59.5426 22.6458 59.6501 22.5922L59.7433 23.0893Z" fill="#2A5AA7"/>
<path d="M61.9736 21.5358H63.4711L62.7438 19.4917H62.7193L61.9736 21.5358ZM63.651 22.0454H61.7934L61.3712 23.2074H60.8054L62.4645 18.8577H63.024L64.6518 23.2074H64.0677L63.651 22.0454Z" fill="#2A5AA7"/>
<path d="M66.932 23.2074H66.3729V19.3797H65.0865V18.8581H68.218V19.3797H66.932V23.2074Z" fill="#2A5AA7"/>
<path d="M71.1758 22.7476C71.5859 22.7476 71.9076 22.6035 72.1423 22.3157C72.3761 22.0279 72.493 21.6004 72.493 21.0328C72.493 20.7343 72.4609 20.4777 72.3971 20.2622C72.3328 20.0471 72.2405 19.8686 72.1205 19.7276C72 19.5871 71.8541 19.4835 71.6823 19.4175C71.51 19.351 71.3168 19.3175 71.1013 19.3175C70.9108 19.3175 70.7327 19.3532 70.5672 19.4237C70.4012 19.4943 70.2584 19.5996 70.1384 19.7401C70.0183 19.8811 69.9224 20.0592 69.8523 20.2747C69.7818 20.4902 69.747 20.7428 69.747 21.0328C69.747 21.3188 69.7814 21.5692 69.8492 21.7847C69.9179 22.0002 70.0143 22.1791 70.1384 22.3219C70.2624 22.4647 70.4128 22.5714 70.589 22.6419C70.7644 22.7124 70.9607 22.7476 71.1758 22.7476ZM71.12 23.2697C70.8179 23.2697 70.5453 23.2175 70.303 23.114C70.0607 23.0109 69.8532 22.8623 69.6814 22.67C69.5096 22.4772 69.378 22.2425 69.287 21.9645C69.196 21.687 69.1504 21.3768 69.1504 21.0328C69.1504 20.6848 69.1982 20.3728 69.2932 20.0975C69.3883 19.8222 69.5226 19.5884 69.6939 19.3956C69.8662 19.2029 70.0719 19.0547 70.3124 18.9512C70.5524 18.8477 70.8157 18.7955 71.1013 18.7955C71.4248 18.7955 71.709 18.8508 71.9558 18.9601C72.2021 19.0703 72.4096 19.2238 72.5769 19.4202C72.7447 19.6174 72.8723 19.8535 72.9593 20.1288C73.0463 20.4045 73.0896 20.7057 73.0896 21.0328C73.0896 21.4014 73.0401 21.7253 72.9406 22.0051C72.8411 22.2849 72.7045 22.5178 72.5305 22.7039C72.3565 22.8904 72.1495 23.0314 71.9094 23.1269C71.6689 23.2219 71.4056 23.2697 71.12 23.2697Z" fill="#2A5AA7"/>
<path d="M78.8308 23.2074H78.2721L78.0044 19.8085L76.9045 23.2074H76.3208L75.2271 19.821L74.9536 23.2074H74.3945L74.7675 18.8581H75.4507L76.6251 22.5987L77.7746 18.8581H78.4577L78.8308 23.2074Z" fill="#2A5AA7"/>
<path d="M40.9764 30.8067H41.3481V0.806671H40.9764V30.8067Z" fill="#303132"/>
<path d="M8.33038 16.1739C8.33038 21.0948 12.0072 25.1486 16.7621 25.7613V21.6217C14.2972 21.0564 12.457 18.8552 12.457 16.2203C12.457 13.5854 14.2972 11.3842 16.7621 10.8189V6.58561C12.0072 7.19871 8.33038 11.2521 8.33038 16.1739Z" fill="url(#paint0_linear_3304_894)"/>
<path d="M19.2157 6.5799V10.8096C21.6988 11.3616 23.5569 13.5726 23.5569 16.2204C23.5569 18.8682 21.6988 21.0792 19.2157 21.6308V25.7676C23.9893 25.1719 27.6857 21.1083 27.6857 16.1735C27.6857 11.2388 23.9893 7.17516 19.2157 6.5799Z" fill="#3CB84A"/>
<path d="M0.22934 16.1739C0.22934 21.0948 3.90571 25.1486 8.66059 25.7613V21.6217C6.19569 21.0564 4.3555 18.8552 4.3555 16.2203C4.3555 13.5854 6.19569 11.3842 8.66059 10.8189V6.58561C3.90571 7.19871 0.22934 11.2521 0.22934 16.1739Z" fill="url(#paint1_linear_3304_894)"/>
<path d="M27.3174 6.5799V10.8096C29.8006 11.3616 31.6587 13.5726 31.6587 16.2204C31.6587 18.8682 29.8006 21.0792 27.3174 21.6308V25.7676C32.091 25.1719 35.7875 21.1083 35.7875 16.1735C35.7875 11.2388 32.091 7.17516 27.3174 6.5799Z" fill="#3CB84A"/>
<path d="M21.0095 16.2423C21.0095 17.8982 19.6673 19.2404 18.0114 19.2404C16.356 19.2404 15.0137 17.8982 15.0137 16.2423C15.0137 14.5864 16.356 13.2441 18.0114 13.2441C19.6673 13.2441 21.0095 14.5864 21.0095 16.2423Z" fill="#2C63AE"/>
<path d="M15.7719 14.1994C14.6591 15.4336 14.7541 17.3416 15.9857 18.4599C17.2168 19.5776 19.1172 19.4839 20.2328 18.2493C21.3461 17.0141 21.2515 15.107 20.0204 13.9892C19.4443 13.4663 18.7219 13.2083 18.0008 13.2083C17.1815 13.2083 16.3658 13.5417 15.7719 14.1994Z" fill="url(#paint2_radial_3304_894)"/>
<defs>
<linearGradient id="paint0_linear_3304_894" x1="2.6769" y1="-1.60472" x2="20.4831" y2="24.5111" gradientUnits="userSpaceOnUse">
<stop stop-color="#6EAAE0"/>
<stop offset="1" stop-color="#243D72"/>
</linearGradient>
<linearGradient id="paint1_linear_3304_894" x1="-2.85358" y1="2.16607" x2="14.9526" y2="28.2818" gradientUnits="userSpaceOnUse">
<stop stop-color="#6EAAE0"/>
<stop offset="1" stop-color="#243D72"/>
</linearGradient>
<radialGradient id="paint2_radial_3304_894" cx="0" cy="0" r="1" gradientUnits="userSpaceOnUse" gradientTransform="translate(17.0409 14.5436) rotate(0.0550921) scale(4.23213 4.24435)">
<stop stop-color="#6EA9E0"/>
<stop offset="1" stop-color="#233C70"/>
</radialGradient>
</defs>
</svg>
