<svg width="231" height="251" viewBox="0 0 231 251" fill="none" xmlns="http://www.w3.org/2000/svg">
<ellipse cx="152.344" cy="171.994" rx="78.656" ry="79.0056" transform="rotate(180 152.344 171.994)" fill="url(#paint0_linear_3211_201)"/>
<path d="M74.0376 171.994C74.0376 128.552 109.098 93.3385 152.344 93.3385C195.59 93.3385 230.65 128.552 230.65 171.994C230.65 215.436 195.59 250.65 152.344 250.65C109.098 250.65 74.0376 215.436 74.0376 171.994Z" stroke="#008ECF" stroke-opacity="0.2" stroke-width="0.699164"/>
<ellipse cx="112.251" cy="107.619" rx="78.656" ry="79.0056" transform="rotate(120 112.251 107.619)" fill="url(#paint1_linear_3211_201)"/>
<path d="M73.098 175.435C35.4762 153.714 22.5101 105.743 44.1331 68.2912C65.7561 30.8391 113.783 18.0829 151.404 39.8039C189.026 61.5249 201.992 109.495 180.369 146.947C158.746 184.399 110.72 197.156 73.098 175.435Z" stroke="#008ECF" stroke-opacity="0.2" stroke-width="0.699164"/>
<path d="M87.9591 60.342L84.1004 51.1802L91.5695 48.0344L95.4282 57.1962L93.9998 57.7978L90.6181 49.7686L86.0058 51.7112L89.3875 59.7404L87.9591 60.342Z" fill="#008ECF"/>
<path d="M97.4085 59.6202L94.9288 49.9015L96.2652 49.5605L96.5511 50.46L96.5776 50.4533C96.6973 50.1126 96.932 49.7897 97.2816 49.4844C97.6356 49.178 98.0751 48.9578 98.5999 48.8239C99.5526 48.5808 100.399 48.7147 101.141 49.2256C101.885 49.731 102.388 50.4975 102.65 51.5251L102.704 51.7368C102.967 52.7645 102.895 53.68 102.489 54.4835C102.083 55.287 101.409 55.8091 100.465 56.0499C99.9355 56.185 99.4571 56.2154 99.0294 56.1413C98.6007 56.0628 98.239 55.9061 97.9442 55.6713L98.8574 59.2505L97.4085 59.6202ZM97.5981 54.3151C97.8169 54.5834 98.1221 54.7944 98.5136 54.9482C98.9085 55.0964 99.3397 55.1109 99.8072 54.9916C100.5 54.8149 100.954 54.4689 101.17 53.9533C101.386 53.4378 101.406 52.8361 101.231 52.148L101.162 51.8768C100.986 51.1887 100.68 50.6702 100.243 50.3213C99.811 49.9712 99.2465 49.885 98.5496 50.0628C98.0777 50.1832 97.7061 50.4025 97.435 50.7207C97.1683 51.0377 97.0009 51.367 96.933 51.7084L97.5981 54.3151Z" fill="#008ECF"/>
<path d="M103.483 51.6398L103.458 51.4228C103.333 50.3329 103.568 49.4124 104.165 48.6613C104.765 47.9051 105.626 47.4627 106.748 47.3339C107.869 47.2052 108.808 47.4411 109.564 48.0415C110.32 48.6375 110.76 49.4804 110.885 50.5702L110.91 50.7873C111.035 51.8771 110.798 52.8001 110.197 53.5563C109.597 54.3125 108.736 54.755 107.614 54.8837C106.493 55.0124 105.554 54.7765 104.798 54.1761C104.046 53.5751 103.608 52.7297 103.483 51.6398ZM104.974 51.2212L105.006 51.4993C105.089 52.2229 105.342 52.7918 105.765 53.2059C106.189 53.6201 106.76 53.7859 107.479 53.7034C108.198 53.6209 108.716 53.33 109.035 52.8307C109.358 52.3308 109.478 51.7191 109.395 50.9956L109.363 50.7175C109.28 49.9939 109.024 49.4253 108.596 49.0117C108.173 48.5975 107.602 48.4317 106.883 48.5142C106.169 48.5962 105.65 48.8871 105.327 49.387C105.009 49.8863 104.891 50.4977 104.974 51.2212Z" fill="#008ECF"/>
<path d="M111.896 50.8102L111.9 50.5918C111.921 49.5041 112.268 48.6253 112.941 47.9554C113.614 47.2809 114.488 46.954 115.562 46.9747C116.636 46.9954 117.46 47.3322 118.035 47.9852C118.61 48.6337 118.887 49.5086 118.865 50.6099L118.854 51.1834L112.827 51.0672L112.847 49.9886L117.38 50.076L117.382 49.9736C117.392 49.4502 117.248 49.0172 116.95 48.6745C116.656 48.332 116.192 48.1546 115.56 48.1424C114.854 48.1288 114.32 48.353 113.956 48.8149C113.592 49.2722 113.403 49.865 113.389 50.5932L113.383 50.8731C113.369 51.5967 113.545 52.1964 113.909 52.6724C114.277 53.1439 114.853 53.3872 115.636 53.4022C116.118 53.4115 116.534 53.3217 116.884 53.1326C117.238 52.9392 117.527 52.708 117.751 52.4391L118.733 53.2093C118.485 53.5687 118.092 53.8912 117.554 54.1767C117.016 54.4577 116.371 54.591 115.62 54.5765C114.41 54.5532 113.481 54.1938 112.834 53.4985C112.188 52.7986 111.875 51.9025 111.896 50.8102Z" fill="#008ECF"/>
<path d="M124.653 55.3263L122.088 51.6387L123.206 50.8522L126.517 55.6032L124.653 55.3263ZM121.029 50.4943L122.36 50.692L125.473 48.1796L127.195 48.4355L122.799 51.9169L120.861 51.6289L121.029 50.4943ZM122.198 47.6928L121.141 54.8044L119.662 54.5846L120.719 47.4731L122.198 47.6928Z" fill="#008ECF"/>
<path d="M127.464 49.7092L127.763 48.6019L134.025 50.2942L133.726 51.4015L131.313 50.7495L129.737 56.5829L128.293 56.1927L129.87 50.3594L127.464 49.7092Z" fill="#008ECF"/>
<path d="M136.458 51.1486L135.515 53.3443L137.271 54.0989C138.116 54.4618 138.679 54.9339 138.959 55.5151C139.245 56.0939 139.24 56.7305 138.941 57.4247C138.65 58.1022 138.193 58.5426 137.571 58.7459C136.953 58.951 136.221 58.872 135.377 58.5091L132.246 57.1642L135.084 50.5584L136.458 51.1486ZM136.744 55.0837L135.075 54.3668L134.059 56.7319L135.728 57.4488C136.213 57.6572 136.603 57.6958 136.897 57.5646C137.191 57.4333 137.416 57.1879 137.57 56.8282C137.723 56.4727 137.745 56.1452 137.635 55.8457C137.526 55.5461 137.229 55.2922 136.744 55.0837ZM138.865 60.0075L141.703 53.4017L143.076 53.9919L140.238 60.5978L138.865 60.0075Z" fill="#008ECF"/>
<ellipse cx="79.344" cy="171.893" rx="78.656" ry="79.0056" transform="rotate(180 79.344 171.893)" fill="url(#paint2_linear_3211_201)"/>
<path d="M1.03762 171.893C1.03762 128.451 36.098 93.2369 79.344 93.2369C122.59 93.2369 157.65 128.451 157.65 171.893C157.65 215.335 122.59 250.549 79.344 250.549C36.0981 250.549 1.03763 215.335 1.03762 171.893Z" stroke="#008ECF" stroke-opacity="0.2" stroke-width="0.699164"/>
<path d="M23.8322 183.26L24.3606 183.121C25.893 182.72 27.1725 182.818 28.1993 183.415C29.2261 184.012 29.9027 184.933 30.2291 186.179C30.5427 187.377 30.489 188.403 30.0679 189.256C29.6524 190.113 28.9627 190.687 27.9988 190.977L27.9063 191.001L27.5137 189.502L27.611 189.469C28.235 189.282 28.6733 188.935 28.9259 188.426C29.183 187.917 29.2089 187.27 29.0037 186.486C28.7915 185.676 28.3333 185.085 27.6292 184.714C26.9263 184.348 25.9892 184.318 24.8179 184.625L24.1706 184.794C23.0345 185.092 22.2411 185.575 21.7904 186.243C21.3397 186.912 21.2215 187.656 21.436 188.475C21.6447 189.272 21.9936 189.813 22.4826 190.099C22.9771 190.389 23.5197 190.484 24.1104 190.386L24.2112 190.367L24.6038 191.866L24.503 191.885C23.5487 192.051 22.6747 191.884 21.8808 191.386C21.0914 190.887 20.5364 190.026 20.2158 188.801C19.8895 187.555 20.0231 186.422 20.6168 185.4C21.2148 184.378 22.2866 183.664 23.8322 183.26Z" fill="#008ECF"/>
<path d="M25.4233 193.257L25.6247 193.173C26.6275 192.751 27.5715 192.712 28.4568 193.055C29.3463 193.397 29.9993 194.063 30.4158 195.053C30.8323 196.044 30.8586 196.934 30.4947 197.724C30.135 198.512 29.4474 199.12 28.432 199.547L27.9034 199.769L25.5657 194.212L26.5601 193.794L28.318 197.973L28.4124 197.933C28.8949 197.73 29.2323 197.423 29.4245 197.011C29.6185 196.604 29.5928 196.108 29.3475 195.525C29.074 194.875 28.6523 194.477 28.0824 194.331C27.5168 194.184 26.8983 194.252 26.227 194.534L25.969 194.643C25.3018 194.923 24.8246 195.326 24.5371 195.852C24.2556 196.38 24.2667 197.005 24.5703 197.727C24.7573 198.172 25.0082 198.516 25.3227 198.759C25.6432 199.004 25.9717 199.175 26.3082 199.27L26.0024 200.48C25.5732 200.399 25.119 200.17 24.6398 199.794C24.1647 199.416 23.7816 198.881 23.4904 198.189C23.0209 197.073 22.9729 196.078 23.3464 195.205C23.724 194.33 24.4163 193.681 25.4233 193.257Z" fill="#008ECF"/>
<path d="M23.5417 204.47L32.182 199.377L32.8825 200.565L32.0985 201.091L32.1124 201.114C32.4729 201.134 32.8485 201.269 33.2392 201.52C33.6323 201.774 33.9663 202.135 34.2414 202.601C34.7407 203.448 34.8485 204.299 34.5648 205.153C34.2872 206.009 33.6917 206.706 32.778 207.245L32.5898 207.356C31.6762 207.894 30.777 208.081 29.8922 207.916C29.0074 207.75 28.3177 207.248 27.823 206.409C27.5456 205.938 27.3828 205.487 27.3347 205.056C27.2904 204.622 27.3399 204.231 27.4831 203.883L24.301 205.759L23.5417 204.47ZM28.6889 203.172C28.4923 203.457 28.3748 203.809 28.3364 204.228C28.3043 204.648 28.4107 205.066 28.6557 205.482C29.0187 206.098 29.4778 206.437 30.0331 206.501C30.5885 206.565 31.172 206.416 31.7837 206.055L32.0249 205.913C32.6366 205.553 33.049 205.114 33.2622 204.597C33.4778 204.084 33.4029 203.518 33.0377 202.899C32.7903 202.479 32.4761 202.184 32.0949 202.012C31.716 201.844 31.3531 201.776 31.0063 201.806L28.6889 203.172Z" fill="#008ECF"/>
<path d="M30.9224 210.922L36.5668 206.469L38.8209 209.326C39.3454 209.99 39.6206 210.597 39.6468 211.144C39.6765 211.689 39.443 212.157 38.9463 212.549C38.6247 212.803 38.2852 212.92 37.9277 212.901C37.5731 212.885 37.231 212.749 36.9014 212.493L36.8854 212.505C37.1143 212.928 37.2053 213.337 37.1586 213.733C37.1182 214.131 36.9211 214.469 36.5674 214.748C36.0564 215.151 35.5141 215.283 34.9406 215.144C34.3708 215.002 33.8292 214.606 33.3161 213.956L30.9224 210.922ZM35.1356 209.494L36.4128 211.113C36.6722 211.441 36.9276 211.626 37.179 211.665C37.4339 211.701 37.6829 211.624 37.9259 211.432C38.1582 211.249 38.2791 211.035 38.2885 210.789C38.298 210.544 38.1731 210.257 37.9137 209.929L36.6365 208.31L35.1356 209.494ZM32.6967 211.418L34.1007 213.198C34.3658 213.534 34.6336 213.722 34.9041 213.764C35.1783 213.803 35.4368 213.726 35.6798 213.535C35.9193 213.346 36.0484 213.116 36.0673 212.846C36.0926 212.577 35.9713 212.273 35.7035 211.933L34.2994 210.154L32.6967 211.418Z" fill="#008ECF"/>
<path d="M36.6093 217.769L41.6118 212.605L42.6809 213.64L39.6831 216.735C39.5881 216.833 39.4756 216.942 39.3455 217.064C39.2187 217.188 39.1078 217.296 39.0127 217.388L39.0568 217.43C39.1849 217.39 39.3227 217.349 39.4701 217.308C39.6207 217.264 39.781 217.222 39.951 217.184L45.2113 216.092L46.2902 217.137L41.2877 222.301L40.2186 221.265L43.2211 218.166C43.3161 218.068 43.427 217.956 43.5538 217.832C43.687 217.708 43.8044 217.6 43.9059 217.508L43.852 217.456C43.7271 217.499 43.5878 217.545 43.4341 217.593C43.2803 217.64 43.12 217.681 42.9532 217.716L37.6832 218.809L36.6093 217.769Z" fill="#008ECF"/>
<path d="M44.3118 220.315L44.4419 220.14C45.0952 219.258 45.887 218.741 46.8175 218.586C47.7507 218.428 48.6725 218.686 49.583 219.361C50.4314 219.99 50.9205 220.676 51.0503 221.418C51.1837 222.163 51.0594 222.804 50.6773 223.343L50.6448 223.386L49.4545 222.504L49.483 222.466C49.7134 222.155 49.7957 221.811 49.7298 221.433C49.6667 221.052 49.3847 220.676 48.8837 220.305C48.295 219.868 47.722 219.735 47.1649 219.906C46.6105 220.073 46.1178 220.447 45.6868 221.029L45.5201 221.253C45.0891 221.835 44.873 222.417 44.8717 223C44.8731 223.579 45.1682 224.086 45.7569 224.523C46.2652 224.899 46.709 225.061 47.0884 225.008C47.4677 224.955 47.7726 224.773 48.003 224.462L48.0274 224.429L49.2176 225.312L49.1892 225.35C48.7988 225.877 48.2247 226.185 47.4669 226.275C46.7127 226.367 45.9096 226.098 45.0576 225.466C44.1507 224.794 43.6355 223.987 43.5118 223.045C43.3919 222.107 43.6585 221.196 44.3118 220.315Z" fill="#008ECF"/>
<path d="M54.1533 222.781L53.023 224.886L54.7074 225.791C55.5175 226.226 56.037 226.745 56.2659 227.348C56.501 227.95 56.4398 228.583 56.0824 229.249C55.7336 229.899 55.2404 230.298 54.6027 230.446C53.9691 230.597 53.2472 230.455 52.4371 230.02L49.4352 228.408L52.8359 222.074L54.1533 222.781ZM54.0968 226.726L52.4966 225.867L51.2791 228.135L52.8793 228.994C53.3445 229.244 53.7293 229.316 54.0338 229.211C54.3382 229.106 54.5831 228.881 54.7682 228.536C54.9512 228.195 55.0014 227.87 54.9187 227.563C54.836 227.255 54.562 226.976 54.0968 226.726ZM55.7818 231.815L59.1825 225.481L60.4999 226.188L57.0993 232.523L55.7818 231.815Z" fill="#008ECF"/>
<path fill-rule="evenodd" clip-rule="evenodd" d="M115.999 101.451C140.948 114.698 157.949 141.027 157.949 171.344C157.949 172.707 157.915 174.062 157.847 175.408C133.933 190.245 102.758 191.741 76.5938 176.635C75.7637 176.156 74.9456 175.664 74.1396 175.16C74.0797 173.895 74.0495 172.623 74.0495 171.344C74.0495 141.027 91.0507 114.698 115.999 101.451Z" fill="#008ECF"/>
<path d="M88.4942 140.277V130.336H96.5987V140.277H95.0488V131.565H90.0441V140.277H88.4942ZM98.159 136.788V136.57C98.159 135.473 98.4981 134.585 99.1763 133.907C99.8591 133.224 100.765 132.883 101.894 132.883C103.023 132.883 103.928 133.224 104.611 133.907C105.294 134.585 105.635 135.473 105.635 136.57V136.788C105.635 137.885 105.294 138.775 104.611 139.458C103.928 140.141 103.023 140.482 101.894 140.482C100.765 140.482 99.8591 140.141 99.1763 139.458C98.4981 138.775 98.159 137.885 98.159 136.788ZM99.6884 136.543V136.822C99.6884 137.551 99.8751 138.145 100.248 138.605C100.622 139.064 101.17 139.294 101.894 139.294C102.618 139.294 103.166 139.064 103.539 138.605C103.917 138.145 104.106 137.551 104.106 136.822V136.543C104.106 135.814 103.917 135.22 103.539 134.761C103.166 134.301 102.618 134.071 101.894 134.071C101.175 134.071 100.626 134.301 100.248 134.761C99.8751 135.22 99.6884 135.814 99.6884 136.543ZM109.067 134.235L108.95 136.945C108.896 138.193 108.73 139.085 108.452 139.622C108.179 140.159 107.674 140.428 106.936 140.428C106.777 140.428 106.629 140.416 106.492 140.393C106.356 140.375 106.242 140.346 106.151 140.305V139.082C106.228 139.114 106.308 139.137 106.39 139.151C106.472 139.164 106.563 139.171 106.663 139.171C107.014 139.171 107.246 138.998 107.36 138.652C107.478 138.306 107.558 137.674 107.599 136.754L107.756 133.088H113.286V140.277H111.791V134.235H109.067ZM115.119 133.088H116.615V136.03H119.995V133.088H121.497V140.277H119.995V137.178H116.615V140.277H115.119V133.088ZM124.805 133.088V135.477H126.717C127.636 135.477 128.339 135.689 128.826 136.112C129.318 136.531 129.564 137.118 129.564 137.874C129.564 138.611 129.318 139.196 128.826 139.629C128.339 140.061 127.636 140.277 126.717 140.277H123.31V133.088H124.805ZM126.621 136.59H124.805V139.164H126.621C127.149 139.164 127.522 139.046 127.741 138.809C127.959 138.573 128.068 138.259 128.068 137.867C128.068 137.48 127.959 137.171 127.741 136.939C127.522 136.706 127.149 136.59 126.621 136.59ZM130.513 140.277V133.088H132.008V140.277H130.513ZM133.821 140.277V133.088H135.309V137.396C135.309 137.533 135.305 137.69 135.296 137.867C135.291 138.045 135.287 138.199 135.282 138.331H135.344C135.407 138.213 135.478 138.088 135.555 137.956C135.633 137.819 135.719 137.678 135.815 137.533L138.833 133.088H140.335V140.277H138.846V135.962C138.846 135.826 138.849 135.669 138.853 135.491C138.862 135.309 138.871 135.15 138.88 135.013H138.805C138.746 135.131 138.678 135.261 138.6 135.402C138.523 135.543 138.437 135.685 138.341 135.826L135.316 140.277H133.821ZM137.078 130.903C137.406 130.903 137.674 130.812 137.884 130.63C138.093 130.443 138.264 130.14 138.396 129.722L139.454 130.316C139.235 130.894 138.915 131.312 138.491 131.572C138.072 131.827 137.601 131.954 137.078 131.954C136.545 131.954 136.072 131.829 135.658 131.579C135.243 131.324 134.923 130.903 134.695 130.316L135.774 129.708C135.91 130.145 136.081 130.454 136.286 130.637C136.491 130.814 136.755 130.903 137.078 130.903ZM91.5325 152.788V152.57C91.5325 151.473 91.8602 150.585 92.5157 149.907C93.1712 149.224 94.0656 148.883 95.199 148.883C96.2551 148.883 97.0562 149.142 97.6024 149.661C98.1532 150.18 98.4354 150.77 98.449 151.43V151.484H96.9674V151.436C96.9674 151.05 96.8286 150.724 96.5509 150.46C96.2733 150.192 95.8226 150.057 95.199 150.057C94.4662 150.057 93.9268 150.292 93.5808 150.761C93.2349 151.225 93.0619 151.819 93.0619 152.543V152.822C93.0619 153.546 93.2349 154.143 93.5808 154.611C93.9268 155.076 94.4662 155.308 95.199 155.308C95.8317 155.308 96.2846 155.174 96.5578 154.905C96.8309 154.636 96.9674 154.309 96.9674 153.922V153.881H98.449V153.929C98.449 154.584 98.1714 155.174 97.6161 155.697C97.0653 156.22 96.2596 156.482 95.199 156.482C94.0702 156.482 93.1757 156.141 92.5157 155.458C91.8602 154.775 91.5325 153.885 91.5325 152.788ZM99.6475 149.088H105.984V156.277H104.482V150.235H101.143V156.277H99.6475V149.088ZM107.38 152.788V152.57C107.38 151.482 107.71 150.597 108.37 149.914C109.03 149.227 109.897 148.883 110.971 148.883C112.046 148.883 112.876 149.204 113.464 149.846C114.051 150.483 114.344 151.352 114.344 152.454V153.027H108.315V151.949H112.849V151.846C112.849 151.323 112.697 150.893 112.392 150.556C112.091 150.219 111.625 150.05 110.992 150.05C110.286 150.05 109.756 150.285 109.401 150.754C109.046 151.218 108.869 151.814 108.869 152.543V152.822C108.869 153.546 109.055 154.143 109.428 154.611C109.806 155.076 110.387 155.308 111.169 155.308C111.652 155.308 112.066 155.21 112.412 155.014C112.763 154.814 113.047 154.577 113.266 154.304L114.262 155.055C114.021 155.419 113.634 155.749 113.102 156.045C112.569 156.337 111.927 156.482 111.176 156.482C109.966 156.482 109.03 156.141 108.37 155.458C107.71 154.771 107.38 153.881 107.38 152.788ZM120.691 156.277L117.612 153.007L118.602 152.065L122.575 156.277H120.691ZM116.396 152.03H117.741L120.452 149.088H122.193L118.356 153.178H116.396V152.03ZM117.14 149.088V156.277H115.645V149.088H117.14ZM122.518 150.235V149.088H129.004V150.235H126.505V156.277H125.01V150.235H122.518ZM130.045 159.118V149.088H131.424L131.479 150.03H131.506C131.707 149.73 132.014 149.475 132.428 149.265C132.847 149.056 133.327 148.951 133.869 148.951C134.852 148.951 135.639 149.29 136.231 149.968C136.828 150.642 137.126 151.509 137.126 152.57V152.788C137.126 153.849 136.83 154.718 136.238 155.397C135.646 156.075 134.863 156.414 133.889 156.414C133.343 156.414 132.872 156.325 132.476 156.148C132.08 155.966 131.768 155.724 131.541 155.424V159.118H130.045ZM131.541 154.024C131.686 154.338 131.93 154.618 132.271 154.864C132.617 155.105 133.031 155.226 133.514 155.226C134.228 155.226 134.754 155.003 135.091 154.557C135.428 154.111 135.596 153.533 135.596 152.822V152.543C135.596 151.832 135.428 151.254 135.091 150.808C134.759 150.362 134.233 150.139 133.514 150.139C133.027 150.139 132.613 150.26 132.271 150.501C131.934 150.742 131.691 151.02 131.541 151.334V154.024ZM98.4116 175.118L98.4185 173.916C98.5459 173.952 98.687 173.982 98.8418 174.005C99.0011 174.028 99.1513 174.039 99.2924 174.039C99.6475 174.039 99.9479 173.934 100.194 173.725C100.439 173.52 100.701 173.024 100.979 172.236L100.938 172.23L98.0293 165.088H99.5314L101.307 169.69C101.379 169.867 101.441 170.04 101.491 170.209C101.546 170.372 101.591 170.534 101.628 170.693H101.668C101.714 170.534 101.762 170.372 101.812 170.209C101.866 170.045 101.926 169.872 101.989 169.69L103.69 165.088H105.11L101.935 173.206C101.68 173.857 101.343 174.36 100.924 174.715C100.505 175.074 99.9934 175.254 99.388 175.254C99.1877 175.254 99.0079 175.243 98.8486 175.22C98.6938 175.197 98.5482 175.163 98.4116 175.118ZM105.502 168.788V168.57C105.502 167.473 105.83 166.585 106.486 165.907C107.141 165.224 108.036 164.883 109.169 164.883C110.225 164.883 111.026 165.142 111.572 165.661C112.123 166.18 112.405 166.77 112.419 167.43V167.484H110.937V167.436C110.937 167.05 110.798 166.724 110.521 166.46C110.243 166.192 109.793 166.057 109.169 166.057C108.436 166.057 107.897 166.292 107.551 166.761C107.205 167.225 107.032 167.819 107.032 168.543V168.822C107.032 169.546 107.205 170.143 107.551 170.611C107.897 171.076 108.436 171.308 109.169 171.308C109.802 171.308 110.255 171.174 110.528 170.905C110.801 170.636 110.937 170.309 110.937 169.922V169.881H112.419V169.929C112.419 170.584 112.141 171.174 111.586 171.697C111.035 172.22 110.23 172.482 109.169 172.482C108.04 172.482 107.146 172.141 106.486 171.458C105.83 170.775 105.502 169.885 105.502 168.788ZM115.645 166.235L115.529 168.945C115.475 170.193 115.308 171.085 115.031 171.622C114.758 172.159 114.252 172.428 113.515 172.428C113.356 172.428 113.208 172.416 113.071 172.393C112.935 172.375 112.821 172.346 112.73 172.305V171.082C112.807 171.114 112.887 171.137 112.969 171.151C113.051 171.164 113.142 171.171 113.242 171.171C113.592 171.171 113.824 170.998 113.938 170.652C114.057 170.306 114.136 169.674 114.177 168.754L114.334 165.088H119.865V172.277H118.369V166.235H115.645ZM121.152 175.118L121.159 173.916C121.286 173.952 121.427 173.982 121.582 174.005C121.741 174.028 121.892 174.039 122.033 174.039C122.388 174.039 122.688 173.934 122.934 173.725C123.18 173.52 123.442 173.024 123.719 172.236L123.678 172.23L120.77 165.088H122.272L124.047 169.69C124.12 169.867 124.181 170.04 124.231 170.209C124.286 170.372 124.331 170.534 124.368 170.693H124.409C124.454 170.534 124.502 170.372 124.552 170.209C124.607 170.045 124.666 169.872 124.73 169.69L126.43 165.088H127.85L124.675 173.206C124.42 173.857 124.083 174.36 123.665 174.715C123.246 175.074 122.734 175.254 122.128 175.254C121.928 175.254 121.748 175.243 121.589 175.22C121.434 175.197 121.289 175.163 121.152 175.118ZM128.659 165.088H133.807V166.235H130.155V172.277H128.659V165.088Z" fill="white"/>
<path d="M176.825 235.368L175.359 235.827L173.272 229.154C173.23 229.019 173.182 228.867 173.129 228.698C173.08 228.527 173.039 228.373 173.006 228.235L172.954 228.252C172.927 228.394 172.897 228.541 172.863 228.695C172.829 228.844 172.789 229.004 172.742 229.176L170.471 237.355L168.888 237.85L165.92 228.362L167.393 227.902L169.48 234.575C169.522 234.709 169.568 234.862 169.616 235.033C169.665 235.204 169.708 235.357 169.746 235.493L169.805 235.475C169.823 235.35 169.85 235.208 169.886 235.049C169.921 234.885 169.96 234.72 170.003 234.554L172.274 226.375L173.857 225.88L176.825 235.368Z" fill="#008ECF"/>
<path d="M176.312 227.754L177.655 227.097L178.947 229.741L181.984 228.257L180.692 225.613L182.041 224.953L185.198 231.413L183.849 232.072L182.487 229.287L179.451 230.772L180.812 233.557L179.469 234.213L176.312 227.754Z" fill="#008ECF"/>
<path d="M186.319 226.736C186.74 227.335 187.24 227.705 187.816 227.845C188.39 227.981 189.076 227.797 189.873 227.292L186.87 223.019C186.125 223.598 185.721 224.183 185.657 224.773C185.591 225.359 185.769 225.954 186.193 226.557L186.319 226.736ZM191.657 222.717C191.233 222.114 190.734 221.744 190.159 221.608C189.586 221.466 188.9 221.648 188.099 222.155L191.102 226.429C191.851 225.847 192.256 225.264 192.319 224.681C192.383 224.091 192.204 223.496 191.782 222.896L191.657 222.717ZM190.556 228.264C189.421 229.001 188.382 229.303 187.438 229.171C186.494 229.039 185.704 228.52 185.068 227.615L184.942 227.436C184.306 226.531 184.086 225.612 184.281 224.679C184.474 223.743 185.109 222.865 186.187 222.047L184.412 219.522L185.641 218.658L187.416 221.183C188.558 220.442 189.601 220.14 190.544 220.278C191.484 220.413 192.272 220.933 192.908 221.838L193.034 222.017C193.67 222.922 193.892 223.839 193.7 224.77C193.508 225.7 192.87 226.577 191.785 227.401L193.301 229.557L192.072 230.421L190.556 228.264Z" fill="#008ECF"/>
<path d="M199.288 224.847L192.281 217.67L193.268 216.707L193.965 217.343L193.984 217.324C193.918 216.969 193.96 216.572 194.11 216.133C194.263 215.69 194.533 215.28 194.921 214.901C195.624 214.214 196.425 213.907 197.322 213.979C198.219 214.044 199.038 214.456 199.779 215.215L199.932 215.372C200.673 216.13 201.069 216.959 201.119 217.858C201.17 218.757 200.846 219.546 200.149 220.227C199.758 220.608 199.359 220.874 198.952 221.023C198.541 221.17 198.15 221.215 197.777 221.159L200.358 223.802L199.288 224.847ZM196.799 220.158C197.123 220.281 197.493 220.311 197.909 220.248C198.325 220.179 198.705 219.976 199.051 219.639C199.562 219.14 199.782 218.613 199.712 218.058C199.641 217.504 199.358 216.973 198.862 216.464L198.666 216.264C198.17 215.756 197.646 215.46 197.093 215.376C196.544 215.289 196.012 215.497 195.497 215.999C195.148 216.34 194.936 216.715 194.861 217.126C194.788 217.534 194.808 217.903 194.92 218.233L196.799 220.158Z" fill="#008ECF"/>
<path d="M201.901 215.151C201.308 214.689 201.042 214.095 201.1 213.368C201.159 212.634 201.501 211.865 202.128 211.061L203.219 209.66L202.847 209.371C202.506 209.105 202.168 208.998 201.834 209.049C201.496 209.097 201.152 209.346 200.803 209.795C200.459 210.236 200.283 210.622 200.275 210.95C200.27 211.275 200.386 211.53 200.623 211.715L200.666 211.748L199.755 212.917L199.718 212.887C199.215 212.496 198.978 211.956 199.006 211.268C199.033 210.574 199.347 209.841 199.949 209.069C200.542 208.308 201.166 207.847 201.821 207.688C202.475 207.523 203.123 207.69 203.766 208.191L206.362 210.214C206.595 210.396 206.832 210.548 207.071 210.671C207.306 210.791 207.528 210.877 207.735 210.929L207.821 210.996L206.928 212.143C206.802 212.126 206.653 212.085 206.479 212.019C206.302 211.95 206.139 211.866 205.991 211.768C206.114 212.083 206.132 212.479 206.045 212.953C205.958 213.428 205.713 213.924 205.311 214.441C204.827 215.062 204.283 215.449 203.679 215.602C203.072 215.752 202.479 215.601 201.901 215.151ZM202.744 213.913C203.057 214.156 203.374 214.245 203.697 214.179C204.016 214.11 204.342 213.862 204.675 213.435C205.011 213.004 205.18 212.524 205.182 211.995C205.184 211.46 205.034 211.074 204.732 210.839L203.994 210.264L203.016 211.519C202.605 212.047 202.38 212.518 202.34 212.932C202.297 213.342 202.432 213.669 202.744 213.913Z" fill="#008ECF"/>
<path d="M205.418 208.381L205.23 208.27C204.286 207.711 203.689 206.977 203.439 206.068C203.185 205.156 203.347 204.212 203.924 203.237C204.461 202.328 205.093 201.77 205.817 201.564C206.544 201.355 207.195 201.412 207.77 201.736L207.818 201.764L207.063 203.039L207.022 203.015C206.689 202.818 206.338 202.772 205.97 202.876C205.597 202.978 205.252 203.298 204.935 203.835C204.561 204.465 204.489 205.049 204.716 205.585C204.939 206.12 205.363 206.571 205.986 206.939L206.227 207.082C206.849 207.45 207.451 207.605 208.03 207.546C208.606 207.485 209.081 207.139 209.454 206.508C209.776 205.963 209.891 205.505 209.799 205.133C209.707 204.762 209.494 204.477 209.161 204.28L209.126 204.259L209.88 202.984L209.921 203.008C210.485 203.342 210.851 203.881 211.019 204.626C211.189 205.366 211.004 206.193 210.464 207.106C209.89 208.077 209.14 208.673 208.217 208.894C207.295 209.11 206.363 208.939 205.418 208.381Z" fill="#008ECF"/>
<path d="M207.224 200.244L206.174 199.781L208.791 193.846L209.841 194.309L208.832 196.595L214.361 199.033L213.758 200.401L208.229 197.964L207.224 200.244Z" fill="#008ECF"/>
<path d="M218.799 195.61L209.189 192.739L209.584 191.417L210.502 191.635L210.51 191.608C210.279 191.33 210.123 190.963 210.041 190.506C209.96 190.045 209.997 189.555 210.153 189.036C210.434 188.094 210.984 187.437 211.804 187.064C212.62 186.685 213.536 186.648 214.552 186.952L214.762 187.014C215.778 187.318 216.526 187.85 217.007 188.611C217.487 189.373 217.588 190.22 217.309 191.153C217.152 191.676 216.932 192.102 216.649 192.431C216.361 192.758 216.041 192.988 215.688 193.12L219.227 194.178L218.799 195.61ZM214.347 192.719C214.689 192.67 215.027 192.516 215.36 192.26C215.691 191.997 215.925 191.635 216.063 191.173C216.268 190.488 216.204 189.92 215.873 189.47C215.542 189.019 215.037 188.693 214.356 188.489L214.088 188.409C213.408 188.206 212.806 188.202 212.282 188.397C211.759 188.587 211.395 189.027 211.189 189.716C211.05 190.183 211.047 190.614 211.18 191.011C211.315 191.402 211.511 191.715 211.769 191.949L214.347 192.719Z" fill="#008ECF"/>
<path d="M221.237 186.65L220.052 186.448C220.109 186.328 220.161 186.193 220.209 186.044C220.257 185.891 220.293 185.745 220.316 185.605C220.374 185.255 220.319 184.942 220.153 184.665C219.991 184.389 219.544 184.05 218.812 183.648L218.799 183.687L211.279 185.393L211.523 183.911L216.353 182.91C216.54 182.867 216.721 182.834 216.895 182.812C217.066 182.785 217.232 182.766 217.396 182.756L217.402 182.716C217.252 182.645 217.101 182.572 216.947 182.496C216.794 182.415 216.633 182.328 216.464 182.236L212.201 179.809L212.432 178.408L219.925 182.863C220.525 183.22 220.967 183.634 221.249 184.105C221.535 184.577 221.629 185.112 221.531 185.709C221.498 185.907 221.458 186.082 221.409 186.236C221.361 186.385 221.304 186.523 221.237 186.65Z" fill="#008ECF"/>
<path d="M219.795 173.446L216.387 176.372L215.491 175.339L219.882 171.563L219.795 173.446ZM215.356 177.541L215.417 176.197L212.602 173.354L212.682 171.615L216.591 175.636L216.501 177.594L215.356 177.541ZM212.45 176.662L219.632 176.992L219.563 178.486L212.381 178.156L212.45 176.662Z" fill="#008ECF"/>
<path d="M213.789 171.486L212.645 171.567L212.186 165.097L213.331 165.016L213.507 167.509L219.535 167.082L219.64 168.573L213.613 169L213.789 171.486Z" fill="#008ECF"/>
<path d="M221.916 162.513L220.733 162.721C220.746 162.589 220.749 162.445 220.744 162.289C220.738 162.128 220.722 161.978 220.697 161.839C220.634 161.49 220.477 161.213 220.227 161.009C219.982 160.804 219.447 160.635 218.622 160.502L218.623 160.544L212.116 164.683L211.848 163.205L216.058 160.635C216.22 160.532 216.379 160.441 216.535 160.361C216.687 160.278 216.838 160.205 216.988 160.14L216.981 160.1C216.816 160.084 216.648 160.065 216.478 160.046C216.307 160.021 216.126 159.994 215.936 159.964L211.104 159.114L210.85 157.716L219.405 159.389C220.091 159.523 220.646 159.765 221.07 160.113C221.499 160.461 221.768 160.933 221.876 161.528C221.912 161.725 221.933 161.904 221.939 162.065C221.944 162.221 221.936 162.371 221.916 162.513Z" fill="#008ECF"/>
<path d="M220.261 154.359L210.69 157.358L210.277 156.042L211.16 155.708L211.152 155.682C210.805 155.581 210.47 155.364 210.147 155.031C209.822 154.694 209.578 154.267 209.416 153.75C209.122 152.812 209.211 151.959 209.681 151.192C210.145 150.421 210.884 149.877 211.896 149.56L212.104 149.495C213.116 149.178 214.034 149.2 214.859 149.562C215.683 149.924 216.24 150.57 216.532 151.5C216.695 152.021 216.751 152.497 216.7 152.928C216.645 153.36 216.508 153.73 216.289 154.037L219.814 152.933L220.261 154.359ZM214.953 154.455C215.21 154.222 215.404 153.906 215.536 153.507C215.663 153.105 215.654 152.673 215.51 152.213C215.297 151.531 214.927 151.096 214.4 150.908C213.874 150.72 213.272 150.732 212.594 150.944L212.327 151.028C211.649 151.24 211.148 151.574 210.823 152.029C210.497 152.479 210.441 153.047 210.656 153.734C210.802 154.199 211.041 154.558 211.373 154.811C211.704 155.061 212.042 155.21 212.386 155.26L214.953 154.455Z" fill="#008ECF"/>
<path d="M212.818 147.728C212.137 148.045 211.486 148.012 210.866 147.628C210.239 147.242 209.71 146.587 209.28 145.663L208.53 144.054L208.103 144.252C207.711 144.435 207.462 144.687 207.355 145.007C207.245 145.33 207.309 145.75 207.549 146.265C207.786 146.773 208.048 147.105 208.337 147.262C208.624 147.414 208.904 147.427 209.176 147.3L209.226 147.277L209.851 148.62L209.808 148.64C209.23 148.91 208.642 148.875 208.042 148.536C207.437 148.196 206.927 147.582 206.514 146.695C206.107 145.82 205.981 145.055 206.138 144.399C206.289 143.742 206.733 143.241 207.472 142.897L210.455 141.508C210.724 141.383 210.967 141.242 211.185 141.085C211.399 140.93 211.577 140.772 211.717 140.611L211.816 140.565L212.43 141.883C212.358 141.987 212.253 142.101 212.115 142.226C211.973 142.352 211.825 142.459 211.67 142.546C212.007 142.58 212.367 142.744 212.75 143.038C213.132 143.331 213.462 143.775 213.739 144.369C214.071 145.083 214.168 145.744 214.029 146.351C213.886 146.96 213.482 147.419 212.818 147.728ZM212.1 146.413C212.459 146.246 212.682 146.004 212.771 145.687C212.855 145.371 212.783 144.968 212.554 144.477C212.323 143.982 211.973 143.613 211.503 143.369C211.027 143.124 210.616 143.082 210.27 143.244L209.422 143.638L210.093 145.081C210.376 145.687 210.692 146.102 211.042 146.326C211.388 146.551 211.741 146.58 212.1 146.413Z" fill="#008ECF"/>
<defs>
<linearGradient id="paint0_linear_3211_201" x1="73.688" y1="133.459" x2="212.243" y2="218.602" gradientUnits="userSpaceOnUse">
<stop stop-color="#008ECF" stop-opacity="0.2"/>
<stop offset="1" stop-color="#008ECF" stop-opacity="0"/>
</linearGradient>
<linearGradient id="paint1_linear_3211_201" x1="33.5952" y1="69.0842" x2="172.15" y2="154.227" gradientUnits="userSpaceOnUse">
<stop stop-color="#008ECF" stop-opacity="0.2"/>
<stop offset="1" stop-color="#008ECF" stop-opacity="0"/>
</linearGradient>
<linearGradient id="paint2_linear_3211_201" x1="0.688041" y1="133.358" x2="139.243" y2="218.501" gradientUnits="userSpaceOnUse">
<stop stop-color="#008ECF" stop-opacity="0.2"/>
<stop offset="1" stop-color="#008ECF" stop-opacity="0"/>
</linearGradient>
</defs>
</svg>
