<svg width="330" height="359" viewBox="0 0 330 359" fill="none" xmlns="http://www.w3.org/2000/svg">
<ellipse cx="217.5" cy="246" rx="112.5" ry="113" transform="rotate(180 217.5 246)" fill="url(#paint0_linear_1973_14855)"/>
<path d="M105.5 246C105.5 183.866 155.646 133.5 217.5 133.5C279.354 133.5 329.5 183.866 329.5 246C329.5 308.134 279.354 358.5 217.5 358.5C155.646 358.5 105.5 308.134 105.5 246Z" stroke="#008ECF" stroke-opacity="0.2"/>
<ellipse cx="159.889" cy="153.927" rx="112.5" ry="113" transform="rotate(120 159.889 153.927)" fill="url(#paint1_linear_1973_14855)"/>
<path d="M103.889 250.922C50.0794 219.855 31.5344 151.244 62.4613 97.6774C93.3882 44.1104 162.079 25.8655 215.889 56.9325C269.699 87.9996 288.244 156.61 257.317 210.177C226.39 263.744 157.699 281.989 103.889 250.922Z" stroke="#008ECF" stroke-opacity="0.2"/>
<path d="M124.381 81.3117L118.862 68.2078L129.455 63.7463L134.974 76.8502L132.994 77.6841L128.142 66.1642L121.509 68.9578L126.361 80.4778L124.381 81.3117Z" fill="#008ECF"/>
<path d="M138.405 80.1174L134.899 66.3779L136.754 65.9047L137.148 67.1747L137.186 67.165C137.353 66.6857 137.686 66.2278 138.186 65.7911C138.693 65.3529 139.324 65.0372 140.081 64.844C141.438 64.498 142.636 64.6793 143.677 65.388C144.724 66.0951 145.434 67.1804 145.808 68.6439L145.883 68.9372C146.254 70.3945 146.151 71.6874 145.572 72.816C145 73.9431 144.042 74.678 142.698 75.0208C141.947 75.2124 141.265 75.252 140.652 75.1397C140.039 75.0274 139.526 74.8088 139.114 74.4839L140.42 79.6031L138.405 80.1174ZM138.624 72.6033C138.936 72.9808 139.374 73.2755 139.938 73.4875C140.503 73.6995 141.123 73.7194 141.798 73.5472C142.788 73.2945 143.436 72.8035 143.74 72.0741C144.049 71.3367 144.078 70.476 143.827 69.4919L143.735 69.1324C143.486 68.1546 143.05 67.4193 142.427 66.9265C141.81 66.4321 141.003 66.312 140.007 66.5663C139.332 66.7385 138.8 67.0522 138.412 67.5072C138.023 67.956 137.778 68.4182 137.678 68.894L138.624 72.6033Z" fill="#008ECF"/>
<path d="M147.171 68.7802L147.136 68.4794C146.96 66.9465 147.296 65.6498 148.144 64.5891C148.993 63.5284 150.209 62.9072 151.794 62.7253C153.378 62.5434 154.704 62.8729 155.77 63.7138C156.837 64.5547 157.458 65.7416 157.634 67.2745L157.668 67.5753C157.844 69.1082 157.508 70.405 156.66 71.4657C155.812 72.5263 154.595 73.1476 153.011 73.3295C151.426 73.5114 150.101 73.1818 149.034 72.3409C147.968 71.5 147.347 70.3131 147.171 68.7802ZM149.237 68.199L149.28 68.5774C149.398 69.6058 149.76 70.4129 150.364 70.9988C150.975 71.584 151.795 71.8176 152.824 71.6996C153.852 71.5815 154.594 71.1687 155.05 70.461C155.507 69.7533 155.676 68.8853 155.558 67.8569L155.514 67.4785C155.397 66.4566 155.036 65.6526 154.431 65.0667C153.827 64.4808 153.01 64.2469 151.982 64.3649C150.953 64.4829 150.208 64.8962 149.745 65.6046C149.289 66.3123 149.12 67.1771 149.237 68.199Z" fill="#008ECF"/>
<path d="M158.822 67.5963L158.827 67.2936C158.857 65.7575 159.346 64.5199 160.296 63.581C161.252 62.6357 162.491 62.1777 164.014 62.2071C165.537 62.2365 166.704 62.7082 167.513 63.6224C168.329 64.5368 168.722 65.7653 168.692 67.308L168.677 68.0988L160.095 67.9334L160.123 66.4493L166.636 66.5748L166.638 66.4381C166.653 65.7026 166.446 65.0898 166.019 64.5997C165.599 64.1032 164.93 63.8461 164.012 63.8285C162.997 63.8089 162.229 64.1229 161.709 64.7706C161.188 65.4182 160.918 66.2563 160.898 67.2847L160.891 67.6753C160.871 68.7102 161.121 69.5616 161.642 70.2293C162.17 70.8906 162.987 71.232 164.094 71.2533C164.797 71.2668 165.398 71.1417 165.898 70.8778C166.405 70.6076 166.815 70.2834 167.128 69.9053L168.505 70.9476C168.156 71.4618 167.601 71.9199 166.838 72.322C166.081 72.7176 165.159 72.905 164.072 72.884C162.367 72.8512 161.058 72.3473 160.146 71.3725C159.233 70.3977 158.792 69.139 158.822 67.5963Z" fill="#008ECF"/>
<path d="M177.214 73.9436L173.593 68.7456L175.156 67.6647L179.803 74.3283L177.214 73.9436ZM172.091 67.1599L173.994 67.4427L178.351 63.904L180.746 64.26L174.599 69.1518L171.856 68.7441L172.091 67.1599ZM173.714 63.215L172.23 73.203L170.182 72.8987L171.666 62.9107L173.714 63.215Z" fill="#008ECF"/>
<path d="M181.567 66.1163L181.985 64.5702L190.818 66.9576L190.4 68.5036L186.988 67.5813L184.771 75.7832L182.763 75.2405L184.98 67.0387L181.567 66.1163Z" fill="#008ECF"/>
<path d="M194.584 68.287L193.254 71.3825L195.784 72.4696C196.957 72.9732 197.74 73.6322 198.134 74.4463C198.531 75.2545 198.52 76.1461 198.101 77.1212C197.693 78.0723 197.055 78.6911 196.188 78.9775C195.321 79.264 194.301 79.1554 193.128 78.6517L188.687 76.7436L192.673 67.4659L194.584 68.287ZM195.032 73.8256L192.645 72.8002L191.207 76.147L193.594 77.1724C194.282 77.4679 194.832 77.5235 195.244 77.3392C195.659 77.1489 195.977 76.7966 196.198 76.2822C196.411 75.7857 196.441 75.3275 196.289 74.9076C196.139 74.4818 195.72 74.1211 195.032 73.8256ZM198.018 80.7525L202.004 71.4748L203.915 72.2959L199.93 81.5736L198.018 80.7525Z" fill="#008ECF"/>
<ellipse cx="112.5" cy="245.855" rx="112.5" ry="113" transform="rotate(180 112.5 245.855)" fill="url(#paint2_linear_1973_14855)"/>
<path d="M0.49999 245.855C0.499985 183.721 50.6462 133.355 112.5 133.355C174.354 133.355 224.5 183.721 224.5 245.855C224.5 307.99 174.354 358.355 112.5 358.355C50.6462 358.355 0.499996 307.99 0.49999 245.855Z" stroke="#008ECF" stroke-opacity="0.2"/>
<path d="M30.8633 264.649L31.5812 264.461C33.7982 263.88 35.6346 264.018 37.0906 264.875C38.5546 265.737 39.5208 267.062 39.9892 268.851C40.4411 270.577 40.3714 272.045 39.7801 273.257C39.1888 274.468 38.1992 275.289 36.8112 275.72L36.6601 275.759L36.1158 273.681L36.2859 273.637C37.1875 273.353 37.8214 272.844 38.1874 272.109C38.5614 271.378 38.5983 270.44 38.2982 269.294C37.9831 268.091 37.315 267.223 36.2937 266.689C35.2787 266.154 33.9241 266.108 32.2299 266.552L31.323 266.79C29.6729 267.222 28.5209 267.924 27.8669 268.896C27.2192 269.867 27.0537 270.956 27.3704 272.166C27.6739 273.324 28.1769 274.115 28.8796 274.536C29.5823 274.958 30.3781 275.093 31.267 274.941L31.4301 274.908L31.9743 276.987L31.8043 277.031C30.4268 277.271 29.1767 277.033 28.0539 276.317C26.939 275.607 26.1498 274.366 25.6863 272.596C25.2146 270.795 25.4002 269.165 26.2429 267.706C27.0937 266.252 28.6338 265.233 30.8633 264.649Z" fill="#008ECF"/>
<path d="M32.936 278.779L33.215 278.661C34.6313 278.066 35.961 278.011 37.2041 278.498C38.4558 278.989 39.377 279.936 39.9677 281.341C40.5584 282.745 40.5999 284.002 40.0924 285.113C39.5873 286.229 38.6237 287.087 37.2014 287.685L36.4723 287.992L33.1439 280.079L34.5122 279.504L37.0378 285.508L37.1638 285.455C37.8419 285.169 38.3185 284.732 38.5934 284.144C38.8769 283.558 38.8407 282.842 38.4847 281.996C38.091 281.06 37.4925 280.485 36.6895 280.272C35.8865 280.059 35.0109 280.152 34.0628 280.551L33.7027 280.702C32.7485 281.104 32.0719 281.678 31.6728 282.425C31.2822 283.175 31.3014 284.061 31.7306 285.081C32.0032 285.729 32.3615 286.228 32.8054 286.578C33.2578 286.932 33.7203 287.175 34.1931 287.308L33.7984 288.989C33.187 288.879 32.5429 288.557 31.866 288.022C31.1976 287.491 30.6526 286.725 30.2311 285.722C29.5697 284.15 29.4996 282.749 30.0208 281.52C30.542 280.291 31.5137 279.377 32.936 278.779Z" fill="#008ECF"/>
<path d="M30.4652 295.139L42.6803 287.938L43.6523 289.587L42.5429 290.32L42.5628 290.354C43.0695 290.38 43.6023 290.573 44.1611 290.931C44.7233 291.295 45.2027 291.813 45.5995 292.486C46.3103 293.692 46.4707 294.894 46.0807 296.091C45.694 297.294 44.8501 298.279 43.5489 299.046L43.2881 299.199C41.9926 299.963 40.7221 300.225 39.4768 299.984C38.2348 299.749 37.2617 299.034 36.5574 297.839C36.164 297.172 35.9356 296.528 35.8723 295.908C35.809 295.288 35.8758 294.734 36.0727 294.248L31.5215 296.931L30.4652 295.139ZM37.7419 293.253C37.4663 293.657 37.3055 294.16 37.2596 294.761C37.2136 295.363 37.3675 295.964 37.7213 296.564C38.2404 297.444 38.8926 297.929 39.678 298.018C40.4722 298.109 41.3068 297.896 42.1817 297.38L42.5014 297.192C43.3707 296.679 43.9551 296.055 44.2544 295.32C44.5571 294.59 44.4472 293.781 43.9248 292.895C43.5711 292.295 43.1216 291.872 42.5763 291.627C42.0367 291.378 41.5245 291.272 41.0396 291.309L37.7419 293.253Z" fill="#008ECF"/>
<path d="M40.7084 303.894L48.6358 297.639L51.8357 301.695C52.5615 302.615 52.9422 303.455 52.9778 304.214C53.0224 304.975 52.6972 305.63 52.0021 306.178C51.5421 306.541 51.061 306.709 50.5589 306.683C50.0568 306.656 49.5741 306.464 49.1109 306.109L49.0879 306.127C49.4123 306.717 49.5436 307.293 49.4819 307.856C49.4252 308.415 49.1439 308.894 48.6379 309.293C47.9223 309.857 47.1656 310.044 46.3677 309.853C45.5749 309.657 44.8196 309.104 44.1018 308.195L40.7084 303.894ZM46.6001 301.87L48.4329 304.193C48.7999 304.658 49.1611 304.916 49.5166 304.967C49.8813 305.02 50.2374 304.909 50.585 304.634C50.9172 304.372 51.0875 304.068 51.096 303.721C51.1136 303.376 50.9389 302.97 50.5719 302.505L48.7391 300.182L46.6001 301.87ZM43.1577 304.586L45.1599 307.123C45.5349 307.599 45.9134 307.868 46.2953 307.932C46.6823 307.991 47.0521 307.882 47.4048 307.604C47.7523 307.33 47.9396 306.999 47.9666 306.613C48.0028 306.228 47.8313 305.795 47.4523 305.315L45.4501 302.777L43.1577 304.586Z" fill="#008ECF"/>
<path d="M48.7405 313.649L55.7664 306.396L57.2463 307.83L52.986 312.228C52.8455 312.373 52.6914 312.527 52.5237 312.691C52.3559 312.855 52.1972 313.005 52.0474 313.14L52.1105 313.202C52.2983 313.139 52.493 313.078 52.6947 313.02C52.901 312.966 53.1303 312.911 53.3827 312.857L60.8516 311.323L62.3526 312.777L55.3267 320.029L53.8467 318.595L58.1139 314.191C58.2543 314.046 58.4084 313.891 58.5762 313.727C58.7485 313.559 58.9117 313.404 59.0661 313.264L58.9959 313.196C58.8128 313.263 58.6158 313.326 58.405 313.385C58.1988 313.448 57.9695 313.507 57.7172 313.562L50.2415 315.103L48.7405 313.649Z" fill="#008ECF"/>
<path d="M60.1738 317.758L60.3541 317.515C61.2769 316.271 62.3926 315.542 63.7013 315.329C65.0191 315.114 66.3214 315.484 67.608 316.438C68.8057 317.325 69.5005 318.29 69.6926 319.332C69.8899 320.378 69.7114 321.291 69.1571 322.072L69.1068 322.156L67.4515 320.929L67.498 320.866C67.834 320.402 67.9503 319.901 67.847 319.362C67.7476 318.818 67.3423 318.283 66.631 317.756C65.7994 317.139 64.9857 316.941 64.1901 317.162C63.3997 317.386 62.6962 317.914 62.0798 318.746L61.853 319.052C61.2366 319.883 60.9313 320.711 60.9372 321.534C60.9522 322.355 61.3781 323.076 62.215 323.696C62.9367 324.231 63.5722 324.467 64.1213 324.404C64.6743 324.336 65.1221 324.077 65.4646 323.625L65.5111 323.563L67.1508 324.778L67.0985 324.849C66.5324 325.612 65.7159 326.052 64.6488 326.169C63.5817 326.286 62.4493 325.9 61.2516 325.012C59.965 324.059 59.2308 322.923 59.0489 321.605C58.8761 320.285 59.2511 319.003 60.1738 317.758Z" fill="#008ECF"/>
<path d="M74.0309 321.22L72.4373 324.189L74.8637 325.491C75.9879 326.095 76.7111 326.819 77.0332 327.665C77.3583 328.504 77.2699 329.392 76.768 330.327C76.2784 331.239 75.5892 331.8 74.7005 332.01C73.8119 332.22 72.8054 332.023 71.6811 331.42L67.4221 329.133L72.1982 320.237L74.0309 321.22ZM73.9962 326.777L71.7075 325.548L69.9846 328.758L72.2733 329.986C72.9329 330.34 73.4761 330.444 73.9027 330.296C74.3324 330.142 74.6797 329.819 74.9445 329.325C75.2001 328.849 75.2701 328.396 75.1545 327.964C75.0419 327.527 74.6558 327.131 73.9962 326.777ZM76.3704 333.937L81.1465 325.04L82.9792 326.024L78.2031 334.921L76.3704 333.937Z" fill="#008ECF"/>
<path fill-rule="evenodd" clip-rule="evenodd" d="M165 145.106C200.684 164.052 225 201.71 225 245.073C225 247.022 224.951 248.96 224.854 250.885C190.651 272.106 146.061 274.245 108.639 252.64C107.452 251.954 106.282 251.25 105.129 250.529C105.043 248.721 105 246.902 105 245.073C105 201.71 129.316 164.052 165 145.106Z" fill="#008ECF"/>
<path d="M126.166 204V189.781H137.661V204H135.512V191.5H128.315V204H126.166ZM139.834 199.098V198.795C139.834 197.252 140.315 196.002 141.279 195.045C142.242 194.088 143.522 193.609 145.117 193.609C146.712 193.609 147.991 194.088 148.955 195.045C149.918 196.002 150.4 197.252 150.4 198.795V199.098C150.4 200.641 149.918 201.891 148.955 202.848C147.991 203.805 146.712 204.283 145.117 204.283C143.522 204.283 142.242 203.805 141.279 202.848C140.315 201.891 139.834 200.641 139.834 199.098ZM141.953 198.756V199.137C141.953 200.172 142.22 201.015 142.754 201.666C143.294 202.317 144.082 202.643 145.117 202.643C146.152 202.643 146.936 202.317 147.47 201.666C148.004 201.015 148.271 200.172 148.271 199.137V198.756C148.271 197.727 148.004 196.887 147.47 196.236C146.936 195.585 146.152 195.26 145.117 195.26C144.082 195.26 143.294 195.585 142.754 196.236C142.22 196.887 141.953 197.727 141.953 198.756ZM155.19 195.504L155.005 199.4C154.927 201.119 154.695 202.353 154.311 203.102C153.927 203.844 153.224 204.215 152.202 204.215C151.981 204.215 151.772 204.199 151.577 204.166C151.388 204.14 151.232 204.098 151.108 204.039V202.34C151.219 202.379 151.33 202.408 151.44 202.428C151.557 202.447 151.684 202.457 151.821 202.457C152.309 202.457 152.635 202.219 152.798 201.744C152.967 201.269 153.078 200.403 153.13 199.146L153.364 193.902H161.147V204H159.067V195.504H155.19ZM163.74 193.902H165.82V198.043H170.654V193.902H172.725V204H170.654V199.645H165.82V204H163.74V193.902ZM177.378 193.902V197.271H180.132C181.408 197.271 182.388 197.568 183.071 198.16C183.755 198.746 184.097 199.57 184.097 200.631C184.097 201.666 183.755 202.486 183.071 203.092C182.388 203.697 181.408 204 180.132 204H175.298V193.902H177.378ZM179.976 198.814H177.378V202.457H179.976C180.724 202.457 181.252 202.291 181.558 201.959C181.864 201.62 182.017 201.171 182.017 200.611C182.017 200.071 181.864 199.638 181.558 199.312C181.252 198.98 180.724 198.814 179.976 198.814ZM185.454 204V193.902H187.534V204H185.454ZM190.118 204V193.902H192.178V200.025C192.178 200.227 192.175 200.445 192.168 200.68C192.162 200.914 192.152 201.132 192.139 201.334H192.227C192.318 201.158 192.416 200.979 192.52 200.797C192.631 200.615 192.758 200.416 192.901 200.201L197.198 193.902H199.287V204H197.227V197.867C197.227 197.665 197.23 197.447 197.237 197.213C197.243 196.972 197.253 196.747 197.266 196.539H197.168C197.084 196.715 196.986 196.897 196.875 197.086C196.771 197.275 196.648 197.477 196.504 197.691L192.207 204H190.118ZM194.698 190.865C195.166 190.865 195.551 190.732 195.85 190.465C196.156 190.198 196.407 189.771 196.602 189.186L198.077 189.996C197.764 190.81 197.312 191.402 196.719 191.773C196.133 192.145 195.459 192.33 194.698 192.33C193.936 192.33 193.262 192.148 192.676 191.783C192.097 191.412 191.644 190.816 191.319 189.996L192.823 189.166C193.024 189.778 193.272 190.214 193.565 190.475C193.864 190.735 194.242 190.865 194.698 190.865ZM130.454 222.098V221.795C130.454 220.245 130.916 218.995 131.84 218.045C132.771 217.088 134.037 216.609 135.639 216.609C137.13 216.609 138.263 216.971 139.037 217.693C139.819 218.416 140.219 219.256 140.239 220.213L140.248 220.311H138.188V220.232C138.181 219.66 137.976 219.188 137.573 218.816C137.169 218.439 136.524 218.25 135.639 218.25C134.604 218.25 133.832 218.576 133.325 219.227C132.823 219.878 132.573 220.721 132.573 221.756V222.137C132.573 223.172 132.82 224.018 133.315 224.676C133.816 225.327 134.588 225.652 135.629 225.652C136.528 225.652 137.179 225.464 137.582 225.086C137.986 224.702 138.191 224.227 138.198 223.66V223.582H140.239V223.67C140.239 224.62 139.845 225.46 139.057 226.189C138.269 226.919 137.13 227.283 135.639 227.283C134.037 227.283 132.771 226.808 131.84 225.857C130.916 224.9 130.454 223.647 130.454 222.098ZM141.923 216.902H150.839V227H148.769V218.504H144.004V227H141.923V216.902ZM152.807 222.098V221.795C152.807 220.258 153.273 219.012 154.204 218.055C155.141 217.091 156.372 216.609 157.895 216.609C159.419 216.609 160.594 217.059 161.421 217.957C162.254 218.855 162.671 220.076 162.671 221.619V222.41H154.087V220.926H160.6V220.789C160.6 220.053 160.382 219.445 159.946 218.963C159.516 218.475 158.843 218.23 157.925 218.23C156.909 218.23 156.147 218.559 155.639 219.217C155.132 219.874 154.878 220.717 154.878 221.746V222.137C154.878 223.172 155.145 224.018 155.679 224.676C156.219 225.327 157.042 225.652 158.149 225.652C158.852 225.652 159.451 225.516 159.946 225.242C160.447 224.962 160.851 224.63 161.157 224.246L162.554 225.262C162.215 225.783 161.668 226.251 160.913 226.668C160.164 227.078 159.246 227.283 158.159 227.283C156.453 227.283 155.135 226.805 154.204 225.848C153.273 224.891 152.807 223.641 152.807 222.098ZM171.582 227L167.236 222.391L168.623 221.092L174.199 227H171.582ZM165.518 221.043H167.441L171.23 216.902H173.652L168.291 222.645H165.518V221.043ZM166.543 216.902V227H164.473V216.902H166.543ZM174.136 218.504V216.902H183.286V218.504H179.751V227H177.671V218.504H174.136ZM184.776 231.082V216.902H186.69L186.758 218.23H186.797C187.077 217.807 187.513 217.446 188.106 217.146C188.705 216.847 189.395 216.697 190.176 216.697C191.576 216.697 192.692 217.169 193.526 218.113C194.366 219.057 194.786 220.285 194.786 221.795V222.098C194.786 223.602 194.366 224.829 193.526 225.779C192.692 226.73 191.582 227.205 190.196 227.205C189.421 227.205 188.75 227.075 188.184 226.814C187.618 226.554 187.175 226.215 186.856 225.799V231.082H184.776ZM186.846 223.855C187.054 224.298 187.406 224.692 187.901 225.037C188.396 225.382 188.991 225.555 189.688 225.555C190.71 225.555 191.459 225.239 191.934 224.607C192.416 223.969 192.657 223.143 192.657 222.127V221.756C192.657 220.747 192.416 219.926 191.934 219.295C191.459 218.663 190.707 218.348 189.678 218.348C188.982 218.348 188.389 218.52 187.901 218.865C187.412 219.204 187.061 219.591 186.846 220.027V223.855ZM140.078 254.053V252.393C140.267 252.451 140.472 252.497 140.693 252.529C140.921 252.562 141.136 252.578 141.338 252.578C141.858 252.578 142.298 252.419 142.656 252.1C143.014 251.781 143.392 251.064 143.789 249.951L143.74 249.941L139.589 239.902H141.67L144.257 246.445C144.355 246.699 144.44 246.937 144.511 247.158C144.583 247.38 144.648 247.601 144.707 247.822H144.755C144.821 247.601 144.889 247.38 144.961 247.158C145.032 246.937 145.114 246.699 145.205 246.445L147.695 239.902H149.668L145.117 251.289C144.733 252.253 144.244 252.988 143.652 253.496C143.06 254.004 142.337 254.258 141.484 254.258C141.198 254.258 140.94 254.238 140.713 254.199C140.491 254.167 140.28 254.118 140.078 254.053ZM150.19 245.098V244.795C150.19 243.245 150.652 241.995 151.577 241.045C152.508 240.088 153.774 239.609 155.376 239.609C156.867 239.609 157.999 239.971 158.774 240.693C159.555 241.416 159.956 242.256 159.975 243.213L159.985 243.311H157.925V243.232C157.918 242.66 157.713 242.188 157.309 241.816C156.906 241.439 156.261 241.25 155.376 241.25C154.341 241.25 153.569 241.576 153.061 242.227C152.56 242.878 152.309 243.721 152.309 244.756V245.137C152.309 246.172 152.557 247.018 153.052 247.676C153.553 248.327 154.324 248.652 155.366 248.652C156.264 248.652 156.915 248.464 157.319 248.086C157.723 247.702 157.928 247.227 157.934 246.66V246.582H159.975V246.67C159.975 247.62 159.582 248.46 158.794 249.189C158.006 249.919 156.867 250.283 155.376 250.283C153.774 250.283 152.508 249.808 151.577 248.857C150.652 247.9 150.19 246.647 150.19 245.098ZM164.492 241.504L164.307 245.4C164.229 247.119 163.997 248.353 163.613 249.102C163.229 249.844 162.526 250.215 161.504 250.215C161.283 250.215 161.074 250.199 160.879 250.166C160.69 250.14 160.534 250.098 160.41 250.039V248.34C160.521 248.379 160.632 248.408 160.742 248.428C160.859 248.447 160.986 248.457 161.123 248.457C161.611 248.457 161.937 248.219 162.1 247.744C162.269 247.269 162.38 246.403 162.432 245.146L162.666 239.902H170.449V250H168.369V241.504H164.492ZM172.193 254.053V252.393C172.381 252.451 172.586 252.497 172.808 252.529C173.036 252.562 173.251 252.578 173.452 252.578C173.973 252.578 174.413 252.419 174.771 252.1C175.129 251.781 175.506 251.064 175.904 249.951L175.855 249.941L171.704 239.902H173.784L176.372 246.445C176.47 246.699 176.555 246.937 176.626 247.158C176.698 247.38 176.763 247.601 176.821 247.822H176.87C176.935 247.601 177.004 247.38 177.075 247.158C177.147 246.937 177.228 246.699 177.32 246.445L179.81 239.902H181.782L177.232 251.289C176.848 252.253 176.359 252.988 175.767 253.496C175.174 254.004 174.452 254.258 173.599 254.258C173.312 254.258 173.055 254.238 172.827 254.199C172.606 254.167 172.394 254.118 172.193 254.053ZM182.92 239.902H190.157V241.504H185V250H182.92V239.902Z" fill="white"/>
<path d="M240.166 338.45L238.134 339.085L235.123 329.457C235.061 329.258 234.993 329.041 234.919 328.805C234.851 328.567 234.793 328.349 234.746 328.153L234.671 328.176C234.639 328.377 234.602 328.587 234.561 328.804C234.518 329.016 234.463 329.244 234.396 329.49L231.125 341.277L228.926 341.965L224.681 328.395L226.722 327.757L229.737 337.394C229.797 337.586 229.861 337.802 229.929 338.04C229.996 338.278 230.056 338.491 230.108 338.679L230.183 338.656C230.209 338.477 230.244 338.275 230.29 338.05C230.335 337.824 230.389 337.592 230.451 337.355L233.722 325.567L235.922 324.879L240.166 338.45Z" fill="#008ECF"/>
<path d="M239.503 327.794L241.372 326.88L243.19 330.6L247.533 328.478L245.715 324.758L247.575 323.848L252.009 332.92L250.149 333.83L248.237 329.916L243.894 332.039L245.806 335.952L243.937 336.866L239.503 327.794Z" fill="#008ECF"/>
<path d="M254.171 326.026C254.774 326.883 255.486 327.405 256.309 327.591C257.132 327.776 258.104 327.511 259.224 326.796L254.984 320.763C253.931 321.575 253.355 322.402 253.255 323.244C253.151 324.081 253.4 324.929 254.003 325.786L254.171 326.026ZM261.745 320.345C261.146 319.493 260.436 318.969 259.614 318.775C258.793 318.58 257.817 318.844 256.686 319.567L260.926 325.6C261.989 324.78 262.57 323.954 262.669 323.121C262.768 322.288 262.516 321.442 261.913 320.585L261.745 320.345ZM260.173 328.146C258.582 329.177 257.119 329.604 255.786 329.427C254.452 329.25 253.336 328.523 252.437 327.244L252.263 326.997C251.372 325.729 251.07 324.438 251.355 323.123C251.637 321.803 252.532 320.569 254.041 319.421L251.452 315.738L253.154 314.542L255.743 318.225C257.35 317.183 258.817 316.757 260.144 316.946C261.472 317.127 262.584 317.853 263.478 319.126L263.653 319.374C264.547 320.647 264.854 321.939 264.574 323.25C264.299 324.557 263.4 325.791 261.875 326.95L264.065 330.066L262.363 331.262L260.173 328.146Z" fill="#008ECF"/>
<path d="M272.579 323.335L262.672 313.189L264.042 311.852L265.019 312.754L265.047 312.727C264.951 312.229 265.011 311.666 265.226 311.037C265.445 310.405 265.834 309.815 266.393 309.27C267.395 308.292 268.523 307.849 269.779 307.943C271.039 308.031 272.197 308.616 273.252 309.697L273.464 309.913C274.515 310.989 275.071 312.161 275.135 313.428C275.202 314.69 274.74 315.805 273.748 316.774C273.194 317.315 272.623 317.691 272.036 317.9C271.449 318.11 270.895 318.177 270.376 318.101L274.067 321.881L272.579 323.335ZM269.011 316.718C269.47 316.889 269.996 316.925 270.591 316.826C271.186 316.728 271.733 316.435 272.232 315.948C272.963 315.234 273.278 314.485 273.177 313.701C273.076 312.908 272.671 312.148 271.961 311.422L271.702 311.156C270.997 310.434 270.251 310.015 269.466 309.9C268.684 309.78 267.926 310.08 267.19 310.798C266.691 311.285 266.388 311.822 266.28 312.41C266.167 312.994 266.186 313.516 266.337 313.979L269.011 316.718Z" fill="#008ECF"/>
<path d="M275.961 309.941C275.134 309.297 274.757 308.467 274.83 307.451C274.904 306.436 275.381 305.363 276.261 304.233L277.857 302.184L277.303 301.752C276.825 301.379 276.35 301.232 275.877 301.309C275.403 301.377 274.914 301.735 274.41 302.382C273.922 303.009 273.672 303.557 273.661 304.027C273.649 304.497 273.813 304.864 274.152 305.128L274.237 305.194L272.969 306.806L272.884 306.74C272.186 306.195 271.857 305.436 271.899 304.461C271.94 303.487 272.383 302.458 273.227 301.374C274.067 300.295 274.944 299.641 275.857 299.412C276.77 299.183 277.681 299.422 278.59 300.13L282.219 302.957C282.548 303.213 282.883 303.429 283.225 303.605C283.561 303.776 283.878 303.899 284.175 303.974L284.298 304.07L283.062 305.657C282.874 305.634 282.655 305.575 282.407 305.481C282.163 305.381 281.932 305.259 281.714 305.114C281.891 305.566 281.917 306.131 281.793 306.809C281.672 307.483 281.322 308.192 280.742 308.937C280.057 309.815 279.29 310.36 278.44 310.573C277.593 310.78 276.767 310.569 275.961 309.941ZM277.139 308.222C277.581 308.566 278.028 308.692 278.48 308.599C278.936 308.5 279.398 308.15 279.867 307.55C280.351 306.928 280.597 306.237 280.604 305.475C280.611 304.713 280.394 304.16 279.953 303.816L278.936 303.024L277.519 304.842C276.931 305.597 276.61 306.263 276.557 306.84C276.498 307.414 276.692 307.874 277.139 308.222Z" fill="#008ECF"/>
<path d="M281.379 299.751L281.118 299.597C279.784 298.808 278.944 297.774 278.596 296.494C278.247 295.206 278.48 293.872 279.295 292.494C280.054 291.21 280.942 290.419 281.958 290.121C282.978 289.816 283.905 289.899 284.738 290.37L284.827 290.411L283.778 292.184L283.711 292.145C283.215 291.858 282.704 291.795 282.179 291.953C281.649 292.108 281.158 292.567 280.707 293.329C280.18 294.22 280.067 295.05 280.369 295.818C280.674 296.581 281.272 297.226 282.163 297.753L282.491 297.947C283.382 298.474 284.236 298.692 285.054 298.601C285.87 298.501 286.543 298.003 287.073 297.106C287.531 296.333 287.7 295.676 287.58 295.137C287.455 294.594 287.15 294.175 286.666 293.881L286.599 293.842L287.638 292.085L287.714 292.13C288.532 292.614 289.054 293.38 289.281 294.429C289.507 295.479 289.241 296.645 288.482 297.928C287.666 299.307 286.613 300.154 285.321 300.472C284.026 300.78 282.712 300.54 281.379 299.751Z" fill="#008ECF"/>
<path d="M283.837 288.427L282.371 287.781L286.063 279.408L287.528 280.054L286.102 283.289L293.876 286.717L293.037 288.62L285.263 285.192L283.837 288.427Z" fill="#008ECF"/>
<path d="M300.274 281.725L286.688 277.665L287.236 275.831L288.528 276.146L288.539 276.109C288.214 275.719 287.992 275.198 287.875 274.544C287.76 273.885 287.814 273.181 288.038 272.432C288.438 271.091 289.21 270.156 290.353 269.628C291.498 269.094 292.794 269.043 294.242 269.475L294.532 269.562C295.973 269.993 297.028 270.746 297.698 271.823C298.371 272.894 298.508 274.093 298.111 275.422C297.889 276.164 297.572 276.77 297.161 277.238C296.749 277.706 296.298 278.033 295.807 278.219L300.869 279.732L300.274 281.725ZM293.943 277.672C294.426 277.6 294.904 277.375 295.377 277C295.849 276.625 296.185 276.104 296.384 275.436C296.677 274.457 296.589 273.649 296.12 273.013C295.646 272.369 294.923 271.901 293.95 271.61L293.595 271.504C292.628 271.215 291.773 271.211 291.03 271.492C290.289 271.766 289.771 272.396 289.476 273.382C289.277 274.049 289.272 274.666 289.463 275.233C289.648 275.798 289.918 276.246 290.275 276.576L293.943 277.672Z" fill="#008ECF"/>
<path d="M303.632 269.371L301.994 269.101C302.083 268.924 302.161 268.729 302.229 268.516C302.299 268.296 302.35 268.087 302.382 267.888C302.467 267.374 302.382 266.915 302.125 266.509C301.869 266.104 301.224 265.615 300.19 265.042L300.172 265.088L289.591 267.548L289.93 265.495L296.807 264.008C297.074 263.953 297.322 263.908 297.552 263.874C297.782 263.839 298.011 263.811 298.239 263.789L298.247 263.741C298.039 263.641 297.832 263.537 297.625 263.43C297.418 263.324 297.197 263.205 296.962 263.073L290.912 259.55L291.233 257.604L301.726 263.949C302.614 264.485 303.261 265.087 303.665 265.754C304.07 266.421 304.203 267.176 304.064 268.017C304.017 268.3 303.956 268.55 303.88 268.769C303.812 268.982 303.729 269.183 303.632 269.371Z" fill="#008ECF"/>
<path d="M301.601 250.548L296.797 254.677L295.563 253.232L301.721 247.933L301.601 250.548ZM295.372 256.332L295.46 254.411L291.498 250.435L291.609 248.016L297.099 253.635L296.972 256.406L295.372 256.332ZM291.283 255.118L301.37 255.582L301.275 257.65L291.188 257.186L291.283 255.118Z" fill="#008ECF"/>
<path d="M293.17 247.502L291.572 247.615L290.925 238.488L292.523 238.375L292.773 241.901L301.248 241.3L301.395 243.375L292.92 243.976L293.17 247.502Z" fill="#008ECF"/>
<path d="M304.696 235.049L303.062 235.346C303.086 235.15 303.094 234.94 303.087 234.716C303.078 234.486 303.056 234.272 303.02 234.073C302.926 233.561 302.691 233.157 302.313 232.862C301.935 232.567 301.163 232.323 299.997 232.131L299.996 232.181L290.861 238.06L290.489 236.013L296.464 232.297C296.696 232.156 296.915 232.03 297.12 231.92C297.325 231.81 297.531 231.706 297.738 231.609L297.729 231.561C297.5 231.536 297.27 231.509 297.039 231.478C296.809 231.447 296.56 231.409 296.294 231.365L289.411 230.085L289.059 228.144L301.076 230.585C302.092 230.791 302.903 231.14 303.509 231.632C304.115 232.124 304.494 232.79 304.646 233.629C304.697 233.911 304.724 234.167 304.726 234.398C304.734 234.622 304.724 234.839 304.696 235.049Z" fill="#008ECF"/>
<path d="M302.284 223.064L288.752 227.303L288.18 225.476L289.427 225.014L289.416 224.977C288.928 224.836 288.453 224.528 287.99 224.052C287.525 223.57 287.176 222.956 286.942 222.211C286.524 220.875 286.64 219.669 287.292 218.591C287.942 217.507 288.987 216.74 290.429 216.288L290.718 216.198C292.153 215.748 293.449 215.782 294.608 216.299C295.764 216.81 296.549 217.728 296.964 219.051C297.195 219.79 297.272 220.469 297.192 221.087C297.113 221.706 296.922 222.229 296.62 222.658L301.662 221.079L302.284 223.064ZM294.769 223.249C295.129 222.918 295.4 222.464 295.581 221.889C295.762 221.314 295.749 220.694 295.541 220.029C295.235 219.053 294.71 218.433 293.965 218.169C293.212 217.9 292.351 217.917 291.382 218.221L291.028 218.332C290.065 218.633 289.354 219.108 288.896 219.757C288.435 220.399 288.359 221.211 288.666 222.193C288.874 222.858 289.216 223.371 289.691 223.734C290.16 224.099 290.635 224.318 291.116 224.393L294.769 223.249Z" fill="#008ECF"/>
<path d="M291.9 214.108C290.95 214.55 290.039 214.507 289.168 213.979C288.298 213.451 287.56 212.538 286.955 211.24L285.859 208.885L285.221 209.182C284.672 209.437 284.325 209.793 284.178 210.249C284.023 210.702 284.118 211.301 284.464 212.044C284.8 212.764 285.174 213.236 285.587 213.46C286 213.684 286.402 213.706 286.791 213.524L286.889 213.479L287.746 215.342L287.648 215.388C286.846 215.761 286.02 215.708 285.171 215.227C284.322 214.746 283.608 213.883 283.028 212.638C282.451 211.398 282.268 210.32 282.48 209.403C282.692 208.485 283.32 207.783 284.365 207.297L288.534 205.355C288.912 205.179 289.257 204.979 289.569 204.754C289.875 204.533 290.129 204.307 290.331 204.077L290.472 204.011L291.322 205.834C291.215 205.991 291.064 206.159 290.866 206.337C290.666 206.509 290.453 206.659 290.225 206.787C290.707 206.835 291.222 207.069 291.769 207.489C292.314 207.904 292.786 208.539 293.184 209.394C293.654 210.403 293.79 211.335 293.592 212.189C293.39 213.036 292.827 213.676 291.9 214.108ZM290.907 212.276C291.414 212.039 291.73 211.699 291.853 211.253C291.973 210.802 291.872 210.232 291.551 209.541C291.218 208.827 290.714 208.293 290.04 207.939C289.365 207.586 288.774 207.527 288.267 207.763L287.098 208.308L288.071 210.397C288.475 211.264 288.922 211.854 289.411 212.164C289.895 212.478 290.393 212.515 290.907 212.276Z" fill="#008ECF"/>
<defs>
<linearGradient id="paint0_linear_1973_14855" x1="105" y1="190.884" x2="303.172" y2="312.662" gradientUnits="userSpaceOnUse">
<stop stop-color="#008ECF" stop-opacity="0.2"/>
<stop offset="1" stop-color="#008ECF" stop-opacity="0"/>
</linearGradient>
<linearGradient id="paint1_linear_1973_14855" x1="47.3891" y1="98.8116" x2="245.561" y2="220.589" gradientUnits="userSpaceOnUse">
<stop stop-color="#008ECF" stop-opacity="0.2"/>
<stop offset="1" stop-color="#008ECF" stop-opacity="0"/>
</linearGradient>
<linearGradient id="paint2_linear_1973_14855" x1="-8.83631e-06" y1="190.74" x2="198.172" y2="312.518" gradientUnits="userSpaceOnUse">
<stop stop-color="#008ECF" stop-opacity="0.2"/>
<stop offset="1" stop-color="#008ECF" stop-opacity="0"/>
</linearGradient>
</defs>
</svg>
