<svg width="20" height="20" viewBox="0 0 20 20" fill="none" xmlns="http://www.w3.org/2000/svg">
<path d="M17.8627 9.20908L10.2043 16.8674C9.26614 17.8056 7.99366 18.3327 6.66684 18.3327C5.34002 18.3327 4.06755 17.8056 3.12934 16.8674C2.19114 15.9292 1.66406 14.6567 1.66406 13.3299C1.66406 12.0031 2.19114 10.7306 3.12934 9.79241L10.7877 2.13408C11.4131 1.50861 12.2615 1.15723 13.146 1.15723C14.0306 1.15723 14.8789 1.50861 15.5043 2.13408C16.1298 2.75955 16.4812 3.60787 16.4812 4.49241C16.4812 5.37696 16.1298 6.22528 15.5043 6.85075L7.83768 14.5091C7.52494 14.8218 7.10078 14.9975 6.65851 14.9975C6.21624 14.9975 5.79208 14.8218 5.47934 14.5091C5.16661 14.1963 4.99092 13.7722 4.99092 13.3299C4.99092 12.8876 5.16661 12.4635 5.47934 12.1507L12.5543 5.08408" stroke="#008ECF" stroke-width="1.66667" stroke-linecap="round" stroke-linejoin="round"/>
</svg>
