<svg width="504" height="74" viewBox="0 0 504 74" fill="none" xmlns="http://www.w3.org/2000/svg">
<path d="M295.676 31.5822H293.004V19.0127H300.61V21.4554H295.676V31.5822Z" fill="#404040"/>
<path d="M306.559 31.5822H303.887V19.0127H308.18C311.314 19.0127 313.292 20.323 313.292 23.215C313.292 26.1069 311.26 27.6495 307.931 27.6495H306.559V31.5822ZM306.505 25.2797H307.966C309.569 25.2797 310.531 24.6508 310.531 23.3218C310.531 21.9216 309.623 21.3825 307.983 21.3825H306.505V25.2797Z" fill="#404040"/>
<path d="M318.939 29.8769C319.58 29.4819 320.114 29.0158 320.417 28.4581L320.471 28.3326L315.84 19.0127H318.939L321.878 25.6916L324.265 19.0127H327.026L323.089 28.7988C322.501 30.2532 321.487 31.3839 320.436 31.9585L318.939 29.8752V29.8769Z" fill="#404040"/>
<path d="M340.171 31.5822H337.501V21.4368H332.727V31.5822H330.055V19.0127H340.171V31.5822Z" fill="#404040"/>
<path d="M354.493 31.5822H351.821V21.4368H347.047V31.5822H344.375V19.0127H354.493V31.5822Z" fill="#404040"/>
<path d="M365.932 28.8174H361.141L360.25 31.5822H357.613L361.871 19.0127H365.345L369.549 31.5822H366.823L365.932 28.8174ZM361.871 26.4646H365.202L363.546 21.1859L361.871 26.4646Z" fill="#404040"/>
<path d="M381.246 24.2747H381.887L385.716 19.0129H388.815L384.416 24.5069C385.859 24.9561 386.483 27.2174 389.012 31.5808H385.948C383.4 27.1462 383.738 26.3919 382.208 26.3919H381.246V31.5808H378.574V19.0112H381.246V24.273V24.2747Z" fill="#404040"/>
<path d="M390.634 25.2968C390.634 21.0776 393.182 18.7959 396.619 18.7959C400.467 18.7959 402.693 21.2556 402.693 25.2968C402.693 29.7686 400.11 31.7977 396.69 31.7977C393.074 31.7977 390.633 29.5177 390.633 25.2968M399.86 25.2968C399.86 22.4422 398.56 21.1674 396.618 21.1674C394.854 21.1674 393.465 22.4964 393.465 25.2968C393.465 28.0972 394.907 29.4262 396.777 29.4262C398.647 29.4262 399.86 28.1158 399.86 25.2968Z" fill="#404040"/>
<path d="M420.438 31.5822H417.748L417.072 23.2319L414.506 31.5822H411.96L409.429 23.2692L408.753 31.5822H406.062L407.31 19.0127H410.498L413.313 28.4937L416.091 19.0127H419.174L420.438 31.5822Z" fill="#404040"/>
<path d="M434.349 31.5822H431.677V21.4368H426.902V31.5822H424.23V19.0127H434.349V31.5822Z" fill="#404040"/>
<path d="M445.784 28.8174H440.993L440.102 31.5822H437.465L441.723 19.0127H445.197L449.401 31.5822H446.675L445.784 28.8174ZM441.723 26.4646H445.054L443.397 21.1859L441.723 26.4646Z" fill="#404040"/>
<path d="M463.01 31.5822H460.338V26.3391H455.172V31.5822H452.5V19.0127H455.172V23.932H460.338V19.0127H463.01V31.5822Z" fill="#404040"/>
<path d="M477.777 31.5822H475.105V22.82L470.082 31.5822H467.215V19.0127H469.887V27.758L474.927 19.0127H477.777V31.5822Z" fill="#404040"/>
<path d="M492.542 31.5822H489.87V22.82L484.848 31.5822H481.98V19.0127H484.653V27.758L489.694 19.0127H492.544V31.5822H492.542ZM490.868 15.3495C490.779 17.2701 489.211 18.0617 487.288 18.0617C485.364 18.0617 483.797 17.2718 483.689 15.3495L485.772 15.1528C485.951 16.014 486.485 16.3021 487.286 16.3021C488.086 16.3021 488.604 16.014 488.764 15.1528L490.866 15.3495H490.868Z" fill="#404040"/>
<path d="M301.323 50.7242H296.532L295.641 53.489H293.004L297.262 40.9194H300.734L304.938 53.489H302.212L301.321 50.7242H301.323ZM297.262 48.3713H300.593L298.937 43.0926L297.262 48.3713Z" fill="#404040"/>
<path d="M312.084 53.489H309.412V43.3977H305.867V40.9194H315.61V43.3977H312.084V53.489Z" fill="#404040"/>
<path d="M317.924 47.205C317.924 42.9858 320.471 40.7041 323.908 40.7041C327.756 40.7041 329.982 43.1638 329.982 47.205C329.982 51.6768 327.399 53.7059 323.979 53.7059C320.364 53.7059 317.922 51.4259 317.922 47.205M327.149 47.205C327.149 44.3504 325.849 43.0756 323.907 43.0756C322.143 43.0756 320.754 44.4046 320.754 47.205C320.754 50.0054 322.196 51.3344 324.066 51.3344C325.936 51.3344 327.149 50.024 327.149 47.205Z" fill="#404040"/>
<path d="M347.726 53.489H345.037L344.359 45.1404L341.795 53.489H339.247L336.718 45.176L336.04 53.489H333.352L334.598 40.9194H337.786L340.601 50.4004L343.379 40.9194H346.461L347.726 53.489Z" fill="#404040"/>
<path d="M363.239 56.2908H360.71V53.4887H353.158V56.2908H350.629V51.0647H351.804C353.015 49.0186 353.247 46.1453 353.355 42.2668L353.39 40.9209H361.744V51.0664H363.241V56.2925L363.239 56.2908ZM359.07 51.0647V43.3433H355.864C355.845 43.4687 355.828 43.9349 355.828 44.0434C355.704 46.7539 355.366 49.2153 354.528 51.0647H359.07Z" fill="#404040"/>
<path d="M374.588 50.7242H369.797L368.906 53.489H366.27L370.527 40.9194H374.001L378.205 53.489H375.48L374.588 50.7242ZM370.527 48.3713H373.858L372.202 43.0926L370.527 48.3713Z" fill="#404040"/>
<path d="M385.346 53.489H382.674V43.3977H379.129V40.9194H388.874V43.3977H385.346V53.489Z" fill="#404040"/>
<path d="M398.135 50.7242H393.344L392.453 53.489H389.816L394.074 40.9194H397.548L401.752 53.489H399.026L398.135 50.7242ZM394.074 48.3713H397.405L395.749 43.0926L394.074 48.3713Z" fill="#404040"/>
<path d="M270.952 18.9214H269.41V53.4889H270.952V18.9214Z" fill="#404040"/>
<path d="M72.6383 48.8816H67.2539V23.5493H75.9056C77.4863 23.5493 78.9089 23.7188 80.1785 24.0562C81.4465 24.3935 82.5294 24.9071 83.4273 25.5937C84.3253 26.2802 85.0131 27.1617 85.4907 28.2347C85.9699 29.3077 86.2087 30.5689 86.2087 32.0166C86.2087 33.4642 85.9632 34.7068 85.4722 35.8171C84.9811 36.9274 84.2698 37.8615 83.3365 38.6209C82.4033 39.3803 81.2665 39.96 79.9263 40.3584C78.5861 40.7568 77.0777 40.9551 75.4029 40.9551H72.6383V48.8799V48.8816ZM72.5307 36.1799H75.4752C77.1012 36.1799 78.3708 35.8612 79.2806 35.2204C80.1903 34.5813 80.6443 33.5863 80.6443 32.2353C80.6443 30.8113 80.2021 29.8044 79.3159 29.2145C78.4314 28.6229 77.1618 28.3279 75.5105 28.3279H72.5307V36.1799Z" fill="#404040"/>
<path d="M102.503 49.3152C100.684 49.3152 99.0276 49.0304 97.531 48.4642C96.0344 47.898 94.7497 47.0589 93.6718 45.9486C92.5956 44.84 91.7632 43.4703 91.1763 41.8413C90.5895 40.2122 90.2969 38.3374 90.2969 36.2151C90.2969 34.0928 90.6012 32.2162 91.2117 30.5872C91.8221 28.9582 92.6662 27.5902 93.7424 26.4798C94.8203 25.3695 96.0933 24.5321 97.5664 23.9642C99.0377 23.3981 100.635 23.1133 102.359 23.1133C104.298 23.1133 106.026 23.415 107.547 24.0185C109.065 24.622 110.346 25.4831 111.387 26.6053C112.428 27.7275 113.224 29.1022 113.775 30.7313C114.325 32.3603 114.601 34.1877 114.601 36.2134C114.601 38.4561 114.296 40.4055 113.686 42.0583C113.076 43.711 112.226 45.0739 111.138 46.147C110.049 47.22 108.769 48.0167 107.298 48.5354C105.826 49.0541 104.229 49.3135 102.505 49.3135M102.685 44.5366C103.595 44.5366 104.432 44.3687 105.197 44.0297C105.962 43.6924 106.622 43.1787 107.172 42.4922C107.721 41.804 108.147 40.9429 108.446 39.9054C108.746 38.868 108.895 37.6373 108.895 36.2134C108.895 33.3418 108.297 31.2381 107.101 29.899C105.904 28.5598 104.325 27.8902 102.362 27.8902C101.476 27.8902 100.644 28.0597 99.8668 28.3971C99.0882 28.7344 98.4139 29.248 97.8388 29.9363C97.2637 30.6228 96.8147 31.4924 96.4918 32.5417C96.169 33.591 96.0075 34.8166 96.0075 36.2151C96.0075 37.6136 96.1807 38.8697 96.5271 39.9071C96.8735 40.9445 97.3461 41.8074 97.9447 42.4939C98.5434 43.1821 99.2496 43.6941 100.063 44.0314C100.877 44.3687 101.752 44.5383 102.685 44.5383" fill="#404040"/>
<path d="M138.725 47.878C138.389 48.0458 138.026 48.2136 137.63 48.3814C137.235 48.5492 136.77 48.7052 136.23 48.8493C135.692 48.9934 135.069 49.1069 134.363 49.19C133.657 49.2731 132.85 49.3154 131.94 49.3154C130.025 49.3154 128.284 49.0374 126.717 48.4831C125.15 47.9288 123.81 47.1151 122.696 46.0404C121.583 44.9674 120.722 43.6333 120.112 42.0416C119.501 40.4498 119.195 38.6157 119.195 36.5408C119.195 34.4659 119.501 32.4453 120.112 30.7688C120.722 29.0923 121.602 27.687 122.75 26.553C123.899 25.4189 125.293 24.5629 126.932 23.9831C128.572 23.4034 130.42 23.1152 132.48 23.1152C133.844 23.1152 135.069 23.2356 136.159 23.4763C137.249 23.717 138.127 23.995 138.798 24.3086L137.612 28.8686C136.845 28.6024 136.068 28.4109 135.278 28.2888C134.488 28.1685 133.807 28.1074 133.231 28.1074C131.987 28.1074 130.857 28.2651 129.84 28.5787C128.822 28.8923 127.948 29.3822 127.218 30.0484C126.487 30.7129 125.92 31.5605 125.513 32.5877C125.106 33.6167 124.904 34.8304 124.904 36.2323C124.904 38.9157 125.651 40.9346 127.148 42.2891C128.642 43.6435 130.659 44.3198 133.196 44.3198C133.771 44.3198 134.464 44.2419 135.278 44.0842C136.092 43.9283 136.882 43.6808 137.647 43.3417L138.724 47.8746L138.725 47.878Z" fill="#404040"/>
<path d="M159.186 43.3453H149.528L147.734 48.8816H142.422L151.001 23.5493H158.002L166.474 48.8816H160.981L159.187 43.3453H159.186ZM151.001 38.5683H157.714L154.376 27.9296L151.001 38.5683Z" fill="#404040"/>
<path d="M178.717 48.8816H173.333V28.5432H166.188V23.5493H185.825V28.5432H178.717V48.8816Z" fill="#404040"/>
<path d="M200.543 49.3152C198.725 49.3152 197.067 49.0304 195.57 48.4642C194.073 47.898 192.789 47.0589 191.711 45.9486C190.633 44.84 189.802 43.4703 189.215 41.8413C188.629 40.2122 188.336 38.3374 188.336 36.2151C188.336 34.0928 188.64 32.2162 189.252 30.5872C189.863 28.9582 190.707 27.5902 191.783 26.4798C192.859 25.3695 194.134 24.5321 195.605 23.9642C197.078 23.3981 198.676 23.1133 200.398 23.1133C202.337 23.1133 204.065 23.415 205.586 24.0185C207.104 24.622 208.385 25.4831 209.426 26.6053C210.467 27.7275 211.263 29.1022 211.814 30.7313C212.364 32.3603 212.64 34.1877 212.64 36.2134C212.64 38.4561 212.334 40.4055 211.725 42.0583C211.115 43.711 210.265 45.0739 209.176 46.147C208.086 47.22 206.806 48.0167 205.335 48.5354C203.862 49.0541 202.266 49.3135 200.543 49.3135M200.722 44.5366C201.631 44.5366 202.468 44.3687 203.235 44.0297C204.002 43.6924 204.657 43.1787 205.209 42.4922C205.759 41.804 206.184 40.9429 206.484 39.9054C206.783 38.868 206.933 37.6373 206.933 36.2134C206.933 33.3418 206.334 31.2381 205.138 29.899C203.941 28.5598 202.362 27.8902 200.4 27.8902C199.513 27.8902 198.683 28.0597 197.904 28.3971C197.127 28.7344 196.45 29.248 195.876 29.9363C195.301 30.6228 194.852 31.4924 194.529 32.5417C194.206 33.591 194.045 34.8166 194.045 36.2151C194.045 37.6136 194.218 38.8697 194.565 39.9071C194.911 40.9445 195.385 41.8074 195.984 42.4939C196.581 43.1821 197.287 43.6941 198.101 44.0314C198.913 44.3687 199.788 44.5383 200.722 44.5383" fill="#404040"/>
<path d="M246.244 48.8816H240.824L239.459 32.0539L234.289 48.8816H229.155L224.059 32.1268L222.695 48.8816H217.273L219.786 23.5493H226.213L231.885 42.657L237.484 23.5493H243.694L246.244 48.8816Z" fill="#404040"/>
<path d="M38.4106 36.2205C38.4072 39.009 36.164 41.2652 33.4011 41.2636C30.6366 41.2619 28.3968 38.9988 28.3984 36.212C28.4018 33.4235 30.6467 31.1673 33.4095 31.1689C36.1724 31.1723 38.4122 33.4337 38.4106 36.2205Z" fill="#035FA2"/>
<path d="M33.454 12.1899C29.8419 12.1899 26.4165 12.9985 23.3477 14.4428C27.4305 14.019 31.6715 15.7904 34.8026 18.9773C34.8026 18.9773 34.8043 18.9773 34.8059 18.9773C36.3715 20.5352 37.7437 22.5575 38.9107 24.99C45.5529 26.1885 50.0629 22.8626 51.8404 20.8945C47.4615 15.5785 40.8512 12.1916 33.454 12.1916" fill="#035FA2"/>
<path d="M19.0737 17.0347C15.8013 19.5232 13.1848 22.8423 11.5352 26.6784C13.5194 27.17 19.4588 29.1161 22.1829 36.5188C23.0019 36.2492 24.7692 35.2135 25.9951 31.213C27.4984 26.3123 30.2377 21.5828 33.7892 19.4893C29.8745 15.6634 23.9301 13.992 19.0737 17.0347Z" fill="#035FA2"/>
<path d="M54.1233 48.2307C55.9293 45.0828 56.9467 41.6925 57.2376 38.2954C55.5611 42.0654 51.9154 44.876 47.6089 46.0117C47.6089 46.0117 47.6089 46.0134 47.6089 46.0151C45.485 46.5999 43.0602 46.7864 40.3831 46.5864C36.0312 51.7752 36.6366 57.3692 37.442 59.9035C37.442 59.9035 37.442 59.9035 37.442 59.9052C44.2054 58.7474 50.4255 54.679 54.1233 48.2324" fill="#035FA2"/>
<path d="M57.1438 33.2791C56.6376 29.1819 55.0906 25.2441 52.6136 21.8877C51.1977 23.3709 46.5549 27.5749 38.8213 26.2476C38.6431 27.0969 38.6515 29.1548 41.4799 32.223C44.9456 35.9845 47.6462 40.736 47.6715 44.879C52.9214 43.3788 57.3321 39.0358 57.1421 33.2808" fill="#035FA2"/>
<path d="M12.7748 48.2273C14.5808 51.3752 16.9888 53.9569 19.7668 55.9097C17.3604 52.5635 16.7651 47.9815 17.9406 43.6605C17.9406 43.6605 17.9389 43.6605 17.9372 43.6588C18.4955 41.5145 19.5482 39.3091 21.0582 37.0766C18.7679 30.6893 13.6509 28.4195 11.0696 27.855C11.0696 27.855 11.0696 27.855 11.0679 27.855C8.68178 34.3288 9.07359 41.784 12.7731 48.2307" fill="#035FA2"/>
<path d="M24.1304 58.3355C27.9089 59.9442 32.0725 60.5646 36.1991 60.0849C35.6307 58.11 34.3342 51.9617 39.3437 45.8846C38.703 45.3049 36.9272 44.2827 32.873 45.215C27.9039 46.3542 22.464 46.3321 18.8872 44.2827C17.5538 49.6072 19.0857 55.625 24.1321 58.3355" fill="#035FA2"/>
</svg>
