<svg width="72" height="72" viewBox="0 0 72 72" fill="none" xmlns="http://www.w3.org/2000/svg">
<path d="M41.8589 41.1335C40.8532 42.217 39.5499 42.9798 38.1123 43.3264C36.6747 43.673 35.1668 43.5879 33.7773 43.082C32.3879 42.576 31.1787 41.6715 30.3013 40.4819C29.4239 39.2923 28.9173 37.8705 28.8449 36.3944C28.7726 34.9184 29.1377 33.4538 29.8945 32.1842C30.6513 30.9146 31.7661 29.8963 33.0994 29.2571C34.4327 28.6178 35.9251 28.3858 37.3898 28.5903C38.8544 28.7948 40.226 29.4266 41.3329 30.4066C42.0823 31.0701 42.6915 31.8765 43.1246 32.7786C43.5577 33.6807 43.8061 34.6601 43.8551 35.6594C43.9041 36.6588 43.7528 37.6578 43.41 38.5978C43.0672 39.5379 42.5398 40.4 41.8589 41.1335Z" fill="url(#paint0_radial_1325_10290)"/>
<path d="M38.272 10.2076C38.889 10.8048 39.4731 11.435 40.0217 12.0956C41.8445 14.2766 43.3447 16.7078 44.4764 19.3148C46.2656 19.6555 48.089 19.7815 49.9081 19.6903H50.2301H50.5199C55.473 19.2353 60.0959 17.0111 63.5407 13.4257L63.9916 12.943C63.3153 12.1278 62.6069 11.3232 61.8447 10.5509C55.7014 4.42521 47.5576 0.712991 38.9013 0.0925845C30.2451 -0.527822 21.6544 1.98502 14.6992 7.17191C25.8093 1.79771 33.4952 5.50923 38.272 10.2076Z" fill="url(#paint1_linear_1325_10290)"/>
<path d="M12.7026 46.8614C12.9173 46.0033 13.1857 45.188 13.4648 44.405C14.4359 41.7227 15.788 39.1938 17.4795 36.8961C16.8776 35.1769 16.0741 33.5349 15.0857 32.0046L14.9139 31.7364C14.8628 31.6535 14.8054 31.5746 14.7422 31.5005C11.8835 27.4598 7.66574 24.5814 2.8592 23.3909L2.21513 23.23C1.85016 24.2383 1.50666 25.2466 1.21683 26.2979C-1.01493 34.6754 -0.157798 43.5755 3.63178 51.3739C7.42136 59.1723 13.8907 65.3489 21.8591 68.7766C11.6507 61.8577 11.0173 53.3512 12.7026 46.8614Z" fill="url(#paint2_linear_1325_10290)"/>
<path d="M57.3455 50.7022C56.5194 50.938 55.6808 51.1278 54.8336 51.2707C52.0359 51.7515 49.1835 51.8273 46.3642 51.496C45.1718 52.8748 44.1484 54.3908 43.3156 56.012L43.1761 56.2909L43.0473 56.5591C40.9771 61.067 40.5961 66.1681 41.9738 70.9332C41.9738 71.137 42.0919 71.3515 42.1563 71.5661C43.2298 71.3837 44.3032 71.1692 45.3122 70.8903C53.6739 68.6271 60.9435 63.4372 65.7965 56.2662C70.6494 49.0951 72.7627 40.4204 71.7511 31.8228C70.8386 44.1158 63.7969 48.9215 57.3455 50.7022Z" fill="url(#paint3_linear_1325_10290)"/>
<path d="M14.6994 7.17226C9.41099 10.8658 5.27642 15.9793 2.77344 21.9218C6.49962 22.7169 9.94935 24.482 12.7732 27.0383C15.597 29.5945 17.6946 32.8511 18.8536 36.4783C19.8411 35.8454 22.9004 33.4318 24.9614 26.824C27.4411 18.7788 32.1535 12.879 38.2721 10.2724C38.2721 10.208 30.5326 -0.830037 14.6994 7.17226Z" fill="url(#paint4_linear_1325_10290)"/>
<path d="M39.5369 65.0654C39.5311 59.6764 41.5499 54.4815 45.194 50.509V50.4339C44.4533 49.6401 41.8663 47.6985 35.211 49.211C26.9992 51.0882 17.9393 50.863 12.6687 46.8618C12.6687 46.8618 6.97949 59.0798 21.8252 68.777C27.6651 71.5081 34.1584 72.5344 40.5567 71.7376C39.8519 69.5847 39.5074 67.3304 39.5369 65.0654Z" fill="url(#paint5_linear_1325_10290)"/>
<path d="M64.9457 14.123C62.9465 16.3922 60.4878 18.2111 57.7324 19.4594C54.9769 20.7076 51.9876 21.3567 48.9622 21.3637C47.3677 21.3562 45.778 21.1873 44.2176 20.8596H44.1317C43.8311 21.9323 43.5735 25.1503 48.1034 30.0204C53.8249 36.1884 58.1616 44.137 57.3458 50.7127C57.3458 50.7127 70.7745 49.5327 71.7513 31.8332C71.2007 25.4063 68.8413 19.2663 64.9457 14.123Z" fill="url(#paint6_linear_1325_10290)"/>
<defs>
<radialGradient id="paint0_radial_1325_10290" cx="0" cy="0" r="1" gradientUnits="userSpaceOnUse" gradientTransform="translate(39.4447 27.8637) scale(10.5528 10.5454)">
<stop stop-color="#4495D1"/>
<stop offset="1" stop-color="#15256D"/>
</radialGradient>
<linearGradient id="paint1_linear_1325_10290" x1="25.9598" y1="2.43313" x2="57.7041" y2="15.2141" gradientUnits="userSpaceOnUse">
<stop stop-color="#4495D1"/>
<stop offset="1" stop-color="#15256D"/>
</linearGradient>
<linearGradient id="paint2_linear_1325_10290" x1="12.1628" y1="61.4079" x2="7.3676" y2="27.5492" gradientUnits="userSpaceOnUse">
<stop stop-color="#4495D1"/>
<stop offset="1" stop-color="#15256D"/>
</linearGradient>
<linearGradient id="paint3_linear_1325_10290" x1="70.2428" y1="43.9188" x2="43.3159" y2="65.0214" gradientUnits="userSpaceOnUse">
<stop stop-color="#4495D1"/>
<stop offset="1" stop-color="#15256D"/>
</linearGradient>
<linearGradient id="paint4_linear_1325_10290" x1="13.2502" y1="26.706" x2="27.5131" y2="4.82472" gradientUnits="userSpaceOnUse">
<stop stop-color="#4495D1"/>
<stop offset="1" stop-color="#15256D"/>
</linearGradient>
<linearGradient id="paint5_linear_1325_10290" x1="40.2454" y1="57.9213" x2="14.655" y2="60.5315" gradientUnits="userSpaceOnUse">
<stop stop-color="#4495D1"/>
<stop offset="1" stop-color="#15256D"/>
</linearGradient>
<linearGradient id="paint6_linear_1325_10290" x1="56.7339" y1="20.9132" x2="61.9438" y2="47.2385" gradientUnits="userSpaceOnUse">
<stop stop-color="#4495D1"/>
<stop offset="1" stop-color="#15256D"/>
</linearGradient>
</defs>
</svg>
