<svg width="504" height="74" viewBox="0 0 504 74" fill="none" xmlns="http://www.w3.org/2000/svg">
<path d="M295.676 31.5812H293.004V19.0117H300.61V21.4544H295.676V31.5812Z" fill="white"/>
<path d="M306.559 31.5851H303.887V19.0156H308.18C311.314 19.0156 313.292 20.326 313.292 23.2179C313.292 26.1098 311.26 27.6524 307.931 27.6524H306.559V31.5851ZM306.505 25.2826H307.966C309.569 25.2826 310.531 24.6537 310.531 23.3247C310.531 21.9245 309.623 21.3854 307.983 21.3854H306.505V25.2826Z" fill="white"/>
<path d="M318.939 29.8798C319.58 29.4849 320.114 29.0187 320.417 28.461L320.471 28.3355L315.84 19.0156H318.939L321.878 25.6945L324.265 19.0156H327.026L323.089 28.8017C322.501 30.2562 321.487 31.3868 320.436 31.9615L318.939 29.8781V29.8798Z" fill="white"/>
<path d="M340.171 31.5851H337.501V21.4397H332.727V31.5851H330.055V19.0156H340.171V31.5851Z" fill="white"/>
<path d="M354.493 31.5851H351.821V21.4397H347.047V31.5851H344.375V19.0156H354.493V31.5851Z" fill="white"/>
<path d="M365.932 28.8204H361.141L360.25 31.5851H357.613L361.871 19.0156H365.345L369.549 31.5851H366.823L365.932 28.8204ZM361.871 26.4675H365.202L363.546 21.1888L361.871 26.4675Z" fill="white"/>
<path d="M381.246 24.2752H381.887L385.716 19.0134H388.815L384.416 24.5074C385.859 24.9566 386.483 27.2179 389.012 31.5812H385.948C383.4 27.1467 383.738 26.3924 382.208 26.3924H381.246V31.5812H378.574V19.0117H381.246V24.2735V24.2752Z" fill="white"/>
<path d="M390.634 25.2978C390.634 21.0785 393.182 18.7969 396.619 18.7969C400.467 18.7969 402.693 21.2565 402.693 25.2978C402.693 29.7696 400.11 31.7987 396.69 31.7987C393.074 31.7987 390.633 29.5187 390.633 25.2978M399.86 25.2978C399.86 22.4431 398.56 21.1684 396.618 21.1684C394.854 21.1684 393.465 22.4974 393.465 25.2978C393.465 28.0982 394.907 29.4271 396.777 29.4271C398.647 29.4271 399.86 28.1168 399.86 25.2978Z" fill="white"/>
<path d="M420.438 31.5851H417.748L417.072 23.2348L414.506 31.5851H411.96L409.429 23.2721L408.753 31.5851H406.062L407.31 19.0156H410.498L413.313 28.4966L416.091 19.0156H419.174L420.438 31.5851Z" fill="white"/>
<path d="M434.349 31.5851H431.677V21.4397H426.902V31.5851H424.23V19.0156H434.349V31.5851Z" fill="white"/>
<path d="M445.784 28.8204H440.993L440.102 31.5851H437.465L441.723 19.0156H445.197L449.401 31.5851H446.675L445.784 28.8204ZM441.723 26.4675H445.054L443.397 21.1888L441.723 26.4675Z" fill="white"/>
<path d="M463.01 31.5851H460.338V26.3421H455.172V31.5851H452.5V19.0156H455.172V23.9349H460.338V19.0156H463.01V31.5851Z" fill="white"/>
<path d="M477.777 31.5851H475.105V22.8229L470.082 31.5851H467.215V19.0156H469.887V27.7609L474.927 19.0156H477.777V31.5851Z" fill="white"/>
<path d="M492.542 31.5856H489.87V22.8234L484.848 31.5856H481.98V19.0161H484.653V27.7614L489.694 19.0161H492.544V31.5856H492.542ZM490.868 15.3529C490.779 17.2735 489.211 18.0651 487.288 18.0651C485.364 18.0651 483.797 17.2752 483.689 15.3529L485.772 15.1562C485.951 16.0174 486.485 16.3056 487.286 16.3056C488.086 16.3056 488.604 16.0174 488.764 15.1562L490.866 15.3529H490.868Z" fill="white"/>
<path d="M301.323 50.7266H296.532L295.641 53.4914H293.004L297.262 40.9219H300.734L304.938 53.4914H302.212L301.321 50.7266H301.323ZM297.262 48.3737H300.593L298.937 43.0951L297.262 48.3737Z" fill="white"/>
<path d="M312.084 53.4914H309.412V43.4002H305.867V40.9219H315.61V43.4002H312.084V53.4914Z" fill="white"/>
<path d="M317.924 47.2079C317.924 42.9887 320.471 40.707 323.908 40.707C327.756 40.707 329.982 43.1667 329.982 47.2079C329.982 51.6797 327.399 53.7088 323.979 53.7088C320.364 53.7088 317.922 51.4288 317.922 47.2079M327.149 47.2079C327.149 44.3533 325.849 43.0785 323.907 43.0785C322.143 43.0785 320.754 44.4075 320.754 47.2079C320.754 50.0083 322.196 51.3373 324.066 51.3373C325.936 51.3373 327.149 50.027 327.149 47.2079Z" fill="white"/>
<path d="M347.726 53.4914H345.037L344.359 45.1428L341.795 53.4914H339.247L336.718 45.1784L336.04 53.4914H333.352L334.598 40.9219H337.786L340.601 50.4028L343.379 40.9219H346.461L347.726 53.4914Z" fill="white"/>
<path d="M363.239 56.2918H360.71V53.4897H353.158V56.2918H350.629V51.0656H351.804C353.015 49.0196 353.247 46.1463 353.355 42.2678L353.39 40.9219H361.744V51.0673H363.241V56.2935L363.239 56.2918ZM359.07 51.0656V43.3442H355.864C355.845 43.4697 355.828 43.9359 355.828 44.0443C355.704 46.7549 355.366 49.2162 354.528 51.0656H359.07Z" fill="white"/>
<path d="M374.588 50.7266H369.797L368.906 53.4914H366.27L370.527 40.9219H374.001L378.205 53.4914H375.48L374.588 50.7266ZM370.527 48.3737H373.858L372.202 43.0951L370.527 48.3737Z" fill="white"/>
<path d="M385.346 53.4914H382.674V43.4002H379.129V40.9219H388.874V43.4002H385.346V53.4914Z" fill="white"/>
<path d="M398.135 50.7266H393.344L392.453 53.4914H389.816L394.074 40.9219H397.548L401.752 53.4914H399.026L398.135 50.7266ZM394.074 48.3737H397.405L395.749 43.0951L394.074 48.3737Z" fill="white"/>
<path d="M270.952 18.9219H269.41V53.4893H270.952V18.9219Z" fill="white"/>
<path d="M72.6383 48.8831H67.2539V23.5508H75.9056C77.4863 23.5508 78.9089 23.7203 80.1785 24.0576C81.4465 24.395 82.5294 24.9086 83.4273 25.5951C84.3253 26.2817 85.0131 27.1631 85.4907 28.2362C85.9699 29.3092 86.2087 30.5704 86.2087 32.018C86.2087 33.4657 85.9632 34.7082 85.4722 35.8186C84.9811 36.9289 84.2698 37.8629 83.3365 38.6223C82.4033 39.3818 81.2665 39.9615 79.9263 40.3599C78.5861 40.7582 77.0777 40.9566 75.4029 40.9566H72.6383V48.8814V48.8831ZM72.5307 36.1813H75.4752C77.1012 36.1813 78.3708 35.8626 79.2806 35.2219C80.1903 34.5828 80.6443 33.5878 80.6443 32.2367C80.6443 30.8128 80.2021 29.8059 79.3159 29.216C78.4314 28.6244 77.1618 28.3294 75.5105 28.3294H72.5307V36.1813Z" fill="white"/>
<path d="M102.503 49.3152C100.684 49.3152 99.0276 49.0304 97.531 48.4642C96.0344 47.898 94.7497 47.0589 93.6718 45.9486C92.5956 44.84 91.7632 43.4703 91.1763 41.8413C90.5895 40.2122 90.2969 38.3374 90.2969 36.2151C90.2969 34.0928 90.6012 32.2162 91.2117 30.5872C91.8221 28.9582 92.6662 27.5902 93.7424 26.4798C94.8203 25.3695 96.0933 24.5321 97.5664 23.9642C99.0377 23.3981 100.635 23.1133 102.359 23.1133C104.298 23.1133 106.026 23.415 107.547 24.0185C109.065 24.622 110.346 25.4831 111.387 26.6053C112.428 27.7275 113.224 29.1022 113.775 30.7313C114.325 32.3603 114.601 34.1877 114.601 36.2134C114.601 38.4561 114.296 40.4055 113.686 42.0583C113.076 43.711 112.226 45.0739 111.138 46.147C110.049 47.22 108.769 48.0167 107.298 48.5354C105.826 49.0541 104.229 49.3135 102.505 49.3135M102.685 44.5366C103.595 44.5366 104.432 44.3687 105.197 44.0297C105.962 43.6924 106.622 43.1787 107.172 42.4922C107.721 41.804 108.147 40.9428 108.446 39.9054C108.746 38.868 108.895 37.6373 108.895 36.2134C108.895 33.3418 108.297 31.2381 107.101 29.899C105.904 28.5598 104.325 27.8902 102.362 27.8902C101.476 27.8902 100.644 28.0597 99.8668 28.3971C99.0882 28.7344 98.4139 29.248 97.8388 29.9363C97.2637 30.6228 96.8147 31.4924 96.4918 32.5417C96.169 33.591 96.0075 34.8166 96.0075 36.2151C96.0075 37.6136 96.1807 38.8697 96.5271 39.9071C96.8735 40.9445 97.3461 41.8074 97.9447 42.4939C98.5434 43.1821 99.2496 43.6941 100.063 44.0314C100.877 44.3687 101.752 44.5383 102.685 44.5383" fill="white"/>
<path d="M138.725 47.8799C138.389 48.0477 138.026 48.2156 137.63 48.3834C137.235 48.5512 136.77 48.7071 136.23 48.8512C135.692 48.9953 135.069 49.1089 134.363 49.192C133.657 49.275 132.85 49.3174 131.94 49.3174C130.025 49.3174 128.284 49.0394 126.717 48.4851C125.15 47.9308 123.81 47.1171 122.696 46.0424C121.583 44.9693 120.722 43.6353 120.112 42.0435C119.501 40.4518 119.195 38.6176 119.195 36.5428C119.195 34.4679 119.501 32.4473 120.112 30.7708C120.722 29.0943 121.602 27.689 122.75 26.5549C123.899 25.4209 125.293 24.5648 126.932 23.9851C128.572 23.4054 130.42 23.1172 132.48 23.1172C133.844 23.1172 135.069 23.2375 136.159 23.4783C137.249 23.719 138.127 23.997 138.797 24.3106L137.612 28.8705C136.845 28.6044 136.068 28.4128 135.278 28.2908C134.488 28.1704 133.807 28.1094 133.231 28.1094C131.987 28.1094 130.857 28.267 129.84 28.5806C128.822 28.8943 127.948 29.3841 127.218 30.0503C126.487 30.7148 125.92 31.5624 125.513 32.5897C125.106 33.6186 124.904 34.8324 124.904 36.2342C124.904 38.9177 125.651 40.9366 127.148 42.291C128.642 43.6454 130.659 44.3218 133.196 44.3218C133.771 44.3218 134.464 44.2438 135.278 44.0862C136.092 43.9302 136.882 43.6827 137.647 43.3437L138.724 47.8765L138.725 47.8799Z" fill="white"/>
<path d="M159.186 43.3467H149.528L147.734 48.8831H142.422L151.001 23.5508H158.002L166.474 48.8831H160.981L159.187 43.3467H159.186ZM151.001 38.5698H157.714L154.376 27.931L151.001 38.5698Z" fill="white"/>
<path d="M178.717 48.8831H173.333V28.5447H166.188V23.5508H185.825V28.5447H178.717V48.8831Z" fill="white"/>
<path d="M200.543 49.3152C198.725 49.3152 197.067 49.0304 195.57 48.4642C194.073 47.898 192.789 47.0589 191.711 45.9486C190.633 44.84 189.802 43.4703 189.215 41.8413C188.629 40.2122 188.336 38.3374 188.336 36.2151C188.336 34.0928 188.64 32.2162 189.252 30.5872C189.863 28.9582 190.707 27.5902 191.783 26.4798C192.859 25.3695 194.134 24.5321 195.605 23.9642C197.078 23.3981 198.676 23.1133 200.398 23.1133C202.337 23.1133 204.065 23.415 205.586 24.0185C207.104 24.622 208.385 25.4831 209.426 26.6053C210.467 27.7275 211.263 29.1022 211.814 30.7313C212.364 32.3603 212.64 34.1877 212.64 36.2134C212.64 38.4561 212.334 40.4055 211.725 42.0583C211.115 43.711 210.265 45.0739 209.176 46.147C208.086 47.22 206.806 48.0167 205.335 48.5354C203.862 49.0541 202.266 49.3135 200.543 49.3135M200.722 44.5366C201.631 44.5366 202.468 44.3687 203.235 44.0297C204.002 43.6924 204.657 43.1787 205.209 42.4922C205.759 41.804 206.184 40.9428 206.484 39.9054C206.783 38.868 206.933 37.6373 206.933 36.2134C206.933 33.3418 206.334 31.2381 205.138 29.899C203.941 28.5598 202.362 27.8902 200.4 27.8902C199.513 27.8902 198.683 28.0597 197.904 28.3971C197.127 28.7344 196.45 29.248 195.876 29.9363C195.301 30.6228 194.852 31.4924 194.529 32.5417C194.206 33.591 194.045 34.8166 194.045 36.2151C194.045 37.6136 194.218 38.8697 194.565 39.9071C194.911 40.9445 195.385 41.8074 195.984 42.4939C196.581 43.1821 197.287 43.6941 198.101 44.0314C198.913 44.3687 199.788 44.5383 200.722 44.5383" fill="white"/>
<path d="M246.244 48.8831H240.824L239.459 32.0553L234.289 48.8831H229.155L224.059 32.1282L222.695 48.8831H217.273L219.786 23.5508H226.213L231.885 42.6585L237.484 23.5508H243.694L246.244 48.8831Z" fill="white"/>
<path d="M38.4106 36.2234C38.4072 39.0119 36.164 41.2682 33.4011 41.2665C30.6366 41.2648 28.3968 39.0018 28.3984 36.2149C28.4018 33.4264 30.6467 31.1702 33.4095 31.1719C36.1724 31.1753 38.4123 33.4366 38.4106 36.2234Z" fill="white"/>
<path d="M33.454 12.1914C29.8419 12.1914 26.4165 13 23.3477 14.4443C27.4305 14.0205 31.6715 15.7919 34.8026 18.9788C34.8026 18.9788 34.8043 18.9788 34.8059 18.9788C36.3715 20.5366 37.7437 22.5589 38.9107 24.9915C45.5529 26.1899 50.0629 22.8641 51.8404 20.896C47.4615 15.58 40.8512 12.1931 33.454 12.1931" fill="white"/>
<path d="M19.0737 17.0377C15.8013 19.5262 13.1848 22.8453 11.5352 26.6814C13.5194 27.173 19.4588 29.119 22.1829 36.5217C23.0019 36.2522 24.7692 35.2164 25.9951 31.2159C27.4984 26.3152 30.2377 21.5858 33.7892 19.4923C29.8745 15.6663 23.9301 13.9949 19.0737 17.0377Z" fill="white"/>
<path d="M54.1233 48.2321C55.9293 45.0842 56.9467 41.694 57.2376 38.2969C55.5611 42.0669 51.9154 44.8774 47.6089 46.0132C47.6089 46.0132 47.6089 46.0149 47.6089 46.0166C45.485 46.6014 43.0602 46.7879 40.3831 46.5878C36.0312 51.7767 36.6366 57.3707 37.442 59.9049C37.442 59.9049 37.442 59.9049 37.442 59.9066C44.2054 58.7488 50.4255 54.6805 54.1233 48.2338" fill="white"/>
<path d="M57.1438 33.282C56.6376 29.1848 55.0906 25.247 52.6136 21.8906C51.1977 23.3739 46.5549 27.5778 38.8213 26.2505C38.6431 27.0998 38.6515 29.1577 41.4799 32.2259C44.9456 35.9875 47.6462 40.739 47.6715 44.8819C52.9214 43.3817 57.3321 39.0387 57.1421 33.2837" fill="white"/>
<path d="M12.7748 48.2278C14.5808 51.3756 16.9888 53.9574 19.7668 55.9102C17.3604 52.5639 16.7651 47.982 17.9406 43.661C17.9406 43.661 17.9389 43.661 17.9372 43.6593C18.4955 41.515 19.5482 39.3096 21.0582 37.0771C18.7679 30.6898 13.6509 28.42 11.0696 27.8555C11.0696 27.8555 11.0696 27.8555 11.0679 27.8555C8.68178 34.3292 9.07359 41.7845 12.7731 48.2311" fill="white"/>
<path d="M24.1304 58.3379C27.9089 59.9466 32.0725 60.5671 36.1991 60.0873C35.6307 58.1125 34.3342 51.9642 39.3437 45.8871C38.703 45.3073 36.9272 44.2852 32.873 45.2175C27.9039 46.3566 22.464 46.3346 18.8872 44.2852C17.5538 49.6096 19.0857 55.6274 24.1321 58.3379" fill="white"/>
</svg>
