<svg width="72" height="72" viewBox="0 0 72 72" fill="none" xmlns="http://www.w3.org/2000/svg">
<path fill-rule="evenodd" clip-rule="evenodd" d="M41.8886 41.1025C39.1011 44.1945 34.3381 44.4305 31.2543 41.632C28.1732 38.8335 27.9372 34.0541 30.722 30.9647C33.5123 27.8754 38.2725 27.6422 41.3591 30.4407C44.4402 33.2392 44.6761 38.0131 41.8886 41.1052V41.1025ZM18.864 36.2956C18.864 36.2956 23.0591 34.1611 25.4872 24.6681C27.9153 15.1751 36.972 10.7606 36.972 10.7606C36.972 10.7606 17.5416 -8.52164 2.82201 21.7269C2.82201 21.7269 14.8227 24.081 18.864 36.2984V36.2956ZM20.6309 3.32537C48.7093 -7.89883 63.9035 12.8897 63.9035 12.8897C54.8166 22.4951 44.4731 19.1452 44.4731 19.1452C35.6057 0.381455 20.6309 3.32537 20.6309 3.32537ZM45.063 50.5159C45.063 50.5159 41.1149 47.9506 31.6796 50.5954C22.2469 53.243 13.8926 47.6131 13.8926 47.6131C13.8926 47.6131 6.91551 74.0809 40.4729 71.6967C40.4729 71.6967 36.5083 60.1323 45.063 50.5159ZM15.6293 65.4797C-8.13332 46.7818 2.26505 23.2222 2.26505 23.2222C15.13 26.2896 17.4017 36.9157 17.4017 36.9157C5.59034 53.9838 15.632 65.4797 15.632 65.4797H15.6293ZM44.3195 20.8298C44.3195 20.8298 44.0725 25.5323 51.0825 32.3805C58.0925 39.2258 57.3984 49.273 57.3984 49.273C57.3984 49.273 83.8086 42.0765 64.9571 14.2121C64.9571 14.2121 56.9237 23.428 44.3167 20.8298H44.3195ZM72 38.8335C72 38.8335 67.0669 53.2787 46.3799 51.5859C46.3799 51.5859 38.3137 58.8675 42.0916 71.5431C42.0916 71.5431 67.6952 68.7665 72 38.8362V38.8335Z" fill="white"/>
</svg>
