<svg width="230" height="125" viewBox="0 0 230 125" fill="none" xmlns="http://www.w3.org/2000/svg">
<path d="M26.8153 26.4216C26.1711 27.1175 25.3362 27.6075 24.4152 27.8301C23.4943 28.0528 22.5283 27.9982 21.6382 27.6732C20.7481 27.3481 19.9735 26.7672 19.4114 26.0031C18.8493 25.239 18.5248 24.3257 18.4784 23.3776C18.4321 22.4295 18.6659 21.4887 19.1508 20.6732C19.6356 19.8577 20.3498 19.2037 21.2039 18.793C22.058 18.3824 23.0141 18.2334 23.9523 18.3648C24.8906 18.4961 25.7693 18.9019 26.4784 19.5314C26.9585 19.9576 27.3487 20.4756 27.6262 21.055C27.9036 21.6344 28.0627 22.2636 28.0941 22.9055C28.1255 23.5474 28.0286 24.1891 27.809 24.7929C27.5894 25.3967 27.2515 25.9505 26.8153 26.4216Z" fill="url(#paint0_radial_2976_20346)"/>
<path d="M24.5151 6.55664C24.9104 6.94021 25.2845 7.34503 25.6359 7.76932C26.8037 9.17028 27.7647 10.7319 28.4897 12.4064C29.6359 12.6253 30.804 12.7062 31.9693 12.6476H32.1756H32.3612C35.5342 12.3553 38.4957 10.9267 40.7026 8.62371L40.9914 8.31365C40.5581 7.78999 40.1043 7.27322 39.6161 6.77713C35.6806 2.84244 30.4635 0.457974 24.9182 0.0594696C19.3729 -0.339035 13.8697 1.27503 9.41406 4.60671C16.5313 1.15472 21.455 3.53873 24.5151 6.55664Z" fill="url(#paint1_linear_2976_20346)"/>
<path d="M8.13747 30.1005C8.275 29.5493 8.44692 29.0257 8.62571 28.5227C9.24784 26.7997 10.114 25.1754 11.1976 23.6995C10.812 22.5952 10.2973 21.5405 9.66408 20.5576L9.55405 20.3853C9.52131 20.332 9.48453 20.2814 9.44403 20.2337C7.61269 17.6383 4.91077 15.7894 1.83164 15.0247L1.41904 14.9214C1.18524 15.5691 0.965187 16.2167 0.779519 16.892C-0.650174 22.2731 -0.101087 27.9899 2.32656 32.999C4.75422 38.0081 8.89856 41.9755 14.0032 44.1772C7.46357 39.733 7.05785 34.2691 8.13747 30.1005Z" fill="url(#paint2_linear_2976_20346)"/>
<path d="M36.7396 32.5672C36.2104 32.7187 35.6732 32.8406 35.1305 32.9324C33.3383 33.2412 31.511 33.2899 29.7049 33.0771C28.941 33.9627 28.2854 34.9365 27.7519 35.9779L27.6625 36.157L27.58 36.3293C26.2538 39.2248 26.0098 42.5014 26.8923 45.5621C26.8923 45.6931 26.968 45.8309 27.0092 45.9687C27.6969 45.8515 28.3846 45.7137 29.031 45.5346C34.3875 44.0809 39.0446 40.7472 42.1534 36.1411C45.2623 31.535 46.6161 25.963 45.968 20.4404C45.3835 28.3366 40.8725 31.4234 36.7396 32.5672Z" fill="url(#paint3_linear_2976_20346)"/>
<path d="M9.41724 4.60735C6.02945 6.9798 3.38078 10.2643 1.77734 14.0814C4.16439 14.5921 6.37432 15.7259 8.1833 17.3678C9.99228 19.0098 11.336 21.1016 12.0785 23.4314C12.7111 23.0249 14.671 21.4746 15.9913 17.2302C17.5798 12.0626 20.5986 8.27295 24.5182 6.59862C24.5182 6.55728 19.5602 -0.532746 9.41724 4.60735Z" fill="url(#paint4_linear_2976_20346)"/>
<path d="M25.3318 41.7938C25.3281 38.3322 26.6214 34.9954 28.9558 32.4437V32.3955C28.4813 31.8856 26.8241 30.6385 22.5606 31.61C17.3 32.8158 11.4961 32.6711 8.11974 30.1011C8.11974 30.1011 4.47514 37.949 13.9855 44.1778C17.7266 45.9321 21.8863 46.5913 25.9851 46.0795C25.5336 44.6966 25.3129 43.2486 25.3318 41.7938Z" fill="url(#paint5_linear_2976_20346)"/>
<path d="M41.6053 9.07227C40.3246 10.5298 38.7495 11.6981 36.9843 12.4999C35.2191 13.3017 33.3041 13.7187 31.366 13.7232C30.3446 13.7183 29.3262 13.6098 28.3266 13.3993H28.2716C28.079 14.0883 27.914 16.1554 30.8159 19.2836C34.4811 23.2454 37.2593 28.3511 36.7367 32.5748C36.7367 32.5748 45.3393 31.8169 45.965 20.448C45.6123 16.3198 44.1008 12.376 41.6053 9.07227Z" fill="url(#paint6_linear_2976_20346)"/>
<path d="M7.73742 120.075H3.47845L2.67887 122.53H0.329088L4.11485 111.404H7.19893L10.9357 122.513H8.50437L7.73742 120.075ZM4.11485 117.997H7.06839L5.59978 113.334L4.11485 117.997Z" fill="#3C3C3B"/>
<path d="M17.2995 122.53H14.917V113.596H11.7677V111.404H20.4325V113.596H17.2995V122.53Z" fill="#3C3C3B"/>
<path d="M22.4905 116.967C22.4905 113.236 24.7587 111.224 27.8101 111.224C31.2369 111.224 33.2113 113.4 33.2113 116.967C33.2113 120.926 30.9105 122.71 27.8754 122.71C24.6607 122.71 22.4905 120.697 22.4905 116.967ZM30.6984 116.967C30.6984 114.447 29.5398 113.318 27.8101 113.318C26.2436 113.318 25.0034 114.496 25.0034 116.967C25.0034 119.437 26.2925 120.615 27.957 120.615C29.5724 120.615 30.6984 119.454 30.6984 116.967Z" fill="#3C3C3B"/>
<path d="M48.9898 122.53H46.5911L46.0036 115.134L43.7191 122.53H41.4509L39.1991 115.167L38.5953 122.53H36.2129L37.3225 111.404H40.1455L42.6585 119.797L45.1225 111.404H47.8639L48.9898 122.53Z" fill="#3C3C3B"/>
<path d="M62.7787 125H60.5269V122.53H53.8039V125H51.552V120.386H52.5963C53.6733 118.57 53.8855 116.034 53.967 112.598L53.9997 111.404H61.4243V120.37H62.7624V125H62.7787ZM59.0746 113.563H56.2189C56.2026 113.678 56.1863 114.087 56.1863 114.185C56.0721 116.59 55.7783 118.766 55.0277 120.403H59.0746V113.563Z" fill="#3C3C3B"/>
<path d="M72.8775 120.075H68.6186L67.819 122.513H65.4692L69.255 111.404H72.3391L76.0759 122.513H73.6445L72.8775 120.075ZM69.255 117.997H72.2085L70.7399 113.334L69.255 117.997Z" fill="#3C3C3B"/>
<path d="M82.4396 122.53H80.0572V113.596H76.9078V111.404H85.5726V113.596H82.4396V122.53Z" fill="#3C3C3B"/>
<path d="M93.8167 120.075H89.5577L88.7581 122.529H86.4083L90.1941 111.42H93.2782L97.015 122.529H94.5999L93.8167 120.075ZM90.1941 117.997H93.1639L91.6953 113.334L90.1941 117.997Z" fill="#3C3C3B"/>
<path d="M12.3873 103.157H10.0049V92.0479H13.8233C16.6137 92.0479 18.376 93.2096 18.376 95.762C18.376 98.2653 16.5647 99.6888 13.6112 99.6888H12.3873V103.157ZM12.3384 97.5781H13.6438C15.0635 97.5781 15.9283 97.0218 15.9283 95.8438C15.9283 94.6003 15.1124 94.1258 13.6601 94.1258H12.3384V97.5781Z" fill="#3C3C3B"/>
<path d="M23.3863 101.636C23.9574 101.292 24.4307 100.867 24.7081 100.376L24.757 100.261L20.6449 92.0149H23.4026L26.0135 97.9215L28.1348 92.0149H30.5825L27.0905 100.67C26.5683 101.963 25.6708 102.961 24.7244 103.468L23.3863 101.636Z" fill="#3C3C3B"/>
<path d="M42.2677 103.157H39.9016V94.1748H35.659V103.157H33.2765V92.0314H42.2677V103.157Z" fill="#3C3C3B"/>
<path d="M55.0082 103.157H52.6258V94.1748H48.3831V103.157H46.0007V92.0314H55.0082V103.157Z" fill="#3C3C3B"/>
<path d="M65.1739 100.703H60.9149L60.1153 103.141H57.7656L61.5513 92.0314H64.6354L68.3722 103.141H65.9408L65.1739 100.703ZM61.5676 98.6251H64.5212L63.0526 93.9621L61.5676 98.6251Z" fill="#3C3C3B"/>
<path d="M78.8033 96.6946H79.3744L82.7848 92.0479H85.5426L81.6263 96.9073C82.9154 97.3 83.4702 99.3124 85.7057 103.157H82.9806C80.7124 99.2306 81.0225 98.5598 79.6518 98.5598H78.8033V103.157H76.4208V92.0479H78.8033V96.6946Z" fill="#3C3C3B"/>
<path d="M87.1387 97.5943C87.1387 93.8638 89.4069 91.8514 92.4584 91.8514C95.8852 91.8514 97.8596 94.0275 97.8596 97.5943C97.8596 101.554 95.5588 103.337 92.5237 103.337C89.309 103.337 87.1387 101.325 87.1387 97.5943ZM95.3467 97.5943C95.3467 95.0746 94.1881 93.9457 92.4584 93.9457C90.8919 93.9457 89.6517 95.1237 89.6517 97.5943C89.6517 100.065 90.9408 101.243 92.6052 101.243C94.2207 101.243 95.3467 100.081 95.3467 97.5943Z" fill="#3C3C3B"/>
<path d="M113.638 103.157H111.239L110.636 95.7619L108.367 103.157H106.099L103.847 95.7946L103.244 103.157H100.861L101.971 92.0314H104.794L107.307 100.425L109.771 92.0314H112.512L113.638 103.157Z" fill="#3C3C3B"/>
<path d="M126.01 103.157H123.627V94.1748H119.384V103.157H117.018V92.0314H126.01V103.157Z" fill="#3C3C3B"/>
<path d="M136.177 100.703H131.918L131.118 103.141H128.769L132.554 92.0314H135.638L139.375 103.141H136.96L136.177 100.703ZM132.571 98.6251H135.524L134.056 93.9621L132.571 98.6251Z" fill="#3C3C3B"/>
<path d="M151.495 103.157H149.113V98.5106H144.511V103.157H142.145V92.0314H144.511V96.3836H149.113V92.0314H151.495V103.157Z" fill="#3C3C3B"/>
<path d="M164.617 103.157H162.251V95.4019L157.78 103.157H155.235V92.0314H157.601V99.7705L162.088 92.0314H164.617V103.157Z" fill="#3C3C3B"/>
<path d="M177.752 103.157H175.37V95.4018L170.899 103.157H168.353V92.0477H170.736V99.7867L175.223 92.0477H177.752V103.157ZM176.267 88.7917C176.186 90.4933 174.799 91.1969 173.085 91.1969C171.356 91.1969 169.985 90.4933 169.887 88.7917L171.747 88.6118C171.911 89.3808 172.384 89.6262 173.102 89.6262C173.803 89.6262 174.277 89.3644 174.424 88.6118L176.267 88.7917Z" fill="#3C3C3B"/>
<path d="M2.70663 103.157H0.324219V92.0314H7.09616V94.1911H2.70663V103.157Z" fill="#3C3C3B"/>
<path d="M46.5904 68.0127H0.329088V69.518H46.5904V68.0127Z" fill="#3C3C3B"/>
<path d="M61.5342 34.6847H56.3125V10.2404H64.6999C66.2338 10.2404 67.6208 10.404 68.8447 10.7313C70.0685 11.0585 71.1292 11.5494 71.994 12.2202C72.8589 12.891 73.5279 13.7418 74.0011 14.7726C74.458 15.8034 74.7028 17.0305 74.7028 18.4212C74.7028 19.7956 74.458 21.0227 73.9848 22.0862C73.5116 23.1497 72.8262 24.066 71.9124 24.7859C70.9986 25.5222 69.9053 26.0785 68.5999 26.4548C67.2945 26.8311 65.8422 27.0274 64.2104 27.0274H61.5342V34.6847ZM61.42 22.4298H64.2756C65.8585 22.4298 67.0823 22.1189 67.9635 21.4972C68.8447 20.8755 69.2852 19.9265 69.2852 18.6176C69.2852 17.2432 68.861 16.2779 67.9961 15.7052C67.1313 15.1325 65.9074 14.8544 64.3083 14.8544H61.42V22.4298Z" fill="#3C3C3B"/>
<path d="M90.5148 35.11C88.7525 35.11 87.137 34.8318 85.6847 34.2919C84.2324 33.752 82.9923 32.9339 81.9479 31.8704C80.9036 30.8069 80.0877 29.4816 79.5329 27.9109C78.9617 26.3402 78.6843 24.524 78.6843 22.4788C78.6843 20.4336 78.9781 18.6175 79.5655 17.0468C80.1529 15.476 80.9688 14.1508 82.0132 13.0873C83.0575 12.0237 84.2977 11.2057 85.7174 10.6657C87.1533 10.1258 88.7035 9.84765 90.368 9.84765C92.2445 9.84765 93.9253 10.1422 95.3939 10.7148C96.8625 11.3038 98.1027 12.1219 99.1144 13.2181C100.126 14.298 100.893 15.6233 101.432 17.194C101.97 18.7647 102.231 20.5318 102.231 22.4788C102.231 24.6385 101.937 26.5201 101.35 28.1236C100.762 29.7106 99.9303 31.0359 98.8696 32.0667C97.8089 33.0975 96.5688 33.8665 95.1491 34.3737C93.7295 34.8645 92.1792 35.11 90.5148 35.11ZM90.678 30.496C91.5592 30.496 92.3751 30.3324 93.1094 30.0052C93.86 29.6779 94.4964 29.1871 95.0186 28.5162C95.5571 27.8454 95.965 27.0273 96.2587 26.0129C96.5525 25.0149 96.6993 23.8205 96.6993 22.4461C96.6993 19.681 96.1119 17.6358 94.9533 16.3432C93.7947 15.0506 92.2608 14.4125 90.3516 14.4125C89.4868 14.4125 88.6872 14.5762 87.9366 14.9034C87.186 15.2306 86.5333 15.7215 85.9621 16.3923C85.4073 17.0631 84.9667 17.8976 84.6567 18.912C84.3467 19.9264 84.1835 21.1044 84.1835 22.4625C84.1835 23.8368 84.3466 25.0312 84.6893 26.0293C85.032 27.0273 85.4889 27.8618 86.06 28.5326C86.6475 29.2034 87.3328 29.6943 88.1161 30.0215C88.932 30.3324 89.7805 30.496 90.678 30.496Z" fill="#3C3C3B"/>
<path d="M125.662 33.7195C125.336 33.8831 124.977 34.0467 124.602 34.2103C124.226 34.374 123.77 34.5212 123.247 34.6685C122.725 34.7994 122.121 34.9139 121.436 34.9957C120.751 35.0775 119.967 35.1102 119.086 35.1102C117.226 35.1102 115.545 34.8484 114.011 34.3085C112.494 33.7686 111.188 32.9832 110.111 31.9524C109.034 30.9217 108.202 29.6291 107.598 28.0911C107.011 26.5531 106.717 24.7861 106.717 22.7736C106.717 20.6793 107.011 18.8141 107.598 17.1943C108.186 15.5745 109.051 14.2165 110.16 13.1202C111.27 12.024 112.624 11.2059 114.224 10.6333C115.806 10.077 117.601 9.79883 119.608 9.79883C120.93 9.79883 122.121 9.91336 123.182 10.1424C124.243 10.3715 125.091 10.6496 125.744 10.9441L124.585 15.3454C123.835 15.0836 123.084 14.9036 122.317 14.7891C121.55 14.6746 120.881 14.6091 120.326 14.6091C119.119 14.6091 118.026 14.7564 117.03 15.0673C116.035 15.3781 115.186 15.8363 114.485 16.4907C113.783 17.1288 113.228 17.9469 112.837 18.945C112.445 19.943 112.249 21.1047 112.249 22.4627C112.249 25.0478 112.967 26.9949 114.419 28.3038C115.872 29.6127 117.83 30.2672 120.294 30.2672C120.849 30.2672 121.518 30.1854 122.317 30.0381C123.101 29.8909 123.867 29.6455 124.618 29.3182L125.662 33.7195Z" fill="#3C3C3B"/>
<path d="M145.523 29.3506H136.156L134.41 34.7008H129.254L137.576 10.2566H144.364L152.588 34.7008H147.252L145.523 29.3506ZM137.576 24.7366H144.087L140.839 14.4615L137.576 24.7366Z" fill="#3C3C3B"/>
<path d="M164.468 34.6849H159.246V15.0674H152.311V10.2407H171.37V15.0674H164.468V34.6849Z" fill="#3C3C3B"/>
<path d="M185.646 35.11C183.883 35.11 182.268 34.8318 180.815 34.2919C179.363 33.752 178.123 32.9339 177.079 31.8704C176.034 30.8069 175.218 29.4816 174.664 27.9109C174.092 26.3402 173.815 24.524 173.815 22.4788C173.815 20.4336 174.109 18.6175 174.696 17.0468C175.284 15.476 176.1 14.1508 177.144 13.0873C178.188 12.0237 179.428 11.2057 180.848 10.6657C182.284 10.1258 183.834 9.84765 185.499 9.84765C187.375 9.84765 189.056 10.1422 190.525 10.7148C191.993 11.3038 193.25 12.1219 194.245 13.2181C195.257 14.298 196.024 15.6233 196.562 17.194C197.101 18.7647 197.362 20.5318 197.362 22.4788C197.362 24.6385 197.068 26.5201 196.481 28.1236C195.893 29.7106 195.061 31.0359 194 32.0667C192.94 33.0975 191.699 33.8665 190.28 34.3737C188.86 34.8645 187.31 35.11 185.646 35.11ZM185.825 30.496C186.706 30.496 187.522 30.3324 188.256 30.0052C189.007 29.6779 189.643 29.1871 190.166 28.5162C190.704 27.8454 191.112 27.0273 191.406 26.0129C191.699 25.0149 191.846 23.8205 191.846 22.4461C191.846 19.681 191.259 17.6358 190.1 16.3432C188.942 15.0506 187.408 14.4125 185.499 14.4125C184.634 14.4125 183.834 14.5762 183.084 14.9034C182.333 15.2306 181.68 15.7215 181.109 16.3923C180.554 17.0631 180.114 17.8976 179.804 18.912C179.494 19.9264 179.33 21.1044 179.33 22.4625C179.33 23.8368 179.494 25.0312 179.836 26.0293C180.179 27.0273 180.636 27.8618 181.207 28.5326C181.794 29.2034 182.48 29.6943 183.263 30.0215C184.063 30.3324 184.911 30.496 185.825 30.496Z" fill="#3C3C3B"/>
<path d="M229.999 34.6849H224.728L223.406 18.4542L218.397 34.6849H213.404L208.459 18.5197L207.138 34.6849H201.883L204.315 10.2407H210.548L216.063 28.6802L221.497 10.2407H227.519L229.999 34.6849Z" fill="#3C3C3B"/>
<defs>
<radialGradient id="paint0_radial_2976_20346" cx="0" cy="0" r="1" gradientUnits="userSpaceOnUse" gradientTransform="translate(25.2688 17.898) scale(6.76024 6.77363)">
<stop stop-color="#4495D1"/>
<stop offset="1" stop-color="#15256D"/>
</radialGradient>
<linearGradient id="paint1_linear_2976_20346" x1="16.6277" y1="1.56287" x2="36.9787" y2="9.73475" gradientUnits="userSpaceOnUse">
<stop stop-color="#4495D1"/>
<stop offset="1" stop-color="#15256D"/>
</linearGradient>
<linearGradient id="paint2_linear_2976_20346" x1="7.79166" y1="39.4441" x2="4.70363" y2="17.698" gradientUnits="userSpaceOnUse">
<stop stop-color="#4495D1"/>
<stop offset="1" stop-color="#15256D"/>
</linearGradient>
<linearGradient id="paint3_linear_2976_20346" x1="45.0018" y1="28.2101" x2="27.717" y2="41.72" gradientUnits="userSpaceOnUse">
<stop stop-color="#4495D1"/>
<stop offset="1" stop-color="#15256D"/>
</linearGradient>
<linearGradient id="paint4_linear_2976_20346" x1="8.4889" y1="17.1544" x2="17.6602" y2="3.12189" gradientUnits="userSpaceOnUse">
<stop stop-color="#4495D1"/>
<stop offset="1" stop-color="#15256D"/>
</linearGradient>
<linearGradient id="paint5_linear_2976_20346" x1="25.7857" y1="37.2049" x2="9.39124" y2="38.8727" gradientUnits="userSpaceOnUse">
<stop stop-color="#4495D1"/>
<stop offset="1" stop-color="#15256D"/>
</linearGradient>
<linearGradient id="paint6_linear_2976_20346" x1="36.3447" y1="13.4338" x2="39.6995" y2="30.3398" gradientUnits="userSpaceOnUse">
<stop stop-color="#4495D1"/>
<stop offset="1" stop-color="#15256D"/>
</linearGradient>
</defs>
</svg>
