<svg version="1.1" xmlns="http://www.w3.org/2000/svg" xmlns:xlink="http://www.w3.org/1999/xlink">

    <symbol viewBox="0 0 203 24" id="logo">
        <path d="M10.758 0L0 24H4.57123L6.93824 18.4415H18.8986L21.2781 24H25.9245L15.1289 0H10.758ZM8.44111 14.9472L12.9121 4.43938L17.4082 14.9347H8.42859L8.44111 14.9472Z" fill="#41505B" />
        <path d="M25.2969 3.76788H33.3247V24H37.8208V3.76788H45.8486V0H25.2969V3.76788Z" fill="#41505B" />
        <path d="M99.2645 0L90.1596 15.9047L80.917 0H77.3477V24H81.4805V8.30674L89.1452 21.2518H91.0739L98.7385 8.09534L98.7635 24H102.859L102.834 0H99.2645Z" fill="#41505B" />
        <path d="M125.566 1.50466C123.575 0.497409 121.27 0 118.64 0H109.348V24H118.64C121.27 24 123.575 23.5026 125.566 22.4953C127.545 21.4881 129.098 20.0953 130.2 18.2922C131.302 16.5016 131.866 14.4 131.866 12C131.866 9.6 131.315 7.47358 130.2 5.69534C129.098 3.9171 127.545 2.52435 125.566 1.5171V1.50466ZM126.242 16.315C125.516 17.5461 124.489 18.5036 123.162 19.1876C121.834 19.8715 120.256 20.2197 118.44 20.2197H113.856V3.76788H118.44C120.269 3.76788 121.834 4.11606 123.162 4.8C124.489 5.48394 125.516 6.44145 126.242 7.6601C126.969 8.87876 127.332 10.3337 127.332 12C127.332 13.6663 126.969 15.0839 126.242 16.315Z" fill="#41505B" />
        <path d="M144.102 0L133.344 24H137.915L140.282 18.4415H152.23L154.609 24H159.256L148.473 0H144.102ZM141.785 14.9472L146.256 4.45181L150.752 14.9472H141.785Z" fill="#41505B" />
        <path d="M178.627 0H158.062V3.76788H166.09V24H170.599V3.76788H178.627V0Z" fill="#41505B" />
        <path d="M198.352 24H202.999L192.203 0H187.832L177.074 24H181.645L184.012 18.4415H195.96L198.34 24H198.352ZM185.515 14.9472L189.986 4.45181L194.482 14.9472H185.515Z" fill="#41505B" />
        <path d="M62.1678 0.0497409L61.8672 0V3.9544L62.0801 3.99171C65.8999 4.76269 68.6802 8.13264 68.6802 12C68.6802 15.8674 65.8999 19.2373 62.0801 20.0083L61.8672 20.0456V23.9876L62.1678 23.9503C68.1291 23.1047 72.6127 17.9689 72.6127 12C72.6127 6.03109 68.1291 0.895337 62.1678 0.0497409Z" fill="#008ECF" />
        <path d="M48.2305 12C48.2305 17.9689 52.7266 23.1047 58.6754 23.9503L58.976 23.9876V20.0456L58.7631 20.0083C54.9433 19.2373 52.163 15.8674 52.163 12C52.163 8.13264 54.9433 4.76269 58.7631 3.99171L58.976 3.9544V0L58.6754 0.0497409C52.714 0.895337 48.2305 6.04352 48.2305 12Z" fill="#008ECF" />
        <path d="M60.4274 6.66504C57.4593 6.66504 55.0547 9.0526 55.0547 11.9873C55.0547 14.922 57.4718 17.3096 60.4274 17.3096C63.3831 17.3096 65.8002 14.922 65.8002 11.9873C65.8002 9.0526 63.3831 6.66504 60.4274 6.66504Z" fill="#008ECF" />
    </symbol>

    <symbol viewBox="0 0 203 24" id="logo-footer">
        <path d="M10.758 0L0 24H4.57123L6.93824 18.4415H18.8986L21.2781 24H25.9245L15.1289 0H10.758ZM8.44111 14.9472L12.9121 4.43938L17.4082 14.9347H8.42859L8.44111 14.9472Z" fill="white" />
        <path d="M25.2969 3.76788H33.3247V24H37.8208V3.76788H45.8486V0H25.2969V3.76788Z" fill="white" />
        <path d="M99.2645 0L90.1596 15.9047L80.917 0H77.3477V24H81.4805V8.30674L89.1452 21.2518H91.0739L98.7385 8.09534L98.7635 24H102.859L102.834 0H99.2645Z" fill="white" />
        <path d="M125.566 1.50466C123.575 0.497409 121.27 0 118.64 0H109.348V24H118.64C121.27 24 123.575 23.5026 125.566 22.4953C127.545 21.4881 129.098 20.0953 130.2 18.2922C131.302 16.5016 131.866 14.4 131.866 12C131.866 9.6 131.315 7.47358 130.2 5.69534C129.098 3.9171 127.545 2.52435 125.566 1.5171V1.50466ZM126.242 16.315C125.516 17.5461 124.489 18.5036 123.162 19.1876C121.834 19.8715 120.256 20.2197 118.44 20.2197H113.856V3.76788H118.44C120.269 3.76788 121.834 4.11606 123.162 4.8C124.489 5.48394 125.516 6.44145 126.242 7.6601C126.969 8.87876 127.332 10.3337 127.332 12C127.332 13.6663 126.969 15.0839 126.242 16.315Z" fill="white" />
        <path d="M144.102 0L133.344 24H137.915L140.282 18.4415H152.23L154.609 24H159.256L148.473 0H144.102ZM141.785 14.9472L146.256 4.45181L150.752 14.9472H141.785Z" fill="white" />
        <path d="M178.627 0H158.062V3.76788H166.09V24H170.599V3.76788H178.627V0Z" fill="white" />
        <path d="M198.352 24H202.999L192.203 0H187.832L177.074 24H181.645L184.012 18.4415H195.96L198.34 24H198.352ZM185.515 14.9472L189.986 4.45181L194.482 14.9472H185.515Z" fill="white" />
        <path d="M62.1678 0.0497409L61.8672 0V3.9544L62.0801 3.99171C65.8999 4.76269 68.6802 8.13264 68.6802 12C68.6802 15.8674 65.8999 19.2373 62.0801 20.0083L61.8672 20.0456V23.9876L62.1678 23.9503C68.1291 23.1047 72.6127 17.9689 72.6127 12C72.6127 6.03109 68.1291 0.895337 62.1678 0.0497409Z" fill="white" />
        <path d="M48.2305 12C48.2305 17.9689 52.7266 23.1047 58.6754 23.9503L58.976 23.9876V20.0456L58.7631 20.0083C54.9433 19.2373 52.163 15.8674 52.163 12C52.163 8.13264 54.9433 4.76269 58.7631 3.99171L58.976 3.9544V0L58.6754 0.0497409C52.714 0.895337 48.2305 6.04352 48.2305 12Z" fill="white" />
        <path d="M60.4274 6.66504C57.4593 6.66504 55.0547 9.0526 55.0547 11.9873C55.0547 14.922 57.4718 17.3096 60.4274 17.3096C63.3831 17.3096 65.8002 14.922 65.8002 11.9873C65.8002 9.0526 63.3831 6.66504 60.4274 6.66504Z" fill="white" />
    </symbol>

    <symbol viewBox="0 0 8 5" id="header-menu-arrow">
        <path d="M4 5L0.535898 0.500001L7.4641 0.5L4 5Z" />
    </symbol>

    <symbol viewBox="0 0 15 16" id="header-submenu-arrow">
        <path d="M5.625 11.75L9.375 8L5.625 4.25" stroke-width="1.25" stroke-linecap="round" stroke-linejoin="round" />
    </symbol>

    <symbol viewBox="0 0 16 16" id="icon-doc">
        <path d="M9.33464 1.3335H4.0013C3.64768 1.3335 3.30854 1.47397 3.05849 1.72402C2.80844 1.97407 2.66797 2.31321 2.66797 2.66683V13.3335C2.66797 13.6871 2.80844 14.0263 3.05849 14.2763C3.30854 14.5264 3.64768 14.6668 4.0013 14.6668H12.0013C12.3549 14.6668 12.6941 14.5264 12.9441 14.2763C13.1942 14.0263 13.3346 13.6871 13.3346 13.3335V5.3335L9.33464 1.3335Z" stroke-width="1.33333" stroke-linecap="round" stroke-linejoin="round" />
        <path d="M9.33203 1.3335V5.3335H13.332" stroke-width="1.33333" stroke-linecap="round" stroke-linejoin="round" />
        <path d="M10.6654 8.6665H5.33203" stroke-width="1.33333" stroke-linecap="round" stroke-linejoin="round" />
        <path d="M10.6654 11.3335H5.33203" stroke-width="1.33333" stroke-linecap="round" stroke-linejoin="round" />
        <path d="M6.66536 6H5.9987H5.33203" stroke-width="1.33333" stroke-linecap="round" stroke-linejoin="round" />
    </symbol>

    <symbol viewBox="0 0 24 24" id="header-icon-user">
        <path d="M20 21V19C20 17.9391 19.5786 16.9217 18.8284 16.1716C18.0783 15.4214 17.0609 15 16 15H8C6.93913 15 5.92172 15.4214 5.17157 16.1716C4.42143 16.9217 4 17.9391 4 19V21" stroke-width="2" stroke-linecap="round" stroke-linejoin="round" />
        <path d="M12 11C14.2091 11 16 9.20914 16 7C16 4.79086 14.2091 3 12 3C9.79086 3 8 4.79086 8 7C8 9.20914 9.79086 11 12 11Z" stroke-width="2" stroke-linecap="round" stroke-linejoin="round" />
    </symbol>

    <symbol viewBox="0 0 24 24" id="header-icon-search">
        <path d="M11 19C15.4183 19 19 15.4183 19 11C19 6.58172 15.4183 3 11 3C6.58172 3 3 6.58172 3 11C3 15.4183 6.58172 19 11 19Z" stroke-width="2" stroke-linecap="round" stroke-linejoin="round" />
        <path d="M20.9984 20.9999L16.6484 16.6499" stroke-width="2" stroke-linecap="round" stroke-linejoin="round" />
    </symbol>

    <symbol viewBox="0 0 24 18" id="mobile-menu-link">
        <rect width="24" height="2" rx="1" />
        <rect y="7.71436" width="24" height="2" rx="1" />
        <rect y="15.4287" width="24" height="2" rx="1" />
    </symbol>

    <symbol viewBox="0 0 20 20" id="footer-menu-arrow">
        <path d="M5 7.5L10 12.5L15 7.5" stroke-width="1.66667" stroke-linecap="round" stroke-linejoin="round" />
    </symbol>


    <symbol viewBox="0 0 18 18" id="arrow-link">
        <path d="M17.6421 1.85787C17.6421 1.02944 16.9706 0.357865 16.1421 0.357865L2.64214 0.357864C1.81371 0.357864 1.14214 1.02944 1.14214 1.85786C1.14214 2.68629 1.81371 3.35786 2.64214 3.35786H14.6421V15.3579C14.6421 16.1863 15.3137 16.8579 16.1421 16.8579C16.9706 16.8579 17.6421 16.1863 17.6421 15.3579L17.6421 1.85787ZM3.06066 17.0607L17.2028 2.91852L15.0815 0.797204L0.93934 14.9393L3.06066 17.0607Z" />
    </symbol>

    <symbol viewBox="0 0 16 16" id="arrow-link-2">
        <path d="M6 12L10 8L6 4" stroke-width="1.33333" stroke-linecap="round" stroke-linejoin="round" />
    </symbol>

    <symbol viewBox="0 0 24 29" id="map-icon">
        <path fill-rule="evenodd" clip-rule="evenodd" d="M11.994 16.1314C15.2956 16.0956 17.9328 13.6753 17.8926 10.719C17.8523 7.81633 15.2553 5.47632 12.0242 5.43167C8.74272 5.4138 6.04507 7.81633 6.03501 10.7726C6.03501 13.711 8.70245 16.1135 12.0041 16.1314L11.994 16.1314ZM23.4992 10.6565C23.5194 12.2195 23.1369 13.7556 22.4021 15.1579C21.0834 17.6676 19.4326 20.0165 17.6611 22.285C16.0807 24.3303 14.3897 26.2863 12.5879 28.1708C12.2054 28.5638 11.8027 28.5905 11.4303 28.1886C8.17903 24.7412 5.18948 21.1418 2.73341 17.1853C1.97847 15.9617 1.2034 14.747 0.861163 13.3805C-0.195751 9.19175 1.06248 5.63709 4.69625 2.83266C6.99126 1.07319 9.7191 0.305095 12.7288 0.510516C16.8961 0.787386 19.9963 2.62724 22.08 5.85144C23.006 7.26258 23.459 8.9506 23.4892 10.6654L23.4992 10.6565Z" />
    </symbol>

    <symbol viewBox="0 0 32 32" id="clients-prev">
        <path d="M17.5238 11.4283L12.9524 15.9997L17.5238 20.5712" stroke-width="1.90476" stroke-linecap="round" stroke-linejoin="round" />
    </symbol>

    <symbol viewBox="0 0 32 32" id="clients-next">
        <path d="M14.4762 20.5717L19.0476 16.0003L14.4762 11.4288" stroke-width="1.90476" stroke-linecap="round" stroke-linejoin="round" />
    </symbol>

    <symbol viewBox="0 0 13 14" id="breadcrumbs">
        <path d="M4.875 10.25L8.125 7L4.875 3.75" stroke-width="1.08333" stroke-linecap="round" stroke-linejoin="round" />
    </symbol>

    <symbol viewBox="0 0 18 18" id="services-card-calc-dec">
        <path d="M3.75 9H14.25" stroke-width="1.5" stroke-linecap="round" stroke-linejoin="round" />
    </symbol>

    <symbol viewBox="0 0 18 18" id="services-card-calc-inc">
        <path d="M9 3.75V14.25" stroke-width="1.5" stroke-linecap="round" stroke-linejoin="round" />
        <path d="M3.75 9H14.25" stroke-width="1.5" stroke-linecap="round" stroke-linejoin="round" />
    </symbol>

    <symbol viewBox="0 0 10 6" id="services-card-calc-select">
        <path d="M5 6L0.669874 -1.38009e-07L9.33013 -8.95112e-07L5 6Z" />
    </symbol>

    <symbol viewBox="0 0 40 40" id="faq-plus">
        <path d="M20 10.6666V29.3333" stroke-width="2" stroke-linecap="round" stroke-linejoin="round" />
        <path d="M10.666 20H29.3327" stroke-width="2" stroke-linecap="round" stroke-linejoin="round" />
    </symbol>

    <symbol viewBox="0 0 40 41" id="faq-minus">
        <path d="M10.666 20.5H29.3327" stroke-width="2" stroke-linecap="round" stroke-linejoin="round" />
    </symbol>

    <symbol viewBox="0 0 12 17" id="icon-location">
        <path fill-rule="evenodd" clip-rule="evenodd" d="M5.99686 9.44477C7.71943 9.42436 9.09539 8.04128 9.07438 6.35199C9.05338 4.69331 7.69843 3.35617 6.01262 3.33065C4.30055 3.32044 2.89308 4.69331 2.88783 6.38261C2.88783 8.06169 4.27954 9.43456 6.00211 9.44477H5.99686ZM11.9996 6.31626C12.0101 7.20939 11.8105 8.08721 11.4272 8.88848C10.7392 10.3226 9.8779 11.6648 8.95359 12.9612C8.12907 14.1299 7.24678 15.2476 6.30671 16.3244C6.10715 16.549 5.89708 16.5643 5.70276 16.3346C4.00645 14.3646 2.44668 12.3079 1.16526 10.047C0.771376 9.3478 0.366992 8.65371 0.188433 7.87286C-0.363 5.47927 0.293468 3.44803 2.18935 1.8455C3.38674 0.840092 4.80997 0.401182 6.38024 0.518565C8.55446 0.676776 10.172 1.72812 11.2591 3.57052C11.7423 4.37689 11.9786 5.34147 11.9944 6.32136L11.9996 6.31626Z" />
    </symbol>

    <symbol viewBox="0 0 8 14" id="pager-prev">
        <path d="M7 1L0.999999 7L7 13" stroke-width="2" stroke-linecap="round" stroke-linejoin="round" />
    </symbol>

    <symbol viewBox="0 0 8 14" id="pager-next">
        <path d="M1 13L7 7L1 1" stroke-width="2" stroke-linecap="round" stroke-linejoin="round" />
    </symbol>

    <symbol viewBox="0 0 40 40" id="gallery-prev">
        <path d="M21.9053 14.2848L16.191 19.9991L21.9053 25.7134" stroke-width="1.90476" stroke-linecap="round" stroke-linejoin="round" />
    </symbol>

    <symbol viewBox="0 0 40 40" id="gallery-next">
        <path d="M18.0947 25.7132L23.809 19.999L18.0947 14.2847" stroke-width="1.90476" stroke-linecap="round" stroke-linejoin="round" />
    </symbol>

    <symbol viewBox="0 0 36 36" id="icon-electrical">
        <path d="M26.625 22.125V19.875H30C30.3188 19.875 30.5859 19.9829 30.8014 20.1986C31.0171 20.4144 31.125 20.6816 31.125 21.0004C31.125 21.3194 31.0171 21.5865 30.8014 21.8018C30.5859 22.0173 30.3188 22.125 30 22.125H26.625ZM26.625 28.125V25.875H30C30.3188 25.875 30.5859 25.9829 30.8014 26.1986C31.0171 26.4144 31.125 26.6816 31.125 27.0004C31.125 27.3194 31.0171 27.5865 30.8014 27.8018C30.5859 28.0173 30.3188 28.125 30 28.125H26.625ZM21.375 29.625C20.55 29.625 19.8438 29.3313 19.2563 28.7438C18.6688 28.1562 18.375 27.45 18.375 26.625H15.375V21.375H18.375C18.375 20.55 18.6688 19.8438 19.2563 19.2563C19.8438 18.6688 20.55 18.375 21.375 18.375H25.125V29.625H21.375ZM10.5 25.125C8.94625 25.125 7.62025 24.576 6.522 23.478C5.424 22.3797 4.875 21.0538 4.875 19.5C4.875 17.9462 5.424 16.6202 6.522 15.522C7.62025 14.424 8.94625 13.875 10.5 13.875H12.75C13.4712 13.875 14.089 13.6177 14.6033 13.1032C15.1178 12.589 15.375 11.9713 15.375 11.25C15.375 10.5287 15.1178 9.911 14.6033 9.39675C14.089 8.88225 13.4712 8.625 12.75 8.625H7.5C7.18125 8.625 6.91413 8.51712 6.69863 8.30137C6.48288 8.08562 6.375 7.81837 6.375 7.49962C6.375 7.18062 6.48288 6.9135 6.69863 6.69825C6.91413 6.48275 7.18125 6.375 7.5 6.375H12.75C14.1038 6.375 15.2547 6.849 16.203 7.797C17.151 8.74525 17.625 9.89625 17.625 11.25C17.625 12.6037 17.151 13.7548 16.203 14.703C15.2547 15.651 14.1038 16.125 12.75 16.125H10.5C9.57175 16.125 8.77725 16.4557 8.1165 17.1173C7.4555 17.7787 7.125 18.5739 7.125 19.5026C7.125 20.4316 7.4555 21.226 8.1165 21.8857C8.77725 22.5452 9.57175 22.875 10.5 22.875H13.875V25.125H10.5Z" stroke="none" />
    </symbol>

    <symbol viewBox="0 0 36 36" id="icon-cooling">
        <path d="M16.875 32.625V25.8806L11.625 31.0556L10.0444 29.475L16.875 22.6444V19.125H13.3556L6.525 25.9556L4.94438 24.375L10.1194 19.125H3.375V16.875H10.1194L4.94438 11.625L6.525 10.0444L13.3556 16.875H16.875V13.3556L10.0444 6.525L11.625 4.94437L16.875 10.1194V3.375H19.125V10.1194L24.375 4.94437L25.9556 6.525L19.125 13.3556V16.875H22.6444L29.475 10.0444L31.0556 11.625L25.8806 16.875H32.625V19.125H25.8806L31.0556 24.375L29.475 25.9556L22.6444 19.125H19.125V22.6444L25.9556 29.475L24.375 31.0556L19.125 25.8806V32.625H16.875Z" stroke="none" />
    </symbol>

    <symbol viewBox="0 0 36 36" id="icon-security">
        <path d="M16.425 22.8057L24.3806 14.8501L22.7768 13.2462L16.425 19.5984L13.2461 16.4195L11.6423 18.0234L16.425 22.8057ZM18 32.2212C14.7557 31.3365 12.0698 29.4269 9.942 26.4924C7.814 23.5579 6.75 20.2771 6.75 16.6501V8.01949L18 3.80786L29.25 8.01949V16.6501C29.25 20.2771 28.186 23.5579 26.058 26.4924C23.9303 29.4269 21.2443 31.3365 18 32.2212ZM18 29.8501C20.6 29.0251 22.75 27.3751 24.45 24.9001C26.15 22.4251 27 19.6751 27 16.6501V9.56261L18 6.20186L9 9.56261V16.6501C9 19.6751 9.85 22.4251 11.55 24.9001C13.25 27.3751 15.4 29.0251 18 29.8501Z" stroke="none" />
    </symbol>

    <symbol viewBox="0 0 36 36" id="icon-cable">
        <path d="M7.5 31.125C7.18125 31.125 6.91413 31.0171 6.69863 30.8014C6.48288 30.5859 6.375 30.3188 6.375 30V28.4134H4.875V22.7884C4.875 22.4696 4.98288 22.2025 5.19863 21.987C5.41413 21.7712 5.68125 21.6634 6 21.6634H7.875V10.5C7.875 8.94625 8.424 7.62025 9.522 6.522C10.6203 5.424 11.9462 4.875 13.5 4.875C15.0538 4.875 16.3797 5.424 17.478 6.522C18.576 7.62025 19.125 8.94625 19.125 10.5V25.5C19.125 26.4405 19.4524 27.2381 20.1071 27.8929C20.7619 28.5476 21.5595 28.875 22.5 28.875C23.4405 28.875 24.2381 28.5476 24.8929 27.8929C25.5476 27.2381 25.875 26.4405 25.875 25.5V14.3366H24C23.6812 14.3366 23.4141 14.2288 23.1986 14.013C22.9829 13.7975 22.875 13.5304 22.875 13.2116V7.58663H24.375V6C24.375 5.68125 24.4829 5.41413 24.6986 5.19863C24.9141 4.98288 25.1812 4.875 25.5 4.875H28.5C28.8188 4.875 29.0859 4.98288 29.3014 5.19863C29.5171 5.41413 29.625 5.68125 29.625 6V7.58663H31.125V13.2116C31.125 13.5304 31.0171 13.7975 30.8014 14.013C30.5859 14.2288 30.3188 14.3366 30 14.3366H28.125V25.5C28.125 27.0537 27.576 28.3798 26.478 29.478C25.3798 30.576 24.0537 31.125 22.5 31.125C20.9463 31.125 19.6203 30.576 18.522 29.478C17.424 28.3798 16.875 27.0537 16.875 25.5V10.5C16.875 9.5595 16.5476 8.76188 15.8929 8.10713C15.2381 7.45238 14.4405 7.125 13.5 7.125C12.5595 7.125 11.7619 7.45238 11.1071 8.10713C10.4524 8.76188 10.125 9.5595 10.125 10.5V21.6634H12C12.3187 21.6634 12.5859 21.7712 12.8014 21.987C13.0171 22.2025 13.125 22.4696 13.125 22.7884V28.4134H11.625V30C11.625 30.3188 11.5171 30.5859 11.3014 30.8014C11.0859 31.0171 10.8187 31.125 10.5 31.125H7.5Z" stroke="none" />
    </symbol>

    <symbol viewBox="0 0 36 36" id="icon-fire">
        <path d="M10 19C10 15.6863 12.6863 13 16 13H18C21.3137 13 24 15.6863 24 19V31C24 32.1046 23.1046 33 22 33H12C10.8954 33 10 32.1046 10 31V19Z" fill="none" stroke-width="2.5" />
        <circle cx="17" cy="8" r="3.75" fill="none" stroke-width="2.5" />
        <line x1="7" y1="8.75" x2="14" y2="8.75" fill="none" stroke-width="2.5" />
        <path d="M20 7L28 4V12L20 8.5" fill="none" stroke-width="2.5" />
    </symbol>

    <symbol viewBox="0 0 54 54" id="icon-play">
        <path d="M38 26.5L20.75 36.4593L20.75 16.5407L38 26.5Z" />
    </symbol>

    <symbol viewBox="0 0 13 13" id="back-link">
        <path d="M9 1.5L4 6.5L9 11.5" stroke-width="1.08333" stroke-linecap="round" stroke-linejoin="round" />
    </symbol>

    <symbol viewBox="0 0 24 24" id="window-photo-close">
        <path d="M18 6L6 18" stroke-width="2" stroke-linecap="round" stroke-linejoin="round" />
        <path d="M6 6L18 18" stroke-width="2" stroke-linecap="round" stroke-linejoin="round" />
    </symbol>

    <symbol viewBox="0 0 24 24" id="window-photo-download">
        <path d="M21 15V19C21 19.5304 20.7893 20.0391 20.4142 20.4142C20.0391 20.7893 19.5304 21 19 21H5C4.46957 21 3.96086 20.7893 3.58579 20.4142C3.21071 20.0391 3 19.5304 3 19V15" stroke-width="2" stroke-linecap="round" stroke-linejoin="round" />
        <path d="M7 10L12 15L17 10" stroke-width="2" stroke-linecap="round" stroke-linejoin="round" />
        <path d="M12 15V3" stroke-width="2" stroke-linecap="round" stroke-linejoin="round" />
    </symbol>

    <symbol viewBox="0 0 24 24" id="window-close">
        <path d="M18 6L6 18" stroke-width="2" stroke-linecap="round" stroke-linejoin="round" />
        <path d="M6 6L18 18" stroke-width="2" stroke-linecap="round" stroke-linejoin="round" />
    </symbol>

    <symbol viewBox="0 0 24 24" id="file-remove">
        <path d="M7.3077 20.4993C6.80898 20.4993 6.38302 20.3227 6.02982 19.9695C5.67661 19.6163 5.5 19.1903 5.5 18.6916V5.99932H4.5V4.49935H8.99997V3.61475H15V4.49935H19.5V5.99932H18.5V18.6916C18.5 19.1967 18.325 19.6243 17.975 19.9743C17.625 20.3243 17.1974 20.4993 16.6922 20.4993H7.3077ZM17 5.99932H6.99997V18.6916C6.99997 18.7813 7.02883 18.8551 7.08652 18.9128C7.14422 18.9705 7.21795 18.9993 7.3077 18.9993H16.6922C16.7692 18.9993 16.8397 18.9673 16.9038 18.9032C16.9679 18.8391 17 18.7685 17 18.6916V5.99932ZM9.40385 16.9993H10.9038V7.99932H9.40385V16.9993ZM13.0961 16.9993H14.5961V7.99932H13.0961V16.9993Z" />
    </symbol>

    <symbol viewBox="0 0 18 19" id="icon-link">
        <path d="M7.50391 10.251C7.826 10.6815 8.23692 11.0378 8.70882 11.2957C9.18071 11.5535 9.70254 11.7068 10.2389 11.7452C10.7753 11.7836 11.3136 11.7062 11.8174 11.5183C12.3212 11.3303 12.7787 11.0363 13.1589 10.656L15.4089 8.40595C16.092 7.69869 16.47 6.75143 16.4614 5.7682C16.4529 4.78496 16.0585 3.84441 15.3632 3.14913C14.6679 2.45385 13.7274 2.05947 12.7442 2.05092C11.7609 2.04238 10.8137 2.42036 10.1064 3.10345L8.81641 4.38595" stroke-width="1.5" stroke-linecap="round" stroke-linejoin="round" />
        <path d="M10.5006 8.74895C10.1785 8.31835 9.76762 7.96206 9.29573 7.70424C8.82383 7.44643 8.30201 7.29311 7.76565 7.2547C7.22929 7.21629 6.69095 7.29367 6.18713 7.48161C5.68331 7.66955 5.2258 7.96365 4.84564 8.34395L2.59564 10.5939C1.91255 11.3012 1.53457 12.2485 1.54311 13.2317C1.55165 14.2149 1.94604 15.1555 2.64132 15.8508C3.3366 16.546 4.27715 16.9404 5.26038 16.949C6.24362 16.9575 7.19088 16.5795 7.89814 15.8964L9.18064 14.6139" stroke-width="1.5" stroke-linecap="round" stroke-linejoin="round" />
    </symbol>

</svg>