<svg width="54" height="28" viewBox="0 0 54 28" fill="none" xmlns="http://www.w3.org/2000/svg">
<path d="M42.1866 0.491804L41.8467 0.435547V4.90797L42.0875 4.95016C46.4076 5.82214 49.5522 9.63354 49.5522 14.0075C49.5522 18.3815 46.4076 22.1929 42.0875 23.0649L41.8467 23.1071V27.5654L42.1866 27.5232C48.9289 26.5669 53.9998 20.7583 53.9998 14.0075C53.9998 7.25669 48.9289 1.44817 42.1866 0.491804Z" fill="#FEBF3B"/>
<path d="M0 14.0075C0 20.7583 5.08506 26.5669 11.8132 27.5232L12.1531 27.5654V23.1071L11.9123 23.0649C7.59217 22.1929 4.44766 18.3815 4.44766 14.0075C4.44766 9.63354 7.59217 5.82214 11.9123 4.95016L12.1531 4.90797V0.435547L11.8132 0.491804C5.07089 1.44817 0 7.27075 0 14.0075Z" fill="#008ECF"/>
<path d="M0 14.0075C0 20.7583 5.08506 26.5669 11.8132 27.5232L12.1531 27.5654V23.1071L11.9123 23.0649C7.59217 22.1929 4.44766 18.3815 4.44766 14.0075C4.44766 9.63354 7.59217 5.82214 11.9123 4.95016L12.1531 4.90797V0.435547L11.8132 0.491804C5.07089 1.44817 0 7.27075 0 14.0075Z" fill="url(#paint0_linear_2971_16)"/>
<path d="M29.336 0.491804L28.9961 0.435547V4.90797L29.2369 4.95016C33.5571 5.82214 36.7016 9.63354 36.7016 14.0075C36.7016 18.3815 33.5571 22.1929 29.2369 23.0649L28.9961 23.1071V27.5654L29.336 27.5232C36.0783 26.5669 41.1492 20.7583 41.1492 14.0075C41.1492 7.25669 36.0783 1.44817 29.336 0.491804Z" fill="#FEBF3B"/>
<path d="M13.5713 14.0075C13.5713 20.7583 18.6563 26.5669 25.3845 27.5232L25.7244 27.5654V23.1071L25.4836 23.0649C21.1635 22.1929 18.0189 18.3815 18.0189 14.0075C18.0189 9.63354 21.1635 5.82214 25.4836 4.95016L25.7244 4.90797V0.435547L25.3845 0.491804C18.6422 1.44817 13.5713 7.27075 13.5713 14.0075Z" fill="#008ECF"/>
<path d="M13.5713 14.0075C13.5713 20.7583 18.6563 26.5669 25.3845 27.5232L25.7244 27.5654V23.1071L25.4836 23.0649C21.1635 22.1929 18.0189 18.3815 18.0189 14.0075C18.0189 9.63354 21.1635 5.82214 25.4836 4.95016L25.7244 4.90797V0.435547L25.3845 0.491804C18.6422 1.44817 13.5713 7.27075 13.5713 14.0075Z" fill="url(#paint1_linear_2971_16)"/>
<path d="M27.3676 7.97363C24.0106 7.97363 21.291 10.674 21.291 13.9931C21.291 17.3123 24.0248 20.0126 27.3676 20.0126C30.7104 20.0126 33.4442 17.3123 33.4442 13.9931C33.4442 10.674 30.7104 7.97363 27.3676 7.97363Z" fill="#008ECF"/>
<path d="M27.3676 7.97363C24.0106 7.97363 21.291 10.674 21.291 13.9931C21.291 17.3123 24.0248 20.0126 27.3676 20.0126C30.7104 20.0126 33.4442 17.3123 33.4442 13.9931C33.4442 10.674 30.7104 7.97363 27.3676 7.97363Z" fill="url(#paint2_linear_2971_16)"/>
<defs>
<linearGradient id="paint0_linear_2971_16" x1="0" y1="0.435547" x2="15.0444" y2="2.14679" gradientUnits="userSpaceOnUse">
<stop stop-color="#75A5FF"/>
<stop offset="0.703125" stop-color="#008ECF"/>
</linearGradient>
<linearGradient id="paint1_linear_2971_16" x1="13.5713" y1="0.435547" x2="28.6157" y2="2.14679" gradientUnits="userSpaceOnUse">
<stop stop-color="#75A5FF"/>
<stop offset="0.703125" stop-color="#008ECF"/>
</linearGradient>
<linearGradient id="paint2_linear_2971_16" x1="21.291" y1="7.97363" x2="35.5905" y2="11.639" gradientUnits="userSpaceOnUse">
<stop stop-color="#75A5FF"/>
<stop offset="0.703125" stop-color="#008ECF"/>
</linearGradient>
</defs>
</svg>
