<svg width="54" height="29" viewBox="0 0 54 29" fill="none" xmlns="http://www.w3.org/2000/svg">
<path d="M42.1866 0.993757L41.8467 0.9375V5.40992L42.0875 5.45211C46.4076 6.32409 49.5522 10.1355 49.5522 14.5095C49.5522 18.8834 46.4076 22.6948 42.0875 23.5668L41.8467 23.609V28.0674L42.1866 28.0252C48.9289 27.0688 53.9998 21.2603 53.9998 14.5095C53.9998 7.75864 48.9289 1.95012 42.1866 0.993757Z" fill="#6C6D70"/>
<path d="M0 14.5095C0 21.2603 5.08506 27.0688 11.8132 28.0252L12.1531 28.0674V23.609L11.9123 23.5668C7.59217 22.6948 4.44766 18.8834 4.44766 14.5095C4.44766 10.1355 7.59217 6.32409 11.9123 5.45211L12.1531 5.40992V0.9375L11.8132 0.993757C5.07089 1.95012 0 7.77271 0 14.5095Z" fill="#008ECF"/>
<path d="M0 14.5095C0 21.2603 5.08506 27.0688 11.8132 28.0252L12.1531 28.0674V23.609L11.9123 23.5668C7.59217 22.6948 4.44766 18.8834 4.44766 14.5095C4.44766 10.1355 7.59217 6.32409 11.9123 5.45211L12.1531 5.40992V0.9375L11.8132 0.993757C5.07089 1.95012 0 7.77271 0 14.5095Z" fill="url(#paint0_linear_3699_10)"/>
<path d="M29.336 0.993757L28.9961 0.9375V5.40992L29.2369 5.45211C33.5571 6.32409 36.7016 10.1355 36.7016 14.5095C36.7016 18.8834 33.5571 22.6948 29.2369 23.5668L28.9961 23.609V28.0674L29.336 28.0252C36.0783 27.0688 41.1492 21.2603 41.1492 14.5095C41.1492 7.75864 36.0783 1.95012 29.336 0.993757Z" fill="#6C6D70"/>
<path d="M13.5713 14.5095C13.5713 21.2603 18.6563 27.0688 25.3845 28.0252L25.7244 28.0674V23.609L25.4836 23.5668C21.1635 22.6948 18.0189 18.8834 18.0189 14.5095C18.0189 10.1355 21.1635 6.32409 25.4836 5.45211L25.7244 5.40992V0.9375L25.3845 0.993757C18.6422 1.95012 13.5713 7.77271 13.5713 14.5095Z" fill="#008ECF"/>
<path d="M13.5713 14.5095C13.5713 21.2603 18.6563 27.0688 25.3845 28.0252L25.7244 28.0674V23.609L25.4836 23.5668C21.1635 22.6948 18.0189 18.8834 18.0189 14.5095C18.0189 10.1355 21.1635 6.32409 25.4836 5.45211L25.7244 5.40992V0.9375L25.3845 0.993757C18.6422 1.95012 13.5713 7.77271 13.5713 14.5095Z" fill="url(#paint1_linear_3699_10)"/>
<path d="M27.3676 8.47656C24.0106 8.47656 21.291 11.1769 21.291 14.496C21.291 17.8152 24.0248 20.5155 27.3676 20.5155C30.7104 20.5155 33.4442 17.8152 33.4442 14.496C33.4442 11.1769 30.7104 8.47656 27.3676 8.47656Z" fill="#008ECF"/>
<path d="M27.3676 8.47656C24.0106 8.47656 21.291 11.1769 21.291 14.496C21.291 17.8152 24.0248 20.5155 27.3676 20.5155C30.7104 20.5155 33.4442 17.8152 33.4442 14.496C33.4442 11.1769 30.7104 8.47656 27.3676 8.47656Z" fill="url(#paint2_linear_3699_10)"/>
<defs>
<linearGradient id="paint0_linear_3699_10" x1="0" y1="0.9375" x2="15.0444" y2="2.64874" gradientUnits="userSpaceOnUse">
<stop stop-color="#75A5FF"/>
<stop offset="0.703125" stop-color="#008ECF"/>
</linearGradient>
<linearGradient id="paint1_linear_3699_10" x1="13.5713" y1="0.9375" x2="28.6157" y2="2.64874" gradientUnits="userSpaceOnUse">
<stop stop-color="#75A5FF"/>
<stop offset="0.703125" stop-color="#008ECF"/>
</linearGradient>
<linearGradient id="paint2_linear_3699_10" x1="21.291" y1="8.47656" x2="35.5905" y2="12.1419" gradientUnits="userSpaceOnUse">
<stop stop-color="#75A5FF"/>
<stop offset="0.703125" stop-color="#008ECF"/>
</linearGradient>
</defs>
</svg>
