<svg width="134" height="40" viewBox="0 0 134 40" fill="none" xmlns="http://www.w3.org/2000/svg">
<path d="M53.5682 14.7051H54.5053C54.9912 14.7051 55.36 14.6068 55.6116 14.4104C55.8632 14.2141 55.989 13.9135 55.989 13.509C55.989 13.0931 55.8632 12.7929 55.6116 12.6078C55.36 12.423 54.9912 12.3306 54.5053 12.3306H53.5682V14.7051ZM53.5682 17.6685H52.7874V11.6025H54.5747C54.9218 11.6025 55.2328 11.6387 55.5075 11.7109C55.7822 11.7831 56.0178 11.8974 56.2146 12.0531C56.4112 12.2091 56.5617 12.4057 56.6658 12.6424C56.7699 12.8795 56.822 13.1624 56.822 13.4918C56.822 14.1215 56.6181 14.6024 56.2103 14.9345C55.8025 15.2669 55.2341 15.4328 54.5053 15.4328H53.5682V17.6685Z" fill="#434242"/>
<path d="M61.386 17.0275C61.9586 17.0275 62.4082 16.827 62.7352 16.4254C63.0619 16.0239 63.2254 15.4275 63.2254 14.6358C63.2254 14.2198 63.1805 13.8618 63.0909 13.5612C63.0012 13.2611 62.8724 13.0125 62.7048 12.816C62.5368 12.6198 62.3331 12.4753 62.0931 12.3827C61.8529 12.2903 61.5824 12.2442 61.2819 12.2442C61.0157 12.2442 60.767 12.2933 60.5357 12.3913C60.3042 12.4898 60.1046 12.6369 59.937 12.8333C59.7692 13.0299 59.6361 13.2782 59.5378 13.5787C59.4395 13.8791 59.3904 14.2315 59.3904 14.6358C59.3904 15.0344 59.4381 15.3842 59.5335 15.6843C59.6289 15.9849 59.7634 16.2346 59.937 16.4339C60.1105 16.6334 60.32 16.7821 60.566 16.8804C60.8118 16.9787 61.0851 17.0275 61.386 17.0275ZM61.3079 17.7554C60.8855 17.7554 60.5053 17.6832 60.1669 17.5388C59.8285 17.3945 59.5391 17.1879 59.2993 16.9192C59.0591 16.6506 58.8755 16.3228 58.7483 15.9356C58.6209 15.5488 58.5574 15.1155 58.5574 14.6358C58.5574 14.1507 58.6239 13.716 58.7569 13.3316C58.8899 12.9475 59.0764 12.621 59.3166 12.3525C59.5566 12.0839 59.8443 11.8773 60.1799 11.7328C60.5152 11.5884 60.8827 11.5161 61.2819 11.5161C61.733 11.5161 62.1306 11.5929 62.4749 11.7459C62.8188 11.899 63.1083 12.1128 63.3426 12.3872C63.5768 12.6615 63.7547 12.9909 63.8762 13.3749C63.9976 13.7593 64.0584 14.1796 64.0584 14.6358C64.0584 15.15 63.989 15.6022 63.8501 15.9921C63.7113 16.3821 63.5204 16.7071 63.2775 16.967C63.0345 17.227 62.7452 17.4234 62.4098 17.5561C62.0742 17.6891 61.707 17.7554 61.3079 17.7554Z" fill="#434242"/>
<path d="M70.3229 17.5042C70.1549 17.5853 69.9583 17.6471 69.7329 17.6905C69.5071 17.7338 69.2612 17.7554 68.9953 17.7554C68.5209 17.7554 68.0971 17.6848 67.7241 17.5433C67.3512 17.4017 67.0343 17.1981 66.774 16.9322C66.5136 16.6665 66.3141 16.3473 66.1755 15.9746C66.0364 15.6022 65.967 15.1819 65.967 14.7139C65.967 14.1997 66.0364 13.7432 66.1755 13.3446C66.3141 12.946 66.5136 12.6111 66.774 12.3394C67.0343 12.068 67.348 11.8628 67.7156 11.7243C68.0828 11.5856 68.4919 11.5161 68.9431 11.5161C69.2902 11.5161 69.5722 11.5409 69.7891 11.5898C70.006 11.639 70.1868 11.6925 70.3314 11.7501L70.1839 12.4347C69.9932 12.3655 69.7992 12.3165 69.6027 12.2875C69.4059 12.2586 69.2123 12.2442 69.0214 12.2442C68.2981 12.2442 67.7471 12.4465 67.3685 12.8508C66.9895 13.2552 66.8 13.8502 66.8 14.6358C66.8 15.0114 66.8535 15.348 66.9607 15.6455C67.0676 15.9429 67.2194 16.1944 67.4162 16.3993C67.6127 16.6045 67.8528 16.7604 68.1362 16.8672C68.4196 16.9743 68.7406 17.0275 69.0993 17.0275C69.2902 17.0275 69.4825 17.0104 69.6763 16.9755C69.8701 16.9409 70.0421 16.8861 70.1927 16.8109L70.3229 17.5042Z" fill="#434242"/>
<path d="M72.943 14.1678H75.4853C75.4679 13.8387 75.4056 13.5541 75.2987 13.3143C75.1916 13.0747 75.0455 12.8753 74.8605 12.7163C74.6753 12.5576 74.4571 12.4392 74.2054 12.361C73.9538 12.2831 73.6776 12.2442 73.3768 12.2442C73.2033 12.2442 72.9978 12.2586 72.7607 12.2875C72.5236 12.3165 72.298 12.3742 72.084 12.4609L71.9365 11.8281C72.0868 11.7473 72.3053 11.675 72.5916 11.6114C72.8779 11.548 73.1772 11.5161 73.4896 11.5161C73.9235 11.5161 74.3167 11.5754 74.6696 11.694C75.0224 11.8123 75.3217 11.9959 75.5677 12.2442C75.8134 12.4926 76.0027 12.8089 76.136 13.1929C76.2689 13.5774 76.3356 14.0323 76.3356 14.5578C76.3356 15.0547 76.2719 15.5011 76.1446 15.8968C76.0173 16.2925 75.825 16.6277 75.5677 16.902C75.3101 17.1764 74.9906 17.3872 74.6089 17.5345C74.2271 17.682 73.7816 17.7554 73.2727 17.7554C72.9544 17.7554 72.6913 17.7324 72.4831 17.6861C72.2749 17.64 72.0982 17.5939 71.9538 17.5475L72.1014 16.8629C72.2864 16.9265 72.4859 16.9698 72.7 16.9929C72.914 17.0161 73.1049 17.0275 73.2727 17.0275C73.9378 17.0275 74.4701 16.8514 74.8692 16.4989C75.2683 16.1466 75.4765 15.6064 75.4939 14.8786H72.943V14.1678Z" fill="#434242"/>
<path d="M83.1379 17.6685H82.357V14.8784H79.2853V17.6685H78.5044V11.6025H79.2853V14.1676H82.357V11.6025H83.1379V17.6685Z" fill="#434242"/>
<path d="M88.9599 17.6685H85.5674V11.6025H88.9599V12.3306H86.3483V14.1676H88.7344V14.8784H86.3483V16.9407H88.9599V17.6685Z" fill="#434242"/>
<path d="M91.9533 14.7051H92.8903C93.3764 14.7051 93.7451 14.6068 93.9966 14.4104C94.2484 14.2141 94.3742 13.9135 94.3742 13.509C94.3742 13.0931 94.2484 12.7929 93.9966 12.6078C93.7451 12.423 93.3764 12.3306 92.8903 12.3306H91.9533V14.7051ZM91.9533 17.6685H91.1724V11.6025H92.9597C93.3068 11.6025 93.6178 11.6387 93.8925 11.7109C94.1672 11.7831 94.403 11.8974 94.5996 12.0531C94.7962 12.2091 94.9467 12.4057 95.051 12.6424C95.1551 12.8795 95.207 13.1624 95.207 13.4918C95.207 14.1215 95.0033 14.6024 94.5955 14.9345C94.1875 15.2669 93.6193 15.4328 92.8903 15.4328H91.9533V17.6685Z" fill="#434242"/>
<path d="M97.9833 17.6685H97.2024V11.6025H100.421V12.3306H97.9833V17.6685Z" fill="#434242"/>
<path d="M104.508 17.0275C105.081 17.0275 105.531 16.827 105.857 16.4254C106.184 16.0239 106.348 15.4275 106.348 14.6358C106.348 14.2198 106.303 13.8618 106.213 13.5612C106.123 13.2611 105.995 13.0125 105.827 12.816C105.659 12.6198 105.455 12.4753 105.215 12.3827C104.975 12.2903 104.705 12.2442 104.404 12.2442C104.138 12.2442 103.889 12.2933 103.658 12.3913C103.426 12.4898 103.227 12.6369 103.059 12.8333C102.891 13.0299 102.758 13.2782 102.66 13.5787C102.562 13.8791 102.513 14.2315 102.513 14.6358C102.513 15.0344 102.56 15.3842 102.656 15.6843C102.751 15.9849 102.886 16.2346 103.059 16.4339C103.233 16.6334 103.442 16.7821 103.688 16.8804C103.934 16.9787 104.207 17.0275 104.508 17.0275ZM104.43 17.7554C104.008 17.7554 103.628 17.6832 103.289 17.5388C102.951 17.3945 102.661 17.1879 102.422 16.9192C102.181 16.6506 101.998 16.3228 101.871 15.9356C101.743 15.5488 101.68 15.1155 101.68 14.6358C101.68 14.1507 101.746 13.716 101.879 13.3316C102.012 12.9475 102.199 12.621 102.439 12.3525C102.679 12.0839 102.967 11.8773 103.302 11.7328C103.637 11.5884 104.005 11.5161 104.404 11.5161C104.855 11.5161 105.253 11.5929 105.597 11.7459C105.941 11.899 106.231 12.1128 106.465 12.3872C106.699 12.6615 106.877 12.9909 106.998 13.3749C107.12 13.7593 107.181 14.1796 107.181 14.6358C107.181 15.15 107.111 15.6022 106.972 15.9921C106.834 16.3821 106.643 16.7071 106.4 16.967C106.157 17.227 105.868 17.4234 105.532 17.5561C105.196 17.6891 104.829 17.7554 104.43 17.7554Z" fill="#434242"/>
<path d="M110.2 15.3375H112.291L111.276 12.4865H111.241L110.2 15.3375ZM112.543 16.0482H109.948L109.358 17.6685H108.569L110.886 11.6025H111.666L113.94 17.6685H113.124L112.543 16.0482Z" fill="#434242"/>
<path d="M117.211 17.6685H116.43V12.3306H114.634V11.6025H119.007V12.3306H117.211V17.6685Z" fill="#434242"/>
<path d="M123.224 17.0275C123.796 17.0275 124.246 16.827 124.573 16.4254C124.9 16.0239 125.063 15.4275 125.063 14.6358C125.063 14.2198 125.018 13.8618 124.929 13.5612C124.839 13.2611 124.71 13.0125 124.542 12.816C124.375 12.6198 124.171 12.4753 123.931 12.3827C123.691 12.2903 123.42 12.2442 123.12 12.2442C122.853 12.2442 122.605 12.2933 122.373 12.3913C122.142 12.4898 121.942 12.6369 121.775 12.8333C121.607 13.0299 121.474 13.2782 121.375 13.5787C121.277 13.8791 121.228 14.2315 121.228 14.6358C121.228 15.0344 121.276 15.3842 121.371 15.6843C121.467 15.9849 121.601 16.2346 121.775 16.4339C121.948 16.6334 122.158 16.7821 122.404 16.8804C122.65 16.9787 122.923 17.0275 123.224 17.0275ZM123.146 17.7554C122.723 17.7554 122.343 17.6832 122.005 17.5388C121.666 17.3945 121.377 17.1879 121.137 16.9192C120.897 16.6506 120.713 16.3228 120.586 15.9356C120.459 15.5488 120.395 15.1155 120.395 14.6358C120.395 14.1507 120.462 13.716 120.595 13.3316C120.728 12.9475 120.914 12.621 121.154 12.3525C121.394 12.0839 121.682 11.8773 122.018 11.7328C122.353 11.5884 122.72 11.5161 123.12 11.5161C123.571 11.5161 123.968 11.5929 124.313 11.7459C124.657 11.899 124.946 12.1128 125.18 12.3872C125.414 12.6615 125.593 12.9909 125.714 13.3749C125.835 13.7593 125.896 14.1796 125.896 14.6358C125.896 15.15 125.827 15.6022 125.688 15.9921C125.549 16.3821 125.358 16.7071 125.115 16.967C124.872 17.227 124.583 17.4234 124.248 17.5561C123.912 17.6891 123.545 17.7554 123.146 17.7554Z" fill="#434242"/>
<path d="M134 17.6685H133.219L132.846 12.9286L131.31 17.6685H130.494L128.967 12.9457L128.586 17.6685H127.805L128.325 11.6025H129.28L130.92 16.8193L132.525 11.6025H133.479L134 17.6685Z" fill="#434242"/>
<path d="M46.2153 36.7859H46.6305V3.27344H46.2153V36.7859Z" fill="#434242"/>
<path d="M53.4128 26.6587H54.1633C54.5525 26.6587 54.848 26.58 55.0495 26.4228C55.251 26.2656 55.352 26.0248 55.352 25.7009C55.352 25.3677 55.251 25.1273 55.0495 24.9789C54.848 24.8311 54.5525 24.7569 54.1633 24.7569H53.4128V26.6587ZM53.4128 29.0325H52.7874V24.1738H54.219C54.497 24.1738 54.746 24.2028 54.966 24.2607C55.1861 24.3186 55.3751 24.4099 55.5325 24.5347C55.69 24.6597 55.8104 24.8172 55.8938 25.007C55.9774 25.1967 56.0189 25.4233 56.0189 25.687C56.0189 26.1914 55.8556 26.5767 55.529 26.8427C55.2024 27.1088 54.7472 27.2419 54.1633 27.2419H53.4128V29.0325Z" fill="#20599D"/>
<path d="M59.6049 28.5188C60.0635 28.5188 60.4237 28.358 60.6856 28.0365C60.9473 27.715 61.0781 27.2372 61.0781 26.6032C61.0781 26.2699 61.0424 25.9832 60.9704 25.7425C60.8985 25.502 60.7956 25.303 60.6611 25.1456C60.5266 24.9884 60.3634 24.8726 60.1712 24.7986C59.979 24.7244 59.7624 24.6876 59.5214 24.6876C59.3083 24.6876 59.1091 24.7269 58.9239 24.8054C58.7384 24.8843 58.5788 25.0023 58.4443 25.1595C58.3098 25.3168 58.2034 25.5158 58.1246 25.7565C58.0457 25.9971 58.0064 26.2793 58.0064 26.6032C58.0064 26.9226 58.0448 27.2027 58.1211 27.4431C58.1975 27.6836 58.3055 27.8838 58.4443 28.0436C58.5834 28.203 58.7511 28.3223 58.9482 28.4008C59.145 28.4796 59.3638 28.5188 59.6049 28.5188ZM59.5424 29.1021C59.2042 29.1021 58.8994 29.044 58.6285 28.9284C58.3575 28.8128 58.1257 28.6473 57.9336 28.4322C57.7413 28.2169 57.594 27.9544 57.4922 27.6443C57.3902 27.3344 57.3394 26.9874 57.3394 26.6032C57.3394 26.2144 57.3925 25.8664 57.4992 25.5586C57.6056 25.251 57.7552 24.9894 57.9474 24.7744C58.1397 24.5591 58.37 24.3936 58.639 24.278C58.9074 24.1624 59.2019 24.1045 59.5214 24.1045C59.8828 24.1045 60.2014 24.1661 60.477 24.2884C60.7526 24.4111 60.9844 24.5825 61.1722 24.8021C61.3596 25.0219 61.5021 25.2856 61.5994 25.5933C61.6968 25.9011 61.7454 26.2377 61.7454 26.6032C61.7454 27.0152 61.6898 27.3772 61.5786 27.6894C61.4674 28.0018 61.3143 28.2621 61.12 28.4703C60.9252 28.6785 60.6936 28.836 60.425 28.9422C60.1561 29.0486 59.862 29.1021 59.5424 29.1021Z" fill="#20599D"/>
<path d="M66.6938 28.9006C66.5595 28.9656 66.4018 29.0152 66.2211 29.0499C66.0405 29.0847 65.8436 29.1021 65.6304 29.1021C65.2507 29.1021 64.9112 29.0452 64.6125 28.9318C64.3136 28.8187 64.0599 28.6556 63.8515 28.4425C63.6427 28.2297 63.4831 27.9739 63.3719 27.6757C63.2606 27.3772 63.2051 27.0406 63.2051 26.6658C63.2051 26.254 63.2606 25.8883 63.3719 25.569C63.4831 25.2496 63.6427 24.9815 63.8515 24.7639C64.0599 24.5465 64.311 24.382 64.6055 24.271C64.8996 24.1602 65.2274 24.1045 65.5889 24.1045C65.8667 24.1045 66.0927 24.1242 66.2664 24.1634C66.4403 24.2027 66.5848 24.2456 66.7005 24.2917L66.5825 24.8402C66.4295 24.7848 66.2744 24.7456 66.1169 24.7222C65.9594 24.6991 65.8041 24.6876 65.6512 24.6876C65.0719 24.6876 64.6309 24.8496 64.3273 25.1733C64.0238 25.4972 63.8723 25.974 63.8723 26.6032C63.8723 26.904 63.9152 27.1736 64.0007 27.4119C64.0865 27.6502 64.2079 27.8514 64.3655 28.0155C64.5232 28.18 64.7154 28.3049 64.9425 28.3904C65.1693 28.476 65.4267 28.5188 65.7137 28.5188C65.8667 28.5188 66.0207 28.5051 66.176 28.4774C66.3313 28.4493 66.4691 28.4055 66.5895 28.3453L66.6938 28.9006Z" fill="#20599D"/>
<path d="M69.1882 27.1653H70.8632L70.05 24.882H70.0222L69.1882 27.1653ZM71.0646 27.7346H68.9867L68.5142 29.0325H67.8818L69.7372 24.1738H70.3627L72.1836 29.0325H71.5304L71.0646 27.7346Z" fill="#20599D"/>
<path d="M74.7341 29.0325H74.1085V24.7569H72.6699V24.1738H76.1725V24.7569H74.7341V29.0325Z" fill="#20599D"/>
<path d="M79.4808 28.5188C79.9396 28.5188 80.2997 28.358 80.5616 28.0365C80.8232 27.715 80.9541 27.2372 80.9541 26.6032C80.9541 26.2699 80.9183 25.9832 80.8465 25.7425C80.7745 25.502 80.6716 25.303 80.5371 25.1456C80.4028 24.9884 80.2395 24.8726 80.0474 24.7986C79.8549 24.7244 79.6383 24.6876 79.3973 24.6876C79.1842 24.6876 78.9852 24.7269 78.7998 24.8054C78.6143 24.8843 78.4547 25.0023 78.3202 25.1595C78.1859 25.3168 78.0794 25.5158 78.0008 25.7565C77.9218 25.9971 77.8826 26.2793 77.8826 26.6032C77.8826 26.9226 77.9207 27.2027 77.9971 27.4431C78.0736 27.6836 78.1814 27.8838 78.3202 28.0436C78.4594 28.203 78.6272 28.3223 78.8242 28.4008C79.0211 28.4796 79.24 28.5188 79.4808 28.5188ZM79.4185 29.1021C79.0801 29.1021 78.7754 29.044 78.5045 28.9284C78.2334 28.8128 78.0018 28.6473 77.8095 28.4322C77.6172 28.2169 77.4701 27.9544 77.3682 27.6443C77.2662 27.3344 77.2153 26.9874 77.2153 26.6032C77.2153 26.2144 77.2685 25.8664 77.3752 25.5586C77.4817 25.251 77.6311 24.9894 77.8234 24.7744C78.0157 24.5591 78.2461 24.3936 78.5151 24.278C78.7834 24.1624 79.0779 24.1045 79.3973 24.1045C79.7588 24.1045 80.0774 24.1661 80.3531 24.2884C80.6286 24.4111 80.8604 24.5825 81.0481 24.8021C81.2356 25.0219 81.3782 25.2856 81.4756 25.5933C81.5729 25.9011 81.6213 26.2377 81.6213 26.6032C81.6213 27.0152 81.5658 27.3772 81.4546 27.6894C81.3433 28.0018 81.1905 28.2621 80.9959 28.4703C80.8012 28.6785 80.5695 28.836 80.3009 28.9422C80.0323 29.0486 79.738 29.1021 79.4185 29.1021Z" fill="#20599D"/>
<path d="M88.0425 29.0325H87.4173L87.1183 25.2359L85.8882 29.0325H85.2349L84.0115 25.2496L83.7063 29.0325H83.0806L83.4976 24.1738H84.262L85.5754 28.3525L86.8611 24.1738H87.6255L88.0425 29.0325Z" fill="#20599D"/>
<path fill-rule="evenodd" clip-rule="evenodd" d="M23.299 22.849C21.744 24.5676 19.0939 24.6984 17.3781 23.1419C15.6615 21.5854 15.5286 18.929 17.0805 17.2099C18.6348 15.4909 21.2867 15.3616 23.0026 16.9178C24.7185 18.4743 24.8507 21.1299 23.299 22.849Z" fill="url(#paint0_radial_2863_24568)"/>
<path fill-rule="evenodd" clip-rule="evenodd" d="M21.2809 5.66516C21.6336 6.01005 21.958 6.36343 22.2527 6.71578C23.9399 8.73457 24.7286 10.718 24.7286 10.718C25.8047 10.9175 26.8105 10.9726 27.7484 10.9265C27.8091 10.923 27.8652 10.923 27.9272 10.9187C27.9832 10.914 28.0346 10.907 28.0907 10.9026C30.1666 10.7157 32.8626 9.92108 35.3273 7.45359C35.4119 7.36899 35.4966 7.27869 35.5806 7.18997C35.1997 6.73538 34.8062 6.28664 34.3793 5.85858C27.219 -1.26954 16.0439 -1.89121 8.17749 3.98329C14.3494 0.995882 18.6253 3.05658 21.2809 5.66516Z" fill="url(#paint1_linear_2863_24568)"/>
<path fill-rule="evenodd" clip-rule="evenodd" d="M7.06383 26.0348C7.1866 25.5579 7.33147 25.101 7.48893 24.6691C8.39634 22.2002 9.72167 20.5265 9.72167 20.5265C9.35673 19.4954 8.90118 18.5981 8.39211 17.8108C8.3594 17.7601 8.33131 17.7108 8.29604 17.6594C8.26456 17.614 8.23234 17.5719 8.20076 17.5259C7.00062 15.8245 4.96335 13.8896 1.59185 12.9916C1.47561 12.9606 1.35578 12.9332 1.2366 12.9043C1.03265 13.4615 0.840614 14.0257 0.682122 14.6089C-1.91793 24.3663 3.13062 34.3433 12.1565 38.2093C6.48068 34.3647 6.13014 29.6363 7.06383 26.0348Z" fill="url(#paint2_linear_2863_24568)"/>
<path fill-rule="evenodd" clip-rule="evenodd" d="M31.882 28.1697C31.4064 28.302 30.9384 28.4046 30.4858 28.4849C27.8912 28.9342 25.777 28.6252 25.777 28.6252C25.0652 29.4559 24.5154 30.2991 24.0863 31.1326C24.0601 31.1866 24.0315 31.2357 24.0039 31.2915C23.9801 31.3421 23.9599 31.3903 23.936 31.4405C23.0597 33.3293 22.4014 36.0589 23.3089 39.4243C23.3392 39.5395 23.3762 39.6577 23.4109 39.7755C23.9957 39.6731 24.5812 39.5564 25.1653 39.4016C34.9263 36.7726 41.0541 27.4172 39.8921 17.6768C39.3967 24.5086 35.4724 27.1769 31.882 28.1697Z" fill="url(#paint3_linear_2863_24568)"/>
<path fill-rule="evenodd" clip-rule="evenodd" d="M8.17736 3.9835C8.17736 3.9835 3.82033 6.70856 1.54346 12.1789C2.14023 12.2825 8.21794 13.5061 10.4823 20.2517C11.0361 19.899 12.7358 18.5579 13.8782 14.8626C15.259 10.3956 17.8811 7.09972 21.2807 5.66536C21.2807 5.66536 16.9749 -0.464806 8.17736 3.9835Z" fill="url(#paint4_linear_2863_24568)"/>
<path fill-rule="evenodd" clip-rule="evenodd" d="M21.9831 36.1453C21.9819 33.8808 22.6115 30.8837 25.1298 28.06L25.1579 28.0165C24.747 27.5777 23.3079 26.4969 19.6066 27.3392C15.0434 28.3787 10.0078 28.2583 7.06385 26.0347C7.06385 26.0347 3.9015 32.8243 12.1565 38.2091C12.1565 38.2091 16.6918 40.6119 22.5674 39.8512C22.4612 39.5588 21.9837 38.1329 21.9831 36.1453Z" fill="url(#paint5_linear_2863_24568)"/>
<path fill-rule="evenodd" clip-rule="evenodd" d="M36.106 7.84375C35.4566 8.63059 32.3714 11.8593 27.2225 11.8636C26.3939 11.8636 25.5139 11.7795 24.5838 11.5875L24.5397 11.5771C24.3698 12.1995 24.2295 13.9616 26.7432 16.6677C29.9246 20.0957 32.3379 24.5112 31.8823 28.1694C31.8823 28.1694 39.3515 27.5096 39.8924 17.6764C39.8924 17.6764 39.7082 12.5471 36.106 7.84375Z" fill="url(#paint6_linear_2863_24568)"/>
<defs>
<radialGradient id="paint0_radial_2863_24568" cx="0" cy="0" r="1" gradientUnits="userSpaceOnUse" gradientTransform="translate(19.0172 17.9289) rotate(0.0556084) scale(5.30529 5.31518)">
<stop stop-color="#4E97D2"/>
<stop offset="1" stop-color="#2C306A"/>
</radialGradient>
<linearGradient id="paint1_linear_2863_24568" x1="14.4376" y1="1.3501" x2="32.0759" y2="8.46511" gradientUnits="userSpaceOnUse">
<stop stop-color="#4495D1"/>
<stop offset="1" stop-color="#15256D"/>
</linearGradient>
<linearGradient id="paint2_linear_2863_24568" x1="6.76411" y1="34.1153" x2="4.10247" y2="15.3033" gradientUnits="userSpaceOnUse">
<stop stop-color="#4495D1"/>
<stop offset="1" stop-color="#15256D"/>
</linearGradient>
<linearGradient id="paint3_linear_2863_24568" x1="39.0561" y1="24.4026" x2="24.0811" y2="36.147" gradientUnits="userSpaceOnUse">
<stop stop-color="#4495D1"/>
<stop offset="1" stop-color="#15256D"/>
</linearGradient>
<linearGradient id="paint4_linear_2863_24568" x1="7.87651" y1="15.8906" x2="14.7862" y2="4.758" gradientUnits="userSpaceOnUse">
<stop stop-color="#4E97D2"/>
<stop offset="1" stop-color="#2C306A"/>
</linearGradient>
<linearGradient id="paint5_linear_2863_24568" x1="22.4051" y1="32.1787" x2="8.16988" y2="33.6326" gradientUnits="userSpaceOnUse">
<stop stop-color="#4495D1"/>
<stop offset="1" stop-color="#15256D"/>
</linearGradient>
<linearGradient id="paint6_linear_2863_24568" x1="31.5441" y1="11.6157" x2="34.4363" y2="26.2403" gradientUnits="userSpaceOnUse">
<stop stop-color="#4495D1"/>
<stop offset="1" stop-color="#15256D"/>
</linearGradient>
</defs>
</svg>
