<svg width="40" height="40" viewBox="0 0 40 40" fill="none" xmlns="http://www.w3.org/2000/svg">
<path fill-rule="evenodd" clip-rule="evenodd" d="M27.3893 13.432C26.7639 12.8863 25.8646 12.8988 25.3486 13.0572C25.6866 12.6442 26.4742 12.3054 26.7059 12.2643C26.8824 12.3302 27.3893 12.8485 27.3893 13.432ZM29.386 11.1721C28.9747 8.98215 23.8622 10.4334 21.2874 9.5032C21.2382 10.1416 22.0801 11.1645 22.8855 11.5429C21.5089 12.7324 20.2731 15.1286 20.0234 18.0562C19.7749 15.1286 18.5389 12.7324 17.1623 11.5431C17.9675 11.1647 18.8103 10.1418 18.7602 9.50348C16.1856 10.4337 11.0729 8.98256 10.6609 11.1725C10.5743 11.6362 10.7983 12.3423 11.0402 12.5455C11.0836 12.3986 11.3096 11.918 12.0223 11.8104C15.6242 11.2686 18.6315 16.7946 15.9169 19.0289C15.8755 19.0632 15.899 19.1257 15.9549 19.1257H24.0936C24.1488 19.1257 24.1722 19.0631 24.1314 19.0291C21.4161 16.7949 24.4234 11.2689 28.0255 11.8107C28.7386 11.9183 28.9641 12.3987 29.0075 12.5456C29.2495 12.3424 29.4733 11.6357 29.386 11.1721ZM30.2622 6.14622C30.1973 5.93931 32.3095 5.9341 32.3095 7.25011C32.3095 8.13185 31.046 8.54952 31.046 9.46476C31.046 9.89094 31.5067 10.2034 31.6481 10.2034C31.3226 8.73432 32.6681 9.5032 33.0315 9.7778C32.3095 7.80206 33.9347 7.81442 33.7747 6.90851C33.6634 6.27556 32.2506 6.46668 31.7394 6.14622C30.8321 5.5778 29.7587 3.36549 29.0514 5.5778C30.37 6.79634 29.6027 8.59016 27.9286 8.59016C27.9286 8.59016 27.9194 8.85309 27.9347 8.87396C29.9314 8.77675 30.6274 7.31588 30.2622 6.14622ZM6.96742 9.7778C7.33073 9.5032 8.67611 8.73432 8.35142 10.2034C8.49211 10.2034 8.9528 9.89094 8.9528 9.46476C8.9528 8.54952 7.68935 8.13185 7.68935 7.25011C7.68935 5.9341 9.80135 5.93931 9.73666 6.14622C9.37197 7.31602 10.068 8.77689 12.0647 8.87396C12.0794 8.85309 12.0702 8.59002 12.0702 8.59002C10.3968 8.59002 9.62949 6.79634 10.9474 5.57767C10.2401 3.36549 9.16673 5.57767 8.25942 6.14609C7.74811 6.46668 6.33528 6.27542 6.22411 6.90851C6.0648 7.81469 7.68935 7.80206 6.96742 9.7778ZM12.6368 13.432C13.2627 12.8863 14.1623 12.8988 14.6775 13.0572C14.3409 12.6442 13.552 12.3054 13.3208 12.2643C13.1442 12.3302 12.6368 12.8485 12.6368 13.432ZM20.9733 1.18215L19.9995 0L19.0255 1.18215L19.9993 2.42609L20.9733 1.18215ZM26.5333 4.75648L25.8409 3.91648L25.1488 4.75648L25.8408 5.57753L26.5333 4.75648ZM32.1513 29.0396L31.2735 28.1147L30.3954 29.0394L31.2735 29.8509L32.1513 29.0396ZM14.8506 4.75648L14.1582 3.91648L13.4662 4.75648L14.1583 5.57753L14.8506 4.75648ZM12.8667 8.8741H15.4502C17.6222 8.8741 18.5994 7.54696 18.8947 6.39611H21.1048C21.4002 7.54696 22.3769 8.87396 24.5496 8.87396H27.1331C27.1331 8.87396 27.5849 8.26366 27.6983 7.96146C28.1063 6.87405 27.5849 6.36673 26.8242 6.36673L25.8408 7.25396L24.8576 6.367C24.0969 6.367 23.5755 6.87405 23.9835 7.9616C24.0357 8.10055 24.1604 8.30485 24.2784 8.48444C23.3617 8.35908 22.1915 7.73437 21.935 6.39611C21.935 6.39611 22.6122 5.32517 22.7824 4.89172C23.3931 3.33295 22.6131 2.69588 21.4724 2.69588L19.9997 4.41899L18.527 2.69588C17.3863 2.69588 16.6064 3.33295 17.2178 4.89172C17.387 5.32517 18.0651 6.39625 18.0651 6.39625C17.8078 7.73437 16.6379 8.35908 15.7212 8.48458C15.8398 8.30471 15.964 8.10055 16.0158 7.96146C16.4231 6.87405 15.9031 6.36686 15.1419 6.36686L14.1584 7.2541L13.175 6.36714C12.4139 6.36714 11.8939 6.87419 12.3012 7.96174C12.4146 8.2638 12.8667 8.8741 12.8667 8.8741ZM39.5754 16.8452C39.0768 17.0964 36.1514 18.4605 32.4041 17.9559C32.4429 17.778 32.4758 17.5989 32.5028 17.4188C34.9969 17.1218 37.0242 16.7007 38.3162 15.9854C39.7889 15.1694 40.4329 13.2216 39.6896 11.7726C39.6703 11.7361 39.6169 11.7295 39.5903 11.7603C39.1828 12.2271 36.6216 15.0005 32.5862 15.8628C32.5759 15.6547 32.5568 15.4471 32.5289 15.2405C34.4889 14.1342 36.4023 12.8594 37.3137 11.6937C38.6908 9.9313 38.5642 7.68316 37.2536 6.53698C37.2469 6.53122 37.239 6.52695 37.2305 6.52446C37.222 6.52198 37.213 6.52133 37.2042 6.52257C37.1954 6.5238 37.187 6.52689 37.1795 6.53162C37.172 6.53636 37.1656 6.54263 37.1608 6.55002C36.7461 7.23103 32.8648 13.4754 28.6035 16.1714C28.5515 16.2045 28.4991 16.2369 28.4463 16.2686C28.3241 16.3425 28.3107 16.5007 28.4146 16.5945C28.9062 17.0377 29.2114 17.6544 29.2114 18.3393C29.2114 19.5301 28.2895 20.5203 27.0707 20.7351C26.4514 20.8546 25.5576 20.8199 24.6987 20.5372C24.6601 20.5248 24.6201 20.5502 24.6201 20.5888V24.3596C24.6201 24.4203 24.7128 24.4354 24.7346 24.3774C25.2568 23.0006 26.8194 22.7081 27.5028 22.7081C27.7488 24.1795 28.1881 25.3981 28.7587 26.0541C29.6881 27.12 31.2056 27.105 31.8635 26.3681C31.8689 26.3621 31.8727 26.3549 31.8749 26.3472C31.8771 26.3395 31.8775 26.3313 31.8761 26.3234C31.8746 26.3155 31.8715 26.308 31.8667 26.3015C31.862 26.295 31.8559 26.2896 31.8488 26.2858C31.4621 26.0647 29.2502 24.7127 28.8074 22.4974C28.9812 22.4387 29.1511 22.3691 29.3161 22.2891C30.0302 23.4654 31.0695 24.513 31.9062 24.9132C33.3117 25.5842 34.5983 25.2578 35.1689 24.2754C35.1896 24.2408 35.1642 24.1977 35.1223 24.1939C34.2529 24.1248 31.5849 23.3636 30.4489 21.5092C30.5803 21.3905 30.7058 21.2654 30.8249 21.1344C32.0139 22.0354 33.6944 22.8317 34.8977 22.9943C36.3057 23.1848 37.901 22.7375 37.9397 21.1078C37.9403 21.0752 37.911 21.0485 37.8762 21.0504C37.3755 21.0806 34.0617 21.2241 31.7004 19.8748C31.7824 19.7196 31.8589 19.5615 31.9297 19.4009C31.9297 19.4009 35.4977 20.2405 37.1884 19.9624C38.8683 19.6865 39.8523 18.4398 39.6624 16.8887C39.6569 16.8503 39.6115 16.8269 39.5754 16.8452ZM8.06949 19.4003C8.14049 19.561 8.21719 19.7191 8.29942 19.8744C5.93873 21.223 2.62632 21.0806 2.12342 21.05C2.08811 21.0481 2.0586 21.0761 2.05942 21.1081C2.09873 22.7373 3.69349 23.1844 5.10149 22.9939C6.30425 22.8313 7.98563 22.035 9.17418 21.1341C9.29349 21.2649 9.41896 21.39 9.55017 21.509C8.41362 23.3632 5.74604 24.1245 4.8768 24.1936C4.83473 24.1977 4.81018 24.2407 4.83018 24.2753C5.4008 25.2577 6.68742 25.584 8.09363 24.913C8.92949 24.5128 9.96879 23.4652 10.6826 22.289C10.8478 22.3687 11.0178 22.4383 11.1916 22.4973C10.7488 24.7126 8.5368 26.0643 8.15018 26.2858C8.14312 26.2896 8.13702 26.295 8.13233 26.3016C8.12764 26.3081 8.12447 26.3156 8.12305 26.3235C8.12164 26.3313 8.12201 26.3395 8.12415 26.3472C8.12629 26.3549 8.13014 26.3621 8.13542 26.3681C8.79335 27.1049 10.3114 27.1199 11.2408 26.054C11.8114 25.398 12.2502 24.1793 12.496 22.708C13.1801 22.708 14.7422 23.0005 15.2642 24.3772C15.2867 24.4352 15.3794 24.4201 15.3794 24.3593V20.5886C15.3794 20.5502 15.3387 20.5247 15.3001 20.537C14.4415 20.8199 13.5474 20.8542 12.9288 20.7347C11.7095 20.5201 10.7874 19.5299 10.7874 18.3393C10.7874 17.6547 11.0936 17.0373 11.5841 16.5942C11.6889 16.5008 11.6747 16.3427 11.5535 16.2688C11.5002 16.2371 11.4473 16.2047 11.3949 16.1717C7.13611 13.4772 3.25694 7.23707 2.83873 6.55167C2.83383 6.54409 2.82734 6.53765 2.81972 6.53277C2.8121 6.52789 2.80352 6.52469 2.79456 6.52339C2.78559 6.52209 2.77645 6.52272 2.76775 6.52523C2.75905 6.52774 2.75099 6.53207 2.74411 6.53794C1.43543 7.6848 1.30825 9.93199 2.68549 11.694C3.59694 12.8596 5.51032 14.1345 7.46963 15.2408C7.44201 15.4473 7.42315 15.6548 7.41307 15.8628C3.38094 15.0014 0.821633 12.2326 0.410323 11.7625C0.382737 11.7303 0.328254 11.7368 0.309633 11.7735C-0.432435 13.2233 0.211702 15.1696 1.68287 15.9855C2.97501 16.7009 5.00246 17.122 7.49638 17.4189C7.52333 17.599 7.55622 17.7782 7.595 17.9561C3.85156 18.46 0.927702 17.099 0.425081 16.8459C0.38784 16.8269 0.342599 16.8504 0.337909 16.8895C0.14853 18.4405 1.13184 19.6859 2.81184 19.962C4.5019 20.24 8.06949 19.4003 8.06949 19.4003ZM31.2736 31.042L29.9735 30.0238C29.4546 30.3313 29.0733 30.8195 28.9252 31.3919C28.1431 31.5008 26.0113 31.0295 26.2186 30.7168C28.5551 27.4454 26.768 25.4975 24.62 25.606V27.8028C24.62 28.5085 24.0013 29.0804 23.2393 29.0804H21.756C20.692 29.0804 19.9993 30.145 19.9993 30.145C19.9993 30.145 19.3066 29.0802 18.2426 29.0802H16.7594C15.9967 29.0802 15.3794 28.5084 15.3794 27.8028V25.606C13.2314 25.4975 11.4429 27.4453 13.7801 30.7167C13.9856 31.0262 11.7942 31.5216 10.7663 31.3963C10.4954 31.1168 10.1048 30.9405 9.66742 30.9405C9.48144 30.9406 9.29696 30.9736 9.12259 31.038C9.12259 31.038 5.08342 27.2311 5.00949 27.1939L5.04259 27.117C5.27294 26.6886 4.9208 26.2218 4.69818 26.2547C4.9568 25.9458 4.9688 24.5941 3.53404 24.2813C3.57611 24.5529 3.59749 25.107 3.59749 25.107C3.59749 25.107 2.49018 24.5112 1.93405 25.0255C1.44549 25.6012 2.12342 26.6456 2.12342 26.6456C2.12342 26.6456 1.5568 26.6594 1.27749 26.6357C1.68811 28.0184 3.06549 27.9205 3.36342 27.6476C3.34411 27.8673 3.84204 28.1808 4.26411 27.9295L4.44949 27.8403C4.48218 27.8838 8.41611 31.5836 8.41611 31.5836C8.23542 31.8505 8.14949 32.1781 8.2088 32.5274C8.30218 33.0732 8.75873 33.5256 9.34218 33.6431C9.75418 33.7255 10.1415 33.6459 10.4521 33.4649L11.4935 34.427C11.5859 34.5107 11.7114 34.5629 11.8513 34.553C12.106 34.536 12.2968 34.3306 12.2775 34.0948C12.2692 33.9884 12.2146 33.8971 12.1393 33.8278C12.1227 33.8097 11.0786 32.8447 11.0786 32.8447C11.94 32.2438 13.5448 31.8202 14.8767 31.8202C15.1106 31.8202 15.2207 31.623 15.1401 31.4298C14.5367 29.9854 15.8339 28.9389 17.176 29.7908C17.7613 30.1621 18.356 30.8938 18.804 32.1146C16.6022 32.6452 13.8375 34.1073 13.2782 35.7033C13.0627 36.3195 13.7742 37.1595 14.6382 37.3285C14.6457 37.3302 14.6536 37.3303 14.6612 37.3289C14.6688 37.3276 14.6761 37.3247 14.6826 37.3205C14.6891 37.3163 14.6947 37.3109 14.6991 37.3045C14.7034 37.2982 14.7065 37.291 14.7081 37.2835C15.1594 34.9009 17.7335 33.1255 19.0728 32.824C19.14 33.0034 19.118 32.9454 19.1853 33.1241C17.7266 33.8109 16.312 35.2591 15.9081 36.9811C15.7226 37.7697 16.606 38.4805 17.3353 38.675C17.372 38.6846 17.408 38.6594 17.41 38.6242C17.5486 36.4466 18.5146 34.5972 19.38 33.756C19.4037 33.9205 19.4215 34.0858 19.4333 34.2516C19.4333 34.2516 18.5473 36.709 18.5473 38.502C18.5473 39.3362 19.7928 39.9185 19.9766 40C20.2066 39.9185 21.4511 39.3362 21.4511 38.502C21.4511 36.7089 20.5653 34.2515 20.5653 34.2515C20.5774 34.0857 20.5955 33.9204 20.6194 33.7558C21.4842 34.5975 22.4507 36.4459 22.5888 38.6235C22.5896 38.6321 22.5923 38.6404 22.5966 38.6478C22.601 38.6552 22.6069 38.6616 22.614 38.6665C22.6211 38.6714 22.6292 38.6747 22.6377 38.6762C22.6462 38.6776 22.6549 38.6772 22.6633 38.675C23.3935 38.4805 24.2761 37.7697 24.0914 36.9811C23.6867 35.2594 22.2728 33.8109 20.8142 33.1241C20.8808 32.9454 20.8587 33.0033 20.9262 32.8238C22.2662 33.1254 24.8393 34.9008 25.2907 37.2833C25.294 37.2985 25.3032 37.3118 25.3163 37.3202C25.3295 37.3286 25.3454 37.3315 25.3606 37.3282C26.2241 37.1594 26.9366 36.3191 26.7199 35.703C26.162 34.107 23.3966 32.6449 21.1944 32.1143C21.6433 30.8937 22.238 30.1619 22.8234 29.7905C24.1646 28.9387 25.462 29.985 24.8586 31.4296C24.778 31.6227 24.8873 31.8199 25.122 31.8199C26.6286 31.8199 28.4848 32.3616 29.2193 33.0881C29.6886 33.7892 30.5558 34.2376 31.5346 34.1416C32.6466 34.0332 33.5533 33.2017 33.6786 32.1736C33.7879 31.2729 33.3199 30.4642 32.574 30.0235L31.2736 31.042ZM21.6915 24.4801C22.1547 24.3091 22.8808 24.4475 22.8561 25.1131C22.8502 25.2641 23.0627 25.2641 23.0782 25.1099C23.2168 24.1131 22.5402 23.8262 21.8321 23.9429C21.7441 23.6002 21.6721 23.3006 21.5902 23.0038C21.5248 22.7635 21.5008 22.3123 21.7801 22.3123C21.9307 22.3123 21.8702 22.7319 21.856 22.9127C21.8435 23.0713 21.9008 23.1673 22.0302 23.1718C22.1107 23.1751 22.2114 23.0727 22.2715 23.0047C22.6768 22.5485 22.7708 21.8422 22.2961 21.5016C21.8989 21.2156 20.9041 21.4284 20.6307 21.8357C20.5893 21.6822 20.3921 21.4289 20.2975 21.3187C20.2055 21.2109 20.1816 21.1372 20.3088 21.0427C20.3688 20.9968 20.5502 20.8173 20.5502 20.6319C20.5502 20.5223 20.4646 20.32 20.1935 20.32C19.9794 20.32 19.7415 20.4674 19.7415 20.7964C19.7415 20.8696 19.7594 20.9478 19.8067 21.0321C19.6715 21.0099 19.3041 21.0189 19.1154 21.0654L21.7241 28.1912C22.4708 27.8243 23.0183 27.2434 23.0183 26.62C23.0183 26.0886 22.2321 26.2649 21.8503 26.6794C21.7275 26.0057 21.6183 25.3836 21.4989 24.7635C21.4663 24.5924 21.5536 24.5316 21.6915 24.4801ZM18.0027 19.6394L18.5509 21.1551C18.0816 21.2664 17.3269 21.6069 17.3269 22.0579C17.3269 22.6584 18.3944 23.0495 19.0115 23.0025C18.9809 23.1395 19.0162 23.2616 19.1122 23.3732C18.8882 23.3732 18.4656 23.477 18.3269 23.6259C17.9995 23.3224 17.4875 23.2119 17.2441 23.3966C16.9995 23.5827 16.9922 23.898 17.2475 24.2544C17.4255 24.5011 17.4922 24.7446 17.2922 25.0304C18.0361 25.0304 17.7622 24.0677 18.0536 24.0677C18.0154 24.2544 18.0387 24.4704 18.1234 24.71C18.1794 24.8692 18.1794 24.9824 18.0834 25.1356C17.8434 25.5176 17.4702 26.3946 17.5206 27.188C17.2768 27.1866 17.1528 27.1273 17.2387 26.7956C17.2707 26.6723 17.1942 26.5841 17.0928 26.7362C16.9808 26.904 16.9267 27.1907 16.9267 27.3132C16.9267 28.0195 17.7722 28.1617 18.0947 28.0123C19.0281 28.9116 20.8616 28.6716 21.4754 28.37L18.2474 19.5535C18.1815 19.387 17.9448 19.4664 18.0027 19.6394ZM17.891 26.9018C17.8242 26.5389 18.3315 25.8902 18.9769 25.2641C18.8395 25.6722 18.9249 26.3751 19.1943 26.6173C18.7262 26.6173 18.1703 26.7048 17.891 26.9018Z" fill="#051945"/>
</svg>
