<svg width="184" height="22" viewBox="0 0 184 22" fill="none" xmlns="http://www.w3.org/2000/svg">
<g clip-path="url(#clip0_1300_10320)">
<path d="M9.73617 0.23999L0 21.9603H4.13702L6.2792 16.9297H17.1035L19.257 21.9603H23.462L13.6918 0.23999H9.73617ZM7.63932 13.7674L11.6857 4.25769L15.7547 13.7561H7.62798L7.63932 13.7674Z" fill="#41505B"/>
<path d="M22.8948 3.64997H30.1601V21.9603H34.2291V3.64997H41.4944V0.23999H22.8948V3.64997Z" fill="#41505B"/>
<path d="M89.8358 0.23999L81.5957 14.6339L73.231 0.23999H70.0007V21.9603H73.7411V7.7577L80.6776 19.4732H82.4231L89.3597 7.56638L89.3824 21.9603H93.0887L93.066 0.23999H89.8358Z" fill="#41505B"/>
<path d="M113.638 1.60173C111.836 0.690152 109.75 0.23999 107.37 0.23999H98.9602V21.9603H107.37C109.75 21.9603 111.836 21.5101 113.638 20.5986C115.429 19.687 116.834 18.4265 117.832 16.7947C118.829 15.1741 119.339 13.2722 119.339 11.1001C119.339 8.92812 118.841 7.00367 117.832 5.39435C116.834 3.78502 115.429 2.52456 113.638 1.61298V1.60173ZM114.25 15.0053C113.593 16.1195 112.663 16.986 111.462 17.605C110.261 18.224 108.832 18.5391 107.189 18.5391H103.041V3.64997H107.189C108.844 3.64997 110.261 3.96508 111.462 4.58405C112.663 5.20303 113.593 6.06959 114.25 7.17249C114.908 8.27538 115.236 9.59211 115.236 11.1001C115.236 12.6082 114.908 13.8912 114.25 15.0053Z" fill="#41505B"/>
<path d="M130.412 0.23999L120.676 21.9603H124.813L126.955 16.9297H137.768L139.922 21.9603H144.127L134.368 0.23999H130.412ZM128.315 13.7674L132.362 4.26894L136.431 13.7674H128.315Z" fill="#41505B"/>
<path d="M161.661 0.23999H143.05V3.64997H150.316V21.9603H154.396V3.64997H161.661V0.23999Z" fill="#41505B"/>
<path d="M179.512 21.9603H183.717L173.947 0.23999H169.992L160.255 21.9603H164.392L166.535 16.9297H177.347L179.501 21.9603H179.512ZM167.895 13.7674L171.941 4.26894L176.01 13.7674H167.895Z" fill="#41505B"/>
<path d="M56.2632 0.285006L55.9912 0.23999V3.81878L56.1839 3.85254C59.6409 4.55029 62.1571 7.60014 62.1571 11.1001C62.1571 14.6002 59.6409 17.65 56.1839 18.3478L55.9912 18.3815V21.9491L56.2632 21.9153C61.6584 21.15 65.716 16.5021 65.716 11.1001C65.716 5.6982 61.6584 1.05028 56.2632 0.285006Z" fill="#008ECF"/>
<path d="M43.6484 11.1001C43.6484 16.5021 47.7175 21.15 53.1012 21.9153L53.3733 21.9491V18.3815L53.1806 18.3478C49.7236 17.65 47.2074 14.6002 47.2074 11.1001C47.2074 7.60014 49.7236 4.55029 53.1806 3.85254L53.3733 3.81878V0.23999L53.1012 0.285006C47.7061 1.05028 43.6484 5.70946 43.6484 11.1001Z" fill="#008ECF"/>
<path d="M54.6876 6.27197C52.0014 6.27197 49.8252 8.43275 49.8252 11.0887C49.8252 13.7447 52.0127 15.9054 54.6876 15.9054C57.3625 15.9054 59.55 13.7447 59.55 11.0887C59.55 8.43275 57.3625 6.27197 54.6876 6.27197Z" fill="#008ECF"/>
</g>
<defs>
<clipPath id="clip0_1300_10320">
<rect width="183.718" height="21.7203" fill="white" transform="translate(0 0.23999)"/>
</clipPath>
</defs>
</svg>
