<svg width="150" height="50" viewBox="0 0 150 50" fill="none" xmlns="http://www.w3.org/2000/svg">
<path d="M55.8063 34.1738C52.3039 34.1738 49.5019 36.0823 49.5019 39.9457C49.5019 43.8557 52.3039 45.7176 55.8063 45.7176C59.3088 45.7176 62.0641 43.8092 62.0641 39.9457C62.0641 36.0823 59.3088 34.1738 55.8063 34.1738ZM55.8063 42.6455C54.1252 42.6455 53.0511 41.8076 53.0511 39.9457C53.0511 38.0838 54.1252 37.246 55.8063 37.246C57.4408 37.246 58.5616 38.0838 58.5616 39.9457C58.5149 41.8076 57.4408 42.6455 55.8063 42.6455Z" fill="black"/>
<path d="M81.6314 42.6455V34.4066H78.0822V45.5314H83.9197L87.609 37.1529V45.5314H91.1582V34.4066H85.2273L81.6314 42.6455Z" fill="black"/>
<path d="M74.5797 39.8061C75.2802 39.2941 75.6071 38.5028 75.6071 37.5718C75.6071 35.7099 74.2995 34.4066 71.8244 34.4066H63.7453V45.5314H72.2914C74.7665 45.5314 76.0741 44.1816 76.0741 42.3662C76.0741 41.2025 75.5604 40.3181 74.5797 39.8061ZM67.2945 37.0598H71.264C71.8711 37.0598 72.2447 37.2925 72.2447 37.8511C72.2447 38.3631 71.8711 38.5959 71.264 38.5959H67.2945V37.0598ZM71.5909 42.7386H67.2945V41.156H71.5909C72.1513 41.156 72.5716 41.3887 72.5716 41.9473C72.5716 42.5059 72.1513 42.7386 71.5909 42.7386Z" fill="black"/>
<path d="M115.442 34.4066L112.547 38.27H111.052V34.4066H107.55V45.5314H111.052V41.3422H113.06L115.442 45.5314H119.271L115.676 39.201L119.271 34.4066H115.442Z" fill="black"/>
<path d="M125.903 34.1738C122.4 34.1738 119.598 36.0823 119.598 39.9457C119.598 43.8557 122.4 45.7176 125.903 45.7176C129.405 45.7176 132.161 43.8092 132.161 39.9457C132.161 36.0823 129.405 34.1738 125.903 34.1738ZM125.903 42.6455C124.222 42.6455 123.148 41.8076 123.148 39.9457C123.148 38.0838 124.222 37.246 125.903 37.246C127.537 37.246 128.658 38.0838 128.658 39.9457C128.658 41.8076 127.537 42.6455 125.903 42.6455Z" fill="black"/>
<path d="M143.182 34.2204V32.3119H140.1V34.2204C136.13 34.6393 133.562 36.5478 133.562 39.8992C133.562 43.3437 136.083 45.2522 140.1 45.6245V47.5795H143.182V45.6245C147.151 45.2056 150 43.2972 150 39.8992C150 36.5478 147.151 34.6393 143.182 34.2204ZM140.1 42.5524C138.232 42.3197 137.111 41.5749 137.111 39.8992C137.111 38.27 138.232 37.5718 140.1 37.3391V42.5524ZM143.182 42.5524V37.3391C145.05 37.5718 146.124 38.3166 146.124 39.8992C146.171 41.5749 145.05 42.3197 143.182 42.5524Z" fill="black"/>
<path d="M101.432 38.0373C101.432 39.8526 96.8088 39.8061 96.8088 38.0373V34.4066H93.2597V38.9217C93.2597 43.6695 101.152 42.5989 101.432 41.7611V45.5314H104.981V34.4066H101.432V38.0373Z" fill="black"/>
<path d="M0 34.4531H9.38667V37.5253H3.50249V45.4849H0V34.4531Z" fill="black"/>
<path d="M18.5866 34.2204C18.3064 34.1738 18.0262 34.1738 17.746 34.1738C16.4384 34.1738 15.2242 34.6859 14.3369 35.6634V34.36H10.7877V49.6276H14.2902V44.2281C15.1308 45.1591 16.345 45.6245 17.6993 45.6245C17.8861 45.6245 18.0728 45.6245 18.2596 45.6245C21.155 45.3918 23.3032 43.5299 23.3032 39.8992C23.3499 36.4081 21.2484 34.5462 18.5866 34.2204ZM17.279 42.6455C16.9988 42.6455 16.7653 42.6455 16.5318 42.5989H16.4851C16.3917 42.5989 16.2983 42.5524 16.2516 42.5524C16.2049 42.5524 16.1582 42.5524 16.1115 42.5059C16.0648 42.5059 15.9714 42.4593 15.9247 42.4593C14.944 42.1335 14.3836 41.3422 14.3836 39.9923C14.3836 39.4803 14.477 39.0148 14.6171 38.689C14.6638 38.6424 14.6638 38.5959 14.7105 38.5493C14.7105 38.5028 14.7572 38.5028 14.7572 38.4562C15.1775 37.6649 16.0648 37.2925 17.1389 37.2925C17.3724 37.2925 17.5592 37.2925 17.7927 37.3391C19.4271 37.4787 20.3144 38.27 20.3144 40.0388C20.221 41.8542 19.1469 42.6455 17.279 42.6455Z" fill="black"/>
<path d="M37.1731 34.4531L30.8219 47.4864C30.0747 49.0225 28.5336 50 26.8057 50H24.7509V46.9279L26.4321 46.9744C27.5996 46.9744 28.4402 45.8573 28.4402 44.6936L23.49 34.4531H27.4595L30.3549 41.0629L33.2036 34.4531H37.1731Z" fill="black"/>
<path d="M40.3954 41.2491C40.3954 42.692 41.1893 42.8782 42.7304 42.8782C43.8979 42.8782 44.972 42.692 44.972 41.9473C44.972 41.156 44.038 41.0163 43.0573 41.0163H41.703V38.5959H43.0573C44.038 38.5959 44.7385 38.4097 44.7385 37.7115C44.7385 37.1063 43.9913 36.8271 42.7771 36.8271C41.236 36.8271 40.5822 37.0598 40.5822 37.9907H37.2665C37.2665 35.5237 39.2279 34.2204 42.7304 34.2204C46.0461 34.2204 48.0075 35.4772 48.0075 37.246C48.0075 38.8751 47.1202 39.7595 45.6725 39.7595C47.1669 39.7595 48.4278 40.5509 48.4278 42.5524C48.4278 44.5539 45.9994 45.7176 42.6837 45.7176C39.1812 45.7176 37.033 44.3678 37.033 41.2491H40.3954Z" fill="black"/>
<path d="M96.4819 12.1569L89.7105 2.05607C88.2161 0.194165 85.6476 -0.504047 83.406 0.380355L54.6856 13.6464C53.7983 13.9722 53.2379 14.8101 53.2379 15.741V21.8853C53.2379 22.8628 54.2186 23.6076 55.1525 23.2352L83.5461 16.3927C85.741 15.6479 88.1694 16.2996 89.6171 18.0684L94.4271 22.3042C95.3144 23.3748 96.9956 22.7232 96.9956 21.3733V13.5998C96.9956 13.0878 96.8088 12.5758 96.4819 12.1569Z" fill="#FFDD00"/>
</svg>
