<svg width="140" height="29" viewBox="0 0 140 29" fill="none" xmlns="http://www.w3.org/2000/svg">
<path d="M47.8566 0H51.7567V17.0482L59.55 9.11391H64.5196C64.6022 9.11391 64.6434 9.21365 64.585 9.26867L55.1718 18.3104C55.0824 18.3963 55.0824 18.5408 55.1718 18.6302L65.235 28.3632C65.2934 28.4182 65.2522 28.5214 65.1731 28.5214H60.2034L51.7601 20.2466V28.5214H47.8601V0H47.8566Z" fill="#1B52C2"/>
<path d="M45.4939 0H41.6007V28.5248H45.4939V0Z" fill="#1B52C2"/>
<path d="M87.2115 18.8228C87.2115 13.2272 91.6791 8.76655 97.285 8.76655C100.869 8.76655 104.064 10.5962 105.873 13.5471L104.129 14.5891C102.702 12.2195 100.023 10.7785 97.285 10.7785C92.8415 10.7785 89.1925 14.3897 89.1925 18.8228C89.1925 23.2525 92.8415 26.8671 97.285 26.8671C100.36 26.8671 102.891 25.1647 104.17 22.943L105.99 23.9128C104.325 26.788 101.099 28.8756 97.285 28.8756C91.6791 28.8756 87.2115 24.4184 87.2115 18.8228Z" fill="#1B52C2"/>
<path d="M133.507 13.0381C134.532 10.6031 137.355 8.81126 140 8.81126V10.7854C136.657 10.7854 133.507 13.2891 133.507 18.2553V28.487H131.488V9.11735H132.035L133.507 13.0381Z" fill="#1B52C2"/>
<path d="M68.9149 23.1528C70.1187 24.3565 71.5734 24.9549 73.2758 24.9549C74.9817 24.9549 76.4365 24.3565 77.6402 23.1528C78.8439 21.9491 79.4492 20.5011 79.4492 18.7953C79.4492 17.0929 78.8474 15.6415 77.6402 14.4378C76.4365 13.2341 74.9817 12.6357 73.2758 12.6357C71.5734 12.6357 70.1152 13.2341 68.9149 14.4378C67.7078 15.6415 67.1059 17.0894 67.1059 18.7953C67.1059 20.5011 67.7078 21.9525 68.9149 23.1528ZM65.971 11.6692C67.8109 9.72609 70.1393 8.75279 72.9526 8.75279C75.6592 8.75279 77.8225 9.80864 79.4458 11.9134L81.9908 9.31682C82.1387 9.1655 82.345 9.07952 82.5583 9.07952H83.339V28.5248H79.4424V25.6909C77.819 27.7957 75.6558 28.8894 72.9491 28.8894C70.1324 28.8894 67.8075 27.9161 65.9675 25.9729C64.1275 24.0298 63.2093 21.612 63.2093 18.8022C63.2127 15.9923 64.131 13.6158 65.971 11.6692Z" fill="#1B52C2"/>
<path d="M5.70221 23.1528C6.90594 24.3565 8.36072 24.9549 10.0631 24.9549C11.769 24.9549 13.2238 24.3565 14.4275 23.1528C15.6312 21.9525 16.2331 20.5011 16.2331 18.7953C16.2331 17.0894 15.6312 15.6415 14.4275 14.4378C13.2238 13.2341 11.769 12.6357 10.0631 12.6357C8.36072 12.6357 6.9025 13.2341 5.70221 14.4378C4.49505 15.6415 3.89319 17.0894 3.89319 18.7953C3.90007 20.5011 4.49849 21.9525 5.70221 23.1528ZM0 2.52332e-06H3.90006V11.9134C5.52337 9.80864 7.68664 8.7528 10.3933 8.7528C13.21 8.7528 15.5349 9.72609 17.3749 11.6692C19.2149 13.6124 20.1331 15.9923 20.1331 18.8022C20.1331 21.612 19.2149 23.9885 17.3749 25.9351C15.5349 27.8817 13.2066 28.8516 10.3933 28.8516C7.68664 28.8516 5.52337 27.7957 3.90006 25.6909L1.28626 28.2944C1.13838 28.4423 0.935465 28.5248 0.722234 28.5248H0V2.52332e-06Z" fill="#1B52C2"/>
<path d="M26.6848 14.0182C25.684 14.9331 25.1578 15.9373 25.1028 17.0172H35.981C35.926 15.9098 35.4548 14.9055 34.5572 13.9976C33.663 13.0931 32.3664 12.6425 30.664 12.6425C29.0098 12.6425 27.6857 13.1 26.6848 14.0182ZM23.7822 11.628C25.5568 9.70889 27.9023 8.75279 30.8257 8.75279C33.4773 8.75279 35.6612 9.66762 37.3808 11.5076C39.097 13.3441 39.9568 15.8032 39.9568 18.8813C39.9568 19.4763 39.9155 20.0437 39.833 20.5837H25.1028C25.402 22.0453 26.1208 23.1734 27.2764 23.9025C28.4251 24.6316 29.8111 24.9996 31.4378 24.9996C33.5461 24.9996 35.5236 24.3496 37.3636 23.053L38.6636 26.537C36.7961 28.1018 34.3612 28.8894 31.3553 28.8894C28.0812 28.8894 25.5568 27.9367 23.7856 26.0314C22.011 24.1261 21.1271 21.6946 21.1271 18.8022C21.1236 15.9373 22.0075 13.5471 23.7822 11.628Z" fill="#1B52C2"/>
<path d="M108.975 18.8297C108.975 23.2491 112.589 26.8671 117.029 26.8671C121.47 26.8671 125.084 23.256 125.084 18.8297C125.084 14.4034 121.47 10.7544 117.029 10.7544C112.589 10.7579 108.975 14.3759 108.975 18.8297ZM106.918 18.7987C106.918 13.2444 111.389 8.75279 116.988 8.75279C121.497 8.75279 124.028 11.3012 125.077 13.4095L126.549 9.14486H127.075V28.487H125.077V24.3015C124.028 26.451 121.126 28.8859 116.988 28.8859C111.386 28.8791 106.918 24.3943 106.918 18.7987Z" fill="#1B52C2"/>
</svg>
