<svg width="96" height="96" viewBox="0 0 96 96" fill="none" xmlns="http://www.w3.org/2000/svg">
<path d="M50.087 10.4355C49.5335 10.4355 49.0026 10.6554 48.6113 11.0468C48.2199 11.4382 48 11.969 48 12.5225C48 13.076 48.2199 13.6068 48.6113 13.9982C49.0026 14.3896 49.5335 14.6095 50.087 14.6095C56.7267 14.6166 63.0924 17.2574 67.7874 21.9525C72.4824 26.6475 75.1233 33.0132 75.1304 39.6529C75.1304 40.2064 75.3503 40.7373 75.7417 41.1286C76.1331 41.52 76.6639 41.7399 77.2174 41.7399C77.7709 41.7399 78.3017 41.52 78.6931 41.1286C79.0845 40.7373 79.3043 40.2064 79.3043 39.6529C79.2961 31.9065 76.2152 24.4798 70.7376 19.0023C65.2601 13.5247 57.8333 10.4438 50.087 10.4355Z" fill="url(#paint0_linear_1080_8989)"/>
<path d="M45.9178 95.9994H8.35258C7.79909 95.9994 7.26826 95.7796 6.87688 95.3882C6.4855 94.9968 6.26562 94.466 6.26562 93.9125V75.1299C6.26574 74.5764 6.4857 74.0457 6.8771 73.6544L25.6597 54.8718C26.0511 54.4805 26.5818 54.2607 27.1352 54.2607C27.6886 54.2607 28.2193 54.4805 28.6107 54.8718L34.8715 61.1326C35.2628 61.524 35.4826 62.0547 35.4826 62.6081C35.4826 63.1615 35.2628 63.6922 34.8715 64.0836L18.7874 80.1678V91.8255H45.9178C46.4713 91.8255 47.0021 92.0454 47.3935 92.4368C47.7849 92.8281 48.0048 93.359 48.0048 93.9125C48.0048 94.466 47.7849 94.9968 47.3935 95.3882C47.0021 95.7796 46.4713 95.9994 45.9178 95.9994Z" fill="url(#paint1_linear_1080_8989)"/>
<path d="M47.9978 55.3037C54.6239 55.3037 59.9955 49.9311 59.9955 43.3037C59.9955 36.6763 54.6239 31.3037 47.9978 31.3037C41.3716 31.3037 36 36.6763 36 43.3037C36 49.9311 41.3716 55.3037 47.9978 55.3037Z" fill="url(#paint2_linear_1080_8989)"/>
<path d="M50.087 20.8691C49.5335 20.8691 49.0026 21.089 48.6113 21.4804C48.2199 21.8718 48 22.4026 48 22.9561C48 23.5096 48.2199 24.0404 48.6113 24.4318C49.0026 24.8232 49.5335 25.0431 50.087 25.0431C53.9599 25.048 57.6728 26.5887 60.4114 29.3273C63.15 32.0659 64.6907 35.7788 64.6957 39.6517C64.6957 40.2052 64.9155 40.7361 65.3069 41.1275C65.6983 41.5188 66.2291 41.7387 66.7826 41.7387C67.3361 41.7387 67.8669 41.5188 68.2583 41.1275C68.6497 40.7361 68.8696 40.2052 68.8696 39.6517C68.864 34.672 66.8834 29.8978 63.3622 26.3765C59.8409 22.8553 55.0667 20.8747 50.087 20.8691Z" fill="url(#paint3_linear_1080_8989)"/>
<g filter="url(#filter0_bi_1080_8989)">
<path d="M50.087 10.4346C49.5335 10.4346 49.0026 10.6544 48.6113 11.0458C48.2199 11.4372 48 11.968 48 12.5215C48 13.075 48.2199 13.6058 48.6113 13.9972C49.0026 14.3886 49.5335 14.6085 50.087 14.6085C56.7267 14.6157 63.0924 17.2565 67.7874 21.9515C72.4824 26.6465 75.1233 33.0122 75.1304 39.652C75.1304 40.2055 75.3503 40.7363 75.7417 41.1277C76.1331 41.519 76.6639 41.7389 77.2174 41.7389C77.7709 41.7389 78.3017 41.519 78.6931 41.1277C79.0845 40.7363 79.3043 40.2055 79.3043 39.652C79.2961 31.9056 76.2152 24.4788 70.7376 19.0013C65.2601 13.5238 57.8333 10.4429 50.087 10.4346Z" fill="url(#paint4_linear_1080_8989)" fill-opacity="0.2"/>
<path d="M50.087 10.4346C49.5335 10.4346 49.0026 10.6544 48.6113 11.0458C48.2199 11.4372 48 11.968 48 12.5215C48 13.075 48.2199 13.6058 48.6113 13.9972C49.0026 14.3886 49.5335 14.6085 50.087 14.6085C56.7267 14.6157 63.0924 17.2565 67.7874 21.9515C72.4824 26.6465 75.1233 33.0122 75.1304 39.652C75.1304 40.2055 75.3503 40.7363 75.7417 41.1277C76.1331 41.519 76.6639 41.7389 77.2174 41.7389C77.7709 41.7389 78.3017 41.519 78.6931 41.1277C79.0845 40.7363 79.3043 40.2055 79.3043 39.652C79.2961 31.9056 76.2152 24.4788 70.7376 19.0013C65.2601 13.5238 57.8333 10.4429 50.087 10.4346Z" fill="url(#paint5_linear_1080_8989)"/>
<path d="M50.0875 14.1085H50.087C49.6661 14.1085 49.2624 13.9413 48.9648 13.6437L48.6113 13.9972L48.9648 13.6437C48.6672 13.3461 48.5 12.9424 48.5 12.5215C48.5 12.1006 48.6672 11.697 48.9648 11.3994C49.2624 11.1018 49.6659 10.9346 50.0867 10.9346C57.7006 10.9428 65.0002 13.971 70.3841 19.3549C75.768 24.7387 78.7962 32.0385 78.8043 39.6525C78.8042 40.0732 78.637 40.4766 78.3395 40.7741C78.0419 41.0717 77.6383 41.2389 77.2174 41.2389C76.7965 41.2389 76.3929 41.0717 76.0952 40.7741C75.7976 40.4765 75.6304 40.0728 75.6304 39.652V39.6514C75.6231 32.8793 72.9296 26.3866 68.141 21.5979C63.3523 16.8093 56.8597 14.1158 50.0875 14.1085Z" stroke="url(#paint6_linear_1080_8989)" stroke-opacity="0.1"/>
</g>
<g filter="url(#filter1_bi_1080_8989)">
<path d="M50.087 0C49.5335 0 49.0026 0.219875 48.6113 0.611255C48.2199 1.00264 48 1.53346 48 2.08696C48 2.64045 48.2199 3.17128 48.6113 3.56266C49.0026 3.95404 49.5335 4.17391 50.087 4.17391C59.4932 4.18441 68.5111 7.92566 75.1623 14.5768C81.8135 21.228 85.5547 30.246 85.5652 39.6522C85.5652 40.2057 85.7851 40.7365 86.1765 41.1279C86.5679 41.5193 87.0987 41.7391 87.6522 41.7391C88.2057 41.7391 88.7365 41.5193 89.1279 41.1279C89.5193 40.7365 89.7391 40.2057 89.7391 39.6522C89.7275 29.1393 85.5462 19.0604 78.1125 11.6267C70.6788 4.19295 60.5998 0.0116002 50.087 0Z" fill="url(#paint7_linear_1080_8989)" fill-opacity="0.2"/>
<path d="M50.087 0C49.5335 0 49.0026 0.219875 48.6113 0.611255C48.2199 1.00264 48 1.53346 48 2.08696C48 2.64045 48.2199 3.17128 48.6113 3.56266C49.0026 3.95404 49.5335 4.17391 50.087 4.17391C59.4932 4.18441 68.5111 7.92566 75.1623 14.5768C81.8135 21.228 85.5547 30.246 85.5652 39.6522C85.5652 40.2057 85.7851 40.7365 86.1765 41.1279C86.5679 41.5193 87.0987 41.7391 87.6522 41.7391C88.2057 41.7391 88.7365 41.5193 89.1279 41.1279C89.5193 40.7365 89.7391 40.2057 89.7391 39.6522C89.7275 29.1393 85.5462 19.0604 78.1125 11.6267C70.6788 4.19295 60.5998 0.0116002 50.087 0Z" fill="url(#paint8_linear_1080_8989)"/>
<path d="M50.0875 3.67391H50.087C49.6661 3.67391 49.2624 3.50672 48.9648 3.2091L48.6113 3.56266L48.9648 3.2091C48.6672 2.91149 48.5 2.50784 48.5 2.08696C48.5 1.66607 48.6672 1.26242 48.9648 0.964809C49.2624 0.667259 49.6659 0.50007 50.0867 0.5C60.467 0.51153 70.4189 4.64021 77.7589 11.9802C85.099 19.3203 89.2277 29.2722 89.2391 39.6527C89.239 40.0734 89.0718 40.4768 88.7743 40.7743C88.4767 41.0719 88.0731 41.2391 87.6522 41.2391C87.2313 41.2391 86.8276 41.0719 86.53 40.7743C86.2324 40.4767 86.0652 40.0731 86.0652 39.6522V39.6516C86.0546 30.113 82.2607 20.9681 75.5158 14.2233C68.771 7.47847 59.6261 3.68456 50.0875 3.67391Z" stroke="url(#paint9_linear_1080_8989)" stroke-opacity="0.1"/>
</g>
<g filter="url(#filter2_bi_1080_8989)">
<path d="M50.09 79.304C42.7789 79.3133 35.6079 77.2985 29.3714 73.4829C23.135 69.6673 18.0765 64.1997 14.7564 57.6859C11.4363 51.1721 9.9842 43.8664 10.5609 36.578C11.1376 29.2897 13.7207 22.3033 18.0239 16.3927C18.2013 16.1491 18.4294 15.9468 18.6924 15.7997C18.9554 15.6526 19.2472 15.5642 19.5476 15.5406C19.848 15.517 20.15 15.5587 20.4328 15.663C20.7156 15.7672 20.9724 15.9314 21.1857 16.1444L73.5975 68.5562C73.8104 68.7694 73.9747 69.0263 74.0789 69.309C74.1831 69.5918 74.2248 69.8938 74.2013 70.1942C74.1777 70.4947 74.0893 70.7864 73.9422 71.0495C73.7951 71.3125 73.5928 71.5405 73.3491 71.7179C66.5996 76.6547 58.4523 79.312 50.09 79.304Z" fill="url(#paint10_linear_1080_8989)" fill-opacity="0.2"/>
<path d="M50.0905 78.804H50.0894C42.8706 78.8132 35.7901 76.8239 29.6324 73.0564C23.4747 69.2889 18.4801 63.8904 15.2019 57.4588C11.9237 51.0273 10.4899 43.8138 11.0594 36.6175C11.6288 29.4212 14.1792 22.523 18.4281 16.687C18.563 16.5018 18.7364 16.3479 18.9364 16.2361C19.1364 16.1242 19.3583 16.057 19.5868 16.0391C19.8152 16.0211 20.0449 16.0529 20.2599 16.1321L20.4328 15.663L20.2599 16.1321C20.4748 16.2113 20.67 16.3361 20.8321 16.4979C20.8322 16.498 20.8323 16.4981 20.8324 16.4982L73.2437 68.9095C73.4056 69.0716 73.5305 69.2669 73.6097 69.482L74.0789 69.309L73.6097 69.482C73.689 69.697 73.7207 69.9266 73.7028 70.1551C73.6848 70.3835 73.6176 70.6054 73.5058 70.8054C73.3939 71.0054 73.2401 71.1788 73.0548 71.3137L73.054 71.3144C66.3902 76.1884 58.3465 78.8119 50.0905 78.804Z" stroke="url(#paint11_linear_1080_8989)" stroke-opacity="0.1"/>
</g>
<defs>
<filter id="filter0_bi_1080_8989" x="45" y="7.43457" width="37.3047" height="37.3044" filterUnits="userSpaceOnUse" color-interpolation-filters="sRGB">
<feFlood flood-opacity="0" result="BackgroundImageFix"/>
<feGaussianBlur in="BackgroundImageFix" stdDeviation="1.5"/>
<feComposite in2="SourceAlpha" operator="in" result="effect1_backgroundBlur_1080_8989"/>
<feBlend mode="normal" in="SourceGraphic" in2="effect1_backgroundBlur_1080_8989" result="shape"/>
<feColorMatrix in="SourceAlpha" type="matrix" values="0 0 0 0 0 0 0 0 0 0 0 0 0 0 0 0 0 0 127 0" result="hardAlpha"/>
<feOffset dy="0.5"/>
<feGaussianBlur stdDeviation="1"/>
<feComposite in2="hardAlpha" operator="arithmetic" k2="-1" k3="1"/>
<feColorMatrix type="matrix" values="0 0 0 0 1 0 0 0 0 1 0 0 0 0 1 0 0 0 0.4 0"/>
<feBlend mode="normal" in2="shape" result="effect2_innerShadow_1080_8989"/>
</filter>
<filter id="filter1_bi_1080_8989" x="45" y="-3" width="47.7383" height="47.739" filterUnits="userSpaceOnUse" color-interpolation-filters="sRGB">
<feFlood flood-opacity="0" result="BackgroundImageFix"/>
<feGaussianBlur in="BackgroundImageFix" stdDeviation="1.5"/>
<feComposite in2="SourceAlpha" operator="in" result="effect1_backgroundBlur_1080_8989"/>
<feBlend mode="normal" in="SourceGraphic" in2="effect1_backgroundBlur_1080_8989" result="shape"/>
<feColorMatrix in="SourceAlpha" type="matrix" values="0 0 0 0 0 0 0 0 0 0 0 0 0 0 0 0 0 0 127 0" result="hardAlpha"/>
<feOffset dy="0.5"/>
<feGaussianBlur stdDeviation="1"/>
<feComposite in2="hardAlpha" operator="arithmetic" k2="-1" k3="1"/>
<feColorMatrix type="matrix" values="0 0 0 0 1 0 0 0 0 1 0 0 0 0 1 0 0 0 0.4 0"/>
<feBlend mode="normal" in2="shape" result="effect2_innerShadow_1080_8989"/>
</filter>
<filter id="filter2_bi_1080_8989" x="7.4375" y="12.5342" width="69.7695" height="69.7698" filterUnits="userSpaceOnUse" color-interpolation-filters="sRGB">
<feFlood flood-opacity="0" result="BackgroundImageFix"/>
<feGaussianBlur in="BackgroundImageFix" stdDeviation="1.5"/>
<feComposite in2="SourceAlpha" operator="in" result="effect1_backgroundBlur_1080_8989"/>
<feBlend mode="normal" in="SourceGraphic" in2="effect1_backgroundBlur_1080_8989" result="shape"/>
<feColorMatrix in="SourceAlpha" type="matrix" values="0 0 0 0 0 0 0 0 0 0 0 0 0 0 0 0 0 0 127 0" result="hardAlpha"/>
<feOffset dy="0.5"/>
<feGaussianBlur stdDeviation="1"/>
<feComposite in2="hardAlpha" operator="arithmetic" k2="-1" k3="1"/>
<feColorMatrix type="matrix" values="0 0 0 0 1 0 0 0 0 1 0 0 0 0 1 0 0 0 0.4 0"/>
<feBlend mode="normal" in2="shape" result="effect2_innerShadow_1080_8989"/>
</filter>
<linearGradient id="paint0_linear_1080_8989" x1="48" y1="10.4355" x2="84.8756" y2="19.7989" gradientUnits="userSpaceOnUse">
<stop stop-color="#75A5FF"/>
<stop offset="0.703125" stop-color="#2339FF"/>
</linearGradient>
<linearGradient id="paint1_linear_1080_8989" x1="6.26563" y1="54.2607" x2="55.433" y2="66.7454" gradientUnits="userSpaceOnUse">
<stop stop-color="#75A5FF"/>
<stop offset="0.703125" stop-color="#EEEEEE"/>
</linearGradient>
<linearGradient id="paint2_linear_1080_8989" x1="36" y1="31.3037" x2="64.2666" y2="38.4798" gradientUnits="userSpaceOnUse">
<stop stop-color="#75A5FF"/>
<stop offset="0.703125" stop-color="#EEEEEE"/>
</linearGradient>
<linearGradient id="paint3_linear_1080_8989" x1="48" y1="20.8691" x2="72.5837" y2="27.1114" gradientUnits="userSpaceOnUse">
<stop stop-color="#75A5FF"/>
<stop offset="0.703125" stop-color="#EEEEEE"/>
</linearGradient>
<linearGradient id="paint4_linear_1080_8989" x1="48" y1="10.4346" x2="84.8756" y2="19.798" gradientUnits="userSpaceOnUse">
<stop stop-color="#83E9FF"/>
<stop offset="0.453125" stop-color="#85A0FF"/>
</linearGradient>
<linearGradient id="paint5_linear_1080_8989" x1="48" y1="10.4346" x2="84.8756" y2="19.798" gradientUnits="userSpaceOnUse">
<stop stop-color="#75A5FF"/>
<stop offset="0.703125" stop-color="#EEEEEE"/>
</linearGradient>
<linearGradient id="paint6_linear_1080_8989" x1="48.9783" y1="11.8575" x2="79.3043" y2="11.8575" gradientUnits="userSpaceOnUse">
<stop stop-color="#3CDEB6"/>
<stop offset="0.65625" stop-color="#364AFF"/>
</linearGradient>
<linearGradient id="paint7_linear_1080_8989" x1="48" y1="0" x2="97.1674" y2="12.4845" gradientUnits="userSpaceOnUse">
<stop stop-color="#83E9FF"/>
<stop offset="0.453125" stop-color="#85A0FF"/>
</linearGradient>
<linearGradient id="paint8_linear_1080_8989" x1="48" y1="0" x2="97.1674" y2="12.4845" gradientUnits="userSpaceOnUse">
<stop stop-color="#75A5FF"/>
<stop offset="0.703125" stop-color="#EEEEEE"/>
</linearGradient>
<linearGradient id="paint9_linear_1080_8989" x1="49.3043" y1="1.89723" x2="89.7391" y2="1.89723" gradientUnits="userSpaceOnUse">
<stop stop-color="#3CDEB6"/>
<stop offset="0.65625" stop-color="#364AFF"/>
</linearGradient>
<linearGradient id="paint10_linear_1080_8989" x1="10.4375" y1="15.5342" x2="85.5568" y2="34.6084" gradientUnits="userSpaceOnUse">
<stop stop-color="#83E9FF"/>
<stop offset="0.453125" stop-color="#85A0FF"/>
</linearGradient>
<linearGradient id="paint11_linear_1080_8989" x1="12.4303" y1="18.4328" x2="74.2077" y2="18.4328" gradientUnits="userSpaceOnUse">
<stop stop-color="#3CDEB6"/>
<stop offset="0.65625" stop-color="#364AFF"/>
</linearGradient>
</defs>
</svg>
