<svg width="150" height="27" viewBox="0 0 150 27" fill="none" xmlns="http://www.w3.org/2000/svg">
<path d="M45.5534 16.2593C45.5534 18.2488 43.701 19.6896 41.094 19.6896H34.9882V7.34074H40.8882C43.4266 7.34074 45.2103 8.71284 45.2103 10.6338C45.2103 11.9372 44.5243 12.7605 43.4952 13.2407C44.5929 13.6524 45.5534 14.75 45.5534 16.2593ZM37.6638 9.60469V12.2803H40.8196C41.7801 12.2803 42.3975 11.7314 42.3975 10.9768C42.3975 10.2221 41.7115 9.60469 40.8196 9.60469H37.6638ZM41.094 17.4256C42.1231 17.4256 42.8778 16.8082 42.8778 15.9163C42.8778 15.0245 42.1917 14.407 41.094 14.407H37.6638V17.4256H41.094Z" fill="black"/>
<path d="M55.638 19.6209L51.3847 14.7501H50.6986V19.6209H47.9544V7.34074H50.6986V12.0744H51.3847L55.5009 7.34074H58.7255L53.58 13.2407L59.2054 19.6209H55.638Z" fill="black"/>
<path d="M59.2054 13.5152C59.2054 9.81047 61.95 7.1349 65.7915 7.1349C69.6336 7.1349 72.3777 9.81047 72.3777 13.5152C72.3777 17.2198 69.6336 19.8954 65.7915 19.8954C61.95 19.8954 59.2054 17.2198 59.2054 13.5152ZM69.4965 13.5152C69.4965 11.1826 67.9869 9.60469 65.7915 9.60469C63.5962 9.60469 62.0871 11.1826 62.0871 13.5152C62.0871 15.8477 63.5962 17.4256 65.7915 17.4256C67.9869 17.4256 69.4965 15.8477 69.4965 13.5152Z" fill="black"/>
<path d="M82.8741 7.34074H85.6188V19.6209H82.8741V14.6814H77.3859V19.6209H74.6418V7.34074H77.3859V12.2116H82.8741V7.34074Z" fill="black"/>
<path d="M91.5186 19.6209V9.81047H87.2649V7.34074H98.4476V9.81047H94.1939V19.6209H91.5186Z" fill="black"/>
<path d="M110.247 12.7605V19.6209H108.258L107.709 17.7C107.092 18.7291 105.788 19.8954 103.799 19.8954C101.329 19.8954 99.545 18.2488 99.545 15.9849C99.545 13.7209 101.329 12.1431 104.965 12.1431H107.64C107.503 10.5651 106.68 9.46749 105.171 9.46749C103.936 9.46749 103.112 10.1535 102.701 10.9082L100.231 10.4966C100.849 8.3698 102.975 7.1349 105.308 7.1349C108.327 7.1349 110.247 9.19303 110.247 12.7605ZM107.572 14.2698H105.034C102.975 14.2698 102.289 14.9558 102.289 15.8477C102.289 16.8767 103.112 17.5628 104.484 17.5628C106.268 17.5628 107.572 16.2594 107.572 14.2698Z" fill="black"/>
<path d="M120.813 19.6209L116.559 14.7501H115.873V19.6209H113.129V7.34074H115.873V12.0744H116.559L120.676 7.34074H123.9L118.755 13.2407L124.38 19.6209H120.813Z" fill="black"/>
<path d="M129.319 19.6209V9.81047H125.066V7.34074H136.249V9.81047H131.995V19.6209H129.319Z" fill="black"/>
<path d="M149.969 14.2698H140.09C140.365 16.1907 141.737 17.4256 143.795 17.4256C145.236 17.4256 146.334 16.8082 146.951 15.9163L149.49 16.3279C148.597 18.6605 146.196 19.8954 143.589 19.8954C139.885 19.8954 137.209 17.2198 137.209 13.5152C137.209 9.81047 139.885 7.1349 143.589 7.1349C147.294 7.1349 149.969 9.81047 149.969 13.378C150.038 13.7209 149.969 13.9954 149.969 14.2698ZM140.296 12.1431H147.088C146.608 10.6338 145.373 9.53606 143.658 9.53606C142.011 9.46749 140.708 10.5651 140.296 12.1431Z" fill="black"/>
<path d="M0 12.5794C0 6.64937 0 3.68441 1.8422 1.8422C3.68441 0 6.64937 0 12.5794 0H13.6276C19.5576 0 22.5226 0 24.3648 1.8422C26.207 3.68441 26.207 6.64937 26.207 12.5794V13.6276C26.207 19.5576 26.207 22.5226 24.3648 24.3648C22.5226 26.207 19.5576 26.207 13.6276 26.207H12.5794C6.64937 26.207 3.68441 26.207 1.8422 24.3648C0 22.5226 0 19.5576 0 13.6276V12.5794Z" fill="#0077FF"/>
<path d="M13.9443 18.88C7.97129 18.88 4.56444 14.7852 4.42248 7.97134H7.41445C7.51272 12.9725 9.71842 15.0909 11.4656 15.5277V7.97134H14.2829V12.2846C16.0082 12.0989 17.8206 10.1334 18.4321 7.97134H21.2494C20.7799 10.6357 18.8144 12.6012 17.4167 13.4093C18.8144 14.0645 21.053 15.7788 21.9047 18.88H18.8035C18.1374 16.8053 16.4777 15.2001 14.2829 14.9817V18.88H13.9443Z" fill="white"/>
</svg>
