<svg width="120" height="35" viewBox="0 0 120 35" fill="none" xmlns="http://www.w3.org/2000/svg">
<path d="M114.721 30.4764C117.082 30.4764 118.754 30.0472 120 29.1226V24.9292C118.721 25.8208 117.18 26.3821 115.016 26.3821C111.377 26.3821 109.869 23.5425 109.869 19.0519C109.869 14.3302 111.705 11.9198 115.049 11.9198C117.016 11.9198 118.951 12.6132 119.967 13.2736V8.91509C118.885 8.32076 117.016 7.89151 114.459 7.89151C107.934 7.89151 104.557 12.6132 104.557 19.217C104.59 26.4481 107.902 30.4764 114.721 30.4764ZM82.8197 28.5613V24.3679C81.2459 25.4576 78.5574 26.4151 76.0984 26.4151C72.3607 26.4151 70.9508 24.6321 70.7213 21H83.0492V18.2925C83.0492 10.7311 79.7377 7.89151 74.6557 7.89151C68.4262 7.89151 65.4754 12.6792 65.4754 19.25C65.4754 26.8113 69.1803 30.4764 75.6721 30.4764C78.918 30.4764 81.3115 29.5849 82.8197 28.5613ZM36.0328 8.28774V16.8726H29.2131V8.28774H24.0984V30.0472H29.2131V20.967H36.0328V30.0472H41.1475V8.28774H36.0328ZM64.1967 25.9528H61.9344V8.28774H47.0492V10.1368C47.0492 15.4528 46.7213 22.3208 44.918 25.9528H43.2787V35H48V30.0472H59.4426V35H64.1639V25.9528H64.1967ZM99.1147 30.0472H104.918L96.7213 18.3255L103.934 8.28774H98.7869L91.5738 18.3255V8.28774H86.459V30.0472H91.5738V19.3491L99.1147 30.0472ZM74.5246 11.9198C77.0492 11.9198 77.8361 14.033 77.8361 16.7736V17.2028H70.7213C70.8525 13.7358 72.0984 11.9198 74.5246 11.9198ZM56.8197 25.9528H49.6066C51.0164 22.684 51.4098 16.7406 51.4098 12.9764V12.316H56.8197V25.9528Z" fill="black"/>
<path d="M19.8361 30.0472H14.623V4.06132H12.2951C8.03279 4.06132 5.80328 6.20755 5.80328 9.41038C5.80328 13.0425 7.34426 14.7264 10.5246 16.8726L13.1475 18.6557L5.60656 30.0472H0L6.78689 19.8774C2.88525 17.0708 0.688525 14.3302 0.688525 9.70755C0.688525 3.92925 4.68852 0 12.2623 0H19.8033V30.0472H19.8361Z" fill="#FC3F1D"/>
</svg>
