<svg width="96" height="96" viewBox="0 0 96 96" fill="none" xmlns="http://www.w3.org/2000/svg">
<g clip-path="url(#clip0_1080_8872)">
<g filter="url(#filter0_i_1080_8872)">
<path d="M82.4208 64.9647L52.2621 47.9998L82.4208 31.035C82.8823 30.7533 83.2165 30.3035 83.353 29.7804C83.4895 29.2572 83.4176 28.7015 83.1525 28.2303C82.8874 27.7591 82.4498 27.4091 81.9318 27.2541C81.4138 27.0992 80.8559 27.1513 80.3755 27.3995L50.0938 44.4332V10.4346C50.0938 9.88112 49.8739 9.35029 49.4825 8.95891C49.0912 8.56753 48.5603 8.34766 48.0068 8.34766C47.4533 8.34766 46.9225 8.56753 46.5311 8.95891C46.1398 9.35029 45.9199 9.88112 45.9199 10.4346V44.4332L15.6381 27.3995C15.1578 27.1513 14.5999 27.0992 14.0819 27.2541C13.5639 27.4091 13.1263 27.7591 12.8612 28.2303C12.5961 28.7015 12.5242 29.2572 12.6607 29.7804C12.7972 30.3035 13.1314 30.7533 13.5929 31.035L43.7515 47.9998L13.5929 64.9647C13.1914 65.1912 12.8762 65.5442 12.6964 65.9687C12.5167 66.3932 12.4826 66.8652 12.5993 67.3112C12.7161 67.7571 12.9773 68.1518 13.342 68.4337C13.7068 68.7156 14.1546 68.8688 14.6155 68.8694C14.9733 68.8699 15.3251 68.7771 15.6361 68.6002L45.9199 51.5664V85.565C45.9199 86.1185 46.1398 86.6494 46.5311 87.0407C46.9225 87.4321 47.4533 87.652 48.0068 87.652C48.5603 87.652 49.0912 87.4321 49.4825 87.0407C49.8739 86.6494 50.0938 86.1185 50.0938 85.565V51.5664L80.3755 68.6002C80.6871 68.7775 81.0396 68.8703 81.3981 68.8694C81.8593 68.8693 82.3074 68.7164 82.6725 68.4347C83.0376 68.1529 83.2991 67.7582 83.4162 67.3122C83.5332 66.8661 83.4992 66.3939 83.3195 65.9692C83.1398 65.5445 82.8224 65.1913 82.4208 64.9647Z" fill="url(#paint0_linear_1080_8872)"/>
</g>
<g filter="url(#filter1_bi_1080_8872)">
<path d="M47.9973 58.435C45.9335 58.435 43.916 57.823 42.2 56.6764C40.484 55.5298 39.1466 53.9001 38.3568 51.9934C37.567 50.0867 37.3604 47.9886 37.763 45.9645C38.1656 43.9403 39.1595 42.081 40.6188 40.6217C42.0781 39.1624 43.9374 38.1686 45.9616 37.7659C47.9857 37.3633 50.0838 37.57 51.9905 38.3597C53.8972 39.1495 55.5269 40.487 56.6735 42.203C57.8201 43.919 58.4321 45.9364 58.4321 48.0002C58.4288 50.7667 57.3283 53.4189 55.3721 55.3751C53.416 57.3312 50.7637 58.4317 47.9973 58.435Z" fill="url(#paint1_linear_1080_8872)" fill-opacity="0.2"/>
<path d="M47.9967 57.935C46.032 57.9349 44.1114 57.3522 42.4778 56.2607C40.8441 55.169 39.5707 53.6174 38.8187 51.8021C38.0668 49.9868 37.8701 47.9892 38.2534 46.062C38.6367 44.1349 39.5829 42.3647 40.9723 40.9753C42.3617 39.5859 44.1319 38.6397 46.0591 38.2563C47.9863 37.873 49.9838 38.0697 51.7992 38.8217C53.6145 39.5736 55.1661 40.847 56.2578 42.4807C57.3493 44.1143 57.932 46.0349 57.9321 47.9996C57.9289 50.6337 56.8811 53.159 55.0186 55.0215C53.156 56.8841 50.6307 57.9318 47.9967 57.935Z" stroke="url(#paint2_linear_1080_8872)" stroke-opacity="0.1"/>
</g>
<g filter="url(#filter2_bi_1080_8872)">
<path d="M81.3879 39.6518C87.1509 39.6518 91.8227 34.98 91.8227 29.217C91.8227 23.454 87.1509 18.7822 81.3879 18.7822C75.6249 18.7822 70.9531 23.454 70.9531 29.217C70.9531 34.98 75.6249 39.6518 81.3879 39.6518Z" fill="url(#paint3_linear_1080_8872)" fill-opacity="0.2"/>
<path d="M91.3227 29.217C91.3227 34.7038 86.8747 39.1518 81.3879 39.1518C75.9011 39.1518 71.4531 34.7038 71.4531 29.217C71.4531 23.7302 75.9011 19.2822 81.3879 19.2822C86.8747 19.2822 91.3227 23.7302 91.3227 29.217Z" stroke="url(#paint4_linear_1080_8872)" stroke-opacity="0.1"/>
</g>
<g filter="url(#filter3_i_1080_8872)">
<path d="M81.3838 68.87C80.8303 68.87 80.2995 68.6501 79.9081 68.2587C79.5167 67.8674 79.2969 67.3365 79.2969 66.783V29.2178C79.2969 28.6643 79.5167 28.1335 79.9081 27.7421C80.2995 27.3507 80.8303 27.1309 81.3838 27.1309C81.9373 27.1309 82.4682 27.3507 82.8595 27.7421C83.2509 28.1335 83.4708 28.6643 83.4708 29.2178V66.783C83.4708 67.3365 83.2509 67.8674 82.8595 68.2587C82.4682 68.6501 81.9373 68.87 81.3838 68.87Z" fill="url(#paint5_linear_1080_8872)"/>
</g>
<g filter="url(#filter4_bi_1080_8872)">
<path d="M81.3879 77.2172C87.1509 77.2172 91.8227 72.5454 91.8227 66.7824C91.8227 61.0195 87.1509 56.3477 81.3879 56.3477C75.6249 56.3477 70.9531 61.0195 70.9531 66.7824C70.9531 72.5454 75.6249 77.2172 81.3879 77.2172Z" fill="url(#paint6_linear_1080_8872)" fill-opacity="0.2"/>
<path d="M91.3227 66.7824C91.3227 72.2693 86.8747 76.7172 81.3879 76.7172C75.9011 76.7172 71.4531 72.2693 71.4531 66.7824C71.4531 61.2956 75.9011 56.8477 81.3879 56.8477C86.8747 56.8477 91.3227 61.2956 91.3227 66.7824Z" stroke="url(#paint7_linear_1080_8872)" stroke-opacity="0.1"/>
</g>
<g filter="url(#filter5_i_1080_8872)">
<path d="M47.9926 87.6526C47.5315 87.6525 47.0833 87.4996 46.7182 87.2179C46.3532 86.9362 46.0917 86.5415 45.9746 86.0954C45.8575 85.6494 45.8915 85.1771 46.0712 84.7524C46.2509 84.3277 46.5663 83.9745 46.9679 83.7479L80.3592 64.9653C80.8396 64.7171 81.3975 64.665 81.9155 64.82C82.4334 64.975 82.8711 65.3249 83.1362 65.7961C83.4013 66.2674 83.4731 66.8231 83.3367 67.3462C83.2002 67.8694 82.866 68.3192 82.4044 68.6008L49.0131 87.3834C48.7022 87.5604 48.3504 87.6531 47.9926 87.6526Z" fill="url(#paint8_linear_1080_8872)"/>
</g>
<g filter="url(#filter6_bi_1080_8872)">
<path d="M47.9973 96.0004C53.7603 96.0004 58.4321 91.3286 58.4321 85.5656C58.4321 79.8027 53.7603 75.1309 47.9973 75.1309C42.2343 75.1309 37.5625 79.8027 37.5625 85.5656C37.5625 91.3286 42.2343 96.0004 47.9973 96.0004Z" fill="url(#paint9_linear_1080_8872)" fill-opacity="0.2"/>
<path d="M57.9321 85.5656C57.9321 91.0525 53.4841 95.5004 47.9973 95.5004C42.5105 95.5004 38.0625 91.0525 38.0625 85.5656C38.0625 80.0788 42.5105 75.6309 47.9973 75.6309C53.4841 75.6309 57.9321 80.0788 57.9321 85.5656Z" stroke="url(#paint10_linear_1080_8872)" stroke-opacity="0.1"/>
</g>
<g filter="url(#filter7_i_1080_8872)">
<path d="M48.0054 87.6526C47.6476 87.6531 47.2958 87.5604 46.9849 87.3834L13.5936 68.6008C13.132 68.3192 12.7978 67.8694 12.6614 67.3462C12.5249 66.8231 12.5967 66.2674 12.8618 65.7961C13.1269 65.3249 13.5646 64.975 14.0825 64.82C14.6005 64.665 15.1584 64.7171 15.6388 64.9653L49.0301 83.7479C49.4317 83.9745 49.7471 84.3277 49.9268 84.7524C50.1065 85.1771 50.1405 85.6494 50.0234 86.0954C49.9063 86.5415 49.6449 86.9362 49.2798 87.2179C48.9147 87.4996 48.4665 87.6525 48.0054 87.6526Z" fill="url(#paint11_linear_1080_8872)"/>
</g>
<g filter="url(#filter8_bi_1080_8872)">
<path d="M14.6067 77.2172C20.3696 77.2172 25.0414 72.5454 25.0414 66.7824C25.0414 61.0195 20.3696 56.3477 14.6067 56.3477C8.84369 56.3477 4.17188 61.0195 4.17188 66.7824C4.17188 72.5454 8.84369 77.2172 14.6067 77.2172Z" fill="url(#paint12_linear_1080_8872)" fill-opacity="0.2"/>
<path d="M24.5414 66.7824C24.5414 72.2693 20.0935 76.7172 14.6067 76.7172C9.11983 76.7172 4.67188 72.2693 4.67188 66.7824C4.67188 61.2956 9.11983 56.8477 14.6067 56.8477C20.0935 56.8477 24.5414 61.2956 24.5414 66.7824Z" stroke="url(#paint13_linear_1080_8872)" stroke-opacity="0.1"/>
</g>
<g filter="url(#filter9_i_1080_8872)">
<path d="M14.6026 68.87C14.0491 68.87 13.5183 68.6501 13.1269 68.2587C12.7355 67.8674 12.5156 67.3365 12.5156 66.783V29.2178C12.5156 28.6643 12.7355 28.1335 13.1269 27.7421C13.5183 27.3507 14.0491 27.1309 14.6026 27.1309C15.1561 27.1309 15.6869 27.3507 16.0783 27.7421C16.4697 28.1335 16.6895 28.6643 16.6895 29.2178V66.783C16.6895 67.3365 16.4697 67.8674 16.0783 68.2587C15.6869 68.6501 15.1561 68.87 14.6026 68.87Z" fill="url(#paint14_linear_1080_8872)"/>
</g>
<g filter="url(#filter10_bi_1080_8872)">
<path d="M14.6067 39.6518C20.3696 39.6518 25.0414 34.98 25.0414 29.217C25.0414 23.454 20.3696 18.7822 14.6067 18.7822C8.84369 18.7822 4.17188 23.454 4.17188 29.217C4.17188 34.98 8.84369 39.6518 14.6067 39.6518Z" fill="url(#paint15_linear_1080_8872)" fill-opacity="0.2"/>
<path d="M24.5414 29.217C24.5414 34.7038 20.0935 39.1518 14.6067 39.1518C9.11983 39.1518 4.67188 34.7038 4.67188 29.217C4.67188 23.7302 9.11983 19.2822 14.6067 19.2822C20.0935 19.2822 24.5414 23.7302 24.5414 29.217Z" stroke="url(#paint16_linear_1080_8872)" stroke-opacity="0.1"/>
</g>
<g filter="url(#filter11_i_1080_8872)">
<path d="M14.602 31.3044C14.1408 31.3042 13.6927 31.1514 13.3276 30.8696C12.9625 30.5879 12.701 30.1932 12.584 29.7471C12.4669 29.3011 12.5009 28.8288 12.6806 28.4041C12.8603 27.9794 13.1756 27.6262 13.5773 27.3997L46.9686 8.61705C47.2079 8.47104 47.4741 8.37472 47.7514 8.33384C48.0287 8.29296 48.3114 8.30836 48.5826 8.37912C48.8538 8.44988 49.108 8.57455 49.33 8.74569C49.552 8.91683 49.7372 9.13093 49.8746 9.37523C50.0121 9.61952 50.0989 9.88899 50.1299 10.1676C50.1609 10.4461 50.1355 10.7281 50.0551 10.9966C49.9748 11.2652 49.8412 11.5148 49.6623 11.7306C49.4834 11.9463 49.2628 12.1238 49.0138 12.2525L15.6225 31.0351C15.3115 31.2121 14.9598 31.3049 14.602 31.3044Z" fill="url(#paint17_linear_1080_8872)"/>
</g>
<g filter="url(#filter12_bi_1080_8872)">
<path d="M47.9973 20.8696C53.7603 20.8696 58.4321 16.1978 58.4321 10.4348C58.4321 4.67181 53.7603 0 47.9973 0C42.2343 0 37.5625 4.67181 37.5625 10.4348C37.5625 16.1978 42.2343 20.8696 47.9973 20.8696Z" fill="url(#paint18_linear_1080_8872)" fill-opacity="0.2"/>
<path d="M57.9321 10.4348C57.9321 15.9216 53.4841 20.3696 47.9973 20.3696C42.5105 20.3696 38.0625 15.9216 38.0625 10.4348C38.0625 4.94795 42.5105 0.5 47.9973 0.5C53.4841 0.5 57.9321 4.94795 57.9321 10.4348Z" stroke="url(#paint19_linear_1080_8872)" stroke-opacity="0.1"/>
</g>
<g filter="url(#filter13_i_1080_8872)">
<path d="M73.5491 22.4104L49.0294 8.61768C48.5491 8.36947 47.9912 8.31736 47.4732 8.47233C46.9552 8.6273 46.5175 8.97725 46.2525 9.44847C45.9874 9.9197 45.9155 10.4754 46.052 10.9986C46.1885 11.5217 46.5227 11.9715 46.9842 12.2532L71.5059 26.0479C71.9328 24.7092 72.6279 23.4715 73.5491 22.4104Z" fill="url(#paint20_linear_1080_8872)"/>
</g>
</g>
<defs>
<filter id="filter0_i_1080_8872" x="12.5312" y="8.34766" width="70.9531" height="79.8044" filterUnits="userSpaceOnUse" color-interpolation-filters="sRGB">
<feFlood flood-opacity="0" result="BackgroundImageFix"/>
<feBlend mode="normal" in="SourceGraphic" in2="BackgroundImageFix" result="shape"/>
<feColorMatrix in="SourceAlpha" type="matrix" values="0 0 0 0 0 0 0 0 0 0 0 0 0 0 0 0 0 0 127 0" result="hardAlpha"/>
<feOffset dy="0.5"/>
<feGaussianBlur stdDeviation="0.25"/>
<feComposite in2="hardAlpha" operator="arithmetic" k2="-1" k3="1"/>
<feColorMatrix type="matrix" values="0 0 0 0 1 0 0 0 0 1 0 0 0 0 1 0 0 0 0.4 0"/>
<feBlend mode="normal" in2="shape" result="effect1_innerShadow_1080_8872"/>
</filter>
<filter id="filter1_bi_1080_8872" x="34.5625" y="34.5654" width="26.8711" height="26.8696" filterUnits="userSpaceOnUse" color-interpolation-filters="sRGB">
<feFlood flood-opacity="0" result="BackgroundImageFix"/>
<feGaussianBlur in="BackgroundImageFix" stdDeviation="1.5"/>
<feComposite in2="SourceAlpha" operator="in" result="effect1_backgroundBlur_1080_8872"/>
<feBlend mode="normal" in="SourceGraphic" in2="effect1_backgroundBlur_1080_8872" result="shape"/>
<feColorMatrix in="SourceAlpha" type="matrix" values="0 0 0 0 0 0 0 0 0 0 0 0 0 0 0 0 0 0 127 0" result="hardAlpha"/>
<feOffset dy="0.5"/>
<feGaussianBlur stdDeviation="1"/>
<feComposite in2="hardAlpha" operator="arithmetic" k2="-1" k3="1"/>
<feColorMatrix type="matrix" values="0 0 0 0 1 0 0 0 0 1 0 0 0 0 1 0 0 0 0.4 0"/>
<feBlend mode="normal" in2="shape" result="effect2_innerShadow_1080_8872"/>
</filter>
<filter id="filter2_bi_1080_8872" x="67.9531" y="15.7822" width="26.8711" height="26.8696" filterUnits="userSpaceOnUse" color-interpolation-filters="sRGB">
<feFlood flood-opacity="0" result="BackgroundImageFix"/>
<feGaussianBlur in="BackgroundImageFix" stdDeviation="1.5"/>
<feComposite in2="SourceAlpha" operator="in" result="effect1_backgroundBlur_1080_8872"/>
<feBlend mode="normal" in="SourceGraphic" in2="effect1_backgroundBlur_1080_8872" result="shape"/>
<feColorMatrix in="SourceAlpha" type="matrix" values="0 0 0 0 0 0 0 0 0 0 0 0 0 0 0 0 0 0 127 0" result="hardAlpha"/>
<feOffset dy="0.5"/>
<feGaussianBlur stdDeviation="1"/>
<feComposite in2="hardAlpha" operator="arithmetic" k2="-1" k3="1"/>
<feColorMatrix type="matrix" values="0 0 0 0 1 0 0 0 0 1 0 0 0 0 1 0 0 0 0.4 0"/>
<feBlend mode="normal" in2="shape" result="effect2_innerShadow_1080_8872"/>
</filter>
<filter id="filter3_i_1080_8872" x="79.2969" y="27.1309" width="4.17578" height="42.239" filterUnits="userSpaceOnUse" color-interpolation-filters="sRGB">
<feFlood flood-opacity="0" result="BackgroundImageFix"/>
<feBlend mode="normal" in="SourceGraphic" in2="BackgroundImageFix" result="shape"/>
<feColorMatrix in="SourceAlpha" type="matrix" values="0 0 0 0 0 0 0 0 0 0 0 0 0 0 0 0 0 0 127 0" result="hardAlpha"/>
<feOffset dy="0.5"/>
<feGaussianBlur stdDeviation="0.25"/>
<feComposite in2="hardAlpha" operator="arithmetic" k2="-1" k3="1"/>
<feColorMatrix type="matrix" values="0 0 0 0 1 0 0 0 0 1 0 0 0 0 1 0 0 0 0.4 0"/>
<feBlend mode="normal" in2="shape" result="effect1_innerShadow_1080_8872"/>
</filter>
<filter id="filter4_bi_1080_8872" x="67.9531" y="53.3477" width="26.8711" height="26.8696" filterUnits="userSpaceOnUse" color-interpolation-filters="sRGB">
<feFlood flood-opacity="0" result="BackgroundImageFix"/>
<feGaussianBlur in="BackgroundImageFix" stdDeviation="1.5"/>
<feComposite in2="SourceAlpha" operator="in" result="effect1_backgroundBlur_1080_8872"/>
<feBlend mode="normal" in="SourceGraphic" in2="effect1_backgroundBlur_1080_8872" result="shape"/>
<feColorMatrix in="SourceAlpha" type="matrix" values="0 0 0 0 0 0 0 0 0 0 0 0 0 0 0 0 0 0 127 0" result="hardAlpha"/>
<feOffset dy="0.5"/>
<feGaussianBlur stdDeviation="1"/>
<feComposite in2="hardAlpha" operator="arithmetic" k2="-1" k3="1"/>
<feColorMatrix type="matrix" values="0 0 0 0 1 0 0 0 0 1 0 0 0 0 1 0 0 0 0.4 0"/>
<feBlend mode="normal" in2="shape" result="effect2_innerShadow_1080_8872"/>
</filter>
<filter id="filter5_i_1080_8872" x="45.9062" y="64.7324" width="37.4961" height="23.4202" filterUnits="userSpaceOnUse" color-interpolation-filters="sRGB">
<feFlood flood-opacity="0" result="BackgroundImageFix"/>
<feBlend mode="normal" in="SourceGraphic" in2="BackgroundImageFix" result="shape"/>
<feColorMatrix in="SourceAlpha" type="matrix" values="0 0 0 0 0 0 0 0 0 0 0 0 0 0 0 0 0 0 127 0" result="hardAlpha"/>
<feOffset dy="0.5"/>
<feGaussianBlur stdDeviation="0.25"/>
<feComposite in2="hardAlpha" operator="arithmetic" k2="-1" k3="1"/>
<feColorMatrix type="matrix" values="0 0 0 0 1 0 0 0 0 1 0 0 0 0 1 0 0 0 0.4 0"/>
<feBlend mode="normal" in2="shape" result="effect1_innerShadow_1080_8872"/>
</filter>
<filter id="filter6_bi_1080_8872" x="34.5625" y="72.1309" width="26.8711" height="26.8696" filterUnits="userSpaceOnUse" color-interpolation-filters="sRGB">
<feFlood flood-opacity="0" result="BackgroundImageFix"/>
<feGaussianBlur in="BackgroundImageFix" stdDeviation="1.5"/>
<feComposite in2="SourceAlpha" operator="in" result="effect1_backgroundBlur_1080_8872"/>
<feBlend mode="normal" in="SourceGraphic" in2="effect1_backgroundBlur_1080_8872" result="shape"/>
<feColorMatrix in="SourceAlpha" type="matrix" values="0 0 0 0 0 0 0 0 0 0 0 0 0 0 0 0 0 0 127 0" result="hardAlpha"/>
<feOffset dy="0.5"/>
<feGaussianBlur stdDeviation="1"/>
<feComposite in2="hardAlpha" operator="arithmetic" k2="-1" k3="1"/>
<feColorMatrix type="matrix" values="0 0 0 0 1 0 0 0 0 1 0 0 0 0 1 0 0 0 0.4 0"/>
<feBlend mode="normal" in2="shape" result="effect2_innerShadow_1080_8872"/>
</filter>
<filter id="filter7_i_1080_8872" x="12.5938" y="64.7324" width="37.4961" height="23.4202" filterUnits="userSpaceOnUse" color-interpolation-filters="sRGB">
<feFlood flood-opacity="0" result="BackgroundImageFix"/>
<feBlend mode="normal" in="SourceGraphic" in2="BackgroundImageFix" result="shape"/>
<feColorMatrix in="SourceAlpha" type="matrix" values="0 0 0 0 0 0 0 0 0 0 0 0 0 0 0 0 0 0 127 0" result="hardAlpha"/>
<feOffset dy="0.5"/>
<feGaussianBlur stdDeviation="0.25"/>
<feComposite in2="hardAlpha" operator="arithmetic" k2="-1" k3="1"/>
<feColorMatrix type="matrix" values="0 0 0 0 1 0 0 0 0 1 0 0 0 0 1 0 0 0 0.4 0"/>
<feBlend mode="normal" in2="shape" result="effect1_innerShadow_1080_8872"/>
</filter>
<filter id="filter8_bi_1080_8872" x="1.17188" y="53.3477" width="26.8711" height="26.8696" filterUnits="userSpaceOnUse" color-interpolation-filters="sRGB">
<feFlood flood-opacity="0" result="BackgroundImageFix"/>
<feGaussianBlur in="BackgroundImageFix" stdDeviation="1.5"/>
<feComposite in2="SourceAlpha" operator="in" result="effect1_backgroundBlur_1080_8872"/>
<feBlend mode="normal" in="SourceGraphic" in2="effect1_backgroundBlur_1080_8872" result="shape"/>
<feColorMatrix in="SourceAlpha" type="matrix" values="0 0 0 0 0 0 0 0 0 0 0 0 0 0 0 0 0 0 127 0" result="hardAlpha"/>
<feOffset dy="0.5"/>
<feGaussianBlur stdDeviation="1"/>
<feComposite in2="hardAlpha" operator="arithmetic" k2="-1" k3="1"/>
<feColorMatrix type="matrix" values="0 0 0 0 1 0 0 0 0 1 0 0 0 0 1 0 0 0 0.4 0"/>
<feBlend mode="normal" in2="shape" result="effect2_innerShadow_1080_8872"/>
</filter>
<filter id="filter9_i_1080_8872" x="12.5156" y="27.1309" width="4.17578" height="42.239" filterUnits="userSpaceOnUse" color-interpolation-filters="sRGB">
<feFlood flood-opacity="0" result="BackgroundImageFix"/>
<feBlend mode="normal" in="SourceGraphic" in2="BackgroundImageFix" result="shape"/>
<feColorMatrix in="SourceAlpha" type="matrix" values="0 0 0 0 0 0 0 0 0 0 0 0 0 0 0 0 0 0 127 0" result="hardAlpha"/>
<feOffset dy="0.5"/>
<feGaussianBlur stdDeviation="0.25"/>
<feComposite in2="hardAlpha" operator="arithmetic" k2="-1" k3="1"/>
<feColorMatrix type="matrix" values="0 0 0 0 1 0 0 0 0 1 0 0 0 0 1 0 0 0 0.4 0"/>
<feBlend mode="normal" in2="shape" result="effect1_innerShadow_1080_8872"/>
</filter>
<filter id="filter10_bi_1080_8872" x="1.17188" y="15.7822" width="26.8711" height="26.8696" filterUnits="userSpaceOnUse" color-interpolation-filters="sRGB">
<feFlood flood-opacity="0" result="BackgroundImageFix"/>
<feGaussianBlur in="BackgroundImageFix" stdDeviation="1.5"/>
<feComposite in2="SourceAlpha" operator="in" result="effect1_backgroundBlur_1080_8872"/>
<feBlend mode="normal" in="SourceGraphic" in2="effect1_backgroundBlur_1080_8872" result="shape"/>
<feColorMatrix in="SourceAlpha" type="matrix" values="0 0 0 0 0 0 0 0 0 0 0 0 0 0 0 0 0 0 127 0" result="hardAlpha"/>
<feOffset dy="0.5"/>
<feGaussianBlur stdDeviation="1"/>
<feComposite in2="hardAlpha" operator="arithmetic" k2="-1" k3="1"/>
<feColorMatrix type="matrix" values="0 0 0 0 1 0 0 0 0 1 0 0 0 0 1 0 0 0 0.4 0"/>
<feBlend mode="normal" in2="shape" result="effect2_innerShadow_1080_8872"/>
</filter>
<filter id="filter11_i_1080_8872" x="12.5156" y="8.31152" width="37.6289" height="23.4929" filterUnits="userSpaceOnUse" color-interpolation-filters="sRGB">
<feFlood flood-opacity="0" result="BackgroundImageFix"/>
<feBlend mode="normal" in="SourceGraphic" in2="BackgroundImageFix" result="shape"/>
<feColorMatrix in="SourceAlpha" type="matrix" values="0 0 0 0 0 0 0 0 0 0 0 0 0 0 0 0 0 0 127 0" result="hardAlpha"/>
<feOffset dy="0.5"/>
<feGaussianBlur stdDeviation="0.25"/>
<feComposite in2="hardAlpha" operator="arithmetic" k2="-1" k3="1"/>
<feColorMatrix type="matrix" values="0 0 0 0 1 0 0 0 0 1 0 0 0 0 1 0 0 0 0.4 0"/>
<feBlend mode="normal" in2="shape" result="effect1_innerShadow_1080_8872"/>
</filter>
<filter id="filter12_bi_1080_8872" x="34.5625" y="-3" width="26.8711" height="26.8696" filterUnits="userSpaceOnUse" color-interpolation-filters="sRGB">
<feFlood flood-opacity="0" result="BackgroundImageFix"/>
<feGaussianBlur in="BackgroundImageFix" stdDeviation="1.5"/>
<feComposite in2="SourceAlpha" operator="in" result="effect1_backgroundBlur_1080_8872"/>
<feBlend mode="normal" in="SourceGraphic" in2="effect1_backgroundBlur_1080_8872" result="shape"/>
<feColorMatrix in="SourceAlpha" type="matrix" values="0 0 0 0 0 0 0 0 0 0 0 0 0 0 0 0 0 0 127 0" result="hardAlpha"/>
<feOffset dy="0.5"/>
<feGaussianBlur stdDeviation="1"/>
<feComposite in2="hardAlpha" operator="arithmetic" k2="-1" k3="1"/>
<feColorMatrix type="matrix" values="0 0 0 0 1 0 0 0 0 1 0 0 0 0 1 0 0 0 0.4 0"/>
<feBlend mode="normal" in2="shape" result="effect2_innerShadow_1080_8872"/>
</filter>
<filter id="filter13_i_1080_8872" x="45.9844" y="8.38477" width="27.5664" height="18.1631" filterUnits="userSpaceOnUse" color-interpolation-filters="sRGB">
<feFlood flood-opacity="0" result="BackgroundImageFix"/>
<feBlend mode="normal" in="SourceGraphic" in2="BackgroundImageFix" result="shape"/>
<feColorMatrix in="SourceAlpha" type="matrix" values="0 0 0 0 0 0 0 0 0 0 0 0 0 0 0 0 0 0 127 0" result="hardAlpha"/>
<feOffset dy="0.5"/>
<feGaussianBlur stdDeviation="0.25"/>
<feComposite in2="hardAlpha" operator="arithmetic" k2="-1" k3="1"/>
<feColorMatrix type="matrix" values="0 0 0 0 1 0 0 0 0 1 0 0 0 0 1 0 0 0 0.4 0"/>
<feBlend mode="normal" in2="shape" result="effect1_innerShadow_1080_8872"/>
</filter>
<linearGradient id="paint0_linear_1080_8872" x1="12.5313" y1="8.34766" x2="97.1344" y2="27.5678" gradientUnits="userSpaceOnUse">
<stop stop-color="#75A5FF"/>
<stop offset="0.703125" stop-color="#008ECF"/>
</linearGradient>
<linearGradient id="paint1_linear_1080_8872" x1="37.5625" y1="37.5654" x2="62.1462" y2="43.8077" gradientUnits="userSpaceOnUse">
<stop stop-color="#83E9FF"/>
<stop offset="0.453125" stop-color="#85A0FF"/>
</linearGradient>
<linearGradient id="paint2_linear_1080_8872" x1="38.2147" y1="38.514" x2="58.4321" y2="38.514" gradientUnits="userSpaceOnUse">
<stop stop-color="#3CDEB6"/>
<stop offset="0.65625" stop-color="#364AFF"/>
</linearGradient>
<linearGradient id="paint3_linear_1080_8872" x1="70.9531" y1="18.7822" x2="95.5368" y2="25.0245" gradientUnits="userSpaceOnUse">
<stop stop-color="#83E9FF"/>
<stop offset="0.453125" stop-color="#85A0FF"/>
</linearGradient>
<linearGradient id="paint4_linear_1080_8872" x1="71.6053" y1="19.7308" x2="91.8227" y2="19.7308" gradientUnits="userSpaceOnUse">
<stop stop-color="#3CDEB6"/>
<stop offset="0.65625" stop-color="#364AFF"/>
</linearGradient>
<linearGradient id="paint5_linear_1080_8872" x1="79.2969" y1="27.1309" x2="84.5272" y2="27.2637" gradientUnits="userSpaceOnUse">
<stop stop-color="#75A5FF"/>
<stop offset="0.703125" stop-color="#008ECF"/>
</linearGradient>
<linearGradient id="paint6_linear_1080_8872" x1="70.9531" y1="56.3477" x2="95.5368" y2="62.5899" gradientUnits="userSpaceOnUse">
<stop stop-color="#83E9FF"/>
<stop offset="0.453125" stop-color="#85A0FF"/>
</linearGradient>
<linearGradient id="paint7_linear_1080_8872" x1="71.6053" y1="57.2963" x2="91.8227" y2="57.2963" gradientUnits="userSpaceOnUse">
<stop stop-color="#3CDEB6"/>
<stop offset="0.65625" stop-color="#364AFF"/>
</linearGradient>
<linearGradient id="paint8_linear_1080_8872" x1="45.9063" y1="64.7324" x2="86.0057" y2="81.3904" gradientUnits="userSpaceOnUse">
<stop stop-color="#75A5FF"/>
<stop offset="0.703125" stop-color="#008ECF"/>
</linearGradient>
<linearGradient id="paint9_linear_1080_8872" x1="37.5625" y1="75.1309" x2="62.1462" y2="81.3731" gradientUnits="userSpaceOnUse">
<stop stop-color="#83E9FF"/>
<stop offset="0.453125" stop-color="#85A0FF"/>
</linearGradient>
<linearGradient id="paint10_linear_1080_8872" x1="38.2147" y1="76.0795" x2="58.4321" y2="76.0795" gradientUnits="userSpaceOnUse">
<stop stop-color="#3CDEB6"/>
<stop offset="0.65625" stop-color="#364AFF"/>
</linearGradient>
<linearGradient id="paint11_linear_1080_8872" x1="12.5938" y1="64.7324" x2="52.6932" y2="81.3904" gradientUnits="userSpaceOnUse">
<stop stop-color="#75A5FF"/>
<stop offset="0.703125" stop-color="#008ECF"/>
</linearGradient>
<linearGradient id="paint12_linear_1080_8872" x1="4.17188" y1="56.3477" x2="28.7556" y2="62.5899" gradientUnits="userSpaceOnUse">
<stop stop-color="#83E9FF"/>
<stop offset="0.453125" stop-color="#85A0FF"/>
</linearGradient>
<linearGradient id="paint13_linear_1080_8872" x1="4.82405" y1="57.2963" x2="25.0414" y2="57.2963" gradientUnits="userSpaceOnUse">
<stop stop-color="#3CDEB6"/>
<stop offset="0.65625" stop-color="#364AFF"/>
</linearGradient>
<linearGradient id="paint14_linear_1080_8872" x1="12.5156" y1="27.1309" x2="17.746" y2="27.2637" gradientUnits="userSpaceOnUse">
<stop stop-color="#75A5FF"/>
<stop offset="0.703125" stop-color="#008ECF"/>
</linearGradient>
<linearGradient id="paint15_linear_1080_8872" x1="4.17188" y1="18.7822" x2="28.7556" y2="25.0245" gradientUnits="userSpaceOnUse">
<stop stop-color="#83E9FF"/>
<stop offset="0.453125" stop-color="#85A0FF"/>
</linearGradient>
<linearGradient id="paint16_linear_1080_8872" x1="4.82405" y1="19.7308" x2="25.0414" y2="19.7308" gradientUnits="userSpaceOnUse">
<stop stop-color="#3CDEB6"/>
<stop offset="0.65625" stop-color="#364AFF"/>
</linearGradient>
<linearGradient id="paint17_linear_1080_8872" x1="12.5156" y1="8.31152" x2="52.7499" y2="25.0301" gradientUnits="userSpaceOnUse">
<stop stop-color="#75A5FF"/>
<stop offset="0.703125" stop-color="#008ECF"/>
</linearGradient>
<linearGradient id="paint18_linear_1080_8872" x1="37.5625" y1="0" x2="62.1462" y2="6.24226" gradientUnits="userSpaceOnUse">
<stop stop-color="#83E9FF"/>
<stop offset="0.453125" stop-color="#85A0FF"/>
</linearGradient>
<linearGradient id="paint19_linear_1080_8872" x1="38.2147" y1="0.948617" x2="58.4321" y2="0.948617" gradientUnits="userSpaceOnUse">
<stop stop-color="#3CDEB6"/>
<stop offset="0.65625" stop-color="#364AFF"/>
</linearGradient>
<linearGradient id="paint20_linear_1080_8872" x1="45.9844" y1="8.38477" x2="75.8575" y2="20.2223" gradientUnits="userSpaceOnUse">
<stop stop-color="#75A5FF"/>
<stop offset="0.703125" stop-color="#008ECF"/>
</linearGradient>
<clipPath id="clip0_1080_8872">
<rect width="96" height="96" fill="white"/>
</clipPath>
</defs>
</svg>
