<svg width="150" height="25" viewBox="0 0 150 25" fill="none" xmlns="http://www.w3.org/2000/svg">
<path d="M0 19.0735L6.44825 18.4891C6.71953 19.2613 7.07429 19.8038 7.55426 20.1169C8.03422 20.4507 8.66027 20.6177 9.47412 20.6177C10.3506 20.6177 11.0184 20.4299 11.4983 20.0543C11.874 19.783 12.0618 19.4282 12.0618 19.0109C12.0618 18.5518 11.8114 18.1761 11.3105 17.9257C10.9558 17.7379 10.0167 17.5292 8.51419 17.2579C6.26043 16.8614 4.69532 16.5067 3.81886 16.1519C2.9424 15.818 2.21202 15.2546 1.60684 14.4616C1.00167 13.6686 0.709515 12.7504 0.709515 11.7279C0.709515 10.601 1.02254 9.64107 1.69032 8.84808C2.33723 8.03422 3.23456 7.42905 4.36143 7.03255C5.50918 6.63606 7.03255 6.42738 8.93155 6.42738C10.9558 6.42738 12.4374 6.57346 13.3973 6.88648C14.3573 7.1995 15.1711 7.67947 15.7972 8.30551C16.4441 8.95242 16.9658 9.82888 17.404 10.9349L11.2062 11.5818C11.0392 11.0184 10.7888 10.6219 10.4132 10.3506C9.91235 9.99583 9.30718 9.82888 8.57679 9.82888C7.84641 9.82888 7.32471 9.95409 6.99082 10.2254C6.6778 10.5175 6.51085 10.8306 6.51085 11.2062C6.51085 11.6235 6.71953 11.9366 7.15776 12.1452C7.57512 12.3539 8.51419 12.5626 9.93322 12.7295C12.0826 12.98 13.6895 13.3139 14.7538 13.7521C15.7972 14.1903 16.611 14.8164 17.1745 15.6302C17.7379 16.4441 18.0092 17.3205 18.0092 18.3013C18.0092 19.2821 17.717 20.2421 17.1327 21.1603C16.5484 22.0785 15.6093 22.8297 14.3364 23.3723C13.0634 23.9149 11.3314 24.1861 9.14023 24.1861C6.05175 24.1861 3.83973 23.7479 2.54591 22.8715C1.21035 21.9741 0.354758 20.7012 0 19.0735Z" fill="#A20C33"/>
<path d="M21.7446 22.0993C23.4349 23.4766 25.626 24.1653 28.3598 24.1653C31.4065 24.1653 33.8063 23.3306 35.5384 21.6611C37.2705 19.9917 38.126 17.8631 38.126 15.2546C38.126 12.9382 37.4374 10.9766 36.0392 9.39065C34.3072 7.42905 31.7404 6.42738 28.3389 6.42738C25.3756 6.42738 23.0175 7.2621 21.2646 8.95242C19.5117 10.6219 18.6561 12.7713 18.6561 15.3589C18.6561 18.1344 19.6786 20.3881 21.7446 22.0993ZM26.0851 11.9366C26.7112 11.2062 27.4833 10.8306 28.4432 10.8306C29.3406 10.8306 30.0918 11.1853 30.697 11.9157C31.3022 12.6461 31.6152 13.7521 31.6152 15.2337C31.6152 16.8197 31.323 17.9883 30.7179 18.6978C30.1127 19.4073 29.3406 19.783 28.4015 19.783C27.4624 19.783 26.7112 19.4073 26.0851 18.677C25.48 17.9466 25.1669 16.8197 25.1669 15.2755C25.1669 13.7938 25.48 12.6669 26.0851 11.9366Z" fill="#A20C33"/>
<path d="M46.8907 6.82387H49.9791V11.6027H46.8907V23.7897H40.3798V11.6027H37.9382V6.82387H40.3798V6.05175C40.3798 5.36311 40.4633 4.59099 40.6093 3.77713C40.7554 2.9424 41.0476 2.27462 41.4441 1.75292C41.8614 1.23122 42.4249 0.792988 43.1761 0.479966C43.9274 0.146077 45.0125 0 46.4316 0C47.5793 0 49.2279 0.125209 51.3982 0.396495L50.6678 4.3197C49.8957 4.19449 49.2488 4.13189 48.7897 4.13189C48.2053 4.13189 47.788 4.23623 47.5167 4.42404C47.2663 4.61185 47.0785 4.92488 46.9741 5.36311C46.9115 5.59265 46.8907 6.07262 46.8907 6.82387Z" fill="#A20C33"/>
<path d="M58.5559 11.6027V17.6127C58.5559 18.3431 58.6185 18.823 58.7646 19.0526C58.9733 19.4073 59.3489 19.5952 59.8706 19.5952C60.3506 19.5952 61.0184 19.4491 61.874 19.1778L62.3539 23.6436C60.7471 23.9983 59.2446 24.1653 57.8673 24.1653C56.2604 24.1653 55.0501 23.9566 54.2988 23.5392C53.5267 23.1219 52.9633 22.4958 52.6085 21.6402C52.2329 20.8055 52.0659 19.4282 52.0659 17.5292V11.6027H49.687V6.82387H52.0659V3.71452L58.5768 0.375624V11.6027H58.5559Z" fill="#A20C33"/>
<path d="M63.8147 0.375624H70.3255V23.7896H63.8147V0.375624Z" fill="#A6A8AB"/>
<path d="M73.0593 23.7896H79.591V6.82387H73.0593V23.7896Z" fill="#A6A8AB"/>
<path d="M73.0593 0.375624V4.8414H79.591V0.375624H73.0593Z" fill="#A6A8AB"/>
<path d="M82.0534 6.82387H88.1261V9.57846C89.0234 8.45159 89.9416 7.63773 90.8598 7.15776C91.778 6.6778 92.9048 6.42738 94.2404 6.42738C96.0351 6.42738 97.4332 6.96995 98.4558 8.03422C99.4783 9.0985 99.9791 10.7679 99.9791 13.0008V23.7897H93.4683V14.4616C93.4683 13.3973 93.2596 12.6461 92.884 12.2078C92.4875 11.7696 91.9449 11.5401 91.2145 11.5401C90.4215 11.5401 89.7955 11.8322 89.2947 12.4374C88.8147 13.0426 88.5643 14.1068 88.5643 15.6511V23.7897H82.0534V6.82387Z" fill="#A6A8AB"/>
<path d="M121.056 16.2145C121.056 13.9816 120.68 12.1452 119.95 10.7471C119.22 9.34892 118.155 8.28464 116.757 7.53339C115.359 6.80301 113.439 6.42738 111.018 6.42738C108.034 6.42738 105.697 7.24124 104.007 8.88982C102.316 10.5384 101.461 12.6669 101.461 15.3381C101.461 17.1953 101.878 18.823 102.734 20.2003C103.568 21.5776 104.633 22.5793 105.927 23.2262C107.2 23.8523 108.973 24.1861 111.206 24.1861C113.794 24.1861 115.755 23.8105 117.154 23.0801C118.531 22.3497 119.72 21.1185 120.68 19.4073L114.295 18.823C113.898 19.3239 113.523 19.6995 113.168 19.8873C112.604 20.2003 111.999 20.3673 111.373 20.3673C110.371 20.3673 109.558 19.9917 108.932 19.2613C108.493 18.7604 108.201 17.9883 108.097 16.9449H121.056V16.2145ZM108.118 13.8564C108.222 12.8339 108.472 12.0618 108.869 11.5609C109.474 10.7262 110.309 10.3297 111.331 10.3297C112.208 10.3297 112.938 10.601 113.481 11.1436C114.023 11.6861 114.357 12.6043 114.482 13.8773H108.118V13.8564Z" fill="#A6A8AB"/>
<path d="M29.8414 2.65025C37.2705 3.44324 40.2337 4.09015 47.1411 5.94741C52.9007 7.51252 62.0826 6.82387 62.0826 6.82387C62.0826 6.82387 62.0826 9.76628 62.0826 11.6027C58.4933 12.1035 50.6886 11.9157 44.1987 9.5576C32.596 5.32137 27.3372 4.46578 21.1185 4.02755C12.7087 3.42237 2.69199 4.69533 2.69199 4.69533L2.58764 3.8606C2.60851 3.8606 17.1119 1.29382 29.8414 2.65025Z" fill="#A6A8AB"/>
<path d="M120.952 3.52671H121.265C121.724 3.52671 121.765 3.29716 121.765 3.17195C121.765 2.85893 121.327 2.85893 121.265 2.85893H120.952V3.52671ZM121.515 2.29549C122.183 2.29549 122.517 2.65025 122.517 3.10935C122.517 3.52671 122.225 3.73539 121.932 3.798C122.12 3.83973 122.225 4.04841 122.245 4.11102L122.725 5.25876H121.932L121.557 4.3197C121.536 4.27796 121.432 4.09015 121.181 4.09015H120.952V5.27963H120.221V2.29549H121.515ZM121.306 6.01002C122.538 6.01002 123.56 5.00835 123.56 3.75626C123.56 2.52504 122.558 1.5025 121.306 1.5025C120.075 1.5025 119.053 2.50417 119.053 3.75626C119.073 5.00835 120.075 6.01002 121.306 6.01002ZM121.306 0.855592C122.913 0.855592 124.228 2.14942 124.228 3.77713C124.228 5.38397 122.934 6.69866 121.306 6.69866C119.7 6.69866 118.385 5.40484 118.385 3.77713C118.406 2.14942 119.7 0.855592 121.306 0.855592Z" fill="#A6A8AB"/>
<path d="M140.693 15.818H132.325V24.1861H140.693V15.818Z" fill="#A6A8AB"/>
<path d="M150 15.818H141.632V24.1861H150V15.818Z" fill="#A6A8AB"/>
<path d="M140.693 6.48998H132.325V14.8581H140.693V6.48998Z" fill="#A20C33"/>
<path d="M150 6.48998H141.632V14.8581H150V6.48998Z" fill="#A6A8AB"/>
<path d="M135.476 18.1553V19.8664H137.938V20.4716H135.476V22.4541H134.766V17.5501H138.23V18.1553H135.476Z" fill="white"/>
<path d="M144.136 17.5292H144.846V21.828H147.496V22.4332H144.136V17.5292Z" fill="white"/>
<path d="M134.62 12.5626L134.871 12.02C135.225 12.3539 135.851 12.5835 136.498 12.5835C137.354 12.5835 137.709 12.2496 137.709 11.8322C137.709 10.6427 134.745 11.394 134.745 9.5576C134.745 8.80634 135.33 8.15943 136.624 8.15943C137.208 8.15943 137.792 8.30551 138.21 8.59766L137.98 9.1611C137.563 8.88982 137.062 8.76461 136.644 8.76461C135.81 8.76461 135.455 9.11936 135.455 9.53673C135.455 10.7262 138.418 9.97496 138.418 11.7905C138.418 12.5417 137.813 13.1886 136.519 13.1886C135.747 13.1678 134.996 12.9174 134.62 12.5626Z" fill="white"/>
<path d="M143.322 10.6636C143.322 9.22371 144.386 8.15943 145.826 8.15943C147.266 8.15943 148.31 9.22371 148.31 10.6636C148.31 12.1035 147.245 13.1678 145.826 13.1678C144.386 13.1678 143.322 12.1035 143.322 10.6636ZM147.642 10.6636C147.642 9.57846 146.87 8.78548 145.826 8.78548C144.762 8.78548 143.99 9.57846 143.99 10.6636C143.99 11.7487 144.762 12.5417 145.826 12.5417C146.87 12.5626 147.642 11.7487 147.642 10.6636Z" fill="white"/>
</svg>
