<svg width="150" height="24" viewBox="0 0 150 24" fill="none" xmlns="http://www.w3.org/2000/svg">
<path d="M19.3475 12.7903C25.0015 12.5883 28.435 10.1654 28.435 7.31324C28.435 4.27302 24.6935 1.80923 18.3204 1.80923H17.4045L19.2811 0L16.4932 0.0107746L11.8969 1.80923H4.5747C2.00227 1.80923 0.572399 2.44673 0 3.69029H15.0507C19.2007 3.69029 21.99 4.32599 21.99 7.22031C21.99 10.3395 18.6364 10.9465 15.0507 10.9465H8.29193L14.275 17.4539C19.3462 22.8547 24.1023 23.8154 30.0067 23.8154L19.3475 12.7903Z" fill="#E3132C"/>
<path d="M47.2896 14.2516C46.1565 14.2516 45.2397 14.1138 44.5421 13.9481V7.67509C45.2658 7.58709 46.2005 7.51122 47.2896 7.51122C49.9069 7.51122 51.4333 8.5797 51.4333 10.8051C51.4333 13.0723 49.7983 14.2516 47.2896 14.2516ZM47.6824 6.15857C45.4799 6.15857 43.3425 6.42479 41.0516 6.51233V19.1141H44.5421V15.4386C45.5396 15.5329 46.6377 15.6029 47.6829 15.6029C52.373 15.6029 55.3391 14.2076 55.3391 10.8047C55.3391 7.40168 52.3721 6.15946 47.682 6.15946M67.2908 18.0905C64.5208 18.0905 62.6012 16.0406 62.6012 12.7899C62.6012 9.56198 64.5208 7.44568 67.2908 7.44568C70.0832 7.44568 71.98 9.56153 71.98 12.7894C71.98 16.0173 70.0828 18.0905 67.2908 18.0905ZM67.2908 6.09302C62.1212 6.09302 58.6972 8.81944 58.6972 12.789C58.6972 16.7585 62.1212 19.4414 67.2908 19.4414C72.4603 19.4414 75.8849 16.7581 75.8849 12.7881C75.8849 8.81944 72.4603 6.09302 67.2908 6.09302Z" fill="#E3132C"/>
<path d="M126.77 6.49931L119.028 16.4748V6.49931H115.537V19.172H119.028L126.77 9.175V19.172H130.26V6.49931H128.842" fill="#E3132C"/>
<path d="M88.6882 7.49012C91.3922 7.49012 93.007 8.95142 93.007 8.95142L93.7262 7.07485C93.7262 7.07485 91.6979 6.09347 88.2518 6.09347C83.2789 6.09347 79.7893 8.82033 79.7893 12.7899C79.7893 16.7594 83.0603 19.4418 88.4696 19.4418C91.7854 19.4418 93.7042 18.3949 93.7042 18.3949V16.3778C93.7042 16.3778 92.0903 17.9257 88.8404 17.9257C85.5245 17.9257 83.6928 15.9953 83.6928 12.7899C83.6928 9.60553 85.5681 7.48967 88.6873 7.48967M143.26 13.4009C140.991 13.4009 139.617 12.3099 139.617 10.3481C139.617 8.42841 140.991 7.51212 143.26 7.51212C144.491 7.51212 145.638 7.61852 146.51 7.7312V13.4013L143.26 13.4009ZM142.867 6.15946C138.636 6.15946 135.713 7.22794 135.713 10.3692C135.713 12.4451 136.9 13.6689 138.986 14.2624L134.339 19.3579H134.775C137.959 19.3579 139.53 18.6813 141.581 16.1951L142.799 14.7077C142.822 14.7077 142.843 14.7091 142.867 14.7091H146.509V19.1145H149.999V6.5029C147.055 6.41581 145.07 6.15946 142.867 6.15946ZM105.679 7.49012C108.383 7.49012 109.997 8.95142 109.997 8.95142L110.717 7.07485C110.717 7.07485 108.688 6.09347 105.242 6.09347C100.269 6.09347 96.7794 8.82033 96.7794 12.7899C96.7794 16.7594 100.051 19.4418 105.46 19.4418C108.775 19.4418 110.695 18.3949 110.695 18.3949V16.3778C110.695 16.3778 109.08 17.9257 105.831 17.9257C102.515 17.9257 100.683 15.9953 100.683 12.7899C100.683 9.60553 102.56 7.49012 105.679 7.49012Z" fill="#E3132C"/>
</svg>
