<svg width="96" height="96" viewBox="0 0 96 96" fill="none" xmlns="http://www.w3.org/2000/svg">
<path d="M76.2642 30.9863C76.1337 30.7314 75.9289 30.5221 75.6768 30.3861L48.6542 16.1639C48.4499 16.0562 48.2224 16 47.9915 16C47.7605 16 47.533 16.0562 47.3287 16.1639L20.3061 30.3861C20.0546 30.5221 19.8499 30.7308 19.7188 30.9849L47.9915 45.8671L76.2642 30.9863Z" fill="url(#paint0_linear_1080_8864)"/>
<path d="M47.9915 45.8671L47.9927 80C48.2236 80.0001 48.4511 79.944 48.6555 79.8364L75.678 65.6142C75.9072 65.4934 76.0991 65.3124 76.233 65.0906C76.3668 64.8687 76.4376 64.6146 76.4375 64.3555V31.6443C76.4351 31.414 76.3748 31.1883 76.2642 30.9863L47.9915 45.8671Z" fill="url(#paint1_linear_1080_8864)"/>
<path d="M19.7188 30.9849C19.6087 31.1876 19.5499 31.4137 19.5469 31.6444V64.3556C19.5468 64.6147 19.6175 64.8689 19.7514 65.0907C19.8852 65.3125 20.0771 65.4936 20.3064 65.6143L47.3289 79.8366C47.5333 79.9441 47.7618 80.0001 47.9927 80L47.9915 45.8671L19.7188 30.9849Z" fill="url(#paint2_linear_1080_8864)"/>
<g filter="url(#filter0_bi_1080_8864)">
<path d="M90.4104 22.4793C90.2147 22.0969 89.9074 21.7829 89.5293 21.579L48.9962 0.245791C48.6897 0.0843609 48.3485 0 48.0021 0C47.6557 0 47.3145 0.0843609 47.0079 0.245791L6.47481 21.579C6.09752 21.783 5.79047 22.096 5.59375 22.4772L48.0021 44.8002L90.4104 22.4793Z" fill="url(#paint3_linear_1080_8864)" fill-opacity="0.2"/>
<path d="M48.7632 0.688183L48.7633 0.688251L89.292 22.0191C89.2927 22.0195 89.2934 22.0199 89.2941 22.0202C89.434 22.0959 89.5611 22.1914 89.672 22.3029L48.0021 44.2352L6.33362 22.3016C6.44435 22.1907 6.57108 22.0957 6.71035 22.0201C6.71111 22.0197 6.71186 22.0193 6.71262 22.0188L47.2408 0.688251L47.241 0.688183C47.4756 0.564589 47.7369 0.5 48.0021 0.5C48.2673 0.5 48.5285 0.564589 48.7632 0.688183Z" stroke="url(#paint4_linear_1080_8864)" stroke-opacity="0.1"/>
</g>
<g filter="url(#filter1_bi_1080_8864)">
<path d="M48 44.7995V95.9992C48.3464 95.9994 48.6876 95.9152 48.9941 95.7539L89.5273 74.4207C89.8711 74.2396 90.1589 73.968 90.3597 73.6353C90.5605 73.3025 90.6665 72.9213 90.6665 72.5327V23.4662C90.6628 23.1208 90.5742 22.7816 90.4083 22.4785L48 44.7995Z" fill="url(#paint5_linear_1080_8864)" fill-opacity="0.2"/>
<path d="M48.5 45.1013L90.1378 23.1859C90.1557 23.279 90.1653 23.3737 90.1665 23.4691V72.5327V72.5328C90.1665 72.8303 90.0853 73.1222 89.9316 73.377C89.7779 73.6317 89.5575 73.8396 89.2943 73.9783L48.7613 95.3114C48.7613 95.3114 48.7613 95.3114 48.7613 95.3114C48.6772 95.3556 48.5898 95.3923 48.5 95.4211V45.1013Z" stroke="url(#paint6_linear_1080_8864)" stroke-opacity="0.1"/>
</g>
<g filter="url(#filter2_bi_1080_8864)">
<path d="M5.58626 22.4766C5.42121 22.7807 5.33262 23.1204 5.32813 23.4664V72.5329C5.32804 72.9215 5.43411 73.3027 5.63488 73.6354C5.83564 73.9682 6.12348 74.2398 6.46732 74.4208L47.0005 95.7541C47.307 95.9154 47.6482 95.9996 47.9946 95.9994V44.7997L5.58626 22.4766Z" fill="url(#paint7_linear_1080_8864)" fill-opacity="0.2"/>
<path d="M47.4946 45.1015V95.4213C47.4048 95.3925 47.3174 95.3558 47.2333 95.3116C47.2333 95.3116 47.2333 95.3116 47.2333 95.3116L6.70032 73.9785C6.43707 73.8398 6.21669 73.6319 6.06298 73.3771L5.63529 73.6352L6.06298 73.3771C5.90927 73.1224 5.82806 72.8305 5.82813 72.533V72.5329V23.4699C5.82955 23.3737 5.83946 23.2782 5.85757 23.1844L47.4946 45.1015Z" stroke="url(#paint8_linear_1080_8864)" stroke-opacity="0.1"/>
</g>
<defs>
<filter id="filter0_bi_1080_8864" x="2.59375" y="-3" width="90.8164" height="50.8003" filterUnits="userSpaceOnUse" color-interpolation-filters="sRGB">
<feFlood flood-opacity="0" result="BackgroundImageFix"/>
<feGaussianBlur in="BackgroundImageFix" stdDeviation="1.5"/>
<feComposite in2="SourceAlpha" operator="in" result="effect1_backgroundBlur_1080_8864"/>
<feBlend mode="normal" in="SourceGraphic" in2="effect1_backgroundBlur_1080_8864" result="shape"/>
<feColorMatrix in="SourceAlpha" type="matrix" values="0 0 0 0 0 0 0 0 0 0 0 0 0 0 0 0 0 0 127 0" result="hardAlpha"/>
<feOffset dy="0.5"/>
<feGaussianBlur stdDeviation="1"/>
<feComposite in2="hardAlpha" operator="arithmetic" k2="-1" k3="1"/>
<feColorMatrix type="matrix" values="0 0 0 0 1 0 0 0 0 1 0 0 0 0 1 0 0 0 0.4 0"/>
<feBlend mode="normal" in2="shape" result="effect2_innerShadow_1080_8864"/>
</filter>
<filter id="filter1_bi_1080_8864" x="45" y="19.4785" width="48.668" height="79.5208" filterUnits="userSpaceOnUse" color-interpolation-filters="sRGB">
<feFlood flood-opacity="0" result="BackgroundImageFix"/>
<feGaussianBlur in="BackgroundImageFix" stdDeviation="1.5"/>
<feComposite in2="SourceAlpha" operator="in" result="effect1_backgroundBlur_1080_8864"/>
<feBlend mode="normal" in="SourceGraphic" in2="effect1_backgroundBlur_1080_8864" result="shape"/>
<feColorMatrix in="SourceAlpha" type="matrix" values="0 0 0 0 0 0 0 0 0 0 0 0 0 0 0 0 0 0 127 0" result="hardAlpha"/>
<feOffset dy="0.5"/>
<feGaussianBlur stdDeviation="1"/>
<feComposite in2="hardAlpha" operator="arithmetic" k2="-1" k3="1"/>
<feColorMatrix type="matrix" values="0 0 0 0 1 0 0 0 0 1 0 0 0 0 1 0 0 0 0.4 0"/>
<feBlend mode="normal" in2="shape" result="effect2_innerShadow_1080_8864"/>
</filter>
<filter id="filter2_bi_1080_8864" x="2.32812" y="19.4766" width="48.668" height="79.5229" filterUnits="userSpaceOnUse" color-interpolation-filters="sRGB">
<feFlood flood-opacity="0" result="BackgroundImageFix"/>
<feGaussianBlur in="BackgroundImageFix" stdDeviation="1.5"/>
<feComposite in2="SourceAlpha" operator="in" result="effect1_backgroundBlur_1080_8864"/>
<feBlend mode="normal" in="SourceGraphic" in2="effect1_backgroundBlur_1080_8864" result="shape"/>
<feColorMatrix in="SourceAlpha" type="matrix" values="0 0 0 0 0 0 0 0 0 0 0 0 0 0 0 0 0 0 127 0" result="hardAlpha"/>
<feOffset dy="0.5"/>
<feGaussianBlur stdDeviation="1"/>
<feComposite in2="hardAlpha" operator="arithmetic" k2="-1" k3="1"/>
<feColorMatrix type="matrix" values="0 0 0 0 1 0 0 0 0 1 0 0 0 0 1 0 0 0 0.4 0"/>
<feBlend mode="normal" in2="shape" result="effect2_innerShadow_1080_8864"/>
</filter>
<linearGradient id="paint0_linear_1080_8864" x1="19.5469" y1="16" x2="87.425" y2="31.3209" gradientUnits="userSpaceOnUse">
<stop stop-color="#75A5FF"/>
<stop offset="0.703125" stop-color="#008ECF"/>
</linearGradient>
<linearGradient id="paint1_linear_1080_8864" x1="19.5469" y1="16" x2="87.425" y2="31.3209" gradientUnits="userSpaceOnUse">
<stop stop-color="#75A5FF"/>
<stop offset="0.703125" stop-color="#008ECF"/>
</linearGradient>
<linearGradient id="paint2_linear_1080_8864" x1="19.5469" y1="16" x2="87.425" y2="31.3209" gradientUnits="userSpaceOnUse">
<stop stop-color="#75A5FF"/>
<stop offset="0.703125" stop-color="#008ECF"/>
</linearGradient>
<linearGradient id="paint3_linear_1080_8864" x1="5.59375" y1="0" x2="91.9829" y2="41.5293" gradientUnits="userSpaceOnUse">
<stop stop-color="#83E9FF"/>
<stop offset="0.453125" stop-color="#85A0FF"/>
</linearGradient>
<linearGradient id="paint4_linear_1080_8864" x1="8.24427" y1="2.03638" x2="90.4104" y2="2.03638" gradientUnits="userSpaceOnUse">
<stop stop-color="#3CDEB6"/>
<stop offset="0.65625" stop-color="#364AFF"/>
</linearGradient>
<linearGradient id="paint5_linear_1080_8864" x1="48" y1="22.4785" x2="100.363" y2="30.1946" gradientUnits="userSpaceOnUse">
<stop stop-color="#83E9FF"/>
<stop offset="0.453125" stop-color="#85A0FF"/>
</linearGradient>
<linearGradient id="paint6_linear_1080_8864" x1="49.3333" y1="25.8204" x2="90.6665" y2="25.8204" gradientUnits="userSpaceOnUse">
<stop stop-color="#3CDEB6"/>
<stop offset="0.65625" stop-color="#364AFF"/>
</linearGradient>
<linearGradient id="paint7_linear_1080_8864" x1="5.32813" y1="22.4766" x2="57.6914" y2="30.1924" gradientUnits="userSpaceOnUse">
<stop stop-color="#83E9FF"/>
<stop offset="0.453125" stop-color="#85A0FF"/>
</linearGradient>
<linearGradient id="paint8_linear_1080_8864" x1="6.66145" y1="25.8185" x2="47.9946" y2="25.8185" gradientUnits="userSpaceOnUse">
<stop stop-color="#3CDEB6"/>
<stop offset="0.65625" stop-color="#364AFF"/>
</linearGradient>
</defs>
</svg>
