<svg width="100" height="47" viewBox="0 0 100 47" fill="none" xmlns="http://www.w3.org/2000/svg">
<path d="M19.5083 46.6664H18.5315V45.5793C18.1445 45.9738 17.677 46.2801 17.1608 46.4773C16.4885 46.7385 15.7705 46.8618 15.0496 46.8397C13.6789 46.8397 12.5761 46.43 11.7411 45.6265C11.3418 45.2444 11.0253 44.7843 10.8112 44.2748C10.5971 43.7653 10.49 43.2172 10.4964 42.6646C10.4834 42.1066 10.5922 41.5525 10.8153 41.041C11.0384 40.5294 11.3705 40.0727 11.7883 39.7027C12.6706 38.9149 13.805 38.5053 15.2544 38.5053C16.1133 38.5004 16.9629 38.6833 17.7437 39.041C18.4848 39.3399 19.0902 39.9006 19.4453 40.6165L18.3424 40.9631C18.0391 40.5254 17.6335 40.1684 17.1608 39.9232C16.5957 39.6183 15.959 39.4714 15.3175 39.4979C14.3844 39.4611 13.4687 39.7571 12.7336 40.3329C12.3903 40.6072 12.1159 40.9582 11.9326 41.3576C11.7493 41.757 11.6621 42.1939 11.6781 42.6331C11.6781 43.6572 12.0404 44.4607 12.7336 45.0436C13.4538 45.6184 14.3488 45.9297 15.2702 45.9259C15.8563 45.9242 16.4358 45.8008 16.9717 45.5635C17.4917 45.3362 17.9309 44.9573 18.2321 44.4764C18.3983 44.157 18.505 43.81 18.5472 43.4524H15.0496V42.5071H19.5083V46.6664Z" fill="black"/>
<path d="M37.6248 46.6661H36.1439L33.4498 43.4836H29.6055V46.6661H28.4712V38.7099H33.9066C34.3305 38.6963 34.7543 38.7387 35.167 38.8359C35.6611 38.9494 36.1 39.2319 36.4078 39.6347C36.7156 40.0374 36.873 40.5351 36.8528 41.0416C36.8528 42.0499 36.4274 42.7274 35.5609 43.074C35.2739 43.1733 34.9786 43.2471 34.6786 43.2946L37.6248 46.6661ZM29.6055 42.5383H33.5443C33.8121 42.5383 34.0484 42.5226 34.2217 42.5068C34.4316 42.4766 34.6377 42.4238 34.8362 42.3493C35.0564 42.2701 35.2482 42.1276 35.3876 41.9396C35.5908 41.6922 35.6921 41.3768 35.6712 41.0574C35.6764 40.7859 35.6055 40.5185 35.4664 40.2854C35.3472 40.0392 35.1388 39.8477 34.8835 39.7497C34.5944 39.6529 34.29 39.6101 33.9854 39.6236H29.5898L29.6055 42.5383Z" fill="black"/>
<path d="M54.8615 42.7904C54.8742 43.3422 54.7667 43.8901 54.5463 44.3962C54.3259 44.9023 53.998 45.3542 53.5853 45.7208C52.7345 46.4928 51.5687 46.8866 50.0562 46.8866C48.5437 46.8866 47.3621 46.5243 46.4798 45.7996C45.5975 45.0748 45.1721 44.0665 45.1721 42.7746C45.158 42.1328 45.2928 41.4964 45.566 40.9155C45.8082 40.3882 46.1761 39.9284 46.6374 39.5763C47.0997 39.2218 47.623 38.9549 48.1813 38.7886C49.3455 38.4288 50.5904 38.4234 51.7577 38.7728C52.3145 38.9279 52.8379 39.1842 53.3017 39.5291C53.7889 39.8702 54.1797 40.3315 54.4361 40.8682C54.7253 41.4672 54.8709 42.1253 54.8615 42.7904ZM53.7113 42.6801C53.7152 42.2975 53.6456 41.9178 53.5065 41.5615C53.3671 41.1896 53.1586 40.8475 52.8921 40.5532C52.5791 40.1966 52.1766 39.9301 51.7262 39.7812C51.1608 39.5775 50.5624 39.4813 49.9617 39.4976C49.4866 39.495 49.0139 39.564 48.5595 39.7024C48.1426 39.8268 47.7488 40.0184 47.3936 40.2696C47.0339 40.5249 46.7507 40.8735 46.5743 41.2779C46.3718 41.7335 46.2748 42.229 46.2907 42.7273C46.2907 43.7041 46.6216 44.4919 47.2833 45.0591C47.945 45.6263 48.8746 45.9098 50.0404 45.9098C50.6192 45.9249 51.1958 45.8341 51.742 45.642C52.1733 45.4882 52.562 45.2345 52.8763 44.9015C53.1347 44.604 53.3375 44.2625 53.475 43.8932C53.6499 43.5136 53.731 43.0975 53.7113 42.6801Z" fill="black"/>
<path d="M63.3992 38.7099H64.5336V43.5625C64.5311 43.8212 64.5522 44.0796 64.5966 44.3345C64.6318 44.5292 64.7128 44.7129 64.8329 44.8701C64.9087 44.9669 64.9931 45.0565 65.085 45.138C65.1638 45.201 65.2583 45.2798 65.3528 45.3428C65.92 45.7052 66.6448 45.8785 67.5113 45.8785C67.6531 45.8785 67.8106 45.8627 67.9839 45.847C68.244 45.8236 68.502 45.7815 68.7559 45.7209C69.0781 45.6766 69.3855 45.5579 69.654 45.3743C69.9106 45.2176 70.1138 44.9869 70.2369 44.7126C70.3734 44.3398 70.4324 43.9431 70.4102 43.5467V38.6784H71.5446V43.4837C71.5755 43.9939 71.4949 44.5046 71.3082 44.9804C70.7883 46.2251 69.4964 46.8553 67.4325 46.8553C67.2592 46.8553 67.0702 46.8395 66.8811 46.8238C66.621 46.8102 66.3626 46.7733 66.1091 46.7135C65.8013 46.663 65.5001 46.5785 65.2111 46.4614C64.9162 46.3349 64.6362 46.1764 64.376 45.9888C64.1018 45.7721 63.8718 45.5046 63.6986 45.201C63.4623 44.7756 63.352 44.1769 63.352 43.3892L63.3992 38.7099Z" fill="black"/>
<path d="M80.743 38.7098H85.7373C87.0135 38.7098 87.8958 39.0721 88.3999 39.7811C88.6673 40.1882 88.8097 40.6647 88.8096 41.1518C88.8096 41.9238 88.5417 42.5225 87.9745 42.9479C87.7495 43.1089 87.4993 43.2314 87.2341 43.3102C87.0062 43.376 86.7747 43.4286 86.5408 43.4678C86.3518 43.4835 86.0682 43.4993 85.7216 43.4993H81.8931V46.6818H80.743V38.7098ZM81.8931 42.5225H85.564C85.8161 42.5225 86.0367 42.5067 86.21 42.491C86.4061 42.468 86.5974 42.4149 86.7772 42.3334C86.9777 42.2498 87.1558 42.1203 87.2971 41.9553C87.4999 41.7016 87.601 41.3814 87.5807 41.0573C87.5944 40.7812 87.517 40.5083 87.3605 40.2806C87.2039 40.0529 86.9768 39.8829 86.7141 39.7969C86.5241 39.7133 86.3221 39.6601 86.1155 39.6393C85.9579 39.6236 85.7216 39.6078 85.438 39.6078H81.8774L81.8931 42.5225Z" fill="black"/>
<path d="M23.3646 29.6509L17.0311 23.2859H11.6429V29.6509H3.16675V10.5873H11.6429V14.8254H23.081V8.49194H0V0H27.3034L31.5415 4.23809V19.0635L27.3034 23.2859L33.6684 29.6509H23.3646Z" fill="black"/>
<path d="M57.3695 29.6509L45.9314 14.1952V29.6509H37.4552V8.49194H34.2884V0H45.9314L57.3695 15.4556V0H65.8299V29.6509H57.3695Z" fill="black"/>
<path d="M79.8494 29.6509V8.49194H68.1592V0H100V8.49194H88.3098V29.6509H79.8494Z" fill="black"/>
</svg>
