<svg width="120" height="33" viewBox="0 0 120 33" fill="none" xmlns="http://www.w3.org/2000/svg">
<path d="M47.1318 9.18196L47.1237 5.95562L45.5581 8.58185H44.7922L43.2273 6.02478V9.18196H41.6439V3.09366H43.0618L45.2007 6.60767L47.289 3.09366H48.7066L48.7241 9.18196H47.1318Z" fill="#00437B"/>
<path d="M51.4849 8.89536C50.9714 8.62275 50.5683 8.24519 50.2758 7.76403C49.9827 7.28313 49.8358 6.74061 49.8358 6.13754C49.8358 5.53501 49.9827 4.99276 50.2758 4.51159C50.5683 4.02989 50.9712 3.65314 51.4849 3.38053C51.9978 3.10873 52.5761 2.97203 53.2198 2.97203C53.8641 2.97203 54.4418 3.10873 54.9548 3.38053C55.4682 3.65314 55.8713 4.02989 56.1639 4.51159C56.4572 4.99276 56.6036 5.53501 56.6036 6.13754C56.6036 6.74061 56.4572 7.28313 56.1639 7.76403C55.8713 8.24519 55.4685 8.62248 54.9548 8.89536C54.4418 9.16689 53.8641 9.30332 53.2198 9.30332C52.5761 9.30332 51.9978 9.16689 51.4849 8.89536ZM54.0549 7.65988C54.3041 7.5151 54.5013 7.31085 54.6464 7.04686C54.7914 6.78259 54.8635 6.47958 54.8635 6.13754C54.8635 5.79631 54.7914 5.4933 54.6464 5.22823C54.5011 4.96531 54.3041 4.75998 54.0549 4.61574C53.8057 4.47096 53.5274 4.39803 53.2198 4.39803C52.9122 4.39803 52.634 4.47096 52.3851 4.61574C52.1353 4.76025 51.9383 4.96558 51.7936 5.22823C51.6477 5.4933 51.5759 5.79631 51.5759 6.13754C51.5759 6.47958 51.6477 6.78232 51.7936 7.04686C51.9383 7.31058 52.1353 7.5151 52.3851 7.65988C52.6337 7.80466 52.9122 7.87732 53.2198 7.87732C53.5274 7.87732 53.8057 7.80466 54.0549 7.65988Z" fill="#00437B"/>
<path d="M47.1318 20.1085L47.1237 16.8822L45.5581 19.509H44.7922L43.2273 16.9516V20.1085H41.6439V14.0205H43.0618L45.2007 17.5334L47.289 14.0205H48.7066L48.7241 20.1085H47.1318Z" fill="#00437B"/>
<path d="M55.1079 18.7778V20.1083H50.2196V14.0205H54.9951V15.351H51.9243V16.3771H54.6292V17.665H51.9243V18.7778H55.1079Z" fill="#00437B"/>
<path d="M92.0709 14.0205V20.1085H90.3492V17.735H88.0007V20.1085H86.2789V14.0205H88.0007V16.3079H90.3492V14.0205H92.0709Z" fill="#00437B"/>
<path d="M94.8409 19.8257C94.333 19.5566 93.9345 19.1812 93.6441 18.7003C93.3546 18.2183 93.2106 17.6742 93.2106 17.0647C93.2106 16.4554 93.3546 15.9107 93.6441 15.429C93.9345 14.9484 94.3333 14.5727 94.8409 14.3036C95.3481 14.0326 95.9211 13.8989 96.5591 13.8989C97.1143 13.8989 97.6167 13.9971 98.0634 14.1949C98.5101 14.3911 98.8812 14.6758 99.1767 15.0469L98.0809 16.0383C97.6867 15.5628 97.2077 15.3251 96.6455 15.3251C96.3148 15.3251 96.0209 15.3981 95.7631 15.5423C95.505 15.6876 95.304 15.8924 95.1632 16.1559C95.0206 16.4199 94.9501 16.7234 94.9501 17.0649C94.9501 17.4067 95.0206 17.7097 95.1632 17.974C95.304 18.2374 95.5053 18.4425 95.7631 18.587C96.0209 18.7315 96.3148 18.8042 96.6455 18.8042C97.2077 18.8042 97.6867 18.5663 98.0809 18.0913L99.1767 19.0827C98.8812 19.4546 98.5101 19.738 98.0634 19.9352C97.6167 20.132 97.1145 20.231 96.5591 20.231C95.9208 20.2304 95.3481 20.0956 94.8409 19.8257Z" fill="#00437B"/>
<path d="M102.595 17.7775H101.813V20.1085H100.1V14.0205H101.813V16.3857H102.639L104.091 14.0205H105.901L103.996 16.9597L105.918 20.1085H103.979L102.595 17.7775Z" fill="#00437B"/>
<path d="M54.1491 29.7044V31.0351H49.2607V24.9468H54.0352V26.2778H50.9652V27.3039H53.6703V28.5908H50.9652V29.7041L54.1491 29.7044Z" fill="#00437B"/>
<path d="M61.1852 24.9468V31.0351H59.4631V28.6608H57.1141V31.0351H55.3929V24.9468H57.1141V27.2342H59.4631V24.9468H61.1852Z" fill="#00437B"/>
<path d="M67.5617 26.3123H65.7V31.0351H64.0041V26.3123H62.1343V24.9468H67.5617V26.3123Z" fill="#00437B"/>
<path d="M72.7328 25.2208C73.1389 25.404 73.4519 25.6645 73.672 26.0042C73.8924 26.3432 74.0028 26.7415 74.0028 27.199C74.0028 27.6578 73.8927 28.0556 73.672 28.3914C73.4519 28.7278 73.1389 28.9869 72.7328 29.1699C72.3268 29.3529 71.8488 29.4439 71.2977 29.4439H70.2363V31.0354H68.5146V24.9468H71.298C71.8488 24.9468 72.327 25.0383 72.7328 25.2208ZM71.9939 27.857C72.1731 27.7028 72.263 27.4837 72.263 27.1993C72.263 26.9156 72.1731 26.6955 71.9939 26.5383C71.8138 26.3817 71.5466 26.3037 71.1933 26.3037H70.2361V28.0868H71.1933C71.5466 28.0865 71.8138 28.0098 71.9939 27.857Z" fill="#00437B"/>
<path d="M61.0062 0C60.4061 0 59.9085 0.454792 59.8391 1.03714H59.8305V2.00485H61.4965C62.0953 2.00485 62.5934 1.5506 62.6631 0.967712L62.6712 0.82939V0H61.0062Z" fill="#00437B"/>
<path d="M47.3756 29.6702V24.9468H45.6797V29.6702H43.3406V24.9468H41.6442V30.0203L41.6458 30.0217C41.6458 30.0273 41.6442 30.0308 41.6442 30.0359C41.6442 30.5911 42.0944 31.0405 42.6487 31.0405C42.6684 31.0405 46.6364 31.0405 46.6364 31.0405V32.2795H48.2112V29.6705L47.3756 29.6702Z" fill="#00437B"/>
<path d="M77.0622 18.7428V14.0205H75.3666V18.7431H73.0272V14.0205H71.3311V19.0937L71.3324 19.0948C71.3324 19.1005 71.3311 19.1045 71.3311 19.1096C71.3311 19.6648 71.781 20.1155 72.3359 20.1155C72.3547 20.1155 76.323 20.1155 76.323 20.1155V21.3534H77.8978V18.7434L77.0622 18.7428Z" fill="#00437B"/>
<path d="M117.441 10.9269C116.841 10.9269 116.343 11.3814 116.274 11.9637H116.265V12.9314H117.931C118.53 12.9314 119.028 12.4772 119.098 11.8948L119.106 11.756V10.9269H117.441Z" fill="#00437B"/>
<path d="M62.1238 18.7428V14.0205H57.218L57.1483 15.8994C57.1133 16.8149 57.0412 17.523 56.8746 18.0044C56.8283 18.1373 56.7376 18.3596 56.5761 18.5195C56.4147 18.6801 56.1827 18.7778 56.1714 18.7848C56.0064 18.8825 55.8961 19.0617 55.8961 19.2673V21.3351H57.479V20.1083H61.3757V21.3351H62.9497V18.7428H62.1238ZM60.4273 18.7428H58.1224C58.2906 18.4987 58.4152 18.1516 58.4968 17.6995C58.5772 17.2468 58.63 16.6965 58.6531 16.0464L58.6792 15.3852H60.4273V18.7428Z" fill="#00437B"/>
<path d="M57.7371 3.09366H59.4335V6.66795L61.9475 3.09366H63.5651V9.1825H61.8687V5.61601L59.3636 9.1825H57.7371V3.09366Z" fill="#00437B"/>
<path d="M63.9992 14.0205H65.6959V17.5951L68.2094 14.0205H69.827V20.1091H68.1311V16.5429L65.626 20.1091H63.9989L63.9992 14.0205Z" fill="#00437B"/>
<path d="M78.9471 14.0205H80.6438V17.5951L83.1575 14.0205H84.7751V20.1091H83.0792V16.5429L80.5741 20.1091H78.9471V14.0205Z" fill="#00437B"/>
<path d="M106.841 14.0205H108.537V17.5951L111.051 14.0205H112.669V20.1091H110.973V16.5429L108.468 20.1091H106.841V14.0205Z" fill="#00437B"/>
<path d="M114.172 14.0205H115.868V17.5951L118.382 14.0205H120V20.1091H118.304V16.5429L115.799 20.1091H114.172V14.0205Z" fill="#00437B"/>
<path d="M32.2036 0.15985H25.0106V7.35229H32.2036V0.15985Z" fill="#00437B"/>
<path d="M25.0106 12.8989V18.1763C25.0106 19.7073 23.7687 20.9495 22.2383 20.9495C20.7057 20.9495 19.4635 19.7076 19.4635 18.1763V12.8989H14.186C12.6551 12.8989 11.4126 11.6575 11.4126 10.126C11.4126 8.59315 12.6551 7.35229 14.186 7.35229H19.4635V0.15985H13.2589C5.96666 0.15985 0 6.12624 0 13.4191V32.3632H18.9447C26.2369 32.3632 32.2036 26.3973 32.2036 19.1042V12.8989H25.0106Z" fill="#00437B"/>
</svg>
