<svg width="80" height="41" viewBox="0 0 80 41" fill="none" xmlns="http://www.w3.org/2000/svg">
<path d="M62.4997 0.083342L61.9961 0V6.62569L62.3528 6.68819C68.7531 7.97999 73.4117 13.6264 73.4117 20.1063C73.4117 26.5861 68.7531 32.2325 62.3528 33.5243L61.9961 33.5868V40.1917L62.4997 40.1292C72.4884 38.7123 80.0008 30.1073 80.0008 20.1063C80.0008 10.1052 72.4884 1.50016 62.4997 0.083342Z" fill="#F3173F"/>
<path d="M0 20.1063C0 30.1073 7.53344 38.7123 17.5011 40.1292L18.0047 40.1917V33.5868L17.648 33.5243C11.2477 32.2325 6.58915 26.5861 6.58915 20.1063C6.58915 13.6264 11.2477 7.97999 17.648 6.68819L18.0047 6.62569V0L17.5011 0.083342C7.51246 1.50016 0 10.126 0 20.1063Z" fill="#008ECF"/>
<path d="M43.4607 0.0838303L42.957 0.000488281V6.62618L43.3138 6.68868C49.714 7.98048 54.3726 13.6269 54.3726 20.1067C54.3726 26.5866 49.714 32.233 43.3138 33.5248L42.957 33.5873V40.1922L43.4607 40.1297C53.4493 38.7128 60.9617 30.1078 60.9617 20.1067C60.9617 10.1057 53.4493 1.50064 43.4607 0.0838303Z" fill="#F3173F"/>
<path d="M20.1016 20.1067C20.1016 30.1078 27.635 38.7128 37.6027 40.1297L38.1063 40.1922V33.5873L37.7495 33.5248C31.3493 32.233 26.6907 26.5866 26.6907 20.1067C26.6907 13.6269 31.3493 7.98048 37.7495 6.68868L38.1063 6.62618V0.000488281L37.6027 0.0838303C27.614 1.50064 20.1016 10.1265 20.1016 20.1067Z" fill="#008ECF"/>
<path d="M40.5414 11.168C35.5681 11.168 31.5391 15.1684 31.5391 20.0856C31.5391 25.0027 35.5891 29.0031 40.5414 29.0031C45.4938 29.0031 49.5438 25.0027 49.5438 20.0856C49.5438 15.1684 45.4938 11.168 40.5414 11.168Z" fill="#008ECF"/>
</svg>
