<svg width="150" height="44" viewBox="0 0 150 44" fill="none" xmlns="http://www.w3.org/2000/svg">
<path d="M51.9832 7.93496C51.9832 7.10897 51.6528 6.33805 50.7167 6.33805C49.2299 6.33805 49.0096 8.32042 49.0096 9.42173C49.0096 10.9085 49.285 13.0561 51.2123 13.0561C51.9832 13.0561 52.5338 12.7807 53.1396 12.2851V13.3865C52.4788 13.7719 51.7629 13.882 50.992 13.882C48.514 13.882 47.633 11.7896 47.633 9.58693C47.633 7.5495 48.4039 5.6222 50.7717 5.6222C52.2585 5.6222 53.4149 6.33805 53.4149 7.93496H51.9832ZM57.1593 13.7719V13.001C56.829 13.5517 56.2232 13.882 55.6175 13.882C54.8466 13.882 54.1307 13.3314 54.1307 12.5054C54.1307 10.9636 56.058 10.7433 57.2144 10.6882V10.1926C57.2144 9.64199 57.2144 8.59575 56.4435 8.59575C55.7276 8.59575 55.5624 9.20147 55.5624 9.80719H54.351C54.4611 8.54068 55.232 8.10015 56.4435 8.10015C57.9853 8.10015 58.3708 8.76094 58.3708 10.1926V13.7168L57.1593 13.7719ZM57.1593 11.1838C56.4435 11.2389 55.3422 11.4041 55.3422 12.3402C55.3422 12.7257 55.5624 13.1662 56.003 13.1662C56.1682 13.1662 56.3334 13.1111 56.4435 13.0561C56.884 12.8358 57.1593 12.3402 57.1593 11.8446V11.1838ZM63.2716 13.7719V11.2389H61.1791V13.7719H60.0228V8.26535H61.1791V10.5781H63.2716V8.26535H64.428V13.7719H63.2716ZM66.135 8.26535H67.2914V10.6332C67.9522 9.86225 68.613 9.09134 69.2738 8.26535H70.4302L68.2826 10.7433C68.9985 10.8534 69.5491 11.0186 69.9346 12.1199L70.4852 13.7168H69.2187L68.7782 12.5054C68.4478 11.5693 68.1725 11.349 67.4566 11.349H67.2914V13.7719H66.135V8.26535ZM73.5138 8.92614V13.7719H72.3575V8.92614H70.8707V8.26535H75.0557V8.92614H73.5138ZM75.7165 10.3028H78.5248V11.1288H75.7165V10.3028ZM84.1415 13.7719V6.61338H81.3332V13.7719H80.0667V5.7874H85.408V13.7719H84.1415ZM87.941 10.4129C87.941 11.7345 88.5468 13.2763 90.0886 13.2763C90.4741 13.2763 90.8044 13.2213 91.1348 13.0561V13.6067C90.5842 13.827 90.1437 13.9371 89.5379 13.9371C87.6106 13.9371 86.7847 12.6155 86.7847 10.7984C86.7847 9.20147 87.4454 8.15522 89.1525 8.15522C90.6393 8.15522 91.3 8.9812 91.3 10.4129H87.941ZM89.0974 8.65081C88.3816 8.65081 88.0512 9.25653 87.9961 9.86225H90.1437C90.1437 9.20147 89.8133 8.65081 89.0974 8.65081ZM94.4388 8.92614V13.7719H93.2824V8.92614H91.7956V8.26535H95.9806V8.92614H94.4388ZM97.5225 10.4129C97.5225 11.7345 98.1282 13.2763 99.67 13.2763C100.055 13.2763 100.386 13.2213 100.716 13.0561V13.6067C100.166 13.827 99.7251 13.9371 99.1194 13.9371C97.1921 13.9371 96.3661 12.6155 96.3661 10.7984C96.3661 9.20147 97.0269 8.15522 98.7339 8.15522C100.221 8.15522 100.881 8.9812 100.881 10.4129H97.5225ZM98.6238 8.65081C97.9079 8.65081 97.5775 9.25653 97.5225 9.86225H99.67C99.67 9.20147 99.3947 8.65081 98.6238 8.65081ZM104.736 13.882C104.075 13.882 103.635 13.6067 103.304 13.001V16.2499H102.148V8.26535H103.304V9.20147C103.58 8.59575 104.02 8.15522 104.736 8.15522C106.443 8.15522 106.829 9.64199 106.829 11.0186C106.829 12.3953 106.388 13.882 104.736 13.882ZM104.406 8.87107C103.359 8.87107 103.304 10.2477 103.304 11.0186C103.304 11.7896 103.304 13.2213 104.406 13.2213C105.397 13.2213 105.507 11.7345 105.507 11.0186C105.562 10.3028 105.452 8.87107 104.406 8.87107ZM112.225 6.55832L110.353 7.27417C109.307 7.65963 108.866 8.21029 108.646 9.1464H108.701C109.031 8.48561 109.637 8.15522 110.408 8.15522C112.06 8.15522 112.61 9.36666 112.61 10.9636C112.61 12.7257 111.895 13.9371 110.188 13.9371C108.37 13.9371 107.765 12.7257 107.765 10.7984C107.765 8.65081 108.26 7.10897 110.077 6.33805C110.628 6.11779 111.179 5.84246 111.784 5.6222L112.225 6.55832ZM110.188 13.3865C111.234 13.3865 111.344 12.0649 111.344 11.2389V10.7984C111.344 9.97239 111.289 8.70588 110.188 8.70588C109.196 8.70588 108.976 10.0275 108.976 10.7984V11.2389C109.031 12.0649 109.141 13.3865 110.188 13.3865ZM115.364 16.2499H114.428L115.254 13.827L113.161 8.26535H114.373L115.804 12.175L117.126 8.26535H118.227L115.364 16.2499ZM121.696 13.882C121.035 13.882 120.595 13.6067 120.265 13.001V16.2499H119.108V8.26535H120.265V9.20147C120.54 8.59575 120.98 8.15522 121.696 8.15522C123.403 8.15522 123.789 9.64199 123.789 11.0186C123.789 12.3953 123.348 13.882 121.696 13.882ZM121.421 8.87107C120.375 8.87107 120.32 10.2477 120.32 11.0186C120.32 11.7896 120.32 13.2213 121.421 13.2213C122.412 13.2213 122.522 11.7345 122.522 11.0186C122.522 10.3028 122.412 8.87107 121.421 8.87107ZM128.249 8.26535V8.92614H126.267V13.7719H125.11V8.26535H128.249ZM131.663 10.0825C131.663 9.53186 131.608 8.65081 130.837 8.65081C130.011 8.65081 129.791 9.80719 129.791 10.4129C129.791 11.6244 130.287 13.2763 131.773 13.2763C132.104 13.2763 132.434 13.2213 132.764 13.0561V13.6067C132.269 13.7719 131.773 13.882 131.278 13.882C129.35 13.882 128.524 12.6155 128.524 10.7984C128.524 9.25653 129.185 8.15522 130.837 8.15522C132.159 8.15522 132.82 8.76094 132.82 10.0825H131.663ZM133.866 8.26535H135.022V10.6332C135.683 9.86225 136.344 9.09134 137.005 8.26535H138.161L136.013 10.7433C136.729 10.8534 137.28 11.0186 137.665 12.1199L138.216 13.7168H136.949L136.509 12.5054C136.179 11.5693 135.903 11.349 135.187 11.349H135.077V13.7719H133.921L133.866 8.26535ZM139.262 13.7719V8.26535H140.364V12.3953L142.676 8.26535H143.778V13.7719H142.676V9.75212L140.364 13.827H139.262M145.485 8.26535H146.586V12.3953L148.899 8.26535H150V13.7719H148.899V9.75212L146.586 13.827H145.485V8.26535ZM149.449 5.67727C149.394 6.61338 148.844 7.32924 147.852 7.32924C146.861 7.32924 146.2 6.66845 146.2 5.67727H146.861C146.971 6.17286 147.302 6.44819 147.797 6.44819C148.348 6.44819 148.623 6.17286 148.789 5.67727H149.449ZM51.1021 20.545V21.2058H49.1748V26.0515H48.0185V20.545H51.1021ZM53.8554 26.1617C52.0382 26.1617 51.4325 24.8952 51.4325 23.2983C51.4325 21.7014 52.0933 20.4349 53.8554 20.4349C55.6175 20.4349 56.2783 21.6463 56.2783 23.2983C56.2783 24.9502 55.6726 26.1617 53.8554 26.1617ZM53.8554 20.8754C52.7541 20.8754 52.699 22.4723 52.699 23.2432C52.699 24.0141 52.7541 25.611 53.8554 25.611C54.9567 25.611 55.0118 24.0141 55.0118 23.2432C55.0118 22.4723 55.0118 20.8754 53.8554 20.8754ZM60.3532 22.3071C60.3532 21.7564 60.2981 20.8754 59.5272 20.8754C58.7012 20.8754 58.536 22.0318 58.536 22.6375C58.536 23.8489 59.0316 25.5009 60.5183 25.5009C60.8487 25.5009 61.1791 25.4458 61.5095 25.2806V25.8313C61.0139 25.9965 60.5183 26.1066 60.0228 26.1066C58.0955 26.1066 57.2695 24.8401 57.2695 23.0229C57.2695 21.4811 57.9303 20.3798 59.5822 20.3798C60.9038 20.3798 61.5646 20.9855 61.5646 22.3071H60.3532ZM63.9875 28.4744H63.0514L63.8773 26.0515L61.7849 20.4899H62.9963L64.428 24.3996L65.7496 20.4899H66.8509L63.9875 28.4744ZM68.0623 26.0515C68.0073 26.4921 68.0073 26.9326 67.9522 27.3731H67.0161V25.3908H67.5667C68.0073 24.6198 68.1725 23.2983 68.1725 21.8115V20.545H71.972V25.3908H72.7429L72.5777 27.3731H71.6416V26.0515H68.0623ZM69.3289 21.1507V21.7564C69.3289 23.0229 69.1637 24.3996 68.6681 25.3357H70.8156V21.1507H69.3289ZM76.5424 26.0515V25.2806C76.2121 25.8313 75.6063 26.1617 75.0006 26.1617C74.2297 26.1617 73.5138 25.611 73.5138 24.785C73.5138 23.2432 75.4411 23.0229 76.5975 22.9679V22.4723C76.5975 21.9216 76.5975 20.8754 75.8266 20.8754C75.1107 20.8754 74.9455 21.4811 74.9455 22.0868H73.7341C73.8442 20.8203 74.6152 20.3798 75.8817 20.3798C77.4235 20.3798 77.809 21.0406 77.809 22.4723V25.9965H76.5424V26.0515ZM76.5424 23.4635C75.8266 23.5185 74.7253 23.6837 74.7253 24.6198C74.7253 25.0053 74.9455 25.4458 75.3861 25.4458C75.5513 25.4458 75.7165 25.3908 75.8266 25.3357C76.2671 25.1154 76.5424 24.6198 76.5424 24.1243V23.4635ZM82.049 26.1617C81.3882 26.1617 80.9477 25.8864 80.6173 25.2806V28.4744H79.4609V20.545H80.6173V21.426C80.8926 20.8203 81.3332 20.3798 82.049 20.3798C83.756 20.3798 84.1415 21.8666 84.1415 23.2432C84.1415 24.6198 83.701 26.1617 82.049 26.1617ZM81.7186 21.1507C80.6724 21.1507 80.6173 22.5273 80.6173 23.2983C80.6173 24.0692 80.6173 25.5009 81.7186 25.5009C82.7098 25.5009 82.8199 24.0141 82.8199 23.2983C82.8199 22.5273 82.7098 21.1507 81.7186 21.1507ZM88.1062 22.3071C88.1062 21.7564 88.0512 20.8754 87.2802 20.8754C86.4543 20.8754 86.234 22.0318 86.234 22.6375C86.234 23.8489 86.7296 25.5009 88.2164 25.5009C88.5468 25.5009 88.8772 25.4458 89.2075 25.2806V25.8313C88.712 25.9965 88.2164 26.1066 87.7208 26.1066C85.7935 26.1066 84.9675 24.8401 84.9675 23.0229C84.9675 21.4811 85.6283 20.3798 87.2802 20.3798C88.6018 20.3798 89.2626 20.9855 89.2626 22.3071H88.1062ZM92.3463 21.1507V25.9965H91.1899V21.1507H89.7031V20.4899H93.8881V21.1507H92.3463ZM96.8066 26.0515H94.8242V20.545H96.7515C97.7978 20.545 98.844 20.7652 98.844 21.8666C98.844 22.4723 98.4586 22.9679 97.6877 23.1881C98.6238 23.2983 99.1194 23.7388 99.1194 24.5648C99.1194 25.7762 98.0731 26.0515 96.8066 26.0515ZM96.4762 21.0956H95.9806V22.8577H96.4211C97.0819 22.8577 97.5775 22.6925 97.5775 21.9767C97.6326 21.3159 97.1921 21.0956 96.4762 21.0956ZM96.4762 23.4635H95.9806V25.3908H96.4762C97.3022 25.3908 97.9079 25.2256 97.9079 24.3996C97.9079 23.6287 97.3022 23.4635 96.4762 23.4635ZM101.157 22.6375C101.157 23.9591 101.763 25.5009 103.304 25.5009C103.69 25.5009 104.02 25.4458 104.351 25.2806V25.8313C103.8 26.0515 103.359 26.1617 102.754 26.1617C100.826 26.1617 100 24.8401 100 23.0229C100 21.426 100.661 20.3798 102.368 20.3798C103.855 20.3798 104.516 21.2058 104.516 22.6375H101.157ZM102.258 20.8754C101.542 20.8754 101.212 21.4811 101.157 22.0868H103.304C103.304 21.4811 102.974 20.8754 102.258 20.8754ZM108.976 26.0515V23.5185H106.884V26.0515H105.727V20.545H106.884V22.8577H108.976V20.545H110.132V26.0515H108.976ZM115.088 26.0515V23.5185H113.051V26.0515H111.895V20.545H113.051V22.8577H115.143V20.545H116.3V26.0515H115.088ZM119.163 20.545V22.8577H120.044C121.201 22.8577 122.137 23.1881 122.137 24.3996C122.137 25.7212 121.035 26.0515 119.879 26.0515H118.007V20.545H119.163ZM119.384 23.4635H119.163V25.4458H119.769C120.43 25.3908 120.925 25.1705 120.925 24.4546C120.87 23.5736 120.265 23.4635 119.384 23.4635ZM122.743 20.545H123.899V26.0515H122.743V20.545ZM125.661 26.0515V20.545H126.762V24.6749L129.075 20.545H130.176V26.0515H129.075V21.9767L126.762 25.9965L125.661 26.0515ZM129.626 17.9018C129.571 18.838 129.02 19.5538 128.029 19.5538C127.038 19.5538 126.377 18.893 126.377 17.9018H127.038C127.148 18.3974 127.478 18.6728 127.974 18.6728C128.524 18.6728 128.8 18.3974 128.965 17.8468L129.626 17.9018ZM49.3951 40.7541H48.459L49.285 38.3312L47.1925 32.7696H48.4039L49.8356 36.6792L51.1572 32.7696H52.2585L49.3951 40.7541ZM56.3884 38.2761V35.7431H54.2959V38.2761H53.1396V32.7696H54.2959V35.0823H56.3884V32.7696H57.5448V38.2761H56.3884ZM59.2518 38.2761V32.7696H60.3532V36.8995L62.6659 32.7696H63.7672V38.2761H62.6659V34.2563L60.3532 38.2761H59.2518ZM67.4566 38.2761H65.4743V32.7696H67.4016C68.4478 32.7696 69.494 32.9898 69.494 34.0911C69.494 34.6969 69.1086 35.1924 68.3377 35.4127C69.2738 35.5228 69.7694 35.9634 69.7694 36.7893C69.7694 38.0008 68.7231 38.2761 67.4566 38.2761ZM67.1262 33.3753H66.6306V35.0823H67.0712C67.7319 35.0823 68.2275 34.9171 68.2275 34.2013C68.2826 33.5405 67.8971 33.3753 67.1262 33.3753ZM67.1813 35.688H66.6857V37.6704H67.1813C68.0073 37.6704 68.613 37.5052 68.613 36.6792C68.5579 35.8532 67.9522 35.688 67.1813 35.688ZM71.8068 34.9171C71.8068 36.2387 72.4125 37.8356 73.9544 37.8356C74.3398 37.8356 74.6702 37.7805 75.0006 37.6153V38.166C74.45 38.3862 74.0094 38.4964 73.4037 38.4964C71.4764 38.4964 70.6504 37.1748 70.6504 35.3576C70.6504 33.7607 71.3112 32.7145 73.0182 32.7145C74.505 32.7145 75.1658 33.5405 75.1658 34.9722L71.8068 34.9171ZM72.9081 33.1C72.1923 33.1 71.8619 33.7057 71.8068 34.3114H73.9544C73.9544 33.7057 73.679 33.1 72.9081 33.1ZM79.0204 38.3863C78.3596 38.3863 77.9191 38.1109 77.5887 37.5052V40.7541H76.4323V32.7696H77.5887V33.6506C77.864 33.0449 78.3046 32.6044 79.0204 32.6044C80.7274 32.6044 81.1129 34.0911 81.1129 35.4678C81.1129 36.8444 80.6724 38.3863 79.0204 38.3863ZM78.69 33.3753C77.6438 33.3753 77.5887 34.7519 77.5887 35.5228C77.5887 36.2938 77.5887 37.7255 78.69 37.7255C79.6812 37.7255 79.7913 36.2387 79.7913 35.5228C79.7913 34.807 79.7363 33.3753 78.69 33.3753ZM85.0776 34.5317C85.0776 33.981 85.0226 33.1 84.2516 33.1C83.4257 33.1 83.2054 34.2563 83.2054 34.862C83.2054 36.0735 83.701 37.7255 85.1878 37.7255C85.5181 37.7255 85.8485 37.6704 86.1789 37.5052V38.0559C85.6833 38.2211 85.1878 38.3312 84.6922 38.3312C82.7649 38.3312 81.9389 37.0647 81.9389 35.2475C81.9389 33.7057 82.5997 32.6044 84.2516 32.6044C85.5732 32.6044 86.234 33.2101 86.234 34.5317H85.0776ZM87.3353 38.2761V32.7696H88.4366V36.8995L90.7494 32.7696H91.8507V38.2761H90.7494V34.2563L88.4366 38.2761H87.3353ZM95.43 33.4303V38.2761H94.2736V33.4303H92.7868V32.7696H96.9718V33.4303H95.43ZM98.5136 34.9171C98.5136 36.2387 99.1194 37.8356 100.661 37.8356C101.047 37.8356 101.377 37.7805 101.707 37.6153V38.166C101.157 38.3862 100.716 38.4964 100.111 38.4964C98.1832 38.4964 97.3573 37.1748 97.3573 35.3576C97.3573 33.7607 98.018 32.7145 99.7251 32.7145C101.212 32.7145 101.873 33.5405 101.873 34.9722L98.5136 34.9171ZM99.615 33.1C98.8991 33.1 98.5687 33.7057 98.5136 34.3114H100.661C100.661 33.7057 100.331 33.1 99.615 33.1ZM104.956 33.4303V38.2761H103.8V33.4303H102.313V32.7696H106.498V33.4303H104.956Z" fill="black"/>
<path d="M14.0485 6.97131C14.0595 7.00435 14.076 7.03188 14.087 7.05941C14.3128 7.53849 14.7203 7.99553 14.7203 7.99553C14.7203 7.99553 14.7203 7.99553 14.7258 7.99553C14.7258 7.99553 14.7863 7.95148 14.902 7.8854C14.9405 7.86337 14.9901 7.83584 15.0452 7.80831C15.1773 7.74223 15.3425 7.67064 15.5518 7.59355C16.0473 7.41734 16.7026 7.36228 16.7026 7.36228C16.7026 7.36228 16.0914 6.50876 15.9758 5.27529C15.9097 4.57595 15.9372 4.21252 15.9427 4.19049C15.8987 4.19049 15.8601 4.18499 15.8161 4.18499C15.348 4.18499 14.924 4.35018 14.5881 4.62001C14.5771 4.62551 14.5716 4.63102 14.5606 4.64203C14.1256 4.99996 13.8502 5.54511 13.8502 6.15083C13.8502 6.32153 13.8723 6.48123 13.9163 6.64092C13.9493 6.74003 13.9934 6.86668 14.0375 6.97682L14.0485 6.97131Z" fill="black"/>
<path d="M25.86 12.9459C26.0583 13.2653 26.0528 13.6618 26.0528 13.6618C26.0528 13.6618 26.4603 13.7334 26.6585 13.9316C26.6585 13.9316 26.6915 13.8986 26.6915 13.8931C26.9614 13.5572 27.4625 13.012 27.6111 12.2136C27.7268 11.5638 27.6552 10.6552 27.5175 10.3689C27.5175 10.3578 27.5065 10.3413 27.501 10.3358C27.6332 10.1871 27.8479 9.83472 28.4371 9.83472C28.6574 9.83472 28.8501 9.89529 29.0098 9.96688C29.2686 10.0935 29.4283 10.2587 29.4283 10.2587C29.4283 10.2587 28.9162 11.1728 28.6464 11.6023C28.5087 11.8226 28.4096 11.9988 28.1343 12.6045C27.903 13.1111 27.8424 13.447 27.881 13.8105C27.914 14.1133 28.0737 14.697 28.1453 15.2807C28.2774 16.4041 28.0572 16.9492 28.0572 16.9492C28.0572 16.9492 28.0627 16.9492 28.0682 16.9382V16.9492C28.0682 16.9492 29.4008 16.0682 30.2378 14.1078C30.2378 14.1078 30.2323 14.1078 30.2267 14.1078C30.0726 14.0803 29.9459 14.0362 29.8358 13.9812C29.7257 13.9261 29.6265 13.8545 29.5219 13.7774C28.7785 13.2102 28.9437 12.6045 29.186 12.3182C29.2576 12.2356 29.3237 12.1585 29.4008 12.0814C29.588 11.8832 29.7917 11.6794 30.001 11.4316C30.2708 11.1178 30.3644 10.8039 30.403 10.5285C30.414 10.4349 30.4305 10.3358 30.4305 10.2422C30.4305 9.41622 30.0285 8.85455 29.5219 8.57372C29.3512 8.48011 29.1695 8.41403 28.9878 8.3865C28.4151 8.28738 27.7213 8.50213 27.2092 8.84905C27.0164 8.9812 26.6915 9.27305 26.6034 9.49882C26.4933 10.055 26.6585 10.1982 26.8292 10.7708C26.8292 10.7819 26.8402 10.7929 26.8457 10.8039C27.1981 12.0814 27.0164 12.7036 25.86 12.9459Z" fill="black"/>
<path d="M20.1497 11.8061C20.2984 12.1255 20.5737 12.4338 20.5737 12.4338L20.6123 12.4724C20.6123 12.4724 20.761 12.3402 21.1574 12.186C21.4823 12.0594 21.9008 12.0153 21.9008 12.0153C21.9008 12.0153 21.4878 11.4426 21.4107 10.6222C21.3667 10.1431 21.3832 9.8953 21.3887 9.8953C21.3887 9.8953 21.3832 9.8953 21.3777 9.8953C21.1684 9.85675 20.9537 9.8953 20.7555 9.98891C20.6178 10.066 20.4966 10.1486 20.3975 10.2422C20.2213 10.4019 20.1002 10.5781 20.0561 10.7653C19.9845 10.9691 19.957 11.1893 20.0011 11.4206C20.0011 11.4426 20.0781 11.6794 20.1387 11.8116L20.1497 11.8061Z" fill="black"/>
<path d="M21.9669 10.9581C22.1431 11.4537 22.4405 11.8666 22.6662 11.9547C22.6993 11.9713 22.7323 11.9768 22.7654 11.9768C23.0021 11.9492 23.3105 11.4757 23.4592 10.8975C23.6024 10.3578 23.5032 9.9008 23.2665 9.70807C23.2114 9.66952 23.1508 9.63098 23.0902 9.60345C23.0792 9.60345 23.0682 9.59794 23.0572 9.59243C23.1728 9.48781 23.2554 9.33913 23.2554 9.16843C23.2554 8.90411 23.0847 8.68936 22.8424 8.62328V8.392H23.2334V8.07262H22.8424V7.57152H22.5231V8.07262H22.1266V8.392H22.5231V8.62328C22.2863 8.68936 22.1156 8.90411 22.1156 9.16843C22.1156 9.33362 22.1872 9.48781 22.3083 9.59243C22.2147 9.63648 22.1266 9.69155 22.0495 9.75763C21.8292 9.96688 21.7742 10.4294 21.9614 10.9581H21.9669Z" fill="black"/>
<path d="M23.5693 11.9713C23.5693 11.9713 24.2686 11.9713 24.968 12.2521C24.979 12.2521 24.99 12.2631 25.001 12.2686C25.0946 12.1475 25.2323 11.9603 25.3204 11.7675C25.381 11.6354 25.4526 11.3986 25.4581 11.3766C25.5021 11.1453 25.4746 10.925 25.403 10.7213C25.3589 10.5341 25.2378 10.3578 25.0616 10.1982C24.9625 10.1101 24.8413 10.0219 24.7037 9.94485C24.5054 9.85124 24.2907 9.8127 24.0814 9.84574C24.0814 9.84574 24.1034 10.099 24.0594 10.5726C23.9823 11.3986 23.5693 11.9658 23.5693 11.9658C23.5693 11.9658 23.5748 11.9658 23.5803 11.9658L23.5693 11.9713Z" fill="black"/>
<path d="M19.0154 7.35677C19.0154 7.35677 19.6707 7.41183 20.1663 7.58804C20.3755 7.65963 20.5462 7.73672 20.6729 7.8028C20.7279 7.83033 20.772 7.85787 20.816 7.87989C20.9372 7.94597 20.9922 7.99002 20.9922 7.99002H20.9977C20.9977 7.99002 21.4107 7.52747 21.631 7.05391C21.642 7.02637 21.6585 6.99884 21.6695 6.9658C21.7136 6.85567 21.7577 6.72902 21.7907 6.6299C21.8292 6.47572 21.8568 6.31052 21.8568 6.13982C21.8568 5.5341 21.5814 4.98895 21.1464 4.63102C21.1409 4.62551 21.1299 4.62001 21.1189 4.60899C20.783 4.33917 20.3535 4.17397 19.8909 4.17397C19.8469 4.17397 19.8083 4.17397 19.7643 4.17948C19.7698 4.20151 19.7973 4.56494 19.7312 5.26427C19.6156 6.49774 19.0044 7.35126 19.0044 7.35126L19.0154 7.35677Z" fill="black"/>
<path d="M19.4504 9.25103C19.4504 9.25103 19.5275 9.63649 19.5715 9.80719H19.6211C19.913 9.69155 20.4856 9.51534 20.4856 9.32812V8.71689C20.4856 8.60676 20.3755 8.50213 20.1773 8.40852C19.7753 8.2213 19.0154 8.08914 18.1509 8.07262H17.6498C16.7577 8.07813 15.9592 8.21579 15.5463 8.40852C15.348 8.50213 15.2324 8.60676 15.2324 8.71689V9.32812C15.2324 9.52085 15.8106 9.69155 16.1024 9.80719H16.152C16.196 9.63649 16.2786 9.25103 16.2786 9.25103C16.2786 9.25103 16.2181 9.22349 16.2015 9.20147C16.1685 9.12437 16.2291 9.08032 16.3392 9.01975C16.4493 8.95918 16.6255 8.92614 16.7742 8.92063C16.8678 9.25653 16.8788 9.78516 16.8623 10.2367C16.8238 11.1453 16.6531 12.2906 16.1134 13.0671C16.3172 13.2653 16.5429 13.5241 16.7742 13.8545C17.3304 12.7807 17.4185 11.6078 17.468 10.4019C17.4901 9.86776 17.468 9.24552 17.468 8.82151C17.5176 8.82151 17.6938 8.79949 17.8645 8.79949C18.0352 8.79949 18.2059 8.82151 18.261 8.82151C18.261 9.24552 18.239 9.86776 18.261 10.4019C18.3105 11.6299 18.3986 12.8248 18.9823 13.9096C19.1971 13.6012 19.4008 13.3479 19.5991 13.1497C19.6156 13.1332 19.6266 13.1111 19.6376 13.0946C19.0815 12.3182 18.9053 11.1563 18.8667 10.2367C18.8447 9.78516 18.8612 9.25653 18.9548 8.92063C19.1035 8.92614 19.2852 8.95918 19.3898 9.01975C19.5 9.08032 19.5605 9.12437 19.5275 9.20147C19.5165 9.229 19.4504 9.25103 19.4504 9.25103Z" fill="black"/>
<path d="M26.9834 17.8413C26.9834 17.8413 26.9834 17.8413 26.9779 17.8413C26.9669 17.8413 26.9614 17.8413 26.9503 17.8413H26.9338C26.9008 17.8413 26.8732 17.8468 26.8402 17.8523C26.5208 17.8743 26.2125 17.8523 25.9537 17.7477C25.8105 17.6981 25.6838 17.6155 25.5627 17.5329C25.5352 17.5109 25.2103 17.2245 25.1497 17.1695C24.9129 16.9492 24.4669 16.6243 24.0098 16.5803C23.4922 16.5307 23.1618 16.7179 22.7874 16.8666C22.7543 16.8831 22.7268 16.9162 22.7213 16.9547C22.7213 16.9988 22.7433 17.0373 22.7819 17.0538C22.7929 17.0593 22.8094 17.0648 22.8259 17.0648C23.1949 17.0924 23.5473 17.1529 23.8777 17.2521C24.1255 17.3292 24.3678 17.4062 24.5605 17.5439C24.8138 17.7256 25.0341 17.9569 25.1827 18.0505C25.37 18.1717 25.5407 18.2873 25.7609 18.3313C25.9922 18.3699 26.229 18.3534 26.4492 18.2983C26.4603 18.2983 26.4713 18.2928 26.4768 18.2873C26.5373 18.2708 26.5924 18.2487 26.6475 18.2267C26.7246 18.1937 26.8017 18.1606 26.8733 18.1221C26.8733 18.1221 26.8788 18.1221 26.8843 18.1221C26.9283 18.0946 26.9779 18.0725 27.0219 18.0395C27.0495 18.0175 27.066 17.9844 27.0605 17.9514C27.0605 17.9073 27.0219 17.8688 26.9779 17.8633L26.9834 17.8413Z" fill="black"/>
<path d="M25.5572 14.4107C25.5792 14.4823 25.6563 14.5649 25.7444 14.6144C26.0197 14.7741 26.1189 15.0109 25.7059 15.0604C25.403 15.0935 25.0891 14.8953 23.9713 15.2036C23.316 15.3853 22.5451 16.0461 22.2753 16.349C22.1927 16.4426 22.1046 16.5527 22.0275 16.6684C21.7687 17.0428 21.7687 17.5439 22.0495 17.9073C22.2147 18.1221 22.4019 18.2598 22.457 18.2983C23.4372 18.9646 24.3568 18.4139 24.4614 18.3093C24.544 18.2267 24.5495 18.1992 24.533 18.1772C24.533 18.1772 24.533 18.1772 24.5275 18.1772C24.5275 18.1772 24.2136 18.3424 23.7786 18.3424C23.5308 18.3424 23.2775 18.2983 23.0682 18.2047C22.914 18.1331 22.5616 17.9459 22.3524 17.61C22.2147 17.3952 22.2477 17.1144 22.4074 16.9162C22.5726 16.7179 22.7709 16.5307 22.9581 16.393C23.3766 16.0847 23.8612 15.8974 24.4228 15.8864C24.4338 15.8864 24.4504 15.8864 24.4614 15.8864C24.7422 15.8864 25.012 15.936 25.2653 16.0186C25.392 16.0626 25.5186 16.1122 25.6343 16.1728C25.9922 16.3545 26.3061 16.6188 26.5429 16.9437C26.5429 16.9437 26.5429 16.9437 26.5484 16.9492C26.642 16.795 26.7411 16.5582 26.8292 16.2333C26.8457 16.1783 26.8622 16.1177 26.8733 16.0516C26.9999 15.501 26.9614 14.2235 25.7499 14.2235C25.7279 14.2235 25.7059 14.2345 25.6838 14.24C25.5572 14.273 25.5241 14.3446 25.5462 14.4162L25.5572 14.4107Z" fill="black"/>
<path d="M5.61241 11.4371C5.82717 11.6849 6.0254 11.8887 6.21262 12.0869C6.28421 12.164 6.3558 12.2466 6.42738 12.3237C6.66967 12.61 6.83487 13.2158 6.09148 13.7829C5.98686 13.86 5.88774 13.9316 5.77761 13.9867C5.66747 14.0417 5.54082 14.0858 5.38664 14.1133C5.38664 14.1133 5.38113 14.1133 5.37563 14.1133C6.21813 16.0737 7.54521 16.9547 7.54521 16.9547V16.9437C7.55072 16.9437 7.55623 16.9547 7.55623 16.9547C7.55623 16.9547 7.33596 16.4041 7.46812 15.2862C7.53971 14.7025 7.6994 14.1188 7.73244 13.816C7.77098 13.4525 7.71041 13.1166 7.47913 12.61C7.20381 12.0043 7.10469 11.8281 6.96702 11.6078C6.6972 11.1728 6.18509 10.2642 6.18509 10.2642C6.18509 10.2642 6.34478 10.099 6.60359 9.97239C6.76328 9.89529 6.95601 9.84023 7.17627 9.84023C7.77098 9.84023 7.98574 10.1871 8.11239 10.3413C8.11239 10.3523 8.10138 10.3634 8.09587 10.3744C7.95821 10.6662 7.88111 11.5748 8.00226 12.2191C8.14543 13.0175 8.64653 13.5627 8.92185 13.8986C8.92185 13.9041 8.95489 13.9371 8.95489 13.9371C9.15313 13.7389 9.55511 13.6673 9.56062 13.6673C9.56062 13.6673 9.5496 13.2708 9.75335 12.9514C8.60247 12.7091 8.42076 12.0869 8.76767 10.8094C8.76767 10.7984 8.77868 10.7874 8.78419 10.7763C8.95489 10.2037 9.12009 10.0605 9.00996 9.50433C8.92185 9.28407 8.59697 8.98671 8.40424 8.85455C7.89213 8.50764 7.1983 8.29288 6.62562 8.392C6.4439 8.42504 6.26218 8.48561 6.09148 8.57923C5.57937 8.86006 5.1829 9.42173 5.1829 10.2477C5.1829 10.3468 5.19391 10.4404 5.21043 10.5341C5.24347 10.8094 5.34259 11.1233 5.61241 11.4371Z" fill="black"/>
<path d="M13.7126 12.0153C13.7126 12.0153 14.1311 12.0594 14.456 12.186C14.8524 12.3402 15.0011 12.4724 15.0011 12.4724L15.0396 12.4338C15.0396 12.4338 15.315 12.1255 15.4637 11.8061C15.5242 11.6739 15.5958 11.4371 15.6013 11.4151C15.6454 11.1838 15.6178 10.9636 15.5463 10.7598C15.5022 10.5726 15.3811 10.3964 15.2048 10.2367C15.1057 10.1486 14.9846 10.0605 14.8469 9.9834C14.6487 9.88979 14.4339 9.85124 14.2247 9.88428C14.2247 9.88428 14.2192 9.88428 14.2137 9.88428C14.2137 9.88428 14.2357 10.1376 14.1916 10.6111C14.1145 11.4371 13.7016 12.0043 13.7016 12.0043L13.7126 12.0153Z" fill="black"/>
<path d="M12.8535 11.9768C12.8866 11.9768 12.9196 11.9658 12.9527 11.9547C13.1784 11.8666 13.4758 11.4537 13.652 10.9581C13.8392 10.4294 13.7841 9.96688 13.5639 9.75763C13.4868 9.69155 13.3987 9.63649 13.2996 9.59794C13.4207 9.49331 13.4978 9.34464 13.4978 9.17393C13.4978 8.90962 13.3271 8.69486 13.0848 8.62878V8.39751H13.4758V8.07813H13.0848V7.57703H12.7654V8.07813H12.369V8.39751H12.7654V8.62878C12.5287 8.69486 12.3579 8.90962 12.3579 9.17393C12.3579 9.34464 12.435 9.49331 12.5562 9.59794C12.5452 9.59794 12.5342 9.60345 12.5287 9.60895C12.4681 9.63649 12.4075 9.66952 12.3524 9.71358C12.1157 9.90631 12.022 10.3578 12.1597 10.903C12.3084 11.4812 12.6223 11.9547 12.8535 11.9823V11.9768Z" fill="black"/>
<path d="M10.2985 11.762C10.3866 11.9547 10.5243 12.142 10.6179 12.2631C10.6289 12.2576 10.6399 12.2521 10.6509 12.2466C11.3502 11.9713 12.0496 11.9658 12.0496 11.9658H12.0606C12.0606 11.9658 11.6476 11.3931 11.5705 10.5726C11.5265 10.0935 11.5485 9.84574 11.5485 9.84574C11.3392 9.8127 11.1245 9.85124 10.9262 9.94485C10.7886 10.0219 10.6674 10.1045 10.5683 10.1982C10.3921 10.3578 10.271 10.5341 10.2269 10.7213C10.1553 10.925 10.1278 11.1453 10.1718 11.3766C10.1718 11.3986 10.2489 11.6354 10.3095 11.7675L10.2985 11.762Z" fill="black"/>
<path d="M12.793 17.0538C12.793 17.0538 12.8205 17.0483 12.837 17.0428C12.8756 17.0263 12.8976 16.9877 12.8976 16.9437C12.8976 16.9051 12.8701 16.8721 12.8315 16.8556C12.4571 16.7069 12.1267 16.5197 11.6091 16.5692C11.1465 16.6133 10.706 16.9382 10.4692 17.1585C10.4086 17.2135 10.0837 17.4999 10.0562 17.5219C9.93506 17.61 9.80841 17.6926 9.66524 17.7366C9.40643 17.8358 9.09806 17.8633 8.77868 17.8413C8.75115 17.8413 8.71811 17.8358 8.68507 17.8302H8.66855C8.66855 17.8302 8.65203 17.8302 8.64102 17.8302C8.64102 17.8302 8.64102 17.8302 8.63551 17.8302C8.59146 17.8358 8.55842 17.8743 8.55291 17.9184C8.55291 17.9514 8.56393 17.9899 8.59146 18.0065C8.63551 18.0395 8.67956 18.0615 8.72912 18.0891C8.72912 18.0891 8.73463 18.0891 8.74014 18.0891C8.81172 18.1276 8.88331 18.1662 8.96591 18.1937C9.02097 18.2157 9.08154 18.2377 9.13661 18.2543C9.14762 18.2543 9.15864 18.2598 9.16414 18.2653C9.38991 18.3258 9.62669 18.3369 9.85246 18.2983C10.0727 18.2543 10.2379 18.1386 10.4307 18.0175C10.5793 17.9239 10.7996 17.6926 11.0529 17.5109C11.2456 17.3732 11.4934 17.2961 11.7357 17.219C12.0661 17.1199 12.4185 17.0593 12.7875 17.0318L12.793 17.0538Z" fill="black"/>
<path d="M8.72912 16.0461C8.74564 16.1122 8.75666 16.1673 8.77318 16.2278C8.86128 16.5582 8.96591 16.7895 9.05401 16.9437C9.05401 16.9437 9.05401 16.9437 9.05952 16.9382C9.2963 16.6133 9.61017 16.349 9.9681 16.1673C10.0892 16.1067 10.2104 16.0571 10.337 16.0131C10.5903 15.9305 10.8602 15.8809 11.141 15.8809C11.152 15.8809 11.1685 15.8809 11.1795 15.8809C11.7412 15.8919 12.2258 16.0792 12.6443 16.3875C12.8315 16.5252 13.0298 16.7124 13.1949 16.9107C13.3601 17.1089 13.3877 17.3897 13.25 17.6045C13.0408 17.9404 12.6883 18.1276 12.5342 18.1992C12.3249 18.2928 12.0716 18.3369 11.8238 18.3369C11.3888 18.3369 11.0804 18.1717 11.0749 18.1717C11.0749 18.1717 11.0749 18.1717 11.0694 18.1717C11.0529 18.1937 11.0584 18.2267 11.141 18.3038C11.2401 18.4029 12.1597 18.9536 13.1454 18.2928C13.2005 18.2543 13.3877 18.1166 13.5529 17.9018C13.8337 17.5439 13.8337 17.0373 13.5749 16.6629C13.4978 16.5472 13.4097 16.4371 13.3271 16.3435C13.0573 16.0406 12.2864 15.3798 11.6311 15.1981C10.5133 14.8897 10.1994 15.0935 9.89652 15.0549C9.48352 15.0054 9.58264 14.7686 9.85797 14.6089C9.94608 14.5594 10.0232 14.4823 10.0452 14.4052C10.0672 14.3336 10.0397 14.262 9.90753 14.229C9.8855 14.229 9.86348 14.2124 9.84145 14.2124C8.63001 14.2124 8.59146 15.49 8.71811 16.0406L8.72912 16.0461Z" fill="black"/>
<path d="M23.4977 34.7684V34.7795C23.4977 34.7795 23.5032 34.7795 23.5087 34.7795C23.5087 34.7795 23.5087 34.7684 23.4977 34.7684Z" fill="black"/>
<path d="M18.4978 22.3952C18.5363 22.4778 18.696 22.6044 18.7346 22.8522C18.7346 22.8798 19.3458 22.208 19.3458 22.208V21.5637L18.696 21.839L18.4978 22.4007V22.3952Z" fill="black"/>
<path d="M14.533 39.3279C14.8249 39.2508 15.0947 39.1572 15.3811 39.047C15.5242 38.992 15.6619 38.9314 15.8051 38.8598C15.9482 38.7882 16.0859 38.7056 16.2236 38.612C16.3557 38.5184 16.4824 38.3973 16.587 38.2651C16.6421 38.199 16.6861 38.1274 16.7247 38.0448C16.7412 38.0063 16.7632 37.9622 16.7742 37.9237L16.8017 37.8191C16.8183 37.7365 16.7742 37.6594 16.6971 37.6429C16.6696 37.6374 16.6365 37.6429 16.609 37.6484C16.5815 37.6539 16.5595 37.6704 16.5429 37.6924C16.4548 37.797 16.3612 37.8686 16.2566 37.9237C16.1575 37.9788 16.0473 38.0173 15.9317 38.0504C15.6949 38.1219 15.4361 38.155 15.1663 38.188C14.902 38.2211 14.6156 38.2486 14.3568 38.2761C14.0925 38.2981 13.8282 38.3147 13.5584 38.3202L12.7214 38.3477C12.4295 38.3642 12.1267 38.3807 11.7798 38.4578C11.6476 38.4909 11.5044 38.5294 11.3558 38.601C11.3062 38.623 11.2566 38.6506 11.2071 38.6781C11.0143 38.7992 10.8271 38.992 10.7335 39.2177C10.6344 39.4435 10.6234 39.6638 10.6619 39.851C10.706 40.0437 10.7831 40.2034 10.9207 40.3466C10.9758 40.4017 11.0584 40.4182 11.1245 40.3851C11.1465 40.3741 11.2071 40.3246 11.2071 40.3246C11.4494 39.9336 11.967 39.7243 12.0661 39.7023C12.4846 39.6032 13.0793 39.5812 13.6575 39.4931C13.9493 39.449 14.2467 39.394 14.5385 39.3169L14.533 39.3279Z" fill="black"/>
<path d="M11.9009 37.7145C11.9009 37.7915 11.956 37.8576 12.0331 37.8631C12.0661 37.8631 12.0936 37.8576 12.1212 37.8411L12.1652 37.8081C12.2313 37.764 12.2974 37.7255 12.369 37.6924C12.5782 37.5988 12.782 37.5658 12.9912 37.5603C13.272 37.5493 13.5584 37.5878 13.8888 37.6429C14.2467 37.7089 14.6432 37.7365 15.0341 37.7034C15.2324 37.6869 15.4306 37.6484 15.6344 37.5933C15.7335 37.5603 15.8381 37.5272 15.9427 37.4722C15.9427 37.4722 15.9427 37.4722 15.9482 37.4722C16.0418 37.4171 16.1795 37.351 16.2456 37.2023C16.2731 37.1473 16.2456 37.0757 16.1905 37.0482C16.1795 37.0482 16.174 37.0427 16.163 37.0371C16.163 37.0371 15.7665 36.9656 15.6068 36.916L15.1057 36.7893C14.7588 36.7067 14.4339 36.6297 14.065 36.5691C13.674 36.503 13.206 36.503 12.7764 36.6737C12.7214 36.6957 12.6663 36.7178 12.6168 36.7453C12.2478 36.9325 11.9284 37.2794 11.9009 37.7145Z" fill="black"/>
<path d="M12.4681 36.3213C12.4681 36.3213 12.7159 36.2332 12.826 36.2001C12.826 36.2001 11.4659 35.7046 12.2423 34.829V34.796C12.1102 34.7795 11.978 34.796 11.8624 34.84C11.7412 34.8896 11.6366 34.9667 11.5485 35.0768C11.1795 35.5339 11.6861 36.0349 11.6972 36.0405C11.6201 36.0349 11.4384 36.0074 11.3613 36.0019C11.0309 35.7761 10.4857 35.22 11.2677 34.0471C11.2456 34.0471 11.2291 34.0471 11.2071 34.0471C11.0914 34.0471 10.9813 34.0636 10.8767 34.1077C10.8161 34.1297 10.7555 34.1517 10.7005 34.1792C10.315 34.3665 10.0507 34.7299 10.0507 35.1539C10.0507 35.3246 10.1003 35.4898 10.1774 35.633C10.2324 35.7376 10.3095 35.8312 10.3976 35.9193C10.337 35.9193 10.0892 35.8973 10.0287 35.8808C9.67075 35.4678 9.27427 34.6969 10.0397 33.7938C10.0177 33.7938 10.0011 33.7938 9.97911 33.7938C9.86348 33.7938 9.75335 33.8103 9.64872 33.8544C9.57714 33.8819 9.51656 33.9094 9.45599 33.9425C9.03199 34.1847 8.82824 34.6473 8.82824 35.0272C8.82824 35.198 8.88881 35.4788 8.95489 35.633C9.45599 36.8609 11.8293 36.4865 12.4681 36.3268V36.3213Z" fill="black"/>
<path d="M24.5275 38.6891C24.4779 38.6561 24.4283 38.634 24.3788 38.612C24.2301 38.5404 24.0869 38.5019 23.9548 38.4688C23.6079 38.3863 23.305 38.3752 23.0131 38.3587L22.1762 38.3312C21.9063 38.3202 21.6365 38.3092 21.3777 38.2871C21.1189 38.2596 20.8325 38.2321 20.5682 38.199C20.3039 38.166 20.0396 38.1274 19.8028 38.0614C19.6872 38.0228 19.5771 37.9843 19.4779 37.9347C19.3733 37.8796 19.2797 37.8081 19.1916 37.7034C19.1751 37.6814 19.153 37.6704 19.1255 37.6594C19.098 37.6484 19.0704 37.6429 19.0374 37.6539C18.9603 37.6704 18.9163 37.753 18.9328 37.8301L18.9603 37.9402C18.9713 37.9788 18.9934 38.0228 19.0099 38.0614C19.0484 38.1385 19.0925 38.21 19.1475 38.2816C19.2522 38.4138 19.3788 38.5349 19.511 38.6285C19.6486 38.7222 19.7863 38.8047 19.9295 38.8763C20.0671 38.9479 20.2103 39.0085 20.3535 39.0636C20.6398 39.1737 20.9041 39.2618 21.2015 39.3444C21.4988 39.4215 21.7907 39.4766 22.0825 39.5206C22.6607 39.6032 23.2554 39.6307 23.6739 39.7299C23.7731 39.7519 24.2907 39.9611 24.533 40.3521C24.533 40.3521 24.5935 40.4017 24.6156 40.4127C24.6816 40.4402 24.7642 40.4292 24.8193 40.3741C24.957 40.2309 25.0341 40.0658 25.0781 39.8785C25.1167 39.6913 25.1056 39.4655 25.0065 39.2453C24.9129 39.0195 24.7202 38.8268 24.533 38.7056L24.5275 38.6891Z" fill="black"/>
<path d="M19.7753 37.4722C19.7753 37.4722 19.7753 37.4722 19.7808 37.4722C19.8854 37.5272 19.99 37.5603 20.0892 37.5933C20.2929 37.6484 20.4911 37.6869 20.6894 37.7034C21.0803 37.7365 21.4823 37.7034 21.8347 37.6429C22.1651 37.5823 22.4515 37.5493 22.7323 37.5603C22.9361 37.5603 23.1453 37.5988 23.3546 37.6924C23.4206 37.7255 23.4867 37.7585 23.5583 37.8081L23.6024 37.8356H23.6079C23.6079 37.8356 23.6629 37.8631 23.696 37.8631C23.7731 37.8631 23.8336 37.7915 23.8281 37.7145C23.8006 37.2794 23.4812 36.938 23.1123 36.7453C23.0572 36.7178 23.0076 36.6902 22.9526 36.6737C22.5176 36.503 22.055 36.503 21.664 36.5691C21.2951 36.6297 20.9702 36.7067 20.6233 36.7893L20.1222 36.916C19.9625 36.9601 19.566 37.0371 19.566 37.0371C19.555 37.0371 19.5495 37.0371 19.5385 37.0482C19.4834 37.0757 19.4559 37.1418 19.4834 37.2023C19.5495 37.351 19.6872 37.4226 19.7808 37.4722H19.7753Z" fill="black"/>
<path d="M26.273 33.9369C26.2125 33.9039 26.1464 33.8709 26.0803 33.8488C25.9757 33.8048 25.8655 33.7828 25.7499 33.7883C25.7279 33.7883 25.7114 33.7883 25.6893 33.7883C26.4548 34.6913 26.0583 35.4623 25.7004 35.8753C25.6398 35.8918 25.392 35.9083 25.3314 35.9138C25.4195 35.8312 25.4966 35.7376 25.5517 35.6275C25.6288 35.4843 25.6783 35.3191 25.6783 35.1484C25.6783 34.7244 25.414 34.361 25.0286 34.1737C24.9735 34.1462 24.9129 34.1242 24.8523 34.1021C24.7477 34.0581 24.6376 34.0361 24.5219 34.0416C24.4999 34.0416 24.4834 34.0416 24.4614 34.0416C25.2433 35.2145 24.6982 35.7706 24.3678 35.9964C24.2907 36.0019 24.109 36.0294 24.0319 36.035C24.0429 36.0239 24.555 35.5283 24.1805 35.0713C24.0924 34.9612 23.9878 34.8841 23.8667 34.8345C23.7455 34.785 23.6134 34.7739 23.4867 34.7905C23.4867 34.7905 23.4867 34.796 23.4812 34.7905V34.8235C24.2576 35.699 22.8975 36.1946 22.8975 36.1946C23.0076 36.2332 23.2389 36.3158 23.2554 36.3213C23.8942 36.481 26.2675 36.8554 26.7686 35.6275C26.8292 35.4733 26.8953 35.1924 26.8953 35.0217C26.8953 34.6418 26.686 34.1792 26.2675 33.9369H26.273Z" fill="black"/>
<path d="M21.8513 26.2883C21.6035 25.8368 21.2621 25.5449 20.8436 25.4789C20.6178 25.4458 20.392 25.4789 20.1663 25.578L20.1222 25.5945C19.9515 25.6716 19.7863 25.7817 19.6266 25.9194C18.9768 26.4866 18.4207 27.5383 18.1894 28.7938C17.9691 29.9942 18.0958 31.1066 18.4702 31.8389C18.718 32.329 19.076 32.6539 19.511 32.72C19.9405 32.7861 20.3865 32.5933 20.7885 32.2189C21.4107 31.6407 21.9394 30.6165 22.1596 29.405C22.3854 28.1661 22.2422 27.0152 21.8403 26.2828L21.8513 26.2883ZM18.8887 28.4249C19.1365 27.4777 19.5275 26.9546 19.5275 26.9546C19.7478 26.6297 20.0011 26.393 20.2544 26.2663C20.4581 26.1507 20.7169 26.1397 20.9757 26.2553C21.1079 26.3159 21.2235 26.4095 21.3116 26.5196C21.3281 26.5471 21.3392 26.5637 21.3557 26.5857C21.3722 26.6187 21.3887 26.6518 21.4052 26.6848C21.4933 26.861 21.5539 27.0482 21.598 27.263C21.598 27.2905 21.609 27.3126 21.609 27.3401C21.7026 27.9954 21.6971 28.089 21.6916 28.7718C21.6916 28.8103 21.6751 29.0691 21.6695 29.1077C21.6365 29.3665 21.5374 29.9061 21.2345 30.6275C21.1464 30.9083 20.9372 31.1671 20.9427 31.1727C20.5903 31.7729 20.0396 32.1308 19.6597 32.0867C19.3788 32.0537 19.2191 31.894 19.1255 31.7894C18.8612 31.492 18.8392 31.3268 18.8006 31.1947C18.7125 30.9138 18.7235 30.7707 18.7125 30.622C18.6409 29.8841 18.7235 29.339 18.8061 28.8434C18.8171 28.7773 18.8502 28.6121 18.8722 28.502C18.8722 28.502 18.8777 28.4634 18.8887 28.4304" fill="black"/>
<path d="M18.9383 28.4084C18.9438 28.3808 18.9493 28.3533 18.9548 28.3368L18.9383 28.4084Z" fill="black"/>
<path d="M35.6507 22.7862C35.6177 22.676 35.5406 22.5879 35.447 22.5439C35.3534 22.4943 35.2432 22.4778 35.1331 22.5108H35.1166C34.6485 22.654 34.1529 22.8027 33.6683 22.9128C33.4261 22.9734 33.1838 23.0284 32.947 23.0835C32.7047 23.1331 32.4679 23.1771 32.2091 23.2102C31.7025 23.2762 31.1959 23.3368 30.6838 23.3809C30.3589 23.4084 30.023 23.4304 29.6981 23.4469C29.7422 23.4359 29.7917 23.4249 29.8413 23.4084C29.9845 23.3699 30.1221 23.3313 30.2598 23.2873C30.5351 23.1992 30.8049 23.111 31.0693 23.0119C31.6034 22.8192 32.121 22.6044 32.6331 22.3787C33.1507 22.1584 33.6904 21.9051 34.1694 21.5967C34.6485 21.2774 35.1056 20.947 35.5241 20.534C35.6562 20.4073 35.6893 20.2036 35.5901 20.0384C35.5461 19.9613 35.4855 19.9062 35.4139 19.8732C35.2928 19.8126 35.1496 19.8126 35.0285 19.8842L35.012 19.8952C34.5659 20.154 34.0924 20.4183 33.6243 20.6441C33.1507 20.8754 32.6937 21.1011 32.1871 21.2719C31.6805 21.4481 31.1684 21.6133 30.6563 21.7564C30.403 21.828 30.1441 21.8941 29.8908 21.9547L29.7201 21.9932C29.8468 21.9381 29.9734 21.8831 30.0946 21.8225C30.3754 21.6848 30.6397 21.5417 30.8985 21.393C31.4217 21.0956 31.9173 20.7708 32.4018 20.4404C32.9029 20.1045 33.3985 19.7355 33.8335 19.3225C34.2686 18.8985 34.665 18.458 35.012 17.9459C35.1166 17.7917 35.1056 17.5825 34.9734 17.4448C34.9349 17.4007 34.8908 17.3677 34.8412 17.3457C34.6981 17.2741 34.5164 17.2961 34.3897 17.4118L34.3732 17.4228C33.9712 17.7862 33.5417 18.1606 33.1067 18.491C32.6662 18.8269 32.2366 19.1573 31.7576 19.4327C31.6695 19.4877 31.5759 19.5318 31.4878 19.5868C31.0858 19.8126 30.6838 20.0329 30.2763 20.2311C30.1992 20.2697 30.1166 20.3027 30.0395 20.3412C29.8908 20.4073 29.7422 20.4734 29.5935 20.534C29.621 20.5175 29.6486 20.4954 29.6761 20.4789C29.8523 20.3578 30.0175 20.2256 30.1772 20.099C30.2653 20.0274 30.3534 19.9558 30.4415 19.8842C30.9206 19.4767 31.3666 19.0472 31.7906 18.6122C31.7906 18.6067 31.8016 18.6012 31.8071 18.5957C32.2587 18.1331 32.6827 17.6595 33.0406 17.1364C33.393 16.6078 33.7124 16.0737 33.9602 15.4679C34.0318 15.2972 33.9767 15.0935 33.817 14.9834C33.817 14.9834 33.817 14.9834 33.8115 14.9834C33.6298 14.8512 33.371 14.8953 33.2443 15.0825L33.2333 15.099C32.9084 15.5615 32.545 16.0406 32.1651 16.4811C32.0494 16.6133 31.9393 16.7455 31.8237 16.8776C31.5538 17.1805 31.2785 17.4778 30.9811 17.7421C30.8325 17.8743 30.6783 18.001 30.5296 18.1276C30.2543 18.3589 29.979 18.5847 29.6926 18.7939C29.7367 18.7388 29.7807 18.6783 29.8248 18.6232C30.056 18.3038 30.2763 17.9734 30.48 17.6485C30.6232 17.4228 30.7609 17.1915 30.8985 16.9602C31.1353 16.5582 31.3556 16.1507 31.5428 15.7323C31.6254 15.545 31.708 15.3523 31.7796 15.1596C32.0054 14.5263 32.1871 13.9041 32.2862 13.2213C32.3137 13.034 32.2036 12.8468 32.0219 12.7807C32.0219 12.7807 32.0219 12.7807 32.0164 12.7807C31.8071 12.7036 31.5704 12.8138 31.4988 13.0285V13.0506C31.3226 13.5351 31.1133 14.0307 30.8875 14.5098C30.8545 14.5869 30.8215 14.664 30.7829 14.7411C30.5296 15.2642 30.2653 15.7708 29.9569 16.2554C29.9404 16.2829 29.9239 16.3159 29.9019 16.3435C29.6706 16.6849 29.4283 17.0098 29.1805 17.3347C28.4206 18.1827 27.1376 19.0307 26.4437 19.3666C26.1078 19.5318 25.7609 19.7575 25.414 19.9227C25.414 19.9227 25.403 19.9283 25.3975 19.9283C25.1662 20.0439 24.9625 20.2201 24.8468 20.4514C24.8193 20.5119 24.7918 20.5725 24.7697 20.6331C24.7312 20.7432 24.7092 20.8644 24.7092 20.9855C24.7092 21.4315 24.9515 21.8555 25.3149 22.0428C25.436 22.1089 25.5682 22.1474 25.7114 22.1529C25.7334 22.1529 25.7554 22.1529 25.7774 22.1529C25.9041 22.1419 25.9702 22.0868 25.9702 22.0868C25.9702 22.0868 25.8711 21.828 26.0197 21.7069C26.0418 21.6904 26.0693 21.6793 26.0968 21.6628C26.1629 21.6298 26.24 21.6133 26.3226 21.6133C26.3997 21.6133 26.4713 21.6298 26.5318 21.6573C26.7246 21.7399 26.8622 21.9326 26.8622 22.1584C26.8622 22.4337 26.653 22.665 26.3887 22.6981C26.2675 22.7476 26.0363 22.7531 25.8876 22.7531C25.5792 22.7531 25.2819 22.7201 24.99 22.665C24.588 22.5934 24.2081 22.4668 23.8501 22.3016C23.4151 22.1033 22.6222 21.5196 22.6332 21.4866C21.8127 20.7267 21.2951 19.6805 21.251 18.5241C21.251 18.469 21.24 18.4195 21.24 18.3644C21.24 18.1992 21.2511 18.0175 21.2731 17.8578C21.3061 17.5714 21.3722 17.2906 21.4603 17.0208C21.62 16.5362 21.8623 16.0847 22.1706 15.6937C22.1982 15.6552 22.3413 15.501 22.5231 15.3248C22.5341 15.3138 22.5451 15.3027 22.5561 15.2917C22.5561 15.2917 22.5561 15.2917 22.5616 15.2862C22.7598 15.088 23.0021 14.8677 23.2114 14.7356C23.1949 14.7245 23.1728 14.708 23.1508 14.686C23.1233 14.6585 23.0957 14.6309 23.0847 14.6144C22.7103 14.5759 22.5726 14.3997 22.5121 14.2455C22.5121 14.2455 22.5121 14.2345 22.5121 14.229C22.5121 14.2179 22.501 14.2014 22.4955 14.1904C22.4735 14.1353 22.479 13.9646 22.4845 13.9371C22.5121 13.7994 22.5947 13.6618 22.6662 13.5902C22.6993 13.5517 22.7378 13.5186 22.7709 13.4911C22.8865 13.403 23.0132 13.3534 23.1508 13.3314C23.1839 13.3259 23.2169 13.3204 23.2554 13.3149H23.2665C23.6189 13.2763 23.9603 13.4305 24.1035 13.7884L23.8832 13.8435C23.8116 13.6893 23.6905 13.6232 23.5528 13.6342C23.5087 13.6342 23.4592 13.6508 23.4041 13.6673C23.3711 13.6783 23.3435 13.6948 23.3215 13.7168C23.0957 13.9096 23.294 14.3942 23.6079 14.4272C23.6574 14.4272 23.707 14.4272 23.762 14.4052C23.762 14.4052 23.762 14.4052 23.7675 14.4052C23.9052 14.3501 24.7752 14.1409 25.2984 14.0583C25.3975 14.0417 25.4856 14.0307 25.5572 14.0252C25.5572 14.0252 25.5572 14.0252 25.5627 14.0252C25.6508 13.8765 25.6563 12.9129 24.8964 12.599C24.2962 12.3512 23.7731 12.3127 23.2995 12.3072C22.87 12.3072 22.4845 12.3512 22.0825 12.4393C20.5352 12.7807 19.5936 13.6728 18.7346 15.6166C18.1509 16.762 17.9416 17.8633 17.859 18.1662C17.859 18.1662 17.826 18.1662 17.7709 18.1662C17.6828 17.8413 17.4735 16.751 16.9009 15.6166C16.0363 13.6783 15.0947 12.7807 13.5474 12.4393C13.1509 12.3512 12.7544 12.3072 12.3249 12.3072C11.8513 12.3072 11.3337 12.3457 10.728 12.599C9.9681 12.9129 9.97361 13.8765 10.0617 14.0252C10.0617 14.0252 10.0617 14.0252 10.0672 14.0252C10.1333 14.0252 10.2214 14.0417 10.326 14.0583C10.8492 14.1409 11.7192 14.3501 11.8569 14.4052C11.8569 14.4052 11.8569 14.4052 11.8624 14.4052C11.9174 14.4272 11.967 14.4327 12.0165 14.4272C12.358 14.3886 12.5672 13.805 12.2203 13.6673C12.1707 13.6453 12.1212 13.6342 12.0716 13.6342C11.9339 13.6232 11.8128 13.6893 11.7412 13.8435C11.7412 13.8435 11.5265 13.805 11.5154 13.7884C11.6531 13.425 12 13.2763 12.3524 13.3149H12.3635C12.3965 13.3149 12.435 13.3259 12.4681 13.3314C12.6498 13.3644 12.8205 13.4415 12.9582 13.5957C13.0298 13.6618 13.1123 13.7994 13.1399 13.9426C13.1454 13.9646 13.1454 14.1409 13.1289 14.1959C13.1289 14.2069 13.1179 14.2179 13.1123 14.2345C13.1123 14.2345 13.1123 14.2455 13.1123 14.251C13.0518 14.4052 12.9141 14.5814 12.5397 14.6199C12.5231 14.6364 12.4956 14.664 12.4736 14.6915C12.4516 14.7135 12.4295 14.7356 12.413 14.7411C12.6333 14.8842 12.8921 15.1265 13.1013 15.3303C13.2831 15.512 13.4207 15.6662 13.4538 15.7047C13.7621 16.0957 14.0044 16.5472 14.1641 17.0318C14.2522 17.3016 14.3183 17.5825 14.3513 17.8688C14.3678 18.0285 14.3844 18.2157 14.3844 18.3809C14.3844 18.436 14.3789 18.491 14.3734 18.5406C14.3734 18.6397 14.3623 18.7333 14.3513 18.8269C14.2467 19.3115 14.0319 20.099 13.63 20.7652C13.6079 20.7928 13.5914 20.8258 13.5694 20.8534H13.5749C13.4207 21.0901 13.2445 21.3104 13.0353 21.4921C13.0463 21.5252 12.2533 22.1089 11.8183 22.3071C11.4604 22.4723 11.0804 22.5989 10.6784 22.6705C10.3866 22.7256 10.0892 22.7586 9.78088 22.7586C9.6322 22.7586 9.40092 22.7531 9.27978 22.7036C9.00996 22.665 8.80622 22.4392 8.80622 22.1639C8.80622 21.9381 8.94388 21.7454 9.13661 21.6628C9.20269 21.6353 9.27427 21.6188 9.34586 21.6188C9.42846 21.6188 9.50004 21.6353 9.57163 21.6683C9.59916 21.6793 9.62669 21.6959 9.64872 21.7124C9.7974 21.828 9.69828 22.0923 9.69828 22.0923C9.69828 22.0923 9.76987 22.1474 9.89101 22.1584C9.91304 22.1584 9.92956 22.1639 9.95709 22.1584C10.1003 22.1584 10.2379 22.1144 10.3536 22.0483C10.717 21.8555 10.9593 21.4315 10.9593 20.991C10.9593 20.8644 10.9373 20.7487 10.8987 20.6386C10.8767 20.578 10.8547 20.5119 10.8216 20.4569C10.706 20.2256 10.5022 20.0439 10.271 19.9338C10.271 19.9338 10.2599 19.9283 10.2544 19.9283C9.90753 19.7575 9.56612 19.5318 9.22472 19.3721C8.53089 19.0362 7.24786 18.1882 6.48795 17.3402C6.24016 17.0208 5.99787 16.6904 5.76659 16.349C5.75007 16.3215 5.73355 16.2939 5.71153 16.2609C5.40316 15.7818 5.13884 15.2697 4.88554 14.7466C4.847 14.6695 4.81946 14.5924 4.78092 14.5153C4.55515 14.0362 4.35141 13.5351 4.1807 13.0561V13.034C4.0981 12.8248 3.86683 12.7091 3.65207 12.7862C3.65207 12.7862 3.65207 12.7862 3.64657 12.7862C3.45934 12.8523 3.35472 13.0395 3.38225 13.2268C3.47586 13.9096 3.66309 14.5373 3.88886 15.1651C3.96044 15.3578 4.03753 15.5505 4.12564 15.7378C4.31286 16.1563 4.53312 16.5692 4.76991 16.9657C4.90757 17.197 5.04523 17.4283 5.1884 17.654C5.39215 17.9844 5.61241 18.3093 5.84369 18.6287C5.88774 18.6838 5.93179 18.7443 5.97584 18.7994C5.69501 18.5902 5.41417 18.3644 5.13884 18.1331C4.98466 18.0065 4.83598 17.8798 4.68731 17.7477C4.38995 17.4833 4.11462 17.186 3.8448 16.8831C3.72917 16.751 3.61903 16.6188 3.5034 16.4866C3.12344 16.0461 2.76552 15.5671 2.43512 15.1045L2.42411 15.088C2.29746 14.9063 2.03865 14.8622 1.85693 14.9889C1.85693 14.9889 1.85693 14.9889 1.85143 14.9889C1.69174 15.099 1.63667 15.3027 1.70826 15.4734C1.95605 16.0792 2.27543 16.6133 2.62785 17.1419C2.98578 17.6651 3.40978 18.1386 3.86132 18.6012C3.86132 18.6012 3.87234 18.6122 3.87784 18.6177C4.30735 19.0527 4.74788 19.4822 5.22695 19.8897C5.31505 19.9613 5.40316 20.0329 5.49127 20.1045C5.65096 20.2366 5.81615 20.3633 5.99236 20.4844C6.0199 20.5009 6.04743 20.523 6.07496 20.5395C5.92628 20.4789 5.77761 20.4128 5.62893 20.3468C5.55184 20.3082 5.46924 20.2752 5.39215 20.2366C4.98466 20.0384 4.58268 19.8236 4.1807 19.5924C4.0926 19.5428 3.99899 19.4932 3.91088 19.4382C3.43181 19.1628 3.0023 18.8324 2.56177 18.4965C2.12125 18.1662 1.69174 17.7917 1.29526 17.4283L1.27874 17.4173C1.15209 17.3016 0.975883 17.2851 0.827206 17.3512C0.777647 17.3732 0.733595 17.4062 0.695049 17.4503C0.568398 17.5935 0.557385 17.8027 0.656503 17.9514C1.00342 18.469 1.4054 18.904 1.83491 19.328C2.26993 19.7465 2.76552 20.11 3.26661 20.4459C3.75119 20.7818 4.25229 21.1012 4.76991 21.3985C5.02871 21.5472 5.29854 21.6904 5.57386 21.828C5.69501 21.8886 5.82166 21.9437 5.94831 21.9987L5.77761 21.9602C5.5243 21.8996 5.2655 21.8335 5.01219 21.7619C4.50008 21.6188 3.98797 21.4536 3.48137 21.2774C2.97477 21.1067 2.52323 20.8809 2.04416 20.6496C1.57059 20.4238 1.10253 20.1595 0.656503 19.9007L0.639983 19.8897C0.518839 19.8181 0.370161 19.8181 0.254524 19.8787C0.182938 19.9117 0.11686 19.9668 0.0783136 20.0439C-0.015298 20.2091 0.0177415 20.4128 0.144392 20.5395C0.568398 20.9525 1.01994 21.2829 1.49901 21.6022C1.97808 21.9106 2.51772 22.1639 3.03534 22.3842C3.55296 22.6099 4.07057 22.8247 4.5992 23.0174C4.86352 23.1166 5.13334 23.2047 5.40867 23.2928C5.54633 23.3368 5.68399 23.3754 5.82717 23.4139C5.87672 23.4249 5.92078 23.4414 5.97034 23.4525C5.64545 23.4359 5.31505 23.4139 4.98466 23.3864C4.47806 23.3423 3.96595 23.2873 3.45934 23.2157C3.20053 23.1826 2.96375 23.1386 2.72146 23.089C2.47918 23.034 2.24239 22.9789 2.0001 22.9183C1.51553 22.8082 1.02544 22.6595 0.551878 22.5163H0.535358C0.425227 22.4778 0.315096 22.4943 0.221484 22.5439C0.127873 22.5934 0.0507808 22.676 0.0177415 22.7862C-0.0373242 22.9679 0.0397678 23.1551 0.193952 23.2487C0.667516 23.5406 1.1576 23.7553 1.6642 23.9536C2.1653 24.1463 2.72697 24.2674 3.23908 24.3776C3.7567 24.4877 4.27982 24.5923 4.80294 24.6804C5.27651 24.7575 5.73355 24.8291 6.22914 24.8787C5.93179 24.9172 5.62893 24.9502 5.32607 24.9778C4.84149 25.0273 4.35691 25.0659 3.87234 25.0989C3.75119 25.1099 3.63005 25.1099 3.5089 25.1154H3.16199L2.45715 25.1099C1.98358 25.1099 1.49901 25.0714 1.03095 25.0438H1.01443C0.931831 25.0438 0.849232 25.0604 0.783154 25.0989C0.667516 25.165 0.584917 25.2861 0.579411 25.4293C0.568398 25.6165 0.684036 25.7817 0.854739 25.8368C1.35584 26.0075 1.84592 26.1121 2.35803 26.1947C2.61133 26.2333 2.87014 26.2553 3.12895 26.2663C3.26111 26.2718 3.38776 26.2773 3.51992 26.2773H3.89436C4.39546 26.2938 4.89656 26.2938 5.39765 26.2883C5.74457 26.2883 5.82166 26.2883 6.16857 26.2718L6.21262 26.426C5.63994 26.6077 5.24898 26.7234 4.67079 26.883C4.21925 27.0097 3.79524 27.0923 3.34921 27.1859C2.90869 27.285 2.45164 27.3621 2.01112 27.4557H2.0001C1.97257 27.4667 1.93953 27.4722 1.912 27.4888C1.73579 27.5603 1.63116 27.7531 1.66971 27.9458C1.70826 28.1275 1.85693 28.2542 2.03314 28.2707C2.52323 28.3147 3.0023 28.3037 3.48688 28.2707C3.97145 28.2377 4.46154 28.1275 4.91858 28.0449C5.38113 27.9568 6.06395 27.7971 6.5265 27.7035L6.56504 27.8192C6.37231 27.9293 5.95932 28.1495 5.76659 28.2542C5.57386 28.3588 5.38664 28.4579 5.19391 28.5515C5.00669 28.6451 4.81396 28.7332 4.62123 28.8324C4.62123 28.8324 4.62123 28.8324 4.61572 28.8324C4.23026 29.0306 3.83379 29.2178 3.45384 29.4271H3.44833C3.25009 29.5372 3.173 29.785 3.28313 29.9887C3.37124 30.1484 3.54745 30.231 3.71815 30.198C4.16969 30.1099 4.5992 29.9832 5.03422 29.8456C5.46373 29.7024 5.88223 29.5042 6.28972 29.3224C6.39985 29.2729 6.82936 29.0912 6.93399 29.0416L7.00557 29.383C6.93949 29.4271 6.6972 29.5978 6.6972 29.5978L6.22364 30.0053C5.90976 30.2806 5.62342 30.589 5.34809 30.9083C5.19942 31.0845 5.22144 31.3434 5.39215 31.492C5.5243 31.6022 5.70602 31.6187 5.84919 31.5416C5.84919 31.5416 5.84919 31.5416 5.8547 31.5416C6.23465 31.3434 6.59258 31.1231 6.93399 30.8808L7.29191 30.6716C7.29191 30.6716 7.49015 31.861 7.53971 32.3511C7.6994 33.8819 7.65534 35.6385 7.82054 35.8422C7.95821 36.0129 8.23353 35.9744 8.47582 35.9799C8.4593 35.9193 8.4538 35.8698 8.43728 35.8092C8.43728 35.8037 8.43728 35.7982 8.43728 35.7927C8.26107 34.9722 8.50336 34.372 8.65754 34.1242V34.1132C8.65754 34.1132 8.67406 34.0581 8.67406 34.0471C8.61899 33.0779 8.49234 31.5086 8.27208 30.2916C7.91966 28.3533 7.33596 25.2421 7.16526 24.361C7.15425 24.3115 7.17627 24.2619 7.20931 24.2289C7.24786 24.1958 7.29742 24.1793 7.35248 24.1958C7.94719 24.3445 8.92736 24.4326 9.55511 24.4767C10.0287 24.5097 11.152 24.5042 12.3139 24.1463C11.8238 25.3082 11.543 26.6352 11.543 28.0504C11.543 30.8202 12.6168 33.2707 14.2577 34.7409C14.065 34.7739 13.9218 34.8015 13.8778 34.8125C13.4538 34.9612 13.1234 35.1759 12.9416 35.2806C12.9416 35.2806 12.9361 35.2861 12.9306 35.2916C12.9196 35.2971 12.9031 35.3026 12.8921 35.3081C12.826 35.3411 12.826 35.4182 12.837 35.4898C12.8811 35.688 12.9912 35.9413 13.1013 36.09C13.1234 36.1231 13.1509 36.1561 13.1894 36.1561C14.7203 36.2332 15.8491 36.3488 16.7522 36.9215C16.7522 36.9215 16.7577 36.9215 16.7632 36.927C16.7907 36.9435 16.8128 36.9601 16.8348 36.9766C17.2588 37.3125 17.435 38.0063 17.0826 38.5019C16.9614 38.623 16.8403 38.7442 16.7136 38.8598C16.2951 39.2232 15.8381 39.5316 15.359 39.7629C14.88 39.9942 14.3789 40.1428 13.8723 40.2144C13.3601 40.308 12.8535 40.3741 12.1872 40.5338C12.1872 40.5338 12.1432 40.5503 12.1267 40.5613C12.0716 40.5999 12.0386 40.666 12.0551 40.732C12.0606 40.7596 12.0771 40.7871 12.0936 40.8036C12.5837 41.3323 13.3051 41.5415 14.0044 41.503C14.533 41.4644 15.0452 41.3102 15.5132 41.0845C15.6674 41.0074 15.8216 40.9303 15.9647 40.8367C16.5429 40.4787 17.044 40.0107 17.4185 39.46C17.424 39.449 17.435 39.438 17.4405 39.427C17.4405 39.4325 17.4405 39.438 17.4405 39.4435C17.3524 39.7409 17.0716 40.5228 16.8458 40.7816C16.6145 41.0459 16.4053 41.2992 16.163 41.4975C15.9813 41.6461 15.794 41.7728 15.5793 41.8774C15.5077 41.9104 15.4361 41.9435 15.3645 41.9765C15.0617 42.1032 14.7093 42.1858 14.2963 42.2739C14.2963 42.2739 14.2577 42.2904 14.2412 42.3014C14.1861 42.3345 14.1586 42.395 14.1696 42.4611C14.1806 42.4997 14.1971 42.5327 14.2302 42.5547C14.5991 42.8135 15.0617 42.9402 15.5407 42.9071C15.783 42.8906 16.0253 42.8356 16.2566 42.7419C16.4824 42.6483 16.6971 42.5217 16.8843 42.3675C16.9449 42.3179 17 42.2574 17.055 42.2023C17.1597 42.4115 17.2753 42.6263 17.3524 42.8356C17.457 43.0889 17.5451 43.3367 17.6828 43.59C17.7158 43.645 17.7819 43.6726 17.8094 43.667C17.8094 43.667 17.9196 43.645 17.9471 43.59C18.0848 43.3367 18.1839 43.0889 18.2885 42.8356C18.3711 42.6263 18.4812 42.4171 18.5859 42.2023C18.6409 42.2574 18.6905 42.3179 18.7566 42.3675C18.9438 42.5217 19.1586 42.6483 19.3843 42.7419C19.6156 42.8356 19.8579 42.8961 20.1002 42.9071C20.5792 42.9347 21.0418 42.8135 21.4107 42.5547C21.4383 42.5327 21.4603 42.4997 21.4713 42.4611C21.4878 42.395 21.4548 42.3345 21.3997 42.3014C21.3832 42.2904 21.3667 42.2794 21.3447 42.2739C20.9317 42.1858 20.5792 42.1032 20.2764 41.9765C20.1993 41.949 20.1277 41.916 20.0616 41.8774C19.8524 41.7728 19.6597 41.6461 19.4779 41.4975C19.2356 41.2992 19.0264 41.0459 18.7951 40.7816C18.5694 40.5228 18.283 39.7409 18.2004 39.4435C18.2004 39.438 18.2004 39.4325 18.2004 39.427C18.2059 39.438 18.2169 39.449 18.2224 39.46C18.5969 40.0107 19.098 40.4787 19.6762 40.8367C19.8193 40.9248 19.9735 41.0074 20.1277 41.0845C20.5958 41.3102 21.1079 41.4589 21.6365 41.503C22.3358 41.5415 23.0572 41.3323 23.5473 40.8036C23.5638 40.7816 23.5803 40.7596 23.5858 40.732C23.6024 40.666 23.5693 40.5999 23.5142 40.5613C23.4977 40.5503 23.4757 40.5393 23.4537 40.5338C22.7874 40.3741 22.2808 40.308 21.7687 40.2144C21.2621 40.1428 20.761 39.9942 20.2819 39.7629C19.8028 39.5316 19.3458 39.2232 18.9273 38.8598C18.8061 38.7442 18.6795 38.6285 18.5583 38.5019C18.2114 38.0063 18.3821 37.3125 18.8061 36.9766C18.8282 36.9601 18.8557 36.9435 18.8777 36.927C18.8777 36.927 18.8832 36.927 18.8887 36.9215C19.7918 36.3488 20.9207 36.2332 22.4515 36.1561C22.49 36.1561 22.5176 36.1231 22.5396 36.09C22.6497 35.9413 22.7598 35.6935 22.8039 35.4898C22.8204 35.4182 22.8149 35.3466 22.7488 35.3081C22.7378 35.3026 22.7213 35.2971 22.7103 35.2916C22.7103 35.2916 22.6993 35.2861 22.6993 35.2806C22.5121 35.1704 22.1817 34.9612 21.7577 34.8125C21.7191 34.8015 21.5814 34.7739 21.3997 34.7464C23.0407 33.2762 24.12 30.8257 24.12 28.0504C24.12 26.6352 23.8391 25.3082 23.3435 24.1518C24.4999 24.5042 25.6178 24.5042 26.0858 24.4767C26.7191 24.4326 27.6937 24.3445 28.2884 24.1958C28.3435 24.1848 28.3931 24.1958 28.4316 24.2289C28.4646 24.2619 28.4812 24.3115 28.4757 24.361C28.3105 25.2421 27.7213 28.3478 27.3688 30.2916C27.1486 31.5086 27.0164 33.0779 26.9669 34.0471C26.9669 34.0581 26.9779 34.1077 26.9834 34.1132V34.1242C27.1321 34.372 27.3799 34.9777 27.2036 35.7927C27.2036 35.7982 27.2036 35.8037 27.2036 35.8092C27.1926 35.8642 27.1816 35.9193 27.1651 35.9799C27.4129 35.9744 27.6827 36.0129 27.8204 35.8422C27.9856 35.6385 27.9415 33.8764 28.1012 32.3511C28.1508 31.861 28.349 30.6771 28.349 30.6716L28.7069 30.8808C29.0483 31.1231 29.4063 31.3434 29.7862 31.5416C29.7862 31.5416 29.7862 31.5416 29.7917 31.5416C29.9349 31.6187 30.1166 31.6022 30.2488 31.492C30.425 31.3434 30.4415 31.0845 30.2928 30.9083C30.0175 30.5835 29.7256 30.2806 29.4173 30.0053L28.9437 29.5978C28.9437 29.5978 28.7014 29.4271 28.6354 29.383L28.7069 29.0416C28.8171 29.0912 29.2411 29.2729 29.3512 29.3224C29.7587 29.4987 30.1772 29.7024 30.6067 29.8456C31.0417 29.9832 31.4712 30.1099 31.9228 30.198C32.0935 30.231 32.2752 30.1539 32.3578 29.9887C32.4679 29.7905 32.3908 29.5427 32.1926 29.4326H32.1871C31.8071 29.2233 31.4107 29.0306 31.0252 28.8324C31.0252 28.8324 31.0252 28.8324 31.0197 28.8324C30.827 28.7388 30.6397 28.6451 30.447 28.5515C30.2543 28.4579 30.0616 28.3643 29.8743 28.2542C29.6816 28.1495 29.2686 27.9293 29.0759 27.8192L29.1144 27.7035C29.577 27.7971 30.2543 27.9623 30.7223 28.0449C31.1849 28.133 31.6695 28.2377 32.154 28.2707C32.6386 28.3037 33.1177 28.3147 33.6078 28.2707C33.784 28.2542 33.9327 28.1275 33.9712 27.9458C34.0098 27.7531 33.9051 27.5603 33.7289 27.4888C33.7014 27.4777 33.6739 27.4667 33.6408 27.4612H33.6298C33.1893 27.3676 32.7322 27.2905 32.2917 27.1914C31.8457 27.0978 31.4217 27.0152 30.9701 26.8885C30.3919 26.7289 30.001 26.6077 29.4283 26.4315L29.4723 26.2773C29.8193 26.2883 29.8964 26.2883 30.2433 26.2938C30.7444 26.2993 31.2455 26.2938 31.7466 26.2883H32.121C32.2532 26.2828 32.3853 26.2773 32.512 26.2718C32.7708 26.2608 33.0296 26.2388 33.2829 26.2002C33.795 26.1176 34.2851 26.013 34.7862 25.8423C34.9569 25.7817 35.0725 25.622 35.0615 25.4348C35.056 25.2916 34.9734 25.1705 34.8578 25.1044C34.7917 25.0659 34.7091 25.0438 34.6265 25.0494H34.61C34.1419 25.0769 33.6573 25.1099 33.1838 25.1154L32.4789 25.1264H32.132C32.0054 25.1154 31.8897 25.1099 31.7686 25.1044C31.284 25.0714 30.7994 25.0328 30.3149 24.9833C30.012 24.9557 29.7091 24.9172 29.4118 24.8842C29.9074 24.8346 30.3644 24.763 30.838 24.6859C31.3611 24.5978 31.8842 24.4932 32.4018 24.3831C32.914 24.2784 33.4756 24.1518 33.9767 23.9591C34.4888 23.7608 34.9734 23.5461 35.447 23.2542C35.6012 23.1606 35.6782 22.9734 35.6232 22.7917L35.6507 22.7862ZM17.8425 35.2806C17.8425 35.2806 17.826 35.2806 17.8205 35.2806C15.9978 35.2695 14.3844 34.0471 13.4097 32.1859C13.8612 31.4205 14.8029 29.7465 14.8029 29.7465C14.891 30.0879 15.4141 32.3566 15.4141 32.3566C15.4141 32.3566 14.7533 32.6429 15.0892 32.8466C15.4251 33.0504 16.1355 32.9017 16.1355 32.9017C16.1355 32.9017 16.3172 33.0669 16.5099 33.1991C16.7412 33.3753 17.0055 33.5019 17.2863 33.579C17.3909 33.6231 17.468 33.6451 17.468 33.6451C17.468 33.6451 17.402 33.959 17.5011 34.1187C17.5396 34.1847 17.5782 34.2398 17.7048 34.2398C17.7434 34.2398 17.7764 34.2288 17.815 34.2178C17.9251 34.1792 18.0297 34.0911 18.0903 34.0251C18.2445 33.8654 18.2995 33.7552 18.4097 33.601C18.4097 33.5955 18.4097 33.5845 18.4207 33.5735C18.6905 33.5019 18.9768 33.4028 19.2522 33.0614C18.5914 32.8026 18.0297 32.1969 17.815 31.2002C17.7379 30.8368 17.6938 30.4403 17.6883 30.0218C17.6883 29.5813 17.7213 29.1242 17.8039 28.6506C17.8039 28.6341 17.8094 28.6176 17.815 28.6011C18.1233 26.9656 19.142 25.7156 19.4394 25.611C19.3458 25.4018 19.3843 24.8676 18.674 24.5758C18.5198 24.5097 18.0462 24.4822 17.9967 24.2674C18.2224 24.1132 18.3931 23.8269 18.4317 23.4855C18.4868 23.0229 18.294 22.6099 17.9802 22.4613C18.0572 22.2906 18.239 22.0593 18.239 22.0593L17.881 21.6793L17.8094 21.7179L17.424 21.9271C17.424 21.9271 17.5396 22.263 17.5396 22.4392C17.2313 22.5439 17.0055 22.7807 16.9504 23.2102C16.9229 23.4194 17.0385 23.7443 17.2808 23.9866C17.4075 24.1132 17.435 24.2234 17.3579 24.306C17.1817 24.4822 16.8183 24.4381 16.631 24.7079C16.5154 24.8787 16.3722 25.2751 16.3722 25.2751C16.2841 25.4513 15.7665 26.6903 15.5132 27.1253C15.4471 27.2355 15.1938 27.6374 15.1938 27.6374C15.1938 27.6374 15.0837 27.7145 14.957 27.8137C14.8524 27.8962 14.7423 27.9954 14.6762 28.078C14.4835 28.3258 14.5606 28.7773 14.6762 28.9645L13.1729 31.7068C13.1123 31.5801 13.0848 31.5141 13.0848 31.5141C12.6608 30.4843 12.424 29.3004 12.424 28.0449C12.424 24.2013 14.6762 21.0516 17.5066 20.8258H18.1619C18.4757 20.8534 18.7786 20.9139 19.076 21.0075C19.2301 21.0571 19.3843 21.1122 19.533 21.1782C21.6806 22.1364 23.2389 24.8511 23.2389 28.0449C23.2389 32.0372 20.816 35.2806 17.8315 35.2806H17.8425ZM17.2863 27.4447C17.2863 27.4447 16.2346 27.8412 15.7335 28.0449L16.7577 26.2663C16.7577 26.2663 16.8073 26.5141 17.2202 26.6903C17.2092 26.7564 17.2808 27.4447 17.2808 27.4447H17.2863Z" fill="black"/>
<path d="M16.2951 2.16408C16.2951 2.16408 16.3337 2.15857 16.3502 2.15307C16.4273 2.27972 16.554 2.36782 16.7136 2.36782C16.8678 2.36782 17.0055 2.28522 17.0771 2.15307H17.6498V2.52751C17.2863 2.61562 17.011 2.94601 17.011 3.33698C17.011 3.54623 17.0936 3.73896 17.2202 3.88213C17.0826 3.93169 16.9559 4.00327 16.8513 4.10239C16.5209 4.41626 16.4383 5.08806 16.7191 5.8755C16.9174 6.42065 17.2037 6.87219 17.4791 7.13651C17.6057 7.26866 17.7268 7.32924 17.8425 7.32924H17.87C17.9857 7.32924 18.1068 7.26866 18.2335 7.13651C18.5088 6.87219 18.8006 6.42065 18.9934 5.8755C19.2742 5.08806 19.1916 4.42177 18.8612 4.10239C18.7511 4.00327 18.6189 3.92618 18.4812 3.87662C18.6024 3.73345 18.685 3.54072 18.685 3.33698C18.685 2.94601 18.4152 2.61562 18.0462 2.52751V2.15307H18.6189C18.685 2.27972 18.8227 2.36782 18.9823 2.36782C19.142 2.36782 19.2797 2.27972 19.3513 2.14205C19.3678 2.14205 19.3843 2.15307 19.4008 2.15307C19.511 2.15307 19.5991 2.06496 19.5991 1.95483C19.5991 1.8447 19.511 1.75659 19.4008 1.75659C19.3898 1.75659 19.3733 1.75659 19.3568 1.7621C19.2852 1.62994 19.1475 1.53633 18.9879 1.53633C18.8337 1.53633 18.696 1.62444 18.6244 1.75109H18.0517V0.996688C18.1839 0.919596 18.2665 0.792945 18.2665 0.633255C18.2665 0.473565 18.1729 0.324887 18.0352 0.258808C18.0462 0.236782 18.0462 0.220263 18.0462 0.198236C18.0462 0.088105 17.9581 0 17.848 0C17.7379 0 17.6498 0.0936116 17.6498 0.198236C17.6498 0.220263 17.6553 0.242289 17.6663 0.258808C17.5286 0.324887 17.435 0.468058 17.435 0.633255C17.435 0.798452 17.5176 0.925103 17.6498 0.996688V1.75109H17.0771C17 1.62444 16.8678 1.53633 16.7136 1.53633C16.5484 1.53633 16.3998 1.63545 16.3392 1.77311C16.3227 1.77311 16.3117 1.77311 16.2951 1.77311C16.185 1.77311 16.0969 1.85571 16.0969 1.97135C16.0969 2.08699 16.1905 2.16959 16.2951 2.16959V2.16408Z" fill="black"/>
<path d="M21.62 28.6066C21.5319 28.524 21.4328 28.491 21.3447 28.491C21.3942 28.3863 21.4273 28.2377 21.3942 28.133C21.3832 28.1055 21.3667 28.0725 21.3447 28.0504C21.2235 27.8962 21.1244 27.8632 21.0748 27.8522C21.0418 27.8467 20.8821 27.8302 20.7995 27.9403L20.7885 27.8026C20.7224 27.8577 20.6618 28.0339 20.6453 28.078C20.6123 28.1826 20.5407 28.4414 20.5407 28.4414C20.7389 28.1275 20.8491 28.089 21.0198 28.0449C20.8711 28.1496 20.75 28.3863 20.6839 28.6011L21.0803 28.3368L20.9922 28.2762C21.0418 28.1991 21.0914 28.1661 21.174 28.2156C21.2015 28.2321 21.2235 28.2652 21.229 28.3092C21.229 28.3423 21.229 28.4304 21.1519 28.535L20.4361 29.1517C20.381 29.1958 20.3645 29.2398 20.37 29.3885C20.37 29.4381 20.4196 29.4932 20.5132 29.405L21.2786 28.7222C21.3171 28.6892 21.3722 28.7222 21.3887 28.7443C21.4328 28.8103 21.4107 28.9425 21.2951 29.1132L21.229 28.9645C21.1629 29.0526 21.0418 29.2729 20.9427 29.383C20.9427 29.383 21.1409 29.3995 21.3006 29.2784C21.3447 29.2454 21.3777 29.2123 21.4107 29.1793C21.2841 29.5042 20.9922 29.7354 20.9922 29.7354C20.9922 29.7354 21.1905 29.7134 21.2951 29.6583C21.4052 29.6033 21.5099 29.5317 21.598 29.4326L21.4548 29.383C21.5264 29.2839 21.642 29.1628 21.6916 28.959C21.7301 28.7993 21.7081 28.6837 21.631 28.6066H21.62Z" fill="black"/>
<path d="M19.99 28.6451L20.0837 28.1661L19.957 28.2652C19.957 28.2652 19.8634 28.133 19.8304 28.1C19.7037 27.9623 19.5826 27.9018 19.4559 27.9238C19.3127 27.9513 19.2797 28.0504 19.109 28.0009C19.1145 28.133 18.9823 28.1826 18.9108 28.2927C18.8392 28.3973 18.8392 28.535 18.9108 28.7057C18.9273 28.7498 19.0154 28.8929 19.0154 28.8929L18.8502 28.9425L19.3678 29.0912C19.3678 29.0361 19.3072 28.6892 19.3072 28.6892L19.1861 28.7773C19.1365 28.7167 19.12 28.6782 19.087 28.6231C19.0374 28.5405 19.0099 28.4744 19.0319 28.4194C19.0539 28.3698 19.1365 28.3643 19.1806 28.3588L19.7588 29.2674C19.7863 29.3225 19.8414 29.3225 19.8579 29.2894C19.913 29.1793 19.913 29.0581 19.8909 29.0306L19.3788 28.2432C19.4008 28.2046 19.4559 28.1551 19.5 28.1496C19.5715 28.1385 19.6046 28.1551 19.6762 28.2156C19.7257 28.2542 19.7698 28.3258 19.7918 28.3533L19.6541 28.4084C19.7533 28.4799 19.9295 28.5956 19.9845 28.6451H19.99Z" fill="black"/>
<path d="M20.0892 27.0097C20.1663 27.1198 20.3039 27.263 20.3645 27.3236C20.3645 27.3236 20.2764 27.4337 20.2599 27.4557C20.2048 27.5493 20.4416 27.5824 20.4581 27.5879C20.4856 27.5879 20.7114 27.6374 20.6894 27.5328C20.6894 27.5053 20.6233 27.3786 20.6233 27.3786C20.7004 27.3456 20.8931 27.252 21.0033 27.1749C21.0198 27.1639 21.0528 27.1363 21.0638 27.1253C21.2786 26.861 21.207 26.6903 21.207 26.6903L20.805 26.9381C20.7665 26.9601 20.75 26.9381 20.75 26.9381C20.783 26.9161 20.8326 26.7949 20.8436 26.7674C20.8601 26.7178 20.8436 26.6848 20.783 26.6738C20.7279 26.6628 20.7059 26.6793 20.7059 26.6793C20.7169 26.6573 20.7169 26.6573 20.7224 26.6518C20.7224 26.6518 20.7224 26.6463 20.7279 26.6408C20.7279 26.6352 20.7279 26.6297 20.7334 26.6187C20.7334 26.6187 20.7334 26.6187 20.7334 26.6132C20.7334 26.5582 20.6894 26.5086 20.6288 26.5086C20.5848 26.5086 20.5462 26.5361 20.5352 26.5802C20.5352 26.5802 20.5352 26.5802 20.5352 26.5857C20.5352 26.6077 20.5297 26.5912 20.5352 26.6518C20.5352 26.6518 20.5187 26.6297 20.4636 26.6187C20.403 26.6077 20.3865 26.6352 20.3865 26.6848C20.3865 26.7178 20.3755 26.817 20.403 26.883C20.403 26.883 20.3755 26.8996 20.348 26.861L20.0561 26.4866C20.0561 26.4866 19.9295 26.6187 20.0396 26.9436C20.0451 26.9601 20.0671 26.9987 20.0782 27.0152L20.0892 27.0097Z" fill="black"/>
<path d="M19.6707 30.1154C19.7147 30.0713 19.7423 30.0163 19.7533 29.9557L19.7753 29.8401C19.7863 29.774 19.7147 29.7409 19.6652 29.785L18.9934 30.4238L18.9768 30.4403C18.9768 30.4403 18.9438 30.4293 18.9273 30.4293C18.8997 30.4293 18.8667 30.4293 18.8392 30.4348C18.8061 30.4458 18.7786 30.4623 18.7511 30.4843C18.652 30.5779 18.6299 30.7431 18.707 30.8588C18.7456 30.9138 18.8006 30.9524 18.8612 30.9579C18.9108 30.9634 18.9603 30.9524 18.9989 30.9249C19.0099 30.9194 19.0209 30.9083 19.0319 30.9028C19.0925 30.8478 19.142 30.7376 19.1145 30.6495L19.6597 30.1209L19.6707 30.1154ZM18.8887 30.8092C18.8282 30.8092 18.7841 30.7597 18.7841 30.7046C18.7841 30.6495 18.8337 30.6 18.8887 30.6C18.9438 30.6 18.9934 30.6495 18.9934 30.7046C18.9934 30.7597 18.9438 30.8092 18.8887 30.8092Z" fill="black"/>
<path d="M20.9317 30.666C20.9317 30.666 20.8821 30.666 20.8601 30.6716L20.3645 29.8896C20.3315 29.8346 20.2654 29.8456 20.2544 29.9061L20.2378 29.9722C20.2213 30.0548 20.2103 30.0548 20.2929 30.209L20.6949 30.8202C20.6563 30.9138 20.6618 31.024 20.7169 31.1066C20.7555 31.1616 20.8105 31.2002 20.8766 31.2057C20.9427 31.2112 21.0033 31.1892 21.0528 31.1451C21.1519 31.0515 21.174 30.8808 21.0969 30.7652C21.0583 30.7101 21.0033 30.6716 20.9372 30.666H20.9317ZM20.8986 31.035C20.8381 31.035 20.794 30.9854 20.794 30.9304C20.794 30.8753 20.8436 30.8257 20.8986 30.8257C20.9537 30.8257 21.0033 30.8753 21.0033 30.9304C21.0033 30.9854 20.9537 31.035 20.8986 31.035Z" fill="black"/>
<path d="M19.8359 31.4865C19.9845 30.6991 20.3645 28.6451 20.37 28.6286C20.3975 28.4634 20.4911 28.0174 20.5132 27.7641C20.5297 27.6705 20.3755 27.6099 20.3425 27.7421C20.2984 27.9238 20.1883 28.3973 20.1497 28.5791C20.1497 28.5791 19.7367 30.6495 19.5771 31.4425C19.566 31.492 19.544 31.5306 19.5165 31.5691C19.5 31.5967 19.4834 31.6297 19.4779 31.6627C19.4614 31.7784 19.5275 31.883 19.6321 31.8995C19.7367 31.916 19.8304 31.8389 19.8524 31.7233C19.8524 31.6958 19.8524 31.6682 19.8524 31.6462C19.8414 31.5912 19.8359 31.5361 19.8469 31.481L19.8359 31.4865Z" fill="black"/>
<path d="M20.9081 30.3496L20.3617 30.7591C20.3447 30.7718 20.3412 30.796 20.354 30.813L20.4068 30.8835C20.4196 30.9006 20.4438 30.904 20.4608 30.8913L21.0072 30.4818C21.0242 30.469 21.0277 30.4448 21.0149 30.4278L20.9621 30.3573C20.9493 30.3403 20.9252 30.3368 20.9081 30.3496Z" fill="black"/>
</svg>
