<svg width="150" height="27" viewBox="0 0 150 27" fill="none" xmlns="http://www.w3.org/2000/svg">
<path d="M81.5515 13.6364V17.7897C81.5515 17.944 81.4269 18.0774 81.2662 18.0774H78.0266C75.4099 18.0347 74.3595 16.8131 74.3194 14.1575C74.3595 11.5842 75.2966 10.3002 78.042 10.2616V10.2675H84.8705V7.42426H78.042C73.1773 7.44927 71.1734 9.54312 71.0766 13.9935L71.0725 14.3426L71.0766 14.3485C71.1806 18.6675 73.1804 20.7884 77.9051 20.8593V20.8626H82.9046C84.059 20.8626 84.8869 19.8871 84.8869 18.8584V13.6358L81.5515 13.6364ZM108.321 20.8558V15.3225H116.63V12.5773H108.321V8.43127C108.321 8.27285 108.447 8.14153 108.607 8.14153H116.822V5.29935H106.969C105.815 5.29935 104.985 6.2728 104.985 7.30357V20.8558H108.321ZM60.6675 18.0282C60.5048 18.0282 60.3812 17.8958 60.3812 17.7395V15.3382H68.6874V12.595H60.3812V10.5491C60.3812 10.3928 60.5048 10.2593 60.6675 10.2593H68.8841V7.41613H59.0291C57.8737 7.41613 57.0437 8.39375 57.0437 9.42243V18.8651C57.0437 19.8969 57.8737 20.8724 59.0291 20.8724H68.8841V18.0282H60.6675ZM51.6049 4.98001C50.0448 4.98001 49.049 5.82213 48.3106 7.51577L43.967 17.6421L39.6203 7.51577C38.881 5.82213 37.8852 4.98001 36.324 4.98001C34.8638 4.98001 33.3552 6.03788 33.3552 8.33601V20.8731H36.6844V8.6789L41.0569 18.7198C41.6449 20.1226 42.5892 21.0033 43.9639 21.0054H43.9672C45.341 21.0029 46.2873 20.1226 46.8743 18.7198L51.2457 8.6789V20.8731H54.575V8.33601C54.575 6.03788 53.0641 4.98001 51.6049 4.98001ZM92.4732 15.3384L94.5235 10.4534C94.5883 10.3002 94.7057 10.2596 94.7943 10.2596H94.796C94.8845 10.2596 95.004 10.3002 95.0668 10.4534L97.1202 15.3384H92.4732ZM97.5346 8.9182C96.9754 7.69253 95.8643 7.09533 94.7964 7.09533H94.7947C93.7258 7.09533 92.6147 7.69253 92.0596 8.9182L86.6111 20.8726H90.1556L91.3429 18.0315H98.2496L99.438 20.8726H102.982L97.5346 8.9182ZM146.667 7.41644V16.4099L140.942 8.50453C140.459 7.88961 139.922 7.41644 138.817 7.41644C137.802 7.41644 136.549 8.22834 136.549 9.76981V20.8811H139.883V11.8897L145.582 19.8211C146.079 20.5048 146.591 20.8811 147.732 20.8811C148.748 20.8811 150 20.1442 150 18.5267V7.41644H146.667ZM126.688 18.218C123.283 18.218 122.304 16.9527 122.304 14.1355V14.1209C122.304 11.3871 123.238 10.0437 126.688 10.0437C130.141 10.0437 131.073 11.3871 131.073 14.1209V14.1355C131.073 16.9527 130.092 18.218 126.688 18.218ZM134.319 14.1209C134.318 9.41003 132.46 7.21299 126.688 7.21299C120.919 7.21299 119.06 9.41003 119.057 14.1209V14.1304C119.057 18.7683 120.967 21.0049 126.688 21.0049C132.41 21.0049 134.319 18.7683 134.319 14.1304V14.1209Z" fill="#00B956"/>
<path d="M10.7807 11.1311C9.86011 11.1311 9.11249 10.3755 9.11249 9.44474C9.11249 8.51194 9.86011 7.75632 10.7807 7.75632C11.7013 7.75632 12.4469 8.51194 12.4469 9.44474C12.4469 10.3755 11.7013 11.1311 10.7807 11.1311ZM13.3377 0C5.96961 0 0 6.04288 0 13.499C0 19.9692 4.49909 25.3763 10.5017 26.6927V14.5788L10.5025 14.578C10.5159 13.9933 10.9762 13.5222 11.5487 13.5003L12.1038 13.4994H13.2334C13.3117 13.4994 13.3756 13.4369 13.3797 13.3587L13.3805 0.00241799M22.5288 20.8631C21.6092 20.8631 20.8616 20.1074 20.8616 19.1746C20.8616 18.245 21.6092 17.4894 22.5288 17.4894C23.4484 17.4894 24.196 18.245 24.196 19.1746C24.196 20.1074 23.4484 20.8631 22.5288 20.8631ZM18.6208 20.8631C17.7012 20.8631 16.9546 20.1074 16.9546 19.1746C16.9546 18.245 17.7012 17.4894 18.6208 17.4894C19.5414 17.4894 20.288 18.245 20.288 19.1746C20.288 20.1074 19.5414 20.8631 18.6208 20.8631ZM14.7108 20.8631C13.7912 20.8631 13.0425 20.1074 13.0425 19.1746C13.0425 18.245 13.7912 17.4894 14.7108 17.4894C15.6324 17.4894 16.379 18.245 16.379 19.1746C16.379 20.1074 15.6324 20.8631 14.7108 20.8631ZM14.9837 0.101739V14.0292L14.9804 14.0325C14.9754 14.6349 14.4902 15.1216 13.8929 15.1216H12.2515C12.1691 15.1216 12.1032 15.1883 12.1032 15.2707V26.9416C12.5099 26.9792 12.9198 27 13.3368 27C20.7039 27 26.6745 20.955 26.6745 13.4989C26.6745 6.60866 21.5732 0.92302 14.9837 0.101739Z" fill="#00B956"/>
</svg>
