<svg width="96" height="96" viewBox="0 0 96 96" fill="none" xmlns="http://www.w3.org/2000/svg">
<g filter="url(#filter0_bi_1080_8856)">
<path d="M32.3166 41.0845C32.1821 40.8397 31.9858 40.6345 31.7472 40.4893L18.8432 32.6034C18.5901 32.4489 18.2994 32.3672 18.0029 32.3672C17.7064 32.3672 17.4156 32.4489 17.1625 32.6034L4.25854 40.4893C4.01996 40.6345 3.82363 40.8397 3.68915 41.0845L18.0029 49.8334L32.3166 41.0845Z" fill="url(#paint0_linear_1080_8856)"/>
<path d="M3.68915 41.0845C3.55611 41.3238 3.48463 41.5944 3.48438 41.8681V56.1883C3.48453 56.4646 3.55566 56.7362 3.69095 56.9772C3.82624 57.2181 4.02115 57.4202 4.257 57.5642L17.161 65.4501C17.414 65.6049 17.7047 65.6869 18.0013 65.6872L18.0029 49.8334L3.68915 41.0845Z" fill="url(#paint1_linear_1080_8856)"/>
<path d="M32.3166 41.0845C32.4496 41.3238 32.518 41.5944 32.5183 41.8681V56.1883C32.5181 56.4646 32.447 56.7362 32.3117 56.9772C32.1764 57.2181 31.9815 57.4202 31.7457 57.5642L18.8417 65.4501C18.5887 65.6049 18.2979 65.6869 18.0013 65.6872L18.0029 49.8334L32.3166 41.0845Z" fill="url(#paint2_linear_1080_8856)"/>
</g>
<g filter="url(#filter1_bi_1080_8856)">
<path d="M32.3166 41.0845C32.1821 40.8397 31.9858 40.6345 31.7472 40.4893L18.8432 32.6034C18.5901 32.4489 18.2994 32.3672 18.0029 32.3672C17.7064 32.3672 17.4156 32.4489 17.1625 32.6034L4.25854 40.4893C4.01996 40.6345 3.82363 40.8397 3.68915 41.0845L18.0029 49.8334L32.3166 41.0845Z" fill="url(#paint3_linear_1080_8856)"/>
<path d="M3.68915 41.0845C3.55611 41.3238 3.48463 41.5944 3.48438 41.8681V56.1883C3.48453 56.4646 3.55566 56.7362 3.69095 56.9772C3.82624 57.2181 4.02115 57.4202 4.257 57.5642L17.161 65.4501C17.414 65.6049 17.7047 65.6869 18.0013 65.6872L18.0029 49.8334L3.68915 41.0845Z" fill="url(#paint4_linear_1080_8856)"/>
<path d="M32.3166 41.0845C32.4496 41.3238 32.518 41.5944 32.5183 41.8681V56.1883C32.5181 56.4646 32.447 56.7362 32.3117 56.9772C32.1764 57.2181 31.9815 57.4202 31.7457 57.5642L18.8417 65.4501C18.5887 65.6049 18.2979 65.6869 18.0013 65.6872L18.0029 49.8334L32.3166 41.0845Z" fill="url(#paint5_linear_1080_8856)"/>
</g>
<g filter="url(#filter2_bi_1080_8856)">
<path d="M62.3166 21.8462C62.1821 21.6015 61.9858 21.3962 61.7472 21.251L48.8432 13.3651C48.5901 13.2106 48.2994 13.1289 48.0029 13.1289C47.7064 13.1289 47.4156 13.2106 47.1625 13.3651L34.2585 21.251C34.02 21.3962 33.8236 21.6015 33.6891 21.8462L48.0029 30.5951L62.3166 21.8462Z" fill="url(#paint6_linear_1080_8856)"/>
<path d="M33.6891 21.8462C33.5561 22.0855 33.4846 22.3561 33.4844 22.6299V36.95C33.4845 37.2263 33.5557 37.4979 33.691 37.7389C33.8262 37.9798 34.0212 38.1819 34.257 38.3259L47.161 46.2118C47.414 46.3666 47.7047 46.4486 48.0013 46.4489L48.0029 30.5951L33.6891 21.8462Z" fill="url(#paint7_linear_1080_8856)"/>
<path d="M62.3166 21.8462C62.4496 22.0855 62.518 22.3561 62.5183 22.6299V36.95C62.5181 37.2263 62.447 37.4979 62.3117 37.7389C62.1764 37.9798 61.9815 38.1819 61.7457 38.3259L48.8417 46.2118C48.5887 46.3666 48.2979 46.4486 48.0013 46.4489L48.0029 30.5951L62.3166 21.8462Z" fill="url(#paint8_linear_1080_8856)"/>
</g>
<g filter="url(#filter3_bi_1080_8856)">
<path d="M92.3166 41.0835C92.1821 40.8388 91.9858 40.6335 91.7472 40.4883L78.8432 32.6024C78.5901 32.4479 78.2994 32.3662 78.0029 32.3662C77.7064 32.3662 77.4156 32.4479 77.1625 32.6024L64.2585 40.4883C64.02 40.6335 63.8236 40.8388 63.6891 41.0835L78.0029 49.8324L92.3166 41.0835Z" fill="url(#paint9_linear_1080_8856)"/>
<path d="M63.6891 41.0835C63.5561 41.3228 63.4846 41.5934 63.4844 41.8672V56.1873C63.4845 56.4636 63.5557 56.7353 63.691 56.9762C63.8262 57.2171 64.0212 57.4192 64.257 57.5632L77.161 65.4491C77.414 65.6039 77.7047 65.6859 78.0013 65.6862L78.0029 49.8324L63.6891 41.0835Z" fill="url(#paint10_linear_1080_8856)"/>
<path d="M92.3166 41.0835C92.4496 41.3228 92.518 41.5934 92.5183 41.8672V56.1873C92.5181 56.4636 92.447 56.7353 92.3117 56.9762C92.1764 57.2171 91.9815 57.4192 91.7457 57.5632L78.8417 65.4491C78.5887 65.6039 78.2979 65.6859 78.0013 65.6862L78.0029 49.8324L92.3166 41.0835Z" fill="url(#paint11_linear_1080_8856)"/>
</g>
<g filter="url(#filter4_bi_1080_8856)">
<path d="M62.3166 63.148C62.1821 62.9032 61.9858 62.698 61.7472 62.5528L48.8432 54.6669C48.5901 54.5124 48.2994 54.4307 48.0029 54.4307C47.7064 54.4307 47.4156 54.5124 47.1625 54.6669L34.2585 62.5528C34.02 62.698 33.8236 62.9032 33.6891 63.148L48.0029 71.8968L62.3166 63.148Z" fill="url(#paint12_linear_1080_8856)"/>
<path d="M33.6891 63.148C33.5561 63.3873 33.4846 63.6578 33.4844 63.9316V78.2518C33.4845 78.5281 33.5557 78.7997 33.691 79.0406C33.8262 79.2816 34.0212 79.4837 34.257 79.6276L47.161 87.5136C47.414 87.6684 47.7047 87.7504 48.0013 87.7507L48.0029 71.8968L33.6891 63.148Z" fill="url(#paint13_linear_1080_8856)"/>
<path d="M62.3166 63.148C62.4496 63.3873 62.518 63.6578 62.5183 63.9316V78.2518C62.5181 78.5281 62.447 78.7997 62.3117 79.0406C62.1764 79.2816 61.9815 79.4837 61.7457 79.6276L48.8417 87.5136C48.5887 87.6684 48.2979 87.7504 48.0013 87.7507L48.0029 71.8968L62.3166 63.148Z" fill="url(#paint14_linear_1080_8856)"/>
</g>
<g filter="url(#filter5_bi_1080_8856)">
<path d="M65.746 20.8108C65.5793 20.5073 65.3358 20.2529 65.04 20.0728L49.04 10.2948C48.7262 10.1033 48.3657 10.002 47.998 10.002C47.6303 10.002 47.2698 10.1033 46.956 10.2948L30.956 20.0728C30.6602 20.2529 30.4167 20.5073 30.25 20.8108L47.998 31.6568L65.746 20.8108Z" fill="url(#paint15_linear_1080_8856)" fill-opacity="0.2"/>
<path d="M64.7793 20.4995L64.7801 20.5C64.863 20.5504 64.9404 20.6087 65.0113 20.6738L47.998 31.0709L30.9847 20.6738C31.0556 20.6087 31.133 20.5504 31.2159 20.5L31.2167 20.4995L47.2165 10.7216C47.4519 10.578 47.7223 10.502 47.998 10.502C48.2737 10.502 48.5441 10.578 48.7795 10.7216L64.7793 20.4995Z" stroke="url(#paint16_linear_1080_8856)" stroke-opacity="0.1"/>
</g>
<g filter="url(#filter6_bi_1080_8856)">
<path d="M30.252 20.8105C30.0874 21.1067 30.0007 21.4397 30 21.7785V39.5345C30.0002 39.8772 30.0884 40.214 30.2561 40.5127C30.4239 40.8114 30.6656 41.0621 30.958 41.2405L46.958 51.0185C47.2717 51.2105 47.6322 51.3122 48 51.3125V31.6565L30.252 20.8105Z" fill="url(#paint17_linear_1080_8856)" fill-opacity="0.2"/>
<path d="M31.2185 40.8138L31.2187 40.8139L47.2187 50.5919L47.219 50.592C47.3081 50.6466 47.4023 50.6915 47.5 50.7261V31.937L30.5168 21.5584C30.5058 21.6312 30.5002 21.7049 30.5 21.7791L30.5 39.5343L31.2185 40.8138ZM31.2185 40.8138C30.9992 40.6799 30.8179 40.4919 30.6921 40.2679C30.5663 40.0439 30.5002 39.7914 30.5 39.5345L31.2185 40.8138Z" stroke="url(#paint18_linear_1080_8856)" stroke-opacity="0.1"/>
</g>
<g filter="url(#filter7_bi_1080_8856)">
<path d="M65.748 20.8105C65.9126 21.1067 65.9993 21.4397 66 21.7785V39.5345C65.9998 39.8772 65.9116 40.214 65.7439 40.5127C65.5761 40.8114 65.3344 41.0621 65.042 41.2405L49.042 51.0185C48.7283 51.2105 48.3678 51.3122 48 51.3125V31.6565L65.748 20.8105Z" fill="url(#paint19_linear_1080_8856)" fill-opacity="0.2"/>
<path d="M64.7815 40.8138L64.7813 40.8139L48.7813 50.5919L48.781 50.592C48.6919 50.6466 48.5976 50.6915 48.5 50.7261V31.937L65.4832 21.5584C65.4942 21.6313 65.4999 21.7052 65.5 21.7795V39.5343C65.4999 39.7912 65.4337 40.0438 65.3079 40.2679C65.1821 40.4919 65.0008 40.6799 64.7815 40.8138Z" stroke="url(#paint20_linear_1080_8856)" stroke-opacity="0.1"/>
</g>
<g filter="url(#filter8_bi_1080_8856)">
<path d="M95.746 39.178C95.5793 38.8745 95.3358 38.6201 95.04 38.44L79.04 28.662C78.7262 28.4705 78.3657 28.3691 77.998 28.3691C77.6303 28.3691 77.2698 28.4705 76.956 28.662L60.956 38.44C60.6602 38.6201 60.4167 38.8745 60.25 39.178L77.998 50.026L95.746 39.178Z" fill="url(#paint21_linear_1080_8856)" fill-opacity="0.2"/>
<path d="M76.956 28.662L60.956 38.44M76.956 28.662L77.2165 29.0888M76.956 28.662C77.2698 28.4705 77.6304 28.3691 77.998 28.3691C78.3657 28.3691 78.7262 28.4705 79.04 28.662M76.956 28.662L77.2167 29.0887L77.2165 29.0888M60.956 38.44C60.8042 38.5324 60.6662 38.6444 60.5453 38.7725L60.9846 39.041M60.956 38.44L60.956 38.44L60.956 38.44ZM77.2165 29.0888L61.2167 38.8667L61.2159 38.8671C61.133 38.9176 61.0556 38.9759 60.9846 39.041M77.2165 29.0888C77.4519 28.9451 77.7223 28.8691 77.998 28.8691C78.2737 28.8691 78.5441 28.9451 78.7795 29.0888M60.9846 39.041L77.998 49.44M60.9846 39.041C60.8664 39.1496 60.7661 39.277 60.6882 39.4188L60.25 39.178M60.25 39.178C60.2795 39.1244 60.3113 39.0723 60.3455 39.0218L60.25 39.178ZM60.25 39.178L77.998 50.026M77.998 50.026L95.746 39.178M77.998 50.026L78.2588 49.5994L77.998 49.44M77.998 50.026L77.7372 49.5994L77.998 49.44M95.746 39.178C95.7165 39.1244 95.6847 39.0723 95.6505 39.0218L95.746 39.178ZM95.746 39.178L95.3078 39.4188C95.2299 39.277 95.1296 39.1496 95.0114 39.041M95.0114 39.041L95.4507 38.7725C95.3298 38.6444 95.1918 38.5324 95.04 38.44L79.04 28.662M95.0114 39.041C94.9404 38.9759 94.863 38.9176 94.7801 38.8671L94.7793 38.8667L78.7795 29.0888M95.0114 39.041L77.998 49.44M79.04 28.662L78.7793 29.0887L78.7795 29.0888M79.04 28.662L78.7795 29.0888" stroke="url(#paint22_linear_1080_8856)" stroke-opacity="0.1"/>
</g>
<g filter="url(#filter9_bi_1080_8856)">
<path d="M60.252 39.1797C60.087 39.4764 60.0003 39.8102 60 40.1497V57.9057C60.0002 58.2483 60.0884 58.5851 60.2561 58.8838C60.4239 59.1826 60.6656 59.4332 60.958 59.6117L76.958 69.3897C77.2717 69.5816 77.6322 69.6834 78 69.6837V50.0277L60.252 39.1797Z" fill="url(#paint23_linear_1080_8856)" fill-opacity="0.2"/>
<path d="M61.2185 59.1849L61.2187 59.185L77.2187 68.963L77.219 68.9632C77.3081 69.0177 77.4023 69.0626 77.5 69.0973V50.3081L60.5168 39.9276C60.5057 40.0009 60.5001 40.0752 60.5 40.1499L60.5 57.9054L61.2185 59.1849ZM61.2185 59.1849C60.9992 59.051 60.8179 58.8631 60.6921 58.639C60.5663 58.4151 60.5002 58.1625 60.5 57.9057L61.2185 59.1849Z" stroke="url(#paint24_linear_1080_8856)" stroke-opacity="0.1"/>
</g>
<g filter="url(#filter10_bi_1080_8856)">
<path d="M95.748 39.1797C95.913 39.4764 95.9997 39.8102 96 40.1497V57.9057C95.9998 58.2483 95.9116 58.5851 95.7439 58.8838C95.5761 59.1826 95.3344 59.4332 95.042 59.6117L79.042 69.3897C78.7283 69.5816 78.3678 69.6834 78 69.6837V50.0277L95.748 39.1797Z" fill="url(#paint25_linear_1080_8856)" fill-opacity="0.2"/>
<path d="M94.7815 59.1849L94.7813 59.185L78.7813 68.963L78.781 68.9632C78.6919 69.0177 78.5976 69.0626 78.5 69.0973V50.3081L95.4832 39.9276C95.4943 40.001 95.4999 40.0754 95.5 40.1501V57.9054C95.4999 58.1624 95.4337 58.415 95.3079 58.639C95.1821 58.8631 95.0008 59.051 94.7815 59.1849Z" stroke="url(#paint26_linear_1080_8856)" stroke-opacity="0.1"/>
</g>
<g filter="url(#filter11_bi_1080_8856)">
<path d="M35.746 39.178C35.5793 38.8745 35.3358 38.6201 35.04 38.44L19.04 28.662C18.7262 28.4705 18.3657 28.3691 17.998 28.3691C17.6303 28.3691 17.2698 28.4705 16.956 28.662L0.956 38.44C0.660179 38.6201 0.416747 38.8745 0.25 39.178L17.998 50.026L35.746 39.178Z" fill="url(#paint27_linear_1080_8856)" fill-opacity="0.2"/>
<path d="M16.956 28.662L0.956 38.44C0.80421 38.5324 0.666214 38.6444 0.545293 38.7725L0.984618 39.041M16.956 28.662L17.2165 29.0888M16.956 28.662C17.2698 28.4705 17.6303 28.3691 17.998 28.3691C18.3657 28.3691 18.7262 28.4705 19.04 28.662M16.956 28.662L17.2167 29.0887L17.2165 29.0888M17.2165 29.0888L1.21673 38.8667L1.21594 38.8671C1.133 38.9176 1.05558 38.9759 0.984618 39.041M17.2165 29.0888C17.4519 28.9451 17.7223 28.8691 17.998 28.8691C18.2737 28.8691 18.5441 28.9451 18.7795 29.0888M0.984618 39.041L17.998 49.44M0.984618 39.041C0.866388 39.1496 0.76611 39.277 0.688218 39.4188L0.25 39.178M0.25 39.178C0.279476 39.1244 0.311349 39.0723 0.345483 39.0218L0.25 39.178ZM0.25 39.178L17.998 50.026M17.998 50.026L35.746 39.178M17.998 50.026L18.2588 49.5994L17.998 49.44M17.998 50.026L17.7372 49.5994L17.998 49.44M35.746 39.178C35.7165 39.1244 35.6847 39.0723 35.6505 39.0218L35.746 39.178ZM35.746 39.178L35.3078 39.4188C35.2299 39.277 35.1296 39.1496 35.0114 39.041M35.0114 39.041L35.4507 38.7725C35.3298 38.6444 35.1918 38.5324 35.04 38.44L19.04 28.662M35.0114 39.041C34.9404 38.9759 34.863 38.9176 34.7801 38.8671L34.7793 38.8667L18.7795 29.0888M35.0114 39.041L17.998 49.44M19.04 28.662L18.7793 29.0887L18.7795 29.0888M19.04 28.662L18.7795 29.0888" stroke="url(#paint28_linear_1080_8856)" stroke-opacity="0.1"/>
</g>
<g filter="url(#filter12_bi_1080_8856)">
<path d="M0.252 39.1797C0.0870373 39.4764 0.000314594 39.8102 0 40.1497L0 57.9057C0.000190753 58.2483 0.0883891 58.5851 0.256139 58.8838C0.423889 59.1826 0.665566 59.4332 0.958 59.6117L16.958 69.3897C17.2717 69.5816 17.6322 69.6834 18 69.6837V50.0277L0.252 39.1797Z" fill="url(#paint29_linear_1080_8856)" fill-opacity="0.2"/>
<path d="M1.2185 59.1849L1.21873 59.185L17.2187 68.963L17.219 68.9632C17.3081 69.0177 17.4023 69.0626 17.5 69.0973V50.3081L0.516816 39.9276C0.505737 40.0009 0.50008 40.0752 0.5 40.1499L0.5 57.9054L1.2185 59.1849ZM1.2185 59.1849C0.999174 59.051 0.817917 58.8631 0.692104 58.639C0.566338 58.4151 0.500191 58.1625 0.5 57.9057L1.2185 59.1849Z" stroke="url(#paint30_linear_1080_8856)" stroke-opacity="0.1"/>
</g>
<g filter="url(#filter13_bi_1080_8856)">
<path d="M35.748 39.1797C35.913 39.4764 35.9997 39.8102 36 40.1497V57.9057C35.9998 58.2483 35.9116 58.5851 35.7439 58.8838C35.5761 59.1826 35.3344 59.4332 35.042 59.6117L19.042 69.3897C18.7283 69.5816 18.3678 69.6834 18 69.6837V50.0277L35.748 39.1797Z" fill="url(#paint31_linear_1080_8856)" fill-opacity="0.2"/>
<path d="M34.7815 59.1849L34.7813 59.185L18.7813 68.963L18.781 68.9632C18.6919 69.0177 18.5976 69.0626 18.5 69.0973V50.3081L35.4832 39.9276C35.4943 40.001 35.4999 40.0754 35.5 40.1501V57.9054C35.4999 58.1624 35.4337 58.415 35.3079 58.639C35.1821 58.8631 35.0008 59.051 34.7815 59.1849Z" stroke="url(#paint32_linear_1080_8856)" stroke-opacity="0.1"/>
</g>
<g filter="url(#filter14_bi_1080_8856)">
<path d="M65.746 59.1546C65.5793 58.8511 65.3358 58.5966 65.04 58.4166L49.04 48.6386C48.7262 48.447 48.3657 48.3457 47.998 48.3457C47.6303 48.3457 47.2698 48.447 46.956 48.6386L30.956 58.4166C30.6602 58.5966 30.4167 58.8511 30.25 59.1546L47.998 70.0006L65.746 59.1546Z" fill="url(#paint33_linear_1080_8856)" fill-opacity="0.2"/>
<path d="M64.7793 58.8432L64.7801 58.8437C64.863 58.8942 64.9404 58.9525 65.0113 59.0176L47.998 69.4146L30.9847 59.0176C31.0556 58.9525 31.133 58.8942 31.2159 58.8437L31.2167 58.8432L47.2165 49.0654C47.4519 48.9217 47.7223 48.8457 47.998 48.8457C48.2737 48.8457 48.5441 48.9217 48.7795 49.0654L64.7793 58.8432Z" stroke="url(#paint34_linear_1080_8856)" stroke-opacity="0.1"/>
</g>
<g filter="url(#filter15_bi_1080_8856)">
<path d="M30.252 59.1543C30.0874 59.4504 30.0007 59.7835 30 60.1223V77.8783C30.0002 78.2209 30.0884 78.5577 30.2561 78.8564C30.4239 79.1552 30.6656 79.4058 30.958 79.5843L46.958 89.3623C47.2717 89.5542 47.6322 89.656 48 89.6563V70.0003L30.252 59.1543Z" fill="url(#paint35_linear_1080_8856)" fill-opacity="0.2"/>
<path d="M31.2185 79.1575L31.2187 79.1577L47.2187 88.9357L47.219 88.9358C47.3081 88.9904 47.4023 89.0352 47.5 89.0699V70.2807L30.5168 59.9021C30.5058 59.9749 30.5002 60.0487 30.5 60.1228L30.5 77.878L31.2185 79.1575ZM31.2185 79.1575C30.9992 79.0236 30.8179 78.8357 30.6921 78.6116C30.5663 78.3877 30.5002 78.1352 30.5 77.8783L31.2185 79.1575Z" stroke="url(#paint36_linear_1080_8856)" stroke-opacity="0.1"/>
</g>
<g filter="url(#filter16_bi_1080_8856)">
<path d="M65.748 59.1543C65.9126 59.4504 65.9993 59.7835 66 60.1223V77.8783C65.9998 78.2209 65.9116 78.5577 65.7439 78.8564C65.5761 79.1552 65.3344 79.4058 65.042 79.5843L49.042 89.3623C48.7283 89.5542 48.3678 89.656 48 89.6563V70.0003L65.748 59.1543Z" fill="url(#paint37_linear_1080_8856)" fill-opacity="0.2"/>
<path d="M64.7815 79.1575L64.7813 79.1577L48.7813 88.9357L48.781 88.9358C48.6919 88.9904 48.5976 89.0352 48.5 89.0699V70.2807L65.4832 59.9021C65.4942 59.9751 65.4999 60.049 65.5 60.1233V77.878C65.4999 78.135 65.4337 78.3876 65.3079 78.6116C65.1821 78.8357 65.0008 79.0236 64.7815 79.1575Z" stroke="url(#paint38_linear_1080_8856)" stroke-opacity="0.1"/>
</g>
<defs>
<filter id="filter0_bi_1080_8856" x="-6.19358" y="22.6892" width="48.3911" height="52.676" filterUnits="userSpaceOnUse" color-interpolation-filters="sRGB">
<feFlood flood-opacity="0" result="BackgroundImageFix"/>
<feGaussianBlur in="BackgroundImageFix" stdDeviation="4.83898"/>
<feComposite in2="SourceAlpha" operator="in" result="effect1_backgroundBlur_1080_8856"/>
<feBlend mode="normal" in="SourceGraphic" in2="effect1_backgroundBlur_1080_8856" result="shape"/>
<feColorMatrix in="SourceAlpha" type="matrix" values="0 0 0 0 0 0 0 0 0 0 0 0 0 0 0 0 0 0 127 0" result="hardAlpha"/>
<feOffset dy="1.61299"/>
<feGaussianBlur stdDeviation="3.22599"/>
<feComposite in2="hardAlpha" operator="arithmetic" k2="-1" k3="1"/>
<feColorMatrix type="matrix" values="0 0 0 0 1 0 0 0 0 1 0 0 0 0 1 0 0 0 0.4 0"/>
<feBlend mode="normal" in2="shape" result="effect2_innerShadow_1080_8856"/>
</filter>
<filter id="filter1_bi_1080_8856" x="-6.19358" y="22.6892" width="48.3911" height="52.676" filterUnits="userSpaceOnUse" color-interpolation-filters="sRGB">
<feFlood flood-opacity="0" result="BackgroundImageFix"/>
<feGaussianBlur in="BackgroundImageFix" stdDeviation="4.83898"/>
<feComposite in2="SourceAlpha" operator="in" result="effect1_backgroundBlur_1080_8856"/>
<feBlend mode="normal" in="SourceGraphic" in2="effect1_backgroundBlur_1080_8856" result="shape"/>
<feColorMatrix in="SourceAlpha" type="matrix" values="0 0 0 0 0 0 0 0 0 0 0 0 0 0 0 0 0 0 127 0" result="hardAlpha"/>
<feOffset dy="1.61299"/>
<feGaussianBlur stdDeviation="3.22599"/>
<feComposite in2="hardAlpha" operator="arithmetic" k2="-1" k3="1"/>
<feColorMatrix type="matrix" values="0 0 0 0 1 0 0 0 0 1 0 0 0 0 1 0 0 0 0.4 0"/>
<feBlend mode="normal" in2="shape" result="effect2_innerShadow_1080_8856"/>
</filter>
<filter id="filter2_bi_1080_8856" x="23.8064" y="3.45095" width="48.3911" height="52.676" filterUnits="userSpaceOnUse" color-interpolation-filters="sRGB">
<feFlood flood-opacity="0" result="BackgroundImageFix"/>
<feGaussianBlur in="BackgroundImageFix" stdDeviation="4.83898"/>
<feComposite in2="SourceAlpha" operator="in" result="effect1_backgroundBlur_1080_8856"/>
<feBlend mode="normal" in="SourceGraphic" in2="effect1_backgroundBlur_1080_8856" result="shape"/>
<feColorMatrix in="SourceAlpha" type="matrix" values="0 0 0 0 0 0 0 0 0 0 0 0 0 0 0 0 0 0 127 0" result="hardAlpha"/>
<feOffset dy="1.61299"/>
<feGaussianBlur stdDeviation="3.22599"/>
<feComposite in2="hardAlpha" operator="arithmetic" k2="-1" k3="1"/>
<feColorMatrix type="matrix" values="0 0 0 0 1 0 0 0 0 1 0 0 0 0 1 0 0 0 0.4 0"/>
<feBlend mode="normal" in2="shape" result="effect2_innerShadow_1080_8856"/>
</filter>
<filter id="filter3_bi_1080_8856" x="53.8064" y="22.6883" width="48.3911" height="52.676" filterUnits="userSpaceOnUse" color-interpolation-filters="sRGB">
<feFlood flood-opacity="0" result="BackgroundImageFix"/>
<feGaussianBlur in="BackgroundImageFix" stdDeviation="4.83898"/>
<feComposite in2="SourceAlpha" operator="in" result="effect1_backgroundBlur_1080_8856"/>
<feBlend mode="normal" in="SourceGraphic" in2="effect1_backgroundBlur_1080_8856" result="shape"/>
<feColorMatrix in="SourceAlpha" type="matrix" values="0 0 0 0 0 0 0 0 0 0 0 0 0 0 0 0 0 0 127 0" result="hardAlpha"/>
<feOffset dy="1.61299"/>
<feGaussianBlur stdDeviation="3.22599"/>
<feComposite in2="hardAlpha" operator="arithmetic" k2="-1" k3="1"/>
<feColorMatrix type="matrix" values="0 0 0 0 1 0 0 0 0 1 0 0 0 0 1 0 0 0 0.4 0"/>
<feBlend mode="normal" in2="shape" result="effect2_innerShadow_1080_8856"/>
</filter>
<filter id="filter4_bi_1080_8856" x="23.8064" y="44.7527" width="48.3911" height="52.676" filterUnits="userSpaceOnUse" color-interpolation-filters="sRGB">
<feFlood flood-opacity="0" result="BackgroundImageFix"/>
<feGaussianBlur in="BackgroundImageFix" stdDeviation="4.83898"/>
<feComposite in2="SourceAlpha" operator="in" result="effect1_backgroundBlur_1080_8856"/>
<feBlend mode="normal" in="SourceGraphic" in2="effect1_backgroundBlur_1080_8856" result="shape"/>
<feColorMatrix in="SourceAlpha" type="matrix" values="0 0 0 0 0 0 0 0 0 0 0 0 0 0 0 0 0 0 127 0" result="hardAlpha"/>
<feOffset dy="1.61299"/>
<feGaussianBlur stdDeviation="3.22599"/>
<feComposite in2="hardAlpha" operator="arithmetic" k2="-1" k3="1"/>
<feColorMatrix type="matrix" values="0 0 0 0 1 0 0 0 0 1 0 0 0 0 1 0 0 0 0.4 0"/>
<feBlend mode="normal" in2="shape" result="effect2_innerShadow_1080_8856"/>
</filter>
<filter id="filter5_bi_1080_8856" x="18.25" y="-1.99805" width="59.4961" height="45.6548" filterUnits="userSpaceOnUse" color-interpolation-filters="sRGB">
<feFlood flood-opacity="0" result="BackgroundImageFix"/>
<feGaussianBlur in="BackgroundImageFix" stdDeviation="6"/>
<feComposite in2="SourceAlpha" operator="in" result="effect1_backgroundBlur_1080_8856"/>
<feBlend mode="normal" in="SourceGraphic" in2="effect1_backgroundBlur_1080_8856" result="shape"/>
<feColorMatrix in="SourceAlpha" type="matrix" values="0 0 0 0 0 0 0 0 0 0 0 0 0 0 0 0 0 0 127 0" result="hardAlpha"/>
<feOffset dy="2"/>
<feGaussianBlur stdDeviation="4"/>
<feComposite in2="hardAlpha" operator="arithmetic" k2="-1" k3="1"/>
<feColorMatrix type="matrix" values="0 0 0 0 1 0 0 0 0 1 0 0 0 0 1 0 0 0 0.4 0"/>
<feBlend mode="normal" in2="shape" result="effect2_innerShadow_1080_8856"/>
</filter>
<filter id="filter6_bi_1080_8856" x="18" y="8.81055" width="42" height="54.502" filterUnits="userSpaceOnUse" color-interpolation-filters="sRGB">
<feFlood flood-opacity="0" result="BackgroundImageFix"/>
<feGaussianBlur in="BackgroundImageFix" stdDeviation="6"/>
<feComposite in2="SourceAlpha" operator="in" result="effect1_backgroundBlur_1080_8856"/>
<feBlend mode="normal" in="SourceGraphic" in2="effect1_backgroundBlur_1080_8856" result="shape"/>
<feColorMatrix in="SourceAlpha" type="matrix" values="0 0 0 0 0 0 0 0 0 0 0 0 0 0 0 0 0 0 127 0" result="hardAlpha"/>
<feOffset dy="2"/>
<feGaussianBlur stdDeviation="4"/>
<feComposite in2="hardAlpha" operator="arithmetic" k2="-1" k3="1"/>
<feColorMatrix type="matrix" values="0 0 0 0 1 0 0 0 0 1 0 0 0 0 1 0 0 0 0.4 0"/>
<feBlend mode="normal" in2="shape" result="effect2_innerShadow_1080_8856"/>
</filter>
<filter id="filter7_bi_1080_8856" x="36" y="8.81055" width="42" height="54.502" filterUnits="userSpaceOnUse" color-interpolation-filters="sRGB">
<feFlood flood-opacity="0" result="BackgroundImageFix"/>
<feGaussianBlur in="BackgroundImageFix" stdDeviation="6"/>
<feComposite in2="SourceAlpha" operator="in" result="effect1_backgroundBlur_1080_8856"/>
<feBlend mode="normal" in="SourceGraphic" in2="effect1_backgroundBlur_1080_8856" result="shape"/>
<feColorMatrix in="SourceAlpha" type="matrix" values="0 0 0 0 0 0 0 0 0 0 0 0 0 0 0 0 0 0 127 0" result="hardAlpha"/>
<feOffset dy="2"/>
<feGaussianBlur stdDeviation="4"/>
<feComposite in2="hardAlpha" operator="arithmetic" k2="-1" k3="1"/>
<feColorMatrix type="matrix" values="0 0 0 0 1 0 0 0 0 1 0 0 0 0 1 0 0 0 0.4 0"/>
<feBlend mode="normal" in2="shape" result="effect2_innerShadow_1080_8856"/>
</filter>
<filter id="filter8_bi_1080_8856" x="48.25" y="16.3691" width="59.4961" height="45.657" filterUnits="userSpaceOnUse" color-interpolation-filters="sRGB">
<feFlood flood-opacity="0" result="BackgroundImageFix"/>
<feGaussianBlur in="BackgroundImageFix" stdDeviation="6"/>
<feComposite in2="SourceAlpha" operator="in" result="effect1_backgroundBlur_1080_8856"/>
<feBlend mode="normal" in="SourceGraphic" in2="effect1_backgroundBlur_1080_8856" result="shape"/>
<feColorMatrix in="SourceAlpha" type="matrix" values="0 0 0 0 0 0 0 0 0 0 0 0 0 0 0 0 0 0 127 0" result="hardAlpha"/>
<feOffset dy="2"/>
<feGaussianBlur stdDeviation="4"/>
<feComposite in2="hardAlpha" operator="arithmetic" k2="-1" k3="1"/>
<feColorMatrix type="matrix" values="0 0 0 0 1 0 0 0 0 1 0 0 0 0 1 0 0 0 0.4 0"/>
<feBlend mode="normal" in2="shape" result="effect2_innerShadow_1080_8856"/>
</filter>
<filter id="filter9_bi_1080_8856" x="48" y="27.1797" width="42" height="54.5039" filterUnits="userSpaceOnUse" color-interpolation-filters="sRGB">
<feFlood flood-opacity="0" result="BackgroundImageFix"/>
<feGaussianBlur in="BackgroundImageFix" stdDeviation="6"/>
<feComposite in2="SourceAlpha" operator="in" result="effect1_backgroundBlur_1080_8856"/>
<feBlend mode="normal" in="SourceGraphic" in2="effect1_backgroundBlur_1080_8856" result="shape"/>
<feColorMatrix in="SourceAlpha" type="matrix" values="0 0 0 0 0 0 0 0 0 0 0 0 0 0 0 0 0 0 127 0" result="hardAlpha"/>
<feOffset dy="2"/>
<feGaussianBlur stdDeviation="4"/>
<feComposite in2="hardAlpha" operator="arithmetic" k2="-1" k3="1"/>
<feColorMatrix type="matrix" values="0 0 0 0 1 0 0 0 0 1 0 0 0 0 1 0 0 0 0.4 0"/>
<feBlend mode="normal" in2="shape" result="effect2_innerShadow_1080_8856"/>
</filter>
<filter id="filter10_bi_1080_8856" x="66" y="27.1797" width="42" height="54.5039" filterUnits="userSpaceOnUse" color-interpolation-filters="sRGB">
<feFlood flood-opacity="0" result="BackgroundImageFix"/>
<feGaussianBlur in="BackgroundImageFix" stdDeviation="6"/>
<feComposite in2="SourceAlpha" operator="in" result="effect1_backgroundBlur_1080_8856"/>
<feBlend mode="normal" in="SourceGraphic" in2="effect1_backgroundBlur_1080_8856" result="shape"/>
<feColorMatrix in="SourceAlpha" type="matrix" values="0 0 0 0 0 0 0 0 0 0 0 0 0 0 0 0 0 0 127 0" result="hardAlpha"/>
<feOffset dy="2"/>
<feGaussianBlur stdDeviation="4"/>
<feComposite in2="hardAlpha" operator="arithmetic" k2="-1" k3="1"/>
<feColorMatrix type="matrix" values="0 0 0 0 1 0 0 0 0 1 0 0 0 0 1 0 0 0 0.4 0"/>
<feBlend mode="normal" in2="shape" result="effect2_innerShadow_1080_8856"/>
</filter>
<filter id="filter11_bi_1080_8856" x="-11.75" y="16.3691" width="59.4961" height="45.657" filterUnits="userSpaceOnUse" color-interpolation-filters="sRGB">
<feFlood flood-opacity="0" result="BackgroundImageFix"/>
<feGaussianBlur in="BackgroundImageFix" stdDeviation="6"/>
<feComposite in2="SourceAlpha" operator="in" result="effect1_backgroundBlur_1080_8856"/>
<feBlend mode="normal" in="SourceGraphic" in2="effect1_backgroundBlur_1080_8856" result="shape"/>
<feColorMatrix in="SourceAlpha" type="matrix" values="0 0 0 0 0 0 0 0 0 0 0 0 0 0 0 0 0 0 127 0" result="hardAlpha"/>
<feOffset dy="2"/>
<feGaussianBlur stdDeviation="4"/>
<feComposite in2="hardAlpha" operator="arithmetic" k2="-1" k3="1"/>
<feColorMatrix type="matrix" values="0 0 0 0 1 0 0 0 0 1 0 0 0 0 1 0 0 0 0.4 0"/>
<feBlend mode="normal" in2="shape" result="effect2_innerShadow_1080_8856"/>
</filter>
<filter id="filter12_bi_1080_8856" x="-12" y="27.1797" width="42" height="54.5039" filterUnits="userSpaceOnUse" color-interpolation-filters="sRGB">
<feFlood flood-opacity="0" result="BackgroundImageFix"/>
<feGaussianBlur in="BackgroundImageFix" stdDeviation="6"/>
<feComposite in2="SourceAlpha" operator="in" result="effect1_backgroundBlur_1080_8856"/>
<feBlend mode="normal" in="SourceGraphic" in2="effect1_backgroundBlur_1080_8856" result="shape"/>
<feColorMatrix in="SourceAlpha" type="matrix" values="0 0 0 0 0 0 0 0 0 0 0 0 0 0 0 0 0 0 127 0" result="hardAlpha"/>
<feOffset dy="2"/>
<feGaussianBlur stdDeviation="4"/>
<feComposite in2="hardAlpha" operator="arithmetic" k2="-1" k3="1"/>
<feColorMatrix type="matrix" values="0 0 0 0 1 0 0 0 0 1 0 0 0 0 1 0 0 0 0.4 0"/>
<feBlend mode="normal" in2="shape" result="effect2_innerShadow_1080_8856"/>
</filter>
<filter id="filter13_bi_1080_8856" x="6" y="27.1797" width="42" height="54.5039" filterUnits="userSpaceOnUse" color-interpolation-filters="sRGB">
<feFlood flood-opacity="0" result="BackgroundImageFix"/>
<feGaussianBlur in="BackgroundImageFix" stdDeviation="6"/>
<feComposite in2="SourceAlpha" operator="in" result="effect1_backgroundBlur_1080_8856"/>
<feBlend mode="normal" in="SourceGraphic" in2="effect1_backgroundBlur_1080_8856" result="shape"/>
<feColorMatrix in="SourceAlpha" type="matrix" values="0 0 0 0 0 0 0 0 0 0 0 0 0 0 0 0 0 0 127 0" result="hardAlpha"/>
<feOffset dy="2"/>
<feGaussianBlur stdDeviation="4"/>
<feComposite in2="hardAlpha" operator="arithmetic" k2="-1" k3="1"/>
<feColorMatrix type="matrix" values="0 0 0 0 1 0 0 0 0 1 0 0 0 0 1 0 0 0 0.4 0"/>
<feBlend mode="normal" in2="shape" result="effect2_innerShadow_1080_8856"/>
</filter>
<filter id="filter14_bi_1080_8856" x="18.25" y="36.3457" width="59.4961" height="45.6548" filterUnits="userSpaceOnUse" color-interpolation-filters="sRGB">
<feFlood flood-opacity="0" result="BackgroundImageFix"/>
<feGaussianBlur in="BackgroundImageFix" stdDeviation="6"/>
<feComposite in2="SourceAlpha" operator="in" result="effect1_backgroundBlur_1080_8856"/>
<feBlend mode="normal" in="SourceGraphic" in2="effect1_backgroundBlur_1080_8856" result="shape"/>
<feColorMatrix in="SourceAlpha" type="matrix" values="0 0 0 0 0 0 0 0 0 0 0 0 0 0 0 0 0 0 127 0" result="hardAlpha"/>
<feOffset dy="2"/>
<feGaussianBlur stdDeviation="4"/>
<feComposite in2="hardAlpha" operator="arithmetic" k2="-1" k3="1"/>
<feColorMatrix type="matrix" values="0 0 0 0 1 0 0 0 0 1 0 0 0 0 1 0 0 0 0.4 0"/>
<feBlend mode="normal" in2="shape" result="effect2_innerShadow_1080_8856"/>
</filter>
<filter id="filter15_bi_1080_8856" x="18" y="47.1543" width="42" height="54.502" filterUnits="userSpaceOnUse" color-interpolation-filters="sRGB">
<feFlood flood-opacity="0" result="BackgroundImageFix"/>
<feGaussianBlur in="BackgroundImageFix" stdDeviation="6"/>
<feComposite in2="SourceAlpha" operator="in" result="effect1_backgroundBlur_1080_8856"/>
<feBlend mode="normal" in="SourceGraphic" in2="effect1_backgroundBlur_1080_8856" result="shape"/>
<feColorMatrix in="SourceAlpha" type="matrix" values="0 0 0 0 0 0 0 0 0 0 0 0 0 0 0 0 0 0 127 0" result="hardAlpha"/>
<feOffset dy="2"/>
<feGaussianBlur stdDeviation="4"/>
<feComposite in2="hardAlpha" operator="arithmetic" k2="-1" k3="1"/>
<feColorMatrix type="matrix" values="0 0 0 0 1 0 0 0 0 1 0 0 0 0 1 0 0 0 0.4 0"/>
<feBlend mode="normal" in2="shape" result="effect2_innerShadow_1080_8856"/>
</filter>
<filter id="filter16_bi_1080_8856" x="36" y="47.1543" width="42" height="54.502" filterUnits="userSpaceOnUse" color-interpolation-filters="sRGB">
<feFlood flood-opacity="0" result="BackgroundImageFix"/>
<feGaussianBlur in="BackgroundImageFix" stdDeviation="6"/>
<feComposite in2="SourceAlpha" operator="in" result="effect1_backgroundBlur_1080_8856"/>
<feBlend mode="normal" in="SourceGraphic" in2="effect1_backgroundBlur_1080_8856" result="shape"/>
<feColorMatrix in="SourceAlpha" type="matrix" values="0 0 0 0 0 0 0 0 0 0 0 0 0 0 0 0 0 0 127 0" result="hardAlpha"/>
<feOffset dy="2"/>
<feGaussianBlur stdDeviation="4"/>
<feComposite in2="hardAlpha" operator="arithmetic" k2="-1" k3="1"/>
<feColorMatrix type="matrix" values="0 0 0 0 1 0 0 0 0 1 0 0 0 0 1 0 0 0 0.4 0"/>
<feBlend mode="normal" in2="shape" result="effect2_innerShadow_1080_8856"/>
</filter>
<linearGradient id="paint0_linear_1080_8856" x1="3.48438" y1="32.3672" x2="38.1915" y2="40.0463" gradientUnits="userSpaceOnUse">
<stop stop-color="#75A5FF"/>
<stop offset="0.703125" stop-color="#008ECF"/>
</linearGradient>
<linearGradient id="paint1_linear_1080_8856" x1="3.48438" y1="32.3672" x2="38.1915" y2="40.0463" gradientUnits="userSpaceOnUse">
<stop stop-color="#75A5FF"/>
<stop offset="0.703125" stop-color="#008ECF"/>
</linearGradient>
<linearGradient id="paint2_linear_1080_8856" x1="3.48438" y1="32.3672" x2="38.1915" y2="40.0463" gradientUnits="userSpaceOnUse">
<stop stop-color="#75A5FF"/>
<stop offset="0.703125" stop-color="#008ECF"/>
</linearGradient>
<linearGradient id="paint3_linear_1080_8856" x1="3.48438" y1="32.3672" x2="38.1915" y2="40.0463" gradientUnits="userSpaceOnUse">
<stop stop-color="#75A5FF"/>
<stop offset="0.703125" stop-color="#008ECF"/>
</linearGradient>
<linearGradient id="paint4_linear_1080_8856" x1="3.48438" y1="32.3672" x2="38.1915" y2="40.0463" gradientUnits="userSpaceOnUse">
<stop stop-color="#75A5FF"/>
<stop offset="0.703125" stop-color="#008ECF"/>
</linearGradient>
<linearGradient id="paint5_linear_1080_8856" x1="3.48438" y1="32.3672" x2="38.1915" y2="40.0463" gradientUnits="userSpaceOnUse">
<stop stop-color="#75A5FF"/>
<stop offset="0.703125" stop-color="#008ECF"/>
</linearGradient>
<linearGradient id="paint6_linear_1080_8856" x1="33.4844" y1="13.1289" x2="68.1915" y2="20.8081" gradientUnits="userSpaceOnUse">
<stop stop-color="#75A5FF"/>
<stop offset="0.703125" stop-color="#008ECF"/>
</linearGradient>
<linearGradient id="paint7_linear_1080_8856" x1="33.4844" y1="13.1289" x2="68.1915" y2="20.8081" gradientUnits="userSpaceOnUse">
<stop stop-color="#75A5FF"/>
<stop offset="0.703125" stop-color="#008ECF"/>
</linearGradient>
<linearGradient id="paint8_linear_1080_8856" x1="33.4844" y1="13.1289" x2="68.1915" y2="20.8081" gradientUnits="userSpaceOnUse">
<stop stop-color="#75A5FF"/>
<stop offset="0.703125" stop-color="#008ECF"/>
</linearGradient>
<linearGradient id="paint9_linear_1080_8856" x1="63.4844" y1="32.3662" x2="98.1915" y2="40.0454" gradientUnits="userSpaceOnUse">
<stop stop-color="#75A5FF"/>
<stop offset="0.703125" stop-color="#008ECF"/>
</linearGradient>
<linearGradient id="paint10_linear_1080_8856" x1="63.4844" y1="32.3662" x2="98.1915" y2="40.0454" gradientUnits="userSpaceOnUse">
<stop stop-color="#75A5FF"/>
<stop offset="0.703125" stop-color="#008ECF"/>
</linearGradient>
<linearGradient id="paint11_linear_1080_8856" x1="63.4844" y1="32.3662" x2="98.1915" y2="40.0454" gradientUnits="userSpaceOnUse">
<stop stop-color="#75A5FF"/>
<stop offset="0.703125" stop-color="#008ECF"/>
</linearGradient>
<linearGradient id="paint12_linear_1080_8856" x1="33.4844" y1="54.4307" x2="68.1915" y2="62.1098" gradientUnits="userSpaceOnUse">
<stop stop-color="#75A5FF"/>
<stop offset="0.703125" stop-color="#008ECF"/>
</linearGradient>
<linearGradient id="paint13_linear_1080_8856" x1="33.4844" y1="54.4307" x2="68.1915" y2="62.1098" gradientUnits="userSpaceOnUse">
<stop stop-color="#75A5FF"/>
<stop offset="0.703125" stop-color="#008ECF"/>
</linearGradient>
<linearGradient id="paint14_linear_1080_8856" x1="33.4844" y1="54.4307" x2="68.1915" y2="62.1098" gradientUnits="userSpaceOnUse">
<stop stop-color="#75A5FF"/>
<stop offset="0.703125" stop-color="#008ECF"/>
</linearGradient>
<linearGradient id="paint15_linear_1080_8856" x1="30.25" y1="10.002" x2="68.1871" y2="25.7919" gradientUnits="userSpaceOnUse">
<stop stop-color="#83E9FF"/>
<stop offset="0.453125" stop-color="#85A0FF"/>
</linearGradient>
<linearGradient id="paint16_linear_1080_8856" x1="31.3593" y1="10.9863" x2="65.746" y2="10.9863" gradientUnits="userSpaceOnUse">
<stop stop-color="#3CDEB6"/>
<stop offset="0.65625" stop-color="#364AFF"/>
</linearGradient>
<linearGradient id="paint17_linear_1080_8856" x1="30" y1="20.8105" x2="52.0749" y2="24.1183" gradientUnits="userSpaceOnUse">
<stop stop-color="#83E9FF"/>
<stop offset="0.453125" stop-color="#85A0FF"/>
</linearGradient>
<linearGradient id="paint18_linear_1080_8856" x1="30.5625" y1="22.197" x2="48" y2="22.197" gradientUnits="userSpaceOnUse">
<stop stop-color="#3CDEB6"/>
<stop offset="0.65625" stop-color="#364AFF"/>
</linearGradient>
<linearGradient id="paint19_linear_1080_8856" x1="48" y1="20.8105" x2="70.0749" y2="24.1183" gradientUnits="userSpaceOnUse">
<stop stop-color="#83E9FF"/>
<stop offset="0.453125" stop-color="#85A0FF"/>
</linearGradient>
<linearGradient id="paint20_linear_1080_8856" x1="48.5625" y1="22.197" x2="66" y2="22.197" gradientUnits="userSpaceOnUse">
<stop stop-color="#3CDEB6"/>
<stop offset="0.65625" stop-color="#364AFF"/>
</linearGradient>
<linearGradient id="paint21_linear_1080_8856" x1="60.25" y1="28.3691" x2="98.1881" y2="44.1581" gradientUnits="userSpaceOnUse">
<stop stop-color="#83E9FF"/>
<stop offset="0.453125" stop-color="#85A0FF"/>
</linearGradient>
<linearGradient id="paint22_linear_1080_8856" x1="61.3593" y1="29.3535" x2="95.746" y2="29.3535" gradientUnits="userSpaceOnUse">
<stop stop-color="#3CDEB6"/>
<stop offset="0.65625" stop-color="#364AFF"/>
</linearGradient>
<linearGradient id="paint23_linear_1080_8856" x1="60" y1="39.1797" x2="82.0749" y2="42.4873" gradientUnits="userSpaceOnUse">
<stop stop-color="#83E9FF"/>
<stop offset="0.453125" stop-color="#85A0FF"/>
</linearGradient>
<linearGradient id="paint24_linear_1080_8856" x1="60.5625" y1="40.5662" x2="78" y2="40.5662" gradientUnits="userSpaceOnUse">
<stop stop-color="#3CDEB6"/>
<stop offset="0.65625" stop-color="#364AFF"/>
</linearGradient>
<linearGradient id="paint25_linear_1080_8856" x1="78" y1="39.1797" x2="100.075" y2="42.4873" gradientUnits="userSpaceOnUse">
<stop stop-color="#83E9FF"/>
<stop offset="0.453125" stop-color="#85A0FF"/>
</linearGradient>
<linearGradient id="paint26_linear_1080_8856" x1="78.5625" y1="40.5662" x2="96" y2="40.5662" gradientUnits="userSpaceOnUse">
<stop stop-color="#3CDEB6"/>
<stop offset="0.65625" stop-color="#364AFF"/>
</linearGradient>
<linearGradient id="paint27_linear_1080_8856" x1="0.25" y1="28.3691" x2="38.1881" y2="44.1581" gradientUnits="userSpaceOnUse">
<stop stop-color="#83E9FF"/>
<stop offset="0.453125" stop-color="#85A0FF"/>
</linearGradient>
<linearGradient id="paint28_linear_1080_8856" x1="1.35925" y1="29.3535" x2="35.746" y2="29.3535" gradientUnits="userSpaceOnUse">
<stop stop-color="#3CDEB6"/>
<stop offset="0.65625" stop-color="#364AFF"/>
</linearGradient>
<linearGradient id="paint29_linear_1080_8856" x1="0" y1="39.1797" x2="22.0749" y2="42.4873" gradientUnits="userSpaceOnUse">
<stop stop-color="#83E9FF"/>
<stop offset="0.453125" stop-color="#85A0FF"/>
</linearGradient>
<linearGradient id="paint30_linear_1080_8856" x1="0.5625" y1="40.5662" x2="18" y2="40.5662" gradientUnits="userSpaceOnUse">
<stop stop-color="#3CDEB6"/>
<stop offset="0.65625" stop-color="#364AFF"/>
</linearGradient>
<linearGradient id="paint31_linear_1080_8856" x1="18" y1="39.1797" x2="40.0749" y2="42.4873" gradientUnits="userSpaceOnUse">
<stop stop-color="#83E9FF"/>
<stop offset="0.453125" stop-color="#85A0FF"/>
</linearGradient>
<linearGradient id="paint32_linear_1080_8856" x1="18.5625" y1="40.5662" x2="36" y2="40.5662" gradientUnits="userSpaceOnUse">
<stop stop-color="#3CDEB6"/>
<stop offset="0.65625" stop-color="#364AFF"/>
</linearGradient>
<linearGradient id="paint33_linear_1080_8856" x1="30.25" y1="48.3457" x2="68.1871" y2="64.1357" gradientUnits="userSpaceOnUse">
<stop stop-color="#83E9FF"/>
<stop offset="0.453125" stop-color="#85A0FF"/>
</linearGradient>
<linearGradient id="paint34_linear_1080_8856" x1="31.3593" y1="49.33" x2="65.746" y2="49.33" gradientUnits="userSpaceOnUse">
<stop stop-color="#3CDEB6"/>
<stop offset="0.65625" stop-color="#364AFF"/>
</linearGradient>
<linearGradient id="paint35_linear_1080_8856" x1="30" y1="59.1543" x2="52.0749" y2="62.4621" gradientUnits="userSpaceOnUse">
<stop stop-color="#83E9FF"/>
<stop offset="0.453125" stop-color="#85A0FF"/>
</linearGradient>
<linearGradient id="paint36_linear_1080_8856" x1="30.5625" y1="60.5408" x2="48" y2="60.5408" gradientUnits="userSpaceOnUse">
<stop stop-color="#3CDEB6"/>
<stop offset="0.65625" stop-color="#364AFF"/>
</linearGradient>
<linearGradient id="paint37_linear_1080_8856" x1="48" y1="59.1543" x2="70.0749" y2="62.4621" gradientUnits="userSpaceOnUse">
<stop stop-color="#83E9FF"/>
<stop offset="0.453125" stop-color="#85A0FF"/>
</linearGradient>
<linearGradient id="paint38_linear_1080_8856" x1="48.5625" y1="60.5408" x2="66" y2="60.5408" gradientUnits="userSpaceOnUse">
<stop stop-color="#3CDEB6"/>
<stop offset="0.65625" stop-color="#364AFF"/>
</linearGradient>
</defs>
</svg>
