<svg width="138" height="40" viewBox="0 0 138 40" fill="none" xmlns="http://www.w3.org/2000/svg">
<path d="M48.6119 9.54545H45.1125V12.8788H48.6119V9.54545ZM45.1125 17.5H52.796V20.9848H43.667C40.9283 20.9848 40.3197 19.0909 40.3197 17.5V10.2273C40.3197 7.87879 41.3848 6.59091 43.591 6.51515C43.591 6.51515 46.2536 6.43939 46.9383 6.43939C47.6229 6.43939 50.2095 6.51515 50.2095 6.51515C52.5678 6.51515 53.4807 7.72727 53.4807 10V14.7727H45.1125V17.5Z" fill="#B8180E"/>
<path d="M58.5017 6.51515H64.892L69.3804 20.9848H64.0551L61.6968 11.0606H61.3164L58.882 20.9848H54.0132L58.5017 6.51515Z" fill="#B8180E"/>
<path d="M78.4333 9.84848H75.0099V17.7273H78.4333V9.84848ZM80.0309 20.9848C80.0309 20.9848 77.2161 21.0606 76.7597 21.0606C75.9989 21.0606 73.4884 20.9848 73.4884 20.9848C71.8148 20.9848 70.2172 20.3788 70.2172 17.5V10.2273C70.2172 8.48485 70.8258 6.59091 73.5645 6.51515C73.5645 6.51515 76.1511 6.43939 76.8357 6.43939C77.5965 6.43939 80.107 6.51515 80.107 6.51515C81.7806 6.51515 83.3782 7.12121 83.3782 10V17.2727C83.3782 19.0909 82.8456 20.9091 80.0309 20.9848Z" fill="#B8180E"/>
<path d="M107.646 9.84848H104.223V17.7273H107.646V9.84848ZM109.244 20.9848C109.244 20.9848 106.429 21.0606 105.972 21.0606C105.212 21.0606 102.701 20.9848 102.701 20.9848C101.028 20.9848 99.43 20.3788 99.43 17.5V10.2273C99.43 8.48485 100.039 6.59091 102.777 6.51515C102.777 6.51515 105.364 6.43939 106.049 6.43939C106.809 6.43939 109.32 6.51515 109.32 6.51515C110.993 6.51515 112.591 7.12121 112.591 10V17.2727C112.591 19.0909 112.058 20.9091 109.244 20.9848Z" fill="#B8180E"/>
<path d="M30.0496 4.62121H30.5821L32.9405 17.6515H27.6913L30.0496 4.62121ZM38.4179 17.5758L34.7663 0.30303H26.0176L22.366 17.6515H21.0728V21.1364H39.559V17.6515L38.4179 17.5758Z" fill="#B8180E"/>
<path d="M93.1158 12.6515H89.6163V9.69697H93.1158V12.6515ZM93.1158 17.8788H89.6163V14.9242H93.1158V17.8788ZM95.7784 13.7121C97.452 13.4848 97.6042 12.197 97.6042 11.0606V9.09091C97.6042 6.89394 95.398 6.43939 93.4961 6.43939H84.7475V20.9848H95.3219C97.2238 20.9848 97.9846 19.9242 97.9846 18.1818V16.2879C97.9846 14.2424 97.2999 13.8636 95.7784 13.7121Z" fill="#B8180E"/>
<path d="M116.243 21.1364H114.189V6.59091H119.057V14.2424C122.709 7.65151 122.405 8.0303 122.709 7.65152C123.089 6.89394 124.078 6.59091 124.839 6.59091H127.35V21.1364H122.481V13.1818C122.481 13.1818 119.209 19.0152 118.753 19.8485C118.221 20.6061 117.46 21.1364 116.243 21.1364Z" fill="#B8180E"/>
<path d="M125.067 0C125.067 0.833333 124.915 1.51515 124.611 2.12121C124.307 2.65152 123.926 3.10606 123.47 3.48485C123.013 3.78788 122.481 4.01515 121.948 4.16667C121.416 4.31818 120.883 4.39394 120.351 4.39394C119.818 4.39394 119.286 4.31818 118.753 4.16667C118.221 4.01515 117.688 3.78788 117.232 3.48485C116.775 3.18182 116.395 2.72727 116.09 2.12121C115.786 1.59091 115.634 0.833333 115.634 0H118.829C118.829 0.606061 119.057 0.984848 119.286 1.21212C119.59 1.43939 119.894 1.51515 120.275 1.51515C120.655 1.51515 120.959 1.43939 121.264 1.21212C121.568 0.984848 121.72 0.606061 121.72 0H125.067Z" fill="#B8180E"/>
<path d="M91.4421 36.8939H86.1169V33.3333H91.4421V36.8939ZM95.0176 33.4091C95.0176 32.3485 94.7894 31.5909 94.409 30.9848C94.333 30.9091 94.2569 30.9091 94.2569 30.8333C93.8004 30.3788 93.1158 30.1515 92.0507 30.1515H86.1169V27.803H94.333V24.3182H84.8236C84.215 24.3182 83.7585 24.3939 83.3782 24.5455C82.9978 24.697 82.6935 24.9242 82.4653 25.2273C82.237 25.5303 82.0849 25.8333 82.0088 26.2121C81.9328 26.5909 81.8567 26.9697 81.8567 27.4242V36.7424C81.8567 37.803 82.0849 38.6364 82.5414 39.1667C82.9978 39.697 83.8346 40 84.8997 40H91.9746C92.5832 40 93.1158 39.9242 93.4961 39.8485C93.8765 39.697 94.1808 39.5455 94.409 39.3182C94.6373 39.0909 94.7894 38.7121 94.8655 38.3333C94.9416 37.9545 95.0176 37.5 95.0176 36.8939V33.4091Z" fill="#B8180E"/>
<path d="M12.7045 39.3182V21.1364H6.84675V39.3182H0V21.8182C0 18.2576 1.67365 16.4394 5.24917 16.4394H14.1499C18.0298 16.4394 19.323 18.4091 19.323 21.8182V39.3182H12.7045Z" fill="#B8180E"/>
<path d="M29.6692 27.5758H26.0937V30.9848H29.6692V27.5758ZM26.1698 35.6818H34.0816V39.2424H24.5722C21.7574 39.2424 21.1488 37.2727 21.1488 35.6061V28.1061C21.1488 25.6818 22.29 24.3182 24.5722 24.3182C24.5722 24.3182 27.3109 24.2424 27.9956 24.2424C28.6803 24.2424 31.3429 24.3182 31.3429 24.3182C33.7773 24.3182 34.6902 25.6061 34.6902 27.9545V32.8788H26.1698V35.6818Z" fill="#B8180E"/>
<path d="M59.6428 27.5758H56.0673V30.9848H59.6428V27.5758ZM56.0673 35.6818H63.9791V39.2424H54.5458C51.731 39.2424 51.1224 37.2727 51.1224 35.6061V28.1061C51.1224 25.6818 52.2635 24.3182 54.5458 24.3182C54.5458 24.3182 57.2845 24.2424 57.9691 24.2424C58.6538 24.2424 61.3164 24.3182 61.3164 24.3182C63.7508 24.3182 64.6637 25.6061 64.6637 27.9545V32.8788H56.0673V35.6818Z" fill="#B8180E"/>
<path d="M75.3142 27.803H71.4344V33.3333H75.3142V27.803ZM76.8357 36.6667H71.5105V39.4697H66.5656V24.4697H76.9118C79.4223 24.4697 80.3352 25.8333 80.3352 28.1061V33.1061C80.3352 35.4545 79.3462 36.6667 76.8357 36.6667Z" fill="#B8180E"/>
<path d="M121.872 27.803H117.992V33.3333H121.872V27.803ZM123.394 36.6667H118.068V39.4697H113.123V24.4697H123.47C125.98 24.4697 126.893 25.8333 126.893 28.1061V33.1061C126.893 35.4545 125.904 36.6667 123.394 36.6667Z" fill="#B8180E"/>
<path d="M106.125 39.7727H100.571L101.788 36.6667C100.723 36.6667 100.115 36.2121 99.8104 35.303L95.6262 24.3939H101.256L103.538 31.9697H103.918L106.201 24.3939H111.45C111.526 24.4697 105.364 42.1212 106.125 39.7727Z" fill="#B8180E"/>
<path d="M133.283 27.803V39.3182H128.262V28.0303C128.262 25.8333 129.251 24.3939 131.762 24.3939H138V27.803H133.283Z" fill="#B8180E"/>
<path d="M45.7211 27.9545V39.3182H39.9394V27.9545H35.9074V24.5455H49.753V27.9545H45.7211Z" fill="#B8180E"/>
</svg>
