<svg width="120" height="35" viewBox="0 0 120 35" fill="none" xmlns="http://www.w3.org/2000/svg">
<path d="M102.502 26.6687H106.68V19.0621H115.823V26.6687H120V8.33135H115.823V15.5921H106.68V8.33135H102.502V26.6687Z" fill="#202022"/>
<path d="M100.471 18.3394C100.471 11.6868 96.9897 7.57947 91.5041 7.57947C86.0185 7.57947 81.8975 12.1492 81.8975 17.4417C81.8975 22.9945 85.8158 27.3331 91.968 27.3331C94.7829 27.3331 97.3951 26.4083 99.5706 24.5567L97.742 21.8677C96.1747 22.9966 94.2312 23.8631 92.1122 23.8631C88.9776 23.8631 86.7436 22.0697 86.1042 19.1475H100.469V18.3373L100.471 18.3394ZM86.077 15.8796C86.6287 13.0157 88.8334 11.0786 91.5041 11.0786C94.1748 11.0786 95.9156 12.9011 96.3795 15.8796H86.077Z" fill="#202022"/>
<path d="M72.2909 27.3352C77.4275 27.3352 80.6207 24.9066 80.6207 21.6657C80.6207 19.6703 79.488 17.9353 76.7024 17.3854L76.5289 17.3563V17.1834L76.7024 17.1542C79.3438 16.6335 80.4451 15.0131 80.4451 13.1052C80.4451 10.1559 77.6887 7.63774 72.899 7.63774C69.6495 7.63774 66.4856 8.85204 63.8734 10.7912L65.5285 13.6259C67.357 12.3533 69.9399 11.1098 72.6085 11.1098C75.0452 11.1098 76.3805 12.1513 76.3805 13.5384C76.3805 14.811 75.1915 15.765 72.6378 15.8525L68.2263 16.0545V18.8309L72.6378 19.0329C75.3357 19.1767 76.3805 20.1327 76.3805 21.3178C76.3805 22.7071 74.9303 23.9214 71.9983 23.9214C69.0664 23.9214 66.659 22.7363 64.5985 21.3178V25.194C65.8461 25.9167 68.5732 27.3352 72.2888 27.3352H72.2909Z" fill="#202022"/>
<path d="M60.9456 22.5321V8.33135H46.3487L45.2745 17.7895C44.8106 21.6657 43.6487 22.5321 41.559 22.5321H41.3855V30.8343H45.565V26.6687H59.2049V30.8343H63.3844V22.5321H60.9456ZM56.7954 23.1986H46.6099V23.0258C47.8575 22.5634 48.9316 21.7823 49.2513 18.7455L49.9765 11.7743H56.7954V23.1986Z" fill="#202022"/>
<path d="M17.4871 35H17.6271C24.6006 35 28.6485 34.3002 31.5156 31.5258C34.4392 28.5828 35.1142 24.5212 35.1142 17.5979V17.4021C35.1142 10.4808 34.4392 6.44638 31.5156 3.47417C28.6505 0.699834 24.5734 0 17.6292 0H17.4892C10.5156 0 6.4657 0.699834 3.59856 3.47417C0.674991 6.41722 0 10.4808 0 17.4021V17.5979C0 24.5192 0.674991 28.5536 3.59856 31.5258C6.43854 34.3002 10.5156 35 17.4871 35Z" fill="#202022"/>
<path d="M30.9367 17.2355C30.9367 17.1022 30.8281 16.9918 30.6943 16.9855C25.8942 16.8043 22.9727 16.1941 20.9289 14.157C18.8809 12.1159 18.2707 9.20198 18.0889 4.40728C18.0847 4.27398 17.974 4.16568 17.8382 4.16568H17.2781C17.1444 4.16568 17.0336 4.27398 17.0273 4.40728C16.8455 9.19989 16.2353 12.1159 14.1873 14.157C12.1415 16.1961 9.22209 16.8043 4.42192 16.9855C4.28818 16.9897 4.17951 17.1001 4.17951 17.2355V17.7937C4.17951 17.927 4.28818 18.0374 4.42192 18.0436C9.22209 18.2248 12.1436 18.8351 14.1873 20.8721C16.2311 22.9091 16.8413 25.8147 17.0252 30.5906C17.0294 30.7239 17.1402 30.8322 17.276 30.8322H17.8382C17.9719 30.8322 18.0826 30.7239 18.0889 30.5906C18.2728 25.8147 18.883 22.9091 20.9268 20.8721C22.9727 18.833 25.8921 18.2248 30.6922 18.0436C30.826 18.0395 30.9346 17.9291 30.9346 17.7937V17.2355H30.9367Z" fill="white"/>
</svg>
