<svg width="120" height="79" viewBox="0 0 120 79" fill="none" xmlns="http://www.w3.org/2000/svg">
<path d="M37.0641 37.719H44.6799V40.2074H41.057V57.6917H37.0641V37.719Z" fill="#0079C2"/>
<path d="M49.1951 50.1937L49.8794 40.2074H50.1086L50.7929 50.1937H49.1951ZM44.7733 57.6917H48.6827L49.0527 52.3874H50.9353L51.307 57.6917H55.2147L53.1323 37.719H46.8557L44.7733 57.6917Z" fill="#0079C2"/>
<path d="M60.9332 50.7012V54.4666C60.9332 54.9741 61.3261 55.1214 61.5552 55.1214C61.9318 55.1214 62.1937 54.8104 62.1937 54.4666V49.8172C62.1937 49.1951 62.0791 48.5075 60.5894 48.5075H58.9686V46.3138H60.6548C61.7844 46.3138 62.1937 46.0518 62.1937 44.824V40.8622C62.1937 40.5184 61.9318 40.2074 61.5552 40.2074C61.3261 40.2074 60.9332 40.3383 60.9332 40.8622V44.1201H56.9386V41.2879C56.9386 39.8963 57.1023 37.719 59.9018 37.719H63.2087C66.0082 37.719 66.1883 39.8963 66.1883 41.2879V44.4802C66.1883 46.6576 64.6658 47.2469 63.4707 47.1978V47.3943C66.1555 47.3288 66.1883 49.3915 66.1883 50.0955V54.1228C66.1883 55.5307 66.0082 57.6917 63.2087 57.6917H59.9018C57.1023 57.6917 56.9386 55.5307 56.9386 54.1228V50.7012H60.9332Z" fill="#0079C2"/>
<path d="M68.8076 37.719H78.0573V57.6917H74.0628V40.2074H72.8022V57.6917H68.8076V37.719Z" fill="#0079C2"/>
<path d="M84.6712 48.704V40.2074H85.1951C85.6207 40.2074 85.9318 40.5675 85.9318 41.206V47.7053C85.9318 48.3438 85.6207 48.704 85.1951 48.704H84.6712ZM80.6767 57.6917H84.6712V50.8977H86.9632C89.7463 50.8977 89.9263 48.7367 89.9263 47.3288V41.2879C89.9263 39.8963 89.7463 37.719 86.9632 37.719H80.6767V57.6917Z" fill="#0079C2"/>
<path d="M97.8008 54.4666C97.8008 54.8104 97.5389 55.1214 97.1624 55.1214C96.9332 55.1214 96.5402 54.9741 96.5402 54.4666V40.8622C96.5402 40.3383 96.9332 40.2074 97.1624 40.2074C97.5389 40.2074 97.8008 40.5184 97.8008 40.8622V54.4666ZM92.5457 54.1228C92.5457 55.5307 92.7258 57.6917 95.5089 57.6917H98.8322C101.615 57.6917 101.795 55.5307 101.795 54.1228V41.2879C101.795 39.8963 101.615 37.719 98.8322 37.719H95.5089C92.7258 37.719 92.5457 39.8963 92.5457 41.2879V54.1228Z" fill="#0079C2"/>
<path d="M114.794 37.719H120V57.6917H116.005V45.1678H115.858L113.795 57.6917H110.603L108.557 45.1678H108.409V57.6917H104.415V37.719H109.604L112.207 51.7653L114.794 37.719Z" fill="#0079C2"/>
<path d="M31.8876 10.412C30.6647 5.05866 27.6 0.703957 27.1776 0C26.5097 0.998636 24.0655 4.84583 22.8229 9.10232C21.4658 13.8663 21.266 18.09 21.7342 22.2319C22.1992 26.3902 23.9558 30.663 23.9558 30.663C24.889 32.8895 26.287 35.296 27.1973 36.4748C28.5315 34.7394 31.5978 29.5662 32.5539 22.8213C33.086 19.0559 33.1089 15.7653 31.8876 10.412ZM27.1776 35.1323C26.5768 34.0027 25.6437 31.8581 25.5553 28.5184C25.5323 25.3097 26.8207 22.543 27.1973 21.97C27.5329 22.543 28.6428 24.9495 28.7754 28.2401C28.8655 31.4488 27.7981 33.9864 27.1776 35.1323ZM31.5323 19.4979C31.4865 21.5443 31.2426 23.7053 30.9315 24.9986C31.0428 22.7722 30.776 19.6453 30.2652 17.1896C29.7544 14.7503 28.3089 10.6576 27.1547 8.77489C26.089 10.5757 24.776 14.1119 24.0884 17.1733C23.3975 20.2346 23.3779 23.9509 23.3779 25.0641C23.1945 24.131 22.7361 20.7749 22.8655 17.4188C22.9735 14.6521 23.6218 11.7872 23.9771 10.4775C25.3326 6.10642 26.8666 3.30696 27.1547 2.86493C27.4428 3.30696 29.3746 6.76125 30.3765 10.3793C31.3735 13.9973 31.5749 17.4679 31.5323 19.4979Z" fill="#0079C2"/>
<path d="M19.9547 37.719V43.9563C19.9629 43.9563 19.9694 43.94 19.9776 43.94C22.1681 41.7463 25.7206 41.7463 27.9127 43.94C30.1031 46.1173 30.1031 49.6698 27.9127 51.8636C27.9029 51.8799 27.893 51.8799 27.8832 51.8963C27.8718 51.8963 27.8603 51.9127 27.8505 51.9291C25.6649 54.09 22.8098 55.1705 19.9547 55.1705C17.0865 55.1705 14.2183 54.09 12.0311 51.8963C8.17408 48.0491 7.71733 42.0737 10.6576 37.719C11.0537 37.1296 11.5105 36.573 12.0311 36.0491C14.2183 33.8554 17.0865 32.7749 19.9547 32.7749V17.779C8.9337 17.779 0 26.7012 0 37.719C0 48.7367 8.9337 57.6753 19.9547 57.6753C25.701 57.6753 30.8775 55.236 34.5184 51.3561V37.719H19.9547Z" fill="#0079C2"/>
</svg>
