<svg width="120" height="48" viewBox="0 0 120 48" fill="none" xmlns="http://www.w3.org/2000/svg">
<path d="M91.7063 38.3045H98.1797C98.1141 37.5826 97.7859 36.9896 97.193 36.5303C96.5695 36.0709 95.8453 35.8084 95.025 35.8084C94.2047 35.8084 93.4805 36.0381 92.8899 36.4975C92.2641 36.9568 91.9031 37.5498 91.7063 38.3045ZM91.7719 41.0654C91.8703 41.8529 92.2641 42.4787 92.9227 42.9053C93.5789 43.3318 94.4344 43.5615 95.4867 43.5615C96.4078 43.5615 97.425 43.3318 98.5758 42.8725C99.6938 42.4131 100.416 42.1834 100.678 42.1834C101.269 42.1834 101.73 42.3475 102.091 42.6428C102.452 42.9381 102.649 43.3318 102.649 43.7936C102.649 44.7146 101.927 45.5021 100.448 46.224C98.9695 46.9459 97.2609 47.3092 95.257 47.3092C92.8266 47.3092 90.8203 46.5873 89.2102 45.2068C87.6 43.7936 86.7797 42.0193 86.7797 39.8842C86.7797 37.749 87.5672 35.9748 89.1445 34.5287C90.7219 33.1154 92.693 32.3936 95.0274 32.3936C97.2938 32.3936 99.1992 33.0498 100.711 34.3975C102.255 35.7451 103.01 37.3881 103.01 39.3264C103.01 39.9498 102.846 40.4115 102.518 40.6412C102.19 40.9037 101.531 41.0021 100.58 41.0021H91.7742V41.0654H91.7719ZM111.291 32.7193C109.516 33.1459 109.352 34.3295 108.959 35.7756C108.368 37.9107 107.742 40.0482 107.152 42.1506C107.086 42.3475 107.053 42.5443 106.988 42.7412C106.823 43.1678 106.627 43.3646 106.298 43.5967C106.134 43.6951 105.97 43.7936 105.806 43.892C105.609 43.9904 105.445 44.056 105.314 44.1873C104.756 44.6139 104.559 45.7318 104.986 46.4537C105.183 46.7818 105.445 46.9787 105.874 47.1428C106.629 47.4709 107.78 47.6021 108.602 47.3725C109.39 47.1428 110.114 46.6178 110.541 46.0248C111.131 45.2045 111.361 43.9553 111.626 42.9686C112.085 41.3256 112.481 39.7154 112.941 38.1053C113.105 37.5803 113.269 37.0201 113.367 36.4951H114.912V43.8873C114.912 44.4779 114.879 45.0709 115.043 45.6287C115.174 46.1209 115.437 46.5826 115.765 46.8451C116.585 47.5342 118.329 47.4686 119.051 46.9436C119.248 46.8123 119.379 46.6482 119.543 46.4186C120.035 45.6311 120.002 44.9725 120.002 44.0865V34.8521C120.002 33.5701 119.445 33.0451 118.195 32.7498C117.04 32.4568 112.472 32.424 111.291 32.7193ZM81.6188 36.4318C81.8813 36.399 82.3406 36.4318 82.6383 36.4318C83.7891 36.4318 85.6289 36.1693 85.8586 34.9529C85.957 34.4279 85.957 33.9662 85.6945 33.5068C85.3008 32.8178 84.1828 32.4873 82.9992 32.4217C82.3758 32.3889 81.6844 32.4217 81.0609 32.4217H77.1188C75.6727 32.4217 73.2094 32.2576 72.4852 33.5068C72.2227 33.9334 72.2555 34.4279 72.3211 34.9529C72.3867 35.4123 72.7805 35.7732 73.1414 35.9396C74.1281 36.4318 75.2438 36.399 76.5586 36.399V42.9381C76.5586 44.7779 76.2633 47.3092 79.1227 47.3092C82.0149 47.3092 81.6539 44.7123 81.6539 42.9381C81.6188 40.7701 81.6188 38.5998 81.6188 36.4318Z" fill="#2B2A29"/>
<path d="M32.4961 36.7271C32.6273 35.7404 32.2992 34.7561 31.575 33.9662C30.0305 32.3232 27.1055 32.4545 25.0359 32.4545C22.4062 32.4545 19.8445 32.0936 19.8117 35.0842C19.8117 36.2678 19.8117 37.449 19.8117 38.6326C19.8117 39.8162 19.8117 40.9975 19.8117 42.181C19.8117 42.9357 19.7461 45.0076 19.9102 45.6311C20.1727 46.7162 20.9953 47.11 22.2094 47.2412C22.9312 47.3068 25.3969 47.274 26.3156 47.274C28.6477 47.274 30.9492 47.274 32.6578 45.5982C34.0383 44.2834 34.3664 41.6561 32.8875 40.3084C31.3102 38.8623 30.3234 39.1576 30.9164 38.8623C31.2773 38.6654 31.7367 38.2717 31.9687 37.974C32.2312 37.5826 32.4281 37.2217 32.4961 36.7271ZM11.5312 45.7646C11.0391 46.2896 10.4461 46.6857 9.72422 46.9482C9.03516 47.2107 8.24531 47.342 7.425 47.342C5.32266 47.342 3.54844 46.6529 2.13516 45.2396C0.689063 43.8264 0 42.085 0 39.9498C0 37.8475 0.754688 36.1061 2.23359 34.66C3.7125 33.2467 5.51953 32.5248 7.65469 32.5248C8.475 32.5248 9.23203 32.6561 9.85547 32.8857C10.5117 33.1154 11.0719 33.5092 11.5641 34.0037C11.8594 33.5771 12.1875 33.2162 12.5836 33.017C12.9773 32.7873 13.4039 32.6889 13.8984 32.6889C14.7188 32.6889 15.3445 32.9514 15.7383 33.4436C16.132 33.9357 16.3289 34.6928 16.3289 35.7428V44.1873C16.3289 45.2068 16.132 45.9943 15.7383 46.4865C15.3445 46.9787 14.7516 47.2412 13.9312 47.2412C13.3734 47.2412 12.9117 47.11 12.5508 46.8803C12.1219 46.6178 11.7937 46.2568 11.5312 45.7646ZM5.05781 39.8818C5.05781 40.9014 5.35312 41.7545 5.94609 42.3779C6.53672 43.0014 7.29375 43.3318 8.24531 43.3318C9.16641 43.3318 9.92109 43.0037 10.5117 42.3779C11.1023 41.7521 11.4 40.899 11.4 39.9146C11.4 38.9279 11.1047 38.1404 10.5117 37.4842C9.92109 36.8607 9.16406 36.5631 8.24531 36.5631C7.32656 36.5631 6.56953 36.8584 5.94609 37.4842C5.35312 38.0748 5.05781 38.8975 5.05781 39.8818ZM46.8867 45.7646C46.3945 46.2896 45.8016 46.6857 45.0797 46.9482C44.3906 47.2107 43.6008 47.342 42.7805 47.342C40.6781 47.342 38.9367 46.6201 37.4906 45.2396C36.0445 43.8264 35.3555 42.085 35.3555 39.9498C35.3555 37.8475 36.1102 36.1061 37.5891 34.66C39.068 33.2467 40.875 32.5248 43.0102 32.5248C43.8305 32.5248 44.5875 32.6561 45.2109 32.8857C45.8672 33.1154 46.4273 33.5092 46.9195 34.0037C47.2148 33.5771 47.543 33.2162 47.9391 33.017C48.3328 32.7873 48.7594 32.6889 49.2539 32.6889C50.0742 32.6889 50.7 32.9514 51.0938 33.4436C51.4875 33.9357 51.6844 34.6928 51.6844 35.7428V44.1873C51.6844 45.2068 51.4875 45.9943 51.0938 46.4865C50.7 46.9787 50.107 47.2412 49.2867 47.2412C48.7289 47.2412 48.2672 47.11 47.9062 46.8803C47.4773 46.6178 47.1492 46.2568 46.8867 45.7646ZM40.4133 39.8818C40.4133 40.9014 40.7086 41.7545 41.3016 42.3779C41.8945 43.0014 42.6492 43.3318 43.6008 43.3318C44.5219 43.3318 45.2766 43.0037 45.8672 42.3779C46.4578 41.7545 46.7555 40.899 46.7555 39.9146C46.7555 38.9279 46.4602 38.1076 45.8672 37.4842C45.2766 36.8607 44.5195 36.5631 43.6008 36.5631C42.6797 36.5631 41.925 36.8584 41.3016 37.4842C40.7086 38.0748 40.4133 38.8975 40.4133 39.8818ZM59.932 37.8123C59.8992 37.0904 59.932 36.3662 59.932 35.6443C59.932 34.5592 59.8664 33.0475 58.4531 32.5881C57.8625 32.3912 56.9086 32.3912 56.318 32.6209C54.9375 33.1131 54.9047 34.6576 54.9047 35.71V44.3186C54.9047 45.4037 55.1016 46.8826 56.5148 47.2436C57.1383 47.4076 58.0594 47.3748 58.65 47.1123C59.932 46.5217 59.8992 44.9443 59.8992 43.892C59.8992 43.1701 59.8992 42.4787 59.8992 41.7568H65.2547V43.9248C65.2547 44.6139 65.2219 45.2068 65.4516 45.8959C65.6484 46.3881 65.9437 46.9154 66.5039 47.1451C67.0945 47.4076 67.9828 47.4404 68.6391 47.2764C70.0852 46.9154 70.2492 45.4365 70.282 44.3514V35.7428C70.282 34.6576 70.2492 33.1459 68.8688 32.6537C68.2781 32.424 67.3242 32.424 66.7008 32.6537C66.0774 32.8834 65.7469 33.2771 65.5172 33.8045C65.2219 34.4607 65.2547 35.0209 65.2547 35.71C65.2547 36.399 65.2875 37.156 65.2547 37.8451H59.932V37.8123ZM27.0398 41.1967C27.8953 41.1967 28.4531 41.7545 28.4531 42.4131C28.4531 43.1021 27.9609 43.6295 27.0398 43.6295C26.6461 43.6295 25.6266 43.6295 24.8719 43.6295V41.199C25.6266 41.1967 26.6461 41.1967 27.0398 41.1967ZM26.482 36.1365C26.9742 36.1365 27.6328 36.5631 27.6328 37.1232C27.6328 37.6834 27.1078 38.11 26.482 38.11C26.1867 38.11 25.4625 38.11 24.9047 38.11V36.1389C25.4625 36.1365 25.9898 36.1365 26.482 36.1365Z" fill="#FF6600"/>
<path d="M56.6133 11.8201L61.0172 16.224C62.2336 17.4404 62.2336 19.4115 61.0172 20.6279L56.6133 25.0318C55.3969 26.2482 53.4258 26.2482 52.2094 25.0318L47.8055 20.6279C46.5891 19.4115 46.5891 17.4404 47.8055 16.224L52.2094 11.8201C53.4258 10.6389 55.4297 10.6389 56.6133 11.8201Z" fill="#2B2A29"/>
<path d="M45.5719 0.912305L49.943 5.2834C51.1594 6.4998 51.1594 8.50371 49.943 9.72011L36.7336 22.9295C35.5172 24.1459 33.5133 24.1459 32.2969 22.9295L27.9258 18.5584C26.7094 17.342 26.7094 15.3381 27.9258 14.1217L41.1352 0.912305C42.3516 -0.304102 44.3578 -0.304102 45.5719 0.912305Z" fill="#2B2A29"/>
<path d="M63.2836 14.2529L58.8797 9.84902C57.6633 8.63262 57.6633 6.66152 58.8797 5.44512L63.2836 1.04121C64.5 -0.175198 66.4711 -0.175198 67.6875 1.04121L72.0914 5.44512C73.3078 6.66152 73.3078 8.63262 72.0914 9.84902L67.6875 14.2529C66.4711 15.4693 64.5 15.4693 63.2836 14.2529ZM74.3578 25.1607L69.9867 20.7896C68.7703 19.5732 68.7703 17.5693 69.9867 16.3529L83.1961 3.14355C84.4125 1.92715 86.4164 1.92715 87.6328 3.14355L92.0039 7.51465C93.2203 8.73105 93.2203 10.735 92.0039 11.9514L78.7945 25.1607C77.5758 26.3771 75.5719 26.3771 74.3578 25.1607Z" fill="#FF6600"/>
</svg>
