<svg width="150" height="47" viewBox="0 0 150 47" fill="none" xmlns="http://www.w3.org/2000/svg">
<path d="M9.88874 5.10035L16.4832 1.40498L23.0776 5.10035V12.4911L16.4832 16.1865L9.88874 12.4911V5.10035ZM24.3287 13.1909V4.39521L16.4777 0L8.62674 4.39521V13.1909L16.4777 17.5862L24.3287 13.1909Z" fill="#002157"/>
<path d="M14.4455 27.0552L7.85103 30.7506L1.2566 27.0552V19.6644L7.85103 15.9691L14.4455 19.6644V27.0552ZM15.7021 18.9646L7.85103 14.5694L0 18.9646V27.7603L7.85103 32.1556L15.7021 27.7603V18.9646Z" fill="#002157"/>
<path d="M40.3424 41.5663L33.7479 45.2616L27.1535 41.5663V34.1756L33.7479 30.4802L40.3424 34.1756V41.5663ZM33.7479 29.0752L25.8969 33.4704V42.2661L33.7479 46.6614L41.599 42.2661V33.4704L33.7479 29.0752Z" fill="#002157"/>
<path d="M29.5731 17.0589L21.7217 30.2484L22.8334 30.8717L30.6849 17.6821L29.5731 17.0589Z" fill="#002157"/>
<path d="M20.952 31.5677L13.1131 44.7649L14.2255 45.3871L22.0643 32.19L20.952 31.5677Z" fill="#002157"/>
<path d="M18.7448 30.3357L10.906 43.5328L11.9994 44.1444L19.8383 30.9473L18.7448 30.3357Z" fill="#002157"/>
<path d="M36.0146 1.26607L28.1757 14.4632L29.2692 15.0748L37.1081 1.87769L36.0146 1.26607Z" fill="#002157"/>
<path d="M27.3651 15.8224L19.5169 29.0135L20.6098 29.6258L28.4581 16.4348L27.3651 15.8224Z" fill="#002157"/>
<path d="M38.2183 2.512L30.3779 15.7076L31.4901 16.3299L39.3306 3.13434L38.2183 2.512Z" fill="#002157"/>
<path d="M32.9611 18.9646L31.7919 18.3072L23.9518 31.5034L25.1156 32.1556L32.9611 27.7603V18.9646Z" fill="#002157"/>
<path d="M34.9007 0.646823L33.7425 0L25.8969 4.40051V13.1909L27.0606 13.8431L34.9007 0.646823Z" fill="#002157"/>
<path d="M33.7478 17.5914L41.5934 13.1962V4.40048L40.4406 3.75366L32.6005 16.9499L33.7478 17.5914Z" fill="#002157"/>
<path d="M15.3304 46.0198L16.4832 46.6666L24.3287 42.2714V33.4757L23.1705 32.8236L15.3304 46.0198Z" fill="#002157"/>
<path d="M16.4834 29.0752L8.63241 33.4757V42.2661L9.79066 42.9182L17.6307 29.722L16.4834 29.0752Z" fill="#002157"/>
<path d="M17.2645 27.7603L18.4118 28.4019L26.2519 15.2057L25.1155 14.5641L17.2645 18.9646V27.7603Z" fill="#002157"/>
<path d="M92.8517 10.2219H91.06V13.1857H90.3984V9.66525H92.8575L92.8517 10.2219Z" fill="#002157"/>
<path d="M95.6434 11.4361C95.7967 11.3142 95.8734 11.1445 95.8734 10.9165C95.8734 10.6938 95.7967 10.5188 95.6434 10.4022C95.4909 10.2802 95.2667 10.2219 94.9775 10.2219H94.19V11.6217H94.9775C95.2667 11.6163 95.4909 11.558 95.6434 11.4361ZM95.8242 9.81899C96.0592 9.91974 96.2334 10.0629 96.3592 10.2537C96.485 10.4393 96.545 10.662 96.545 10.9218C96.545 11.1762 96.485 11.399 96.3592 11.5898C96.2334 11.7807 96.0592 11.9238 95.8242 12.0246C95.5892 12.1253 95.3159 12.1783 95.0042 12.1783H94.185V13.191H93.5125V9.67058H95.0042C95.3159 9.66525 95.5942 9.71824 95.8242 9.81899Z" fill="#002157"/>
<path d="M100.386 9.66525L98.8125 12.507C98.6759 12.7615 98.5125 12.9471 98.3159 13.0743C98.1242 13.2016 97.9167 13.2598 97.6925 13.2598C97.5125 13.2598 97.3317 13.2227 97.1575 13.1485L97.3209 12.6342C97.4634 12.6767 97.5834 12.6979 97.6709 12.6979C97.8892 12.6979 98.07 12.5865 98.2117 12.3692L98.2667 12.2843L96.8184 9.65991H97.54L98.6109 11.7277L99.7142 9.65991H100.386V9.66525Z" fill="#002157"/>
<path d="M103.878 9.66525V13.1857H103.216V10.2219H101.337V13.1857H100.67V9.66525H103.878Z" fill="#002157"/>
<path d="M107.882 9.66525V13.1857H107.216V10.2219H105.336V13.1857H104.675V9.66525H107.882Z" fill="#002157"/>
<path d="M110.81 11.8602L110.128 10.3227L109.45 11.8602H110.81ZM111.034 12.3744H109.22L108.865 13.1909H108.172L109.805 9.6705H110.466L112.105 13.1909H111.4L111.034 12.3744Z" fill="#002157"/>
<path d="M115.941 11.7012H115.268V13.1857H114.602V9.66525H115.268V11.1392H115.963L117.006 9.66525H117.722L116.482 11.3724L117.765 13.1857H117.006L115.941 11.7012Z" fill="#002157"/>
<path d="M120.24 12.507C120.432 12.401 120.584 12.2525 120.699 12.0669C120.808 11.8761 120.863 11.664 120.863 11.4307C120.863 11.1974 120.808 10.9854 120.699 10.7945C120.584 10.6037 120.437 10.4605 120.24 10.3545C120.049 10.2484 119.831 10.1954 119.59 10.1954C119.35 10.1954 119.132 10.2484 118.94 10.3545C118.749 10.4605 118.596 10.6089 118.487 10.7945C118.378 10.9854 118.318 11.1974 118.318 11.4307C118.318 11.664 118.372 11.8761 118.487 12.0669C118.596 12.2578 118.749 12.4062 118.94 12.507C119.132 12.6131 119.35 12.6661 119.59 12.6661C119.825 12.6661 120.043 12.6131 120.24 12.507ZM118.585 13.0054C118.29 12.8517 118.055 12.6342 117.886 12.3586C117.716 12.0828 117.634 11.7701 117.634 11.4307C117.634 11.0914 117.722 10.7786 117.886 10.5029C118.055 10.2272 118.29 10.0098 118.585 9.85083C118.88 9.69708 119.213 9.6175 119.585 9.6175C119.957 9.6175 120.289 9.69708 120.584 9.85083C120.88 10.0098 121.114 10.2219 121.284 10.4976C121.453 10.7733 121.535 11.0808 121.535 11.4307C121.535 11.7753 121.453 12.0882 121.284 12.3586C121.114 12.6342 120.885 12.8517 120.584 13.0054C120.289 13.1592 119.957 13.2387 119.585 13.2387C119.213 13.2387 118.88 13.1592 118.585 13.0054Z" fill="#002157"/>
<path d="M125.414 13.1857L125.409 10.8528L124.218 12.7827H123.918L122.727 10.8847V13.1857H122.087V9.66525H122.644L124.076 11.998L125.497 9.66525H126.048L126.053 13.1857H125.414Z" fill="#002157"/>
<path d="M130.053 9.66525V13.1857H129.386V10.2219H127.507V13.1857H126.846V9.66525H130.053Z" fill="#002157"/>
<path d="M132.987 11.8602L132.303 10.3227L131.627 11.8602H132.987ZM133.205 12.3744H131.392L131.036 13.1909H130.342L131.976 9.6705H132.637L134.276 13.1909H133.572L133.205 12.3744Z" fill="#002157"/>
<path d="M137.887 9.66525V13.1857H137.215V11.6799H135.336V13.1857H134.664V9.66525H135.336V11.1179H137.215V9.66525H137.887Z" fill="#002157"/>
<path d="M138.674 9.66525H139.335V12.1677L141.286 9.66525H141.914V13.1857H141.248V10.6937L139.303 13.1857H138.674V9.66525Z" fill="#002157"/>
<path d="M143.607 9.24641C143.449 9.1245 143.372 8.94425 143.368 8.70566H143.837C143.842 8.82758 143.881 8.923 143.963 8.99191C144.039 9.06083 144.159 9.09266 144.307 9.09266C144.454 9.09266 144.575 9.06083 144.657 8.99191C144.738 8.923 144.783 8.82758 144.787 8.70566H145.253C145.247 8.93891 145.165 9.11916 145.007 9.24641C144.848 9.37366 144.613 9.432 144.307 9.432C144.001 9.432 143.766 9.36841 143.607 9.24641ZM142.701 9.66525H143.362V12.1624L145.312 9.66525H145.941V13.1857H145.274V10.6938L143.329 13.1857H142.701V9.66525Z" fill="#002157"/>
<path d="M54.5529 19.1555V22.4056H61.273V25.6343H54.5529V30.6976H50.2476V15.9267H62.1854V19.1555H54.5529Z" fill="#002157"/>
<path d="M68.6868 15.9267H64.3815V30.7029H68.6868V15.9267Z" fill="#002157"/>
<path d="M70.8834 15.9267H75.1885V27.3839H83.0451L81.4934 30.6976H70.8834V15.9267Z" fill="#002157"/>
<path d="M94.4634 24.749L92.5075 20.0197L90.5517 24.749H94.4634ZM95.7259 27.8293H89.29L88.0934 30.6976H83.7009L90.4209 15.9214H94.6609L101.403 30.6976H96.9225L95.7259 27.8293Z" fill="#002157"/>
<path d="M116.984 15.9267V30.6976H113.444L106.718 22.8244V30.6976H102.501V15.9267H106.046L112.767 23.7946V15.9267H116.984Z" fill="#002157"/>
<path d="M143.629 27.0075C144.253 26.6576 144.744 26.1592 145.11 25.5177C145.471 24.8762 145.657 24.1445 145.657 23.3122C145.657 22.4797 145.476 21.7481 145.11 21.1066C144.749 20.4651 144.253 19.972 143.629 19.6167C143.007 19.2668 142.307 19.0866 141.542 19.0866C140.772 19.0866 140.078 19.2615 139.455 19.6167C138.833 19.9667 138.335 20.4651 137.975 21.1066C137.614 21.7481 137.428 22.4797 137.428 23.3122C137.428 24.1445 137.608 24.8762 137.975 25.5177C138.335 26.1592 138.833 26.6576 139.455 27.0075C140.078 27.3574 140.772 27.5324 141.542 27.5324C142.312 27.5324 143.007 27.3574 143.629 27.0075ZM137.204 30.003C135.92 29.3403 134.915 28.4284 134.183 27.2567C133.451 26.0902 133.085 24.7754 133.085 23.3122C133.085 21.8488 133.451 20.534 134.183 19.3676C134.915 18.2012 135.92 17.2839 137.204 16.6212C138.488 15.9585 139.936 15.6297 141.542 15.6297C143.148 15.6297 144.597 15.9585 145.88 16.6212C147.164 17.2839 148.169 18.1958 148.902 19.3676C149.633 20.534 150 21.8488 150 23.3122C150 24.7754 149.633 26.0902 148.902 27.2567C148.169 28.4231 147.159 29.3403 145.88 30.003C144.597 30.6657 143.148 30.9945 141.542 30.9945C139.936 30.9945 138.488 30.6657 137.204 30.003Z" fill="#002157"/>
<path d="M130.954 25.804C129.965 26.9545 128.768 27.5324 127.365 27.5324C126.54 27.5324 125.802 27.3574 125.158 27.0022C124.513 26.6522 124.01 26.1539 123.655 25.5124C123.3 24.8708 123.119 24.1392 123.119 23.3068C123.119 22.4744 123.3 21.7427 123.655 21.1012C124.01 20.4597 124.513 19.9667 125.158 19.6115C125.802 19.2615 126.54 19.0812 127.365 19.0812C128.768 19.0812 129.965 19.6592 130.954 20.8097L132.588 17.3263C132.085 16.934 131.528 16.6053 130.916 16.3402C129.796 15.8631 128.545 15.6245 127.152 15.6245C125.556 15.6245 124.125 15.9532 122.858 16.6053C121.59 17.2574 120.59 18.1693 119.868 19.3357C119.142 20.5022 118.782 21.8277 118.782 23.3015C118.782 24.7807 119.142 26.1009 119.868 27.2726C120.595 28.439 121.59 29.3509 122.858 30.003C124.125 30.6552 125.556 30.9839 127.152 30.9839C128.545 30.9839 129.796 30.7453 130.916 30.2682C131.533 30.003 132.091 29.6743 132.593 29.2767L130.954 25.804Z" fill="#002157"/>
</svg>
