<svg width="130" height="56" viewBox="0 0 130 56" fill="none" xmlns="http://www.w3.org/2000/svg">
<path d="M70.005 51.2167C70.005 52.8623 71.214 53.5063 72.722 53.5063C74.36 53.5063 74.984 52.6972 74.984 51.8937C74.984 51.0681 74.529 50.7379 74.1 50.5729C73.346 50.2867 72.371 50.094 70.902 49.6923C69.069 49.1969 68.536 48.0852 68.536 46.979C68.536 44.8381 70.512 43.8309 72.449 43.8309C74.685 43.8309 76.557 45.0142 76.557 47.2486H74.685C74.594 45.8672 73.658 45.3609 72.371 45.3609C71.5 45.3609 70.408 45.6746 70.408 46.7533C70.408 47.5018 70.915 47.9201 71.682 48.1292C71.851 48.1787 74.217 48.7897 74.776 48.9548C76.18 49.373 76.856 50.5728 76.856 51.6791C76.856 54.0786 74.724 55.0363 72.592 55.0363C70.148 55.0363 68.172 53.8695 68.133 51.2167H70.005Z" fill="#231F20"/>
<path d="M83.564 50.2261C83.5121 49.1474 82.771 48.1788 81.627 48.1788C80.431 48.1788 79.625 49.0758 79.586 50.2261H83.564ZM79.586 51.3488C79.586 52.5651 80.236 53.6439 81.666 53.6439C82.654 53.6439 83.252 53.2091 83.551 52.356H85.176C84.799 54.0456 83.356 54.9922 81.666 54.9922C79.235 54.9922 77.87 53.2971 77.87 50.9195C77.87 48.7181 79.313 46.8304 81.627 46.8304C84.058 46.8304 85.566 49.0318 85.28 51.3488H79.586Z" fill="#231F20"/>
<path d="M86.58 47.0395H88.192V48.5365H88.2182C88.4132 47.7109 89.4272 46.8304 90.4802 46.8304C90.8702 46.8304 90.9742 46.8579 91.1302 46.8744V48.52C90.8833 48.4925 90.6232 48.4484 90.3892 48.4484C89.2192 48.4484 88.2962 49.3896 88.2962 51.0957V54.7831H86.5802L86.58 47.0395Z" fill="#231F20"/>
<path d="M91.468 47.0395H93.327L95.29 52.9834H95.3162L97.2142 47.0395H98.9822L96.2002 54.7831H94.2892L91.468 47.0395Z" fill="#231F20"/>
<path d="M100.061 47.0395H101.764V54.7831H100.061V47.0395ZM100.061 44.0896H101.764V45.7021H100.061V44.0896Z" fill="#231F20"/>
<path d="M108.862 49.6317C108.719 48.6851 108.03 48.1788 107.081 48.1788C106.197 48.1788 104.962 48.6411 104.962 50.9911C104.962 52.2789 105.534 53.6439 107.016 53.6439C108.004 53.6439 108.693 52.9834 108.862 51.8772H110.565C110.253 53.8805 109.005 54.9922 107.016 54.9922C104.585 54.9922 103.246 53.2696 103.246 50.9911C103.246 48.6575 104.52 46.8304 107.068 46.8304C108.875 46.8304 110.396 47.7275 110.565 49.6317H108.862Z" fill="#231F20"/>
<path d="M117.286 50.2261C117.221 49.1474 116.493 48.1788 115.336 48.1788C114.153 48.1788 113.334 49.0758 113.295 50.2261H117.286ZM113.295 51.3488C113.295 52.5651 113.958 53.6439 115.375 53.6439C116.363 53.6439 116.961 53.2091 117.26 52.356H118.885C118.508 54.0456 117.065 54.9922 115.375 54.9922C112.944 54.9922 111.579 53.2971 111.579 50.9195C111.579 48.7181 113.022 46.8304 115.336 46.8304C117.78 46.8304 119.275 49.0318 118.989 51.3488H113.295Z" fill="#231F20"/>
<path d="M121.589 52.2955C121.667 53.2861 122.421 53.6439 123.331 53.6439C123.981 53.6439 125.112 53.5063 125.06 52.6257C125.021 51.7286 123.773 51.624 122.525 51.3378C121.264 51.0681 120.042 50.6169 120.042 49.0428C120.042 47.3532 121.862 46.8304 123.279 46.8304C124.865 46.8304 126.308 47.4853 126.516 49.2079H124.735C124.579 48.4044 123.903 48.1788 123.162 48.1788C122.668 48.1788 121.745 48.2943 121.745 48.9713C121.745 49.8078 123.006 49.9289 124.267 50.2151C125.515 50.4958 126.763 50.9471 126.763 52.4771C126.763 54.3153 124.917 54.9922 123.305 54.9922C121.355 54.9922 119.899 54.1227 119.873 52.2955H121.589Z" fill="#231F20"/>
<path d="M0 54.7556H54.808V0H0V54.7556Z" fill="#F47216"/>
<path d="M18.681 47.9971C18.681 48.5089 19.006 48.9933 19.591 48.9933C20.215 48.9933 20.826 48.7291 21.45 48.1843V46.3791C19.578 46.6102 18.681 47.089 18.681 47.9971ZM21.489 49.5987C20.722 50.1215 19.877 50.3582 18.98 50.3582C17.55 50.3582 16.718 49.4115 16.718 48.1347C16.718 46.4341 18.278 45.526 21.515 45.1683V44.739C21.515 44.1831 21.086 43.8639 20.319 43.8639C19.539 43.8639 18.915 44.1666 18.46 44.739L17.095 43.963C17.81 42.9723 18.902 42.4715 20.345 42.4715C22.334 42.4715 23.452 43.3301 23.452 44.739C23.452 44.739 23.452 50.2591 23.452 50.2756H21.671L21.489 49.5987Z" fill="white"/>
<path d="M25.038 42.8402L26.702 42.609L26.8839 43.5116C27.8199 42.8237 28.5739 42.4604 29.4969 42.4604C31.0699 42.4604 31.8889 43.2915 31.8889 44.9426V50.2591H29.8739V45.2948C29.8739 44.3592 29.627 43.9354 28.8989 43.9354C28.3009 43.9354 27.7029 44.2161 27.0269 44.783V50.2591H25.0379L25.038 42.8402Z" fill="white"/>
<path d="M46.683 45.4434C46.683 44.4197 46.098 43.8199 45.149 43.8199C44.239 43.8199 43.667 44.4032 43.589 45.4434H46.683ZM45.175 50.4077C42.926 50.4077 41.587 48.9713 41.587 46.4506C41.587 43.9024 42.939 42.4605 45.149 42.4605C47.333 42.4605 48.646 43.8639 48.646 46.346C48.646 46.4726 48.6329 46.6102 48.6329 46.7423H43.5629C43.576 48.1897 44.1739 48.9162 45.3439 48.9162C46.1109 48.9162 46.6179 48.6135 47.0859 47.9366L48.5549 48.7566C47.9049 49.8353 46.748 50.4077 45.175 50.4077Z" fill="white"/>
<path d="M6.74698 44.1226C5.239 44.1226 4.96599 45.482 4.96599 46.4616C4.96599 47.4412 5.239 48.7896 6.74698 48.7896C8.24198 48.7896 8.51498 47.4412 8.51498 46.4616C8.51498 45.482 8.24198 44.1226 6.74698 44.1226ZM6.74698 50.4902C4.758 50.4902 2.96399 49.2244 2.96399 46.4616C2.96399 43.6933 4.758 42.433 6.74698 42.433C8.72298 42.433 10.517 43.6933 10.517 46.4616C10.517 49.2244 8.72298 50.4902 6.74698 50.4902Z" fill="white"/>
<path d="M11.895 42.6366H13.806V43.5337C14.17 43.0494 15.067 42.4769 15.899 42.4769C15.9771 42.4769 16.0809 42.477 16.159 42.4875V44.3697C16.1328 44.3697 16.094 44.3697 16.0681 44.3697C15.1971 44.3697 14.2481 44.5073 13.9361 45.1897V50.2641H11.895L11.895 42.6366Z" fill="white"/>
<path d="M40.378 42.6091V49.8353C40.378 51.1177 40.274 53.209 36.634 53.2366C35.139 53.2418 33.748 52.6422 33.475 51.3323L35.451 51.0131C35.542 51.3929 35.776 51.7671 36.894 51.7671C37.921 51.7671 38.428 51.2663 38.428 50.0665V49.1859L38.4018 49.1584C38.0768 49.7252 37.5958 50.2646 36.4258 50.2646C34.6578 50.2646 33.2538 49.0318 33.2538 46.4506C33.2538 43.8969 34.6968 42.466 36.3218 42.466C37.8428 42.4607 38.4148 43.1594 38.5448 43.5227L38.5186 43.5174L38.6745 42.6093L40.378 42.6091ZM36.79 48.6301C38.311 48.6196 38.454 47.067 38.454 46.0543C38.454 44.8545 37.856 43.8914 36.777 43.8914C36.062 43.8914 35.256 44.4198 35.256 46.1369C35.256 47.078 35.321 48.6356 36.79 48.6301Z" fill="white"/>
<path d="M52.728 42.2624H52.312V40.1545H52.2989L51.4669 42.2624H51.1939L50.3749 40.1545H50.3618V42.2624H49.9588V39.7362H50.5958L51.3498 41.6515L52.0908 39.7362H52.7278L52.728 42.2624ZM49.439 40.0719H48.646V42.2624H48.23V40.0719H47.437V39.7362H49.439V40.0719Z" fill="white"/>
<path d="M70.369 38.1732H73.684C74.828 38.1732 75.478 37.5568 75.478 36.478C75.478 35.4323 74.828 34.8325 73.684 34.8325H70.369V38.1732ZM70.369 33.4841H73.424C74.334 33.4841 74.997 32.9612 74.997 31.9981C74.997 30.9194 74.451 30.5341 73.424 30.5341H70.369V33.4841ZM68.497 29.0041H73.697C75.621 29.0041 76.882 29.8737 76.882 31.6569C76.882 32.7356 76.323 33.5116 75.348 33.9354V33.9629C76.648 34.2491 77.35 35.2672 77.35 36.7202C77.35 38.3988 76.193 39.6977 73.411 39.6977H68.497V29.0041Z" fill="#231F20"/>
<path d="M85.618 39.6977H83.941V38.619H83.9019C83.4859 39.4005 82.563 39.9068 81.705 39.9068C79.677 39.9068 78.806 38.8886 78.806 36.8688V31.9541H80.5219V36.7037C80.5219 38.0686 81.0679 38.5584 82.004 38.5584C83.4209 38.5584 83.9019 37.6448 83.9019 36.4505V31.9541H85.618L85.618 39.6977Z" fill="#231F20"/>
<path d="M88.699 37.2155C88.7899 38.2007 89.544 38.5584 90.454 38.5584C91.104 38.5584 92.222 38.4263 92.183 37.5402C92.1311 36.6431 90.896 36.5386 89.648 36.2524C88.387 35.9827 87.165 35.5369 87.165 33.9629C87.165 32.2677 88.985 31.7449 90.402 31.7449C91.988 31.7449 93.431 32.4054 93.639 34.128H91.858C91.702 33.319 91.026 33.0933 90.272 33.0933C89.778 33.0933 88.868 33.2144 88.868 33.8858C88.868 34.7279 90.129 34.8435 91.39 35.1297C92.625 35.4158 93.886 35.8671 93.886 37.3916C93.886 39.2353 92.027 39.9068 90.428 39.9068C88.478 39.9068 87.022 39.0372 86.996 37.2155H88.699Z" fill="#231F20"/>
<path d="M95.238 31.9541H96.9539V39.6977H95.238V31.9541ZM95.238 29.0041H96.9539V30.6222H95.238V29.0041Z" fill="#231F20"/>
<path d="M98.813 31.9541H100.425V33.0933L100.451 33.1263C100.971 32.2678 101.855 31.7449 102.869 31.7449C104.546 31.7449 105.612 32.6475 105.612 34.3812V39.6976H103.909V34.8325C103.87 33.6162 103.389 33.0933 102.388 33.0933C101.244 33.0933 100.516 33.9904 100.516 35.1297V39.6976H98.8132L98.813 31.9541Z" fill="#231F20"/>
<path d="M112.736 35.1462C112.671 34.0675 111.943 33.0933 110.786 33.0933C109.603 33.0933 108.784 33.9904 108.745 35.1462H112.736ZM108.745 36.2689C108.745 37.4797 109.408 38.5584 110.825 38.5584C111.813 38.5584 112.411 38.1291 112.723 37.2705H114.335C113.958 38.9657 112.528 39.9068 110.825 39.9068C108.407 39.9068 107.042 38.2172 107.042 35.8341C107.042 33.6326 108.472 31.7449 110.786 31.7449C113.23 31.7449 114.725 33.9464 114.439 36.2689H108.745Z" fill="#231F20"/>
<path d="M117.039 37.2155C117.13 38.2007 117.871 38.5584 118.794 38.5584C119.431 38.5584 120.562 38.4263 120.51 37.5402C120.471 36.6431 119.223 36.5386 117.975 36.2524C116.714 35.9827 115.492 35.5369 115.492 33.9629C115.492 32.2677 117.325 31.7449 118.729 31.7449C120.315 31.7449 121.758 32.4054 121.966 34.128H120.185C120.029 33.319 119.353 33.0933 118.612 33.0933C118.118 33.0933 117.195 33.2144 117.195 33.8858C117.195 34.7279 118.456 34.8435 119.717 35.1297C120.965 35.4158 122.226 35.8671 122.226 37.3916C122.226 39.2353 120.367 39.9068 118.755 39.9068C116.805 39.9068 115.349 39.0372 115.323 37.2155H117.039Z" fill="#231F20"/>
<path d="M124.813 37.2155C124.904 38.2007 125.658 38.5584 126.568 38.5584C127.218 38.5584 128.336 38.4263 128.297 37.5402C128.245 36.6431 126.997 36.5386 125.762 36.2524C124.501 35.9827 123.266 35.5369 123.266 33.9629C123.266 32.2677 125.099 31.7449 126.503 31.7449C128.102 31.7449 129.532 32.4054 129.74 34.128H127.959C127.816 33.319 127.14 33.0933 126.386 33.0933C125.892 33.0933 124.982 33.2144 124.982 33.8858C124.982 34.7279 126.243 34.8435 127.491 35.1297C128.739 35.4158 130 35.8671 130 37.3916C130 39.2353 128.141 39.9068 126.542 39.9068C124.592 39.9068 123.136 39.0372 123.11 37.2155H124.813Z" fill="#231F20"/>
</svg>
