<svg width="70" height="70" viewBox="0 0 70 70" fill="none" xmlns="http://www.w3.org/2000/svg">
<path d="M70 0H0V70H70V0Z" fill="black"/>
<path d="M70 0H0V70H70V0Z" fill="#FF0032"/>
<path d="M46.6327 5.38348V8.60501H53.6771V21.5341H57.6146V8.60501H64.6447V5.38348H46.6327Z" fill="white"/>
<path d="M21.3048 5.38348L16.1503 16.0647L11.0102 5.38348H5.3833V21.5341H9.33503V9.97952L14.3606 19.7443H17.9544L22.9799 9.97952V21.5341H26.9174V5.38348H21.3048Z" fill="white"/>
<path d="M60.7069 59.2329C60.6066 59.8772 60.3489 60.407 59.9337 60.8079C59.5471 61.1802 59.0173 61.4522 58.3587 61.6097C57.7144 61.7529 56.7552 61.8388 55.7529 61.8388C54.7077 61.8388 53.7913 61.7099 53.0038 61.4379C52.245 61.1802 51.6436 60.722 51.2284 60.092C50.7988 59.462 50.5841 58.5458 50.5841 57.3574V55.7108C50.5841 54.5367 50.7988 53.6203 51.2284 52.976C51.6579 52.346 52.245 51.888 53.0038 51.6303C53.777 51.3582 54.7077 51.2293 55.7529 51.2293C56.7552 51.2293 57.7144 51.3153 58.3587 51.4584C59.0173 51.6159 59.5471 51.8735 59.9337 52.2601C60.3489 52.661 60.6066 53.1908 60.7069 53.8351H64.6442C64.5297 52.5035 64.086 51.3725 63.2985 50.4562C62.5826 49.6257 61.5803 49.0243 60.3346 48.6521C59.1319 48.2941 57.5425 48.108 55.7529 48.108C53.8629 48.108 52.2307 48.38 50.8848 48.9098C49.5247 49.4539 48.4651 50.3559 47.7349 51.6016C47.0333 52.7899 46.6754 54.3935 46.6467 56.3408V56.5269L46.8615 56.5412L46.6467 56.5555V56.7417C46.6754 58.689 47.0333 60.2924 47.7349 61.4808C48.4651 62.7265 49.5247 63.6286 50.8848 64.1727C52.2307 64.7024 53.8629 64.9745 55.7529 64.9745C57.5425 64.9745 59.1319 64.7883 60.3346 64.4304C61.5803 64.0581 62.5682 63.4568 63.2985 62.6263C64.086 61.7243 64.544 60.5788 64.6442 59.2472H60.7069V59.2329Z" fill="white"/>
</svg>
