<svg width="150" height="34" viewBox="0 0 150 34" fill="none" xmlns="http://www.w3.org/2000/svg">
<path d="M98.4736 11.5965V14.7148H94.8104V25.0508H90.6496V14.7148H87.3273L86.2516 11.5965H98.4736Z" fill="#00ABC8"/>
<path d="M100.563 25.0508V11.5965H110.947V14.7148H104.725V16.8948H109.606V19.7904H104.725V21.9325H111.212V25.0508H100.563Z" fill="#00ABC8"/>
<path d="M117.44 21.9325H122.378L123.454 25.0508H113.279V11.5965H117.44V21.9325Z" fill="#00ABC8"/>
<path d="M64.338 19.7904H69.6791V16.8995H64.338V14.7148H71.0247V11.5965H60.1773V25.0508H71.2904V21.9325H64.338V19.7904Z" fill="black"/>
<path d="M86.28 25.0508L82.8916 19.7572C83.3749 19.5819 83.8015 19.3497 84.1571 19.0558C85.0527 18.3213 85.5027 17.2407 85.5027 15.8143C85.5027 14.5347 85.0429 13.5158 84.1282 12.7481C83.2091 11.9804 81.9153 11.5965 80.2473 11.5965H73.3565V25.0508H77.4322V20.3828H79.1335L81.7353 25.0508H86.28ZM77.4322 14.6343H79.5742C80.1573 14.6343 80.598 14.748 80.8871 14.9802C81.1805 15.2124 81.3229 15.5868 81.3229 16.1033C81.3229 16.6199 81.1762 16.9896 80.8871 17.2123C80.5931 17.4351 80.1573 17.5488 79.5742 17.5488H77.4322V14.6343Z" fill="black"/>
<path d="M9.03742 18.0182L8.36449 20.6768H8.32658L7.6536 18.0182L5.84804 11.6631H0V25.0652H3.65384V19.7006L3.57327 15.3785H3.63488L6.53995 25.0652H9.87153L12.8145 15.3785H12.8524L12.7718 19.7006V25.0652H16.4304V11.6631H10.843L9.03742 18.0182Z" fill="black"/>
<path d="M22.3215 11.6631L17.8147 25.0652H21.9566L22.7291 22.2834H26.8142L27.5677 25.0652H31.8328L27.3023 11.6631H22.3215ZM23.4636 19.6011L24.2077 16.9187L24.7574 14.7482H24.8L25.3688 16.9424L26.0891 19.6011H23.4636Z" fill="black"/>
<path d="M45.2629 14.7672H49.5707V25.0652H53.7127V14.7672H57.978V11.6631H45.2629V14.7672Z" fill="black"/>
<path d="M43.993 18.7053C43.6186 18.1983 43.1257 17.8002 42.5002 17.5159C41.2348 16.9377 39.851 16.7007 38.5004 16.3927C38.0265 16.2837 37.6568 16.1605 37.3915 16.0277C37.1308 15.8951 36.9649 15.6154 37.0218 15.3217C37.1782 14.5018 38.9601 14.5539 39.5762 14.5776C41.069 14.6439 42.3248 14.8477 43.3247 15.0894V11.8574C42.1021 11.5493 40.4529 11.4545 39.216 11.4545C37.9412 11.4545 36.401 11.6441 35.4958 12.0232C34.5907 12.4024 33.8987 12.9284 33.4248 13.6061C32.9509 14.2838 32.714 15.061 32.714 15.9424C32.714 16.7671 32.8988 17.4353 33.2732 17.9423C33.6476 18.4495 34.1452 18.8475 34.766 19.1319C35.6332 19.5252 36.5621 19.7621 37.4862 19.9707C38.2729 20.146 39.1449 20.2455 39.87 20.6199C40.1306 20.7526 40.2965 21.0322 40.2396 21.3261C40.0832 22.1459 38.7515 22.0938 38.1402 22.0701C36.8464 22.0132 35.0266 21.8 33.1168 21.2218V24.4349C35.1072 24.9041 37.6947 25.1932 38.5004 25.1932C39.7752 25.1932 40.8652 25.0036 41.7704 24.6245C42.6755 24.2453 43.3674 23.7193 43.8413 23.0416C44.3152 22.3639 44.5522 21.5867 44.5522 20.7052C44.5522 19.8759 44.3674 19.2124 43.993 18.7053Z" fill="black"/>
<path d="M0 30.563H0.554471V31.8758H2.0615V30.563H2.61598V33.7193H2.0615V32.3876H0.554471V33.7193H0V30.563Z" fill="black"/>
<path d="M4.81028 30.5623H5.36475V33.7185H4.81028V30.5623Z" fill="black"/>
<path d="M7.42145 32.1405C7.42145 31.2591 8.09913 30.5103 9.04696 30.5103C9.59667 30.5103 9.93316 30.662 10.2602 30.9368L9.90944 31.3539C9.66775 31.1453 9.42605 31.0174 9.02798 31.0174C8.44506 31.0174 8.00433 31.5292 8.00433 32.1405C8.00433 32.7898 8.43087 33.2684 9.07538 33.2684C9.37391 33.2684 9.64407 33.1737 9.83836 33.0315V32.4391H9.03273V31.9557H10.3739V33.2827C10.0611 33.5481 9.61565 33.7755 9.0564 33.7755C8.07071 33.7755 7.42145 33.0694 7.42145 32.1405Z" fill="black"/>
<path d="M12.4448 30.5623H12.9993V31.8749H14.5063V30.5623H15.0608V33.7185H14.5063V32.3868H12.9993V33.7185H12.4448V30.5623Z" fill="black"/>
<path d="M17.0699 32.0692H18.4064V32.6047H17.0699V32.0692Z" fill="black"/>
<path d="M22.8805 33.477C22.6151 33.6666 22.2881 33.7756 21.9184 33.7756C20.9517 33.7756 20.2739 33.041 20.2739 32.1453C20.2739 31.2591 20.9612 30.5151 21.9279 30.5151C22.8947 30.5151 23.5724 31.2496 23.5724 32.1453C23.5724 32.5007 23.4586 32.8372 23.2501 33.1121L23.6103 33.4202L23.2549 33.8182L22.8805 33.477ZM22.4729 33.1121L21.9327 32.6524L22.2881 32.2449L22.8331 32.7424C22.9421 32.5766 22.9942 32.3728 22.9942 32.1453C22.9942 31.534 22.5487 31.0222 21.9232 31.0222C21.2976 31.0222 20.8616 31.5245 20.8616 32.1453C20.8616 32.7567 21.3071 33.2685 21.9327 33.2685C22.1365 33.2638 22.3213 33.2069 22.4729 33.1121Z" fill="black"/>
<path d="M25.5525 32.3824V30.5673H26.1069V32.3634C26.1069 32.9511 26.4103 33.2638 26.9031 33.2638C27.3959 33.2638 27.6945 32.9653 27.6945 32.3871V30.572H28.249V32.3634C28.249 33.3065 27.7183 33.7804 26.8936 33.7804C26.0738 33.7709 25.5525 33.297 25.5525 32.3824Z" fill="black"/>
<path d="M31.3683 30.5433H31.8801L33.2686 33.7185H32.681L32.3587 32.9555H30.8659L30.5437 33.7185H29.975L31.3683 30.5433ZM32.1644 32.4674L31.6195 31.2068L31.0792 32.4674H32.1644Z" fill="black"/>
<path d="M35.1645 30.5623H35.719V33.2114H37.3777V33.7137H35.1645V30.5623Z" fill="black"/>
<path d="M39.3393 30.5623H39.8938V33.7185H39.3393V30.5623Z" fill="black"/>
<path d="M42.8649 31.0791H41.8649V30.5673H44.4241V31.0791H43.4241V33.7188H42.8649V31.0791Z" fill="black"/>
<path d="M47.2917 32.4771L46.0406 30.5673H46.6946L47.576 31.9653L48.467 30.5673H49.102L47.8509 32.4629V33.7188H47.2917V32.4771Z" fill="black"/>
<path d="M53.6791 30.5623H54.2336V33.7185H53.6791V30.5623Z" fill="black"/>
<path d="M57.2051 31.0791H56.2053V30.5673H58.7645V31.0791H57.7642V33.7188H57.2051V31.0791Z" fill="black"/>
<path d="M63.438 30.5623H63.9922V33.7185H63.438V30.5623Z" fill="black"/>
<path d="M66.1915 30.5623H66.7031L68.3951 32.7422V30.5623H68.94V33.7185H68.4753L66.7364 31.4721V33.7185H66.1915V30.5623Z" fill="black"/>
<path d="M71.1011 30.5623H73.4465V31.0646H71.6553V31.9271H73.2475V32.4295H71.6553V33.7137H71.1011V30.5623Z" fill="black"/>
<path d="M76.8213 30.5623C77.5604 30.5623 77.9918 30.9603 77.9918 31.5669C77.9918 32.0835 77.6787 32.3963 77.238 32.5242L78.0911 33.7185H77.4371L76.6506 32.619H75.9633V33.7185H75.4091V30.5623H76.8213ZM76.7782 32.1261C77.1764 32.1261 77.4278 31.9176 77.4278 31.5906C77.4278 31.2542 77.1862 31.0693 76.7738 31.0693H75.9682V32.1309H76.7782V32.1261Z" fill="black"/>
<path d="M81.1418 30.5433H81.654L83.0422 33.7185H82.4547L82.1324 32.9555H80.6395L80.3176 33.7185H79.7487L81.1418 30.5433ZM81.9333 32.4674L81.3884 31.2068L80.8484 32.4674H81.9333Z" fill="black"/>
<path d="M84.678 33.259L85.0096 32.861C85.3129 33.1216 85.6118 33.2732 86.0051 33.2732C86.346 33.2732 86.5642 33.1168 86.5642 32.8657C86.5642 32.6382 86.4365 32.5197 85.8535 32.3775C85.1804 32.2211 84.8013 32.0221 84.8013 31.4297C84.8013 30.8895 85.2513 30.5151 85.8769 30.5151C86.3367 30.5151 86.7016 30.6573 87.024 30.9132L86.7256 31.3302C86.4409 31.117 86.1567 31.0079 85.8676 31.0079C85.5453 31.0079 85.356 31.1738 85.356 31.3918C85.356 31.6335 85.4978 31.7425 86.1044 31.8894C86.7726 32.0505 87.1189 32.2923 87.1189 32.823C87.1189 33.4154 86.6542 33.7661 85.9909 33.7661C85.5076 33.7661 85.0527 33.5955 84.678 33.259Z" fill="black"/>
<path d="M89.8347 31.0791H88.8344V30.5673H91.3936V31.0791H90.3938V33.7188H89.8347V31.0791Z" fill="black"/>
<path d="M94.7389 30.5623C95.478 30.5623 95.9095 30.9603 95.9095 31.5669C95.9095 32.0835 95.5964 32.3963 95.1556 32.5242L96.0087 33.7185H95.3547L94.5682 32.619H93.8809V33.7185H93.3267V30.5623H94.7389ZM94.6964 32.1261C95.094 32.1261 95.3455 31.9176 95.3455 31.5906C95.3455 31.2542 95.1038 31.0693 94.6915 31.0693H93.8858V32.1309H94.6964V32.1261Z" fill="black"/>
<path d="M97.8905 32.3824V30.5673H98.4447V32.3634C98.4447 32.9511 98.748 33.2638 99.2411 33.2638C99.7342 33.2638 100.033 32.9653 100.033 32.3871V30.572H100.587V32.3634C100.587 33.3065 100.056 33.7804 99.2318 33.7804C98.4164 33.7709 97.8905 33.297 97.8905 32.3824Z" fill="black"/>
<path d="M102.568 32.1405C102.568 31.2448 103.241 30.5103 104.193 30.5103C104.776 30.5103 105.127 30.7141 105.43 31.0031L105.075 31.4155C104.824 31.1833 104.553 31.0221 104.193 31.0221C103.592 31.0221 103.151 31.5197 103.151 32.1453C103.151 32.7614 103.587 33.2684 104.193 33.2684C104.582 33.2684 104.828 33.112 105.099 32.8562L105.454 33.2163C105.127 33.5575 104.762 33.7755 104.174 33.7755C103.25 33.7755 102.568 33.0552 102.568 32.1405Z" fill="black"/>
<path d="M108.16 31.0791H107.16V30.5673H109.719V31.0791H108.719V33.7188H108.16V31.0791Z" fill="black"/>
<path d="M111.61 32.3824V30.5673H112.165V32.3634C112.165 32.9511 112.468 33.2638 112.96 33.2638C113.453 33.2638 113.752 32.9653 113.752 32.3871V30.572H114.307V32.3634C114.307 33.3065 113.776 33.7804 112.951 33.7804C112.131 33.7709 111.61 33.297 111.61 32.3824Z" fill="black"/>
<path d="M117.833 30.5623C118.572 30.5623 119.003 30.9603 119.003 31.5669C119.003 32.0835 118.69 32.3963 118.25 32.5242L119.103 33.7185H118.449L117.662 32.619H116.975V33.7185H116.421V30.5623H117.833ZM117.79 32.1261C118.188 32.1261 118.439 31.9176 118.439 31.5906C118.439 31.2542 118.198 31.0693 117.785 31.0693H116.98V32.1309H117.79V32.1261Z" fill="black"/>
<path d="M121.036 30.5623H123.377V31.0598H121.591V31.8797H123.174V32.3773H121.591V33.2256H123.397V33.7232H121.036V30.5623Z" fill="black"/>
<path d="M138.501 6.59433L138.47 1.51141L135.851 0V4.01856L132.925 1.09481L132.143 4.01348L136.611 8.48422L138.501 6.59433Z" fill="#00ACC9"/>
<path d="M139.136 6.59433L139.166 1.51141L141.785 0V4.01856L144.711 1.09481L145.493 4.01348L141.026 8.48422L139.136 6.59433Z" fill="#00ACC9"/>
<path d="M134.231 11.4995L129.148 11.53L127.636 14.149H131.655L128.731 17.0752L131.65 17.8576L136.12 13.3894L134.231 11.4995Z" fill="#00ACC9"/>
<path d="M134.231 10.8642L129.148 10.8337L127.636 8.21476H131.655L128.731 5.2885L131.65 4.50613L136.12 8.97431L134.231 10.8642Z" fill="#00ACC9"/>
<path d="M139.136 15.772L139.166 20.8523L141.785 22.3637V18.3452L144.711 21.2714L145.493 18.3502L141.026 13.8795L139.136 15.772Z" fill="#00ACC9"/>
<path d="M138.501 15.772L138.47 20.8523L135.851 22.3637V18.3452L132.925 21.2714L132.143 18.3502L136.611 13.8795L138.501 15.772Z" fill="#00ACC9"/>
<path d="M143.408 10.8642L148.489 10.8337L150 8.21476H145.981L148.907 5.2885L145.987 4.50613L141.515 8.97431L143.408 10.8642Z" fill="#00ACC9"/>
<path d="M143.408 11.4995L148.489 11.53L150 14.149H145.981L148.907 17.0752L145.987 17.8576L141.515 13.3894L143.408 11.4995Z" fill="#00ACC9"/>
</svg>
