<svg width="120" height="48" viewBox="0 0 120 48" fill="none" xmlns="http://www.w3.org/2000/svg">
<path d="M7.51767 20.8002V44.5401C7.51767 46.2923 8.93068 47.7053 10.6829 47.7053C12.4352 47.7053 13.8483 46.2923 13.8483 44.5401V20.8002C13.8483 19.048 12.4352 17.6349 10.6829 17.6349C8.93068 17.5784 7.51767 18.9915 7.51767 20.8002Z" fill="#00A6E0"/>
<path d="M7.34916 12.153C7.34916 13.9616 8.81879 15.4878 10.6275 15.4878C12.4363 15.4878 13.9059 14.0182 13.9059 12.153C13.9059 10.3441 12.4363 8.87455 10.6275 8.87455C8.87524 8.8181 7.34916 10.2877 7.34916 12.153Z" fill="#00A6E0"/>
<path d="M0.113974 12.0956V45.3313C0.113974 46.6314 1.18792 47.7053 2.48796 47.7053C3.78799 47.7053 4.86194 46.6314 4.86194 45.3313V12.0956C4.86194 10.7956 3.78799 9.72162 2.48796 9.72162C1.18792 9.72162 0.113974 10.7956 0.113974 12.0956Z" fill="#0066B2"/>
<path d="M0 5.36995C0 6.72651 1.13047 7.85698 2.48703 7.85698C3.84358 7.85698 4.97405 6.72651 4.97405 5.36995C4.97405 4.01339 3.84358 2.88292 2.48703 2.88292C1.13047 2.88292 0 3.95687 0 5.36995Z" fill="#0066B2"/>
<path d="M16.5616 16.9003V42.9011C16.5616 45.5576 18.7096 47.649 21.3096 47.649C23.9662 47.649 26.0575 45.5012 26.0575 42.9011V16.9003C26.0575 14.2438 23.9097 12.1523 21.3096 12.1523C18.7096 12.1523 16.5616 14.3002 16.5616 16.9003Z" fill="#EE4023"/>
<path d="M16.3906 4.91753C16.3906 7.63064 18.595 9.83504 21.3082 9.83504C24.0213 9.83504 26.2257 7.63064 26.2257 4.91753C26.2257 2.20442 24.0213 0 21.3082 0C18.6516 0 16.3906 2.20442 16.3906 4.91753Z" fill="#EE4023"/>
<path d="M37.3048 46.6884C36.1178 46.6884 35.3265 45.897 35.3265 44.71V40.7534H34.4786V39.623H35.3265V37.4186H36.7961V39.623H38.2091V40.7534H36.7961V44.6535C36.7961 45.2188 37.0786 45.5013 37.5874 45.5013H38.2091V46.7448" fill="#262626"/>
<path d="M40.9787 43.5232C40.9787 44.7103 41.5438 45.5581 42.9004 45.5581C43.6352 45.5581 44.0875 45.2755 44.5961 44.8233L45.5005 45.6712C44.7092 46.4624 43.9743 46.8016 42.8439 46.8016C40.696 46.8016 39.5655 45.5015 39.5655 43.0711C39.5655 40.8101 40.7525 39.397 42.6177 39.397C44.483 39.397 45.6701 40.7536 45.6701 42.845V43.5232M42.5613 40.6405C41.3742 40.6405 40.9787 41.5449 40.9221 42.5624H44.1439C44.1439 41.5449 43.7482 40.6405 42.5613 40.6405Z" fill="#262626"/>
<path d="M49.0632 36.5711H47.5936V46.6887H49.0632V36.5711Z" fill="#262626"/>
<path d="M52.0569 43.5232C52.1133 44.7103 52.6221 45.5581 53.9786 45.5581C54.7134 45.5581 55.1657 45.2755 55.6744 44.8233L56.5787 45.6712C55.7874 46.4624 55.0526 46.8016 53.9222 46.8016C51.7742 46.8016 50.6438 45.5015 50.6438 43.0711C50.6438 40.8101 51.8308 39.397 53.6961 39.397C55.5614 39.397 56.7483 40.7536 56.7483 42.845V43.5232M53.6961 40.6405C52.509 40.6405 52.1133 41.5449 52.0569 42.5624H55.2787C55.2221 41.5449 54.8266 40.6405 53.6961 40.6405Z" fill="#262626"/>
<path d="M62.7973 46.5755C62.4016 46.7451 62.0059 46.8016 61.4972 46.8016C59.4624 46.8016 58.2754 45.4451 58.2754 43.0711C58.2754 40.8101 59.4624 39.397 61.4972 39.397C62.0059 39.397 62.4016 39.4536 62.7973 39.6231C63.193 39.7927 63.419 39.9623 63.8712 40.4145L62.9103 41.3753C62.4582 40.9232 62.1755 40.6971 61.4972 40.6971C60.3102 40.6971 59.7451 41.5449 59.7451 43.0711C59.7451 44.6537 60.3668 45.5016 61.4972 45.5016C62.1755 45.5016 62.4582 45.2755 62.9103 44.8233L63.8712 45.7842C63.419 46.2363 63.193 46.406 62.7973 46.5755Z" fill="#262626"/>
<path d="M70.2008 45.9529C69.6356 46.5182 68.9008 46.8009 68.0528 46.8009C67.205 46.8009 66.4702 46.5182 65.9051 45.9529C65.2833 45.3312 65.0572 44.5399 65.0572 43.1268C65.0572 41.7138 65.2833 40.9224 65.9051 40.3007C66.4702 39.7354 67.205 39.4528 68.0528 39.4528C68.9008 39.4528 69.6921 39.7354 70.2008 40.3007C70.8225 40.9224 71.0486 41.7138 71.0486 43.1268C71.0486 44.5399 70.8225 45.2747 70.2008 45.9529ZM69.1269 41.1485C68.8442 40.8658 68.5051 40.6963 67.9964 40.6963C67.4877 40.6963 67.1486 40.8658 66.8659 41.1485C66.5268 41.6006 66.4138 42.279 66.4138 43.1268C66.4138 44.0877 66.5833 44.653 66.8659 45.0487C67.1486 45.3312 67.4877 45.5008 67.9398 45.5008C68.4485 45.5008 68.7876 45.3312 69.0703 44.9921C69.4094 44.5964 69.5224 43.9182 69.5224 43.0703C69.579 42.2224 69.5226 41.6006 69.1269 41.1485Z" fill="#262626"/>
<path d="M81.8458 46.6877V42.279C81.8458 41.2615 81.2806 40.6398 80.3762 40.6398C79.472 40.6398 78.9066 41.2615 78.9066 42.1659V46.6313H77.4936V42.2224C77.4936 41.2051 76.9283 40.5833 76.0239 40.5833C75.0631 40.5833 74.4979 41.2051 74.4979 42.2224V46.6313H73.0283V39.5093H74.4413V40.2441C75.0066 39.7354 75.5718 39.4528 76.3632 39.4528C77.2674 39.4528 77.8892 39.7919 78.3979 40.5267C79.0197 39.7919 79.6414 39.4528 80.6589 39.4528C82.2415 39.4528 83.259 40.5267 83.259 42.1659V46.8009" fill="#262626"/>
<path d="M68.3927 14.2437C66.4144 14.2437 64.6622 15.0349 63.3622 16.3916C62.0621 15.0915 60.3099 14.2437 58.3316 14.2437C54.488 14.2437 51.3227 17.4089 51.3227 21.2525V32.0484C51.3227 33.1225 52.227 34.0268 53.301 34.0268C54.3749 34.0268 55.2793 33.1225 55.2793 32.0484V21.2525C55.2793 19.5568 56.6359 18.2003 58.3316 18.2003C60.0273 18.2003 61.3839 19.5568 61.3839 21.2525V32.0484C61.3839 33.1225 62.2882 34.0268 63.3622 34.0268C64.4361 34.0268 65.3405 33.1225 65.3405 32.0484V21.2525C65.3405 19.5568 66.6971 18.2003 68.3927 18.2003C70.0885 18.2003 71.4451 19.5568 71.4451 21.2525V32.0484C71.4451 33.1225 72.3493 34.0268 73.4234 34.0268C74.4973 34.0268 75.4017 33.1225 75.4017 32.0484V21.2525C75.4017 17.3525 72.2363 14.2437 68.3927 14.2437Z" fill="#262626"/>
<path d="M36.7408 34.0273H42.5627C45.8975 34.0273 48.6672 31.3142 48.6672 27.9227C48.6672 26.2835 48.0455 24.8139 46.8584 23.74C45.841 22.7792 44.428 22.1574 42.8453 21.9878C42.7888 21.9878 42.7888 21.9878 42.7323 21.9878L41.2061 21.8748L39.906 21.8182C39.8496 21.8182 39.793 21.8182 39.793 21.8182C38.7191 21.8182 37.8147 20.9703 37.8147 19.9529C37.8147 18.879 38.7191 18.0312 39.793 18.0312H45.5584C46.5759 18.0312 47.4237 17.1833 47.4237 16.1659C47.4237 15.1485 46.5759 14.3006 45.5584 14.3006H39.7365C36.6278 14.3006 34.0277 16.8442 34.0277 20.0095C34.0277 21.5357 34.6495 22.9487 35.7234 24.0227C36.7408 24.9835 38.0408 25.5487 39.4539 25.6053C39.5669 25.6053 40.0191 25.6053 40.0191 25.6053L40.9801 25.6619C40.9801 25.6619 41.9409 25.7183 42.3366 25.7749C42.4496 25.7749 42.5061 25.7749 42.6191 25.8314C43.4671 26.001 44.9931 26.4531 44.9931 28.0358C44.9931 29.3358 43.9192 30.3533 42.6757 30.3533H36.7408C35.7234 30.3533 34.8755 31.2011 34.8755 32.2186C34.8755 33.1794 35.7234 34.0273 36.7408 34.0273Z" fill="#262626"/>
<path d="M91.0024 15.9401C89.872 14.8096 88.3459 14.1878 86.7632 14.1878H81.7327C80.7152 14.1878 79.8674 15.0358 79.8674 16.0531C79.8674 17.0706 80.7152 17.9184 81.7327 17.9184H86.7632C88.0633 17.9184 89.0807 18.9358 89.0807 20.1794V21.3098H84.5588C81.1675 21.3098 78.3978 23.9099 78.1152 27.1883C78.1152 27.3013 78.1152 27.9796 78.1152 28.0926C78.3978 31.371 81.1675 33.9711 84.5588 33.9711H90.7764C90.833 33.9711 90.8894 33.9711 90.946 33.9711C91.9634 33.9711 92.8113 33.1232 92.8113 32.1058V20.2359C92.7547 18.5967 92.1329 17.0706 91.0024 15.9401ZM81.7892 27.6969C81.7892 26.2273 83.0328 25.0968 84.5023 25.0968H89.0241V30.2971H84.5023C83.0892 30.2971 81.7892 29.11 81.7892 27.6969Z" fill="#262626"/>
<path d="M118.078 30.3525H115.987C114.969 30.3525 114.122 29.5046 114.122 28.4873V17.9738H117.117C118.135 17.9738 118.983 17.126 118.983 16.1086C118.983 15.0911 118.135 14.2433 117.117 14.2433H114.122V10.0606C114.122 9.04315 113.274 8.19533 112.256 8.19533C111.239 8.19533 110.391 9.04315 110.391 10.0606V28.4873C110.391 31.5959 112.878 34.083 115.987 34.083H118.135C119.152 34.083 120 33.2351 120 32.2177C119.943 31.2004 119.096 30.3525 118.078 30.3525Z" fill="#262626"/>
<path d="M105.528 14.2437H102.42C100.78 14.2437 99.3109 14.8654 98.1804 15.9959C97.0499 17.1264 96.3716 18.6524 96.3716 20.2352V32.1615C96.3716 33.1789 97.2195 34.0268 98.2368 34.0268C99.2543 34.0268 100.102 33.1789 100.102 32.1615V20.2352C100.102 18.9917 101.12 17.9742 102.42 17.9742H105.528C106.546 17.9742 107.394 17.1264 107.394 16.1089C107.394 15.0349 106.546 14.2437 105.528 14.2437Z" fill="#262626"/>
</svg>
