<svg width="150" height="44" viewBox="0 0 150 44" fill="none" xmlns="http://www.w3.org/2000/svg">
<path d="M53.8512 38.2724C52.8068 38.2724 51.8494 38.0983 51.0226 37.7285C50.1741 37.3803 49.4778 36.8581 48.8903 36.1619C48.3029 35.4656 47.846 34.6388 47.5413 33.6379C47.2367 32.6371 47.0844 31.5057 47.0844 30.2437C47.0844 28.8512 47.1932 27.611 47.389 26.5013C47.5849 25.3916 47.933 24.4343 48.3899 23.6075C48.8468 22.7807 49.456 22.1062 50.1958 21.584C50.9356 21.0618 51.8712 20.6701 52.9591 20.4525L58.9208 19.1906L59.3342 21.2794L53.5248 22.4543C52.4804 22.6936 51.6754 23.0418 51.0879 23.5422C50.5004 24.0426 50.0653 24.6736 49.8042 25.4134C49.5431 26.1749 49.3473 27.0453 49.2602 28.0679C49.8042 27.2846 50.4787 26.6536 51.3055 26.1749C52.1323 25.6963 53.1114 25.4569 54.2211 25.4569C55.4178 25.4569 56.4839 25.7398 57.3977 26.3055C58.3116 26.8712 59.0296 27.6327 59.5518 28.5901C60.074 29.5474 60.3351 30.5918 60.3351 31.745C60.3351 32.6371 60.1828 33.4639 59.8782 34.2689C59.5735 35.0522 59.1384 35.7485 58.5509 36.3577C57.9634 36.9452 57.2889 37.4239 56.5057 37.772C55.7224 38.1201 54.8303 38.2724 53.8512 38.2724ZM53.7859 36.1619C54.5909 36.1619 55.2872 35.9878 55.9182 35.6179C56.5492 35.248 57.0278 34.7476 57.3977 34.0949C57.7459 33.4421 57.9417 32.6806 57.9417 31.7885C57.9417 30.8964 57.7676 30.1131 57.3977 29.4604C57.0496 28.8077 56.5492 28.3072 55.9182 27.9373C55.2872 27.5892 54.5909 27.3934 53.7859 27.3934C52.9809 27.3934 52.2628 27.5674 51.6319 27.9373C51.0009 28.2855 50.5222 28.8077 50.1523 29.4604C49.8042 30.1131 49.6084 30.8964 49.6084 31.7885C49.6084 32.6806 49.7824 33.4421 50.1523 34.0949C50.5004 34.7476 51.0009 35.248 51.6319 35.6179C52.2846 35.9878 52.9809 36.1619 53.7859 36.1619Z" fill="black"/>
<path d="M62.9896 37.9896V24.7607H65.1218V34.6823L73.1506 24.7607H75.1305V37.9896H72.9983V28.0896L64.926 37.9896H62.9896Z" fill="black"/>
<path d="M78.4813 24.7824H80.6136V26.436C81.5709 25.0218 83.3116 24.4778 84.8782 24.4778C88.7946 24.4778 91.2097 27.2411 91.2097 31.1575C91.2097 35.2045 88.5335 38.2289 84.6171 38.2289C82.9417 38.2289 81.5709 37.8372 80.5918 36.8799V43.0809H78.4813V24.7824ZM80.6353 29.2211V34.1601C81.4404 35.6179 82.9199 36.2272 84.4865 36.2272C87.0975 36.2272 88.9904 34.2037 88.9904 31.3098C88.9904 28.3507 87.3586 26.4795 84.6823 26.4795C82.5936 26.4795 81.1575 27.8721 80.6353 29.2211Z" fill="black"/>
<path d="M91.7972 24.7824H94.517L99.1297 30.309H99.8912V24.7824H102.023V30.309H102.763L107.463 24.7824H110.117L104.547 31.1358L110.357 38.0113H107.702L102.916 32.376H102.023V38.0113H99.8912V32.376H98.8686L94.2559 38.0113H91.6667L97.1932 31.2228L91.7972 24.7824Z" fill="black"/>
<path d="M112.402 26.4578C113.621 25.3046 115.731 24.5866 117.689 24.5866C121.214 24.5866 123.107 26.5448 123.107 29.9608V38.1201H120.975V36.1619C120.213 37.2715 118.625 38.2942 116.34 38.2942C113.468 38.2942 111.532 36.6841 111.532 34.2472C111.532 31.3751 114.056 30.1567 117.863 30.1567C118.864 30.1567 120.3 30.3307 120.975 30.5483C120.975 28.1549 120.213 26.6101 117.45 26.6101C115.949 26.6101 114.73 27.1758 113.512 28.0896L112.402 26.4578ZM120.975 33.7467V32.3977C120.322 32.1584 119.212 32.0061 118.146 32.0061C115.47 32.0061 113.795 32.55 113.795 34.1384C113.795 35.5091 115.035 36.3359 116.841 36.3359C119.06 36.3359 120.518 34.8129 120.975 33.7467Z" fill="black"/>
<path d="M147.28 2.67624L142.733 10.2045L138.185 2.67624H135.466V15.8616H138.338V7.74589L141.971 13.7294H143.473L147.106 7.74589V15.8616H150V2.67624H147.28Z" fill="black"/>
<path d="M47.0844 5.35246V2.65448H59.53V5.35246H54.765V15.8616H51.8712V5.35246H47.0844Z" fill="black"/>
<path d="M89.2298 15.8616H86.3359V5.3525H81.658V7.41952C81.658 11.8364 80.7006 14.5562 78.7641 15.5353C78.0896 15.9052 77.1976 16.0575 76.0879 15.9704L75.8486 13.2724C76.6319 13.2724 77.1976 13.0331 77.5674 12.5762C77.9373 12.1193 78.2202 11.4665 78.416 10.5962C78.6771 9.57356 78.8077 8.18105 78.8077 6.39689V2.63275H89.208V15.8616H89.2298Z" fill="black"/>
<path d="M68.0809 16.1662C66.7102 16.1662 65.4917 15.8834 64.4473 15.2959C63.403 14.7302 62.5979 13.9252 62.0104 12.8808C61.423 11.8581 61.1401 10.6397 61.1401 9.29069C61.1401 8.28982 61.3142 7.35422 61.6406 6.52742C61.9669 5.67885 62.4456 4.96084 63.0548 4.32985C63.6641 3.72063 64.3821 3.24195 65.2089 2.89382C66.0357 2.54569 66.9495 2.39339 67.9286 2.39339C68.9948 2.39339 69.9521 2.58921 70.7789 2.98085C71.6275 3.3725 72.3238 3.91645 72.8677 4.61271C73.4117 5.30896 73.8033 6.11401 74.0426 7.04961C74.282 7.98521 74.3037 9.00783 74.1297 10.0957H64.208C64.208 10.7702 64.3603 11.3795 64.6867 11.8799C65.013 12.3803 65.47 12.7937 66.0792 13.0766C66.6884 13.3594 67.4064 13.5117 68.2115 13.5117C68.9295 13.5117 69.6475 13.403 70.3003 13.1854C70.9748 12.9678 71.584 12.6414 72.1715 12.228L73.3246 14.5561C72.933 14.8825 72.4325 15.1654 71.8451 15.4047C71.2576 15.644 70.6266 15.8399 69.9739 15.9704C69.2994 16.101 68.6902 16.1662 68.0809 16.1662ZM64.4038 7.70235H70.9965C70.9748 6.83203 70.6919 6.13577 70.1479 5.63533C69.604 5.1349 68.8425 4.89556 67.8634 4.89556C66.906 4.89556 66.101 5.1349 65.47 5.63533C64.839 6.15753 64.4909 6.83203 64.4038 7.70235Z" fill="black"/>
<path d="M98.8686 16.1662C97.4978 16.1662 96.2794 15.8834 95.235 15.2959C94.1906 14.7302 93.3856 13.9252 92.7981 12.8808C92.2106 11.8581 91.9278 10.6397 91.9278 9.29069C91.9278 8.28982 92.1018 7.35422 92.4282 6.52742C92.7546 5.67885 93.2332 4.96084 93.8425 4.32985C94.4517 3.72063 95.1697 3.24195 95.9965 2.89382C96.8233 2.54569 97.7154 2.39339 98.7163 2.39339C99.7824 2.39339 100.74 2.58921 101.567 2.98085C102.415 3.3725 103.111 3.91645 103.655 4.61271C104.199 5.30896 104.591 6.11401 104.83 7.04961C105.048 7.98521 105.091 9.00783 104.917 10.0957H94.9956C94.9956 10.7702 95.1479 11.3795 95.4743 11.8799C95.8007 12.3803 96.2576 12.7937 96.8668 13.0766C97.4761 13.3594 98.1941 13.5117 98.9991 13.5117C99.7171 13.5117 100.435 13.403 101.088 13.1854C101.762 12.9678 102.372 12.6414 102.959 12.228L104.112 14.5561C103.721 14.8825 103.22 15.1654 102.633 15.4047C102.045 15.644 101.414 15.8399 100.762 15.9704C100.087 16.101 99.456 16.1662 98.8686 16.1662ZM95.1697 7.70235H101.762C101.741 6.83203 101.458 6.13577 100.914 5.63533C100.37 5.1349 99.6084 4.89556 98.6292 4.89556C97.6719 4.89556 96.8668 5.1349 96.2358 5.63533C95.6266 6.15753 95.2785 6.83203 95.1697 7.70235Z" fill="black"/>
<path d="M112.293 10.6614H110.618V15.9921H107.724V2.65448H110.618V8.05046H111.945L116.384 2.65448H119.648L114.447 9.07311L119.604 15.9921H116.34L112.293 10.6614Z" fill="black"/>
<path d="M126.501 16.1227C125.152 16.1227 123.956 15.8181 122.911 15.1871C121.867 14.5561 121.04 13.7293 120.453 12.6849C119.865 11.6406 119.56 10.4874 119.56 9.24717C119.56 8.33333 119.735 7.46301 120.061 6.63621C120.409 5.8094 120.888 5.06963 121.497 4.43864C122.128 3.80766 122.846 3.30722 123.695 2.93734C124.543 2.56745 125.479 2.39339 126.48 2.39339C127.829 2.39339 129.025 2.698 130.07 3.32898C131.114 3.95997 131.941 4.78677 132.528 5.83116C133.116 6.87554 133.42 8.02872 133.42 9.26893C133.42 10.1828 133.246 11.0531 132.898 11.8799C132.55 12.7067 132.071 13.4465 131.462 14.0775C130.853 14.7084 130.113 15.2306 129.265 15.5788C128.438 15.9269 127.524 16.1227 126.501 16.1227ZM126.501 13.2071C127.219 13.2071 127.85 13.0548 128.416 12.7285C128.982 12.4021 129.417 11.9452 129.743 11.3577C130.07 10.7702 130.222 10.0522 130.222 9.24717C130.222 8.44212 130.07 7.72411 129.743 7.13664C129.417 6.54917 128.982 6.09225 128.416 5.76588C127.85 5.43951 127.219 5.28721 126.501 5.28721C125.783 5.28721 125.152 5.43951 124.587 5.76588C124.021 6.09225 123.586 6.54917 123.259 7.13664C122.933 7.72411 122.781 8.44212 122.781 9.24717C122.781 10.0522 122.933 10.7702 123.259 11.3577C123.586 11.9452 124.021 12.4021 124.587 12.7285C125.152 13.0548 125.783 13.2071 126.501 13.2071Z" fill="black"/>
<path d="M33.8773 8.05048C36.1003 8.05048 37.9025 6.24832 37.9025 4.02524C37.9025 1.80216 36.1003 0 33.8773 0C31.6543 0 29.852 1.80216 29.852 4.02524C29.852 6.24832 31.6543 8.05048 33.8773 8.05048Z" fill="#5900B7"/>
<path d="M26.5013 2.65448H0V5.54828H26.5013V2.65448Z" fill="#7A4BE2"/>
<path d="M35.3133 11.4012H32.4195V37.9025H35.3133V11.4012Z" fill="#7A4BE2"/>
<path d="M27.648 8.2443L8.9089 26.9835L10.9551 29.0296L29.6943 10.2905L27.648 8.2443Z" fill="#7A4BE2"/>
</svg>
