<svg width="120" height="44" viewBox="0 0 120 44" fill="none" xmlns="http://www.w3.org/2000/svg">
<path d="M84.3664 23.9736V40.7422H91.7024V13.6243H85.0216L72.4448 30.2618V13.6243H65.1086V40.7422H71.7898L84.3664 23.9736Z" fill="#EB6446"/>
<path d="M94.0608 13.6242V19.9124H102.97V40.7421H110.961V19.9124H120V13.6242H94.0608Z" fill="#EB6446"/>
<path d="M54.7591 26.9869C54.7591 30.786 51.746 33.7991 47.9469 33.7991C44.1478 33.7991 41.1347 30.786 41.1347 26.9869C41.1347 23.1878 44.1478 20.1747 47.9469 20.1747C51.746 20.1747 54.7591 23.3187 54.7591 26.9869ZM62.2264 26.9869C62.2264 19.1267 55.8072 12.7075 47.9469 12.7075C45.8508 12.7075 43.8858 13.1004 42.1827 13.8865C42.7067 12.5764 43.6238 11.3974 44.6718 10.4803C45.8508 9.43234 47.2919 8.7773 49.1259 8.38426L60.3923 6.0262L58.2962 0L48.471 2.09607C43.6238 3.0131 39.9557 5.10917 37.4666 8.2533C34.9774 11.3974 33.7984 15.5895 33.7984 20.6987V26.9869C33.7984 34.8471 40.2177 41.2663 48.0779 41.2663C55.8072 41.2663 62.2264 34.9782 62.2264 26.9869Z" fill="#EB6446"/>
<path d="M23.5808 26.9865C23.5808 30.7856 20.5677 33.7987 16.7686 33.7987V26.9865H9.95632C9.95632 23.1874 12.9694 20.1743 16.7686 20.1743C20.5677 20.1743 23.5808 23.1874 23.5808 26.9865ZM16.7686 12.7071C8.90832 12.7071 2.62009 19.1263 2.62009 26.9865H0V43.7554L16.7686 43.7551V41.135C24.6288 41.135 31.048 34.7158 31.048 26.8555C31.048 19.1263 24.6288 12.7071 16.7686 12.7071Z" fill="#EB6446"/>
</svg>
