<svg width="140" height="28" viewBox="0 0 140 28" fill="none" xmlns="http://www.w3.org/2000/svg">
<path d="M0 13.5758C0 6.0781 6.0781 0 13.5758 0C21.0735 0 27.1516 6.0781 27.1516 13.5758C27.1516 21.0735 21.0735 27.1516 13.5758 27.1516C6.0781 27.1516 0 21.0735 0 13.5758Z" fill="#FFC904"/>
<path d="M48.9352 0.706612C48.3257 0.794939 46.6122 1.02459 45.1283 1.22774C43.6356 1.43089 42.1252 1.66937 41.763 1.7577C37.8766 2.75579 35.854 5.68824 35.3328 11.1027C35.1915 12.5689 35.218 15.6868 35.377 16.7114C35.9335 20.3681 37.4527 22.7353 40.0142 23.9189C42.1075 24.8905 44.9075 24.9435 47.0803 24.0514C49.3238 23.1328 51.0197 21.0924 51.6645 18.5486C51.9118 17.5682 52.0619 15.9518 51.9913 14.989C51.7793 12.1449 49.9156 9.59228 47.3276 8.62069C46.0469 8.13489 44.192 7.98473 42.9113 8.25855C41.2684 8.60302 39.7668 9.58345 38.8129 10.926C38.5833 11.2352 38.3889 11.4736 38.3713 11.4648C38.3006 11.3941 38.5303 9.61878 38.6893 8.96516C39.1574 7.06613 40.2261 5.98855 42.1782 5.44092C42.8229 5.25544 46.833 4.66365 50.1099 4.26618C50.3396 4.23968 50.5427 4.18669 50.5604 4.16019C50.5692 4.13369 50.525 3.31225 50.4455 2.34066C50.3307 0.909763 50.2777 0.574122 50.1717 0.565289C50.1011 0.556456 49.5446 0.618285 48.9352 0.706612ZM45.4374 11.8004C47.5219 12.3392 48.6613 14.1234 48.4494 16.5171C48.2462 18.8578 47.151 20.324 45.1813 20.8981C44.4658 21.1013 42.9819 21.1013 42.2753 20.8981C40.9063 20.4918 39.9965 19.7499 39.4047 18.5309C38.9189 17.5329 38.7776 16.7997 38.7776 15.1657C38.7776 13.726 38.7864 13.6995 39.2987 13.1253C39.9082 12.4541 41.2684 11.8446 42.5756 11.6591C43.3264 11.5531 44.7661 11.6238 45.4374 11.8004Z" fill="black"/>
<path d="M109.881 2.18167C109.881 2.55264 110.163 3.4889 110.419 4.0012C110.773 4.69898 111.771 5.69707 112.451 6.03271C113.255 6.43018 113.785 6.53618 115.048 6.53618C116.328 6.53618 117.07 6.38602 117.751 5.98855C119.005 5.24661 119.764 4.23968 120.082 2.87062C120.303 1.95202 120.409 2.02268 118.828 2.04918L117.45 2.07568L117.362 2.34066C117.229 2.75579 116.885 3.1621 116.479 3.38291C116.152 3.55073 115.975 3.57723 115.048 3.57723C114.12 3.57723 113.944 3.55073 113.626 3.38291C113.184 3.14443 112.848 2.76462 112.707 2.34066L112.601 2.03151H111.241C110.004 2.03151 109.881 2.04918 109.881 2.18167Z" fill="black"/>
<path d="M95.1742 7.73742C94.8386 7.80808 94.2203 8.03773 93.8051 8.23205C93.1957 8.52353 92.913 8.73551 92.2947 9.3538C91.6765 9.97209 91.4645 10.2547 91.1642 10.873C90.855 11.5178 90.5459 12.5512 90.537 12.9575C90.537 13.0459 90.9257 13.0724 92.1976 13.0724H93.8581L93.9641 12.6749C94.1054 12.1538 94.5736 11.6415 95.1565 11.3853C95.7925 11.1027 97.612 11.032 98.3451 11.2617C99.1754 11.5266 99.7319 12.1449 99.8643 12.9575L99.9173 13.2932L99.3521 13.5052C95.9426 14.7947 93.7256 15.7663 92.8512 16.3493C91.0935 17.5329 90.3957 19.1227 90.749 21.1013C91.1642 23.4154 92.7805 24.6432 95.4215 24.6432C96.4638 24.6432 97.1527 24.4842 98.0006 24.0425C98.7161 23.6627 99.5729 22.8501 99.8997 22.2318C100.023 22.0022 100.147 21.8167 100.173 21.8167C100.209 21.8167 100.253 21.9757 100.288 22.1788C100.43 23.0709 101.101 23.8659 102.011 24.2104C102.585 24.4223 103.724 24.5725 104.457 24.5372L104.978 24.5107L105.005 22.9561L105.023 21.4016L104.493 21.3486C103.91 21.2956 103.609 21.1454 103.371 20.7833C103.221 20.5625 103.212 20.2092 103.212 16.2963C103.212 12.5071 103.194 12.0036 103.053 11.5266C102.479 9.54812 101.251 8.39987 99.1489 7.86108C98.1773 7.60493 96.0398 7.5431 95.1742 7.73742ZM99.882 17.8597L99.8555 20.0855L99.4227 20.4123C98.6808 20.9688 98.1508 21.1366 96.9319 21.1807C94.8474 21.2514 93.9818 20.7214 93.9818 19.3877C93.9818 18.5221 94.3704 18.0098 95.4303 17.471C95.9603 17.1972 99.7054 15.6427 99.8378 15.6338C99.8732 15.6338 99.8908 16.6319 99.882 17.8597Z" fill="black"/>
<path d="M55.4713 24.3782H59.0486L62.4491 18.7606C64.3128 15.6692 65.8762 13.1253 65.9115 13.1077C65.9557 13.0812 65.9822 15.6073 65.9822 18.7164V24.3782H69.427L69.4093 16.1815L69.3828 7.99357L67.6163 7.96707L65.8409 7.9494L62.405 13.5317L58.9602 19.1139L58.8719 7.99357L57.176 7.96707L55.4713 7.9494V24.3782Z" fill="black"/>
<path d="M76.0515 9.8661C76.0515 13.2843 75.7335 17.7802 75.4155 18.7959C74.9739 20.2268 74.5499 20.6243 73.4193 20.5978C73.0748 20.5978 72.7039 20.5625 72.6067 20.536C72.4301 20.483 72.4301 20.5183 72.4301 22.382C72.4301 24.5725 72.3506 24.3958 73.384 24.5725C75.071 24.8551 76.8906 23.963 77.5795 22.5056C78.0388 21.5341 78.4274 19.7675 78.6041 17.842C78.6571 17.2855 78.7278 16.5701 78.7542 16.2521C78.7896 15.9341 78.8337 14.7417 78.8691 13.6023L78.9221 11.5266L81.2009 11.5001L83.4709 11.4825V24.3782H86.9156V7.94941H76.0515V9.8661Z" fill="black"/>
<path d="M108.176 8.01123C108.141 8.03773 108.114 11.7386 108.114 16.2256V24.3782L109.934 24.3605L111.753 24.334L115.163 18.6988L118.581 13.0635L118.607 18.7253L118.625 24.3782H122.07V7.9494L120.285 7.96707L118.492 7.99357L111.603 19.1846L111.576 13.567L111.559 7.9494H109.898C108.98 7.9494 108.202 7.9759 108.176 8.01123Z" fill="black"/>
<path d="M126.46 8.01123C126.424 8.03773 126.398 11.7386 126.398 16.2256V24.3782H129.842L129.86 20.9599L129.887 17.5329L133.225 17.5064L136.555 17.4887V24.3782H140V7.9494L138.304 7.96707L136.599 7.99357L136.573 11.0585L136.555 14.1323H129.842V7.9494H128.182C127.263 7.9494 126.486 7.9759 126.46 8.01123Z" fill="black"/>
<path d="M11.9184 0.0869728C11.4489 0.158953 10.6725 0.311911 10.203 0.428879C7.2237 1.16668 4.50618 3.00217 2.5019 5.62046C1.85186 6.47522 1.62615 7.08705 1.62615 7.9958C1.62615 8.64363 1.63518 8.68861 1.95117 9.02152C2.44773 9.57937 2.89914 9.70533 4.2895 9.69634C5.27358 9.69634 5.60763 9.66035 6.34795 9.4534C8.8217 8.77859 11.3677 7.35698 13.1733 5.64745C14.6811 4.21684 15.4665 2.93019 15.4756 1.88648C15.4756 1.18467 15.295 0.833768 14.7533 0.518854C13.8685 0.00599498 13.1643 -0.101975 11.9184 0.0869728Z" fill="black"/>
<path d="M20.5846 1.99453C20.5846 2.03952 20.6658 2.14749 20.7742 2.24646C21.2978 2.71434 21.5958 3.80304 21.4784 4.85575C21.0089 9.16557 14.2738 14.726 7.7644 16.1746C3.97251 17.0114 1.24597 16.3906 0.234797 14.4561L0.00908995 14.0242L6.16519e-05 14.6631C-0.00896665 16.4086 0.975118 19.3418 1.94115 20.4305C3.54818 22.248 6.64489 22.9678 10.2923 22.3739C17.1267 21.2672 24.0063 15.8327 25.3605 10.4882C26.0286 7.86992 25.4599 6.21438 23.1125 3.90201C22.309 3.11023 20.5846 1.80559 20.5846 1.99453Z" fill="black"/>
<path d="M26.9134 15.2119C26.6335 16.1746 25.8481 17.7312 25.1619 18.685C22.8055 21.9421 18.8421 24.6143 14.7974 25.667C13.1814 26.0809 12.5313 26.1709 10.8792 26.1709C9.39852 26.1709 9.2631 26.1529 7.7644 25.811C7.2227 25.685 8.31512 26.1619 9.29018 26.4858C10.9062 27.0077 11.8181 27.1516 13.5425 27.1516C14.7162 27.1516 15.2489 27.1066 16.0433 26.9537C21.8666 25.811 26.1731 21.3482 27.0308 15.5538C27.112 15.023 27.1662 14.5641 27.1482 14.5461C27.1301 14.5281 27.0218 14.834 26.9134 15.2119Z" fill="black"/>
</svg>
