<svg width="140" height="36" viewBox="0 0 140 36" fill="none" xmlns="http://www.w3.org/2000/svg">
<path d="M115.179 15.3593H112.081L108.379 19.1028V15.3593H105.758V25.6743H108.379V21.411L112.143 25.6743H115.304L110.438 20.1425L115.179 15.3593Z" fill="#101828"/>
<path d="M32.0312 18.1461H28.2462V13.5709H32.0312C33.9443 13.5709 34.8178 14.4861 34.8178 15.8582C34.8178 17.2309 33.9443 18.1461 32.0312 18.1461ZM32.1143 11.1171H25.5011V25.674H28.2462V20.6001H32.1143C35.4001 20.6001 37.5628 18.9156 37.5628 15.8583C37.5628 12.8016 35.4001 11.1171 32.1143 11.1171ZM43.759 23.5114C42.2203 23.5114 40.7852 22.4093 40.7852 20.5167C40.7852 18.6243 42.2203 17.5222 43.759 17.5222C45.2981 17.5222 46.733 18.6242 46.733 20.5167C46.733 22.4093 45.2981 23.5114 43.759 23.5114ZM43.759 15.0683C40.9309 15.0683 38.1233 16.8984 38.1233 20.5165C38.1233 24.1354 40.9309 25.9654 43.759 25.9654C46.5875 25.9654 49.3948 24.1354 49.3948 20.5167C49.3948 16.8984 46.5875 15.0683 43.759 15.0683ZM56.0846 23.5114C54.5041 23.5114 53.3397 22.3676 53.3397 20.5167C53.3397 18.6867 54.5457 17.5222 56.0846 17.5222C57.0203 17.5222 57.8314 17.9589 58.4761 18.9362L60.7221 17.6469C59.9734 16.0455 58.3514 15.0683 56.1054 15.0683C53.173 15.0683 50.6776 17.231 50.6776 20.5165C50.6776 23.8025 53.0483 25.9654 56.1054 25.9654C58.3097 25.9654 59.7861 24.9672 60.8263 23.1995L58.6634 22.0142C58.0392 22.8875 57.3741 23.5114 56.0846 23.5114ZM83.9844 21.2031C83.8596 22.7836 83.5474 23.1372 83.0066 23.1372C82.6372 23.1372 82.4633 23.0964 82.2106 23.0301L82.2239 25.6993C82.2239 25.6993 82.5495 25.7988 83.1525 25.7988C85.3777 25.7988 86.2097 24.3641 86.4176 21.3069L86.6671 17.7093H89.62V25.6534H92.2404V15.3593H84.4209L83.9844 21.2031ZM73.6822 19.1443C74.0567 17.9797 75.0966 17.0646 76.4689 17.0646C77.9247 17.0646 78.9021 17.8549 79.1518 19.1443H73.6822ZM76.5519 15.0683C73.5575 15.0683 71.1244 17.2518 71.1244 20.5167C71.1244 23.7818 73.5575 25.9652 76.4275 25.9652C78.6942 25.9652 80.1291 25.1126 81.1688 23.3451L79.089 22.3054C78.4445 23.1164 77.8623 23.7193 76.4689 23.7193C74.9302 23.7193 73.807 22.721 73.6408 21.1407H81.5849V20.2257C81.5849 17.2104 79.5049 15.0683 76.5519 15.0683ZM96.2656 19.1443C96.6401 17.9797 97.6797 17.0646 99.0522 17.0646C100.508 17.0646 101.485 17.8549 101.735 19.1443H96.2656ZM99.1353 15.0683C96.1406 15.0683 93.7077 17.2518 93.7077 20.5167C93.7077 23.7818 96.1406 25.9652 99.0105 25.9652C101.277 25.9652 102.712 25.1126 103.752 23.3451L101.672 22.3054C101.028 23.1164 100.446 23.7193 99.0522 23.7193C97.5133 23.7193 96.3903 22.721 96.224 21.1407H104.168V20.2257C104.168 17.2104 102.088 15.0683 99.1353 15.0683ZM61.6414 17.6469H64.7191V25.6741H67.3393V17.6469H70.4173V15.3595H61.6414V17.6469ZM120.508 23.5115C118.969 23.5115 117.534 22.4093 117.534 20.5168C117.534 18.6243 118.969 17.5222 120.508 17.5222C122.047 17.5222 123.482 18.6242 123.482 20.5168C123.482 22.4093 122.047 23.5115 120.508 23.5115ZM120.508 15.0683C117.68 15.0683 114.873 16.8984 114.873 20.5168C114.873 24.1354 117.68 25.9654 120.508 25.9654C123.337 25.9654 126.144 24.1354 126.144 20.5168C126.144 16.8984 123.337 15.0683 120.508 15.0683ZM136.571 15.3574L133.727 22.5812L130.883 15.3574H127.458V25.6534H129.949V19.1355L132.71 25.6534H134.744L137.505 19.1355V25.6534H139.996V15.3574H136.571ZM27.5924 29.7819H25.5016V28.8191H30.7434V29.7821H28.6428V35.6265H27.5924V29.7819ZM30.8789 32.6408H33.7477C33.67 31.8824 33.0863 31.4546 32.3472 31.4546C31.6082 31.4546 31.0442 31.9699 30.8789 32.6408ZM32.3474 34.8971C33.0962 34.8971 33.4075 34.5664 33.7186 34.1386L34.5064 34.5567C34.059 35.3152 33.3977 35.7626 32.3279 35.7626C30.9955 35.7626 29.887 34.732 29.887 33.2148C29.887 31.7075 30.9955 30.667 32.3767 30.667C33.7769 30.667 34.7105 31.6686 34.7105 33.0787V33.4287H30.8596C30.9276 34.2845 31.5013 34.8971 32.3474 34.8971Z" fill="#101828"/>
<path d="M37.8014 30.8031H38.9487L37.4706 33.0398L39.1628 35.6266H38.0055L36.8772 33.847L35.7397 35.6265H34.5727L36.3328 33.0687L34.8157 30.8031H35.9537L36.8774 32.2715L37.8014 30.8031ZM39.5024 30.8031H40.504V32.6801H42.7503V30.8031H43.7522V35.6265H42.7505V33.5552H40.504V35.6266H39.5024V30.8031ZM48.565 33.2146C48.565 32.2229 47.8455 31.5905 47.0091 31.5905C46.163 31.5905 45.4433 32.2229 45.4433 33.2146C45.4433 34.2068 46.163 34.8387 47.0091 34.8387C47.8455 34.8387 48.565 34.2068 48.565 33.2146ZM47.0091 35.7626C45.6865 35.7626 44.4223 34.8778 44.4223 33.2148C44.4223 31.5518 45.6866 30.667 47.0091 30.667C48.3219 30.667 49.5862 31.5518 49.5862 33.2148C49.5862 34.8778 48.3219 35.7626 47.0091 35.7626ZM49.7024 35.6266V34.7413C49.7024 34.7413 49.8288 34.7998 50.0428 34.7998C50.354 34.7998 50.4998 34.6052 50.5582 33.672L50.7137 30.8031H54.3023V35.6265H53.3006V31.7075H51.589L51.482 33.7107C51.4138 35.0918 51.0638 35.6948 50.101 35.6948C49.8969 35.6948 49.7024 35.6266 49.7024 35.6266ZM59.1151 33.2146C59.1151 32.2229 58.3956 31.5905 57.5593 31.5905C56.7131 31.5905 55.9934 32.2229 55.9934 33.2146C55.9934 34.2068 56.7131 34.8387 57.5593 34.8387C58.3956 34.8387 59.1151 34.2068 59.1151 33.2146ZM57.5593 35.7626C56.2366 35.7626 54.9724 34.8778 54.9724 33.2148C54.9724 31.5518 56.2366 30.667 57.5593 30.667C58.8719 30.667 60.1363 31.5518 60.1363 33.2148C60.1363 34.8778 58.8719 35.7626 57.5593 35.7626ZM60.8064 30.8031H63.9476V31.7075H61.8081V35.6265H60.8064V30.8031ZM64.6083 30.8031H65.5713V34.2845L67.8758 30.8031H68.9358V35.6265H67.973V32.145L65.6684 35.6265H64.6083V30.8031ZM69.8397 30.8031H70.8023V34.2845L73.1072 30.8031H74.1672V35.6265H73.2042V32.145L70.8997 35.6265H69.8397V30.8031ZM79.6993 34.8387C80.2144 34.8387 80.4772 34.5763 80.4772 34.1676C80.4772 33.7595 80.2145 33.5064 79.6993 33.5064H78.5031V34.8387H79.6993ZM79.6311 32.7286C80.0786 32.7286 80.3506 32.5535 80.3506 32.155C80.3506 31.7659 80.0784 31.5907 79.6409 31.5907H78.5031V32.7286H79.6311ZM77.5113 30.8031H79.6991C80.7302 30.8031 81.304 31.338 81.304 31.9993C81.304 32.5535 81.0124 32.8842 80.5745 33.0787C81.0803 33.2342 81.4789 33.6136 81.4789 34.236C81.4789 35.0528 80.7692 35.6266 79.7577 35.6266H77.5113V30.8031ZM85.9518 33.2146C85.9518 32.2229 85.2321 31.5905 84.3956 31.5905C83.5498 31.5905 82.8301 32.2229 82.8301 33.2146C82.8301 34.2068 83.5498 34.8387 84.3956 34.8387C85.2321 34.8387 85.9518 34.2068 85.9518 33.2146ZM84.3956 35.7626C83.0732 35.7626 81.8088 34.8778 81.8088 33.2148C81.8088 31.5518 83.0732 30.667 84.3956 30.667C85.7087 30.667 86.9727 31.5518 86.9727 33.2148C86.9727 34.8778 85.7087 35.7626 84.3956 35.7626ZM91.3582 34.2261C91.3582 35.0918 90.6483 35.7627 89.3256 35.7627C88.1196 35.7627 87.4293 35.121 87.4293 34.2554C87.4293 34.0315 87.4972 33.8179 87.5459 33.7109L88.3921 33.9927C88.3628 34.0611 88.3435 34.1386 88.3435 34.2458C88.3435 34.7224 88.8199 34.9655 89.3254 34.9655C90.0065 34.9655 90.3758 34.6445 90.3758 34.1972C90.3758 33.7693 90.0161 33.5162 89.3841 33.5162H88.9758V32.7092H89.3648C89.9579 32.7092 90.2206 32.4272 90.2206 32.0578C90.2206 31.6978 89.9386 31.4644 89.3937 31.4644C88.8199 31.4644 88.4796 31.7076 88.4796 31.9993C88.4796 32.1064 88.4992 32.1645 88.5087 32.2037L87.653 32.4856C87.6141 32.3884 87.5655 32.2327 87.5655 32.0186C87.5655 31.2601 88.2463 30.6671 89.4036 30.6671C90.6189 30.6671 91.1637 31.231 91.1637 31.9606C91.1637 32.5147 90.8621 32.8841 90.3469 33.0787C90.9403 33.2441 91.3582 33.6137 91.3582 34.2261ZM91.9995 30.8031H93.361L94.7808 34.4694L96.2005 30.8031H97.5719V35.6265H96.5994V32.2131L95.2087 35.6266H94.3626L92.9623 32.2036V35.6265H91.9995V30.8031ZM102.384 33.2146C102.384 32.2229 101.665 31.5905 100.828 31.5905C99.9825 31.5905 99.2628 32.2229 99.2628 33.2146C99.2628 34.2068 99.9825 34.8387 100.828 34.8387C101.665 34.8387 102.384 34.2068 102.384 33.2146ZM100.828 35.7626C99.5056 35.7626 98.2415 34.8778 98.2415 33.2148C98.2415 31.5518 99.5056 30.667 100.828 30.667C102.141 30.667 103.406 31.5518 103.406 33.2148C103.406 34.8778 102.141 35.7626 100.828 35.7626ZM109.162 35.6266L107.518 33.5162V35.6265H106.517V33.4966L104.873 35.6266H103.658L105.671 33.0686L103.687 30.8031H104.98L106.517 32.6801V30.8031H107.518V32.6704L109.055 30.8031H110.348L108.364 33.0687L110.378 35.6266H109.162ZM110.892 30.8031H111.893V32.6801H114.14V30.8031H115.142V35.6265H114.14V33.5552H111.893V35.6266H110.892V30.8031ZM119.954 33.2146C119.954 32.2229 119.235 31.5905 118.399 31.5905C117.553 31.5905 116.833 32.2229 116.833 33.2146C116.833 34.2068 117.553 34.8387 118.399 34.8387C119.235 34.8387 119.954 34.2068 119.954 33.2146ZM118.399 35.7626C117.076 35.7626 115.812 34.8778 115.812 33.2148C115.812 31.5518 117.076 30.667 118.399 30.667C119.711 30.667 120.976 31.5518 120.976 33.2148C120.976 34.8778 119.711 35.7626 118.399 35.7626ZM123.873 35.7627C122.443 35.7627 121.364 34.732 121.364 33.2148C121.364 31.6978 122.521 30.667 123.873 30.667C124.914 30.667 125.643 31.124 125.993 31.8825L125.157 32.3689C124.836 31.8436 124.388 31.6006 123.873 31.6006C123.047 31.6006 122.395 32.223 122.395 33.2148C122.395 34.207 123.017 34.8294 123.873 34.8294C124.544 34.8294 124.904 34.5081 125.215 34.0513L126.022 34.5081C125.565 35.2862 124.884 35.7627 123.873 35.7627ZM127.626 31.7076H126.109V30.8031H130.135V31.7075H128.628V35.6265H127.626L127.626 31.7076ZM131.165 32.6408H134.034C133.957 31.8824 133.373 31.4546 132.634 31.4546C131.895 31.4546 131.331 31.9699 131.165 32.6408ZM132.634 34.8971C133.383 34.8971 133.694 34.5664 134.005 34.1386L134.793 34.5567C134.345 35.3152 133.684 35.7626 132.614 35.7626C131.282 35.7626 130.173 34.732 130.173 33.2148C130.173 31.7075 131.282 30.667 132.663 30.667C134.063 30.667 134.997 31.6686 134.997 33.0787V33.4287H131.146C131.214 34.2845 131.788 34.8971 132.634 34.8971ZM136.776 29.072H137.457C137.457 29.3152 137.593 29.4901 137.826 29.4901C138.069 29.4901 138.206 29.3152 138.206 29.072H138.886C138.886 29.6848 138.458 30.1225 137.826 30.1225C137.194 30.1225 136.776 29.6848 136.776 29.072ZM135.667 30.8031H136.63V34.2845L138.935 30.8031H139.995V35.6265H139.032V32.145L136.727 35.6265H135.667V30.8031Z" fill="#101828"/>
<path d="M1.75767 35.4611C1.77904 35.4699 1.80099 35.4796 1.8228 35.4876C1.84021 35.4939 1.86406 35.5005 1.89275 35.5068C2.1482 35.587 2.4142 35.6287 2.68196 35.6304H16.5998L7.47154 26.4778L7.46686 26.4827C5.77867 28.1605 4.66297 29.269 3.84113 30.0884C3.27501 30.6516 2.71135 31.2172 2.15016 31.7853C1.56802 32.366 1.17992 32.7528 1.17846 32.7547L1.17685 32.7562C0.892946 33.0567 0.718802 33.4917 0.718802 33.938C0.718802 34.6387 1.14817 35.2107 1.75767 35.4611Z" fill="#FF4F12"/>
<path d="M0.718655 33.9392C0.718655 33.4928 0.892802 33.0582 1.1767 32.7576L1.17831 32.7559C1.17992 32.754 1.56787 32.3672 2.15001 31.7865C2.61245 31.3176 3.11074 30.8176 3.84083 30.0895C4.66297 29.27 5.77853 28.1618 7.46671 26.484L7.47154 26.479L9.14934 24.8113C11.882 22.0945 15.7724 18.2239 21.476 12.5405L8.94271 0L1.84694 7.10425C-0.273825 9.22517 0.0130013 10.6131 0.0130013 13.462V32.9531C0.0130013 34.1057 0.738558 35.0818 1.75767 35.4611C1.14817 35.2107 0.718655 34.6398 0.718655 33.9392Z" fill="#7700FF"/>
</svg>
