<svg width="150" height="29" viewBox="0 0 150 29" fill="none" xmlns="http://www.w3.org/2000/svg">
<path d="M21.3144 0.278091C17.0237 0.218516 13.865 3.17836 13.9247 7.78703C13.865 12.3957 17.0237 15.3357 21.3144 15.2959C25.6053 15.3555 28.7439 12.3957 28.7042 7.78703C28.7439 3.17836 25.6053 0.238336 21.3144 0.278091ZM21.4336 13.0511H21.215C18.4141 13.0511 16.5666 11.0647 16.5666 7.78703C16.5666 4.50928 18.4141 2.52281 21.215 2.52281H21.4336C24.2346 2.52281 26.082 4.50928 26.082 7.78703C26.082 11.0647 24.2346 13.0511 21.4336 13.0511Z" fill="black"/>
<path d="M44.7362 0.496935L40.6638 12.4556L36.4723 0.496935H32.2808V15.0778H34.8831V3.0198L39.1144 15.0778H42.1735L46.3253 2.99987V15.0778H48.9275V0.496935H44.7362Z" fill="black"/>
<path d="M144.497 0.496935H141.438L136.432 15.0778H138.875L142.948 3.11914L147.14 15.0778H149.642L144.497 0.496935Z" fill="black"/>
<path d="M62.5152 1.47002V0H59.9128V1.47002C55.9795 1.50977 52.682 3.53598 52.7218 7.74734C52.682 11.9389 55.9795 13.9849 59.9128 14.0247V15.5741H62.5152V14.0247C66.4483 13.9849 69.7459 11.9389 69.7062 7.74734C69.7459 3.53598 66.4483 1.50977 62.5152 1.47002ZM59.9128 11.8991C57.3702 11.8791 55.3439 10.3894 55.3836 7.74734C55.3439 5.10532 57.3702 3.61539 59.9128 3.59557V11.8991ZM62.5152 11.8991V3.57573C65.0578 3.59556 67.0841 5.08539 67.0443 7.72753C67.0841 10.3696 65.0776 11.8791 62.5152 11.8991Z" fill="black"/>
<path d="M80.0357 0.278091C75.745 0.218516 72.5864 3.17836 72.646 7.78703C72.5864 12.3957 75.745 15.3357 80.0357 15.2959C84.3266 15.3555 87.4653 12.3957 87.4255 7.78703C87.4653 3.17836 84.3266 0.238336 80.0357 0.278091ZM80.135 13.0511H79.9166C77.1157 13.0511 75.2682 11.0647 75.2682 7.78703C75.2682 4.50928 77.1157 2.52281 79.9166 2.52281H80.135C82.936 2.52281 84.7835 4.50928 84.7835 7.78703C84.7835 11.0647 82.936 13.0511 80.135 13.0511Z" fill="black"/>
<path d="M98.0734 0.496671H91.3191V15.0974H93.9611V9.555L98.0734 9.5551C100.994 9.5551 103.02 7.8467 103.02 5.02584C103.04 2.2051 100.974 0.456917 98.0734 0.496671ZM97.7354 7.31029H93.9611V2.74137H97.7354C99.4443 2.74137 100.378 3.59559 100.378 5.02584C100.378 6.43626 99.4443 7.31029 97.7354 7.31029Z" fill="black"/>
<path d="M105.105 0.496935V2.72182H110.528V15.0778H113.15V2.72182H118.574V0.496935H105.105Z" fill="black"/>
<path d="M132.836 2.72182V0.496935H121.851V15.0778H132.836V12.8529H124.493V8.72099H132.836V6.47629H124.493V2.72182H132.836Z" fill="black"/>
<path d="M13.5676 14.7996H9.23711L3.33728 9.67453L3.25777 9.59497V14.7996H0.397269V0.775069H3.25777V5.70156L8.97889 0.775069H12.8526L5.284 7.48936L13.5676 14.7996Z" fill="black"/>
<path d="M3.23788 5.70177V9.6151L0.913673 7.66829L3.23788 5.70177Z" fill="#8382FA"/>
<path d="M2.44337 21.5536C3.13866 21.5536 3.71471 21.7921 4.19154 22.2886C4.64842 22.7653 4.88672 23.3812 4.88672 24.0963C4.88672 24.8114 4.64842 25.4272 4.19154 25.9041C3.73465 26.3807 3.13866 26.639 2.44337 26.639C1.74817 26.639 1.1522 26.4006 0.695306 25.9041C0.238415 25.4272 0 24.8114 0 24.0963C0 23.3812 0.238415 22.7653 0.695306 22.2886C1.1522 21.7921 1.74817 21.5536 2.44337 21.5536ZM1.3111 25.2882C1.60909 25.606 1.98647 25.7848 2.44337 25.7848C2.90025 25.7848 3.27776 25.6259 3.57574 25.2882C3.87373 24.9703 4.0127 24.5532 4.0127 24.0764C4.0127 23.5798 3.87373 23.1825 3.57574 22.8647C3.27776 22.5468 2.90025 22.3879 2.44337 22.3879C1.98647 22.3879 1.60909 22.5468 1.3111 22.8647C1.01312 23.1825 0.874146 23.5997 0.874146 24.0764C0.874146 24.5532 1.01312 24.9703 1.3111 25.2882Z" fill="black"/>
<path d="M6.19824 21.6722H10.5884V26.4796H9.7144V22.4669H7.07238V26.4796H6.19824V21.6722Z" fill="black"/>
<path d="M14.3423 25.7848C14.9184 25.7848 15.3355 25.5663 15.5739 25.1292H16.5075C16.3486 25.5862 16.0706 25.9437 15.6732 26.2218C15.2759 26.48 14.839 26.6191 14.3225 26.6191C13.6272 26.6191 13.0312 26.3807 12.5744 25.9041C12.1174 25.4272 11.8791 24.8114 11.8791 24.0764C11.8791 23.3614 12.0976 22.7455 12.5545 22.2687C13.0114 21.792 13.5676 21.5536 14.2628 21.5536C14.9184 21.5536 15.4547 21.792 15.8918 22.2687C16.3288 22.7455 16.5474 23.3216 16.5474 24.0367C16.5474 24.2353 16.5474 24.3744 16.5274 24.4341H12.773C12.8326 24.8314 12.9914 25.1491 13.2894 25.4073C13.5874 25.6458 13.945 25.7848 14.3423 25.7848ZM14.2828 22.3879C13.8854 22.3879 13.5477 22.5071 13.2894 22.7256C13.0312 22.9441 12.8723 23.2621 12.8128 23.6394H15.6732C15.6137 23.2619 15.4746 22.9441 15.2362 22.7256C14.978 22.4872 14.6601 22.3879 14.2828 22.3879Z" fill="black"/>
<path d="M18.7527 28.6052H17.8785V21.6722H18.7527V22.1888C19.13 21.7518 19.6664 21.5332 20.3219 21.5332C21.057 21.5332 21.6329 21.7716 22.0502 22.2683C22.4673 22.7649 22.6858 23.3608 22.6858 24.0561C22.6858 24.7513 22.4673 25.3473 22.0502 25.8439C21.6329 26.3406 21.057 26.579 20.3219 26.579C19.6664 26.579 19.13 26.3605 18.7527 25.9234V28.6052ZM19.1897 22.8245C18.8916 23.1225 18.7327 23.5397 18.7327 24.076C18.7327 24.6123 18.8916 25.0296 19.1897 25.3274C19.4876 25.6254 19.8651 25.7645 20.302 25.7645C20.7391 25.7645 21.0966 25.6056 21.3947 25.2679C21.6727 24.9301 21.8316 24.5329 21.8316 24.0561C21.8316 23.5793 21.6927 23.182 21.3947 22.8443C21.1165 22.5066 20.7391 22.3476 20.302 22.3476C19.8651 22.3874 19.4876 22.5265 19.1897 22.8245Z" fill="black"/>
<path d="M25.8644 21.5536C26.5397 21.5536 27.0761 21.7125 27.4933 22.0503C27.8906 22.3879 28.1091 22.8447 28.1091 23.4407V26.4999H27.2351V25.9834C26.8378 26.4205 26.3015 26.639 25.6061 26.639C25.03 26.639 24.5731 26.4999 24.2354 26.2416C23.8779 25.9636 23.719 25.5663 23.719 25.0498C23.719 24.5134 23.9176 24.1161 24.2951 23.8579C24.6724 23.6195 25.1691 23.4805 25.7651 23.4805H27.2351C27.2351 22.7653 26.7781 22.388 25.8842 22.388C25.5862 22.388 25.328 22.4476 25.0697 22.5667C24.8315 22.6859 24.6724 22.8647 24.5731 23.0832H23.6197C23.7388 22.6064 24.0169 22.229 24.4341 21.9509C24.8315 21.6727 25.328 21.5536 25.8644 21.5536ZM27.2151 24.5532V24.2552H25.7452C24.9704 24.2552 24.5731 24.5134 24.5731 25.0299C24.5731 25.5463 24.9506 25.7848 25.6855 25.7848C26.1425 25.7848 26.5199 25.6656 26.798 25.4471C27.0761 25.2087 27.2151 24.9306 27.2151 24.5532Z" fill="black"/>
<path d="M28.9432 22.4669V21.6722H33.4127V22.4669H31.605V26.4796H30.731V22.4669H28.9432Z" fill="black"/>
<path d="M36.4922 21.5536C37.1875 21.5536 37.7635 21.7921 38.2403 22.2886C38.6972 22.7653 38.9355 23.3812 38.9355 24.0963C38.9355 24.8114 38.6972 25.4272 38.2403 25.9041C37.7835 26.3807 37.1875 26.639 36.4922 26.639C35.7969 26.639 35.201 26.4006 34.7441 25.9041C34.2872 25.4074 34.0488 24.8114 34.0488 24.0963C34.0488 23.3812 34.2872 22.7653 34.7441 22.2886C35.201 21.7921 35.7968 21.5536 36.4922 21.5536ZM35.3797 25.2882C35.6777 25.606 36.0553 25.7848 36.5121 25.7848C36.969 25.7848 37.3464 25.6259 37.6444 25.2882C37.9423 24.9703 38.0813 24.5532 38.0813 24.0764C38.0813 23.5798 37.9423 23.1825 37.6444 22.8647C37.3464 22.5468 36.969 22.3879 36.5121 22.3879C36.0553 22.3879 35.6777 22.5468 35.3797 22.8647C35.0818 23.1825 34.9428 23.5997 34.9428 24.0764C34.9228 24.5532 35.0818 24.9703 35.3797 25.2882Z" fill="black"/>
<path d="M41.1206 28.6052H40.2466V21.6722H41.1206V22.1888C41.4981 21.7518 42.0344 21.5332 42.6899 21.5332C43.425 21.5332 44.0011 21.7716 44.4182 22.2683C44.8355 22.7649 45.0539 23.3608 45.0539 24.0561C45.0539 24.7513 44.8355 25.3473 44.4182 25.8439C44.0011 26.3406 43.425 26.579 42.6899 26.579C42.0344 26.579 41.4981 26.3605 41.1206 25.9234V28.6052ZM41.5577 22.8245C41.2597 23.1225 41.1008 23.5397 41.1008 24.076C41.1008 24.6123 41.2597 25.0296 41.5577 25.3274C41.8557 25.6254 42.2331 25.7645 42.6702 25.7645C43.1071 25.7645 43.4648 25.6056 43.7626 25.2679C44.0408 24.9301 44.1997 24.5329 44.1997 24.0561C44.1997 23.5793 44.0606 23.182 43.7626 22.8443C43.4846 22.5066 43.1071 22.3476 42.6702 22.3476C42.2331 22.3874 41.8557 22.5265 41.5577 22.8245Z" fill="black"/>
<path d="M53.0194 23.0831H52.066C51.8076 22.6262 51.3906 22.3879 50.8144 22.3879C50.3575 22.3879 49.9801 22.5468 49.7019 22.8646C49.4039 23.1824 49.2649 23.5996 49.2649 24.0763C49.2649 24.573 49.404 24.9703 49.7019 25.2881C49.9999 25.606 50.3774 25.7649 50.8144 25.7649C51.3906 25.7649 51.7879 25.5265 52.066 25.0697L53.0194 25.0696C52.8606 25.5463 52.5626 25.9237 52.1851 26.1819C51.7879 26.4601 51.3508 26.5991 50.8343 26.5991C50.139 26.5991 49.5629 26.3608 49.1061 25.8642C48.6492 25.3676 48.4108 24.7716 48.4108 24.0564C48.4108 23.3413 48.6492 22.7255 49.1061 22.2488C49.5629 21.7719 50.139 21.5137 50.8343 21.5137C51.3508 21.5137 51.8076 21.6528 52.1851 21.9309C52.5626 22.2289 52.8406 22.6063 53.0194 23.0831Z" fill="black"/>
<path d="M57.9457 24.076C58.3827 24.3143 58.6012 24.6719 58.6012 25.1884C58.6012 25.5658 58.4821 25.8836 58.2237 26.122C57.9655 26.3604 57.6079 26.4796 57.1113 26.4796H54.2905V21.6722H57.0717C57.5484 21.6722 57.9257 21.7914 58.1841 22.0299C58.4423 22.2683 58.5614 22.586 58.5614 22.9635C58.5417 23.48 58.343 23.8376 57.9457 24.076ZM55.1447 23.6786H56.9723C57.4491 23.6786 57.6874 23.48 57.6874 23.0827C57.6874 22.6854 57.4491 22.4867 56.9723 22.4867H55.1447V23.6786ZM55.1447 25.6849H57.0121C57.4887 25.6849 57.7272 25.4863 57.7272 25.0891C57.7272 24.6918 57.4887 24.4931 57.0121 24.4931H55.1447V25.6849Z" fill="black"/>
<path d="M62.9121 24.8909H61.8195L60.5084 26.48H59.3563L60.7468 24.8114C60.3694 24.712 60.0912 24.5134 59.9126 24.2552C59.7337 23.9771 59.6343 23.6592 59.6343 23.3016C59.6343 22.8447 59.7735 22.4475 60.0714 22.1496C60.3694 21.8516 60.8064 21.6927 61.3826 21.6927H63.7663V26.5L62.8922 26.4999V24.8909H62.9121ZM62.9121 22.4673H61.4221C61.1243 22.4673 60.9057 22.5468 60.7468 22.6859C60.5878 22.825 60.5085 23.0236 60.5085 23.2818C60.5085 23.54 60.5878 23.7387 60.7468 23.8778C60.9057 24.0167 61.1243 24.0963 61.4221 24.0963H62.9121V22.4673Z" fill="black"/>
<path d="M69.4273 23.0834C69.4273 23.5205 69.2286 23.8582 68.8115 24.0767C69.2286 24.3349 69.4472 24.6725 69.4472 25.1096C69.4472 25.5268 69.2485 25.8843 68.8512 26.1823C68.4539 26.4803 67.9375 26.6194 67.3217 26.6194C66.6859 26.6194 66.1893 26.4803 65.792 26.1823C65.3947 25.8843 65.1365 25.5268 65.0372 25.0899H66.0304C66.2291 25.5467 66.6859 25.785 67.4011 25.785C67.7388 25.785 68.0169 25.7255 68.2355 25.5864C68.4539 25.4672 68.5731 25.2884 68.5731 25.0501C68.5731 24.8712 68.5135 24.7123 68.3746 24.613C68.2355 24.5137 68.0566 24.4541 67.8382 24.4541H66.7058V23.6595H67.8182C68.0368 23.6595 68.2155 23.5999 68.3347 23.5005C68.4539 23.4012 68.5333 23.2622 68.5333 23.0636C68.5333 22.845 68.4141 22.6662 68.1957 22.5272C67.9772 22.3881 67.6991 22.3285 67.3613 22.3285C66.6661 22.3285 66.2291 22.5472 66.0304 22.9841H65.0768C65.1961 22.547 65.4543 22.1895 65.8318 21.9114C66.2092 21.6332 66.7257 21.4942 67.3613 21.4942C67.8977 21.4942 68.3546 21.6134 68.7917 21.8716C69.2286 22.1896 69.4273 22.5669 69.4273 23.0834Z" fill="black"/>
<path d="M71.6923 26.4796H70.8182V21.6722H71.6923V25.1685L74.4137 21.6722H75.2878V26.4796H74.4137V22.9834L71.6923 26.4796Z" fill="black"/>
<path d="M81.5254 21.7124C82.2008 21.7124 82.7569 21.9508 83.2138 22.4276C83.6708 22.9043 83.8892 23.4804 83.8892 24.1757C83.8892 24.8511 83.6508 25.4271 83.194 25.904C82.737 26.3806 82.1411 26.619 81.4458 26.619C80.6711 26.619 80.0751 26.3608 79.6581 25.8244C79.2409 25.288 79.0223 24.5729 79.0223 23.6989C79.0223 22.5864 79.1812 21.7322 79.4792 21.1562C79.7772 20.5802 80.3136 20.2622 81.0883 20.163L82.0418 20.0636C82.5384 20.004 82.8165 19.8253 82.876 19.5075H83.7501C83.7303 19.865 83.5912 20.163 83.3727 20.4013C83.1541 20.6397 82.8165 20.7986 82.3596 20.8383L81.1478 20.9576C80.3731 21.0569 79.9559 21.5535 79.8765 22.4473C80.2738 21.9706 80.8101 21.7124 81.5254 21.7124ZM81.4657 25.7847C81.9226 25.7847 82.3001 25.6258 82.5981 25.3278C82.896 25.0298 83.035 24.6326 83.035 24.1757C83.035 23.7188 82.8959 23.3215 82.5981 23.0037C82.3001 22.6858 81.9226 22.5269 81.4657 22.5269C81.0287 22.5269 80.6512 22.6858 80.3532 23.0037C80.0552 23.3215 79.9163 23.6989 79.9163 24.1757C79.9163 24.6326 80.0554 25.0099 80.3532 25.3278C80.6512 25.6258 81.0087 25.7847 81.4657 25.7847Z" fill="black"/>
<path d="M86.0941 26.4796H85.22V21.6722H86.0941V25.1685L88.8157 21.6722H89.6897V26.4796H88.8157V22.9834L86.0941 26.4796Z" fill="black"/>
<path d="M95.3316 23.0834C95.3316 23.5205 95.1332 23.8582 94.7156 24.0767C95.1323 24.3349 95.3516 24.6725 95.3516 25.1096C95.3516 25.5268 95.1522 25.8843 94.7554 26.1823C94.3581 26.4803 93.8415 26.6194 93.2258 26.6194C92.5901 26.6194 92.0935 26.4803 91.6961 26.1823C91.2988 25.8843 91.0406 25.5268 90.9413 25.0899H91.9345C92.1331 25.5467 92.5901 25.785 93.3053 25.785C93.6429 25.785 93.9211 25.7255 94.1395 25.5864C94.3581 25.4672 94.4773 25.2884 94.4773 25.0501C94.4773 24.8712 94.4176 24.7123 94.2786 24.613C94.1395 24.5137 93.9607 24.4541 93.7422 24.4541H92.61V23.6595H93.7224C93.9409 23.6595 94.1197 23.5999 94.2587 23.5005C94.3779 23.4012 94.4574 23.2622 94.4574 23.0636C94.4574 22.845 94.3382 22.6662 94.1197 22.5272C93.9011 22.3881 93.6231 22.3285 93.2854 22.3285C92.5902 22.3285 92.1531 22.5472 91.9545 22.9841H91.0009C91.1201 22.547 91.3784 22.1895 91.7558 21.9114C92.1331 21.6332 92.6497 21.4942 93.2854 21.4942C93.8018 21.4942 94.2786 21.6134 94.7156 21.8716C95.1133 22.1896 95.3316 22.5669 95.3316 23.0834Z" fill="black"/>
<path d="M100.318 21.6722H101.192V26.4796H100.318V24.4534H97.5959V26.4796H96.7225V21.6722H97.5959V23.6587H100.318V21.6722Z" fill="black"/>
<path d="M104.947 25.7848C105.523 25.7848 105.94 25.5663 106.178 25.1292H107.112C106.953 25.5862 106.675 25.9437 106.278 26.2218C105.88 26.48 105.443 26.6191 104.927 26.6191C104.231 26.6191 103.636 26.3807 103.178 25.9041C102.722 25.4272 102.483 24.8114 102.483 24.0764C102.483 23.3614 102.702 22.7455 103.159 22.2687C103.616 21.792 104.172 21.5536 104.867 21.5536C105.523 21.5536 106.06 21.792 106.496 22.2687C106.933 22.7455 107.151 23.3216 107.151 24.0367C107.151 24.2353 107.151 24.3744 107.131 24.4341H103.378C103.436 24.8314 103.596 25.1491 103.894 25.4073C104.212 25.6458 104.549 25.7848 104.947 25.7848ZM104.887 22.3879C104.49 22.3879 104.152 22.5071 103.894 22.7256C103.636 22.9441 103.476 23.2621 103.417 23.6394H106.278C106.218 23.2619 106.078 22.9441 105.84 22.7256C105.582 22.4872 105.265 22.3879 104.887 22.3879Z" fill="black"/>
<path d="M112.813 23.0831H111.859C111.601 22.6262 111.184 22.3879 110.608 22.3879C110.151 22.3879 109.773 22.5468 109.495 22.8646C109.197 23.1824 109.059 23.5996 109.059 24.0763C109.059 24.573 109.197 24.9703 109.495 25.2881C109.793 25.606 110.171 25.7649 110.608 25.7649C111.184 25.7649 111.581 25.5265 111.859 25.0697L112.813 25.0696C112.654 25.5463 112.356 25.9237 111.979 26.1819C111.581 26.4601 111.144 26.5991 110.628 26.5991C109.933 26.5991 109.357 26.3608 108.899 25.8642C108.442 25.3875 108.204 24.7716 108.204 24.0564C108.204 23.3413 108.442 22.7255 108.899 22.2488C109.357 21.7719 109.933 21.5137 110.628 21.5137C111.144 21.5137 111.601 21.6528 111.979 21.9309C112.376 22.2289 112.654 22.6063 112.813 23.0831Z" fill="black"/>
<path d="M113.984 23.4013H116.607V24.2556H113.984V23.4013Z" fill="black"/>
<path d="M119.01 21.6722V23.778L121.235 21.6722H122.407L119.824 24.0759L122.407 26.4796H121.235L118.99 24.5129V26.4796H118.116V21.6722H119.01Z" fill="black"/>
<path d="M123.778 21.6722H127.513V26.4796H126.639V22.4669H124.653V23.7184C124.653 24.0163 124.653 24.2547 124.633 24.4732C124.613 24.6918 124.573 24.9301 124.513 25.2083C124.453 25.4863 124.355 25.7049 124.255 25.8638C124.156 26.0227 123.977 26.1816 123.778 26.3008C123.56 26.42 123.322 26.4796 123.024 26.4796H122.726V25.6453H122.904C123.103 25.6453 123.282 25.5856 123.402 25.4863C123.52 25.3672 123.62 25.2083 123.679 24.9898C123.739 24.7712 123.759 24.5726 123.778 24.4136C123.798 24.2547 123.798 24.0163 123.798 23.7383V21.6722H123.778Z" fill="black"/>
<path d="M130.989 21.5536C131.664 21.5536 132.2 21.7125 132.618 22.0503C133.015 22.3879 133.233 22.8447 133.233 23.4407V26.4999H132.36V25.9834C131.962 26.4205 131.426 26.639 130.731 26.639C130.154 26.639 129.698 26.4999 129.36 26.2416C129.002 25.9636 128.843 25.5663 128.843 25.0498C128.843 24.5134 129.042 24.1161 129.42 23.8579C129.797 23.6195 130.293 23.4805 130.889 23.4805H132.36C132.36 22.7653 131.902 22.388 131.009 22.388C130.711 22.388 130.453 22.4476 130.194 22.5667C129.956 22.6859 129.797 22.8647 129.698 23.0832H128.744C128.863 22.6064 129.141 22.229 129.558 21.9509C129.956 21.6727 130.433 21.5536 130.989 21.5536ZM132.34 24.5532V24.2552H130.869C130.095 24.2552 129.698 24.5134 129.698 25.0299C129.698 25.5463 130.075 25.7848 130.81 25.7848C131.267 25.7848 131.644 25.6656 131.922 25.4471C132.2 25.2087 132.34 24.9306 132.34 24.5532Z" fill="black"/>
<path d="M139.055 23.0831H138.101C137.842 22.6262 137.426 22.3879 136.849 22.3879C136.393 22.3879 136.015 22.5468 135.737 22.8646C135.439 23.1824 135.3 23.5996 135.3 24.0763C135.3 24.573 135.439 24.9703 135.737 25.2881C136.035 25.606 136.413 25.7649 136.849 25.7649C137.426 25.7649 137.822 25.5265 138.101 25.0697L139.055 25.0696C138.895 25.5463 138.597 25.9237 138.22 26.1819C137.822 26.4601 137.386 26.5991 136.869 26.5991C136.174 26.5991 135.598 26.3608 135.141 25.8642C134.684 25.3875 134.446 24.7716 134.446 24.0564C134.446 23.3413 134.684 22.7255 135.141 22.2488C135.598 21.7719 136.174 21.5137 136.869 21.5137C137.386 21.5137 137.842 21.6528 138.22 21.9309C138.597 22.2289 138.875 22.6063 139.055 23.0831Z" fill="black"/>
<path d="M144.636 23.0831H143.683C143.425 22.6262 143.007 22.3879 142.432 22.3879C141.974 22.3879 141.597 22.5468 141.319 22.8646C141.021 23.1824 140.881 23.5996 140.881 24.0763C140.881 24.573 141.021 24.9703 141.319 25.2881C141.617 25.606 141.994 25.7649 142.432 25.7649C143.007 25.7649 143.405 25.5265 143.683 25.0697L144.636 25.0696C144.478 25.5463 144.179 25.9237 143.802 26.1819C143.405 26.4601 142.967 26.5991 142.451 26.5991C141.756 26.5991 141.179 26.3608 140.723 25.8642C140.266 25.3875 140.028 24.7716 140.028 24.0564C140.028 23.3413 140.266 22.7255 140.723 22.2488C141.179 21.7719 141.756 21.5137 142.451 21.5137C142.967 21.5137 143.425 21.6528 143.802 21.9309C144.179 22.2289 144.458 22.6063 144.636 23.0831Z" fill="black"/>
<path d="M147.755 21.5536C148.431 21.5536 148.967 21.7125 149.384 22.0503C149.782 22.3879 150 22.8447 150 23.4407V26.4999H149.126V25.9834C148.729 26.4205 148.192 26.639 147.497 26.639C146.921 26.639 146.464 26.4999 146.127 26.2416C145.769 25.9636 145.61 25.5663 145.61 25.0498C145.61 24.5134 145.809 24.1161 146.185 23.8579C146.563 23.6195 147.06 23.4805 147.656 23.4805H149.126C149.126 22.7653 148.669 22.388 147.775 22.388C147.478 22.388 147.219 22.4476 146.961 22.5667C146.722 22.6859 146.563 22.8647 146.464 23.0832H145.51C145.63 22.6064 145.908 22.229 146.325 21.9509C146.742 21.6727 147.219 21.5536 147.755 21.5536ZM149.126 24.5532V24.2552H147.656C146.881 24.2552 146.484 24.5134 146.484 25.0299C146.484 25.5463 146.861 25.7848 147.596 25.7848C148.053 25.7848 148.431 25.6656 148.709 25.4471C148.987 25.2087 149.126 24.9306 149.126 24.5532Z" fill="black"/>
</svg>
