<svg width="140" height="20" viewBox="0 0 140 20" fill="none" xmlns="http://www.w3.org/2000/svg">
<path fill-rule="evenodd" clip-rule="evenodd" d="M5.20013 0L0 19.7605H9.88024L11.9329 11.9603H17.6804L22.8806 19.7605H32.2408L27.0407 11.9603C27.0407 11.9603 34.052 10.6044 34.052 4.3852C34.052 3.45889 33.6052 2.41572 33.0789 1.64695C32.3053 0.516877 30.9526 0 29.5831 0H5.20013ZM24.56 5.87822C24.56 6.12617 24.5037 6.35817 24.4159 6.5692C24.0121 7.54006 22.8377 7.80019 21.7862 7.80019H13.0277L13.9856 4.1601H22.4044C23.2499 4.1601 24.1777 4.39895 24.4491 5.19963C24.5165 5.39836 24.56 5.62479 24.56 5.87822Z" fill="#0052A4"/>
<path d="M97.8599 0L92.6598 19.7605H102.263L105.536 7.32244L115.198 19.7605H124.802L130.002 0H120.399L117.126 12.4381L107.463 0H97.8599Z" fill="#0052A4"/>
<path d="M37.7211 2.32604L34.6781 13.8893C33.6671 17.4685 35.3492 19.7605 39.2042 19.7605H61.2091L62.4179 15.167H45.5712C44.8894 15.167 44.3919 14.5218 44.5655 13.8623L45.066 11.9603H63.2618L64.3567 7.80019H46.1608L46.9146 4.93545C47.0348 4.47855 47.4479 4.1601 47.9204 4.1601H74.3758L70.2704 19.7605H80.1507L84.2561 4.1601H94.4337L95.4508 0H40.7384C39.3211 0 38.0818 0.955344 37.7211 2.32604Z" fill="#D80A8C"/>
<path fill-rule="evenodd" clip-rule="evenodd" d="M135.302 2.56045L134.707 4.81792H135.837L136.071 3.92681H136.728L137.322 4.81792H138.391L137.797 3.92681C137.797 3.92681 138.598 3.77191 138.598 3.06143C138.598 2.95561 138.547 2.83643 138.487 2.7486C138.398 2.6195 138.243 2.56045 138.087 2.56045H135.302ZM137.513 3.23199C137.513 3.40497 137.289 3.45156 137.116 3.45156H136.195L136.306 3.03571H137.189C137.336 3.03571 137.513 3.08404 137.513 3.23199Z" fill="#0052A4"/>
</svg>
