<svg width="64" height="64" viewBox="0 0 64 64" fill="none" xmlns="http://www.w3.org/2000/svg">
<g clip-path="url(#clip0_823_9159)">
<path d="M49.389 50.0874C49.02 50.0873 48.6662 49.9407 48.4053 49.6798L26.1445 27.4189C25.891 27.1565 25.7508 26.805 25.754 26.4403C25.7571 26.0755 25.9035 25.7265 26.1614 25.4685C26.4194 25.2106 26.7683 25.0643 27.1331 25.0611C27.4979 25.0579 27.8494 25.1982 28.1118 25.4516L50.3726 47.7125C50.5672 47.907 50.6996 48.1549 50.7533 48.4248C50.8069 48.6946 50.7794 48.9743 50.6741 49.2285C50.5688 49.4827 50.3905 49.7 50.1618 49.8528C49.933 50.0057 49.6641 50.0874 49.389 50.0874Z" fill="url(#paint0_linear_823_9159)"/>
<path d="M35.4754 64.0001C38.549 64.0001 41.0406 61.5084 41.0406 58.4348C41.0406 55.3613 38.549 52.8696 35.4754 52.8696C32.4018 52.8696 29.9102 55.3613 29.9102 58.4348C29.9102 61.5084 32.4018 64.0001 35.4754 64.0001Z" fill="url(#paint1_linear_823_9159)"/>
<path d="M57.7371 64.0001C60.8107 64.0001 63.3023 61.5084 63.3023 58.4348C63.3023 55.3613 60.8107 52.8696 57.7371 52.8696C54.6635 52.8696 52.1719 55.3613 52.1719 58.4348C52.1719 61.5084 54.6635 64.0001 57.7371 64.0001Z" fill="url(#paint2_linear_823_9159)"/>
<path d="M54.9558 22.2608C58.0294 22.2608 60.5211 19.7692 60.5211 16.6956C60.5211 13.622 58.0294 11.1304 54.9558 11.1304C51.8823 11.1304 49.3906 13.622 49.3906 16.6956C49.3906 19.7692 51.8823 22.2608 54.9558 22.2608Z" fill="url(#paint3_linear_823_9159)"/>
<g filter="url(#filter0_i_823_9159)">
<path d="M46.6044 26.4354H34.0827C33.7137 26.4354 33.3598 26.2888 33.0989 26.0279C32.838 25.767 32.6914 25.4131 32.6914 25.0441C32.6914 24.6751 32.838 24.3212 33.0989 24.0603C33.3598 23.7994 33.7137 23.6528 34.0827 23.6528H46.0284L52.5773 17.1039C52.8397 16.8505 53.1912 16.7103 53.556 16.7134C53.9208 16.7166 54.2697 16.8629 54.5277 17.1209C54.7856 17.3788 54.932 17.7278 54.9351 18.0926C54.9383 18.4574 54.7981 18.8088 54.5446 19.0712L47.5881 26.0278C47.3272 26.2887 46.9734 26.4353 46.6044 26.4354Z" fill="white" fill-opacity="0.1"/>
</g>
<path d="M46.0284 23.9861H46.1665L46.2641 23.8885L52.8108 17.3418C53.0101 17.1503 53.2766 17.0443 53.5531 17.0468C53.8305 17.0492 54.0958 17.1604 54.292 17.3566C54.4881 17.5527 54.5994 17.8181 54.6018 18.0955C54.6042 18.372 54.4983 18.6384 54.3068 18.8377L47.3524 25.7921L47.3524 25.7921C47.154 25.9905 46.885 26.102 46.6044 26.1021C46.6044 26.1021 46.6044 26.1021 46.6044 26.1021H34.0827C33.8021 26.1021 33.533 25.9906 33.3346 25.7922C33.1362 25.5938 33.0247 25.3247 33.0247 25.0441C33.0247 24.7635 33.1362 24.4944 33.3346 24.296C33.533 24.0976 33.8021 23.9861 34.0827 23.9861H46.0284Z" stroke="url(#paint4_linear_823_9159)" stroke-opacity="0.1" stroke-width="0.666667"/>
<g filter="url(#filter1_i_823_9159)">
<path d="M57.7412 55.6527C57.3722 55.6527 57.0183 55.5061 56.7574 55.2452C56.4964 54.9843 56.3499 54.6304 56.3499 54.2614V49.2722L48.8173 41.7396H45.2194C44.8504 41.7396 44.4965 41.5931 44.2356 41.3321C43.9747 41.0712 43.8281 40.7173 43.8281 40.3483C43.8281 39.9793 43.9747 39.6255 44.2356 39.3645C44.4965 39.1036 44.8504 38.957 45.2194 38.957H49.3933C49.7623 38.9571 50.1161 39.1037 50.377 39.3647L58.7248 47.7125C58.9858 47.9734 59.1324 48.3272 59.1325 48.6962V54.2614C59.1325 54.6304 58.9859 54.9843 58.725 55.2452C58.464 55.5061 58.1102 55.6527 57.7412 55.6527Z" fill="white" fill-opacity="0.1"/>
</g>
<path d="M56.6832 49.2722V49.1341L56.5856 49.0365L49.053 41.5039L48.9554 41.4063H48.8173H45.2194C44.9388 41.4063 44.6697 41.2948 44.4713 41.0964C44.2729 40.898 44.1615 40.6289 44.1615 40.3483C44.1615 40.0677 44.2729 39.7986 44.4713 39.6002C44.6697 39.4018 44.9388 39.2904 45.2194 39.2904H49.3933C49.3933 39.2904 49.3933 39.2904 49.3933 39.2904C49.6739 39.2904 49.9429 39.4019 50.1413 39.6003L50.1413 39.6004L58.4891 47.9482L58.4892 47.9482C58.6876 48.1466 58.7991 48.4156 58.7991 48.6962C58.7991 48.6962 58.7991 48.6962 58.7991 48.6962V54.2614C58.7991 54.542 58.6877 54.8111 58.4893 55.0095C58.2909 55.2079 58.0218 55.3193 57.7412 55.3193C57.4606 55.3193 57.1915 55.2079 56.9931 55.0095C56.7947 54.8111 56.6832 54.542 56.6832 54.2614V49.2722Z" stroke="url(#paint5_linear_823_9159)" stroke-opacity="0.1" stroke-width="0.666667"/>
<g filter="url(#filter2_i_823_9159)">
<path d="M32.5271 56.8751C32.1582 56.875 31.8043 56.7284 31.5435 56.4675L24.7553 49.6793C24.4944 49.4184 24.3477 49.0646 24.3477 48.6957V33.3913C24.3477 33.0223 24.4942 32.6684 24.7552 32.4075C25.0161 32.1466 25.37 32 25.739 32C26.108 32 26.4618 32.1466 26.7228 32.4075C26.9837 32.6684 27.1303 33.0223 27.1303 33.3913V48.1196L33.5108 54.5002C33.7053 54.6947 33.8378 54.9426 33.8914 55.2125C33.9451 55.4823 33.9175 55.762 33.8123 56.0162C33.707 56.2704 33.5287 56.4877 33.2999 56.6406C33.0712 56.7934 32.8023 56.8751 32.5271 56.8751Z" fill="white" fill-opacity="0.1"/>
</g>
<path d="M31.7792 56.2318L31.7792 56.2318C31.9776 56.4302 32.2465 56.5417 32.5271 56.5418L31.7792 56.2318ZM31.7792 56.2318L24.991 49.4436L24.991 49.4436M31.7792 56.2318L24.991 49.4436M24.991 49.4436C24.7926 49.2452 24.6811 48.9762 24.681 48.6957C24.681 48.6956 24.681 48.6956 24.681 48.6956V33.3913C24.681 33.1107 24.7925 32.8416 24.9909 32.6432C25.1893 32.4448 25.4584 32.3333 25.739 32.3333C26.0196 32.3333 26.2887 32.4448 26.4871 32.6432C26.6855 32.8416 26.7969 33.1107 26.7969 33.3913V48.1196V48.2577M24.991 49.4436L26.7969 48.2577M26.7969 48.2577L26.8946 48.3554M26.7969 48.2577L26.8946 48.3554M26.8946 48.3554L33.275 54.7358M26.8946 48.3554L33.275 54.7358M33.275 54.7358C33.2751 54.7358 33.2751 54.7359 33.2751 54.7359M33.275 54.7358L33.2751 54.7359M33.2751 54.7359C33.423 54.8838 33.5237 55.0723 33.5645 55.2775M33.2751 54.7359L33.5645 55.2775M33.5645 55.2775C33.6053 55.4827 33.5843 55.6954 33.5043 55.8887M33.5645 55.2775L33.5043 55.8887M33.5043 55.8887C33.4242 56.082 33.2887 56.2472 33.1147 56.3634M33.5043 55.8887L33.1147 56.3634M33.1147 56.3634C32.9408 56.4797 32.7364 56.5417 32.5272 56.5418L33.1147 56.3634Z" stroke="url(#paint6_linear_823_9159)" stroke-opacity="0.1" stroke-width="0.666667"/>
<g filter="url(#filter3_bi_823_9159)">
<path d="M50.3707 39.3642L47.5881 36.5816C47.3272 36.3206 46.9734 36.174 46.6044 36.1739H43.8218C43.4528 36.1739 43.099 36.0273 42.838 35.7664C42.5771 35.5055 42.4305 35.1516 42.4305 34.7826V32C42.4305 31.631 42.2838 31.2772 42.0229 31.0164L30.6573 19.6508C31.0824 18.2411 31.2989 16.7768 31.3001 15.3044C31.3001 12.2774 30.4025 9.3185 28.7209 6.80171C27.0392 4.28493 24.649 2.32333 21.8525 1.16498C19.056 0.00663119 15.9788 -0.296446 13.01 0.294076C10.0413 0.884597 7.3143 2.3422 5.17395 4.48255C3.0336 6.6229 1.576 9.34987 0.985482 12.3186C0.39496 15.2874 0.698037 18.3646 1.85639 21.1611C3.01474 23.9576 4.97633 26.3478 7.49312 28.0295C10.0099 29.7111 12.9688 30.6087 15.9958 30.6087C17.4682 30.6075 18.9325 30.3909 20.3422 29.9659L25.1589 34.7826H28.5175C28.8865 34.7826 29.2404 34.9292 29.5013 35.1901C29.7622 35.451 29.9088 35.8049 29.9088 36.1739V39.5325L31.7078 41.3315C31.9686 41.5924 32.3224 41.7391 32.6914 41.7391H35.474C35.843 41.7391 36.1969 41.8857 36.4578 42.1466C36.7187 42.4076 36.8653 42.7614 36.8653 43.1304V45.913C36.8654 46.282 37.012 46.6358 37.273 46.8967L40.0556 49.6793C40.3164 49.9402 40.6703 50.0869 41.0392 50.087H49.3871C49.7561 50.087 50.1099 49.9404 50.3709 49.6795C50.6318 49.4185 50.7784 49.0647 50.7784 48.6957V40.3478C50.7783 39.9789 50.6316 39.625 50.3707 39.3642ZM12.5175 16.6957C11.5544 16.6957 10.6129 16.4101 9.81211 15.875C9.01132 15.3399 8.38717 14.5794 8.01861 13.6896C7.65004 12.7998 7.55361 11.8207 7.7415 10.8761C7.92939 9.93148 8.39318 9.06381 9.0742 8.38279C9.75522 7.70177 10.6229 7.23799 11.5675 7.0501C12.5121 6.8622 13.4912 6.95864 14.381 7.3272C15.2708 7.69577 16.0313 8.31991 16.5664 9.12071C17.1015 9.9215 17.3871 10.863 17.3871 11.8261C17.3871 13.1176 16.874 14.3562 15.9608 15.2694C15.0476 16.1826 13.809 16.6957 12.5175 16.6957Z" fill="#1D1D1D" fill-opacity="0.05"/>
<path d="M50.3707 39.3642L47.5881 36.5816C47.3272 36.3206 46.9734 36.174 46.6044 36.1739H43.8218C43.4528 36.1739 43.099 36.0273 42.838 35.7664C42.5771 35.5055 42.4305 35.1516 42.4305 34.7826V32C42.4305 31.631 42.2838 31.2772 42.0229 31.0164L30.6573 19.6508C31.0824 18.2411 31.2989 16.7768 31.3001 15.3044C31.3001 12.2774 30.4025 9.3185 28.7209 6.80171C27.0392 4.28493 24.649 2.32333 21.8525 1.16498C19.056 0.00663119 15.9788 -0.296446 13.01 0.294076C10.0413 0.884597 7.3143 2.3422 5.17395 4.48255C3.0336 6.6229 1.576 9.34987 0.985482 12.3186C0.39496 15.2874 0.698037 18.3646 1.85639 21.1611C3.01474 23.9576 4.97633 26.3478 7.49312 28.0295C10.0099 29.7111 12.9688 30.6087 15.9958 30.6087C17.4682 30.6075 18.9325 30.3909 20.3422 29.9659L25.1589 34.7826H28.5175C28.8865 34.7826 29.2404 34.9292 29.5013 35.1901C29.7622 35.451 29.9088 35.8049 29.9088 36.1739V39.5325L31.7078 41.3315C31.9686 41.5924 32.3224 41.7391 32.6914 41.7391H35.474C35.843 41.7391 36.1969 41.8857 36.4578 42.1466C36.7187 42.4076 36.8653 42.7614 36.8653 43.1304V45.913C36.8654 46.282 37.012 46.6358 37.273 46.8967L40.0556 49.6793C40.3164 49.9402 40.6703 50.0869 41.0392 50.087H49.3871C49.7561 50.087 50.1099 49.9404 50.3709 49.6795C50.6318 49.4185 50.7784 49.0647 50.7784 48.6957V40.3478C50.7783 39.9789 50.6316 39.625 50.3707 39.3642ZM12.5175 16.6957C11.5544 16.6957 10.6129 16.4101 9.81211 15.875C9.01132 15.3399 8.38717 14.5794 8.01861 13.6896C7.65004 12.7998 7.55361 11.8207 7.7415 10.8761C7.92939 9.93148 8.39318 9.06381 9.0742 8.38279C9.75522 7.70177 10.6229 7.23799 11.5675 7.0501C12.5121 6.8622 13.4912 6.95864 14.381 7.3272C15.2708 7.69577 16.0313 8.31991 16.5664 9.12071C17.1015 9.9215 17.3871 10.863 17.3871 11.8261C17.3871 13.1176 16.874 14.3562 15.9608 15.2694C15.0476 16.1826 13.809 16.6957 12.5175 16.6957Z" fill="url(#paint7_linear_823_9159)" fill-opacity="0.2"/>
<path d="M50.135 39.5999L50.135 39.5999C50.3335 39.7983 50.445 40.0673 50.445 40.3478C50.445 40.3479 50.445 40.3479 50.445 40.3479V48.6957C50.445 48.9762 50.3336 49.2453 50.1352 49.4438C49.9367 49.6422 49.6676 49.7536 49.3871 49.7536H41.0393C41.0393 49.7536 41.0393 49.7536 41.0392 49.7536C40.7587 49.7535 40.4897 49.642 40.2913 49.4436L40.2913 49.4436L37.5087 46.661L37.5086 46.661C37.3102 46.4626 37.1987 46.1936 37.1987 45.913C37.1987 45.913 37.1987 45.913 37.1987 45.913V43.1304C37.1987 42.673 37.017 42.2344 36.6935 41.9109C36.3701 41.5875 35.9314 41.4058 35.474 41.4058H32.6915C32.6915 41.4058 32.6914 41.4058 32.6914 41.4058C32.4109 41.4057 32.1418 41.2942 31.9435 41.0958L31.9435 41.0958L30.2421 39.3945V36.1739C30.2421 35.7165 30.0604 35.2779 29.737 34.9544C29.4136 34.631 28.9749 34.4493 28.5175 34.4493H25.297L20.5779 29.7302L20.4369 29.5892L20.246 29.6468C18.8674 30.0624 17.4354 30.2742 15.9955 30.2754C13.0346 30.2753 10.1402 29.3973 7.67831 27.7523C5.21634 26.1073 3.29747 23.7691 2.16435 21.0335C1.03123 18.2979 0.73475 15.2877 1.31241 12.3837C1.89007 9.47956 3.31592 6.81198 5.40965 4.71825C7.50339 2.62452 10.171 1.19866 13.0751 0.621004C15.9792 0.0433442 18.9893 0.33982 21.7249 1.47294C24.4605 2.60606 26.7987 4.52493 28.4437 6.9869C30.0887 9.4488 30.9667 12.3432 30.9668 15.3041C30.9656 16.744 30.7538 18.176 30.3382 19.5546L30.2806 19.7455L30.4216 19.8865L41.7872 31.2521L41.7872 31.2521C41.9856 31.4504 42.0971 31.7195 42.0972 32C42.0972 32 42.0972 32.0001 42.0972 32.0001V34.7826C42.0972 35.24 42.2789 35.6787 42.6023 36.0021C42.9258 36.3256 43.3644 36.5073 43.8218 36.5073H46.6044C46.6044 36.5073 46.6044 36.5073 46.6044 36.5073C46.885 36.5073 47.154 36.6188 47.3524 36.8172L47.3524 36.8173L50.135 39.5999ZM9.62692 16.1521C10.4825 16.7238 11.4885 17.029 12.5175 17.029C13.8974 17.029 15.2208 16.4808 16.1965 15.5051C17.1722 14.5294 17.7204 13.206 17.7204 11.8261C17.7204 10.7971 17.4153 9.79113 16.8435 8.93552C16.2718 8.07991 15.4593 7.41304 14.5086 7.01924C13.5579 6.62545 12.5117 6.52241 11.5025 6.72317C10.4932 6.92392 9.56613 7.41945 8.83849 8.14709C8.11086 8.87473 7.61533 9.80179 7.41457 10.8111C7.21382 11.8203 7.31685 12.8664 7.71065 13.8172C8.10444 14.7679 8.77131 15.5804 9.62692 16.1521Z" stroke="url(#paint8_linear_823_9159)" stroke-opacity="0.1" stroke-width="0.666667"/>
</g>
<g filter="url(#filter4_i_823_9159)">
<path d="M49.389 50.0874C49.02 50.0873 48.6662 49.9407 48.4053 49.6798L26.1445 27.4189C25.891 27.1565 25.7508 26.805 25.754 26.4403C25.7571 26.0755 25.9035 25.7265 26.1614 25.4685C26.4194 25.2106 26.7683 25.0643 27.1331 25.0611C27.4979 25.0579 27.8494 25.1982 28.1118 25.4516L50.3726 47.7125C50.5672 47.907 50.6996 48.1549 50.7533 48.4248C50.8069 48.6946 50.7794 48.9743 50.6741 49.2285C50.5688 49.4827 50.3905 49.7 50.1618 49.8528C49.933 50.0057 49.6641 50.0874 49.389 50.0874Z" fill="white" fill-opacity="0.1"/>
</g>
</g>
<defs>
<filter id="filter0_i_823_9159" x="32.6914" y="16.7134" width="22.2422" height="10.2222" filterUnits="userSpaceOnUse" color-interpolation-filters="sRGB">
<feFlood flood-opacity="0" result="BackgroundImageFix"/>
<feBlend mode="normal" in="SourceGraphic" in2="BackgroundImageFix" result="shape"/>
<feColorMatrix in="SourceAlpha" type="matrix" values="0 0 0 0 0 0 0 0 0 0 0 0 0 0 0 0 0 0 127 0" result="hardAlpha"/>
<feOffset dy="0.5"/>
<feGaussianBlur stdDeviation="0.25"/>
<feComposite in2="hardAlpha" operator="arithmetic" k2="-1" k3="1"/>
<feColorMatrix type="matrix" values="0 0 0 0 1 0 0 0 0 1 0 0 0 0 1 0 0 0 0.1 0"/>
<feBlend mode="normal" in2="shape" result="effect1_innerShadow_823_9159"/>
</filter>
<filter id="filter1_i_823_9159" x="43.8281" y="38.957" width="15.3047" height="17.1958" filterUnits="userSpaceOnUse" color-interpolation-filters="sRGB">
<feFlood flood-opacity="0" result="BackgroundImageFix"/>
<feBlend mode="normal" in="SourceGraphic" in2="BackgroundImageFix" result="shape"/>
<feColorMatrix in="SourceAlpha" type="matrix" values="0 0 0 0 0 0 0 0 0 0 0 0 0 0 0 0 0 0 127 0" result="hardAlpha"/>
<feOffset dy="0.5"/>
<feGaussianBlur stdDeviation="0.25"/>
<feComposite in2="hardAlpha" operator="arithmetic" k2="-1" k3="1"/>
<feColorMatrix type="matrix" values="0 0 0 0 1 0 0 0 0 1 0 0 0 0 1 0 0 0 0.1 0"/>
<feBlend mode="normal" in2="shape" result="effect1_innerShadow_823_9159"/>
</filter>
<filter id="filter2_i_823_9159" x="24.3477" y="32" width="9.57031" height="25.375" filterUnits="userSpaceOnUse" color-interpolation-filters="sRGB">
<feFlood flood-opacity="0" result="BackgroundImageFix"/>
<feBlend mode="normal" in="SourceGraphic" in2="BackgroundImageFix" result="shape"/>
<feColorMatrix in="SourceAlpha" type="matrix" values="0 0 0 0 0 0 0 0 0 0 0 0 0 0 0 0 0 0 127 0" result="hardAlpha"/>
<feOffset dy="0.5"/>
<feGaussianBlur stdDeviation="0.25"/>
<feComposite in2="hardAlpha" operator="arithmetic" k2="-1" k3="1"/>
<feColorMatrix type="matrix" values="0 0 0 0 1 0 0 0 0 1 0 0 0 0 1 0 0 0 0.1 0"/>
<feBlend mode="normal" in2="shape" result="effect1_innerShadow_823_9159"/>
</filter>
<filter id="filter3_bi_823_9159" x="-2.30859" y="-3" width="56.0859" height="56.0869" filterUnits="userSpaceOnUse" color-interpolation-filters="sRGB">
<feFlood flood-opacity="0" result="BackgroundImageFix"/>
<feGaussianBlur in="BackgroundImageFix" stdDeviation="1.5"/>
<feComposite in2="SourceAlpha" operator="in" result="effect1_backgroundBlur_823_9159"/>
<feBlend mode="normal" in="SourceGraphic" in2="effect1_backgroundBlur_823_9159" result="shape"/>
<feColorMatrix in="SourceAlpha" type="matrix" values="0 0 0 0 0 0 0 0 0 0 0 0 0 0 0 0 0 0 127 0" result="hardAlpha"/>
<feOffset dy="0.5"/>
<feGaussianBlur stdDeviation="1"/>
<feComposite in2="hardAlpha" operator="arithmetic" k2="-1" k3="1"/>
<feColorMatrix type="matrix" values="0 0 0 0 1 0 0 0 0 1 0 0 0 0 1 0 0 0 0.15 0"/>
<feBlend mode="normal" in2="shape" result="effect2_innerShadow_823_9159"/>
</filter>
<filter id="filter4_i_823_9159" x="25.7539" y="25.061" width="25.0273" height="25.5264" filterUnits="userSpaceOnUse" color-interpolation-filters="sRGB">
<feFlood flood-opacity="0" result="BackgroundImageFix"/>
<feBlend mode="normal" in="SourceGraphic" in2="BackgroundImageFix" result="shape"/>
<feColorMatrix in="SourceAlpha" type="matrix" values="0 0 0 0 0 0 0 0 0 0 0 0 0 0 0 0 0 0 127 0" result="hardAlpha"/>
<feOffset dy="0.5"/>
<feGaussianBlur stdDeviation="0.25"/>
<feComposite in2="hardAlpha" operator="arithmetic" k2="-1" k3="1"/>
<feColorMatrix type="matrix" values="0 0 0 0 1 0 0 0 0 1 0 0 0 0 1 0 0 0 0.1 0"/>
<feBlend mode="normal" in2="shape" result="effect1_innerShadow_823_9159"/>
</filter>
<linearGradient id="paint0_linear_823_9159" x1="25.7539" y1="25.061" x2="55.2339" y2="32.5465" gradientUnits="userSpaceOnUse">
<stop stop-color="#75A5FF"/>
<stop offset="0.703125" stop-color="#008ECF"/>
</linearGradient>
<linearGradient id="paint1_linear_823_9159" x1="29.9102" y1="52.8696" x2="43.0215" y2="56.1988" gradientUnits="userSpaceOnUse">
<stop stop-color="#75A5FF"/>
<stop offset="0.703125" stop-color="#008ECF"/>
</linearGradient>
<linearGradient id="paint2_linear_823_9159" x1="52.1719" y1="52.8696" x2="65.2832" y2="56.1988" gradientUnits="userSpaceOnUse">
<stop stop-color="#75A5FF"/>
<stop offset="0.703125" stop-color="#008ECF"/>
</linearGradient>
<linearGradient id="paint3_linear_823_9159" x1="49.3906" y1="11.1304" x2="62.5019" y2="14.4596" gradientUnits="userSpaceOnUse">
<stop stop-color="#75A5FF"/>
<stop offset="0.703125" stop-color="#008ECF"/>
</linearGradient>
<linearGradient id="paint4_linear_823_9159" x1="33.3865" y1="17.1553" x2="54.9352" y2="17.1553" gradientUnits="userSpaceOnUse">
<stop stop-color="#3CDEB6"/>
<stop offset="0.65625" stop-color="#364AFF"/>
</linearGradient>
<linearGradient id="paint5_linear_823_9159" x1="44.3064" y1="39.7159" x2="59.1325" y2="39.7159" gradientUnits="userSpaceOnUse">
<stop stop-color="#3CDEB6"/>
<stop offset="0.65625" stop-color="#364AFF"/>
</linearGradient>
<linearGradient id="paint6_linear_823_9159" x1="24.6467" y1="33.1307" x2="33.9181" y2="33.1307" gradientUnits="userSpaceOnUse">
<stop stop-color="#3CDEB6"/>
<stop offset="0.65625" stop-color="#364AFF"/>
</linearGradient>
<linearGradient id="paint7_linear_823_9159" x1="0.691406" y1="0" x2="59.6923" y2="14.9814" gradientUnits="userSpaceOnUse">
<stop stop-color="#87FFE1"/>
<stop offset="0.776042" stop-color="#5C6DFF"/>
</linearGradient>
<linearGradient id="paint8_linear_823_9159" x1="2.25662" y1="2.27668" x2="50.7784" y2="2.27668" gradientUnits="userSpaceOnUse">
<stop stop-color="#3CDEB6"/>
<stop offset="0.65625" stop-color="#364AFF"/>
</linearGradient>
<clipPath id="clip0_823_9159">
<rect width="64" height="64" fill="white"/>
</clipPath>
</defs>
</svg>
