<svg width="150" height="42" viewBox="0 0 150 42" fill="none" xmlns="http://www.w3.org/2000/svg">
<path d="M57.7561 30.8979C57.7561 31.4274 58.1856 31.8563 58.7066 31.8563H63.4667C63.9923 31.8563 64.4194 31.4274 64.4194 30.8979V10.9126C64.4194 10.3845 63.9923 9.95184 63.4667 9.95184H47.5417C47.0207 9.95184 46.5934 10.3845 46.5934 10.9126V18.3289C46.5934 22.9581 45.5232 25.9671 42.5894 26.8842C41.7257 27.1539 41.4746 27.3547 41.7257 28.2885L42.5189 31.23C42.7161 31.9662 43.1972 32.1518 44.0398 31.9982C49.708 30.9735 52.9376 26.0488 52.9376 18.2591V14.5563H57.7585L57.7561 30.8979Z" fill="#F59F2E"/>
<path d="M25.9939 5.32132L26.353 1.7686C26.4281 1.01574 25.9715 0.645814 25.2358 0.645814H1.20888C0.403661 0.645814 0 1.00514 0 1.7686V5.09548C0 5.9961 0.358078 6.4477 1.25346 6.4477H9.42583V30.7807C9.42583 31.7239 9.51517 31.8588 10.4538 31.8588H15.4978C16.3944 31.8588 16.5281 31.6803 16.5281 30.6899V6.4477H24.3884C25.3249 6.4477 25.9058 6.21965 25.9939 5.32132Z" fill="#F59F2E"/>
<path d="M41.6646 21.378C41.6834 14.5126 39.1463 9.27928 32.0639 9.27928C25.184 9.27928 20.4958 13.8661 20.4958 20.8391C20.4958 28.0341 25.0057 32.4437 32.1062 32.4437C34.6963 32.4426 37.8318 32.0148 40.1907 30.912C40.9042 30.5787 41.1811 30.2182 40.984 29.4655L40.1907 26.4175C40.0264 25.7816 39.4772 25.6929 38.9397 25.9223C37.1676 26.6762 35.276 27.0898 33.3138 27.0898C30.587 27.0887 28.0874 25.5181 27.5512 22.6826H40.0569C41.1742 22.6826 41.6622 22.4582 41.6646 21.378ZM27.6415 18.4115C27.9536 16.296 29.4277 14.497 31.6603 14.497C33.9827 14.497 35.0998 16.4768 35.0998 18.4115H27.6415Z" fill="#F59F2E"/>
<path d="M149.042 9.95184H144.254C143.731 9.95184 143.301 10.3845 143.301 10.9126V18.2058H136.373V10.9126C136.373 10.3845 135.939 9.95184 135.413 9.95184H130.627C130.104 9.95184 129.672 10.3845 129.672 10.9126V30.8991C129.672 31.432 130.104 31.8588 130.627 31.8588H135.413C135.939 31.8588 136.373 31.432 136.373 30.8991V23.0173H143.301V30.8991C143.301 31.432 143.731 31.8588 144.254 31.8588H149.04C149.568 31.8588 150 31.432 150 30.8991V10.9126C150 10.3845 149.568 9.95184 149.042 9.95184Z" fill="#F59F2E"/>
<path d="M125.145 9.95184H120.436C119.915 9.95184 119.495 10.3845 119.495 10.9126V13.6356L112.144 21.1203V10.9126C112.144 10.3845 111.722 9.95184 111.203 9.95184H106.495C105.976 9.95184 105.554 10.3845 105.554 10.9126V30.8991C105.554 31.432 105.976 31.8588 106.495 31.8588H111.203C111.722 31.8588 112.144 31.431 112.144 30.8991V27.9586L119.495 20.475L119.493 30.8991C119.493 31.432 119.918 31.8588 120.436 31.8588H125.142C125.661 31.8588 126.083 31.432 126.083 30.8991V10.9126C126.083 10.3845 125.661 9.95184 125.145 9.95184Z" fill="#F59F2E"/>
<path d="M93.54 9.7494C91.5075 9.7494 89.4091 10.6098 88.1395 11.6995V8.05693H88.1103V1.05335C88.1103 -0.00214377 87.4813 -0.0705412 86.681 0.0369438L82.9116 0.553347C82.292 0.640829 81.9212 0.886586 81.9212 1.71992V11.6995C80.6514 10.6098 78.5532 9.7494 76.5206 9.7494C70.292 9.7494 67.1398 15.154 67.1398 20.912C67.1398 26.8627 70.3436 32.9185 76.9195 32.9185C78.6408 32.9185 80.2577 32.3992 81.4386 31.5236V40.6042C81.4386 41.6385 81.9316 42 82.8234 42H87.2372C88.129 42 88.622 41.6384 88.622 40.6042V31.5236C89.8028 32.3994 91.4199 32.9186 93.141 32.9186C99.717 32.9186 102.921 26.8627 102.921 20.912C102.921 15.154 99.7685 9.7494 93.54 9.7494ZM74.1083 21.3079C74.1083 18.5755 74.9369 15.2344 78.2574 15.2344C79.5553 15.2344 81.2099 16.0876 81.9212 16.8606V25.1287C81.8867 25.5097 81.8144 25.8689 81.7134 26.2089C80.8889 26.9013 79.587 27.4702 78.3983 27.4702C75.1434 27.4702 74.1083 24.0014 74.1083 21.3079ZM91.6623 27.4702C90.4736 27.4702 89.1717 26.9013 88.3472 26.209C88.2462 25.8691 88.174 25.5098 88.1395 25.1287V16.8606C88.8507 16.0876 90.5052 15.2344 91.8031 15.2344C95.1238 15.2344 95.9521 18.5755 95.9521 21.308C95.9521 24.0015 94.9171 27.4702 91.6623 27.4702Z" fill="#F59F2E"/>
</svg>
