<svg width="110" height="92" viewBox="0 0 110 92" fill="none" xmlns="http://www.w3.org/2000/svg">
<path d="M68.8664 19.17C68.8027 19.4047 68.7602 19.5327 68.7177 19.6607C68.2928 20.9832 68.5265 22.1992 69.3339 23.2871C70.7361 25.143 72.6059 26.2522 74.9005 26.5509C77.1101 26.8495 79.1498 26.2949 81.0408 25.1856C81.8269 24.7163 82.5493 24.1404 83.2929 23.6071C83.4841 23.4791 83.6541 23.3084 83.8453 23.1591C84.9289 25.9536 84.8652 34.1451 83.7391 36.5983C83.5904 36.4276 83.4629 36.257 83.3567 36.0863C81.3595 33.3985 78.8949 31.2226 75.9841 29.6014C73.7744 28.3641 71.3948 27.7028 68.8452 27.8095C68.6327 27.8095 68.4203 27.8095 68.2078 27.8521C67.5279 28.0655 66.9967 27.8521 66.4443 27.4468C64.6808 26.2096 63.0236 24.8657 61.5788 23.2658C60.5802 22.1352 59.7091 20.8979 59.093 19.5113C58.0519 17.1648 57.8607 14.733 58.8168 12.3438C60.5165 8.05603 63.3848 4.7709 67.6554 2.97901C72.3934 0.995131 76.7065 1.9764 80.4671 5.43219C81.5932 6.47746 82.5068 7.71472 83.1442 9.14396C84.3553 11.8745 84.249 14.5836 82.783 17.1861C81.6994 19.106 80.1484 20.5566 78.2575 21.6445C77.3439 22.1565 76.3665 22.4978 75.3042 22.4125C74.7518 22.3698 74.2418 22.2205 73.8382 21.8152C73.4982 21.4739 73.4132 21.1752 73.7319 20.8126C74.1569 20.3219 74.6243 19.8313 75.1554 19.4473C77.3014 17.8048 79.4898 16.2049 81.6569 14.5836C82.4006 14.029 82.4643 13.9437 82.0606 13.1331C80.5733 10.0399 78.4274 7.56539 75.2192 6.20015C70.29 4.13094 65.0845 6.45613 62.6412 10.2319C60.134 14.093 62.5562 17.7834 65.9556 18.8287C66.6143 19.042 67.3367 19.042 68.0378 19.1273C68.2715 19.2127 68.5265 19.17 68.8664 19.17Z" fill="#D42427"/>
<path d="M41.437 40.2674C41.4795 40.1181 41.5007 40.0327 41.522 39.9474C42.0744 38.4542 41.7769 37.0889 40.7783 35.8943C38.7599 33.5051 36.1678 32.4599 33.0658 32.8865C30.7499 33.2065 28.8164 34.2944 27.053 35.7663C26.883 35.9156 26.6918 36.065 26.5218 36.2143C25.4382 34.3584 25.4382 26.3589 26.5431 22.7538C26.713 22.9671 26.8618 23.1378 26.9892 23.3084C28.9864 25.9749 31.4085 28.1295 34.2981 29.772C36.9327 31.2439 39.7585 31.9052 42.7755 31.4573C42.9667 31.4359 43.2005 31.4999 43.3492 31.6066C45.6226 33.0998 47.726 34.8064 49.4257 36.9609C50.1694 37.8995 50.7855 38.8808 51.2529 39.9687C52.2515 42.2939 52.4215 44.6618 51.5079 47.0083C49.8294 51.3387 46.9186 54.6238 42.648 56.437C36.2103 59.1889 29.7513 55.7758 27.138 50.1654C26.5218 48.8429 26.2881 47.4136 26.3943 45.9417C26.4581 44.8538 26.7343 43.8298 27.2017 42.8699C28.349 40.5234 30.1125 38.7741 32.4284 37.5795C33.3632 37.0889 34.3618 36.8116 35.4242 37.0249C35.5941 37.0462 35.7429 37.0889 35.8916 37.1529C36.9327 37.5795 37.0602 38.1555 36.2953 38.9661C35.9128 39.3501 35.5092 39.6914 35.063 40.0327C32.8958 41.654 30.7287 43.2752 28.5615 44.8964C27.9878 45.3231 27.9241 45.4297 28.2003 46.0057C29.9638 49.7815 32.5984 52.64 36.784 53.6852C38.4412 54.0905 40.0984 54.0052 41.7132 53.5359C43.8166 52.9173 45.5801 51.744 47.0248 50.0801C47.5773 49.4402 48.0447 48.7149 48.3421 47.9042C49.107 45.8564 48.7458 43.9792 47.3011 42.3793C45.9625 40.9073 44.2628 40.2034 42.2656 40.2461C42.0106 40.2674 41.7557 40.2674 41.437 40.2674Z" fill="#D42427"/>
<path d="M61.5576 58.7196C57.1383 59.7009 52.8252 59.6795 48.3634 58.6129C48.6608 58.3996 48.8521 58.229 49.0433 58.0796C52.0178 55.7331 54.3974 52.9173 55.9485 49.4402C56.9683 47.1576 57.3082 44.7898 56.9683 42.3153C56.9471 42.1019 56.9895 41.846 57.117 41.654C58.6893 39.2008 60.5165 36.9396 62.8536 35.1904C64.4471 33.9958 66.1681 33.1638 68.1653 32.9292C69.6738 32.7372 71.1398 32.9292 72.4996 33.5265C76.8339 35.425 80.1697 38.4115 81.8057 42.9552C84.164 49.4828 80.5309 55.6691 75.2192 58.037C72.6271 59.1889 70.035 58.9756 67.5916 57.5677C65.7007 56.4797 64.2347 54.9225 63.1936 52.9813C62.8536 52.32 62.6412 51.5734 62.4712 50.8481C62.3012 50.1654 62.4074 49.4828 62.7899 48.8642C63.1723 48.2456 63.576 48.1389 64.1072 48.6295C64.5534 49.0348 64.957 49.5041 65.3182 49.9948C66.9542 52.192 68.5477 54.4105 70.1837 56.6077C70.6087 57.205 70.7361 57.269 71.3523 56.9917C74.943 55.2851 77.7476 52.7893 78.8524 48.8215C79.9572 44.8538 78.7886 41.398 76.0053 38.4755C75.0067 37.4089 73.8169 36.6409 72.3509 36.2996C70.8849 35.9796 69.5463 36.257 68.3353 37.1102C66.5506 38.3902 65.6369 40.1607 65.552 42.3579C65.5307 42.6992 65.552 43.0619 65.552 43.4672C65.3395 43.4245 65.1908 43.4032 65.0208 43.3605C63.7672 42.9552 62.5987 43.1899 61.5576 43.9578C59.6666 45.3444 58.5618 47.243 58.2219 49.5895C57.8607 52.1493 58.6255 54.4532 59.9641 56.5864C60.4315 57.2903 60.9839 57.9303 61.5576 58.7196Z" fill="#0063A4"/>
<path d="M44.7727 15.9915C45.1764 16.0769 45.5163 16.1835 45.8563 16.2262C47.0461 16.3755 48.1084 16.0769 49.022 15.3089C51.1679 13.4957 52.2728 11.1705 52.1665 8.33335C52.0816 5.68818 50.9555 3.46965 49.3195 1.4431C49.1495 1.22978 48.9795 1.01646 48.7246 0.717816C53.1651 -0.263457 57.4995 -0.242126 61.9613 0.803143C61.6638 1.0378 61.4938 1.16579 61.3239 1.31511C58.3706 3.6403 55.991 6.4348 54.4187 9.89058C53.3989 12.1518 52.9952 14.541 53.3351 17.0155C53.3776 17.3781 53.3139 17.6554 53.1227 17.9328C51.9328 19.746 50.5943 21.4525 49.0008 22.9458C47.8747 23.991 46.6637 24.9083 45.2614 25.5696C42.7968 26.7429 40.2472 26.9349 37.7613 25.8683C33.597 24.0977 30.41 21.1966 28.6677 16.9515C26.0756 10.5519 29.3264 4.04561 34.9355 1.46444C37.825 0.141852 40.6508 0.483162 43.3067 2.23239C44.8152 3.23499 46.0263 4.55758 46.9399 6.13615C47.4285 6.94676 47.7685 7.84271 47.8535 8.80265C47.9172 9.48528 47.8322 10.1252 47.4285 10.7012C47.0673 11.2132 46.7274 11.2985 46.26 10.8719C45.7925 10.4452 45.3464 9.97591 44.9852 9.46394C43.3492 7.26675 41.7557 5.04822 40.1197 2.85102C39.6947 2.25372 39.5248 2.16839 38.8874 2.48837C35.2542 4.2376 32.4921 6.79744 31.3873 10.8292C30.1337 15.4156 32.5134 20.1086 35.8703 22.2845C39.8222 24.8443 43.4554 22.1778 44.454 18.85C44.6452 18.2101 44.6665 17.5061 44.7515 16.8235C44.8152 16.5675 44.7727 16.3115 44.7727 15.9915Z" fill="#0063A4"/>
<path d="M18.3418 88.6484C18.1931 88.8404 18.0656 89.011 17.9169 89.1817C16.8758 90.5683 15.5373 91.5496 13.7951 91.8482C10.7143 92.3815 8.3559 90.8883 7.67601 87.9445C6.57118 83.1447 9.16327 76.9158 15.6223 75.5932C18.0869 75.0812 20.5302 75.3372 22.9311 76.0625C23.1648 76.1265 23.7385 76.4252 23.8235 76.4892C23.696 77.3851 23.5685 78.281 23.4198 79.1983C23.0798 81.4382 22.7399 83.6567 22.4212 85.8966C22.3575 86.4512 22.3575 87.0272 22.4637 87.5605C22.6124 88.4138 23.2498 88.7764 24.0997 88.6271C24.7583 88.4991 25.3107 88.2004 25.7782 87.7525C26.3731 87.1978 26.798 86.5152 27.1167 85.7686C27.8179 84.062 28.0091 82.2488 27.9241 80.4356C27.8603 79.049 27.5629 77.7051 26.968 76.4465C25.6719 73.6947 23.5048 71.9668 20.594 71.2415C16.3659 70.1749 12.414 70.8148 8.92956 73.5027C6.20999 75.5932 4.68023 78.409 4.08532 81.7368C3.63914 84.2113 3.68163 86.6645 4.42527 89.075C4.65898 89.8217 5.02017 90.5043 5.31763 91.2296C5.38137 91.3789 5.4876 91.5496 5.57259 91.7415C5.36012 91.7415 5.19015 91.7415 5.04142 91.7415C4.00033 91.7415 2.95924 91.7415 1.91816 91.7415C1.49322 91.7629 1.302 91.5922 1.15328 91.2296C0.537124 89.7577 0.154684 88.2218 0.0484502 86.6432C-0.227757 82.4834 0.664604 78.6224 3.04423 75.1452C5.67882 71.2628 9.3545 68.9163 13.9863 68.0417C17.152 67.4444 20.2753 67.5724 23.2711 68.7883C28.0091 70.6868 30.7924 74.1853 31.4935 79.2196C31.876 81.9288 31.536 84.5953 30.3037 87.1125C29.2626 89.2244 27.6904 90.7816 25.417 91.5496C24.1209 91.9975 22.8036 92.1255 21.4439 91.8695C20.0416 91.5922 19.128 90.7389 18.703 89.395C18.618 89.1604 18.5543 88.9044 18.4906 88.6697C18.4693 88.6484 18.4056 88.6484 18.3418 88.6484ZM18.4693 79.5183C18.2569 79.4543 18.0656 79.3903 17.8744 79.369C16.4721 79.1983 15.3036 79.689 14.3687 80.6916C13.4551 81.6728 12.9664 82.8461 12.7752 84.1687C12.669 84.958 12.6477 85.7686 12.9027 86.5365C13.2639 87.5818 14.2625 88.0511 15.3036 87.6885C15.856 87.4965 16.2809 87.1338 16.6421 86.7072C17.2158 86.0246 17.577 85.214 17.7682 84.3607C17.9169 83.6994 18.0019 83.0167 18.0869 82.3555C18.2144 81.4168 18.3206 80.4996 18.4693 79.5183Z" fill="#0063A4"/>
<path d="M93.2576 88.4991C93.3639 88.2431 93.4913 88.0084 93.5976 87.7525C95.0636 84.2753 96.5508 80.7982 98.0169 77.3211C98.5055 76.1905 99.3767 75.6359 100.588 75.5719C100.97 75.5505 101.353 75.5505 101.735 75.6145C102.755 75.7852 103.499 76.3612 103.902 77.3211C104.71 79.241 105.517 81.1395 106.324 83.0594C107.45 85.7259 108.576 88.3924 109.703 91.0589C109.788 91.2722 109.894 91.5069 110 91.8055C108.385 91.8055 106.855 91.8055 105.326 91.8055C103.902 88.2004 102.479 84.6593 101.055 81.0755C100.991 81.0755 100.97 81.0755 100.906 81.0755C100.821 81.2675 100.715 81.4168 100.651 81.6088C99.5254 84.4247 98.4206 87.2405 97.2945 90.0777C97.1033 90.5683 96.5721 91.8055 96.5721 91.8055C96.5509 91.8055 96.3809 91.8055 96.2534 91.8055C94.15 91.8055 92.0466 91.8055 89.9431 91.8055C89.9219 91.8055 89.9006 91.8055 89.8582 91.8055C89.7944 91.6562 89.6882 91.4429 89.6244 91.2722C89.2632 90.419 88.9021 89.587 88.5834 88.7124C88.4346 88.3071 88.2009 88.1791 87.776 88.2004C86.2037 88.2218 84.6527 88.2004 83.0805 88.2004C82.4643 88.2004 82.4643 88.2004 82.2518 88.7551C81.9331 89.5443 81.6144 90.355 81.2957 91.1442C81.2108 91.3576 81.1045 91.5709 80.9983 91.8055C79.4685 91.8055 77.9813 91.8055 76.3665 91.8055C76.4515 91.5709 76.5152 91.3576 76.6002 91.1869C78.215 87.3258 79.851 83.4647 81.487 79.6036C81.7632 78.9423 82.0394 78.281 82.3156 77.6197C82.8892 76.2758 83.8666 75.5505 85.3963 75.5932C86.9899 75.6359 87.9247 76.2118 88.5621 77.7051C89.9856 81.0969 91.4092 84.4673 92.8327 87.8591C92.9177 88.0724 93.0239 88.3071 93.1301 88.5204C93.1514 88.4991 93.1939 88.4991 93.2576 88.4991ZM86.9049 84.574C86.4162 83.3154 85.97 82.1208 85.3751 80.9689C84.7802 82.1421 84.2915 83.3154 83.8453 84.574C84.9077 84.574 85.8638 84.574 86.9049 84.574Z" fill="#0063A4"/>
<path d="M68.3565 86.7498C68.3565 88.4777 68.3565 90.1203 68.3565 91.8482C66.8692 91.8482 65.4032 91.8482 63.9372 91.8482C63.9372 91.6135 63.9585 82.8248 63.9372 78.601C63.9372 76.9371 64.9358 75.7852 66.7418 75.7425C69.2914 75.7425 71.7985 75.7425 74.3268 75.7425C75.4742 75.7639 76.5577 76.0838 77.3864 76.9585C77.8963 77.4918 78.215 78.1317 78.3637 78.857C78.7249 80.4996 78.7461 82.1635 78.3212 83.7847C77.8538 85.5979 76.494 86.7072 74.603 86.7498C72.7333 86.7498 69.7375 86.7498 68.3565 86.7498ZM68.399 82.8674C68.6752 82.8674 72.967 82.8674 73.1158 82.8674C73.6894 82.8674 74.0719 82.4408 74.0719 82.0568C74.0931 81.5448 74.0719 80.8622 74.0719 80.3929C74.0719 79.9663 73.7107 79.5823 73.1158 79.5823C72.9883 79.5823 68.6752 79.5823 68.399 79.5823C68.399 80.6916 68.399 81.7155 68.399 82.8674Z" fill="#0063A4"/>
<path d="M49.8719 88.0938C49.8719 89.3737 49.8719 90.5896 49.8719 91.8269C48.5546 91.8269 43.0517 91.8269 39.6735 91.8269C39.0149 91.8269 38.3562 91.7415 37.7188 91.5496C35.4667 90.8883 34.1706 89.3097 33.6819 87.0698C33.5332 86.3659 33.4482 85.6406 33.427 84.9366C33.3845 83.5714 33.3845 82.1848 33.6607 80.8195C34.2556 77.9184 36.189 76.1478 39.1211 75.8492C39.716 75.7852 40.3109 75.7639 40.9271 75.7639C42.7118 75.7425 46.7274 75.7639 47.0036 75.7639C47.0036 77.0438 47.0036 78.2597 47.0036 79.5183C46.7062 79.5183 43.3492 79.561 41.9044 79.561C41.352 79.561 40.7783 79.5823 40.2259 79.6463C39.1848 79.7529 38.4624 80.2862 38.165 81.2889C37.8463 82.4194 37.7825 83.5714 37.8675 84.7233C37.91 85.1926 37.9525 85.6833 38.0588 86.1525C38.2925 87.2405 38.9086 87.8165 40.0347 87.9445C40.5871 88.0084 41.1608 88.0511 41.7132 88.0511C44.1778 88.1151 49.5532 88.0938 49.8719 88.0938Z" fill="#0063A4"/>
<path d="M62.4712 75.7425C62.4712 76.2972 62.4712 78.921 62.4712 79.5396C62.2587 79.5396 62.0463 79.5396 61.8125 79.5396C60.7077 79.5396 59.6029 79.5396 58.4981 79.5396C58.2643 79.5396 58.0306 79.5396 57.7119 79.5396C57.7119 83.614 57.7119 87.7525 57.7119 91.8269C56.2247 91.8269 54.8011 91.8269 53.3139 91.8269C53.3139 87.7525 53.3139 83.6354 53.3139 79.5396C51.6779 79.5396 50.1056 79.5396 48.5546 79.5396C48.5546 79.0063 48.5546 76.5531 48.5546 75.7425C53.2076 75.7425 57.8394 75.7425 62.4712 75.7425Z" fill="#0063A4"/>
<path d="M55.2898 22.3698C57.1808 25.4203 59.6241 27.7455 62.4499 29.836C59.4542 31.7132 57.1383 34.1878 55.0561 37.0676C53.1864 34.0384 50.743 31.6919 47.896 29.6014C50.8705 27.7242 53.1864 25.2496 55.2898 22.3698Z" fill="#0063A4"/>
<path d="M75.3467 12.1518C74.1994 13.0051 73.137 13.837 72.0322 14.6263C71.4585 15.0529 70.7999 15.3303 70.0775 15.3942C69.6101 15.4369 69.0789 15.4156 68.6327 15.2663C67.8678 15.0316 67.5704 14.221 67.9316 13.4957C67.9953 13.3464 68.0803 13.197 68.1865 13.0691C69.3976 11.5758 70.9274 10.7012 72.8821 10.7865C73.8594 10.8505 74.6668 11.2772 75.3467 12.1518Z" fill="#D42427"/>
<path d="M34.9992 47.2643C36.1678 46.3897 37.2939 45.5151 38.4412 44.7258C39.2698 44.1498 40.2259 43.8512 41.2458 44.0218C41.5645 44.0645 41.8832 44.2138 42.1381 44.4058C42.5843 44.7471 42.6905 45.2804 42.4781 45.8137C42.4356 45.899 42.3931 45.9844 42.3506 46.0697C41.4157 47.8189 38.7599 49.0135 36.8477 48.5442C36.1041 48.3522 35.4879 47.9896 34.9992 47.2643Z" fill="#D42427"/>
<path d="M72.6059 49.9734C72.4571 49.8241 72.3509 49.6961 72.2447 49.5681C71.6285 48.7575 71.0336 47.9469 70.4174 47.1363C69.865 46.411 69.4613 45.6004 69.3764 44.7044C69.3339 44.2565 69.3551 43.7445 69.5038 43.3179C69.7375 42.5712 70.5237 42.2939 71.2248 42.6566C71.9684 43.0619 72.5209 43.6805 72.9458 44.3845C73.6682 45.5577 74.0719 46.8163 73.7319 48.2242C73.5832 48.9068 73.2432 49.5041 72.6059 49.9734Z" fill="#0063A4"/>
<path d="M37.7401 9.50661C37.825 9.59194 37.9313 9.6986 38.0163 9.80526C38.6749 10.6799 39.3336 11.5332 39.9497 12.4078C40.5021 13.1544 40.8846 13.9863 40.9483 14.9463C40.9696 15.2663 40.9483 15.6076 40.8846 15.9275C40.6721 16.8235 39.8435 17.2075 39.0361 16.7595C38.2075 16.3115 37.6338 15.5862 37.1876 14.7756C36.5502 13.6237 36.2315 12.4078 36.5927 11.1065C36.8052 10.3812 37.1451 9.93325 37.7401 9.50661Z" fill="#0063A4"/>
</svg>
