<svg width="100" height="99" viewBox="0 0 100 99" fill="none" xmlns="http://www.w3.org/2000/svg">
<path d="M54.9301 29.5523C53.8487 28.5791 52.5028 27.9481 51.0625 27.739C49.6222 27.5299 48.1522 27.7522 46.8383 28.3776C45.5245 29.0031 44.4257 30.0037 43.681 31.2529C42.9363 32.5022 42.579 33.944 42.6544 35.396C42.7298 36.8481 43.2344 38.2452 44.1045 39.4108C44.9746 40.5763 46.1711 41.458 47.5427 41.9443C48.9143 42.4306 50.3995 42.4997 51.8104 42.1429C53.2213 41.786 54.4946 41.0193 55.4694 39.9396C56.7756 38.4902 57.4526 36.5821 57.3514 34.6344C57.2503 32.6868 56.3794 30.8588 54.9301 29.5523Z" fill="url(#paint0_radial_2984_20287)"/>
<path d="M28.9211 7.04056C24.0682 10.6955 20.2462 15.5447 17.8281 21.115C20.7403 21.8321 29.4593 24.6669 33.4596 35.4569C34.6628 35.0652 37.2564 33.5551 39.0559 27.7249C41.4689 19.9191 46.0466 12.4113 51.9829 9.89038C46.0631 4.03932 38.2635 2.66155 28.9211 7.04056Z" fill="url(#paint1_linear_2984_20287)"/>
<path d="M76.9902 12.6849L76.9919 12.6829C71.2435 5.74659 63.0407 1.28996 54.0885 0.239239C45.1362 -0.811486 36.1229 1.6245 28.9219 7.04093C41.8916 0.961559 51.8874 5.97669 58.0086 18.6529C67.7589 20.3999 74.3807 15.5531 76.9902 12.6849Z" fill="url(#paint2_linear_2984_20287)"/>
<path d="M36.2962 67.2315C41.8905 69.6031 48.0047 70.4854 54.0422 69.7926C53.2078 66.9142 51.3054 57.9526 58.658 49.0963C57.7169 48.2511 55.1111 46.762 49.1578 48.1201C41.1853 49.9351 32.3888 49.7281 27.2354 45.8521C25.1237 53.8998 27.8293 61.3373 36.2962 67.2315Z" fill="url(#paint3_linear_2984_20287)"/>
<path d="M17.156 22.8183L17.1535 22.8179C14.0153 31.26 14.2536 40.5856 17.8188 48.8568C21.3841 57.128 28.0022 63.7088 36.298 67.232C24.5436 59.0495 23.8928 47.893 31.8198 36.2584C28.459 26.9483 20.9468 23.6421 17.156 22.8183Z" fill="url(#paint4_linear_2984_20287)"/>
<path d="M84.7827 30.7541C84.0412 24.7278 81.749 18.9963 78.1297 14.1187C76.052 16.2798 69.2353 22.4067 57.8825 20.4729C57.6204 21.7098 57.6326 24.709 61.7864 29.1812C67.3458 35.172 71.5647 42.8868 70.7817 49.2837C78.8132 47.0871 83.9072 41.0273 84.7827 30.7541Z" fill="url(#paint5_linear_2984_20287)"/>
<path d="M55.8574 69.5236L55.8583 69.5259C64.7454 68.0195 72.7098 63.1501 78.0965 55.9296C83.4833 48.7091 85.8782 39.6927 84.7837 30.7539C83.5683 45.0158 74.2234 51.1572 60.1751 50.1155C53.7857 57.6785 54.6759 65.8316 55.8574 69.5236Z" fill="url(#paint6_linear_2984_20287)"/>
<path d="M3.00856 98.7584H0V84.7326H4.83348C5.63785 84.7232 6.44007 84.8175 7.22031 85.0131C7.87552 85.1749 8.4923 85.4643 9.03528 85.8648C9.53766 86.2467 9.93448 86.7501 10.1884 87.3275C10.4693 87.9891 10.6061 88.7027 10.5898 89.4212C10.6028 90.1437 10.4627 90.8607 10.1785 91.5253C9.91118 92.131 9.50189 92.6636 8.98519 93.078C8.4198 93.521 7.77227 93.8479 7.0799 94.0398C6.25769 94.27 5.40671 94.3813 4.55289 94.3703H3.00856V98.7584ZM2.94828 91.7254H4.59301C5.50202 91.7254 6.21067 91.5484 6.71897 91.1944C7.22688 90.8408 7.48089 90.2898 7.481 89.5415C7.481 88.7534 7.23358 88.1957 6.73873 87.8686C6.24414 87.5413 5.53551 87.3776 4.61285 87.3775H2.94828V91.7254Z" fill="#3A3A39"/>
<path d="M19.6954 98.9995C18.7486 99.0113 17.8075 98.8518 16.9176 98.5287C16.1047 98.2295 15.3683 97.7538 14.7616 97.136C14.1384 96.4871 13.6629 95.7112 13.3676 94.8617C13.0237 93.8596 12.8575 92.8053 12.8765 91.7462C12.8571 90.6852 13.0303 89.6295 13.3879 88.6303C13.6953 87.7821 14.1769 87.0075 14.8017 86.3562C15.4034 85.7417 16.1325 85.2664 16.9379 84.9637C17.7938 84.6438 18.7014 84.4841 19.6152 84.4928C20.6041 84.4762 21.5874 84.6462 22.5133 84.9938C23.3272 85.3042 24.0606 85.7938 24.6592 86.4261C25.2621 87.0835 25.717 87.8625 25.9932 88.7104C26.3127 89.6902 26.4684 90.7158 26.4542 91.7462C26.4775 92.8466 26.3044 93.9424 25.9429 94.9821C25.6424 95.8331 25.156 96.6065 24.5191 97.2462C23.9108 97.8406 23.1777 98.2924 22.373 98.5687C21.5112 98.8623 20.6059 99.0079 19.6954 98.9995ZM19.7957 96.3544C20.2782 96.3597 20.7564 96.2641 21.1997 96.0739C21.6313 95.8839 22.0099 95.5916 22.3028 95.2223C22.6328 94.7967 22.8748 94.3098 23.0148 93.7899C23.1936 93.1237 23.278 92.4358 23.2655 91.7462C23.2655 90.1565 22.9313 88.9909 22.2628 88.2495C21.9297 87.8821 21.52 87.5921 21.0625 87.3999C20.6051 87.2078 20.111 87.1182 19.6152 87.1376C19.1361 87.1344 18.6616 87.2299 18.2212 87.4181C17.7817 87.6089 17.3935 87.9007 17.0882 88.2698C16.7434 88.6955 16.4877 89.1861 16.3361 89.7124C16.1446 90.373 16.0533 91.0585 16.0652 91.7462C16.051 92.4387 16.1492 93.1288 16.356 93.7899C16.5224 94.3151 16.7916 94.802 17.1481 95.2223C17.4706 95.5946 17.8758 95.8862 18.3314 96.0739C18.7962 96.263 19.2939 96.3583 19.7957 96.3544Z" fill="#3A3A39"/>
<path d="M39.9315 98.2033C39.7439 98.2965 39.54 98.3894 39.3199 98.4819C39.0655 98.5862 38.804 98.6727 38.5376 98.7407C38.1948 98.8278 37.8465 98.891 37.495 98.9299C37.0453 98.979 36.5931 99.0022 36.1408 98.9994C35.149 99.0118 34.1623 98.856 33.2227 98.5385C32.3852 98.2543 31.6191 97.7929 30.9765 97.1858C30.3367 96.5641 29.8435 95.8078 29.5326 94.972C29.1754 93.997 29.0019 92.9644 29.0209 91.9263C29.0021 90.8393 29.1753 89.7575 29.5326 88.7305C29.8347 87.8531 30.3359 87.0575 30.997 86.4057C31.658 85.754 32.461 85.2638 33.3432 84.9736C34.3416 84.6398 35.3894 84.4773 36.4421 84.4927C37.1325 84.4857 37.8217 84.5529 38.4978 84.693C39.004 84.7942 39.4981 84.9487 39.9719 85.1538L39.3096 87.6784C38.8856 87.5326 38.4494 87.4253 38.0061 87.3578C37.628 87.2965 37.2458 87.2631 36.8628 87.2578C36.2217 87.2501 35.583 87.3381 34.9679 87.5188C34.4255 87.6783 33.9254 87.9561 33.5035 88.3321C33.0815 88.7209 32.7554 89.202 32.5507 89.7377C32.3102 90.3828 32.1947 91.0677 32.2102 91.7559C32.2102 93.2421 32.6281 94.36 33.4638 95.1097C34.2988 95.8594 35.4252 96.2342 36.8428 96.2343C37.2338 96.2269 37.6232 96.1833 38.0061 96.104C38.4614 96.0171 38.9055 95.8793 39.3301 95.6933L39.9315 98.2033Z" fill="#3A3A39"/>
<path d="M51.3622 95.6932H45.9671L44.9643 98.7587H41.9961L46.7897 84.7329H50.7004L55.4338 98.7587H52.3651L51.3622 95.6932ZM46.7897 93.0483H50.5402L48.6749 87.1574L46.7897 93.0483Z" fill="#3A3A39"/>
<path d="M62.2735 98.7592H59.2649V87.4984H55.2734V84.7334H66.2444V87.4984H62.2735V98.7592Z" fill="#3A3A39"/>
<path d="M74.4691 98.9995C73.5223 99.0112 72.5812 98.8517 71.6913 98.5287C70.8784 98.2295 70.1421 97.7539 69.5355 97.136C68.9123 96.4871 68.4368 95.7113 68.1417 94.8617C67.7974 93.8597 67.631 92.8054 67.6499 91.7462C67.6306 90.6852 67.804 89.6295 68.1616 88.6303C68.4693 87.7823 68.9508 87.0077 69.5754 86.3562C70.177 85.7417 70.9061 85.2664 71.7113 84.9637C72.5674 84.6438 73.4751 84.4842 74.389 84.4928C75.378 84.4762 76.3612 84.6462 77.2872 84.9938C78.101 85.3043 78.8345 85.7938 79.4332 86.4261C80.0358 87.0837 80.4906 87.8626 80.767 88.7104C81.0866 89.6901 81.2424 90.7158 81.228 91.7462C81.2511 92.8466 81.078 93.9423 80.7169 94.9821C80.4164 95.8331 79.9299 96.6065 79.2927 97.2462C78.6844 97.8405 77.9513 98.2923 77.1467 98.5687C76.2849 98.8623 75.3796 99.0079 74.4691 98.9995ZM74.5696 96.3544C75.052 96.3597 75.5301 96.2641 75.9733 96.0739C76.405 95.8841 76.7836 95.5917 77.0762 95.2223C77.4063 94.7967 77.6485 94.3098 77.7886 93.7899C77.9674 93.1237 78.0518 92.4358 78.0393 91.7462C78.0393 90.1565 77.705 88.9909 77.0364 88.2495C76.7034 87.8821 76.2937 87.5921 75.8363 87.3999C75.3788 87.2078 74.8848 87.1183 74.389 87.1376C73.9099 87.1344 73.4354 87.23 72.9949 87.4181C72.5554 87.6089 72.1672 87.9007 71.8619 88.2698C71.5169 88.6954 71.2612 89.186 71.1098 89.7124C70.9182 90.373 70.827 91.0586 70.8392 91.7462C70.8249 92.4387 70.923 93.1288 71.1297 93.7899C71.2962 94.3152 71.5655 94.802 71.9222 95.2223C72.2443 95.5948 72.6496 95.8865 73.1053 96.0739C73.5701 96.2631 74.0678 96.3584 74.5696 96.3544Z" fill="#3A3A39"/>
<path d="M100.002 98.7587H96.9732L96.2108 89.4415L93.3229 98.7587H90.4548L87.6065 89.4818L86.8447 98.7587H83.8164L85.22 84.7329H88.81L91.9789 95.3124L95.1079 84.7329H98.5775L100.002 98.7587Z" fill="#3A3A39"/>
<defs>
<radialGradient id="paint0_radial_2984_20287" cx="0" cy="0" r="1" gradientUnits="userSpaceOnUse" gradientTransform="translate(47.6412 30.9153) scale(10.3607 10.3507)">
<stop stop-color="#4896D2"/>
<stop offset="1" stop-color="#1A2165"/>
</radialGradient>
<linearGradient id="paint1_linear_2984_20287" x1="25.1483" y1="30.0648" x2="42.5495" y2="3.2434" gradientUnits="userSpaceOnUse">
<stop stop-color="#4896D2"/>
<stop offset="1" stop-color="#1A2165"/>
</linearGradient>
<linearGradient id="paint2_linear_2984_20287" x1="32.1044" y1="-0.828496" x2="75.3785" y2="16.6723" gradientUnits="userSpaceOnUse">
<stop stop-color="#4896D2"/>
<stop offset="1" stop-color="#1A2165"/>
</linearGradient>
<linearGradient id="paint3_linear_2984_20287" x1="58.1319" y1="59.0053" x2="26.1838" y2="57.3297" gradientUnits="userSpaceOnUse">
<stop stop-color="#4896D2"/>
<stop offset="1" stop-color="#1A2165"/>
</linearGradient>
<linearGradient id="paint4_linear_2984_20287" x1="27.8773" y1="68.436" x2="21.3911" y2="22.2435" gradientUnits="userSpaceOnUse">
<stop stop-color="#4896D2"/>
<stop offset="1" stop-color="#1A2165"/>
</linearGradient>
<linearGradient id="paint5_linear_2984_20287" x1="66.7268" y1="15.9976" x2="81.2292" y2="44.4885" gradientUnits="userSpaceOnUse">
<stop stop-color="#4896D2"/>
<stop offset="1" stop-color="#1A2165"/>
</linearGradient>
<linearGradient id="paint6_linear_2984_20287" x1="90.0307" y1="37.4622" x2="53.2667" y2="66.2123" gradientUnits="userSpaceOnUse">
<stop stop-color="#4896D2"/>
<stop offset="1" stop-color="#1A2165"/>
</linearGradient>
</defs>
</svg>
