<svg width="232" height="232" viewBox="0 0 232 232" fill="none" xmlns="http://www.w3.org/2000/svg">
<path d="M116.009 110.951C135.508 110.951 151.315 95.1445 151.315 75.6456C151.315 56.1468 135.508 40.3398 116.009 40.3398C96.5101 40.3398 80.7031 56.1468 80.7031 75.6456C80.7031 95.1445 96.5101 110.951 116.009 110.951Z" fill="url(#paint0_linear_849_4635)"/>
<path d="M116.003 161.387C127.145 161.387 136.178 152.354 136.178 141.212C136.178 130.07 127.145 121.037 116.003 121.037C104.861 121.037 95.8281 130.07 95.8281 141.212C95.8281 152.354 104.861 161.387 116.003 161.387Z" fill="url(#paint1_linear_849_4635)"/>
<path d="M116.003 232C127.145 232 136.178 222.967 136.178 211.825C136.178 200.683 127.145 191.65 116.003 191.65C104.861 191.65 95.8281 200.683 95.8281 211.825C95.8281 222.967 104.861 232 116.003 232Z" fill="url(#paint2_linear_849_4635)"/>
<path d="M60.5185 216.869C71.6607 216.869 80.6932 207.836 80.6932 196.694C80.6932 185.552 71.6607 176.52 60.5185 176.52C49.3763 176.52 40.3438 185.552 40.3438 196.694C40.3438 207.836 49.3763 216.869 60.5185 216.869Z" fill="url(#paint3_linear_849_4635)"/>
<path d="M171.487 216.869C182.629 216.869 191.662 207.836 191.662 196.694C191.662 185.552 182.629 176.52 171.487 176.52C160.345 176.52 151.312 185.552 151.312 196.694C151.312 207.836 160.345 216.869 171.487 216.869Z" fill="url(#paint4_linear_849_4635)"/>
<g filter="url(#filter0_bi_849_4635)">
<path d="M165.427 131.126C164.425 131.126 163.446 130.828 162.615 130.269C161.784 129.711 161.137 128.917 160.759 127.99C160.38 127.062 160.286 126.043 160.488 125.062C160.691 124.081 161.181 123.183 161.897 122.481C171.197 113.365 177.573 101.685 180.209 88.9303C182.846 76.176 181.624 62.9255 176.701 50.8682C171.777 38.8108 163.374 28.493 152.563 21.2302C141.752 13.9675 129.023 10.0888 115.999 10.0888C102.975 10.0888 90.2462 13.9675 79.4353 21.2302C68.6244 28.493 60.2213 38.8108 55.2975 50.8682C50.3737 62.9255 49.1522 76.176 51.7888 88.9303C54.4254 101.685 60.8005 113.365 70.1015 122.481C70.5854 122.943 70.9729 123.495 71.2414 124.107C71.5098 124.719 71.6539 125.379 71.6653 126.047C71.6767 126.715 71.5551 127.379 71.3077 128C71.0603 128.621 70.6919 129.187 70.2239 129.664C69.756 130.141 69.1979 130.521 68.582 130.781C67.9661 131.04 67.3047 131.175 66.6363 131.177C65.9679 131.179 65.3058 131.048 64.6885 130.791C64.0711 130.535 63.5109 130.159 63.0404 129.684C52.3085 119.165 44.9525 105.687 41.9103 90.971C38.8681 76.2545 40.2775 60.9654 45.9588 47.0531C51.6401 33.1408 61.336 21.2356 73.8101 12.8555C86.2842 4.47537 100.971 0 115.999 0C131.027 0 145.714 4.47537 158.188 12.8555C170.662 21.2356 180.358 33.1408 186.039 47.0531C191.721 60.9654 193.13 76.2545 190.088 90.971C187.046 105.687 179.69 119.165 168.958 129.684C168.015 130.608 166.747 131.126 165.427 131.126Z" fill="url(#paint5_linear_849_4635)" fill-opacity="0.2"/>
<path d="M69.7515 122.839L69.7566 122.843C70.1926 123.259 70.5416 123.757 70.7835 124.308C71.0253 124.86 71.1551 125.454 71.1654 126.056C71.1757 126.658 71.0661 127.256 70.8432 127.815C70.6203 128.375 70.2884 128.884 69.8669 129.314C69.4453 129.744 68.9425 130.086 68.3877 130.32C67.8329 130.554 67.2371 130.675 66.6349 130.677C66.0328 130.678 65.4363 130.56 64.8802 130.33C64.324 130.099 63.8194 129.76 63.3955 129.332L63.3904 129.327C52.7294 118.877 45.422 105.489 42.3999 90.8697C39.3778 76.2505 40.7779 61.0625 46.4217 47.2421C52.0655 33.4218 61.6972 21.5953 74.0889 13.2705C86.4806 4.94579 101.071 0.5 115.999 0.5C130.927 0.5 145.517 4.94579 157.909 13.2705C170.301 21.5953 179.933 33.4218 185.576 47.2421C191.22 61.0625 192.62 76.2505 189.598 90.8697C186.576 105.489 179.269 118.877 168.608 129.327L168.958 129.684L168.608 129.327C167.758 130.16 166.616 130.626 165.427 130.626C164.525 130.626 163.643 130.357 162.894 129.854C162.145 129.351 161.563 128.636 161.221 127.801C160.88 126.965 160.796 126.047 160.978 125.163C161.161 124.28 161.602 123.47 162.247 122.839C171.618 113.652 178.042 101.883 180.699 89.0315C183.356 76.18 182.125 62.8284 177.163 50.6791C172.202 38.5298 163.735 28.1333 152.842 20.8152C141.948 13.497 129.122 9.58881 115.999 9.58881C102.876 9.58881 90.0498 13.497 79.1564 20.8152C68.2631 28.1333 59.796 38.5298 54.8346 50.6791C49.8732 62.8284 48.6424 76.18 51.2991 89.0315C53.9558 101.883 60.3796 113.652 69.7515 122.839Z" stroke="url(#paint6_linear_849_4635)" stroke-opacity="0.1"/>
</g>
<g filter="url(#filter1_bi_849_4635)">
<path d="M115.997 201.738C114.659 201.738 113.376 201.206 112.43 200.26C111.485 199.314 110.953 198.032 110.953 196.694V156.344C110.953 155.007 111.485 153.724 112.43 152.778C113.376 151.832 114.659 151.301 115.997 151.301C117.334 151.301 118.617 151.832 119.563 152.778C120.509 153.724 121.04 155.007 121.04 156.344V196.694C121.04 198.032 120.509 199.314 119.563 200.26C118.617 201.206 117.334 201.738 115.997 201.738Z" fill="url(#paint7_linear_849_4635)" fill-opacity="0.2"/>
<path d="M115.997 201.238C114.792 201.238 113.636 200.759 112.784 199.907C111.932 199.055 111.453 197.899 111.453 196.694V156.344C111.453 155.139 111.932 153.984 112.784 153.132C113.636 152.279 114.792 151.801 115.997 151.801C117.202 151.801 118.358 152.279 119.21 153.132C120.062 153.984 120.54 155.139 120.54 156.344V196.694C120.54 197.899 120.062 199.055 119.21 199.907C118.358 200.759 117.202 201.238 115.997 201.238Z" stroke="url(#paint8_linear_849_4635)" stroke-opacity="0.1"/>
</g>
<g filter="url(#filter2_bi_849_4635)">
<path d="M60.5281 186.609C59.1905 186.609 57.9076 186.077 56.9617 185.131C56.0158 184.186 55.4845 182.903 55.4845 181.565V161.39C55.4793 160.449 55.7378 159.525 56.2308 158.722C56.7237 157.92 57.4313 157.272 58.2736 156.851L98.6231 136.676C99.8203 136.078 101.206 135.98 102.475 136.404C103.745 136.828 104.794 137.739 105.392 138.936C105.99 140.133 106.087 141.519 105.664 142.788C105.24 144.057 104.329 145.106 103.132 145.704L65.5718 164.507V181.565C65.5718 182.903 65.0404 184.186 64.0946 185.131C63.1487 186.077 61.8658 186.609 60.5281 186.609Z" fill="url(#paint9_linear_849_4635)" fill-opacity="0.2"/>
<path d="M55.9845 161.39L55.9844 161.388C55.9798 160.539 56.2127 159.707 56.6568 158.984C57.1008 158.261 57.7383 157.677 58.4971 157.298L58.4972 157.298L98.8465 137.124C99.925 136.585 101.173 136.497 102.317 136.878C103.461 137.26 104.406 138.081 104.944 139.159C105.483 140.238 105.571 141.486 105.189 142.63C104.808 143.773 103.987 144.718 102.909 145.257L102.908 145.257L65.348 164.06L65.0718 164.198V164.507V181.565C65.0718 182.77 64.5931 183.926 63.741 184.778C62.8889 185.63 61.7332 186.109 60.5281 186.109C59.3231 186.109 58.1674 185.63 57.3153 184.778C56.4632 183.926 55.9845 182.77 55.9845 181.565L55.9845 161.39Z" stroke="url(#paint10_linear_849_4635)" stroke-opacity="0.1"/>
</g>
<g filter="url(#filter3_bi_849_4635)">
<path d="M171.489 186.607C170.151 186.607 168.868 186.076 167.923 185.13C166.977 184.184 166.445 182.901 166.445 181.563V164.506L128.885 145.753C127.688 145.155 126.777 144.106 126.353 142.837C125.93 141.568 126.028 140.182 126.625 138.985C127.223 137.787 128.272 136.877 129.542 136.453C130.811 136.029 132.197 136.127 133.394 136.725L173.744 156.9C174.578 157.317 175.281 157.957 175.773 158.75C176.266 159.542 176.528 160.456 176.533 161.389V181.563C176.533 182.901 176.001 184.184 175.055 185.13C174.11 186.076 172.827 186.607 171.489 186.607Z" fill="url(#paint11_linear_849_4635)" fill-opacity="0.2"/>
<path d="M166.945 164.506V164.196L166.669 164.058L129.108 145.306C129.108 145.306 129.108 145.306 129.108 145.306C128.03 144.767 127.209 143.822 126.828 142.679C126.446 141.535 126.534 140.287 127.073 139.208C127.611 138.129 128.557 137.309 129.7 136.927C130.844 136.546 132.092 136.634 133.17 137.172C133.171 137.172 133.171 137.172 133.171 137.172L173.52 157.347L173.52 157.347C174.272 157.723 174.905 158.3 175.348 159.014C175.792 159.727 176.029 160.55 176.033 161.39C176.033 161.39 176.033 161.391 176.033 161.391L176.033 181.563C176.033 182.768 175.554 183.924 174.702 184.776C173.85 185.628 172.694 186.107 171.489 186.107C170.284 186.107 169.128 185.628 168.276 184.776C167.424 183.924 166.945 182.768 166.945 181.563V164.506Z" stroke="url(#paint12_linear_849_4635)" stroke-opacity="0.1"/>
</g>
<defs>
<filter id="filter0_bi_849_4635" x="37.3438" y="-3" width="157.311" height="137.177" filterUnits="userSpaceOnUse" color-interpolation-filters="sRGB">
<feFlood flood-opacity="0" result="BackgroundImageFix"/>
<feGaussianBlur in="BackgroundImageFix" stdDeviation="1.5"/>
<feComposite in2="SourceAlpha" operator="in" result="effect1_backgroundBlur_849_4635"/>
<feBlend mode="normal" in="SourceGraphic" in2="effect1_backgroundBlur_849_4635" result="shape"/>
<feColorMatrix in="SourceAlpha" type="matrix" values="0 0 0 0 0 0 0 0 0 0 0 0 0 0 0 0 0 0 127 0" result="hardAlpha"/>
<feOffset dy="0.5"/>
<feGaussianBlur stdDeviation="1"/>
<feComposite in2="hardAlpha" operator="arithmetic" k2="-1" k3="1"/>
<feColorMatrix type="matrix" values="0 0 0 0 1 0 0 0 0 1 0 0 0 0 1 0 0 0 0.4 0"/>
<feBlend mode="normal" in2="shape" result="effect2_innerShadow_849_4635"/>
</filter>
<filter id="filter1_bi_849_4635" x="107.953" y="148.301" width="16.0879" height="56.437" filterUnits="userSpaceOnUse" color-interpolation-filters="sRGB">
<feFlood flood-opacity="0" result="BackgroundImageFix"/>
<feGaussianBlur in="BackgroundImageFix" stdDeviation="1.5"/>
<feComposite in2="SourceAlpha" operator="in" result="effect1_backgroundBlur_849_4635"/>
<feBlend mode="normal" in="SourceGraphic" in2="effect1_backgroundBlur_849_4635" result="shape"/>
<feColorMatrix in="SourceAlpha" type="matrix" values="0 0 0 0 0 0 0 0 0 0 0 0 0 0 0 0 0 0 127 0" result="hardAlpha"/>
<feOffset dy="0.5"/>
<feGaussianBlur stdDeviation="1"/>
<feComposite in2="hardAlpha" operator="arithmetic" k2="-1" k3="1"/>
<feColorMatrix type="matrix" values="0 0 0 0 1 0 0 0 0 1 0 0 0 0 1 0 0 0 0.4 0"/>
<feBlend mode="normal" in2="shape" result="effect2_innerShadow_849_4635"/>
</filter>
<filter id="filter2_bi_849_4635" x="52.4844" y="133.145" width="56.4395" height="56.4644" filterUnits="userSpaceOnUse" color-interpolation-filters="sRGB">
<feFlood flood-opacity="0" result="BackgroundImageFix"/>
<feGaussianBlur in="BackgroundImageFix" stdDeviation="1.5"/>
<feComposite in2="SourceAlpha" operator="in" result="effect1_backgroundBlur_849_4635"/>
<feBlend mode="normal" in="SourceGraphic" in2="effect1_backgroundBlur_849_4635" result="shape"/>
<feColorMatrix in="SourceAlpha" type="matrix" values="0 0 0 0 0 0 0 0 0 0 0 0 0 0 0 0 0 0 127 0" result="hardAlpha"/>
<feOffset dy="0.5"/>
<feGaussianBlur stdDeviation="1"/>
<feComposite in2="hardAlpha" operator="arithmetic" k2="-1" k3="1"/>
<feColorMatrix type="matrix" values="0 0 0 0 1 0 0 0 0 1 0 0 0 0 1 0 0 0 0.4 0"/>
<feBlend mode="normal" in2="shape" result="effect2_innerShadow_849_4635"/>
</filter>
<filter id="filter3_bi_849_4635" x="123.094" y="133.193" width="56.4395" height="56.4136" filterUnits="userSpaceOnUse" color-interpolation-filters="sRGB">
<feFlood flood-opacity="0" result="BackgroundImageFix"/>
<feGaussianBlur in="BackgroundImageFix" stdDeviation="1.5"/>
<feComposite in2="SourceAlpha" operator="in" result="effect1_backgroundBlur_849_4635"/>
<feBlend mode="normal" in="SourceGraphic" in2="effect1_backgroundBlur_849_4635" result="shape"/>
<feColorMatrix in="SourceAlpha" type="matrix" values="0 0 0 0 0 0 0 0 0 0 0 0 0 0 0 0 0 0 127 0" result="hardAlpha"/>
<feOffset dy="0.5"/>
<feGaussianBlur stdDeviation="1"/>
<feComposite in2="hardAlpha" operator="arithmetic" k2="-1" k3="1"/>
<feColorMatrix type="matrix" values="0 0 0 0 1 0 0 0 0 1 0 0 0 0 1 0 0 0 0.4 0"/>
<feBlend mode="normal" in2="shape" result="effect2_innerShadow_849_4635"/>
</filter>
<linearGradient id="paint0_linear_849_4635" x1="80.7031" y1="40.3398" x2="163.881" y2="61.4603" gradientUnits="userSpaceOnUse">
<stop stop-color="#75A5FF"/>
<stop offset="0.703125" stop-color="#008ECF"/>
</linearGradient>
<linearGradient id="paint1_linear_849_4635" x1="95.8281" y1="121.037" x2="143.359" y2="133.106" gradientUnits="userSpaceOnUse">
<stop stop-color="#75A5FF"/>
<stop offset="0.703125" stop-color="#008ECF"/>
</linearGradient>
<linearGradient id="paint2_linear_849_4635" x1="95.8281" y1="191.65" x2="143.359" y2="203.719" gradientUnits="userSpaceOnUse">
<stop stop-color="#75A5FF"/>
<stop offset="0.703125" stop-color="#008ECF"/>
</linearGradient>
<linearGradient id="paint3_linear_849_4635" x1="40.3438" y1="176.52" x2="87.8742" y2="188.588" gradientUnits="userSpaceOnUse">
<stop stop-color="#75A5FF"/>
<stop offset="0.703125" stop-color="#008ECF"/>
</linearGradient>
<linearGradient id="paint4_linear_849_4635" x1="151.313" y1="176.52" x2="198.843" y2="188.588" gradientUnits="userSpaceOnUse">
<stop stop-color="#75A5FF"/>
<stop offset="0.703125" stop-color="#008ECF"/>
</linearGradient>
<linearGradient id="paint5_linear_849_4635" x1="40.3438" y1="0" x2="215.085" y2="51.1801" gradientUnits="userSpaceOnUse">
<stop stop-color="#83E9FF"/>
<stop offset="0.453125" stop-color="#85A0FF"/>
</linearGradient>
<linearGradient id="paint6_linear_849_4635" x1="45.0722" y1="5.96258" x2="191.654" y2="5.96258" gradientUnits="userSpaceOnUse">
<stop stop-color="#3CDEB6"/>
<stop offset="0.65625" stop-color="#364AFF"/>
</linearGradient>
<linearGradient id="paint7_linear_849_4635" x1="110.953" y1="151.301" x2="123.569" y2="151.941" gradientUnits="userSpaceOnUse">
<stop stop-color="#83E9FF"/>
<stop offset="0.453125" stop-color="#85A0FF"/>
</linearGradient>
<linearGradient id="paint8_linear_849_4635" x1="111.268" y1="153.593" x2="121.04" y2="153.593" gradientUnits="userSpaceOnUse">
<stop stop-color="#3CDEB6"/>
<stop offset="0.65625" stop-color="#364AFF"/>
</linearGradient>
<linearGradient id="paint9_linear_849_4635" x1="55.4844" y1="136.145" x2="114.904" y2="151.225" gradientUnits="userSpaceOnUse">
<stop stop-color="#83E9FF"/>
<stop offset="0.453125" stop-color="#85A0FF"/>
</linearGradient>
<linearGradient id="paint10_linear_849_4635" x1="57.0606" y1="138.438" x2="105.923" y2="138.438" gradientUnits="userSpaceOnUse">
<stop stop-color="#3CDEB6"/>
<stop offset="0.65625" stop-color="#364AFF"/>
</linearGradient>
<linearGradient id="paint11_linear_849_4635" x1="126.094" y1="136.193" x2="185.506" y2="151.287" gradientUnits="userSpaceOnUse">
<stop stop-color="#83E9FF"/>
<stop offset="0.453125" stop-color="#85A0FF"/>
</linearGradient>
<linearGradient id="paint12_linear_849_4635" x1="127.67" y1="138.485" x2="176.533" y2="138.485" gradientUnits="userSpaceOnUse">
<stop stop-color="#3CDEB6"/>
<stop offset="0.65625" stop-color="#364AFF"/>
</linearGradient>
</defs>
</svg>
