<svg width="170" height="27" viewBox="0 0 170 27" fill="none" xmlns="http://www.w3.org/2000/svg">
<g clip-path="url(#clip0_3207_2)">
<path d="M0.476562 21.2091L7.74373 20.5506C8.04947 21.4208 8.44928 22.0323 8.9902 22.3851C9.53112 22.7614 10.2367 22.9495 11.1539 22.9495C12.1417 22.9495 12.8942 22.7378 13.4352 22.3145C13.8585 22.0088 14.0702 21.609 14.0702 21.1386C14.0702 20.6212 13.7879 20.1979 13.2235 19.9156C12.8237 19.704 11.7654 19.4688 10.072 19.1631C7.53206 18.7162 5.76819 18.3164 4.78042 17.9166C3.79265 17.5403 2.96951 16.9053 2.28747 16.0116C1.60544 15.1179 1.27618 14.0831 1.27618 12.9307C1.27618 11.6607 1.62896 10.5789 2.38155 9.68516C3.11062 8.76794 4.1219 8.08591 5.39189 7.63906C6.6854 7.19222 8.40224 6.95703 10.5424 6.95703C12.8237 6.95703 14.4935 7.12166 15.5753 7.47444C16.6572 7.82721 17.5744 8.36813 18.2799 9.07368C19.009 9.80275 19.597 10.7905 20.0909 12.037L13.1059 12.7661C12.9178 12.1311 12.6355 11.6842 12.2122 11.3785C11.6478 10.9787 10.9657 10.7905 10.1426 10.7905C9.31946 10.7905 8.7315 10.9316 8.35521 11.2374C8.00243 11.5666 7.81428 11.9194 7.81428 12.3427C7.81428 12.8131 8.04947 13.1659 8.54335 13.4011C9.01372 13.6362 10.072 13.8714 11.6713 14.0596C14.0937 14.3418 15.9046 14.7181 17.104 15.212C18.2799 15.7059 19.1972 16.4114 19.8322 17.3286C20.4672 18.2458 20.7729 19.2336 20.7729 20.339C20.7729 21.4443 20.4436 22.5262 19.7851 23.561C19.1266 24.5958 18.0683 25.4424 16.6337 26.0539C15.199 26.6654 13.247 26.9711 10.7776 26.9711C7.29688 26.9711 4.80394 26.4773 3.3458 25.4895C1.84063 24.4782 0.876374 23.0436 0.476562 21.2091Z" fill="#A20C33"/>
<path d="M24.9807 24.6193C26.8857 26.1715 29.3551 26.9476 32.436 26.9476C35.8697 26.9476 38.5743 26.0069 40.5263 24.1254C42.4784 22.244 43.4426 19.8451 43.4426 16.9053C43.4426 14.2948 42.6665 12.084 41.0908 10.2966C39.1388 8.08591 36.246 6.95703 32.4125 6.95703C29.0729 6.95703 26.4153 7.89776 24.4398 9.80275C22.4643 11.6842 21.5 14.1066 21.5 17.0229C21.5 20.1508 22.6524 22.6908 24.9807 24.6193ZM29.8725 13.1659C30.5781 12.3427 31.4483 11.9194 32.5301 11.9194C33.5414 11.9194 34.3881 12.3192 35.0701 13.1424C35.7521 13.9655 36.1049 15.212 36.1049 16.8818C36.1049 18.6692 35.7756 19.9862 35.0936 20.7858C34.4116 21.5854 33.5414 22.0088 32.4831 22.0088C31.4247 22.0088 30.5781 21.5854 29.8725 20.7623C29.1905 19.9392 28.8377 18.6692 28.8377 16.9288C28.8377 15.259 29.1905 13.989 29.8725 13.1659Z" fill="#A20C33"/>
<path d="M53.3198 7.40534H56.8005V12.791H53.3198V26.5258H45.9821V12.791H43.2305V7.40534H45.9821V6.53516C45.9821 5.75906 46.0762 4.88888 46.2408 3.97166C46.4054 3.03093 46.7347 2.27834 47.1815 1.69039C47.6519 1.10243 48.2869 0.608541 49.1336 0.255766C49.9802 -0.120528 51.2032 -0.285156 52.8024 -0.285156C54.0959 -0.285156 55.9539 -0.144046 58.3998 0.161693L57.5767 4.58314C56.7065 4.44203 55.9774 4.37148 55.46 4.37148C54.8015 4.37148 54.3311 4.48907 54.0254 4.70073C53.7432 4.9124 53.5315 5.26517 53.4139 5.75906C53.3434 6.01776 53.3198 6.55868 53.3198 7.40534Z" fill="#A20C33"/>
<path d="M66.468 12.7896V19.5629C66.468 20.386 66.5385 20.9269 66.7031 21.1856C66.9383 21.5855 67.3617 21.7971 67.9496 21.7971C68.4905 21.7971 69.2431 21.6325 70.2074 21.3267L70.7483 26.3597C68.9374 26.7595 67.2441 26.9476 65.6918 26.9476C63.8809 26.9476 62.5169 26.7125 61.6702 26.2421C60.8 25.7717 60.165 25.0662 59.7652 24.1019C59.3419 23.1612 59.1537 21.609 59.1537 19.4688V12.7896H56.4727V7.40389H59.1537V3.89965L66.4915 0.136719V7.40389V12.7896H66.468Z" fill="#A20C33"/>
<path d="M72.3945 0.136719H79.7323V26.5243H72.3945V0.136719Z" fill="#A6A8AB"/>
<path d="M82.8125 26.5228H90.1737V7.40234H82.8125V26.5228Z" fill="#A6A8AB"/>
<path d="M82.8125 0.136719V5.16964H90.1737V0.136719H82.8125Z" fill="#A6A8AB"/>
<path d="M92.9492 7.40388H99.7931V10.5083C100.804 9.23831 101.839 8.3211 102.874 7.78017C103.909 7.23925 105.179 6.95703 106.684 6.95703C108.707 6.95703 110.282 7.56851 111.435 8.76794C112.587 9.96738 113.151 11.8488 113.151 14.3653V26.5243H105.814V16.0116C105.814 14.8122 105.579 13.9655 105.155 13.4716C104.708 12.9777 104.097 12.719 103.274 12.719C102.38 12.719 101.675 13.0483 101.11 13.7303C100.569 14.4123 100.287 15.6118 100.287 17.3521V26.5243H92.9492V7.40388Z" fill="#A6A8AB"/>
<path d="M136.904 17.9871C136.904 15.4707 136.481 13.4011 135.658 11.8253C134.834 10.2496 133.635 9.05016 132.059 8.2035C130.484 7.38036 128.32 6.95703 125.592 6.95703C122.229 6.95703 119.595 7.87425 117.69 9.7322C115.785 11.5901 114.82 13.989 114.82 16.9994C114.82 19.0925 115.291 20.9269 116.255 22.4791C117.196 24.0313 118.395 25.1602 119.853 25.8893C121.288 26.5948 123.287 26.9711 125.803 26.9711C128.72 26.9711 130.93 26.5478 132.506 25.7247C134.058 24.9015 135.399 23.5139 136.481 21.5854L129.284 20.9269C128.837 21.4914 128.414 21.9147 128.014 22.1264C127.379 22.4791 126.697 22.6673 125.992 22.6673C124.863 22.6673 123.945 22.244 123.24 21.4208C122.746 20.8564 122.417 19.9862 122.299 18.8103H136.904V17.9871ZM122.323 15.3296C122.44 14.1772 122.722 13.307 123.169 12.7425C123.851 11.8018 124.792 11.355 125.944 11.355C126.932 11.355 127.755 11.6607 128.367 12.2722C128.978 12.8837 129.355 13.9185 129.496 15.3531H122.323V15.3296Z" fill="#A6A8AB"/>
<path d="M34.1056 2.69977C42.4781 3.59347 45.8177 4.32254 53.6023 6.41567C60.0934 8.17955 70.4414 7.40344 70.4414 7.40344C70.4414 7.40344 70.4414 10.7195 70.4414 12.7891C66.3963 13.3536 57.6004 13.1419 50.2862 10.4843C37.21 5.71012 31.2834 4.74587 24.2749 4.25198C14.797 3.56995 3.50822 5.00457 3.50822 5.00457L3.39062 4.06383C3.41414 4.06383 19.7594 1.17108 34.1056 2.69977Z" fill="#A6A8AB"/>
<path d="M136.787 3.68613H137.14C137.657 3.68613 137.705 3.42743 137.705 3.28632C137.705 2.93354 137.211 2.93354 137.14 2.93354H136.787V3.68613ZM137.422 2.29855C138.175 2.29855 138.551 2.69836 138.551 3.21576C138.551 3.68613 138.222 3.92131 137.893 3.99187C138.104 4.0389 138.222 4.27409 138.245 4.34464L138.786 5.63815H137.893L137.469 4.57983C137.446 4.53279 137.328 4.32112 137.046 4.32112H136.787V5.66167H135.964V2.29855H137.422ZM137.187 6.48481C138.575 6.48481 139.727 5.35593 139.727 3.94483C139.727 2.55725 138.598 1.40485 137.187 1.40485C135.8 1.40485 134.647 2.53373 134.647 3.94483C134.671 5.35593 135.8 6.48481 137.187 6.48481ZM137.187 0.675781C138.998 0.675781 140.48 2.13392 140.48 3.96835C140.48 5.77926 139.022 7.26092 137.187 7.26092C135.376 7.26092 133.895 5.80278 133.895 3.96835C133.918 2.13392 135.376 0.675781 137.187 0.675781Z" fill="#A6A8AB"/>
<path d="M159.036 17.5391H149.605V26.9699H159.036V17.5391Z" fill="#A6A8AB"/>
<path d="M169.525 17.5391H160.094V26.9699H169.525V17.5391Z" fill="#A6A8AB"/>
<path d="M159.036 7.02734H149.605V16.4582H159.036V7.02734Z" fill="#A20C33"/>
<path d="M169.525 7.02734H160.094V16.4582H169.525V7.02734Z" fill="#A6A8AB"/>
<path d="M153.155 20.1742V22.1027H155.93V22.7848H153.155V25.019H152.355V19.4922H156.26V20.1742H153.155Z" fill="white"/>
<path d="M162.918 19.4688H163.718V24.3135H166.704V24.9956H162.918V19.4688Z" fill="white"/>
<path d="M152.191 13.8725L152.474 13.261C152.873 13.6373 153.579 13.896 154.308 13.896C155.272 13.896 155.672 13.5198 155.672 13.0494C155.672 11.7088 152.333 12.5555 152.333 10.4859C152.333 9.63922 152.991 8.91016 154.449 8.91016C155.108 8.91016 155.766 9.07478 156.237 9.40404L155.978 10.039C155.507 9.7333 154.943 9.59219 154.473 9.59219C153.532 9.59219 153.132 9.992 153.132 10.4624C153.132 11.8029 156.472 10.9563 156.472 13.0023C156.472 13.849 155.79 14.5781 154.332 14.5781C153.461 14.5546 152.615 14.2723 152.191 13.8725Z" fill="white"/>
<path d="M162 11.7324C162 10.1096 163.199 8.91016 164.822 8.91016C166.445 8.91016 167.621 10.1096 167.621 11.7324C167.621 13.3551 166.421 14.5546 164.822 14.5546C163.199 14.5546 162 13.3551 162 11.7324ZM166.868 11.7324C166.868 10.5094 165.998 9.61571 164.822 9.61571C163.623 9.61571 162.753 10.5094 162.753 11.7324C162.753 12.9553 163.623 13.849 164.822 13.849C165.998 13.8725 166.868 12.9553 166.868 11.7324Z" fill="white"/>
</g>
<defs>
<clipPath id="clip0_3207_2">
<rect width="170" height="27" fill="white"/>
</clipPath>
</defs>
</svg>
