<svg width="170" height="37" viewBox="0 0 170 37" fill="none" xmlns="http://www.w3.org/2000/svg">
<path fill-rule="evenodd" clip-rule="evenodd" d="M48.918 34.6043H59.0063V24.5426H48.918V34.6043ZM63.3885 34.6035H74.0101V24.5426H63.3893L63.3885 34.6035ZM77.3287 34.6035H88.4814V24.5426H77.3287V34.6035ZM91.138 34.6035H102.555V24.5426H91.138V34.6035ZM104.68 34.6035H116.363V24.5426H104.68V34.6035ZM117.956 34.6035H129.905V24.5426H117.956V34.6035ZM144.428 34.6035H156.642V24.5426H144.428V34.6035ZM157.52 34.6035H170V24.5426H157.52V34.6035ZM136.975 26.2526C135.155 26.2526 133.501 25.7156 132.06 24.6557L131.906 24.5426H131.232V34.6035H143.447V24.5426H142.33C141.098 25.6646 139.295 26.2526 136.976 26.2526M7.95306 3.42811C4.84964 3.42811 3.54718 5.86143 3.54718 10.6171C3.54718 16.3669 5.23794 18.247 8.064 18.247C10.8634 18.247 12.3597 16.3114 12.3597 11.0313C12.3597 6.08258 11.2791 3.42811 7.95306 3.42811ZM17.2093 23.5826C15.2138 24.4124 13.3574 23.3895 11.9995 22.5042C10.9182 21.786 9.72665 21.0945 8.03663 20.6522C2.68849 20.6522 0 16.4224 0 10.7821C0 4.53383 3.21436 0.967414 7.98042 0.967414C13.2184 0.967414 16.0178 4.89328 16.0178 10.8375C16.0178 15.0955 14.6044 18.0532 12.0831 19.6293C12.7753 19.9059 13.634 20.4311 14.1887 20.7624C15.2138 21.3985 16.2397 21.786 18.068 21.4539L17.2093 23.5826ZM28.9322 20.8179C28.3227 20.3756 27.9625 19.8786 27.7133 19.0761C26.6874 20.2373 25.3295 20.7905 23.7223 20.7905C22.1425 20.7905 20.9236 20.2373 20.2314 19.4074C19.6767 18.7447 19.4548 17.8321 19.4548 16.0903V6.6077L22.4472 6.05447V15.4268C22.4472 17.1686 22.6972 18.4408 24.4982 18.4408C25.5233 18.4408 26.7703 17.6109 27.2422 16.6154V6.6077L30.1792 6.05447V16.588C30.1792 18.6893 31.0386 19.3808 31.0386 19.3808L28.9322 20.8179ZM39.7956 8.34949C38.0775 8.34949 37.1352 9.70372 37.1352 11.9714H42.3177C42.3177 9.70372 41.3199 8.34949 39.7956 8.34949ZM37.1079 14.2102V14.4321C37.1079 16.3669 37.8282 18.4127 40.5722 18.4127C41.8739 18.4127 43.0107 17.943 44.0632 17.0303L45.2554 18.8831C43.7866 20.1271 42.0958 20.735 40.2113 20.735C36.2484 20.735 33.7544 17.8875 33.7544 13.4084C33.7544 10.9485 34.2811 9.3169 35.4999 7.93531C36.6367 6.63507 38.022 6.05447 39.7956 6.05447C41.1816 6.05447 42.456 6.41392 43.6482 7.49228C44.8671 8.598 45.4766 10.3124 45.4766 13.5749V14.2109H37.1079V14.2102ZM57.0056 20.3763V10.8649C57.0056 9.12312 56.3955 8.6261 55.2321 8.6261C54.1507 8.6261 52.8483 9.3169 51.8506 10.3398V20.3763H48.7745V3.73135C48.7745 2.48732 48.6636 1.40896 48.4979 0.690059L51.5732 0.0273657C51.767 0.829846 51.8498 1.96293 51.8498 3.3179V6.30372C51.8498 7.1883 51.7943 7.8791 51.7943 7.8791C53.1804 6.63507 54.5938 6.05447 56.09 6.05447C57.7527 6.05447 59.0278 6.85621 59.4989 7.76889C59.8591 8.45969 59.97 9.09576 59.97 10.5055V20.3763H57.0042H57.0056ZM69.5872 8.34949C67.8691 8.34949 66.9268 9.70372 66.9268 11.9714H72.1093C72.1093 9.70372 71.1115 8.34949 69.5872 8.34949ZM66.8995 14.2102V14.4321C66.8995 16.3669 67.6198 18.4127 70.3631 18.4127C71.6655 18.4127 72.8023 17.943 73.8548 17.0303L75.0463 18.8831C73.5774 20.1271 71.8874 20.735 70.0029 20.735C66.04 20.735 63.546 17.8875 63.546 13.4084C63.546 10.9485 64.0727 9.3169 65.2915 7.93531C66.4283 6.63507 67.8136 6.05447 69.5872 6.05447C70.9732 6.05447 72.2476 6.41392 73.4391 7.49228C74.6587 8.598 75.2682 10.3124 75.2682 13.5749V14.2109H66.8995V14.2102ZM86.2425 20.3763V11.0868C86.2425 9.17859 85.7988 8.65347 84.6354 8.65347C83.7478 8.65347 82.4735 9.3169 81.5586 10.2288V20.3763H78.5661V10.0905C78.5661 8.62536 78.4278 7.76815 78.0395 6.77263L80.8108 5.99826C81.1437 6.63433 81.3101 7.24303 81.3101 7.9893C82.8063 6.71716 84.1088 6.05373 85.605 6.05373C87.7669 6.05373 89.2631 7.35323 89.2631 9.92486V20.3756L86.2425 20.3763ZM99.3788 8.6261C98.1037 8.6261 97.2724 9.34501 96.7184 10.0358V16.8647C97.3279 17.5007 98.2147 18.0813 99.3233 18.0813C101.235 18.0813 102.067 16.6982 102.067 13.1873C102.067 10.6719 101.568 8.6261 99.3788 8.6261ZM99.9054 20.6796C98.5194 20.6796 97.3552 20.1271 96.4958 19.0761C96.3575 19.795 96.3301 19.9888 96.1082 20.3756H93.3095C93.5588 19.7395 93.6697 19.1316 93.6697 17.2515V4.06417C93.6697 2.46069 93.5588 1.46517 93.3095 0.691538L96.4677 0C96.6341 0.995519 96.6896 1.68632 96.6896 2.79204V6.05447C96.6896 6.96715 96.6067 7.38134 96.6067 7.38134L96.7177 7.40944C97.6873 6.47013 98.7124 6.05447 100.043 6.05447C103.396 6.05447 105.502 8.79104 105.502 13.1599C105.502 17.639 103.174 20.6796 99.9047 20.6796M114.288 8.34949C112.57 8.34949 111.628 9.70372 111.628 11.9714H116.81C116.81 9.70372 115.812 8.34949 114.288 8.34949ZM111.6 14.2102V14.4321C111.6 16.3669 112.321 18.4127 115.065 18.4127C116.366 18.4127 117.503 17.943 118.555 17.0303L119.748 18.8831C118.279 20.1271 116.588 20.735 114.704 20.735C110.741 20.735 108.247 17.8875 108.247 13.4084C108.247 10.9485 108.773 9.3169 109.992 7.93531C111.129 6.63507 112.514 6.05447 114.288 6.05447C115.674 6.05447 116.948 6.41392 118.141 7.49228C119.359 8.598 119.969 10.3124 119.969 13.5749V14.2109H111.6V14.2102ZM129.807 9.04029C129.503 8.92935 129.281 8.84725 128.949 8.84725C127.673 8.84725 126.593 9.78656 126.315 10.9204V20.3763H123.268V10.5062C123.268 8.73631 123.073 7.60322 122.768 6.74601L125.567 6.0271C125.9 6.66317 126.094 7.46491 126.094 8.23855C127.203 6.7179 128.311 5.999 129.669 5.999C130.113 5.999 130.389 6.05447 130.749 6.22088L129.807 9.04029ZM152.279 8.34949C150.561 8.34949 149.618 9.70372 149.618 11.9714H154.801C154.801 9.70372 153.802 8.34949 152.279 8.34949ZM149.591 14.2102V14.4321C149.591 16.3669 150.311 18.4127 153.055 18.4127C154.357 18.4127 155.493 17.943 156.546 17.0303L157.739 18.8831C156.27 20.1271 154.579 20.735 152.695 20.735C148.732 20.735 146.238 17.8875 146.238 13.4084C146.238 10.9485 146.764 9.3169 147.983 7.93531C149.12 6.63507 150.505 6.05447 152.279 6.05447C153.665 6.05447 154.939 6.41392 156.131 7.49228C157.35 8.598 157.96 10.3124 157.96 13.5749V14.2109H149.591V14.2102ZM167.798 9.04029C167.493 8.92935 167.272 8.84725 166.939 8.84725C165.664 8.84725 164.583 9.78656 164.306 10.9204V20.3763H161.259V10.5062C161.259 8.73631 161.064 7.60322 160.759 6.74601L163.558 6.0271C163.891 6.66317 164.085 7.46491 164.085 8.23855C165.193 6.7179 166.302 5.999 167.659 5.999C168.103 5.999 168.38 6.05447 168.74 6.22088L167.798 9.04029Z" fill="#A2232B"/>
<path fill-rule="evenodd" clip-rule="evenodd" d="M140.782 16.6992C140.227 17.5564 139.23 18.2191 138.177 18.2191C136.375 18.2191 135.212 17.1415 135.212 13.2156C135.212 10.4228 136.043 8.62632 138.094 8.62632C139.119 8.62632 140.173 9.17881 140.782 10.0079V16.6992ZM141.391 6.41414C141.253 6.77359 141.17 7.07757 141.142 7.76911C140.422 6.69075 139.008 6.05469 137.568 6.05469C134.048 6.05469 131.914 8.87483 131.914 13.7126C131.914 18.4957 134.519 20.7353 137.568 20.7353C138.842 20.7353 139.895 20.293 140.865 19.3256H140.874C140.874 22.1509 139.642 23.3698 136.747 23.3698C135.632 23.3698 134.576 22.9164 133.653 22.2456L132.392 24.2048C133.75 25.2033 135.284 25.6921 136.975 25.6921C141.161 25.6921 143.692 23.6922 143.692 19.4794V10.3947C143.692 8.73578 143.803 7.27061 144.024 6.4134H141.391V6.41414Z" fill="#A2232B"/>
<path fill-rule="evenodd" clip-rule="evenodd" d="M3.30376 33.7204C2.99756 33.7204 2.74313 33.6316 2.55231 33.4541C2.34818 33.2766 2.24611 33.0089 2.24611 32.5518V25.8457C2.24611 25.0196 2.09375 24.5499 2.09375 24.5499L3.08705 24.3599C3.08705 24.3599 3.25272 24.8924 3.25272 25.8583V32.3233C3.25272 32.8188 3.3289 32.9586 3.60922 32.9586C3.64768 32.9586 3.73717 32.9335 3.73717 32.9335L3.94056 33.5806C3.68614 33.6953 3.57076 33.7204 3.30376 33.7204ZM9.13782 28.7036C8.87082 28.1445 8.30946 27.89 7.78729 27.89C7.2274 27.89 6.70524 28.157 6.48853 28.5764C6.2844 28.9699 6.18307 29.4787 6.18307 30.2272C6.18307 31.117 6.33543 31.9047 6.57728 32.2981C6.80656 32.679 7.3169 32.9335 7.86421 32.9335C8.5269 32.9335 9.02318 32.5903 9.23989 31.9808C9.38041 31.5866 9.43071 31.2309 9.43071 30.6088C9.43071 29.7191 9.34196 29.1222 9.13782 28.7036ZM7.83906 33.7589C6.09358 33.7589 5.10028 32.4756 5.10028 30.3929C5.10028 28.3353 6.13204 27.0772 7.8006 27.0772C8.85825 27.0772 9.54609 27.5602 9.97876 28.1829C10.3737 28.7539 10.5645 29.5039 10.5645 30.5327C10.5645 32.6406 9.43071 33.7589 7.83906 33.7589ZM18.8327 33.5932V27.2932L19.8652 27.1282V33.5939H18.8327V33.5932ZM19.3681 26.0869C18.9347 26.0869 18.5916 25.7437 18.5916 25.3251C18.5916 24.8931 18.9347 24.5374 19.3681 24.5374C19.8008 24.5374 20.1447 24.8798 20.1447 25.3117C20.1447 25.7437 19.8008 26.0869 19.3681 26.0869ZM23.8517 33.784C23.0492 33.784 22.1705 33.5429 21.5204 33.1494L21.9028 32.412C22.5529 32.8062 23.2149 33.0096 23.9153 33.0096C24.6926 33.0096 25.2022 32.5903 25.2022 31.9172C25.2022 31.3455 24.8842 31.0282 24.1579 30.8751L23.368 30.7102C22.3236 30.4942 21.763 29.8463 21.763 28.9699C21.763 27.8272 22.6927 27.0269 24.0174 27.0269C24.6946 27.0354 25.3595 27.2099 25.9537 27.535L25.5839 28.2717C25.024 28.0047 24.5528 27.8146 23.9922 27.8146C23.2659 27.8146 22.794 28.2332 22.794 28.856C22.794 29.3382 23.0366 29.6303 23.7112 29.7701L24.5528 29.9476C25.6992 30.1895 26.2465 30.7738 26.2465 31.7138C26.2465 32.946 25.2784 33.784 23.8517 33.784ZM30.2708 28.0172H28.9469V32.0947C28.9469 32.7937 29.137 33.034 29.7612 33.034C30.0422 33.034 30.2072 32.9971 30.3854 32.9083L30.5259 33.5429C30.2079 33.7078 29.8507 33.7966 29.4047 33.7966C29.1186 33.8023 28.835 33.7416 28.5763 33.6191C28.1311 33.4031 27.9654 32.9963 27.9654 32.3617V28.0165H27.137V27.2673H27.9654C27.9654 26.6578 28.0675 25.6668 28.0675 25.6668L29.1118 25.4382C29.1118 25.4382 28.9839 26.4293 28.9839 27.2673H30.577L30.2708 28.0172ZM31.9142 33.5932V27.2932L32.9467 27.1282V33.5939H31.9142V33.5932ZM32.4497 26.0869C32.0163 26.0869 31.6731 25.7437 31.6731 25.3251C31.6731 24.8931 32.0163 24.5374 32.4497 24.5374C32.8823 24.5374 33.2263 24.8798 33.2263 25.3117C33.2263 25.7437 32.8823 26.0869 32.4497 26.0869ZM37.4938 33.7337C36.5893 33.7337 35.9148 33.4157 35.4688 32.7804C35.0479 32.1709 34.8571 31.4727 34.8571 30.5319C34.8571 29.1481 35.2646 28.3856 35.8127 27.8397C36.3097 27.3442 36.857 27.1031 37.5323 27.1031C38.3348 27.1031 38.8059 27.4078 39.2645 27.7887L38.7172 28.4751C38.2712 28.1067 37.9909 27.967 37.5071 27.967C37.2621 27.9673 37.0216 28.0334 36.8108 28.1584C36.6001 28.2835 36.4267 28.4628 36.309 28.6777C36.0671 29.1222 35.9525 29.8212 35.9525 30.7486C35.9525 32.1709 36.4998 32.9453 37.5197 32.9453C38.0293 32.9453 38.513 32.7042 38.8828 32.2597L39.4301 32.8957C38.8444 33.4919 38.2837 33.7337 37.4938 33.7337ZM42.7813 33.784C41.9781 33.784 41.0994 33.5429 40.4501 33.1494L40.8317 32.412C41.4818 32.8062 42.1438 33.0096 42.8449 33.0096C43.6215 33.0096 44.1319 32.5903 44.1319 31.9172C44.1319 31.3455 43.8123 31.0282 43.0868 30.8751L42.2969 30.7102C41.2525 30.4942 40.6919 29.8463 40.6919 28.9699C40.6919 27.8272 41.6216 27.0269 42.9463 27.0269C43.6235 27.0354 44.2884 27.2099 44.8826 27.535L44.5128 28.2717C43.9529 28.0047 43.4817 27.8146 42.9211 27.8146C42.1948 27.8146 41.7237 28.2332 41.7237 28.856C41.7237 29.3382 41.9655 29.6303 42.6408 29.7701L43.4817 29.9476C44.6281 30.1895 45.1755 30.7738 45.1755 31.7138C45.1755 32.946 44.208 33.784 42.7813 33.784ZM16.1286 31.8788C15.798 32.5008 15.2374 32.8565 14.588 32.8565C14.1043 32.8565 13.7989 32.7426 13.5311 32.4882C13.2131 32.1961 12.9328 31.7767 12.9328 30.3921C12.9328 29.5542 13.0097 29.1599 13.2257 28.7413C13.4808 28.2458 13.9645 27.9662 14.5118 27.9662C15.1228 27.9662 15.7847 28.322 16.1286 28.8685V31.8788ZM16.2943 27.268C16.2307 27.4078 16.1797 27.8005 16.1671 27.9662C15.6198 27.3568 15.0592 27.0772 14.3721 27.0772C13.6206 27.0772 12.9461 27.4455 12.475 28.0934C12.0541 28.6651 11.8759 29.3633 11.8759 30.6214C11.8759 31.9039 12.2708 32.6783 12.8951 33.1997C13.3152 33.5547 13.7604 33.7078 14.3462 33.7078C15.0717 33.7078 15.6449 33.4408 16.1286 32.8817L16.1331 32.8928V33.0451C16.1331 33.642 16.0562 34.0991 15.8402 34.4297C15.4837 34.9755 14.8979 35.2344 14.2611 35.2344C13.6502 35.2344 13.0134 35.0643 12.5674 34.6575L12.1288 35.3845C12.6894 35.8926 13.4527 36.1715 14.2678 36.1715C16.0251 36.1715 17.082 34.9016 17.082 32.8062H17.0842V28.8937C17.0842 27.839 17.275 27.268 17.275 27.268H16.2943Z" fill="#858484"/>
</svg>
