<svg width="140" height="67" viewBox="0 0 140 67" fill="none" xmlns="http://www.w3.org/2000/svg">
<path d="M26.8235 53.7264C26.8235 53.9634 26.8235 54.1215 26.8235 54.2795C26.8235 54.4375 26.8235 54.5165 26.7451 54.6745C26.7451 54.7535 26.6667 54.8325 26.5882 54.9116C26.5882 54.9116 26.5098 54.9116 26.4314 54.9116H21.7255V58.783H26.2745C26.2745 58.783 26.3529 58.862 26.4314 59.02C26.4314 59.02 26.4314 59.1781 26.5098 59.3361C26.5098 59.4941 26.5098 59.6521 26.5098 59.8892C26.5098 60.1262 26.5098 60.2842 26.5098 60.4422C26.5098 60.6002 26.5098 60.6792 26.4314 60.8373C26.4314 60.9163 26.3529 60.9953 26.2745 61.0743C26.2745 61.0743 26.1961 61.0743 26.1176 61.0743H21.7255V66.4469C21.7255 66.5259 21.7255 66.6049 21.7255 66.684C21.7255 66.684 21.5686 66.763 21.4902 66.842C21.3333 66.842 21.2549 66.842 21.0196 66.921C20.8627 66.921 20.6274 66.921 20.3137 66.921C20 66.921 19.8431 66.921 19.6078 66.921C19.451 66.921 19.2941 66.921 19.1373 66.842C19.0588 66.842 18.9804 66.763 18.902 66.684C18.902 66.684 18.902 66.5259 18.902 66.4469V53.4104C18.902 53.0943 18.9804 52.8573 19.1373 52.6993C19.2941 52.5413 19.5294 52.4623 19.7647 52.4623H26.6667C26.6667 52.4623 26.7451 52.6203 26.8235 52.6993C26.8235 52.7783 26.8235 52.9363 26.902 53.0943C26.902 53.2524 26.902 53.4104 26.902 53.6474L26.8235 53.7264Z" fill="#1D1D1B"/>
<path d="M37.7255 66.2889C37.7255 66.3679 37.7255 66.4469 37.7255 66.5259C37.7255 66.5259 37.5686 66.6049 37.4902 66.684C37.4118 66.684 37.2549 66.684 37.0196 66.763C36.8627 66.763 36.6275 66.763 36.3137 66.763C36 66.763 35.7647 66.763 35.6078 66.763C35.451 66.763 35.2941 66.763 35.1373 66.684C34.9804 66.684 34.902 66.684 34.902 66.5259C34.902 66.5259 34.902 66.4469 34.902 66.2889V52.6993C34.902 52.6993 34.902 52.5413 34.902 52.4623C34.902 52.4623 35.0588 52.3833 35.1373 52.3042C35.2157 52.3042 35.3725 52.3042 35.6078 52.2252C35.7647 52.2252 36 52.2252 36.3137 52.2252C36.6275 52.2252 36.8627 52.2252 37.0196 52.2252C37.1765 52.2252 37.3333 52.2252 37.4902 52.3042C37.5686 52.3042 37.6471 52.3833 37.7255 52.4623C37.7255 52.4623 37.7255 52.6203 37.7255 52.6993V66.2889Z" fill="#1D1D1B"/>
<path d="M56 53.4894C56 53.7264 56 53.8844 56 54.0425C56 54.2005 56 54.2795 55.9216 54.4375C55.9216 54.5165 55.8431 54.5955 55.7647 54.6745H52V66.2889C52 66.3679 52 66.4469 52 66.5259C52 66.5259 51.8431 66.6049 51.7647 66.684C51.6863 66.684 51.5294 66.684 51.2941 66.763C51.0588 66.763 50.902 66.763 50.5882 66.763C50.2745 66.763 50.1176 66.763 49.8824 66.763C49.7255 66.763 49.5686 66.763 49.4118 66.684C49.3333 66.684 49.2549 66.684 49.1765 66.5259C49.1765 66.5259 49.1765 66.4469 49.1765 66.2889V54.6745H45.5686C45.5686 54.6745 45.4118 54.6745 45.3333 54.6745C45.3333 54.6745 45.2549 54.5955 45.1765 54.4375C45.1765 54.3585 45.1765 54.2005 45.098 54.0425C45.098 53.8844 45.098 53.7264 45.098 53.4894C45.098 53.2524 45.098 53.0943 45.098 52.9363C45.098 52.7783 45.098 52.6993 45.1765 52.5413C45.1765 52.4623 45.1765 52.3833 45.3333 52.3042C45.3333 52.3042 45.4902 52.3042 45.5686 52.3042H55.6078C55.6078 52.3042 55.6863 52.3042 55.7647 52.3042C55.7647 52.3042 55.8431 52.4623 55.9216 52.5413C55.9216 52.6203 55.9216 52.7783 56 52.9363C56 53.0943 56 53.2524 56 53.4894Z" fill="#1D1D1B"/>
<path d="M74.6667 65.7358C74.6667 65.8939 74.6667 66.0519 74.5882 66.2099C74.5882 66.3679 74.4314 66.4469 74.3529 66.5259C74.2745 66.6049 74.1176 66.684 74.0392 66.684C73.8823 66.684 73.7255 66.684 73.6471 66.684H72.3922C72.1569 66.684 71.9216 66.684 71.7647 66.6049C71.5294 66.6049 71.3726 66.4469 71.2157 66.2889C71.0588 66.1309 70.902 65.9729 70.7451 65.7358C70.5882 65.4988 70.4314 65.1828 70.2745 64.8667L66.7451 58.1509C66.5882 57.7559 66.3529 57.3608 66.1177 56.8868C65.8824 56.4127 65.7255 55.9387 65.5686 55.5436C65.5686 56.0967 65.5686 56.5708 65.5686 57.1238C65.5686 57.6769 65.5686 58.23 65.5686 58.783V66.2889C65.5686 66.2889 65.5686 66.4469 65.5686 66.5259C65.5686 66.5259 65.4902 66.6049 65.3333 66.684C65.2549 66.684 65.098 66.684 64.9412 66.763C64.7843 66.763 64.549 66.763 64.3137 66.763C64.0784 66.763 63.8431 66.763 63.6863 66.763C63.5294 66.763 63.3725 66.763 63.2941 66.684C63.2157 66.684 63.1373 66.6049 63.1373 66.5259C63.1373 66.5259 63.1373 66.3679 63.1373 66.2889V53.3314C63.1373 53.0153 63.2157 52.6993 63.451 52.5413C63.6863 52.3833 63.9216 52.3042 64.2353 52.3042H65.8039C66.1176 52.3042 66.3529 52.3042 66.5098 52.3833C66.6667 52.3833 66.902 52.5413 67.0588 52.6203C67.2157 52.6993 67.3726 52.8573 67.451 53.0943C67.6078 53.3314 67.6863 53.4894 67.8431 53.8054L70.5882 59.02C70.7451 59.3361 70.902 59.6521 71.0588 59.9682C71.2157 60.2842 71.3726 60.6002 71.5294 60.9163C71.6863 61.2323 71.8431 61.5483 71.9216 61.7854C72.0784 62.1014 72.2353 62.4175 72.3137 62.6545C72.3137 62.1804 72.3137 61.6274 72.3137 61.0743V52.6993C72.3137 52.6993 72.3137 52.5413 72.3137 52.4623C72.3137 52.4623 72.4706 52.3833 72.549 52.3042C72.6274 52.3042 72.7843 52.2252 72.9412 52.2252C73.098 52.2252 73.3333 52.2252 73.5686 52.2252C73.8039 52.2252 74.0392 52.2252 74.1961 52.2252C74.3529 52.2252 74.5098 52.2252 74.5882 52.3042C74.6667 52.3042 74.7451 52.3833 74.7451 52.4623C74.7451 52.4623 74.7451 52.6203 74.7451 52.6993V65.6568L74.6667 65.7358Z" fill="#1D1D1B"/>
<path d="M91.451 65.5778C91.451 65.8149 91.451 65.9729 91.451 66.1309C91.451 66.2889 91.451 66.3679 91.3726 66.4469C91.3726 66.5259 91.2941 66.6049 91.2157 66.684H83.9216C83.6863 66.684 83.451 66.6049 83.2941 66.4469C83.1373 66.2889 83.0588 66.0519 83.0588 65.7358V53.1734C83.0588 52.8573 83.1373 52.6203 83.2941 52.4623C83.451 52.3042 83.6863 52.2252 83.9216 52.2252H91.2157C91.2157 52.2252 91.2941 52.3042 91.3726 52.4623C91.3726 52.5413 91.3725 52.6993 91.451 52.8573C91.451 53.0153 91.451 53.1733 91.451 53.4104C91.451 53.6474 91.451 53.8054 91.451 53.9634C91.451 54.1215 91.451 54.2005 91.3726 54.2795C91.3726 54.3585 91.3726 54.4375 91.2157 54.5165H85.9608V58.0719H90.2745C90.2745 58.0719 90.3529 58.0719 90.4314 58.0719C90.4314 58.0719 90.5098 58.1509 90.5882 58.2299C90.5882 58.309 90.5882 58.388 90.6667 58.546C90.6667 58.704 90.6667 58.862 90.6667 59.0991C90.6667 59.3361 90.6667 59.4941 90.6667 59.6521C90.6667 59.8101 90.6667 59.8891 90.5882 59.9682C90.5882 59.9682 90.5882 60.1262 90.4314 60.1262C90.4314 60.1262 90.3529 60.1262 90.2745 60.1262H85.9608V64.1557H91.2941C91.2941 64.1557 91.3725 64.2347 91.451 64.3137C91.451 64.3927 91.451 64.5507 91.5294 64.6297C91.5294 64.7877 91.5294 64.9458 91.5294 65.1828L91.451 65.5778Z" fill="#1D1D1B"/>
<path d="M108.078 62.4174C108.078 63.2075 107.922 63.8396 107.686 64.3927C107.451 64.9458 107.059 65.4198 106.51 65.8149C106.039 66.2099 105.49 66.5259 104.863 66.684C104.235 66.842 103.529 67 102.824 67C102.118 67 101.882 67 101.412 66.842C101.02 66.763 100.627 66.684 100.314 66.5259C100 66.3679 99.6863 66.2889 99.5294 66.1309C99.2941 65.9729 99.1373 65.8939 99.0588 65.8149C98.9804 65.7358 98.902 65.5778 98.8235 65.4198C98.8235 65.2618 98.8235 64.9458 98.8235 64.6297C98.8235 64.3137 98.8235 64.2347 98.8235 64.0766C98.8235 63.9186 98.8235 63.7606 98.8235 63.6816C98.8235 63.6026 98.902 63.5236 98.9804 63.4446C98.9804 63.4446 99.0588 63.4446 99.2157 63.4446C99.3726 63.4446 99.451 63.4446 99.6863 63.6026C99.8431 63.6816 100.078 63.8396 100.392 63.9976C100.706 64.1557 101.02 64.2347 101.412 64.3927C101.804 64.4717 102.275 64.5507 102.824 64.5507C103.373 64.5507 103.529 64.5507 103.765 64.3927C104.078 64.3137 104.235 64.1557 104.471 63.9976C104.627 63.8396 104.784 63.6816 104.941 63.4446C105.02 63.2075 105.098 62.9705 105.098 62.6545C105.098 62.3384 105.02 62.1014 104.863 61.8644C104.706 61.6274 104.471 61.3903 104.157 61.2323C103.843 61.0743 103.529 60.8373 103.216 60.7583C102.824 60.6002 102.51 60.4422 102.118 60.2052C101.725 60.0472 101.333 59.8101 101.02 59.6521C100.706 59.4151 100.314 59.0991 100.078 58.783C99.7647 58.467 99.6078 58.1509 99.3726 57.6769C99.2157 57.2818 99.1373 56.7288 99.1373 56.1757C99.1373 55.6226 99.2941 54.9116 99.5294 54.3585C99.7647 53.8054 100.157 53.4104 100.549 53.0943C100.941 52.7783 101.49 52.4623 102.039 52.3042C102.588 52.1462 103.216 52.0672 103.922 52.0672C104.627 52.0672 104.627 52.0672 104.941 52.0672C105.255 52.0672 105.569 52.2252 105.882 52.3042C106.196 52.3042 106.431 52.4623 106.667 52.6203C106.902 52.6993 107.059 52.8573 107.137 52.8573C107.137 52.8573 107.216 53.0153 107.294 53.0153C107.294 53.0153 107.294 53.1733 107.294 53.2524C107.294 53.3314 107.294 53.4104 107.294 53.5684V54.5955C107.294 54.7535 107.294 54.9116 107.294 54.9906C107.294 55.0696 107.294 55.1486 107.137 55.2276C107.137 55.2276 107.059 55.2276 106.98 55.2276C106.902 55.2276 106.745 55.2276 106.588 55.0696C106.431 54.9906 106.196 54.8325 105.961 54.7535C105.725 54.6745 105.412 54.5165 105.098 54.4375C104.784 54.3585 104.392 54.2795 104 54.2795C103.608 54.2795 103.373 54.2795 103.137 54.3585C102.902 54.3585 102.745 54.5165 102.51 54.6745C102.353 54.8325 102.275 54.9906 102.196 55.1486C102.196 55.3066 102.118 55.5436 102.118 55.7807C102.118 56.0967 102.196 56.3337 102.353 56.5708C102.51 56.8078 102.745 57.0448 103.059 57.2028C103.373 57.3608 103.686 57.5189 104 57.7559C104.392 57.9139 104.784 58.0719 105.098 58.309C105.49 58.467 105.882 58.704 106.275 58.941C106.667 59.1781 106.98 59.4151 107.216 59.7311C107.529 60.0472 107.765 60.4422 107.922 60.8373C108.078 61.2323 108.157 61.7854 108.157 62.3384L108.078 62.4174Z" fill="#1D1D1B"/>
<path d="M124 62.4174C124 63.2075 123.843 63.8396 123.608 64.3927C123.294 64.9458 122.98 65.4198 122.51 65.8149C122.039 66.2099 121.49 66.5259 120.863 66.684C120.235 66.842 119.529 67 118.824 67C118.118 67 117.882 67 117.49 66.842C117.098 66.763 116.706 66.684 116.392 66.5259C116.078 66.3679 115.765 66.2889 115.608 66.1309C115.373 65.9729 115.216 65.8939 115.137 65.8149C115.059 65.7358 114.98 65.5778 114.902 65.4198C114.902 65.2618 114.902 64.9458 114.902 64.6297C114.902 64.3137 114.902 64.2347 114.902 64.0766C114.902 63.9186 114.902 63.7606 114.902 63.6816C114.902 63.6026 114.98 63.5236 115.059 63.4446C115.059 63.4446 115.216 63.4446 115.294 63.4446C115.373 63.4446 115.529 63.4446 115.686 63.6026C115.843 63.6816 116.157 63.8396 116.392 63.9976C116.706 64.1557 117.02 64.2347 117.49 64.3927C117.882 64.4717 118.353 64.5507 118.902 64.5507C119.451 64.5507 119.608 64.5507 119.843 64.3927C120.157 64.3137 120.392 64.1557 120.549 63.9976C120.706 63.8396 120.863 63.6816 121.02 63.4446C121.098 63.2075 121.176 62.9705 121.176 62.6545C121.176 62.3384 121.098 62.1014 120.941 61.8644C120.784 61.6274 120.549 61.3903 120.235 61.2323C119.922 61.0743 119.608 60.8373 119.294 60.7583C118.902 60.6002 118.51 60.4422 118.196 60.2052C117.804 60.0472 117.412 59.8101 117.098 59.6521C116.706 59.4151 116.392 59.0991 116.157 58.783C115.843 58.467 115.608 58.1509 115.451 57.6769C115.294 57.2818 115.216 56.7288 115.216 56.1757C115.216 55.6226 115.373 54.9116 115.608 54.3585C115.843 53.8054 116.235 53.4104 116.627 53.0943C117.02 52.7783 117.569 52.4623 118.118 52.3042C118.745 52.1462 119.294 52.0672 120 52.0672C120.706 52.0672 120.706 52.0672 121.02 52.0672C121.412 52.0672 121.647 52.2252 121.961 52.3042C122.275 52.3042 122.51 52.4623 122.745 52.6203C122.98 52.6993 123.137 52.8573 123.216 52.8573L123.373 53.0153C123.373 53.0153 123.373 53.1733 123.373 53.2524C123.373 53.3314 123.373 53.4104 123.373 53.5684C123.373 53.7264 123.373 53.8844 123.373 54.0425C123.373 54.2005 123.373 54.4375 123.373 54.5955C123.373 54.7535 123.373 54.9116 123.373 54.9906C123.373 55.0696 123.373 55.1486 123.216 55.2276C123.216 55.2276 123.137 55.2276 123.059 55.2276C122.98 55.2276 122.824 55.2276 122.667 55.0696C122.51 54.9906 122.275 54.8325 122.039 54.7535C121.804 54.6745 121.49 54.5165 121.176 54.4375C120.863 54.3585 120.471 54.2795 120.078 54.2795C119.686 54.2795 119.451 54.2795 119.294 54.3585C119.059 54.3585 118.824 54.5165 118.667 54.6745C118.51 54.8325 118.353 54.9906 118.353 55.1486C118.353 55.3066 118.275 55.5436 118.275 55.7807C118.275 56.0967 118.275 56.3337 118.51 56.5708C118.667 56.8078 118.902 57.0448 119.216 57.2028C119.529 57.3608 119.843 57.5189 120.157 57.7559C120.549 57.9139 120.941 58.0719 121.255 58.309C121.647 58.467 122.039 58.704 122.353 58.941C122.745 59.1781 123.059 59.4151 123.373 59.7311C123.686 60.0472 123.922 60.4422 124.078 60.8373C124.235 61.2323 124.314 61.7854 124.314 62.3384L124 62.4174Z" fill="#1D1D1B"/>
<path d="M0 38.1616L15.6863 0H24.9412L40.6275 38.1616H31.2157L27.6078 29.3125H13.1765L9.56863 38.1616H0ZM20.3922 9.16509L14.9804 22.5177H25.8039L20.3922 9.16509Z" fill="#1D1D1B"/>
<path d="M42.5882 0H51.0588V21.4116C51.0588 24.5719 51.0588 27.1002 52.0784 28.7594C53.3333 30.7347 56 31.3667 60.8627 31.3667H67.7647V38.1616H57.1765C55.451 38.1616 48.7059 38.3986 45.3333 34.8432C42.4314 31.8408 42.6667 27.7323 42.6667 21.4116V0H42.5882Z" fill="#1D1D1B"/>
<path d="M99.9216 0V6.79481H89.4118C85.0196 6.79481 83.2941 6.95283 81.098 8.69104C79.8431 9.63915 78.5882 12.3255 78.5882 15.8019H96V22.5967H78.5882C78.5882 25.9941 79.8431 28.1274 81.4118 29.4705C83.6078 31.3667 85.8039 31.3667 89.7255 31.3667H99.8431V38.1616H89.3333C82.902 38.1616 79.451 38.0035 75.0588 34.4481C71.2941 31.4458 69.4118 26.3101 69.4118 18.8833C69.4118 11.4564 71.0588 7.74292 74.2745 4.42453C77.7255 0.948112 81.1765 0 86.1961 0H99.9216Z" fill="#1D1D1B"/>
<path d="M117.255 18.8833L104.863 0H114.745L122.196 12.4835L130.275 0H140L127.216 18.8833L140 38.1616H130.51L122.196 25.046L114.039 38.1616H104.471L117.333 18.8833H117.255Z" fill="#1D1D1B"/>
</svg>
