<svg width="64" height="64" viewBox="0 0 64 64" fill="none" xmlns="http://www.w3.org/2000/svg">
<g clip-path="url(#clip0_823_9149)">
<path d="M42.9903 18.6562H40.2422V42.0153H42.9903V18.6562Z" fill="url(#paint0_linear_823_9149)"/>
<path d="M41.6252 21.4041C44.6607 21.4041 47.1214 18.9434 47.1214 15.9079C47.1214 12.8724 44.6607 10.4116 41.6252 10.4116C38.5897 10.4116 36.1289 12.8724 36.1289 15.9079C36.1289 18.9434 38.5897 21.4041 41.6252 21.4041Z" fill="url(#paint1_linear_823_9149)"/>
<g filter="url(#filter0_bi_823_9149)">
<path d="M51.3351 6.19187C51.0759 5.94157 50.7288 5.80307 50.3685 5.8062C50.0083 5.80933 49.6636 5.95384 49.4089 6.20861C49.1541 6.46337 49.0096 6.808 49.0065 7.16828C49.0033 7.52855 49.1418 7.87564 49.3921 8.13479C51.4504 10.1981 52.6063 12.9935 52.6063 15.9079C52.6063 18.8222 51.4504 21.6176 49.3921 23.6809C49.2609 23.8077 49.1562 23.9593 49.0842 24.127C49.0122 24.2946 48.9743 24.4749 48.9727 24.6573C48.9711 24.8398 49.0059 25.0207 49.075 25.1896C49.1441 25.3585 49.2461 25.5119 49.3751 25.6409C49.5041 25.7699 49.6575 25.8719 49.8264 25.941C49.9953 26.0101 50.1762 26.0449 50.3587 26.0433C50.5411 26.0417 50.7214 26.0038 50.889 25.9318C51.0567 25.8598 51.2083 25.7551 51.3351 25.6239C53.9088 23.0454 55.3544 19.5511 55.3544 15.9079C55.3544 12.2647 53.9088 8.77033 51.3351 6.19187Z" fill="#1D1D1D" fill-opacity="0.05"/>
<path d="M51.3351 6.19187C51.0759 5.94157 50.7288 5.80307 50.3685 5.8062C50.0083 5.80933 49.6636 5.95384 49.4089 6.20861C49.1541 6.46337 49.0096 6.808 49.0065 7.16828C49.0033 7.52855 49.1418 7.87564 49.3921 8.13479C51.4504 10.1981 52.6063 12.9935 52.6063 15.9079C52.6063 18.8222 51.4504 21.6176 49.3921 23.6809C49.2609 23.8077 49.1562 23.9593 49.0842 24.127C49.0122 24.2946 48.9743 24.4749 48.9727 24.6573C48.9711 24.8398 49.0059 25.0207 49.075 25.1896C49.1441 25.3585 49.2461 25.5119 49.3751 25.6409C49.5041 25.7699 49.6575 25.8719 49.8264 25.941C49.9953 26.0101 50.1762 26.0449 50.3587 26.0433C50.5411 26.0417 50.7214 26.0038 50.889 25.9318C51.0567 25.8598 51.2083 25.7551 51.3351 25.6239C53.9088 23.0454 55.3544 19.5511 55.3544 15.9079C55.3544 12.2647 53.9088 8.77033 51.3351 6.19187Z" fill="url(#paint2_linear_823_9149)" fill-opacity="0.2"/>
<path d="M49.6237 23.9207L49.6238 23.9207L49.6281 23.9164C51.7487 21.7906 52.9396 18.9105 52.9396 15.9079C52.9396 12.9062 51.7495 10.027 49.6302 7.90143C49.4417 7.70534 49.3374 7.44322 49.3398 7.17117C49.3422 6.89829 49.4516 6.63727 49.6446 6.44431C49.8375 6.25135 50.0986 6.1419 50.3714 6.13953C50.6434 6.13716 50.9054 6.24132 51.1014 6.42964C53.6114 8.94539 55.0211 12.3541 55.0211 15.9079C55.0211 19.4628 53.6106 22.8724 51.0991 25.3884L51.0991 25.3883L51.0953 25.3923C50.9993 25.4917 50.8845 25.571 50.7575 25.6255L50.889 25.9318L50.7575 25.6255C50.6305 25.6801 50.4939 25.7088 50.3558 25.71C50.2176 25.7112 50.0805 25.6848 49.9526 25.6325L49.8264 25.941L49.9526 25.6325C49.8247 25.5802 49.7085 25.5029 49.6108 25.4052C49.5131 25.3075 49.4358 25.1913 49.3835 25.0634C49.3312 24.9355 49.3048 24.7984 49.306 24.6602C49.3072 24.5221 49.3359 24.3855 49.3905 24.2585C49.445 24.1315 49.5243 24.0167 49.6237 23.9207Z" stroke="url(#paint3_linear_823_9149)" stroke-opacity="0.1" stroke-width="0.666667"/>
</g>
<g filter="url(#filter1_bi_823_9149)">
<path d="M33.849 6.19137C33.5913 5.93377 33.2419 5.78906 32.8775 5.78906C32.5132 5.78906 32.1637 5.93377 31.906 6.19137C29.3323 8.76983 27.8867 12.2642 27.8867 15.9074C27.8867 19.5506 29.3323 23.0449 31.906 25.6234C32.1652 25.8737 32.5123 26.0122 32.8726 26.009C33.2328 26.0059 33.5775 25.8614 33.8322 25.6066C34.087 25.3519 34.2315 25.0072 34.2346 24.647C34.2378 24.2867 34.0993 23.9396 33.849 23.6804C31.7907 21.6171 30.6348 18.8217 30.6348 15.9074C30.6348 12.993 31.7907 10.1976 33.849 8.13429C34.1066 7.87662 34.2513 7.52718 34.2513 7.16283C34.2513 6.79848 34.1066 6.44904 33.849 6.19137Z" fill="#1D1D1D" fill-opacity="0.05"/>
<path d="M33.849 6.19137C33.5913 5.93377 33.2419 5.78906 32.8775 5.78906C32.5132 5.78906 32.1637 5.93377 31.906 6.19137C29.3323 8.76983 27.8867 12.2642 27.8867 15.9074C27.8867 19.5506 29.3323 23.0449 31.906 25.6234C32.1652 25.8737 32.5123 26.0122 32.8726 26.009C33.2328 26.0059 33.5775 25.8614 33.8322 25.6066C34.087 25.3519 34.2315 25.0072 34.2346 24.647C34.2378 24.2867 34.0993 23.9396 33.849 23.6804C31.7907 21.6171 30.6348 18.8217 30.6348 15.9074C30.6348 12.993 31.7907 10.1976 33.849 8.13429C34.1066 7.87662 34.2513 7.52718 34.2513 7.16283C34.2513 6.79848 34.1066 6.44904 33.849 6.19137Z" fill="url(#paint4_linear_823_9149)" fill-opacity="0.2"/>
<path d="M33.613 7.89888L33.6132 7.89863C33.8083 7.70346 33.9179 7.4388 33.9179 7.16283C33.9179 6.8869 33.8084 6.62227 33.6133 6.42711C33.6133 6.42708 33.6133 6.42706 33.6132 6.42704M33.613 7.89888L33.6132 6.42704M33.613 7.89888C31.4924 10.0247 30.3015 12.9047 30.3015 15.9074C30.3015 18.909 31.4916 21.7882 33.6109 23.9138C33.7994 24.1099 33.9037 24.372 33.9013 24.6441C33.8989 24.9169 33.7895 25.178 33.5965 25.3709C33.4036 25.5639 33.1425 25.6733 32.8697 25.6757C32.5977 25.6781 32.3357 25.5739 32.1397 25.3856C29.6297 22.8698 28.2201 19.4612 28.2201 15.9074C28.2201 12.3526 29.6305 8.94305 32.1417 6.42711M33.613 7.89888L32.1417 6.42711M33.6132 6.42704C33.4181 6.23197 33.1534 6.1224 32.8775 6.1224C32.6015 6.1224 32.3369 6.232 32.1417 6.42711M33.6132 6.42704L32.1417 6.42711" stroke="url(#paint5_linear_823_9149)" stroke-opacity="0.1" stroke-width="0.666667"/>
</g>
<g filter="url(#filter2_bi_823_9149)">
<path d="M57.1657 0.363045C56.9048 0.122925 56.5612 -0.00704935 56.2067 0.000295136C55.8522 0.00763962 55.5143 0.151735 55.2636 0.402454C55.0129 0.653173 54.8688 0.991106 54.8614 1.3456C54.8541 1.7001 54.9841 2.04371 55.2242 2.3046C57.0107 4.09093 58.4278 6.21167 59.3947 8.54573C60.3616 10.8798 60.8592 13.3814 60.8592 15.9078C60.8592 18.4342 60.3616 20.9358 59.3947 23.2699C58.4278 25.604 57.0107 27.7247 55.2242 29.511C55.0929 29.6378 54.9883 29.7894 54.9162 29.957C54.8442 30.1247 54.8063 30.305 54.8047 30.4874C54.8032 30.6699 54.8379 30.8508 54.907 31.0197C54.9761 31.1886 55.0781 31.342 55.2071 31.471C55.3362 31.6 55.4896 31.702 55.6584 31.7711C55.8273 31.8402 56.0082 31.875 56.1907 31.8734C56.3731 31.8718 56.5534 31.8339 56.7211 31.7619C56.8887 31.6899 57.0403 31.5852 57.1671 31.454C61.2895 27.331 63.6054 21.7395 63.6054 15.9092C63.6054 10.0789 61.2895 4.48733 57.1671 0.364419L57.1657 0.363045Z" fill="#1D1D1D" fill-opacity="0.05"/>
<path d="M57.1657 0.363045C56.9048 0.122925 56.5612 -0.00704935 56.2067 0.000295136C55.8522 0.00763962 55.5143 0.151735 55.2636 0.402454C55.0129 0.653173 54.8688 0.991106 54.8614 1.3456C54.8541 1.7001 54.9841 2.04371 55.2242 2.3046C57.0107 4.09093 58.4278 6.21167 59.3947 8.54573C60.3616 10.8798 60.8592 13.3814 60.8592 15.9078C60.8592 18.4342 60.3616 20.9358 59.3947 23.2699C58.4278 25.604 57.0107 27.7247 55.2242 29.511C55.0929 29.6378 54.9883 29.7894 54.9162 29.957C54.8442 30.1247 54.8063 30.305 54.8047 30.4874C54.8032 30.6699 54.8379 30.8508 54.907 31.0197C54.9761 31.1886 55.0781 31.342 55.2071 31.471C55.3362 31.6 55.4896 31.702 55.6584 31.7711C55.8273 31.8402 56.0082 31.875 56.1907 31.8734C56.3731 31.8718 56.5534 31.8339 56.7211 31.7619C56.8887 31.6899 57.0403 31.5852 57.1671 31.454C61.2895 27.331 63.6054 21.7395 63.6054 15.9092C63.6054 10.0789 61.2895 4.48733 57.1671 0.364419L57.1657 0.363045Z" fill="url(#paint6_linear_823_9149)" fill-opacity="0.2"/>
<path d="M55.4557 29.7508L55.4558 29.7508L55.4599 29.7467C57.2773 27.9295 58.719 25.772 59.7027 23.3975C60.6863 21.023 61.1926 18.478 61.1926 15.9078C61.1926 13.3376 60.6863 10.7927 59.7027 8.41816C58.72 6.04595 57.2801 3.89032 55.4651 2.07413C55.286 1.87712 55.1892 1.61887 55.1947 1.35251C55.2002 1.08401 55.3094 0.828054 55.4993 0.638156C55.6892 0.448259 55.9451 0.33912 56.2136 0.333557C56.48 0.328039 56.7382 0.424865 56.9352 0.603947C60.9927 4.66398 63.272 10.1691 63.272 15.9092C63.272 21.6511 60.9913 27.1579 56.9314 31.2183L56.9313 31.2182L56.9273 31.2224C56.8313 31.3218 56.7165 31.4011 56.5895 31.4556C56.4625 31.5102 56.326 31.5389 56.1878 31.5401C56.0496 31.5413 55.9126 31.5149 55.7847 31.4626C55.6568 31.4103 55.5406 31.333 55.4428 31.2353C55.3451 31.1376 55.2678 31.0214 55.2155 30.8935C55.1632 30.7656 55.1369 30.6285 55.1381 30.4903C55.1393 30.3521 55.168 30.2156 55.2225 30.0886C55.2771 29.9616 55.3563 29.8468 55.4557 29.7508Z" stroke="url(#paint7_linear_823_9149)" stroke-opacity="0.1" stroke-width="0.666667"/>
</g>
<g filter="url(#filter3_bi_823_9149)">
<path d="M22.3829 15.9078C22.3756 13.3805 22.8697 10.8768 23.8368 8.54174C24.8038 6.20671 26.2245 4.08673 28.0166 2.3046C28.2567 2.04371 28.3866 1.7001 28.3793 1.3456C28.372 0.991106 28.2279 0.653173 27.9771 0.402454C27.7264 0.151735 27.3885 0.00763962 27.034 0.000295136C26.6795 -0.00704935 26.3359 0.122925 26.075 0.363045C21.9526 4.48595 19.6367 10.0775 19.6367 15.9078C19.6367 21.7381 21.9526 27.3297 26.075 31.4526C26.3359 31.6927 26.6795 31.8227 27.034 31.8153C27.3885 31.808 27.7264 31.6639 27.9771 31.4132C28.2279 31.1625 28.372 30.8245 28.3793 30.47C28.3866 30.1155 28.2567 29.7719 28.0166 29.511C26.2245 27.7289 24.8038 25.6089 23.8368 23.2739C22.8697 20.9389 22.3756 18.4352 22.3829 15.9078Z" fill="#1D1D1D" fill-opacity="0.05"/>
<path d="M22.3829 15.9078C22.3756 13.3805 22.8697 10.8768 23.8368 8.54174C24.8038 6.20671 26.2245 4.08673 28.0166 2.3046C28.2567 2.04371 28.3866 1.7001 28.3793 1.3456C28.372 0.991106 28.2279 0.653173 27.9771 0.402454C27.7264 0.151735 27.3885 0.00763962 27.034 0.000295136C26.6795 -0.00704935 26.3359 0.122925 26.075 0.363045C21.9526 4.48595 19.6367 10.0775 19.6367 15.9078C19.6367 21.7381 21.9526 27.3297 26.075 31.4526C26.3359 31.6927 26.6795 31.8227 27.034 31.8153C27.3885 31.808 27.7264 31.6639 27.9771 31.4132C28.2279 31.1625 28.372 30.8245 28.3793 30.47C28.3866 30.1155 28.2567 29.7719 28.0166 29.511C26.2245 27.7289 24.8038 25.6089 23.8368 23.2739C22.8697 20.9389 22.3756 18.4352 22.3829 15.9078Z" fill="url(#paint8_linear_823_9149)" fill-opacity="0.2"/>
<path d="M23.5288 8.4142C22.545 10.7897 22.0422 13.3367 22.0496 15.9078C22.0422 18.4789 22.545 21.026 23.5288 23.4014C24.5117 25.7748 25.9552 27.9297 27.7759 29.7418C27.9548 29.9388 28.0516 30.1969 28.046 30.4631C28.0405 30.7316 27.9313 30.9876 27.7414 31.1775C27.5515 31.3674 27.2956 31.4765 27.0271 31.4821C26.7607 31.4876 26.5025 31.3908 26.3055 31.2117C22.2489 27.1518 19.9701 21.6473 19.9701 15.9078C19.9701 10.1684 22.2489 4.66384 26.3055 0.603946C26.5025 0.424865 26.7607 0.328039 27.0271 0.333557C27.2956 0.33912 27.5515 0.448259 27.7414 0.638156C27.9313 0.828054 28.0405 1.08401 28.046 1.35251C28.0516 1.61872 27.9548 1.87684 27.7759 2.07381C25.9552 3.88589 24.5117 6.04086 23.5288 8.4142Z" stroke="url(#paint9_linear_823_9149)" stroke-opacity="0.1" stroke-width="0.666667"/>
</g>
<path d="M52.6125 64.0003H47.1163C46.7518 64.0003 46.4023 63.6298 46.1446 62.9704C45.887 62.3109 45.7422 61.4164 45.7422 60.4838V56.9673H53.9866V60.4838C53.9866 61.4164 53.8418 62.3109 53.5841 62.9704C53.3264 63.6298 52.9769 64.0003 52.6125 64.0003Z" fill="url(#paint10_linear_823_9149)"/>
<path d="M10.0117 56.9673H18.2561V60.4838C18.2561 61.4164 18.1113 62.3109 17.8536 62.9704C17.596 63.6298 17.2465 64.0003 16.882 64.0003H11.3858C11.0214 64.0003 10.6719 63.6298 10.4142 62.9704C10.1565 62.3109 10.0117 61.4164 10.0117 60.4838V56.9673Z" fill="url(#paint11_linear_823_9149)"/>
<path d="M10.0216 54.3815C11.5393 54.3815 12.7697 53.1511 12.7697 51.6334C12.7697 50.1156 11.5393 48.8853 10.0216 48.8853C8.50381 48.8853 7.27344 50.1156 7.27344 51.6334C7.27344 53.1511 8.50381 54.3815 10.0216 54.3815Z" fill="url(#paint12_linear_823_9149)"/>
<path d="M19.6348 54.3815C21.1526 54.3815 22.383 53.1511 22.383 51.6334C22.383 50.1156 21.1526 48.8853 19.6348 48.8853C18.1171 48.8853 16.8867 50.1156 16.8867 51.6334C16.8867 53.1511 18.1171 54.3815 19.6348 54.3815Z" fill="url(#paint13_linear_823_9149)"/>
<g filter="url(#filter4_bi_823_9149)">
<path d="M53.9869 42.0156H10.0169C7.46591 42.0156 5.01942 43.029 3.21561 44.8328C1.41181 46.6366 0.398438 49.0831 0.398438 51.6341C0.398438 54.185 1.41181 56.6315 3.21561 58.4353C5.01942 60.2391 7.46591 61.2525 10.0169 61.2525H53.9869C56.5378 61.2525 58.9843 60.2391 60.7881 58.4353C62.5919 56.6315 63.6053 54.185 63.6053 51.6341C63.6053 49.0831 62.5919 46.6366 60.7881 44.8328C58.9843 43.029 56.5378 42.0156 53.9869 42.0156Z" fill="#1D1D1D" fill-opacity="0.05"/>
<path d="M53.9869 42.0156H10.0169C7.46591 42.0156 5.01942 43.029 3.21561 44.8328C1.41181 46.6366 0.398438 49.0831 0.398438 51.6341C0.398438 54.185 1.41181 56.6315 3.21561 58.4353C5.01942 60.2391 7.46591 61.2525 10.0169 61.2525H53.9869C56.5378 61.2525 58.9843 60.2391 60.7881 58.4353C62.5919 56.6315 63.6053 54.185 63.6053 51.6341C63.6053 49.0831 62.5919 46.6366 60.7881 44.8328C58.9843 43.029 56.5378 42.0156 53.9869 42.0156Z" fill="url(#paint14_linear_823_9149)" fill-opacity="0.2"/>
<path d="M10.0169 42.349H53.9869C56.4494 42.349 58.8111 43.3272 60.5524 45.0685C62.2937 46.8098 63.272 49.1715 63.272 51.6341C63.272 54.0966 62.2937 56.4583 60.5524 58.1996C58.8111 59.9409 56.4494 60.9192 53.9869 60.9192H10.0169C7.55431 60.9192 5.19261 59.9409 3.45131 58.1996C1.71002 56.4583 0.731771 54.0966 0.731771 51.6341C0.731771 49.1715 1.71002 46.8098 3.45131 45.0685C5.19261 43.3272 7.55431 42.349 10.0169 42.349Z" stroke="url(#paint15_linear_823_9149)" stroke-opacity="0.1" stroke-width="0.666667"/>
</g>
<g filter="url(#filter5_i_823_9149)">
<path d="M10.0216 54.3815C11.5393 54.3815 12.7697 53.1511 12.7697 51.6334C12.7697 50.1156 11.5393 48.8853 10.0216 48.8853C8.50381 48.8853 7.27344 50.1156 7.27344 51.6334C7.27344 53.1511 8.50381 54.3815 10.0216 54.3815Z" fill="white" fill-opacity="0.16"/>
</g>
<g filter="url(#filter6_i_823_9149)">
<path d="M19.6348 54.3815C21.1526 54.3815 22.383 53.1511 22.383 51.6334C22.383 50.1156 21.1526 48.8853 19.6348 48.8853C18.1171 48.8853 16.8867 50.1156 16.8867 51.6334C16.8867 53.1511 18.1171 54.3815 19.6348 54.3815Z" fill="white" fill-opacity="0.16"/>
</g>
</g>
<defs>
<filter id="filter0_bi_823_9149" x="45.9727" y="2.80615" width="12.3828" height="26.2373" filterUnits="userSpaceOnUse" color-interpolation-filters="sRGB">
<feFlood flood-opacity="0" result="BackgroundImageFix"/>
<feGaussianBlur in="BackgroundImageFix" stdDeviation="1.5"/>
<feComposite in2="SourceAlpha" operator="in" result="effect1_backgroundBlur_823_9149"/>
<feBlend mode="normal" in="SourceGraphic" in2="effect1_backgroundBlur_823_9149" result="shape"/>
<feColorMatrix in="SourceAlpha" type="matrix" values="0 0 0 0 0 0 0 0 0 0 0 0 0 0 0 0 0 0 127 0" result="hardAlpha"/>
<feOffset dy="0.5"/>
<feGaussianBlur stdDeviation="1"/>
<feComposite in2="hardAlpha" operator="arithmetic" k2="-1" k3="1"/>
<feColorMatrix type="matrix" values="0 0 0 0 1 0 0 0 0 1 0 0 0 0 1 0 0 0 0.15 0"/>
<feBlend mode="normal" in2="shape" result="effect2_innerShadow_823_9149"/>
</filter>
<filter id="filter1_bi_823_9149" x="24.8867" y="2.78906" width="12.3633" height="26.2202" filterUnits="userSpaceOnUse" color-interpolation-filters="sRGB">
<feFlood flood-opacity="0" result="BackgroundImageFix"/>
<feGaussianBlur in="BackgroundImageFix" stdDeviation="1.5"/>
<feComposite in2="SourceAlpha" operator="in" result="effect1_backgroundBlur_823_9149"/>
<feBlend mode="normal" in="SourceGraphic" in2="effect1_backgroundBlur_823_9149" result="shape"/>
<feColorMatrix in="SourceAlpha" type="matrix" values="0 0 0 0 0 0 0 0 0 0 0 0 0 0 0 0 0 0 127 0" result="hardAlpha"/>
<feOffset dy="0.5"/>
<feGaussianBlur stdDeviation="1"/>
<feComposite in2="hardAlpha" operator="arithmetic" k2="-1" k3="1"/>
<feColorMatrix type="matrix" values="0 0 0 0 1 0 0 0 0 1 0 0 0 0 1 0 0 0 0.15 0"/>
<feBlend mode="normal" in2="shape" result="effect2_innerShadow_823_9149"/>
</filter>
<filter id="filter2_bi_823_9149" x="51.8047" y="-3" width="14.8008" height="37.8735" filterUnits="userSpaceOnUse" color-interpolation-filters="sRGB">
<feFlood flood-opacity="0" result="BackgroundImageFix"/>
<feGaussianBlur in="BackgroundImageFix" stdDeviation="1.5"/>
<feComposite in2="SourceAlpha" operator="in" result="effect1_backgroundBlur_823_9149"/>
<feBlend mode="normal" in="SourceGraphic" in2="effect1_backgroundBlur_823_9149" result="shape"/>
<feColorMatrix in="SourceAlpha" type="matrix" values="0 0 0 0 0 0 0 0 0 0 0 0 0 0 0 0 0 0 127 0" result="hardAlpha"/>
<feOffset dy="0.5"/>
<feGaussianBlur stdDeviation="1"/>
<feComposite in2="hardAlpha" operator="arithmetic" k2="-1" k3="1"/>
<feColorMatrix type="matrix" values="0 0 0 0 1 0 0 0 0 1 0 0 0 0 1 0 0 0 0.15 0"/>
<feBlend mode="normal" in2="shape" result="effect2_innerShadow_823_9149"/>
</filter>
<filter id="filter3_bi_823_9149" x="16.6367" y="-3" width="14.7422" height="37.8154" filterUnits="userSpaceOnUse" color-interpolation-filters="sRGB">
<feFlood flood-opacity="0" result="BackgroundImageFix"/>
<feGaussianBlur in="BackgroundImageFix" stdDeviation="1.5"/>
<feComposite in2="SourceAlpha" operator="in" result="effect1_backgroundBlur_823_9149"/>
<feBlend mode="normal" in="SourceGraphic" in2="effect1_backgroundBlur_823_9149" result="shape"/>
<feColorMatrix in="SourceAlpha" type="matrix" values="0 0 0 0 0 0 0 0 0 0 0 0 0 0 0 0 0 0 127 0" result="hardAlpha"/>
<feOffset dy="0.5"/>
<feGaussianBlur stdDeviation="1"/>
<feComposite in2="hardAlpha" operator="arithmetic" k2="-1" k3="1"/>
<feColorMatrix type="matrix" values="0 0 0 0 1 0 0 0 0 1 0 0 0 0 1 0 0 0 0.15 0"/>
<feBlend mode="normal" in2="shape" result="effect2_innerShadow_823_9149"/>
</filter>
<filter id="filter4_bi_823_9149" x="-2.60156" y="39.0156" width="69.207" height="25.2368" filterUnits="userSpaceOnUse" color-interpolation-filters="sRGB">
<feFlood flood-opacity="0" result="BackgroundImageFix"/>
<feGaussianBlur in="BackgroundImageFix" stdDeviation="1.5"/>
<feComposite in2="SourceAlpha" operator="in" result="effect1_backgroundBlur_823_9149"/>
<feBlend mode="normal" in="SourceGraphic" in2="effect1_backgroundBlur_823_9149" result="shape"/>
<feColorMatrix in="SourceAlpha" type="matrix" values="0 0 0 0 0 0 0 0 0 0 0 0 0 0 0 0 0 0 127 0" result="hardAlpha"/>
<feOffset dy="0.5"/>
<feGaussianBlur stdDeviation="1"/>
<feComposite in2="hardAlpha" operator="arithmetic" k2="-1" k3="1"/>
<feColorMatrix type="matrix" values="0 0 0 0 1 0 0 0 0 1 0 0 0 0 1 0 0 0 0.15 0"/>
<feBlend mode="normal" in2="shape" result="effect2_innerShadow_823_9149"/>
</filter>
<filter id="filter5_i_823_9149" x="7.27344" y="48.8853" width="5.49609" height="5.99609" filterUnits="userSpaceOnUse" color-interpolation-filters="sRGB">
<feFlood flood-opacity="0" result="BackgroundImageFix"/>
<feBlend mode="normal" in="SourceGraphic" in2="BackgroundImageFix" result="shape"/>
<feColorMatrix in="SourceAlpha" type="matrix" values="0 0 0 0 0 0 0 0 0 0 0 0 0 0 0 0 0 0 127 0" result="hardAlpha"/>
<feOffset dy="0.5"/>
<feGaussianBlur stdDeviation="0.25"/>
<feComposite in2="hardAlpha" operator="arithmetic" k2="-1" k3="1"/>
<feColorMatrix type="matrix" values="0 0 0 0 1 0 0 0 0 1 0 0 0 0 1 0 0 0 0.4 0"/>
<feBlend mode="normal" in2="shape" result="effect1_innerShadow_823_9149"/>
</filter>
<filter id="filter6_i_823_9149" x="16.8867" y="48.8853" width="5.49609" height="5.99609" filterUnits="userSpaceOnUse" color-interpolation-filters="sRGB">
<feFlood flood-opacity="0" result="BackgroundImageFix"/>
<feBlend mode="normal" in="SourceGraphic" in2="BackgroundImageFix" result="shape"/>
<feColorMatrix in="SourceAlpha" type="matrix" values="0 0 0 0 0 0 0 0 0 0 0 0 0 0 0 0 0 0 127 0" result="hardAlpha"/>
<feOffset dy="0.5"/>
<feGaussianBlur stdDeviation="0.25"/>
<feComposite in2="hardAlpha" operator="arithmetic" k2="-1" k3="1"/>
<feColorMatrix type="matrix" values="0 0 0 0 1 0 0 0 0 1 0 0 0 0 1 0 0 0 0.4 0"/>
<feBlend mode="normal" in2="shape" result="effect1_innerShadow_823_9149"/>
</filter>
<linearGradient id="paint0_linear_823_9149" x1="40.2422" y1="18.6563" x2="43.685" y2="18.7591" gradientUnits="userSpaceOnUse">
<stop stop-color="#75A5FF"/>
<stop offset="0.703125" stop-color="#008ECF"/>
</linearGradient>
<linearGradient id="paint1_linear_823_9149" x1="36.1289" y1="10.4116" x2="49.0777" y2="13.6996" gradientUnits="userSpaceOnUse">
<stop stop-color="#75A5FF"/>
<stop offset="0.703125" stop-color="#008ECF"/>
</linearGradient>
<linearGradient id="paint2_linear_823_9149" x1="48.9727" y1="5.80615" x2="56.9239" y2="6.44282" gradientUnits="userSpaceOnUse">
<stop stop-color="#87FFE1"/>
<stop offset="0.776042" stop-color="#5C6DFF"/>
</linearGradient>
<linearGradient id="paint3_linear_823_9149" x1="49.1721" y1="6.72603" x2="55.3544" y2="6.72603" gradientUnits="userSpaceOnUse">
<stop stop-color="#3CDEB6"/>
<stop offset="0.65625" stop-color="#364AFF"/>
</linearGradient>
<linearGradient id="paint4_linear_823_9149" x1="27.8867" y1="5.78906" x2="35.8167" y2="6.42286" gradientUnits="userSpaceOnUse">
<stop stop-color="#87FFE1"/>
<stop offset="0.776042" stop-color="#5C6DFF"/>
</linearGradient>
<linearGradient id="paint5_linear_823_9149" x1="28.0856" y1="6.70815" x2="34.2513" y2="6.70815" gradientUnits="userSpaceOnUse">
<stop stop-color="#3CDEB6"/>
<stop offset="0.65625" stop-color="#364AFF"/>
</linearGradient>
<linearGradient id="paint6_linear_823_9149" x1="54.8047" y1="0" x2="65.7861" y2="0.769909" gradientUnits="userSpaceOnUse">
<stop stop-color="#87FFE1"/>
<stop offset="0.776042" stop-color="#5C6DFF"/>
</linearGradient>
<linearGradient id="paint7_linear_823_9149" x1="55.0797" y1="1.44879" x2="63.6054" y2="1.44879" gradientUnits="userSpaceOnUse">
<stop stop-color="#3CDEB6"/>
<stop offset="0.65625" stop-color="#364AFF"/>
</linearGradient>
<linearGradient id="paint8_linear_823_9149" x1="19.6367" y1="0" x2="30.5465" y2="0.761242" gradientUnits="userSpaceOnUse">
<stop stop-color="#87FFE1"/>
<stop offset="0.776042" stop-color="#5C6DFF"/>
</linearGradient>
<linearGradient id="paint9_linear_823_9149" x1="19.9099" y1="1.44617" x2="28.3796" y2="1.44617" gradientUnits="userSpaceOnUse">
<stop stop-color="#3CDEB6"/>
<stop offset="0.65625" stop-color="#364AFF"/>
</linearGradient>
<linearGradient id="paint10_linear_823_9149" x1="45.7422" y1="56.9673" x2="55.2386" y2="59.7939" gradientUnits="userSpaceOnUse">
<stop stop-color="#75A5FF"/>
<stop offset="0.703125" stop-color="#008ECF"/>
</linearGradient>
<linearGradient id="paint11_linear_823_9149" x1="10.0117" y1="56.9673" x2="19.5081" y2="59.7939" gradientUnits="userSpaceOnUse">
<stop stop-color="#75A5FF"/>
<stop offset="0.703125" stop-color="#008ECF"/>
</linearGradient>
<linearGradient id="paint12_linear_823_9149" x1="7.27344" y1="48.8853" x2="13.7479" y2="50.5292" gradientUnits="userSpaceOnUse">
<stop stop-color="#75A5FF"/>
<stop offset="0.703125" stop-color="#008ECF"/>
</linearGradient>
<linearGradient id="paint13_linear_823_9149" x1="16.8867" y1="48.8853" x2="23.3611" y2="50.5292" gradientUnits="userSpaceOnUse">
<stop stop-color="#75A5FF"/>
<stop offset="0.703125" stop-color="#008ECF"/>
</linearGradient>
<linearGradient id="paint14_linear_823_9149" x1="0.398438" y1="42.0156" x2="47.128" y2="81.0023" gradientUnits="userSpaceOnUse">
<stop stop-color="#87FFE1"/>
<stop offset="0.776042" stop-color="#5C6DFF"/>
</linearGradient>
<linearGradient id="paint15_linear_823_9149" x1="2.37365" y1="42.89" x2="63.6053" y2="42.89" gradientUnits="userSpaceOnUse">
<stop stop-color="#3CDEB6"/>
<stop offset="0.65625" stop-color="#364AFF"/>
</linearGradient>
<clipPath id="clip0_823_9149">
<rect width="64" height="64" fill="white"/>
</clipPath>
</defs>
</svg>
