<svg width="170" height="23" viewBox="0 0 170 23" fill="none" xmlns="http://www.w3.org/2000/svg">
<path fill-rule="evenodd" clip-rule="evenodd" d="M78.5683 17.7776V0.149098H82.1242V14.7829H90.9665V17.7776H78.5683ZM95.9146 11.3362C95.9146 12.6131 96.2145 13.5909 96.815 14.2706C97.4163 14.9487 98.1569 15.2889 99.0384 15.2889C99.9191 15.2889 100.658 14.9495 101.255 14.2698C101.851 13.5909 102.15 12.6044 102.15 11.3116C102.15 10.0507 101.851 9.08072 101.255 8.40185C100.658 7.72297 99.9191 7.38354 99.0384 7.38354C98.1569 7.38354 97.4163 7.72297 96.815 8.40185C96.2145 9.08072 95.9146 10.0594 95.9146 11.3362ZM92.4548 11.1538C92.4548 10.0229 92.7303 8.92766 93.2836 7.8689C93.8361 6.81014 94.6184 6.00121 95.6321 5.44367C96.645 4.88614 97.776 4.60698 99.0258 4.60698C100.956 4.60698 102.538 5.23985 103.771 6.50481C105.005 7.76977 105.621 9.36782 105.621 11.2997C105.621 13.2475 104.999 14.8622 103.754 16.1431C102.508 17.4247 100.94 18.0647 99.0502 18.0647C97.8878 18.0664 96.7414 17.7922 95.7037 17.2645C94.6428 16.7315 93.8361 15.9488 93.2836 14.9186C92.7303 13.8876 92.4548 12.6329 92.4548 11.1538ZM110.968 11.069C110.968 12.4354 111.231 13.4355 111.755 14.07C112.28 14.7044 112.927 15.0217 113.695 15.0217C114.52 15.0217 115.217 14.6965 115.786 14.0462C116.355 13.3951 116.639 12.4315 116.639 11.1546C116.639 9.82066 116.367 8.8309 115.822 8.18375C115.277 7.5374 114.589 7.21382 113.756 7.21382C112.946 7.21382 112.28 7.53105 111.755 8.16551C111.231 8.79997 110.968 9.76752 110.968 11.069ZM107.953 18.6222L111.81 19.0957C111.873 19.5477 112.021 19.8594 112.254 20.0291C112.574 20.271 113.079 20.3932 113.768 20.3932C114.648 20.3932 115.31 20.2591 115.75 19.9927C116.046 19.815 116.271 19.5279 116.422 19.1322C116.526 18.849 116.579 18.328 116.579 17.5674V15.6878C115.569 17.0789 114.297 17.7736 112.759 17.7736C111.045 17.7736 109.687 17.0424 108.686 15.5792C107.9 14.4237 107.508 12.985 107.508 11.2633C107.508 9.10531 108.023 7.4565 109.052 6.31685C110.081 5.1772 111.361 4.60698 112.891 4.60698C114.468 4.60698 115.77 5.30647 116.796 6.70467V4.89804H119.955V16.4524C119.955 17.9719 119.83 19.1076 119.582 19.8594C119.334 20.6105 118.986 21.2013 118.537 21.6296C118.089 22.0578 117.49 22.3933 116.741 22.6352C115.993 22.8779 115.045 23 113.899 23C111.737 23 110.203 22.6257 109.298 21.8778C108.393 21.1299 107.941 20.1822 107.941 19.0346C107.941 18.9212 107.944 18.784 107.953 18.6222ZM123.196 17.7736V4.89804H126.572V17.7736H123.196ZM123.196 3.15248V0H126.572V3.15248H123.196ZM128.939 14.1009L132.327 13.579C132.471 14.2421 132.763 14.7449 133.204 15.0883C133.644 15.4317 134.261 15.6038 135.054 15.6038C135.927 15.6038 136.584 15.442 137.024 15.1184C137.321 14.8924 137.469 14.5894 137.469 14.2095C137.472 14.0918 137.453 13.9745 137.412 13.8643C137.371 13.754 137.309 13.6531 137.229 13.5672C137.06 13.4054 136.684 13.2555 136.099 13.1183C133.377 12.5124 131.65 11.958 130.921 11.4576C129.912 10.762 129.408 9.79608 129.408 8.55967C129.408 7.44461 129.844 6.5064 130.717 5.74663C131.59 4.98686 132.944 4.60698 134.778 4.60698C136.523 4.60698 137.821 4.89407 138.67 5.46826C139.519 6.04165 140.104 6.89024 140.425 8.01403L137.24 8.60884C137.104 8.10682 136.845 7.72298 136.466 7.4565C136.085 7.19003 135.543 7.056 134.838 7.056C133.949 7.056 133.312 7.1813 132.927 7.43192C132.672 7.61036 132.543 7.84035 132.543 8.12348C132.543 8.36537 132.655 8.57157 132.879 8.74208C133.184 8.9681 134.235 9.28692 136.034 9.69932C137.831 10.1117 139.087 10.6169 139.8 11.2149C140.504 11.8208 140.857 12.6662 140.857 13.7488C140.857 14.9289 140.368 15.9432 139.391 16.7918C138.414 17.6404 136.968 18.0647 135.054 18.0647C133.316 18.0647 131.94 17.7094 130.928 16.998C129.914 16.2866 129.251 15.3206 128.939 14.1001V14.1009ZM149.664 4.89804V7.61353H147.358V12.8026C147.358 13.8535 147.379 14.4657 147.423 14.6394C147.467 14.8139 147.567 14.9566 147.724 15.07C147.88 15.1834 148.071 15.2397 148.294 15.2397C148.607 15.2397 149.059 15.1311 149.652 14.9122L149.941 17.5555C149.155 17.895 148.267 18.0647 147.274 18.0647C146.664 18.0647 146.116 17.9616 145.627 17.7554C145.139 17.5492 144.779 17.2827 144.553 16.9552C144.324 16.6284 144.166 16.1859 144.077 15.6276C144.006 15.2318 143.97 14.4316 143.97 13.2277V7.61353H142.42V4.89804H143.97V2.33957L147.358 0.351333V4.89804H149.664ZM152.007 17.7736V4.89804H155.382V17.7736H152.007ZM152.007 3.15248V0H155.382V3.15248H152.007ZM169.832 8.7048L166.504 9.31151C166.392 8.64056 166.137 8.13538 165.742 7.79594C165.345 7.4565 164.83 7.28678 164.198 7.28678C163.357 7.28678 162.685 7.58022 162.186 8.16551C161.684 8.75239 161.435 9.73184 161.435 11.1054C161.435 12.6337 161.688 13.7123 162.197 14.3428C162.705 14.9733 163.389 15.2881 164.245 15.2881C164.887 15.2881 165.411 15.1049 165.819 14.7369C166.228 14.369 166.517 13.7369 166.684 12.8391L170 13.4093C169.656 14.9447 168.995 16.105 168.018 16.8886C167.041 17.6729 165.731 18.0647 164.089 18.0647C162.223 18.0647 160.735 17.4707 159.626 16.2826C158.516 15.0946 157.962 13.4498 157.962 11.3481C157.962 9.22268 158.519 7.56753 159.632 6.38347C160.745 5.19941 162.251 4.60698 164.15 4.60698C165.704 4.60698 166.938 4.94483 167.856 5.61974C168.772 6.29385 169.432 7.32326 169.832 8.7048ZM11.0894 10.7065L8.67 4.13272L6.29866 10.7073H11.0886L11.0894 10.7065ZM17.6147 17.7157H13.759L12.2266 13.6917H5.20861L3.75968 17.7157H0L6.83778 0H10.5856L17.6147 17.7157ZM30.4772 8.67625L27.1599 9.28137C27.0481 8.61281 26.7947 8.1092 26.3996 7.77056C26.0045 7.43192 25.4913 7.26299 24.8609 7.26299C24.0227 7.26299 23.3537 7.55484 22.8548 8.13934C22.3558 8.72304 22.1071 9.70011 22.1071 11.0698C22.1071 12.5925 22.3605 13.6679 22.8674 14.296C23.3742 14.9249 24.055 15.239 24.9089 15.239C25.5472 15.239 26.0706 15.0558 26.4775 14.6886C26.8844 14.3222 27.1725 13.6917 27.3393 12.7979L30.6449 13.3657C30.3017 14.8963 29.643 16.0527 28.6694 16.8338C27.695 17.615 26.3901 18.006 24.7531 18.006C22.8933 18.006 21.4106 17.4136 20.3048 16.2295C19.199 15.0454 18.6457 13.4062 18.6457 11.3109C18.6457 9.19254 19.2006 7.54295 20.3103 6.36206C21.42 5.18275 22.9209 4.59191 24.8129 4.59191C26.3618 4.59191 27.5927 4.92897 28.5073 5.6015C29.421 6.27402 30.0782 7.29868 30.4772 8.67705V8.67625ZM38.86 4.88218V7.58895H36.5618V12.7614C36.5618 13.8082 36.5831 14.4189 36.6271 14.5918C36.6718 14.7667 36.7781 14.9192 36.9262 15.0209C37.0828 15.1335 37.2725 15.1898 37.496 15.1898C37.8069 15.1898 38.2579 15.0811 38.8481 14.8638L39.1362 17.4984C38.3539 17.8363 37.4677 18.006 36.4776 18.006C35.8716 18.006 35.3238 17.9029 34.8366 17.6975C34.3502 17.4913 33.9929 17.2264 33.7655 16.8997C33.5372 16.5737 33.3798 16.1328 33.2924 15.5768C33.2208 15.1819 33.1846 14.3848 33.1846 13.1841V7.58895H31.6389V4.88218H33.1838V2.33164L36.5602 0.348953V4.88138H38.8592L38.86 4.88218ZM41.1959 17.7157V4.88218H44.5612V17.7157H41.1959ZM41.1959 3.14217V0H44.5612V3.14217H41.1959ZM51.5871 17.7157L46.4619 4.88138H49.995L52.3899 11.4322L53.0841 13.6187C53.2682 13.0635 53.3831 12.6964 53.4319 12.5195C53.5437 12.1563 53.6633 11.7938 53.7908 11.4314L56.2094 4.88138H59.67L54.6172 17.7157H51.5871ZM69.286 10.199C69.2624 9.21634 69.0106 8.47005 68.5312 7.95773C68.0519 7.44619 67.4695 7.19082 66.7832 7.19082C66.0481 7.19082 65.4413 7.46047 64.9628 7.99976C64.4835 8.53984 64.2482 9.27265 64.2561 10.1998H69.2852L69.286 10.199ZM69.0948 13.6314L72.4475 14.1992C72.0155 15.4404 71.3355 16.385 70.4052 17.0329C69.4757 17.6816 68.3117 18.006 66.9147 18.006C64.7031 18.006 63.0668 17.2764 62.0051 15.8187C61.1669 14.6505 60.7482 13.1762 60.7482 11.3957C60.7482 9.26868 61.2992 7.60322 62.4002 6.39933C63.5021 5.19386 64.8951 4.59191 66.5794 4.59191C68.4714 4.59191 69.9637 5.22241 71.0576 6.4834C72.1516 7.74439 72.675 9.67553 72.627 12.2784H64.197C64.2206 13.2856 64.4914 14.0684 65.0108 14.6283C65.5303 15.1882 66.1764 15.4689 66.9509 15.4689C67.4782 15.4689 67.9205 15.323 68.2802 15.0328C68.6391 14.7433 68.9106 14.2762 69.0948 13.6314ZM46.4619 0H60.1509L46.4619 3.14217V0Z" fill="#E30024"/>
</svg>
